<?xml version="1.0" encoding="UTF-8"?>
<svg version="1.1" xmlns="http://www.w3.org/2000/svg" width="877" height="315">
<path d="M0 0 C0.89861252 0.23902039 1.79722504 0.47804077 2.72306824 0.7243042 C5.67277152 1.51169263 8.61834755 2.31343984 11.56396484 3.1159668 C13.62305463 3.66997608 15.68233307 4.22328463 17.74179077 4.77592468 C22.04882698 5.93400413 26.35393392 7.09892533 30.65771484 8.26904297 C36.16696809 9.76655974 41.68003276 11.2494262 47.19452858 12.72750568 C51.44411958 13.8678206 55.69193889 15.01461959 59.93922043 16.16350365 C61.97128808 16.712598 64.00381951 17.25997908 66.03682327 17.80559731 C68.87918964 18.56974633 71.71914078 19.34229316 74.55859375 20.1171875 C75.39407242 20.34017014 76.22955109 20.56315277 77.09034729 20.79289246 C89.4933214 24.20684625 89.4933214 24.20684625 92.64990234 29.75268555 C93.5954895 32.40336609 93.5954895 32.40336609 94.40820312 35.46630859 C94.71955704 36.62185242 95.03091095 37.77739624 95.35169983 38.96795654 C95.67955978 40.2207843 96.00741974 41.47361206 96.34521484 42.7644043 C96.69718191 44.08275667 97.04997672 45.40088831 97.40354919 46.71881104 C98.34390107 50.23245164 99.27348997 53.74885274 100.20073318 57.26597214 C101.15590311 60.88292584 102.11972844 64.497569 103.08325195 68.11230469 C103.46644099 69.55020986 103.84960453 70.98812182 104.23274231 72.42604065 C104.42120035 73.13332369 104.60965839 73.84060673 104.80382729 74.56932259 C105.37128278 76.70101786 105.93740995 78.83306205 106.5032196 80.9651947 C108.54480083 88.65270334 110.61972734 96.32939145 112.77099609 103.98706055 C112.98929077 104.76761307 113.20758545 105.54816559 113.43249512 106.35237122 C114.38120341 109.74211373 115.3386206 113.12858809 116.3125 116.51123047 C119.61276966 128.31565633 119.61276966 128.31565633 118.64990234 133.75268555 C117.30122089 135.61158848 117.30122089 135.61158848 115.54695129 137.53700256 C114.91026834 138.23769426 114.2735854 138.93838596 113.61760902 139.66031075 C110.6763727 142.78789517 107.68561629 145.85649773 104.64477539 148.88720703 C103.65319679 149.88141411 103.65319679 149.88141411 102.6415863 150.89570618 C100.4840842 153.05756402 98.32299973 155.21579767 96.16162109 157.3737793 C94.65169416 158.8843806 93.14191563 160.39513025 91.63227844 161.90602112 C88.48279211 165.05697548 85.33151961 168.20612941 82.17895508 171.35400391 C78.1324315 175.39480123 74.09045346 179.44011112 70.04977703 183.48675442 C66.94016162 186.59997456 63.8281794 189.71081999 60.71546364 192.82094002 C59.22313794 194.31259772 57.73155724 195.80500113 56.24072838 197.29815483 C54.16557561 199.37583582 52.08726428 201.45030375 50.00805664 203.52392578 C49.39039429 204.14361237 48.77273193 204.76329895 48.13635254 205.40176392 C42.81829497 210.69327032 42.81829497 210.69327032 38.03625488 210.93644714 C33.6300891 210.87495706 29.69700341 209.98622449 25.46826172 208.8125 C24.6930014 208.60595291 23.91774109 208.39940582 23.11898804 208.18659973 C20.57450487 207.50603145 18.0341496 206.81125272 15.49365234 206.1159668 C13.70516693 205.63391645 11.91646656 205.15266299 10.12756348 204.67216492 C6.3804027 203.66350589 2.63508924 202.64834572 -1.10888672 201.62792969 C-5.86221271 200.33249622 -10.61849908 199.04839812 -15.37607574 197.7686739 C-19.96228981 196.53442144 -24.54683857 195.29403406 -29.13134766 194.0534668 C-30.41118279 193.70804557 -30.41118279 193.70804557 -31.71687317 193.35564613 C-36.51268867 192.05908546 -41.30200566 190.74230882 -46.08267212 189.39090347 C-47.60968625 188.96109099 -49.13827996 188.53685575 -50.66830444 188.11788559 C-52.88480089 187.5076912 -55.09327818 186.87408133 -57.30126953 186.23388672 C-58.56644409 185.8756633 -59.83161865 185.51743988 -61.13513184 185.14836121 C-64.84715251 183.53690491 -66.2306646 182.16868564 -68.35009766 178.75268555 C-69.38781738 176.07539368 -69.38781738 176.07539368 -70.15673828 173.14453125 C-70.4557605 172.03200485 -70.75478271 170.91947845 -71.06286621 169.77323914 C-71.37421509 168.56633926 -71.68556396 167.35943939 -72.00634766 166.1159668 C-72.52671694 164.16386396 -73.04711084 162.2117675 -73.56851959 160.25994205 C-74.12170603 158.18283712 -74.66952034 156.10436495 -75.21679688 154.0256958 C-76.34561021 149.75209301 -77.50928506 145.48850874 -78.68212891 141.22680664 C-80.48317081 134.68172627 -82.27138556 128.13334313 -84.04698181 121.58131218 C-85.05882235 117.84889117 -86.07465485 114.1176492 -87.09912109 110.38867188 C-88.11575085 106.68771812 -89.12246668 102.98419809 -90.12232971 99.2786808 C-90.49839365 97.89158043 -90.87789007 96.50540533 -91.26109314 95.12026024 C-95.19469772 80.88422345 -95.19469772 80.88422345 -94.35009766 74.75268555 C-91.44050815 69.72630127 -87.72822036 65.84542382 -83.62548828 61.76928711 C-82.95833298 61.09862717 -82.29117767 60.42796722 -81.60380554 59.73698425 C-79.40963797 57.53405432 -77.20828364 55.33847355 -75.00634766 53.14331055 C-73.47435747 51.60997246 -71.94266423 50.07633763 -70.41125488 48.54241943 C-67.20677347 45.33499448 -63.99871498 42.13120245 -60.78808594 38.92993164 C-56.67207835 34.82533731 -52.56514008 30.71180399 -48.46082306 26.59552383 C-45.30233473 23.42981265 -42.13910353 20.26887529 -38.97441101 17.10936737 C-37.45787209 15.59416276 -35.94281787 14.07747065 -34.42927551 12.55927277 C-32.31588538 10.44080844 -30.19619856 8.32885297 -28.07470703 6.21850586 C-27.45017136 5.58992172 -26.82563568 4.96133759 -26.18217468 4.31370544 C-25.60188004 3.73905045 -25.02158539 3.16439545 -24.42370605 2.57232666 C-23.92375877 2.07313343 -23.42381149 1.5739402 -22.90871429 1.0596199 C-16.07460892 -4.67092788 -7.80661031 -2.15068646 0 0 Z M-19.35009766 34.75268555 C-21.8504142 38.50316036 -21.8861332 40.31124821 -21.35009766 44.75268555 C-19.06881272 47.75094575 -17.38357354 49.36513209 -13.85009766 50.69018555 C-10.10205041 50.78388673 -7.61882444 49.65891896 -4.60009766 47.50268555 C-2.75203085 44.91539201 -2.4764682 42.91194921 -2.35009766 39.75268555 C-3.72403496 36.87395977 -5.09999203 35.00279117 -7.35009766 32.75268555 C-12.3457122 31.27670852 -14.98863343 31.97720831 -19.35009766 34.75268555 Z M30.09130859 78.15112305 C21.20806846 88.02138986 18.27475747 100.70626078 18.43505859 113.6550293 C19.28739696 125.94419876 22.82592351 136.92870671 31.64990234 145.75268555 C41.96403522 152.64153125 52.46064473 154.4946695 64.72021484 152.1706543 C73.65066728 149.38465845 80.98073404 143.344676 85.58740234 135.19018555 C91.43565054 121.76627065 92.38113633 106.01278345 87.65380859 92.12768555 C83.63286188 82.61509566 78.43411048 75.67928758 68.89990234 71.44018555 C55.52951564 66.59848491 40.89712481 68.55249611 30.09130859 78.15112305 Z M-18.35009766 70.75268555 C-18.35009766 97.15268555 -18.35009766 123.55268555 -18.35009766 150.75268555 C-14.06009766 150.75268555 -9.77009766 150.75268555 -5.35009766 150.75268555 C-5.35009766 124.35268555 -5.35009766 97.95268555 -5.35009766 70.75268555 C-9.64009766 70.75268555 -13.93009766 70.75268555 -18.35009766 70.75268555 Z M-60.35009766 135.75268555 C-62.67836141 138.96790692 -62.74720947 141.86098979 -62.35009766 145.75268555 C-61.08905867 148.52697131 -60.03919852 150.2358599 -57.60009766 152.06518555 C-54.28797933 153.0772217 -51.7957054 153.17583036 -48.35009766 152.75268555 C-45.45290356 150.43995113 -45.45290356 150.43995113 -43.35009766 147.75268555 C-43.02009766 147.42268555 -42.69009766 147.09268555 -42.35009766 146.75268555 C-41.67294607 140.77295662 -41.67294607 140.77295662 -44.72509766 135.81518555 C-50.04886916 131.63222222 -54.88688345 131.50351894 -60.35009766 135.75268555 Z " fill="#0071B9" transform="translate(693.35009765625,37.247314453125)"/>
<path d="M0 0 C0.495 20.295 0.495 20.295 1 41 C3.64 39.02 6.28 37.04 9 35 C16.06897884 31.48618011 24.46033858 31.23300498 32.01171875 33.28515625 C39.87010044 36.11046833 45.78652991 42.96915205 49.3125 50.375 C52.48140299 58.51008052 53.36871745 66.69663246 53.3125 75.375 C53.30686035 76.2932959 53.3012207 77.2115918 53.29541016 78.15771484 C53.07867742 90.30547716 50.42675188 101.85481041 42.078125 111.13671875 C34.54083962 118.10432559 27.07477085 119.74053401 16.96875 119.42578125 C10.0876981 118.68755816 4.70713904 116.0635155 0 111 C-0.66 112.98 -1.32 114.96 -2 117 C-7.94 117 -13.88 117 -20 117 C-20 79.05 -20 41.1 -20 2 C-5 0 -5 0 0 0 Z M6 52 C5.23236328 52.54624023 5.23236328 52.54624023 4.44921875 53.10351562 C0.58816465 56.52894011 -0.37196943 59.73224019 -0.72134399 64.85974121 C-0.82554432 67.94171324 -0.83151721 71.01397501 -0.78222656 74.09716797 C-0.75006065 76.49547783 -0.78197431 78.88705318 -0.8203125 81.28515625 C-1.06000988 90.45957204 -1.06000988 90.45957204 2.8359375 98.46875 C6.35043516 101.69175826 10.16487532 103.82383691 15.01171875 104.125 C19.22838698 103.86798403 22.58059802 102.76703474 25.6796875 99.71875 C33.22673565 89.89419027 32.05304117 75.72977019 31 64 C29.93803893 58.48575297 28.39732793 54.63021592 24.75 50.375 C17.8546129 46.92730645 12.06427986 47.29614794 6 52 Z " fill="#0071B9" transform="translate(394,73)"/>
<path d="M0 0 C6.86235133 6.47339215 10.56923675 15.79004666 11.75 25 C11.75 30.94 11.75 36.88 11.75 43 C-5.08 43 -21.91 43 -39.25 43 C-36.70043412 54.71603856 -36.70043412 54.71603856 -29.25 61 C-20.68887496 64.25628506 -12.92087816 62.45156425 -4.7109375 58.90234375 C-2.86194137 57.9909128 -1.05037837 57.00405717 0.75 56 C2.11656457 57.76128344 3.46794085 59.53436088 4.8125 61.3125 C5.94365234 62.79169922 5.94365234 62.79169922 7.09765625 64.30078125 C7.64292969 65.19152344 8.18820312 66.08226562 8.75 67 C7.06511013 72.05466962 2.30922515 73.6530571 -2.25 76 C-12.52692252 80.96380873 -27.85658853 80.96022053 -38.5625 77.3125 C-41.0625 76.1875 -41.0625 76.1875 -43.25 75 C-43.91 74.649375 -44.57 74.29875 -45.25 73.9375 C-53.25703113 68.96761861 -57.54410232 59.72825456 -60.25 51 C-63.43501673 35.91862941 -61.74440362 19.07169884 -53.25 6 C-46.97559116 -1.78242126 -39.85597463 -6.06891216 -30.01953125 -7.74609375 C-19.0390142 -8.75277021 -8.80090479 -6.82111714 0 0 Z M-34.5 11.6875 C-38.76441676 17.32262214 -39.25 21.90148612 -39.25 29 C-29.02 29 -18.79 29 -8.25 29 C-9.12487057 18.1072475 -9.12487057 18.1072475 -14.4140625 10.24609375 C-21.47348165 5.45470075 -27.85372324 6.70279243 -34.5 11.6875 Z " fill="#0071B9" transform="translate(565.25,113)"/>
<path d="M0 0 C7.20396109 7.51847914 8.3766393 15.95437868 8.27734375 26.0390625 C8.28984386 28.08333658 8.3028804 30.12760745 8.31640625 32.171875 C8.32034887 35.36046622 8.31629091 38.54874277 8.30175781 41.73730469 C8.29319923 44.83836507 8.31483156 47.93811752 8.33984375 51.0390625 C8.32649994 51.99121643 8.31315613 52.94337036 8.29940796 53.92437744 C8.34935776 59.59518195 8.34935776 59.59518195 11.47143555 64.27050781 C12.69407104 65.26195801 12.69407104 65.26195801 13.94140625 66.2734375 C14.0625 68.5546875 14.0625 68.5546875 13.37890625 70.7734375 C13.15332031 71.54558594 12.92773438 72.31773437 12.6953125 73.11328125 C11.84938391 75.53710772 10.99852225 77.93268064 9.94140625 80.2734375 C2.76442118 79.95446039 -1.40562711 78.43934192 -6.93359375 73.6484375 C-8.05859375 72.2734375 -8.05859375 72.2734375 -8.05859375 70.2734375 C-8.91130859 70.97919922 -8.91130859 70.97919922 -9.78125 71.69921875 C-10.93947266 72.63314453 -10.93947266 72.63314453 -12.12109375 73.5859375 C-12.87519531 74.20082031 -13.62929688 74.81570312 -14.40625 75.44921875 C-20.42936551 79.59177389 -25.7331754 80.83395398 -32.87109375 80.7734375 C-34.05977051 80.76376953 -34.05977051 80.76376953 -35.27246094 80.75390625 C-42.82762536 80.51867786 -48.43534067 78.84340744 -53.91796875 73.44140625 C-58.82877512 67.51336142 -60.56090412 61.08158322 -60.3046875 53.41015625 C-59.4256297 45.77770199 -57.07896957 39.25231371 -51.05859375 34.2734375 C-39.07393313 26.36776663 -25.83339023 27.00066925 -12.05859375 27.2734375 C-12.42862156 25.1645798 -12.83060977 23.06131234 -13.24609375 20.9609375 C-13.46652344 19.78917969 -13.68695313 18.61742187 -13.9140625 17.41015625 C-14.79414039 14.15178977 -14.79414039 14.15178977 -17.3984375 12.41015625 C-27.67591321 8.01845958 -38.72997392 11.62640428 -49.05859375 14.2734375 C-49.709943 12.71322883 -50.35442339 11.15015171 -50.99609375 9.5859375 C-51.35574219 8.71582031 -51.71539062 7.84570312 -52.0859375 6.94921875 C-53.01562495 4.39164485 -53.60022 1.9513052 -54.05859375 -0.7265625 C-38.28523415 -6.77742298 -14.32072846 -12.01093355 0 0 Z M-36.37109375 45.4609375 C-38.53612974 49.06933081 -39.27281019 52.07149957 -39.05859375 56.2734375 C-37.59039686 60.3689341 -36.05736988 63.37928039 -32.05859375 65.2734375 C-27.41711978 65.99091726 -24.03560145 65.76194135 -19.80859375 63.6484375 C-18.90109375 62.8646875 -17.99359375 62.0809375 -17.05859375 61.2734375 C-16.10984375 60.5103125 -15.16109375 59.7471875 -14.18359375 58.9609375 C-10.22938587 54.12240198 -11.72099955 46.17008294 -12.05859375 40.2734375 C-14.60091717 40.19191406 -17.14058577 40.13270034 -19.68359375 40.0859375 C-20.39644531 40.06080078 -21.10929687 40.03566406 -21.84375 40.00976562 C-27.82587706 39.92744278 -31.91501679 41.24572956 -36.37109375 45.4609375 Z " fill="#0071B9" transform="translate(343.05859375,111.7265625)"/>
<path d="M0 0 C6.91038274 6.57600938 9.91613807 13.4270425 11.6875 22.75 C11.6875 29.35 11.6875 35.95 11.6875 42.75 C-5.1425 42.75 -21.9725 42.75 -39.3125 42.75 C-36.64010859 53.35856411 -36.64010859 53.35856411 -29.5 60.5625 C-21.41297078 63.57531481 -14.27886635 62.91812719 -6.44921875 59.5 C-4.04356754 58.30227832 -1.67426141 57.03209905 0.6875 55.75 C3.3275 59.38 5.9675 63.01 8.6875 66.75 C6.42375718 71.27748564 5.40545991 71.76347467 1 73.875 C-0.01449219 74.37257813 -1.02898437 74.87015625 -2.07421875 75.3828125 C-12.98158217 79.98785134 -27.01302613 80.8969696 -38.4375 77.3125 C-47.80901332 73.09016982 -54.0437455 66.06168026 -58.1953125 56.78515625 C-63.34578158 42.79244829 -62.76601156 26.39794127 -57.0234375 12.66796875 C-51.70309083 2.26910935 -45.31641914 -3.30829762 -34.3125 -7.25 C-22.58826681 -10.28961601 -9.35423248 -7.64394371 0 0 Z M-32.3125 9.75 C-36.4009918 13.74763642 -38.21310772 17.15309385 -39.3125 22.75 C-39.3125 24.73 -39.3125 26.71 -39.3125 28.75 C-29.0825 28.75 -18.8525 28.75 -8.3125 28.75 C-9.20226969 17.37090666 -9.20226969 17.37090666 -15.625 8.8125 C-22.02730879 6.28135466 -26.27933596 6.28651694 -32.3125 9.75 Z " fill="#0071B9" transform="translate(171.3125,113.25)"/>
<path d="M0 0 C5.9007389 5.74125947 7.16907445 13.01882893 7.34057617 20.98852539 C7.34010505 23.69284499 7.32403112 26.39383552 7.29296875 29.09765625 C7.2873626 30.54210466 7.28309733 31.98655883 7.28010559 33.43101501 C7.26873682 37.20401188 7.23934013 40.97665364 7.20599365 44.74951172 C7.17511923 48.61095376 7.16156341 52.47245406 7.14648438 56.33398438 C7.11446114 63.88950235 7.06176031 71.44465586 7 79 C0.07 79 -6.86 79 -14 79 C-14.01458252 77.14802002 -14.02916504 75.29604004 -14.04418945 73.38793945 C-14.09588781 67.26101737 -14.16118631 61.13435762 -14.23571491 55.00767231 C-14.28039482 51.29395541 -14.31965586 47.58034761 -14.34643555 43.86645508 C-14.37249278 40.28063327 -14.41291143 36.69523181 -14.46318626 33.10967064 C-14.47983879 31.74343288 -14.49136315 30.37712244 -14.49761391 29.0107975 C-14.50727161 27.09342502 -14.5370458 25.17618611 -14.56762695 23.2590332 C-14.58428154 21.62355278 -14.58428154 21.62355278 -14.60127258 19.95503235 C-15.05835532 16.56751945 -15.88862299 14.67899702 -18 12 C-22.3750647 10.85244205 -24.76347181 10.62147096 -29.0625 11.9375 C-33.9654415 15.37999084 -38.29451885 18.84589034 -39.65304565 24.91967773 C-39.90380962 28.37982053 -39.9433645 31.78101551 -39.90234375 35.25 C-39.92078087 37.13078247 -39.92078087 37.13078247 -39.93959045 39.04956055 C-39.96587904 42.35777144 -39.96244422 45.66414393 -39.94421387 48.97235107 C-39.93300338 52.35802097 -39.96140962 55.74334362 -39.98632812 59.12890625 C-40.02712337 65.75299904 -40.02502432 72.37584207 -40 79 C-46.93 79 -53.86 79 -61 79 C-61 51.94 -61 24.88 -61 -3 C-54.73 -3 -48.46 -3 -42 -3 C-41.67 -0.69 -41.34 1.62 -41 4 C-38.30454741 4 -37.75135095 3.01099597 -35.8125 1.1875 C-25.63062921 -7.76916642 -10.53957766 -8.79130649 0 0 Z " fill="#0071B9" transform="translate(261,111)"/>
<path d="M0 0 C0 6.93 0 13.86 0 21 C6.27 21 12.54 21 19 21 C18.34 25.95 17.68 30.9 17 36 C11.39 36 5.78 36 0 36 C0.11813471 42.63871509 0.24237521 49.27727693 0.37231445 55.91577148 C0.4156678 58.17485433 0.45734258 60.43397003 0.49731445 62.69311523 C0.55500713 65.93743804 0.61870469 69.1815954 0.68359375 72.42578125 C0.70030624 73.43836502 0.71701874 74.45094879 0.73423767 75.49421692 C0.7641555 76.90534004 0.7641555 76.90534004 0.79467773 78.3449707 C0.81799416 79.58740288 0.81799416 79.58740288 0.84178162 80.85493469 C0.92540723 83.18553247 0.92540723 83.18553247 2 86 C7.14909085 88.12021388 9.90383192 88.03846723 15 86 C16.32 86 17.64 86 19 86 C20.0076952 87.7664657 21.00591714 89.53833823 22 91.3125 C22.556875 92.29863281 23.11375 93.28476563 23.6875 94.30078125 C25 97 25 97 25 100 C23.75264433 100.6509259 22.50198168 101.29551669 21.25 101.9375 C20.55390625 102.29714844 19.8578125 102.65679687 19.140625 103.02734375 C11.57398715 106.46546934 1.15053926 106.08687455 -6.90625 104.38671875 C-12.53906358 102.19725183 -16.22973397 98.33162675 -19 93 C-21.26988169 86.76682455 -21.25961566 80.96684315 -21.1953125 74.37890625 C-21.1924826 73.27900864 -21.18965271 72.17911102 -21.18673706 71.04588318 C-21.1755898 67.55130897 -21.15049498 64.05699606 -21.125 60.5625 C-21.11496316 58.18555059 -21.10583854 55.80859714 -21.09765625 53.43164062 C-21.07566827 47.62099389 -21.04117582 41.81054117 -21 36 C-25.29 36 -29.58 36 -34 36 C-34 31.05 -34 26.1 -34 21 C-29.71 21 -25.42 21 -21 21 C-21 15.06 -21 9.12 -21 3 C-17.7339918 1.3669959 -14.09209125 1.33563819 -10.5 0.9375 C-9.32244141 0.80118164 -9.32244141 0.80118164 -8.12109375 0.66210938 C-2.31643562 0 -2.31643562 0 0 0 Z " fill="#0071B9" transform="translate(82,87)"/>
<path d="M0 0 C0.01030746 1.22108963 0.02061493 2.44217926 0.03123474 3.70027161 C0.1288763 15.19269734 0.23160158 26.6850678 0.33933926 38.17740345 C0.39456745 44.08610465 0.44798736 49.99481081 0.49731445 55.90356445 C0.54495942 61.60293136 0.5973024 67.30223732 0.65294075 73.0015316 C0.67336368 75.17887548 0.69207686 77.35623607 0.70907402 79.53360939 C0.73311929 82.57691124 0.76317386 85.6200976 0.79467773 88.66333008 C0.80331093 90.0217099 0.80331093 90.0217099 0.81211853 91.40753174 C0.82190735 92.23624283 0.83169617 93.06495392 0.84178162 93.91877747 C0.84823417 94.63869779 0.85468672 95.35861811 0.8613348 96.10035419 C0.9379833 98.22448821 0.9379833 98.22448821 2 101 C4.82115184 102.07009208 6.90544541 102 10 102 C10.6700834 104.12392506 11.33596797 106.24917524 12 108.375 C12.37125 109.55835938 12.7425 110.74171875 13.125 111.9609375 C14 115 14 115 14 117 C9.28683636 118.84844386 5.01278456 119.33605632 0 119.3125 C-1.02867187 119.33666992 -1.02867187 119.33666992 -2.078125 119.36132812 C-6.80428443 119.36583782 -9.98902579 118.47422522 -14 116 C-19.93350693 109.7368538 -20.2891373 104.12709213 -20.22705078 95.88549805 C-20.22734283 94.87039658 -20.22763489 93.8552951 -20.22793579 92.80943298 C-20.22654443 89.46010742 -20.21099211 86.11100537 -20.1953125 82.76171875 C-20.19158169 80.43716046 -20.18873504 78.11260059 -20.18673706 75.78804016 C-20.179106 69.67405851 -20.15946193 63.56017209 -20.1373291 57.44622803 C-20.11685939 51.20570158 -20.10773293 44.96515973 -20.09765625 38.72460938 C-20.07621563 26.48303111 -20.04208595 14.24152348 -20 2 C-17.60468244 1.66254646 -15.20885732 1.3299171 -12.8125 1 C-11.80219727 0.85691406 -11.80219727 0.85691406 -10.77148438 0.7109375 C-7.15335423 0.21675387 -3.65203599 -0.11346131 0 0 Z " fill="#0071B9" transform="translate(485,73)"/>
<path d="M0 0 C5.47663427 3.23360526 7.82942968 8.15931932 9.67578125 14.0546875 C10.90813174 19.30070123 10.89255602 24.50988048 10.875 29.875 C10.89111328 30.85210937 10.90722656 31.82921875 10.92382812 32.8359375 C10.92978313 41.79226001 9.69864599 50.39999778 3.2890625 57.09375 C-1.5080512 61.00090143 -7.11547965 62.08906288 -13.203125 61.84765625 C-18.61235105 61.00601094 -22.34346545 58.54541079 -26.25 54.8125 C-33.60415661 43.67620571 -33.39867475 29.52478204 -31.2265625 16.73828125 C-29.73853072 10.63145777 -27.63710572 4.65942589 -22.3125 0.9375 C-15.50943696 -2.46403152 -7.09482208 -3.07352025 0 0 Z " fill="#0071B9" transform="translate(758.4375,118.5)"/>
<path d="M0 0 C2.31 0 4.62 0 7 0 C8.32 3.63 9.64 7.26 11 11 C11.474375 9.741875 11.94875 8.48375 12.4375 7.1875 C12.70433594 6.47980469 12.97117187 5.77210937 13.24609375 5.04296875 C13.86225186 3.37327604 14.43719235 1.68842296 15 0 C17.64 0 20.28 0 23 0 C23 7.59 23 15.18 23 23 C21.35 23 19.7 23 18 23 C17.67 19.37 17.34 15.74 17 12 C16.01 14.64 15.02 17.28 14 20 C12.35 20 10.7 20 9 20 C7.68 17.03 6.36 14.06 5 11 C4.67 14.96 4.34 18.92 4 23 C2.35 23 0.7 23 -1 23 C-1.18451025 7.25512528 -1.18451025 7.25512528 0 0 Z " fill="#0071B9" transform="translate(819,41)"/>
<path d="M0 0 C6.6 0 13.2 0 20 0 C19.67 1.32 19.34 2.64 19 4 C16.69 4 14.38 4 12 4 C12 10.27 12 16.54 12 23 C10.35 23 8.7 23 7 23 C7 16.73 7 10.46 7 4 C4.69 4 2.38 4 0 4 C0 2.68 0 1.36 0 0 Z " fill="#0071B9" transform="translate(798,41)"/>
</svg>
