<svg width="1115" height="233" viewBox="0 0 1115 233" fill="none" xmlns="http://www.w3.org/2000/svg">
<path d="M371.793 118.563C377.843 155.828 345.751 176.831 313.253 179.251C292.568 222.142 219.697 251.106 156.442 219.909C129.403 224.035 114.582 217.216 103.141 204.209C126.26 174.205 196.241 120.2 281.735 148.072C327.364 162.954 339.194 127.99 327.753 114.881C284.693 65.5459 187.487 109.954 183.972 113.653C222.165 54.7209 358.763 38.185 371.793 118.563ZM240.872 50.8341C241.109 50.7489 209.828 39.617 166.075 58.6759C164.314 58.0169 162.588 57.2658 160.904 56.4256C202.984 28.2294 239.875 16.2622 271.41 20.9161C252.313 -1.26244 160.549 -17.5597 107.975 35.5768C42.979 22.672 -2.4807 78.2291 0.104924 128.962C2.69055 179.695 57.5633 211.283 88.8274 202.726C89.5788 202.623 90.3405 202.623 91.0919 202.726C98.0207 169.193 126.311 91.1851 240.872 50.8341ZM502.612 97.1687L508.442 71.325H410.56L408.347 81.3317C405.795 90.1793 412.724 96.4527 420.176 96.2481H465.518L385.144 167.847L379.719 191.866H483.397L489.363 165.562H423.793L502.612 97.1687ZM567.912 118C563.315 116.824 537.577 112.886 539.183 103.953C540.991 93.8785 553.192 92.9239 559.124 93.1114C571.342 93.4694 575.196 98.8904 575.838 100.8C577.528 105.914 581.431 108.488 587.144 108.488H606.443C608.555 96.4356 609.13 68.6315 564.295 68.6315C549.897 68.6315 530.716 72.2796 518.024 87.0255C511.265 94.9355 499.52 114.574 511.501 129.337C517.771 136.787 534.113 142.617 551.655 146.077C562.994 148.328 568.993 152.896 567.743 158.3C566.982 161.931 562.47 170.114 545.773 170.097C538.304 170.097 522.114 168.904 525.207 151.976H494.686C491.104 167.318 489.785 194.1 536.327 194.1C554.274 194.1 590.811 191.798 600.325 153.305C607.186 125.655 576.277 120.183 567.912 118.052V118ZM675.798 160.619C673.166 163.072 670.079 164.976 666.715 166.223C663.351 167.469 659.776 168.032 656.195 167.881C633.144 168.102 635.746 145.089 638.89 131.195C642.033 117.302 649.452 94.9184 671.371 94.9696C686.901 94.9696 688.693 105.113 689.487 108.096H720.903C719.788 74.6492 694.371 68.2564 676.407 68.6997C627.162 69.9271 612.915 111.454 608.504 130.752C595.644 187.127 631.386 194.168 648.489 194.168C662.515 194.168 693.222 190.758 711.254 154.754H688.828C682.355 154.516 679.364 157.414 675.798 160.602V160.619ZM804.083 172.177C795.023 182.959 782.432 190.108 768.594 192.327C741.301 196.878 703.784 195.736 713.231 156.101C716.256 143.452 720.937 135.167 730.35 128.928C746.117 118.478 767.056 116.995 773.849 116.245C776.165 115.989 793.335 114.693 796.275 104.448C799.148 94.4752 783.398 93.6569 778.987 93.6058C765.467 93.4524 760.888 98.8904 758.707 102.129H728.626C740.777 69.8759 774.255 68.6144 783.381 68.6144C793.52 68.6144 834.181 68.6144 826.424 102.607C814.56 154.533 814.053 159.715 804.083 172.177ZM790.563 131.263C785.73 133.94 773.663 136.565 771.737 137.128C765.552 138.969 753.722 139.787 747.976 145.208C743.058 149.896 734.372 169.262 755.006 169.671C767.783 169.909 783.736 162.664 788.265 141.628C789.211 136.872 790.631 131.263 790.631 131.263H790.563ZM867.963 36.0882H851.739L816.487 191.883H847.903L879.759 51.0387C881.144 46.6064 880.249 36.5144 867.963 36.0882ZM949.402 154.737H971.861C964.797 169.125 946.512 194.168 909.062 194.151C861.271 194.151 864.211 151.14 869.095 130.735C882.615 74.0355 920.25 68.6826 937.014 68.6826C959.355 68.6826 994.354 78.0245 976.576 139.787H898.838C896.945 147.97 895.323 168.102 916.752 167.864C928.024 167.744 932.249 163.636 933.263 163.108C936.237 161.607 938.941 154.925 949.402 154.737ZM903.519 119.415H949.3C953.221 97.2539 939.617 94.9525 931.944 94.9525C925.37 94.9525 909.722 97.3562 903.519 119.415ZM1016.75 84.5366C995.706 99.0098 988.744 122.296 986.327 133.462C984.401 142.259 973.095 191.883 973.095 191.883H1004.54C1004.54 191.883 1016.46 137.332 1018.55 129.848C1021.04 121.103 1029.13 97.4585 1060.47 98.4302L1067.73 71.3761C1042.38 70.5578 1025.65 78.4166 1016.73 84.5366H1016.75ZM1071.6 47.8849L1072.4 44.1004H1089.3L1088.48 47.8849H1082.42L1079.04 64.5572H1074.47L1077.94 47.8849H1071.6ZM1099.42 44.1004L1100.97 58.9145L1108.78 44.1004H1115L1110.71 64.5572H1106.58L1110.3 48.277L1101.72 64.5572H1098.34L1096.38 48.277L1093.35 64.5572H1089.14L1093.4 44.1004H1099.42Z" fill="#236BF5"/>
</svg>
