<?xml version="1.0" encoding="UTF-8" standalone="no"?>
<!-- Created with Inkscape (http://www.inkscape.org/) -->

<svg
   version="1.1"
   id="svg2"
   width="284"
   height="60"
   viewBox="0 0 284 60"
   sodipodi:docname="Sonatype Product Logos_sonatype-repository-logo.eps"
   xmlns:inkscape="http://www.inkscape.org/namespaces/inkscape"
   xmlns:sodipodi="http://sodipodi.sourceforge.net/DTD/sodipodi-0.dtd"
   xmlns="http://www.w3.org/2000/svg"
   xmlns:svg="http://www.w3.org/2000/svg">
  <defs
     id="defs6" />
  <sodipodi:namedview
     id="namedview4"
     pagecolor="#ffffff"
     bordercolor="#000000"
     borderopacity="0.25"
     inkscape:showpageshadow="2"
     inkscape:pageopacity="0.0"
     inkscape:pagecheckerboard="0"
     inkscape:deskcolor="#d1d1d1" />
  <g
     id="g8"
     inkscape:groupmode="layer"
     inkscape:label="ink_ext_XXXXXX"
     transform="matrix(1.3333333,0,0,-1.3333333,0,60)">
    <g
       id="g10"
       transform="scale(0.1)">
      <path
         d="m 367.414,261.938 v -45.254 l -108.238,-62.106 -27.387,-15.75 h -0.101 l -39.325,-22.527 -39.422,22.625 -27.488,15.754 -108.0389,62.004 v 45.156 l 40.4297,-23.227 v -0.297 l 106.7342,-61.109 27.586,-15.852 0.199,-0.097 0.203,0.097 27.485,15.75 106.84,61.211 v 0.395 l 40.523,23.227"
         style="fill:#3dba64;fill-opacity:1;fill-rule:nonzero;stroke:none"
         id="path12" />
      <path
         d="M 367.414,189.117 V 143.859 L 259.176,81.7578 231.789,66.0078 h -0.101 L 192.363,43.4766 152.941,66.1055 125.453,81.8594 17.4141,143.859 v 45.161 l 40.4297,-23.231 v -0.293 l 106.7342,-61.109 27.586,-15.8518 0.199,-0.0977 0.203,0.0977 27.485,15.7498 106.84,61.211 v 0.395 l 40.523,23.226"
         style="fill:#1c1e25;fill-opacity:1;fill-rule:nonzero;stroke:none"
         id="path14" />
      <path
         d="m 326.891,381.895 v -70.758 l -106.84,-61.207 -27.485,-15.754 -0.203,-0.098 -0.199,0.098 -27.586,15.851 -106.7342,61.11 v 70.758 H 17.4141 v -92.391 l 108.0389,-62.008 27.488,-15.75 39.422,-22.629 39.325,22.531 27.488,15.75 108.238,62.106 v 92.391 h -40.523"
         style="fill:#1c1e25;fill-opacity:1;fill-rule:nonzero;stroke:none"
         id="path16" />
      <path
         d="m 198.801,298.555 v 74.078 c 4.906,7.195 17.984,12.769 27.789,12.769 3.496,0 6.066,-0.242 8.172,-0.703 v 28.778 c -14.016,0 -27.782,-8.114 -35.961,-17.864 v 15.071 H 169.176 V 298.555 h 29.625"
         style="fill:#3cba63;fill-opacity:1;fill-rule:nonzero;stroke:none"
         id="path18" />
      <path
         d="m 472.227,308.008 11.035,17.246 c 7.832,-8.047 23.222,-15.41 37.48,-15.41 14.492,0 22.09,5.984 22.09,14.715 0,21.847 -67.148,6.211 -67.148,48.984 0,18.164 15.625,33.574 43.691,33.574 18.848,0 33.105,-6.668 42.988,-15.41 l -10.117,-17.012 c -6.66,7.356 -18.848,13.332 -32.871,13.332 -12.656,0 -20.469,-5.976 -20.469,-13.8 0,-19.539 67.149,-4.825 67.149,-48.973 0,-19.777 -16.328,-34.727 -46.231,-34.727 -19.082,0 -36.094,6.211 -47.597,17.481"
         style="fill:#1c1e26;fill-opacity:1;fill-rule:nonzero;stroke:none"
         id="path20" />
      <path
         d="m 663.34,348.934 c 0,19.55 -11.27,36.796 -31.973,36.796 -20.469,0 -31.953,-17.246 -31.953,-36.796 0,-19.774 11.484,-37.02 31.953,-37.02 20.703,0 31.973,17.246 31.973,37.02 z m -89.004,0 c 0,31.964 21.621,58.183 57.031,58.183 35.41,0 57.031,-26.219 57.031,-58.183 0,-31.727 -21.621,-58.407 -57.031,-58.407 -35.41,0 -57.031,26.68 -57.031,58.407"
         style="fill:#1c1e26;fill-opacity:1;fill-rule:nonzero;stroke:none"
         id="path22" />
      <path
         d="m 781.328,293.289 v 69.445 c 0,17.481 -8.965,22.996 -22.539,22.996 -12.187,0 -22.773,-7.363 -28.516,-14.714 v -77.727 h -24.14 v 111.066 h 24.14 v -14.941 c 7.364,8.731 21.856,17.703 39.317,17.703 23.926,0 35.879,-12.879 35.879,-35.644 v -78.184 h -24.141"
         style="fill:#1c1e26;fill-opacity:1;fill-rule:nonzero;stroke:none"
         id="path24" />
      <path
         d="m 899.082,318.582 v 17.023 c -5.742,7.586 -16.094,11.493 -26.445,11.493 -13.555,0 -23.907,-8.047 -23.907,-20.008 0,-12.188 10.352,-20 23.907,-20 10.351,0 20.703,3.906 26.445,11.492 z m 0,-25.293 v 12.188 c -8.281,-9.657 -21.387,-14.95 -36.094,-14.95 -17.929,0 -38.398,12.422 -38.398,36.797 0,25.75 20.234,36.328 38.398,36.328 15.176,0 27.813,-4.824 36.094,-14.257 v 16.562 c 0,12.871 -10.801,20.691 -25.977,20.691 -12.421,0 -23.457,-4.597 -32.89,-14.257 l -10.117,16.789 c 12.89,12.422 28.984,17.937 46.679,17.937 24.844,0 46.446,-10.351 46.446,-40.008 v -73.82 h -24.141"
         style="fill:#1c1e26;fill-opacity:1;fill-rule:nonzero;stroke:none"
         id="path26" />
      <path
         d="m 957.285,319.277 v 64.149 h -18.398 v 20.929 h 18.398 v 30.352 h 24.141 v -30.352 h 22.534 v -20.929 h -22.534 v -58.172 c 0,-7.59 3.672,-13.34 10.586,-13.34 4.59,0 8.728,2.07 10.568,4.141 l 5.76,-18.399 c -4.38,-3.91 -11.504,-7.129 -22.539,-7.129 -18.867,0 -28.516,10.125 -28.516,28.75"
         style="fill:#1c1e26;fill-opacity:1;fill-rule:nonzero;stroke:none"
         id="path28" />
      <path
         d="m 1027.89,271.445 c 2.52,-1.152 6.45,-1.836 9.2,-1.836 7.81,0 12.87,2.293 16.09,9.657 l 5.53,12.648 -45.76,112.441 h 25.98 l 32.42,-83.242 32.42,83.242 h 25.76 l -53.57,-131.074 c -7.6,-18.847 -20.71,-24.836 -37.95,-25.058 -3.46,0 -10.35,0.683 -13.58,1.609 l 3.46,21.613"
         style="fill:#1c1e26;fill-opacity:1;fill-rule:nonzero;stroke:none"
         id="path30" />
      <path
         d="m 1226.13,348.934 c 0,21.621 -12.42,36.796 -31.5,36.796 -11.27,0 -22.99,-6.433 -28.52,-14.714 V 327.09 c 5.3,-8.274 17.25,-15.176 28.52,-15.176 19.08,0 31.5,15.41 31.5,37.02 z m -60.02,-40.235 v -57.722 h -24.14 v 153.378 h 24.14 V 389.18 c 8.28,11.035 21.16,17.937 35.65,17.937 28.75,0 49.2,-21.621 49.2,-58.183 0,-36.563 -20.45,-58.407 -49.2,-58.407 -14.03,0 -26.45,6.446 -35.65,18.172"
         style="fill:#1c1e26;fill-opacity:1;fill-rule:nonzero;stroke:none"
         id="path32" />
      <path
         d="m 1320.21,387.344 c -20.46,0 -30.13,-15.871 -31.05,-29.211 h 62.56 c -0.7,13.105 -9.67,29.211 -31.51,29.211 z m -56.11,-38.41 c 0,32.199 23.46,58.183 56.33,58.183 33.36,0 54.51,-25.293 54.51,-60.254 v -5.976 h -85.55 c 1.84,-16.551 14.26,-30.586 35.18,-30.586 11.04,0 23.69,4.375 31.74,12.422 l 11.03,-15.868 c -11.27,-10.578 -27.59,-16.328 -45.05,-16.328 -33.58,0 -58.19,23.231 -58.19,58.407"
         style="fill:#1c1e26;fill-opacity:1;fill-rule:nonzero;stroke:none"
         id="path34" />
      <path
         d="m 555.469,53.2891 v 67.1489 c 0,15.402 -8.047,20.695 -20.469,20.695 -11.484,0 -20.234,-6.438 -25.293,-12.883 V 53.2891 H 480.508 V 164.355 h 29.199 v -14.257 c 7.129,8.281 20.938,17.019 38.867,17.019 24.61,0 36.328,-13.797 36.328,-35.418 V 53.2891 h -29.433"
         style="fill:#3dba64;fill-opacity:1;fill-rule:nonzero;stroke:none"
         id="path36" />
      <path
         d="m 653.691,143.203 c -18.164,0 -25.996,-12.648 -27.128,-23.683 h 54.726 c -0.918,10.578 -8.281,23.683 -27.598,23.683 z m -57.5,-34.269 c 0,32.199 23.926,58.183 57.5,58.183 33.34,0 55.645,-24.832 55.645,-60.937 v -6.9027 h -82.559 c 2.071,-13.5664 13.106,-24.8359 31.973,-24.8359 9.434,0 22.305,3.918 29.434,10.8125 L 701.289,65.9375 C 690.254,55.8203 672.773,50.5273 655.527,50.5273 c -33.808,0 -59.336,22.7735 -59.336,58.4067"
         style="fill:#3dba64;fill-opacity:1;fill-rule:nonzero;stroke:none"
         id="path38" />
      <path
         d="M 789.844,53.2891 764.551,90.7695 739.023,53.2891 h -32.421 l 39.55,57.0309 -37.265,54.035 h 32.656 l 23.008,-34.035 22.754,34.035 h 32.656 L 782.949,110.32 822.5,53.2891 h -32.656"
         style="fill:#3dba64;fill-opacity:1;fill-rule:nonzero;stroke:none"
         id="path40" />
      <path
         d="m 906.211,53.2891 v 14.0234 c -7.578,-8.2734 -20.918,-16.7852 -39.082,-16.7852 -24.375,0 -35.879,13.3399 -35.879,34.961 v 78.8667 h 29.199 V 96.9805 c 0,-15.4102 8.047,-20.4688 20.469,-20.4688 11.27,0 20.234,6.211 25.293,12.6485 V 164.355 H 935.41 V 53.2891 h -29.199"
         style="fill:#3dba64;fill-opacity:1;fill-rule:nonzero;stroke:none"
         id="path42" />
      <path
         d="m 949.004,67.7734 12.656,21.1602 c 8.281,-7.8203 24.61,-15.4102 38.4,-15.4102 12.65,0 18.63,4.836 18.63,11.7305 0,18.1601 -65.76,3.2227 -65.76,46.9141 0,18.621 16.093,34.949 45.527,34.949 18.613,0 33.573,-6.445 44.613,-15.176 l -11.74,-20.703 c -6.66,6.907 -19.32,12.883 -32.873,12.883 -10.586,0 -17.48,-4.601 -17.48,-10.812 0,-16.329 65.993,-2.528 65.993,-47.3637 0,-20.4687 -17.48,-35.418 -48.279,-35.418 -19.316,0 -37.949,6.4454 -49.687,17.2461"
         style="fill:#3dba64;fill-opacity:1;fill-rule:nonzero;stroke:none"
         id="path44" />
      <path
         d="M 1116.21,53.2891 V 164.355 h 29.22 v -14.941 c 8.05,9.656 21.6,17.703 35.41,17.703 v -28.515 c -2.07,0.461 -4.61,0.695 -8.05,0.695 -9.66,0 -22.54,-5.527 -27.36,-12.656 V 53.2891 h -29.22"
         style="fill:#3dba64;fill-opacity:1;fill-rule:nonzero;stroke:none"
         id="path46" />
      <path
         d="m 1243.63,143.203 c -18.16,0 -25.99,-12.648 -27.13,-23.683 h 54.73 c -0.92,10.578 -8.28,23.683 -27.6,23.683 z m -57.5,-34.269 c 0,32.199 23.93,58.183 57.5,58.183 33.34,0 55.65,-24.832 55.65,-60.937 v -6.9027 h -82.56 c 2.07,-13.5664 13.1,-24.8359 31.97,-24.8359 9.44,0 22.31,3.918 29.44,10.8125 l 13.1,-19.3164 c -11.03,-10.1172 -28.52,-15.4102 -45.76,-15.4102 -33.81,0 -59.34,22.7735 -59.34,58.4067"
         style="fill:#3dba64;fill-opacity:1;fill-rule:nonzero;stroke:none"
         id="path48" />
      <path
         d="m 1396.11,108.934 c 0,19.093 -11.5,32.199 -28.28,32.199 -9.43,0 -20.02,-5.293 -25.08,-12.649 V 89.3945 c 4.83,-7.1289 15.65,-12.8828 25.08,-12.8828 16.78,0 28.28,13.1055 28.28,32.4223 z M 1342.75,67.5469 V 10.9766 h -29.2 V 164.355 h 29.2 v -14.023 c 8.52,10.801 20.71,16.785 34.26,16.785 28.52,0 49.22,-21.16 49.22,-58.183 0,-37.0199 -20.7,-58.4067 -49.22,-58.4067 -13.1,0 -25.06,5.5274 -34.26,17.0196"
         style="fill:#3dba64;fill-opacity:1;fill-rule:nonzero;stroke:none"
         id="path50" />
      <path
         d="m 1523.07,108.934 c 0,17.246 -10.12,32.199 -28.52,32.199 -18.16,0 -28.28,-14.953 -28.28,-32.199 0,-17.4692 10.12,-32.4223 28.28,-32.4223 18.4,0 28.52,14.9531 28.52,32.4223 z m -87.15,0 c 0,31.504 22.07,58.183 58.63,58.183 36.8,0 58.87,-26.679 58.87,-58.183 0,-31.5043 -22.07,-58.4067 -58.87,-58.4067 -36.56,0 -58.63,26.9024 -58.63,58.4067"
         style="fill:#3dba64;fill-opacity:1;fill-rule:nonzero;stroke:none"
         id="path52" />
      <path
         d="m 1559.88,67.7734 12.66,21.1602 c 8.26,-7.8203 24.59,-15.4102 38.4,-15.4102 12.63,0 18.61,4.836 18.61,11.7305 0,18.1601 -65.76,3.2227 -65.76,46.9141 0,18.621 16.09,34.949 45.53,34.949 18.63,0 33.57,-6.445 44.61,-15.176 l -11.72,-20.703 c -6.68,6.907 -19.32,12.883 -32.89,12.883 -10.57,0 -17.48,-4.601 -17.48,-10.812 0,-16.329 65.99,-2.528 65.99,-47.3637 0,-20.4687 -17.46,-35.418 -48.28,-35.418 -19.32,0 -37.95,6.4454 -49.67,17.2461"
         style="fill:#3dba64;fill-opacity:1;fill-rule:nonzero;stroke:none"
         id="path54" />
      <path
         d="M 1673.5,53.2891 V 164.355 h 29.2 V 53.2891 Z m -2.76,140.4999 c 0,9.656 7.81,17.246 17.25,17.246 9.65,0 17.46,-7.59 17.46,-17.246 0,-9.66 -7.81,-17.473 -17.46,-17.473 -9.44,0 -17.25,7.813 -17.25,17.473"
         style="fill:#3dba64;fill-opacity:1;fill-rule:nonzero;stroke:none"
         id="path56" />
      <path
         d="m 1736.52,81.1133 v 57.7147 h -18.39 v 25.527 h 18.39 v 30.352 h 29.2 v -30.352 h 22.54 v -25.527 h -22.54 V 88.9336 c 0,-7.1289 3.67,-12.4219 10.12,-12.4219 4.37,0 8.5,1.6094 10.12,3.4492 l 6.21,-22.3046 c -4.38,-3.9102 -12.19,-7.129 -24.38,-7.129 -20.47,0 -31.27,10.586 -31.27,30.586"
         style="fill:#3dba64;fill-opacity:1;fill-rule:nonzero;stroke:none"
         id="path58" />
      <path
         d="m 1877.95,108.934 c 0,17.246 -10.12,32.199 -28.52,32.199 -18.16,0 -28.28,-14.953 -28.28,-32.199 0,-17.4692 10.12,-32.4223 28.28,-32.4223 18.4,0 28.52,14.9531 28.52,32.4223 z m -87.15,0 c 0,31.504 22.07,58.183 58.63,58.183 36.8,0 58.87,-26.679 58.87,-58.183 0,-31.5043 -22.07,-58.4067 -58.87,-58.4067 -36.56,0 -58.63,26.9024 -58.63,58.4067"
         style="fill:#3dba64;fill-opacity:1;fill-rule:nonzero;stroke:none"
         id="path60" />
      <path
         d="M 1919.82,53.2891 V 164.355 h 29.2 v -14.941 c 8.05,9.656 21.62,17.703 35.41,17.703 v -28.515 c -2.07,0.461 -4.59,0.695 -8.04,0.695 -9.65,0 -22.54,-5.527 -27.37,-12.656 V 53.2891 h -29.2"
         style="fill:#3dba64;fill-opacity:1;fill-rule:nonzero;stroke:none"
         id="path62" />
      <path
         d="m 2009.53,36.043 c 2.52,-1.1524 6.43,-1.836 9.18,-1.836 7.6,0 12.66,2.0703 15.41,8.0469 l 4.14,9.6602 -45.06,112.4409 h 31.27 l 28.97,-77.2652 29.2,77.2652 h 31.29 l -52.21,-129.23 c -8.28,-20.9258 -22.99,-26.44531 -42.07,-26.90234 -3.22,0 -10.82,0.68359 -14.26,1.83594 l 4.14,25.9844"
         style="fill:#3dba64;fill-opacity:1;fill-rule:nonzero;stroke:none"
         id="path64" />
    </g>
  </g>
</svg>
