<?xml version="1.0" encoding="UTF-8"?> <!-- Generator: Adobe Illustrator 23.0.1, SVG Export Plug-In . SVG Version: 6.00 Build 0) --> <svg xmlns="http://www.w3.org/2000/svg" xmlns:xlink="http://www.w3.org/1999/xlink" id="Layer_1" x="0px" y="0px" viewBox="0 0 1280 174" style="enable-background:new 0 0 1280 174;" xml:space="preserve"> <style type="text/css"> .st0{fill:#22AAEE;} </style> <title>FORESCOUT-logo</title> <path class="st0" d="M106.1,149.1l-91.8-41.6C2.9,102.3-2.1,88.9,3,77.5c2.3-5,6.3-9,11.2-11.2l91.8-41.6l11.3,24.9L35.2,86.8 l82.2,37.3L106.1,149.1z"></path> <g> <g> <g> <path d="M321.1,42.1h-48.8c-5.7,0-9.7,1.1-11.9,3.3c-2.3,2.2-2.4,5.9-2.4,11.3v19.8h49l0.1,23.8H258v56.5h-27V46.4 c0-10.2,2.2-17.4,6.7-21.6c4.5-4.2,12.2-6.4,23-6.4h60.4V42.1z"></path> <path d="M440.8,81.1v10.4c0,23-4.3,39.7-13,50.1c-8.7,10.4-22.6,15.6-41.7,15.6c-19.1,0-32.9-5.2-41.5-15.6 c-8.5-10.4-12.8-27.3-12.8-50.6v-10c0-21.3,4.3-37.1,13-47.5s22.4-15.6,41.2-15.6c18.8,0,32.6,5.3,41.5,15.8 S440.8,59.9,440.8,81.1z M415.4,90.9v-7.2c0-12.4-1.5-22.2-4.6-29.6c-3.6-8.5-11.3-12.8-23.2-12.8c-12,0-19.8,4.3-23.4,12.8 c-3,7-4.4,16.8-4.4,29.6v7.2c0,16.6,2.3,27.9,7,33.7c2.1,2.7,4.9,4.9,8,6.3c4,1.8,8.4,2.7,12.8,2.6c4.4,0.1,8.7-0.7,12.7-2.5 c3.1-1.4,5.9-3.5,8.1-6.2c2.1-2.9,3.6-6.2,4.4-9.7C414.5,108.8,415.4,100.7,415.4,90.9L415.4,90.9z"></path> <path d="M569.4,156.8h-31.8L510.8,106h-19.2v50.8h-27V48.1c0-10.4,2.4-17.9,7.2-22.7c4.8-4.7,12.8-7.1,24.1-7.1h22.9 c13.7,0,24.7,4.2,32.8,12.5s12.2,19,12.2,31.8c0,9.3-2.4,17.4-7.3,24.2c-4.9,6.8-10.9,11.5-18,14.1L569.4,156.8z M530.9,76.4 c3.7-3.9,5.5-8.8,5.5-14.7c0-5.9-1.8-10.6-5.3-14.2c-3.5-3.6-8.3-5.4-14.2-5.4h-13.4c-8,0-12,4.1-12,12.2v28h25.3 C522.1,82.4,527.2,80.3,530.9,76.4L530.9,76.4z"></path> <path d="M676.7,156.8H628c-15.6,0-26.5-2.7-32.8-8.1c-6.3-5.4-9.4-14.9-9.4-28.5V40.4c0-12.2,9.9-22.1,22.1-22.1h68.9v23.8h-63.9 v32.8h44.6l-0.1,23.8h-44.6v20.2c0,5.4,1.2,9.1,3.7,11.1c2.5,2,6.9,3.1,13.4,3.1h46.9V156.8z"></path> <path d="M794.8,115.6c0,13-4.8,23.2-14.3,30.6c-9.5,7.4-21.7,11.1-36.5,11.1c-11.7,0-23-3.2-34-9.6c-5.6-3.5-10.2-8.4-13.3-14.2 c-3.5-6.4-5.3-13.6-5.2-20.9l24.3-1.2c0,6.9,3,12.4,8.9,16.2c5.8,3.8,12.7,5.8,19.7,5.8c16.1,0,24.1-5.7,24.1-17 c0-9.3-5.5-14.7-16.4-16.4l-22.4-2.3c-11.2-1.7-20.1-5.7-26.6-12c-6.6-6.3-9.8-15.4-9.8-27.2c0-11.8,4.7-21.6,14.1-29.3 c9.4-7.7,21.3-11.6,35.6-11.6c14.3,0,25.9,3.6,34.6,10.9c8.8,7.3,13.1,16.6,13.1,28.1l-23.9,1.2c-2.2-11.2-9.7-16.8-22.6-16.8 c-7.8,0-14,1.7-18.4,5c-4.4,3.3-6.7,7.3-6.7,11.9c0,4.6,1.6,8.2,4.8,10.8c3.4,2.7,7.6,4.4,12,4.9l22,2.3 C782.5,79.2,794.8,92.4,794.8,115.6z"></path> <path d="M887.2,102.8h25.1c0,17.2-4.4,30.4-13.2,39.6c-8.8,9.2-21.3,13.8-37.4,13.8c-35.4,0-53.1-20.3-53.1-60.8V84 c0-31.9,9.1-52,27.2-60c7.1-3.3,15.8-4.9,25.9-4.9c14.8,0,26.8,3.9,36.1,11.8c9.3,7.9,13.9,19.3,13.9,34.2h-25.3 c-1.4-7.4-4-13.1-7.6-16.9c-3.6-3.8-9.3-5.7-17.1-5.7c-9.1,0-15.8,2.8-20.2,8.3c-3.1,3.9-4.9,10.6-5.4,20.1 c-0.3,3-0.4,7.1-0.4,12.3V95c0,14.5,2.1,24.4,6.2,29.7c4.3,5.3,10.9,8,19.9,8c9,0,15.2-2.4,18.7-7.3 C884,120.5,886.2,113,887.2,102.8z"></path> <path d="M1035.6,81.1v10.4c0,23-4.3,39.7-13,50.1c-8.7,10.4-22.6,15.6-41.7,15.6c-19.1,0-32.9-5.2-41.5-15.6 c-8.5-10.4-12.8-27.3-12.8-50.6v-10c0-21.3,4.3-37.1,13-47.5s22.4-15.6,41.2-15.6s32.6,5.3,41.5,15.8 C1031.2,44.1,1035.6,59.9,1035.6,81.1z M1009.4,90.9v-7.2c0-12.4-1.5-22.2-4.6-29.6c-3.6-8.5-11.3-12.8-23.2-12.8 c-12,0-19.8,4.3-23.4,12.8c-3,7-4.4,16.8-4.4,29.6v7.2c0,16.6,2.3,27.9,7,33.7c2.1,2.7,4.9,4.9,8,6.3c8.1,3.4,17.3,3.5,25.4,0.1 c3.1-1.4,5.9-3.5,8.1-6.2c2.1-2.9,3.6-6.2,4.4-9.7C1008.5,108.8,1009.4,100.7,1009.4,90.9L1009.4,90.9z"></path> <path d="M1161,18.4v90.3c0,14.9-5,26.7-15.1,35.3c-10.1,8.6-22.5,12.9-37.3,12.9c-14.8,0-27.2-4.3-37.3-12.9 c-10.1-8.6-15.1-20.4-15.1-35.3V18.4h27v89.3c0,8.5,2.3,14.8,6.9,19s10.8,6.3,18.4,6.3c7.6,0,13.8-2.1,18.5-6.3 c4.7-4.2,7-10.5,7-19V18.4H1161z"></path> <path d="M1278.1,43h-36.9v113.9h-27.9V43h-35.2V18.4h100V43z"></path> </g> </g> </g> <path class="st0" d="M151.8,86.8c0,26.1-6.6,51.8-19.2,74.6l25.1,11.2c14.1-26.4,21.5-55.9,21.5-85.8c0-29.9-7.4-59.4-21.5-85.8 l-25.1,11.2C145.2,35,151.8,60.7,151.8,86.8z"></path> <path d="M1275.7,153.9c-4.3,4.2-11.2,4.2-15.4-0.1c-2.1-2.1-3.2-4.9-3.2-7.8c-0.1-3,1.2-6,3.4-8c2-1.9,4.7-3,7.5-3 c6,0,10.9,4.9,10.9,11C1279,149,1277.8,151.8,1275.7,153.9L1275.7,153.9z M1261.7,139.8c-1.7,1.7-2.6,3.9-2.6,6.3 c0,2.4,0.9,4.8,2.7,6.4c3.5,3.5,9.1,3.5,12.7,0.1c0,0,0,0,0.1-0.1c1.7-1.7,2.7-4,2.6-6.4c0-2.4-0.9-4.7-2.6-6.3 c-3.4-3.5-9-3.7-12.5-0.3C1261.9,139.6,1261.8,139.7,1261.7,139.8L1261.7,139.8z M1263.3,152.2v-12.1h3.4h2.5c0.8,0,1.6,0.2,2.4,0.6 c1.1,0.6,1.7,1.7,1.6,2.9c0.1,0.8-0.2,1.6-0.8,2.2c-0.6,0.5-1.3,0.7-2.1,0.8c0.6,0.1,1.2,0.3,1.7,0.7c0.8,0.7,1.2,1.7,1.1,2.7v1.1 c0,0.1,0,0.2,0,0.4c0,0.1,0,0.2,0.1,0.4l0.1,0.3h-3c-0.1-0.6-0.2-1.1-0.2-1.7c0-0.5-0.1-1-0.2-1.5c-0.1-0.4-0.5-0.7-0.9-0.9 c-0.3-0.1-0.7-0.2-1.1-0.2h-0.7h-0.7v4.3L1263.3,152.2z M1269.1,142.4c-0.6-0.2-1.2-0.3-1.8-0.2h-0.8v3.5h1.2c0.6,0,1.2-0.1,1.7-0.4 c0.4-0.3,0.7-0.9,0.6-1.4C1270.1,143.2,1269.7,142.6,1269.1,142.4L1269.1,142.4z"></path> </svg> 