<?xml version="1.0" encoding="UTF-8"?>
<svg width="205px" height="28px" viewBox="0 0 205 28" version="1.1" xmlns="http://www.w3.org/2000/svg" xmlns:xlink="http://www.w3.org/1999/xlink">
    <title>6E2A3D89-518F-4383-B062-20B23BD360F0</title>
    <defs>
        <filter color-interpolation-filters="auto" id="filter-1">
            <feColorMatrix in="SourceGraphic" type="matrix" values="0 0 0 0 1.000000 0 0 0 0 1.000000 0 0 0 0 1.000000 0 0 0 1.000000 0"></feColorMatrix>
        </filter>
    </defs>
    <g id="UI-kit" stroke="none" stroke-width="1" fill="none" fill-rule="evenodd">
        <g transform="translate(-341.000000, -273.000000)" id="Group-14-Copy" filter="url(#filter-1)">
            <g transform="translate(341.000000, 273.828835)" id="forescout-logo-new-edit" fill-rule="nonzero">
                <path d="M17.1554276,23 L2.17031763,16.3118971 C0.309421619,15.4758842 -0.506760843,13.3215434 0.325745269,11.488746 C0.701189201,10.6848875 1.35413517,10.0418006 2.15399398,9.68810289 L17.139104,3 L18.9836764,7.00321543 L5.58196032,12.9839228 L19,18.9807074 L17.1554276,23 Z" id="Path" fill="#22AAEE"></path>
                <g id="Group" transform="translate(37.000000, 2.097872)" fill="#000000">
                    <path d="M14.4435115,3.9964539 L6.62061069,3.9964539 C5.70687023,3.9964539 5.06564885,4.17588652 4.7129771,4.53475177 C4.34427481,4.89361702 4.32824427,5.49716312 4.32824427,6.37801418 L4.32824427,9.60780142 L12.1832061,9.60780142 L12.1992366,13.4900709 L4.32824427,13.4900709 L4.32824427,22.706383 L0,22.706383 L0,4.69787234 C0,3.03404255 0.352671756,1.85957447 1.0740458,1.17446809 C1.79541985,0.489361702 3.02977099,0.130496454 4.7610687,0.130496454 L14.4435115,0.130496454 L14.4435115,3.9964539 L14.4435115,3.9964539 Z" id="Path"></path>
                    <path d="M33.6320611,10.358156 L33.6320611,12.0546099 C33.6320611,15.806383 32.9427481,18.5304965 31.5480916,20.2269504 C30.1534351,21.9234043 27.9251908,22.7716312 24.8633588,22.7716312 C21.8015267,22.7716312 19.589313,21.9234043 18.210687,20.2269504 C16.8480916,18.5304965 16.1587786,15.7737589 16.1587786,11.9730496 L16.1587786,10.341844 C16.1587786,6.86737589 16.8480916,4.29007092 18.2427481,2.59361702 C19.6374046,0.897163121 21.8335878,0.0489361702 24.8473282,0.0489361702 C27.8610687,0.0489361702 30.0732824,0.913475177 31.5,2.62624113 C32.9267176,4.33900709 33.6320611,6.9 33.6320611,10.358156 Z M29.5603053,11.9567376 L29.5603053,10.7822695 C29.5603053,8.75957447 29.3198473,7.16099291 28.8229008,5.95390071 C28.2458015,4.56737589 27.0114504,3.86595745 25.1038168,3.86595745 C23.1801527,3.86595745 21.929771,4.56737589 21.3526718,5.95390071 C20.8717557,7.09574468 20.6473282,8.69432624 20.6473282,10.7822695 L20.6473282,11.9567376 C20.6473282,14.664539 21.0160305,16.5078014 21.7694656,17.4539007 C22.1061069,17.8943262 22.5549618,18.2531915 23.0519084,18.4815603 C23.6931298,18.7751773 24.3984733,18.9219858 25.1038168,18.9056738 C25.8091603,18.9219858 26.4984733,18.7914894 27.1396947,18.4978723 C27.6366412,18.2695035 28.0854962,17.9269504 28.4381679,17.4865248 C28.7748092,17.0134752 29.0152672,16.4751773 29.1435115,15.9042553 C29.4160305,14.8765957 29.5603053,13.5553191 29.5603053,11.9567376 L29.5603053,11.9567376 Z" id="Shape"></path>
                    <path d="M54.2473282,22.706383 L49.1496183,22.706383 L44.8534351,14.4198582 L41.7755725,14.4198582 L41.7755725,22.706383 L37.4473282,22.706383 L37.4473282,4.9751773 C37.4473282,3.2787234 37.8320611,2.05531915 38.6015267,1.27234043 C39.3709924,0.505673759 40.6534351,0.114184397 42.4648855,0.114184397 L46.1358779,0.114184397 C48.3320611,0.114184397 50.0954198,0.79929078 51.3938931,2.15319149 C52.6923664,3.5070922 53.3496183,5.25248227 53.3496183,7.34042553 C53.3496183,8.85744681 52.9648855,10.1787234 52.1793893,11.2879433 C51.3938931,12.3971631 50.4320611,13.1638298 49.2938931,13.5879433 L54.2473282,22.706383 Z M48.0755725,9.59148936 C48.6687023,8.95531915 48.9572519,8.15602837 48.9572519,7.19361702 C48.9572519,6.23120567 48.6687023,5.46453901 48.1076336,4.87730496 C47.5465649,4.29007092 46.7770992,3.9964539 45.8312977,3.9964539 L43.6832061,3.9964539 C42.4007634,3.9964539 41.759542,4.66524823 41.759542,5.98652482 L41.759542,10.5539007 L45.8152672,10.5539007 C46.6648855,10.5702128 47.4824427,10.2276596 48.0755725,9.59148936 L48.0755725,9.59148936 Z" id="Shape"></path>
                    <path d="M71.4480916,22.706383 L63.6412214,22.706383 C61.140458,22.706383 59.3931298,22.2659574 58.3832061,21.3851064 C57.3732824,20.5042553 56.8763359,18.9546099 56.8763359,16.7361702 L56.8763359,3.71914894 C56.8763359,1.72907801 58.4633588,0.114184397 60.419084,0.114184397 L71.4641221,0.114184397 L71.4641221,3.9964539 L61.2206107,3.9964539 L61.2206107,9.34680851 L68.370229,9.34680851 L68.3541985,13.229078 L61.2045802,13.229078 L61.2045802,16.5241135 C61.2045802,17.4049645 61.3969466,18.0085106 61.7977099,18.3347518 C62.1984733,18.6609929 62.9038168,18.8404255 63.9458015,18.8404255 L71.4641221,18.8404255 L71.4641221,22.706383 L71.4480916,22.706383 Z" id="Path"></path>
                    <path d="M90.3801527,15.9858156 C90.3801527,18.106383 89.610687,19.7702128 88.0877863,20.977305 C86.5648855,22.1843972 84.6091603,22.7879433 82.2366412,22.7879433 C80.3610687,22.7879433 78.5496183,22.2659574 76.7862595,21.2219858 C75.8885496,20.6510638 75.151145,19.851773 74.6541985,18.9056738 C74.0931298,17.8617021 73.8045802,16.687234 73.8206107,15.4964539 L77.7160305,15.3007092 C77.7160305,16.4262411 78.1969466,17.3234043 79.1427481,17.9432624 C80.0725191,18.5631206 81.178626,18.8893617 82.3007634,18.8893617 C84.8816794,18.8893617 86.1641221,17.9595745 86.1641221,16.1163121 C86.1641221,14.5992908 85.2824427,13.7184397 83.5351145,13.4411348 L79.9442748,13.0659574 C78.148855,12.7886525 76.7221374,12.1361702 75.6801527,11.1085106 C74.6221374,10.0808511 74.1091603,8.5964539 74.1091603,6.67163121 C74.1091603,4.74680851 74.8625954,3.14822695 76.3694656,1.89219858 C77.8763359,0.636170213 79.7839695,0 82.0763359,0 C84.3687023,0 86.2282443,0.587234043 87.6229008,1.77801418 C89.0335878,2.96879433 89.7229008,4.4858156 89.7229008,6.36170213 L85.8916031,6.55744681 C85.5389313,4.73049645 84.3366412,3.81702128 82.2687023,3.81702128 C81.0183206,3.81702128 80.0244275,4.09432624 79.319084,4.63262411 C78.6137405,5.17092199 78.2450382,5.82340426 78.2450382,6.57375887 C78.2450382,7.32411348 78.5015267,7.91134752 79.0145038,8.33546099 C79.559542,8.77588652 80.2328244,9.05319149 80.9381679,9.13475177 L84.4648855,9.50992908 C88.4083969,10.048227 90.3801527,12.2014184 90.3801527,15.9858156 Z" id="Path"></path>
                    <path d="M105.192366,13.8978723 L109.216031,13.8978723 C109.216031,16.7035461 108.510687,18.8567376 107.1,20.3574468 C105.689313,21.858156 103.685496,22.6085106 101.10458,22.6085106 C95.429771,22.6085106 92.5923664,19.2971631 92.5923664,12.6907801 L92.5923664,10.8312057 C92.5923664,5.62765957 94.051145,2.34893617 96.9526718,1.04397163 C98.0908397,0.505673759 99.4854962,0.244680851 101.10458,0.244680851 C103.477099,0.244680851 105.400763,0.880851064 106.891603,2.16950355 C108.382443,3.45815603 109.119847,5.3177305 109.119847,7.74822695 L105.064122,7.74822695 C104.839695,6.54113475 104.422901,5.61134752 103.845802,4.99148936 C103.268702,4.37163121 102.354962,4.06170213 101.10458,4.06170213 C99.6458015,4.06170213 98.5717557,4.51843972 97.8664122,5.41560284 C97.3694656,6.05177305 97.080916,7.14468085 97.0007634,8.69432624 C96.9526718,9.18368794 96.9366412,9.85248227 96.9366412,10.7007092 L96.9366412,12.6255319 C96.9366412,14.9907801 97.2732824,16.6056738 97.9305344,17.4702128 C98.6198473,18.3347518 99.6778626,18.7751773 101.120611,18.7751773 C102.563359,18.7751773 103.557252,18.3836879 104.118321,17.5843972 C104.679389,16.7851064 105.032061,15.5617021 105.192366,13.8978723 Z" id="Path"></path>
                    <path d="M128.981679,10.358156 L128.981679,12.0546099 C128.981679,15.806383 128.292366,18.5304965 126.89771,20.2269504 C125.503053,21.9234043 123.274809,22.7716312 120.212977,22.7716312 C117.151145,22.7716312 114.938931,21.9234043 113.560305,20.2269504 C112.19771,18.5304965 111.508397,15.7737589 111.508397,11.9730496 L111.508397,10.341844 C111.508397,6.86737589 112.19771,4.29007092 113.592366,2.59361702 C114.987023,0.897163121 117.183206,0.0489361702 120.196947,0.0489361702 C123.210687,0.0489361702 125.422901,0.913475177 126.849618,2.62624113 C128.276336,4.32269504 128.981679,6.9 128.981679,10.358156 Z M124.781679,11.9567376 L124.781679,10.7822695 C124.781679,8.75957447 124.541221,7.16099291 124.044275,5.95390071 C123.467176,4.56737589 122.232824,3.86595745 120.325191,3.86595745 C118.401527,3.86595745 117.151145,4.56737589 116.574046,5.95390071 C116.09313,7.09574468 115.868702,8.69432624 115.868702,10.7822695 L115.868702,11.9567376 C115.868702,14.664539 116.237405,16.5078014 116.99084,17.4539007 C117.327481,17.8943262 117.776336,18.2531915 118.273282,18.4815603 C119.571756,19.0361702 121.046565,19.0524823 122.345038,18.4978723 C122.841985,18.2695035 123.29084,17.9269504 123.643511,17.4865248 C123.980153,17.0134752 124.220611,16.4751773 124.348855,15.9042553 C124.637405,14.8765957 124.781679,13.5553191 124.781679,11.9567376 L124.781679,11.9567376 Z" id="Shape"></path>
                    <path d="M149.083969,0.130496454 L149.083969,14.8602837 C149.083969,17.2907801 148.282443,19.2156028 146.663359,20.6184397 C145.044275,22.0212766 143.056489,22.722695 140.683969,22.722695 C138.31145,22.722695 136.323664,22.0212766 134.70458,20.6184397 C133.085496,19.2156028 132.283969,17.2907801 132.283969,14.8602837 L132.283969,0.130496454 L136.612214,0.130496454 L136.612214,14.6971631 C136.612214,16.0836879 136.980916,17.1113475 137.718321,17.7964539 C138.455725,18.4815603 139.449618,18.8241135 140.667939,18.8241135 C141.88626,18.8241135 142.880153,18.4815603 143.633588,17.7964539 C144.387023,17.1113475 144.755725,16.0836879 144.755725,14.6971631 L144.755725,0.130496454 L149.083969,0.130496454 Z" id="Path"></path>
                    <polygon id="Path" points="167.855725 4.14326241 161.940458 4.14326241 161.940458 22.722695 157.467939 22.722695 157.467939 4.14326241 151.825191 4.14326241 151.825191 0.130496454 167.855725 0.130496454 167.855725 4.14326241"></polygon>
                </g>
                <path d="M23.8841202,13.5 C23.8841202,17.6066434 22.8927039,21.6503497 21,25.2377622 L24.7703863,27 C26.888412,22.8461538 28,18.2045455 28,13.5 C28,8.79545455 26.888412,4.15384615 24.7703863,0 L21,1.76223776 C22.8927039,5.34965035 23.8841202,9.39335664 23.8841202,13.5 Z" id="Path" fill="#22AAEE"></path>
                <path d="M204.559062,24.5728742 C203.967622,25.1446241 203.018567,25.1446241 202.440881,24.5592612 C202.152039,24.2733862 202.00074,23.8922197 202.00074,23.49744 C201.986986,23.0890473 202.165793,22.6806546 202.46839,22.4083927 C202.743479,22.149744 203.114848,22 203.499972,22 C204.325237,22 204.999203,22.6670415 204.999203,23.49744 C205.012958,23.9058328 204.847905,24.2869993 204.559062,24.5728742 L204.559062,24.5728742 Z M202.633443,22.6534284 C202.399618,22.8848509 202.275828,23.1843389 202.275828,23.5110531 C202.275828,23.8377673 202.399618,24.1644815 202.647198,24.382291 C203.128602,24.8587492 203.89885,24.8587492 204.394009,24.3959041 C204.394009,24.3959041 204.394009,24.3959041 204.407763,24.382291 C204.641588,24.1508684 204.779133,23.8377673 204.765378,23.5110531 C204.765378,23.1843389 204.641588,22.8712378 204.407763,22.6534284 C203.940113,22.1769702 203.169866,22.149744 202.688461,22.6125891 C202.660952,22.6262022 202.647198,22.6398153 202.633443,22.6534284 L202.633443,22.6534284 Z M202.853514,24.3414517 L202.853514,22.6942677 L203.321164,22.6942677 L203.665025,22.6942677 C203.77506,22.6942677 203.885095,22.7214938 203.995131,22.7759462 C204.146429,22.8576247 204.228956,23.0073688 204.215201,23.1707258 C204.228956,23.2796306 204.187693,23.3885353 204.105166,23.4702139 C204.02264,23.5382793 203.926359,23.5655055 203.816323,23.5791186 C203.89885,23.5927317 203.981376,23.6199579 204.050148,23.6744102 C204.160184,23.7697019 204.215201,23.9058328 204.201447,24.0419637 L204.201447,24.1917077 C204.201447,24.2053208 204.201447,24.2189339 204.201447,24.2461601 C204.201447,24.2597731 204.201447,24.2733862 204.215201,24.3006124 L204.228956,24.3414517 L203.816323,24.3414517 C203.802569,24.2597731 203.788814,24.1917077 203.788814,24.1100291 C203.788814,24.0419637 203.77506,23.9738982 203.761306,23.9058328 C203.747551,23.8513804 203.692534,23.8105411 203.637516,23.783315 C203.596253,23.7697019 203.541235,23.7560888 203.486217,23.7560888 L203.389936,23.7560888 L203.293655,23.7560888 L203.293655,24.3414517 L202.853514,24.3414517 Z M203.65127,23.0073688 C203.568744,22.9801426 203.486217,22.9665295 203.403691,22.9801426 L203.293655,22.9801426 L203.293655,23.4566008 L203.458708,23.4566008 C203.541235,23.4566008 203.623761,23.4429877 203.692534,23.4021484 C203.747551,23.3613091 203.788814,23.2796306 203.77506,23.2115651 C203.788814,23.1162735 203.733797,23.0345949 203.65127,23.0073688 L203.65127,23.0073688 Z" id="Shape" fill="#000000"></path>
            </g>
        </g>
    </g>
</svg>