<?xml version="1.0" encoding="UTF-8"?>
<svg xmlns="http://www.w3.org/2000/svg" xmlns:xlink="http://www.w3.org/1999/xlink" version="1.1"
    id="Layer_1" x="0px" y="0px" viewBox="0 0 283.5 170.1"
    style="enable-background:new 0 0 283.5 170.1;" xml:space="preserve"> <style type="text/css"> .st0{opacity:0.85;fill:#74BF4B;} .st1{fill:#74BF4B;} .st2{fill:#4D4D4F;} </style> <g> <path class="st0" d="M39.7,119.1h34c18.2,0,33.1-14.3,34-32.3h-68L39.7,119.1L39.7,119.1z"></path> <path class="st1" d="M73.7,51h-34v32.3h68C106.8,65.3,91.9,51,73.7,51"></path> <path class="st1" d="M216.5,51c-18.2,0-33.1,14.3-34,32.3h67.9C249.6,65.3,234.8,51,216.5,51"></path> <path class="st0" d="M216.5,119.1c18.2,0,33.1-14.3,34-32.3h-67.9C183.4,104.7,198.3,119.1,216.5,119.1"></path> <path class="st1" d="M111.1,51v34c0,18.2,14.3,33.1,32.3,34V51H111.1z"></path> <polygon class="st0" points="146.8,51 146.8,119.1 179.1,119.1 179.1,85 179.1,51 "></polygon> </g> <g> <rect x="58.1" y="17" class="st2" width="4.3" height="17"></rect> <path class="st2" d="M83.8,25.5c0,5.5,4.2,8.8,9,8.8c1.9,0,3.3-0.5,3.9-0.6v-4.6C96.4,29.2,95,30,93.1,30c-2.8,0-4.7-2-4.7-4.5 c0-2.6,1.9-4.5,4.7-4.5c2,0,3.4,0.8,3.6,0.9v-4.6c-0.4-0.1-1.9-0.6-3.9-0.6C87.6,16.7,83.8,20.4,83.8,25.5z"></path> <path class="st2" d="M39.4,25.5c0,5.5,4.2,8.8,9,8.8c1.9,0,3.3-0.5,3.9-0.6v-4.6C52,29.2,50.7,30,48.7,30c-2.8,0-4.7-2-4.7-4.5 c0-2.6,1.9-4.5,4.7-4.5c2,0,3.4,0.8,3.6,0.9v-4.6c-0.4-0.1-1.9-0.6-3.9-0.6C43.2,16.7,39.4,20.4,39.4,25.5z"></path> <path class="st2" d="M110,16.7c-5.2,0-8.9,3.9-8.9,8.8c0,4.9,3.7,8.8,8.9,8.8c5.2,0,8.9-3.9,8.9-8.8 C118.9,20.6,115.2,16.7,110,16.7z M110,30c-2.5,0-4.4-2-4.4-4.5c0-2.5,1.9-4.5,4.4-4.5c2.5,0,4.4,2,4.4,4.5 C114.4,28,112.5,30,110,30z"></path> <path class="st2" d="M75.6,23.7l-1.2-0.4c-0.7-0.2-1.9-0.6-1.9-1.6c0-0.8,0.9-1.4,2.6-1.4c1.5,0,3.3,0.5,3.3,0.5v-3.6 c-0.1,0-2.1-0.5-4.1-0.5c-3.9,0-6.3,2.1-6.3,5.3c0,2.8,2,4.2,4.3,5c0.3,0.1,0.7,0.2,0.9,0.3c1.1,0.3,1.9,0.8,1.9,1.7 c0,1-1,1.6-3.1,1.6c-1.9,0-3.6-0.5-4-0.6v3.9c0.2,0,2.3,0.5,4.6,0.5c3.3,0,7-1.4,7-5.7C79.6,26.5,78.4,24.6,75.6,23.7z"></path> </g> </svg>