<?xml version="1.0" encoding="UTF-8"?>
<svg id="Layer_1" data-name="Layer 1" xmlns="http://www.w3.org/2000/svg" version="1.1" viewBox="0 0 190.4 54.7">
  <defs>
    <style>
      .cls-1 {
        fill: #ed1f24;
      }

      .cls-1, .cls-2 {
        stroke-width: 0px;
      }

      .cls-2 {
        fill: #000;
      }
    </style>
  </defs>
  <path class="cls-2" d="M66.8,34.6c0,1.2,0,2.4.2,3.5h-2.6l-.3-1.9h0c-1.2,1.4-3,2.3-4.9,2.2-3.2,0-4.9-2.1-4.9-4.2,0-3.6,3.4-5.5,9.6-5.5v-.3c0-1.2-.4-3.5-3.6-3.4-1.5,0-2.9.4-4.2,1.1l-.7-1.8c1.6-.9,3.4-1.3,5.3-1.3,4.9,0,6.1,3.1,6.1,6v5.5ZM64,30.6c-3.2,0-6.7.5-6.7,3.3,0,1.4,1,2.5,2.3,2.6.1,0,.2,0,.4,0,1.7,0,3.3-.9,3.9-2.5,0-.3.2-.5.2-.8v-2.6Z"/>
  <path class="cls-2" d="M73.9,19.8v3.5h4.1v2h-4.1v8c0,1.8.6,2.9,2.2,2.9.6,0,1.1,0,1.7-.2v2c-.7.3-1.6.4-2.4.4-1.2,0-2.3-.4-3.1-1.1-.9-1.1-1.3-2.5-1.2-3.8v-8h-2.4v-2h2.4v-2.8l2.9-.8Z"/>
  <path class="cls-2" d="M91.5,37.6c-1.5.6-3,.9-4.6.8-4.8,0-7.9-3-7.9-7.6s3.4-7.9,8.6-7.9c1.4,0,2.7.2,4,.8l-.7,2c-1-.5-2.2-.7-3.3-.7-2.9-.2-5.4,2-5.6,5,0,.2,0,.4,0,.6-.2,2.9,2.1,5.4,5,5.5.2,0,.4,0,.6,0,1.2,0,2.4-.2,3.6-.7l.5,2.1Z"/>
  <path class="cls-2" d="M94.1,16.5h2.9v9.2h0c.5-.8,1.2-1.5,2.1-1.9.9-.5,2-.8,3-.8,2.1,0,5.6,1.2,5.6,6.3v8.8h-2.9v-8.5c0-2.4-1-4.4-3.7-4.4-1.7,0-3.3,1.1-3.9,2.7-.2.4-.2.8-.2,1.2v8.9h-2.9v-21.6Z"/>
  <path class="cls-2" d="M128.1,37.2c-2.2.7-4.5,1.1-6.8,1.1-3.4,0-6.1-.8-8.3-2.7-2.1-2-3.2-4.8-3.1-7.6,0-6.1,4.6-10.6,12-10.6,1.9,0,3.8.3,5.6.9l-.7,2.2c-1.6-.6-3.2-.9-4.9-.9-5.4,0-8.9,3.1-8.9,8.3s3.4,8.4,8.6,8.4c1.3,0,2.6-.1,3.8-.5v-6.2h-4.5v-2.1h7.3v9.9Z"/>
  <path class="cls-2" d="M144.4,34.1c0,1.5,0,2.9.1,4h-2.6l-.2-2.4h0c-1.2,1.8-3.2,2.8-5.3,2.7-2.5,0-5.5-1.3-5.5-6.4v-8.6h2.9v8.1c0,2.8,1,4.7,3.6,4.7,1.6,0,3.1-1,3.8-2.5.2-.4.3-.9.3-1.4v-9h2.9v10.7Z"/>
  <path class="cls-2" d="M159.5,34.6c0,1.2,0,2.4.2,3.5h-2.6l-.3-1.9h-.1c-1.2,1.5-3,2.3-4.9,2.2-3.2,0-4.9-2.1-4.9-4.2,0-3.6,3.4-5.5,9.6-5.5v-.3c0-1.2-.4-3.5-3.6-3.4-1.5,0-2.9.4-4.2,1.1l-.7-1.8c1.6-.9,3.4-1.3,5.3-1.3,4.9,0,6.1,3.1,6.1,6v5.5ZM156.7,30.6c-3.2,0-6.7.5-6.7,3.3,0,1.4,1,2.5,2.3,2.6.1,0,.2,0,.4,0,1.7,0,3.3-.9,3.9-2.5,0-.3.1-.6.1-.8v-2.6Z"/>
  <path class="cls-2" d="M162.9,28c0-1.7,0-3.2-.1-4.6h2.5v2.9h.2c.7-1.9,2.5-3.2,4.5-3.2.3,0,.5,0,.8.1v2.5c-.3,0-.7,0-1,0-2,0-3.6,1.5-3.9,3.4,0,.4,0,.9-.1,1.3v7.9h-2.9v-10.2Z"/>
  <path class="cls-2" d="M185.6,16.5v17.8c0,1.3,0,2.8.1,3.8h-2.6l-.2-2.6h0c-1.1,1.9-3.2,3-5.4,2.9-3.9,0-6.9-3-6.9-7.5s3.3-7.9,7.1-7.9c1.9-.1,3.7.7,4.8,2.2h0v-8.8h2.9ZM182.7,29.4c0-.4,0-.8-.1-1.2-.5-1.9-2.3-3.1-4.2-3-3,0-4.8,2.4-4.8,5.7s1.6,5.5,4.7,5.5c2,0,3.7-1.3,4.2-3.2,0-.4.1-.8.1-1.2v-2.6Z"/>
  <path class="cls-2" d="M41.7,14.9c3.1,3.4,4.9,7.8,5.2,12.4h0c-1.1,5.3-2.8,10.4-5,15.3,0,0-2.9.1-8.1.2-1.2-7.5-3.3-15.4-4.7-20.8h0c-1.4,5.5-3.5,13.4-4.7,20.8-5.2,0-8.1-.2-8.1-.2-5.8-12.6-7-27.4-7-27.4,2.6-.2,4.9-.3,7.1-.3.6,5.6,2.5,16.6,3.6,19.7h0c1-6.8,2.8-13.5,5.4-19.9,2.6,0,4.4-.1,7,0h0c2.6,6.4,4.5,13.1,5.5,19.9h0c1.1-3.1,3-14.1,3.6-19.7h0Z"/>
  <path class="cls-2" d="M28.8,2.7c-.9,0-1.8-.1-2.8-.1C11.7,2.6.1,14.2.1,28.6c0,14.4,11.7,26,26.1,25.9,14.4,0,26-11.7,25.9-26.1,0-13.3-10.1-24.4-23.3-25.8l-.2,2.2c13.2,1.4,22.8,13.2,21.4,26.4-1.4,13.2-13.2,22.8-26.4,21.4C10.5,51.2.9,39.4,2.3,26.2,3.5,14,13.8,4.7,26.1,4.7c.9,0,1.7,0,2.5.1l.2-2.2Z"/>
  <path class="cls-1" d="M77,3c1.4,2.7.3,5.9-2.4,7.3,0,0,0,0,0,0l-15.1,7.6c-2.8,1.2-6-.2-7.1-3-1-2.5,0-5.4,2.3-6.8l15.1-7.6c2.7-1.3,5.9-.3,7.3,2.4"/>
  <path class="cls-2" d="M190.4,18c0,.9-.7,1.6-1.6,1.7-.9,0-1.6-.7-1.7-1.6,0-.9.7-1.6,1.6-1.7,0,0,0,0,0,0,.9,0,1.6.7,1.6,1.6h0M187.6,18c0,.7.5,1.2,1.2,1.3,0,0,0,0,0,0,.7,0,1.2-.5,1.2-1.2,0,0,0,0,0,0,0-.7-.4-1.3-1.1-1.3-.7,0-1.3.4-1.3,1.1,0,0,0,.1,0,.2M188.6,18.9h-.4v-1.6c.2,0,.4,0,.6,0,.2,0,.4,0,.5.1.1,0,.2.2.2.3,0,.2-.1.3-.3.4h0c.1,0,.2.2.3.4,0,.1,0,.3.1.4h-.4c0-.1-.1-.2-.1-.4,0-.2-.1-.2-.3-.2h-.2v.7ZM188.6,18h.2c.2,0,.4,0,.4-.2s-.1-.2-.3-.2h-.2v.5Z"/>
</svg>