<?xml version="1.0" encoding="UTF-8"?>
<svg version="1.1" xmlns="http://www.w3.org/2000/svg" width="1024" height="236">
<path d="M0 0 C9.58877082 -0.06979925 19.17745291 -0.12296221 28.76642323 -0.15543652 C33.21994372 -0.17102993 37.67328919 -0.19215126 42.12670898 -0.22631836 C46.43205653 -0.25913919 50.73723672 -0.27690046 55.04269981 -0.28463173 C56.67758502 -0.29013476 58.31246205 -0.30087976 59.94727516 -0.31719017 C72.53367788 -0.43766245 85.4180084 0.3389879 96 8 C103.91061039 16.55988997 106.47972139 24.26476238 106.2421875 35.78515625 C105.59642045 44.35719306 102.38195612 50.24194183 96 56 C93.71304835 57.5764424 91.50453131 58.77329079 89 60 C90.134375 60.495 91.26875 60.99 92.4375 61.5 C100.25021518 65.45492687 106.14441776 70.68655682 109.34375 78.921875 C112.44162166 88.73180191 112.0736108 99.51831969 108 109 C102.81333348 118.63238068 94.00391681 123.52885728 83.875 126.6875 C78.29098449 128.32608816 72.90834181 129.12646298 67.08642578 129.11352539 C65.94569611 129.11344986 64.80496643 129.11337433 63.62966919 129.11329651 C62.41383148 129.10813522 61.19799377 129.10297394 59.9453125 129.09765625 C58.68862762 129.0962413 57.43194275 129.09482635 56.13717651 129.09336853 C52.8130806 129.08873074 49.48905458 129.0797618 46.16497803 129.06866455 C42.76624146 129.05839401 39.36749765 129.05385887 35.96875 129.04882812 C29.31248083 129.03781699 22.65624445 129.02109222 16 129 C15.99668985 128.44377394 15.99337971 127.88754787 15.98996925 127.31446648 C15.90867957 113.76801115 15.81644345 100.22166824 15.71247292 86.67536736 C15.66252317 80.1244201 15.61619279 73.57348887 15.578125 67.02246094 C15.54125583 60.70059154 15.49489101 54.37885662 15.44193649 48.0571022 C15.42340131 45.6450041 15.40829012 43.23287719 15.39665604 40.82073593 C15.37977895 37.44268772 15.35073955 34.06494691 15.31884766 30.68701172 C15.31668747 29.68935287 15.31452728 28.69169403 15.31230164 27.6638031 C15.25310619 22.75682913 15.07258185 18.55084852 13 14 C11.17344799 12.79480126 11.17344799 12.79480126 9 12 C7.37698826 10.75855725 5.79464942 9.46268659 4.25 8.125 C3.45078125 7.44695313 2.6515625 6.76890625 1.828125 6.0703125 C0 4 0 4 0 0 Z M40 21 C40 31.23 40 41.46 40 52 C43.939375 52.061875 47.87875 52.12375 51.9375 52.1875 C53.16073975 52.21481201 54.38397949 52.24212402 55.64428711 52.27026367 C63.68503653 52.33095596 70.64526929 51.85508997 76.9375 46.5 C80.49273867 42.19061979 81.51234957 39.8138426 81.37890625 34.3515625 C80.73942294 30.38281044 78.86050842 27.75567303 76 25 C70.50263232 21.5641452 65.42925458 20.86959357 59.04296875 20.90234375 C57.53899536 20.90609009 57.53899536 20.90609009 56.00463867 20.90991211 C54.74498291 20.91901611 53.48532715 20.92812012 52.1875 20.9375 C46.1546875 20.9684375 46.1546875 20.9684375 40 21 Z M40 73 C40 84.55 40 96.1 40 108 C46.1565625 108.061875 46.1565625 108.061875 52.4375 108.125 C54.35067017 108.15231201 54.35067017 108.15231201 56.30249023 108.18017578 C66.25999057 108.2283134 75.12147095 107.62092347 83 101 C86.83820622 95.96235433 86.816017 90.09292692 86 84 C83.82988557 79.49902193 81.55913613 77.02628272 77 75 C69.1075093 72.7566987 61.60191531 72.76726614 53.4375 72.875 C46.7859375 72.936875 46.7859375 72.936875 40 73 Z " fill="#006AF7" transform="translate(33,54)"/>
<path d="M0 0 C12.54 0 25.08 0 38 0 C38 44.22 38 88.44 38 134 C31.4 134 24.8 134 18 134 C17.01 129.545 17.01 129.545 16 125 C14.2675 126.36125 14.2675 126.36125 12.5 127.75 C1.31852894 136.13610329 -9.32336576 137.12032004 -23 136 C-29.38590498 134.61829634 -34.83715318 132.01554753 -40 128 C-40.63550781 127.54238281 -41.27101563 127.08476562 -41.92578125 126.61328125 C-50.25033005 120.13863218 -54.54591265 110.12502801 -56.625 99.9375 C-58.03446204 85.13814857 -56.5927278 70.02178763 -47 58 C-38.9397157 49.18667876 -30.11391165 44.42748065 -18.14453125 43.796875 C-7.55090743 43.60299998 1.18225092 43.73393245 9.78125 50.62109375 C10.57595703 51.25329834 11.37066406 51.88550293 12.18945312 52.53686523 C12.78693359 53.01969971 13.38441406 53.50253418 14 54 C14.07453636 49.14366965 14.12878329 44.28767732 14.16479492 39.4309082 C14.17981806 37.78110956 14.2002426 36.13135042 14.22631836 34.48168945 C14.26298899 32.10097464 14.27979103 29.72079092 14.29296875 27.33984375 C14.30845261 26.61039047 14.32393646 25.88093719 14.33988953 25.12937927 C14.34174908 19.38316306 13.25972668 14.53760491 9.31640625 10.109375 C8.73761719 9.66078125 8.15882813 9.2121875 7.5625 8.75 C6.9540625 8.26402344 6.345625 7.77804688 5.71875 7.27734375 C4.35286323 6.26224154 2.96169603 5.28117417 1.5625 4.3125 C1.046875 3.879375 0.53125 3.44625 0 3 C0 2.01 0 1.02 0 0 Z M-28 74 C-32.60557536 80.72560211 -34.12209992 86.92088056 -33 95 C-30.99684324 101.56590272 -27.02950914 107.40327788 -21.8125 111.875 C-14.15456183 114.93817527 -7.41287158 115.69889364 0.4921875 113.09765625 C7.21413247 110.15549653 11.1043254 105.48144663 14.11328125 98.84375 C16.31436746 91.78475988 16.27537127 84.60693853 12.8125 78 C8.11843015 70.86762165 3.18419624 67.34730782 -5 65 C-13.68222264 63.40825918 -22.11744495 67.85005608 -28 74 Z " fill="#0069F4" transform="translate(766,49)"/>
<path d="M0 0 C12.21 0 24.42 0 37 0 C37 44.22 37 88.44 37 134 C30.4 134 23.8 134 17 134 C16.67 130.7 16.34 127.4 16 124 C15.40574219 124.53109375 14.81148438 125.0621875 14.19921875 125.609375 C2.91878384 135.22318267 -7.35414982 137.17332621 -21.83984375 136.21875 C-32.10615156 135.17912389 -41.31739817 129.2386065 -48.10546875 121.64453125 C-53.71866325 114.11638766 -57.33954324 105.41150885 -58 96 C-58.06316406 95.1646875 -58.12632812 94.329375 -58.19140625 93.46875 C-58.74245199 80.24365227 -55.48328491 67.31098451 -47 57 C-38.33727283 47.8939049 -29.2468666 44.0724123 -16.80786133 43.71435547 C-5.28607183 43.57655001 3.10706757 45.24480566 12 53 C12.33 53.33 12.66 53.66 13 54 C13.14892693 48.5740954 13.25748635 43.14939404 13.32958984 37.72192383 C13.35966233 35.87796288 13.4005326 34.03414379 13.45263672 32.19067383 C13.52587858 29.53170709 13.55955005 26.87463925 13.5859375 24.21484375 C13.61690521 23.39789536 13.64787292 22.58094696 13.67977905 21.73924255 C13.68301337 16.17051081 12.36260691 13.38199542 8.49865723 9.37055969 C6.79626994 7.81368374 5.09285935 6.45695374 3.125 5.25 C2.09375 4.5075 1.0625 3.765 0 3 C0 2.01 0 1.02 0 0 Z M-29 74 C-33.63725753 80.69173872 -35.13084273 86.9349788 -34 95 C-32.28749447 100.40791219 -29.50335703 104.59834629 -26 109 C-25.34 109 -24.68 109 -24 109 C-24 109.66 -24 110.32 -24 111 C-14.61027677 114.78883569 -7.6278986 115.89936983 2 112 C8.20346774 108.2185123 11.71987351 102.84037947 14 96 C15.0207404 85.47179183 13.19216165 79.38992212 6.8125 71.1875 C1.90954662 67.37409182 -3.40768192 65.31835485 -9.5625 64.5625 C-17.37050529 65.55624613 -23.80230312 67.88657985 -29 74 Z " fill="#0069F5" transform="translate(320,49)"/>
<path d="M0 0 C0.82999512 0.00563965 1.65999023 0.0112793 2.51513672 0.01708984 C14.11148993 0.24580136 22.94056784 3.16713495 31.5625 11.09375 C43.22330352 23.35769853 43.625 37.79921425 43.625 54.3125 C22.175 54.3125 0.725 54.3125 -21.375 54.3125 C-17.60068122 62.80471726 -15.71819889 66.71885159 -7.375 70.0625 C1.87215514 73.1623986 10.40970351 72.66575172 19.75 70.5 C20.52214844 70.33435547 21.29429687 70.16871094 22.08984375 69.99804688 C26.66364514 68.96563004 30.44715965 67.50089256 34.625 65.3125 C37.5 65.125 37.5 65.125 39.625 65.3125 C39.15993282 71.00957291 36.87323056 74.79901711 33.875 79.5 C33.44445312 80.21091797 33.01390625 80.92183594 32.5703125 81.65429688 C29.05393931 87.2499626 25.93493253 89.82805043 19.4609375 91.48046875 C14.3874291 92.49118215 9.41148562 92.65797171 4.25 92.625 C3.32461426 92.61936035 2.39922852 92.6137207 1.44580078 92.60791016 C-12.23327077 92.36471596 -24.37161369 87.86348892 -34.5234375 78.421875 C-44.99637998 66.4906747 -46.13873675 53.65329017 -45.51855469 38.50488281 C-44.80015888 27.53346388 -39.54927139 17.86018141 -31.5 10.4375 C-21.81566088 2.6564414 -12.31644986 -0.08820866 0 0 Z M-17.25 24.5 C-20.1738603 27.96498204 -20.1738603 27.96498204 -21.375 36.3125 C-7.845 36.3125 5.685 36.3125 19.625 36.3125 C18.5289889 28.64042232 17.14993729 26.2383477 11.625 21.3125 C1.59027211 15.13728284 -8.4911554 17.83566171 -17.25 24.5 Z " fill="#0069F4" transform="translate(860.375,92.6875)"/>
<path d="M0 0 C1.36470113 1.17537843 2.71877068 2.36320224 4.0625 3.5625 C4.89523437 4.15160156 5.72796875 4.74070312 6.5859375 5.34765625 C9.59426905 8.03807264 11.13240011 10.94047287 12.75 14.5625 C13.05107666 15.22604492 13.35215332 15.88958984 13.66235352 16.57324219 C17.67660365 25.81388423 18.83580932 35.52746272 18.0625 45.5625 C17.5675 46.5525 17.5675 46.5525 17.0625 47.5625 C-4.3875 47.5625 -25.8375 47.5625 -47.9375 47.5625 C-41.5225668 59.35027205 -41.5225668 59.35027205 -30.640625 64.296875 C-17.89254288 67.54983389 -5.26002828 64.23602088 6.66015625 59.33203125 C9.25592522 58.50054103 11.35408284 58.4224927 14.0625 58.5625 C13.50398631 63.4755272 11.28520038 66.99972194 8.75 71.125 C8.35876953 71.78435547 7.96753906 72.44371094 7.56445312 73.12304688 C4.47250571 78.22501649 1.65427154 82.52841549 -4.3125 84.3125 C-20.68104109 88.29463164 -37.46448216 86.20678453 -52.25 78.4375 C-62.34623255 72.18237046 -67.56151384 63.30175943 -70.6171875 52.0625 C-73.45541834 39.62094016 -72.61685593 25.38409945 -66.25 14.125 C-59.76747465 4.54420885 -51.16927257 -2.62352892 -39.875 -5.8125 C-26.94420475 -8.06841212 -10.74396095 -8.20768164 0 0 Z M-43.8125 19.4375 C-46.44674879 22.96024413 -46.44674879 22.96024413 -47.9375 29.5625 C-34.0775 29.5625 -20.2175 29.5625 -5.9375 29.5625 C-6.9275 26.2625 -7.9175 22.9625 -8.9375 19.5625 C-9.5975 19.5625 -10.2575 19.5625 -10.9375 19.5625 C-11.4325 18.0775 -11.4325 18.0775 -11.9375 16.5625 C-12.5975 16.5625 -13.2575 16.5625 -13.9375 16.5625 C-13.9375 15.9025 -13.9375 15.2425 -13.9375 14.5625 C-24.84526826 8.61280822 -35.48220118 10.45526475 -43.8125 19.4375 Z " fill="#0069F4" transform="translate(585.9375,99.4375)"/>
<path d="M0 0 C1.051875 0.763125 2.10375 1.52625 3.1875 2.3125 C10.9932138 9.77129319 13.92374968 19.61874841 16 30 C16 35.28 16 40.56 16 46 C-5.45 46 -26.9 46 -49 46 C-43.31685209 57.42158722 -43.31685209 57.42158722 -32.97265625 62.40625 C-24.44589649 64.97272026 -16.43820447 64.1702767 -7.9375 62.1875 C-7.17373047 62.02185547 -6.40996094 61.85621094 -5.62304688 61.68554688 C-1.96334049 60.85592994 1.44015336 59.89804479 4.875 58.375 C7.92414798 57.03337489 9.72624674 56.70238607 13 57 C11.90967707 62.94721599 8.1198873 67.93423704 5 73 C4.53464844 73.81082031 4.06929688 74.62164062 3.58984375 75.45703125 C1.13108858 79.32078938 -1.13636835 81.49218461 -5.5 83 C-18.89836869 85.80815125 -34.43109942 85.58811231 -47 80 C-48.45792969 79.36384766 -48.45792969 79.36384766 -49.9453125 78.71484375 C-59.39498307 74.09300215 -66.2528496 66.86568583 -70 57 C-70.29777344 56.22527344 -70.59554688 55.45054687 -70.90234375 54.65234375 C-75.09819273 41.8327683 -74.19819464 27.36864549 -69 15 C-63.41436058 4.81035581 -54.87724173 -2.95682477 -43.80078125 -6.75390625 C-29.0290872 -10.34024284 -12.40384244 -9.15261502 0 0 Z M-44.3125 16.375 C-47.88531661 21.78608119 -47.88531661 21.78608119 -49 28 C-35.47 28 -21.94 28 -8 28 C-8.94618389 21.3767128 -9.38925506 18.45631808 -14 14 C-23.64352552 7.41606691 -36.10734884 7.948088 -44.3125 16.375 Z " fill="#0069F5" transform="translate(441,101)"/>
<path d="M0 0 C7.00075679 4.67541708 12.34666467 11.01475378 14.12060547 19.35302734 C15.36605355 26.06071402 15.24912304 32.73851225 15.1953125 39.5390625 C15.19157337 40.91482333 15.18873066 42.29058685 15.18673706 43.66635132 C15.17917132 47.25347497 15.15958531 50.84043167 15.1373291 54.42749023 C15.11671681 58.10137678 15.10770275 61.77529081 15.09765625 65.44921875 C15.07633122 72.63289673 15.04120852 79.81640352 15 87 C7.08 87 -0.84 87 -9 87 C-9.04898438 83.0503125 -9.09796875 79.100625 -9.1484375 75.03125 C-9.20249804 71.19201985 -9.25978569 67.35285041 -9.31738281 63.51367188 C-9.35664078 60.85222447 -9.3904546 58.19086667 -9.421875 55.52929688 C-9.46770895 51.69643269 -9.52567415 47.8639112 -9.5859375 44.03125 C-9.59748871 42.84760864 -9.60903992 41.66396729 -9.62094116 40.44445801 C-9.72958128 34.31766193 -10.06658976 28.83769652 -12 23 C-13.69863938 21.48382093 -13.69863938 21.48382093 -16 21 C-16.86625 20.608125 -17.7325 20.21625 -18.625 19.8125 C-24.12547342 18.48831196 -29.26196364 18.56275833 -34.3515625 21.234375 C-38.42892205 24.11076683 -40.39599892 26.21334101 -42 31 C-42.32275787 33.76469538 -42.32275787 33.76469538 -42.31884766 36.70825195 C-42.33871735 37.82903641 -42.35858704 38.94982086 -42.37905884 40.10456848 C-42.39061005 41.3036937 -42.40216125 42.50281891 -42.4140625 43.73828125 C-42.43342865 44.97418503 -42.4527948 46.21008881 -42.4727478 47.48344421 C-42.52232555 50.75651967 -42.56362829 54.029561 -42.60089111 57.30279541 C-42.64102019 60.64793457 -42.69223452 63.99288373 -42.7421875 67.33789062 C-42.83816821 73.89182779 -42.92222625 80.44582251 -43 87 C-50.92 87 -58.84 87 -67 87 C-67.01458252 84.84509033 -67.02916504 82.69018066 -67.04418945 80.4699707 C-67.09455651 73.34522241 -67.16115529 66.22069218 -67.23571491 59.09615803 C-67.28041711 54.77709638 -67.31967348 50.45812903 -67.34643555 46.13891602 C-67.37247016 41.96957836 -67.41287344 37.80060359 -67.46318626 33.63149071 C-67.47985396 32.04195868 -67.49136886 30.45236388 -67.49761391 28.86275673 C-67.50725634 26.63378606 -67.53531548 24.40574352 -67.56762695 22.17700195 C-67.57873001 20.90903275 -67.58983307 19.64106354 -67.60127258 18.33467102 C-68.19154077 13.39808994 -69.83817523 10.91802652 -73.69921875 7.8671875 C-74.68535156 7.20976563 -75.67148437 6.55234375 -76.6875 5.875 C-79.69921875 3.8671875 -79.69921875 3.8671875 -82 2 C-82 1.01 -82 0.02 -82 -1 C-69.79 -1 -57.58 -1 -45 -1 C-44.505 3.455 -44.505 3.455 -44 8 C-43.55011719 7.54109375 -43.10023438 7.0821875 -42.63671875 6.609375 C-31.48121683 -4.03194547 -14.109059 -7.02960183 0 0 Z " fill="#0068F3" transform="translate(684,96)"/>
<path d="M0 0 C0.84003448 2.7481128 1.67222151 5.49819581 2.5 8.25 C2.85771484 9.41595703 2.85771484 9.41595703 3.22265625 10.60546875 C3.56103516 11.73662109 3.56103516 11.73662109 3.90625 12.890625 C4.11572266 13.58188477 4.32519531 14.27314453 4.54101562 14.98535156 C5 17 5 17 5 21 C-2.59493671 20.11392405 -2.59493671 20.11392405 -5 19.4375 C-11.31463213 18.05617422 -15.72718162 18.9159251 -21.3359375 21.83203125 C-23.95736702 23.67195479 -24.90898477 25.58892461 -25.58984375 28.6640625 C-26.06958869 32.56598804 -26.34585656 36.45112159 -26.5625 40.375 C-26.706875 42.89125 -26.85125 45.4075 -27 48 C-20.4 48 -13.8 48 -7 48 C-7 54.6 -7 61.2 -7 68 C-13.6 68 -20.2 68 -27 68 C-27 90.44 -27 112.88 -27 136 C-34.59 136 -42.18 136 -50 136 C-50.01458252 134.05714111 -50.02916504 132.11428223 -50.04418945 130.11254883 C-50.09587958 123.68627979 -50.16117596 117.26026114 -50.23571491 110.83421803 C-50.28040223 106.9388976 -50.31966173 103.04368136 -50.34643555 99.14819336 C-50.37248524 95.38731779 -50.4128988 91.6268435 -50.46318626 87.86621666 C-50.47984384 86.43299039 -50.49136505 84.99969472 -50.49761391 83.56638527 C-50.50726611 81.55561919 -50.53703652 79.54498038 -50.56762695 77.53442383 C-50.57873001 76.39080887 -50.58983307 75.24719391 -50.60127258 74.06892395 C-51.34140436 68.37228 -54.50868443 65.24274417 -58.6875 61.5625 C-59.56535156 60.78777344 -60.44320313 60.01304688 -61.34765625 59.21484375 C-64.32224622 56.73090779 -67.39183537 54.45848281 -70.6015625 52.2890625 C-71.06304687 51.86367187 -71.52453125 51.43828125 -72 51 C-72 50.01 -72 49.02 -72 48 C-64.74 48 -57.48 48 -50 48 C-50.04640625 46.23914063 -50.0928125 44.47828125 -50.140625 42.6640625 C-50.17816639 40.31772541 -50.21456399 37.97136983 -50.25 35.625 C-50.28351563 34.46871094 -50.31703125 33.31242187 -50.3515625 32.12109375 C-50.46637114 21.96052939 -48.44643705 13.25203033 -41.19921875 5.76171875 C-30.35855271 -2.92236719 -13.08031252 -3.32457943 0 0 Z " fill="#006AF7" transform="translate(522,47)"/>
<path d="M0 0 C5.28 0 10.56 0 16 0 C16 8.25 16 16.5 16 25 C23.59 25 31.18 25 39 25 C39 31.6 39 38.2 39 45 C31.41 45 23.82 45 16 45 C16.07410652 50.87230325 16.15703327 56.74311321 16.26245117 62.61474609 C16.29563713 64.61076029 16.32368868 66.60686689 16.34643555 68.60302734 C16.38009793 71.4779384 16.43241977 74.35200743 16.48828125 77.2265625 C16.49467117 78.11429352 16.5010611 79.00202454 16.50764465 79.91665649 C16.62753194 85.0068189 17.19201109 88.58302691 20 93 C23.44987228 95.81100704 27.76480126 95.37327175 32 95 C35.36079417 94.44465509 38.68032687 93.76189219 42 93 C42.42503055 97.51186277 41.23845632 99.77777121 38.75 103.5 C38.14671875 104.4178125 37.5434375 105.335625 36.921875 106.28125 C36.28765625 107.1784375 35.6534375 108.075625 35 109 C34.36578125 109.9178125 33.7315625 110.835625 33.078125 111.78125 C30.61794163 114.40791195 29.53446226 114.72247926 26 115 C25.01644531 115.07863281 24.03289062 115.15726562 23.01953125 115.23828125 C14.34612251 115.43900569 7.26129271 114.44961791 0.375 108.875 C-1 107 -1 107 -1 105 C-1.66 105 -2.32 105 -3 105 C-3.65844127 103.50549145 -4.301021 102.00399308 -4.9375 100.5 C-5.29714844 99.6646875 -5.65679687 98.829375 -6.02734375 97.96875 C-8.23902926 91.21822395 -8.10399343 84.30109289 -8.03515625 77.27734375 C-8.03886662 75.42121842 -8.04479264 73.56509643 -8.05273438 71.70898438 C-8.06330767 68.81608284 -8.06234373 65.92565861 -8.02416992 63.03295898 C-7.4554367 52.22357402 -7.4554367 52.22357402 -10.69165039 42.26513672 C-12.71267593 40.49276954 -14.62632443 39.24406416 -17 38 C-18.4375 36.75 -19.875 35.5 -21.3125 34.25 C-21.94800781 33.69828125 -22.58351562 33.1465625 -23.23828125 32.578125 C-23.81964844 32.05734375 -24.40101563 31.5365625 -25 31 C-25.57105469 30.49984375 -26.14210937 29.9996875 -26.73046875 29.484375 C-28 28 -28 28 -28 25 C-21.07 25 -14.14 25 -7 25 C-6.34 22.03 -5.68 19.06 -5 16 C-4.15475396 13.12872483 -3.29251316 10.28410436 -2.375 7.4375 C-1.59125 4.983125 -0.8075 2.52875 0 0 Z " fill="#0069F3" transform="translate(216,70)"/>
<path d="M0 0 C0 7.59 0 15.18 0 23 C-3.3721875 22.62875 -3.3721875 22.62875 -6.8125 22.25 C-13.90072269 21.66408148 -19.67631835 22.45783003 -26 26 C-30.99676902 30.24725366 -32.60429268 37.39151175 -33.30111694 43.74591064 C-33.43788023 46.65880002 -33.49305445 49.56054907 -33.51171875 52.4765625 C-33.52966995 53.52782318 -33.54762115 54.57908386 -33.56611633 55.66220093 C-33.61981472 58.9830945 -33.65398467 62.30384773 -33.6875 65.625 C-33.72070881 67.89194645 -33.7552017 70.15887446 -33.79101562 72.42578125 C-33.87790826 77.95053652 -33.93832395 83.47467703 -34 89 C-41.59 89 -49.18 89 -57 89 C-57.01981934 86.8753833 -57.03963867 84.7507666 -57.06005859 82.56176758 C-57.12700807 75.53684217 -57.20464699 68.51206407 -57.28752708 61.48730946 C-57.33744261 57.22879599 -57.38377302 52.97030677 -57.421875 48.71166992 C-57.45878781 44.6007559 -57.50516395 40.49004699 -57.55806351 36.3793087 C-57.57657562 34.81209605 -57.59169532 33.24483949 -57.60334396 31.67756081 C-57.62026114 29.4798959 -57.64930856 27.28269746 -57.68115234 25.08520508 C-57.69447601 23.83500076 -57.70779968 22.58479645 -57.7215271 21.29670715 C-57.99506131 18.05846679 -58.49660905 15.86567162 -60 13 C-62.02339029 11.31290727 -63.95404164 9.83573764 -66.125 8.375 C-68.17945436 6.98342451 -70.0709737 5.57507652 -72 4 C-72 3.01 -72 2.02 -72 1 C-59.46 1 -46.92 1 -34 1 C-33.505 4.96 -33.505 4.96 -33 9 C-32.52691406 8.52949219 -32.05382812 8.05898437 -31.56640625 7.57421875 C-22.91554212 -0.5707469 -11.71290992 -3.90430331 0 0 Z " fill="#006AF6" transform="translate(973,94)"/>
<path d="M0 0 C11.55 0 23.1 0 35 0 C35 29.04 35 58.08 35 88 C27.08 88 19.16 88 11 88 C11.0220752 85.77515869 11.04415039 83.55031738 11.06689453 81.25805664 C11.132741 73.88188811 11.14323643 66.50637373 11.12697029 59.12995243 C11.11879493 54.66013564 11.12887814 50.19195791 11.18164062 45.72241211 C11.23193906 41.40335253 11.23303147 37.08675118 11.20095444 32.7675457 C11.19722219 31.1253979 11.21079752 29.48311079 11.24249649 27.84126472 C11.6015333 18.37678359 11.6015333 18.37678359 7.69378662 10.07003784 C5.00266744 7.64776263 5.00266744 7.64776263 2.14547729 5.75169373 C1.43746979 5.1736348 0.72946228 4.59557587 0 4 C0 2.68 0 1.36 0 0 Z " fill="#006DFD" transform="translate(149,95)"/>
<path d="M0 0 C3.94723665 1.80049391 5.48861393 3.2329209 7.875 6.8125 C9.60690553 11.71956568 9.63147999 15.30497476 7.8125 20.1875 C5.3167993 24.06013902 3.30223232 26.42932781 -1.30078125 27.5703125 C-7.12948775 28.40172132 -10.93779307 28.03732416 -16 25 C-19.80243189 21.5978241 -20.81711919 18.29572868 -21.1640625 13.34765625 C-20.88712461 9.38480698 -19.49560779 6.08116939 -17 3 C-11.66621008 -0.97975749 -6.41045639 -0.77307672 0 0 Z " fill="#0067F0" transform="translate(178,53)"/>
<path d="M0 0 C4.23301121 2.82200747 7.17159664 5.95228992 8.8125 10.875 C9.65116758 16.9493495 8.71609479 21.02373946 5.39453125 26.1484375 C2.60943125 29.18797874 -0.00275355 30.69800558 -4.08984375 31.30859375 C-10.23821801 31.31650672 -14.50064296 31.3215054 -19.1875 26.875 C-22.94684106 21.43043708 -23.9081792 17.42378051 -23.1875 10.875 C-22.11645239 6.97966123 -20.63387331 4.01097903 -17.421875 1.48828125 C-11.60622411 -1.77443628 -6.35336474 -2.24236403 0 0 Z M-13.1875 4.875 C-13.1875 5.205 -13.1875 5.535 -13.1875 5.875 C-9.2275 5.875 -5.2675 5.875 -1.1875 5.875 C-5.04482589 2.01767411 -8.53052952 2.61304291 -13.1875 4.875 Z M-16.1875 7.375 C-18.86994071 10.72805088 -19.55663484 13.60123889 -19.1875 17.875 C-16.97520444 22.14980669 -16.97520444 22.14980669 -13.1875 24.875 C-13.1875 18.605 -13.1875 12.335 -13.1875 5.875 C-14.47083333 5.775 -14.47083333 5.775 -16.1875 7.375 Z M0.8125 7.875 C0.4825 10.515 0.1525 13.155 -0.1875 15.875 C-0.8475 15.875 -1.5075 15.875 -2.1875 15.875 C-1.5275 17.525 -0.8675 19.175 -0.1875 20.875 C0.8025 20.875 1.7925 20.875 2.8125 20.875 C4.39762383 17.70475235 4.23622144 14.32832972 3.8125 10.875 C2.47891006 8.865755 2.47891006 8.865755 0.8125 7.875 Z M-9.1875 9.875 C-9.1875 10.865 -9.1875 11.855 -9.1875 12.875 C-7.5375 12.875 -5.8875 12.875 -4.1875 12.875 C-4.1875 11.885 -4.1875 10.895 -4.1875 9.875 C-5.8375 9.875 -7.4875 9.875 -9.1875 9.875 Z M-9.1875 16.875 C-9.1875 19.515 -9.1875 22.155 -9.1875 24.875 C-10.1775 25.205 -11.1675 25.535 -12.1875 25.875 C-9.42499964 27.25625018 -7.24018901 27.06579306 -4.1875 26.875 C-3.5275 26.215 -2.8675 25.555 -2.1875 24.875 C-3.16278737 23.53882648 -4.14283319 22.2061249 -5.125 20.875 C-5.94291016 19.76125 -5.94291016 19.76125 -6.77734375 18.625 C-7.24269531 18.0475 -7.70804688 17.47 -8.1875 16.875 C-8.5175 16.875 -8.8475 16.875 -9.1875 16.875 Z " fill="#0052BF" transform="translate(983.1875,154.125)"/>
<path d="M0 0 C11.55 0 23.1 0 35 0 C35 29.04 35 58.08 35 88 C27.08 88 19.16 88 11 88 C11 87.34 11 86.68 11 86 C18.26 86 25.52 86 33 86 C33 58.28 33 30.56 33 2 C23.1 2.33 13.2 2.66 3 3 C3 3.66 3 4.32 3 5 C3.66 5 4.32 5 5 5 C4.67 5.66 4.34 6.32 4 7 C2 5.75 2 5.75 0 4 C0 2.68 0 1.36 0 0 Z " fill="#004EB5" transform="translate(149,95)"/>
<path d="M0 0 C22.77 0 45.54 0 69 0 C68.67 0.66 68.34 1.32 68 2 C46.22 2 24.44 2 2 2 C4.475 5.465 4.475 5.465 7 9 C4.13998967 7.71792641 1.92960588 6.50848764 0 4 C0 2.68 0 1.36 0 0 Z " fill="#0056C9" transform="translate(33,54)"/>
<path d="M0 0 C11.22 0 22.44 0 34 0 C33.67 0.66 33.34 1.32 33 2 C23.1 2.33 13.2 2.66 3 3 C3 3.66 3 4.32 3 5 C3.66 5 4.32 5 5 5 C4.67 5.66 4.34 6.32 4 7 C2 5.75 2 5.75 0 4 C0 2.68 0 1.36 0 0 Z " fill="#0059D0" transform="translate(149,95)"/>
<path d="M0 0 C9 0 9 0 12 2 C11.67 2.99 11.34 3.98 11 5 C10.67 4.01 10.34 3.02 10 2 C7.69 2 5.38 2 3 2 C3.185625 3.155 3.37125 4.31 3.5625 5.5 C4.1235724 9.86389648 3.69632186 13.66733065 3 18 C2.01 18 1.02 18 0 18 C0 12.06 0 6.12 0 0 Z " fill="#0068F2" transform="translate(970,160)"/>
<path d="M0 0 C0 0.66 0 1.32 0 2 C0.33 2.66 0.66 3.32 1 4 C0.071875 4.433125 -0.85625 4.86625 -1.8125 5.3125 C-5.85680937 7.45360496 -7.48301053 9.22451579 -10 13 C-10 11.35 -10 9.7 -10 8 C-10.66 8 -11.32 8 -12 8 C-11.35838246 5.11272106 -10.6314173 3.43075502 -8.15625 1.7421875 C-2.43950178 -1.21975089 -2.43950178 -1.21975089 0 0 Z " fill="#004EB6" transform="translate(974,154)"/>
<path d="M0 0 C1.32 0.33 2.64 0.66 4 1 C3.67 1.66 3.34 2.32 3 3 C2.67 2.67 2.34 2.34 2 2 C1.9175 3.0725 1.835 4.145 1.75 5.25 C1 9 1 9 -3 13 C1.62 13 6.24 13 11 13 C8.34500624 15.65499376 6.95036703 15.32897553 3.25 15.375 C-2.22204283 15.28314317 -5.02566486 14.7651596 -9 11 C-10.375 8.75 -10.375 8.75 -11 7 C-9.515 7.99 -9.515 7.99 -8 9 C-6.34450469 9.38499891 -4.6777567 9.72793135 -3 10 C-3 9.34 -3 8.68 -3 8 C-2.01 8 -1.02 8 0 8 C0 5.36 0 2.72 0 0 Z " fill="#0048A8" transform="translate(973,170)"/>
<path d="M0 0 C4.875 0.875 4.875 0.875 6 2 C6.23529412 7.52941176 6.23529412 7.52941176 5 10 C3.35 9.67 1.7 9.34 0 9 C0.33 7.35 0.66 5.7 1 4 C-0.65 4 -2.3 4 -4 4 C-4 4.99 -4 5.98 -4 7 C-3.01 7.33 -2.02 7.66 -1 8 C-2.32 8 -3.64 8 -5 8 C-5 6.02 -5 4.04 -5 2 C-2.33333333 2 0.33333333 2 3 2 C2.01 1.34 1.02 0.68 0 0 Z " fill="#004EB5" transform="translate(978,160)"/>
<path d="M0 0 C1.43836751 0.11458693 2.87570966 0.24209116 4.3125 0.375 C5.51326172 0.47941406 5.51326172 0.47941406 6.73828125 0.5859375 C9 1 9 1 12 3 C12 3.66 12 4.32 12 5 C6.34264585 6.55577239 3.20333134 5.24281523 -2 3 C-1.34 2.01 -0.68 1.02 0 0 Z " fill="#0050BA" transform="translate(974,153)"/>
<path d="M0 0 C0.66 0.33 1.32 0.66 2 1 C0.56974806 2.65213589 -0.86945545 4.29652589 -2.3125 5.9375 C-3.11300781 6.85402344 -3.91351563 7.77054687 -4.73828125 8.71484375 C-7 11 -7 11 -10 12 C-10.33 13.65 -10.66 15.3 -11 17 C-11.66 17 -12.32 17 -13 17 C-11.32504942 9.55577521 -6.06460555 4.31468632 0 0 Z " fill="#004EB6" transform="translate(281,99)"/>
<path d="M0 0 C0.66 0.33 1.32 0.66 2 1 C0.21479439 3.00611734 -1.57758712 5.0048717 -3.375 7 C-3.88289062 7.57234375 -4.39078125 8.1446875 -4.9140625 8.734375 C-6.23504905 10.19441277 -7.61400799 11.60152157 -9 13 C-9.66 13 -10.32 13 -11 13 C-11 13.99 -11 14.98 -11 16 C-11.66 16 -12.32 16 -13 16 C-11.69626076 10.64367374 -9.5168994 8.18895995 -5.375 4.625 C-4.859375 4.17511719 -4.34375 3.72523437 -3.8125 3.26171875 C-2.55095895 2.1637108 -1.27672956 1.08030963 0 0 Z " fill="#004DB3" transform="translate(729,98)"/>
<path d="M0 0 C2.95183101 2.95183101 3.08663988 5.95511947 4 10 C1.625 9.3125 1.625 9.3125 -1 8 C-2.125 5.5625 -2.125 5.5625 -3 3 C-4.52007842 1.22722741 -4.52007842 1.22722741 -6 0 C-2.25 -1.125 -2.25 -1.125 0 0 Z " fill="#005DD9" transform="translate(979,168)"/>
<path d="M0 0 C-0.99 0.66 -1.98 1.32 -3 2 C-8.62988842 6.0176931 -11.04779252 9.33952741 -13 16 C-13.33 16 -13.66 16 -14 16 C-13.59780148 10.16812147 -12.86413931 6.63696717 -9 2 C-6.00889434 -0.12272015 -3.61562381 -0.20086799 0 0 Z " fill="#004BAE" transform="translate(171,53)"/>
<path d="M0 0 C-1.44781793 3.44428265 -3.27694609 5.36130962 -6.125 7.75 C-7.21167969 8.67039062 -7.21167969 8.67039062 -8.3203125 9.609375 C-8.87460937 10.06828125 -9.42890625 10.5271875 -10 11 C-10 7.45459812 -9.40614728 6.93992636 -7.125 4.375 C-6.59132813 3.76398437 -6.05765625 3.15296875 -5.5078125 2.5234375 C-3.65935109 0.65582105 -2.64790252 0 0 0 Z " fill="#004BAF" transform="translate(487,50)"/>
<path d="M0 0 C1.70884005 1.62339805 3.37446717 3.29319053 5 5 C5 5.66 5 6.32 5 7 C4.34 7 3.68 7 3 7 C3 6.01 3 5.02 3 4 C2.34 4 1.68 4 1 4 C0.67 5.32 0.34 6.64 0 8 C-1.32 6.02 -2.64 4.04 -4 2 C-2.68 1.34 -1.36 0.68 0 0 Z " fill="#004CB0" transform="translate(986,157)"/>
<path d="M0 0 C4.62 0 9.24 0 14 0 C14 0.66 14 1.32 14 2 C10.00326615 3.33224462 6.16705497 3.13442113 2 3 C1.34 2.67 0.68 2.34 0 2 C0 1.34 0 0.68 0 0 Z " fill="#0068F1" transform="translate(970,181)"/>
<path d="M0 0 C0.66 0.33 1.32 0.66 2 1 C0.73965413 2.50882261 -0.53363649 4.00684044 -1.8125 5.5 C-2.52019531 6.3353125 -3.22789062 7.170625 -3.95703125 8.03125 C-6 10 -6 10 -9 10 C-7.61811547 6.78956118 -6.07578097 4.95063635 -3.375 2.75 C-2.74335938 2.22921875 -2.11171875 1.7084375 -1.4609375 1.171875 C-0.73777344 0.59179688 -0.73777344 0.59179688 0 0 Z " fill="#004EB5" transform="translate(386,100)"/>
<path d="M0 0 C0.36923077 4.55384615 0.36923077 4.55384615 -1.5 6.8125 C-1.995 7.204375 -2.49 7.59625 -3 8 C-2.67 6.35 -2.34 4.7 -2 3 C-4.64 3 -7.28 3 -10 3 C-6.71687741 1.24118433 -3.76143005 0 0 0 Z " fill="#00449D" transform="translate(258,163)"/>
<path d="M0 0 C0.99 0 1.98 0 3 0 C3 0.66 3 1.32 3 2 C4.65 2 6.3 2 8 2 C7.67 2.66 7.34 3.32 7 4 C3.625 4.125 3.625 4.125 0 4 C-0.66 3.34 -1.32 2.68 -2 2 C-1.34 1.34 -0.68 0.68 0 0 Z " fill="#0067F0" transform="translate(974,153)"/>
<path d="M0 0 C-9.41002278 3.25968109 -9.41002278 3.25968109 -14 4 C-10.5440617 -0.47239075 -5.23364579 -1.61035255 0 0 Z " fill="#004CB2" transform="translate(297,95)"/>
<path d="M0 0 C2.66666667 2.66666667 5.33333333 5.33333333 8 8 C7.67 8.66 7.34 9.32 7 10 C5 8.625 5 8.625 3 7 C3 6.34 3 5.68 3 5 C2.01 4.67 1.02 4.34 0 4 C0 2.68 0 1.36 0 0 Z " fill="#00449F" transform="translate(288,150)"/>
<path d="M0 0 C0.515625 0.2475 1.03125 0.495 1.5625 0.75 C-4.8375 4.81153846 -4.8375 4.81153846 -7.875 4.5 C-8.390625 4.2525 -8.90625 4.005 -9.4375 3.75 C-3.0375 -0.31153846 -3.0375 -0.31153846 0 0 Z " fill="#00439B" transform="translate(397.4375,95.25)"/>
<path d="M0 0 C3.63 0.66 7.26 1.32 11 2 C10.67 2.66 10.34 3.32 10 4 C5.74357648 4.3648363 3.46444495 3.47460354 0 1 C0 0.67 0 0.34 0 0 Z " fill="#004AAC" transform="translate(551,163)"/>
<path d="M0 0 C0.66 0 1.32 0 2 0 C3.28317892 3.84953676 3.06643637 6.94738135 3 11 C2.67 11 2.34 11 2 11 C0.80712589 7.12315913 0 4.08378077 0 0 Z " fill="#006AF7" transform="translate(987,161)"/>
</svg>
