<?xml version="1.0" encoding="utf-8"?>
<!-- Generator: Adobe Illustrator 27.6.1, SVG Export Plug-In . SVG Version: 6.00 Build 0)  -->
<svg version="1.1" id="a1cae06b-de1a-420d-bb82-8189f5a1e67c"
	 xmlns="http://www.w3.org/2000/svg" xmlns:xlink="http://www.w3.org/1999/xlink" x="0px" y="0px" viewBox="0 0 375.3 42.5"
	 style="enable-background:new 0 0 375.3 42.5;" xml:space="preserve">
<style type="text/css">
	.st0{fill:url(#SVGID_00000071540587236419862130000006084126230413457559_);}
	.st1{fill:url(#SVGID_00000172428399848856595270000002960245369454845064_);}
	.st2{fill:url(#SVGID_00000039826503503178103270000017475234679894803074_);}
	.st3{fill:url(#SVGID_00000031196531118735339740000010196111359673888390_);}
	.st4{fill:#303047;}
</style>
<linearGradient id="SVGID_00000065788882474529937130000014072959727643475073_" gradientUnits="userSpaceOnUse" x1="0" y1="548.7" x2="52.2" y2="548.7" gradientTransform="matrix(1 0 0 1 0 -532.5)">
	<stop  offset="0" style="stop-color:#D42626"/>
	<stop  offset="1" style="stop-color:#CC1D2E"/>
</linearGradient>
<path id="SVGID_1_" style="fill:url(#SVGID_00000065788882474529937130000014072959727643475073_);" d="M52.2,16.2
	c0-1.4-1.2-2.5-2.5-2.5H2.5C1,13.7,0,14.9,0,16.2c0,1.4,1.2,2.5,2.5,2.5h47.1C51,18.7,52.2,17.6,52.2,16.2z"/>
<linearGradient id="SVGID_00000168080724721521649600000009179162448035615151_" gradientUnits="userSpaceOnUse" x1="23.6" y1="539.9" x2="57.6" y2="539.9" gradientTransform="matrix(1 0 0 1 0 -532.5)">
	<stop  offset="0" style="stop-color:#D42626"/>
	<stop  offset="1" style="stop-color:#CC1D2E"/>
</linearGradient>
<path id="SVGID_4_" style="fill:url(#SVGID_00000168080724721521649600000009179162448035615151_);" d="M57.6,7.4
	c0-1.4-1.2-2.5-2.5-2.5h-29c-1.4,0-2.5,1.2-2.5,2.5c0,1.4,1.2,2.5,2.5,2.5h29C56.5,9.8,57.6,8.8,57.6,7.4z"/>
<linearGradient id="SVGID_00000014632381980995495930000018239639182833342887_" gradientUnits="userSpaceOnUse" x1="30.896" y1="566.8" x2="47.669" y2="566.8" gradientTransform="matrix(1 0 0 1 0 -532.5)">
	<stop  offset="0" style="stop-color:#D42626"/>
	<stop  offset="1" style="stop-color:#CC1D2E"/>
</linearGradient>
<path id="SVGID_7_" style="fill:url(#SVGID_00000014632381980995495930000018239639182833342887_);" d="M47.7,34.3
	c0-1.4-1.2-2.5-2.5-2.5H33.4C32,31.9,31,33,31,34.3c0,1.4,1.2,2.5,2.5,2.5h11.8C46.5,36.8,47.7,35.7,47.7,34.3z"/>
<g>
	
		<linearGradient id="SVGID_00000176755364671476859290000000402997455330940067_" gradientUnits="userSpaceOnUse" x1="10.418" y1="557.6" x2="44.16" y2="557.6" gradientTransform="matrix(1 0 0 1 0 -532.5)">
		<stop  offset="0" style="stop-color:#D42626"/>
		<stop  offset="1" style="stop-color:#CC1D2E"/>
	</linearGradient>
	<path id="SVGID_10_" style="fill:url(#SVGID_00000176755364671476859290000000402997455330940067_);" d="M44.2,25.1
		c0-1.4-1.2-2.5-2.5-2.5H13c-1.4,0-2.5,1.2-2.5,2.5c0,1.4,1.2,2.5,2.5,2.5h28.8C43,27.6,44.2,26.4,44.2,25.1z"/>
</g>
<g>
	<path class="st4" d="M82.6,0.1H68.1c-1,0-1.6,0.5-1.7,1.4l-6.9,38.7c-0.1,0.9,0.3,1.4,1.3,1.4h15.8c5.6,0,10.1-1.2,13.5-3.4
		c3.4-2.3,5.1-5.8,5.1-10.8c0-2.1-0.5-3.9-1.6-5.2c-0.9-1.4-2.3-2.3-3.9-2.7c2.3-0.8,4.1-2.1,5.4-4c1.3-1.8,1.9-4,1.9-6.5
		C97.1,3.1,92.4,0.1,82.6,0.1z M76.9,35l-8.2-0.1l2.1-11.7h8.4c2.7,0,4.8,0.3,6,1C86.4,25,87,26,87,27.6C87,32.5,83.7,35,76.9,35z
		 M80,17.2h-8.3l1.9-10.6h8c2.5,0,4.3,0.3,5.4,0.9c1.2,0.6,1.7,1.6,1.7,3C88.9,15,86,17.2,80,17.2z M112.2,0H107
		c-0.9,0-1.4,0.4-1.6,1.3l-6.9,39c-0.1,0.9,0.3,1.3,1.2,1.3h5.2c0.8,0,1.3-0.4,1.4-1.3l7-39C113.5,0.4,113.1,0,112.2,0z M130.4,10
		c-4,0-7.9,0.6-11.7,2.2c-0.9,0.4-1.3,0.9-1.2,1.7l0.5,3.2c0.1,0.8,0.6,1,1.6,0.8c3.1-1.2,6.2-1.8,9.2-1.8c2.5,0,4.1,0.4,5.1,1.3
		s1.3,2.2,0.9,4l-0.3,1.3h-0.6c-1.8,0.1-3.4,0.1-4.9,0.3c-1.4,0.1-3.1,0.3-4.9,0.5c-1.8,0.1-3.4,0.5-4.7,1s-2.6,1.2-3.8,1.9
		c-1.2,0.8-2.1,1.9-2.7,3.2c-0.6,1.3-0.9,2.8-0.9,4.7c0,2.3,0.8,4.1,2.5,5.6c1.7,1.4,4,2.1,7,2.1c4.5,0,8.2-1.6,10.9-4.8l-0.4,3.2
		c0,0.8,0.5,1.2,1.3,1.2h4.4c0.9,0,1.4-0.4,1.6-1.3l3-18.8c0.1-0.9,0.3-1.8,0.3-2.7C142.5,13,138.5,10,130.4,10L130.4,10z
		 M133.5,29.8c-0.4,2.1-1.4,3.8-3,5.1s-3.6,1.9-6.2,1.9c-1.4,0-2.6-0.3-3.4-0.9s-1.2-1.4-1.2-2.5c0-0.9,0.1-1.7,0.5-2.3
		c0.4-0.8,0.9-1.3,1.7-1.7c0.8-0.4,1.6-0.8,2.2-1c0.8-0.3,1.8-0.5,3.1-0.6c1.3-0.1,2.3-0.3,3.1-0.3l3.5-0.1
		C133.8,27.4,133.5,29.8,133.5,29.8z M172.9,10.6h-21.8c-0.9,0-1.4,0.4-1.6,1.3l-0.6,3.8c-0.1,0.8,0.3,1.3,1.2,1.3h13.6l-18.3,18.8
		c-0.4,0.4-0.8,1-0.9,1.7l-0.5,2.8c-0.1,0.9,0.3,1.3,1.3,1.3h22.4c0.8,0,1.3-0.4,1.4-1.3l0.6-3.8c0.1-0.9-0.3-1.3-1.2-1.3h-14.1
		l18-18.7c0.6-0.6,0.9-1.3,1-1.9l0.5-2.7C174.2,11,173.8,10.6,172.9,10.6L172.9,10.6z M192.2,9.7c-4.7,0-8.4,1.4-11.5,4.1
		c-3,2.7-4.9,6.7-5.8,11.8c-0.3,1.3-0.4,2.6-0.4,3.8c0,4,1.3,7.3,3.9,9.5c2.6,2.2,6.1,3.4,10.8,3.4c3.6,0,7-0.8,10.2-2.3
		c0.9-0.5,1.3-1,1.2-1.7l-0.5-2.7c-0.1-0.9-0.8-1.2-1.7-0.8c-2.6,1.3-5.3,1.8-8,1.7c-2.5,0-4.5-0.6-6-1.8c-1.4-1.2-2.2-2.8-2.2-4.9
		v-0.9h20.1c1,0,1.6-0.5,1.7-1.4l0.5-2.8c0.1-0.9,0.3-2.1,0.3-3.2c0-3.5-1-6.3-3.2-8.4C199.2,10.8,196.1,9.7,192.2,9.7L192.2,9.7z
		 M197.4,23.6V24h-14.6c1.3-5.6,4.4-8.4,8.9-8.4c1.9,0,3.4,0.5,4.4,1.6c0.9,1,1.4,2.5,1.4,4.3C197.5,22,197.5,22.8,197.4,23.6
		L197.4,23.6z M252.2,0.1H247c-0.8,0-1.4,0.3-1.8,0.8l-15,19l-8.2-19c-0.3-0.5-0.8-0.8-1.7-0.8h-4.9c-1,0-1.6,0.5-1.7,1.4l-6.9,38.7
		c-0.1,0.9,0.3,1.4,1.3,1.4h5.2c0.9,0,1.4-0.4,1.7-1.4l4.7-26.6l7.5,17.1c0.3,0.5,0.6,0.8,1.2,0.8s1.2-0.3,1.4-0.8l13.5-17.1
		l-4.7,26.6c-0.3,0.9,0.1,1.4,1.2,1.4h5.2c0.9,0,1.4-0.4,1.7-1.4l6.9-38.7C253.6,0.6,253.2,0.1,252.2,0.1z M272,9.7
		c-4.7,0-8.4,1.4-11.5,4.1c-3,2.7-4.9,6.7-5.8,11.8c-0.3,1.3-0.4,2.6-0.4,3.8c0,4,1.3,7.3,3.9,9.5s6.1,3.4,10.8,3.4
		c3.6,0,7-0.8,10.2-2.3c0.9-0.5,1.3-1,1.2-1.7l-0.5-2.7c-0.1-0.9-0.8-1.2-1.7-0.8c-2.6,1.3-5.3,1.8-8,1.7c-2.5,0-4.5-0.6-6-1.8
		c-1.4-1.2-2.2-2.8-2.2-4.9v-0.9h20c1,0,1.6-0.5,1.7-1.4l0.5-2.8c0.1-0.9,0.3-2.1,0.3-3.2c0-3.5-1-6.3-3.2-8.4
		C279,10.8,275.9,9.7,272,9.7z M277.2,23.6V24h-14.6c1.4-5.6,4.4-8.4,8.9-8.4c1.9,0,3.4,0.5,4.4,1.6c0.9,1,1.4,2.5,1.4,4.3
		C277.3,22,277.3,22.8,277.2,23.6L277.2,23.6z M307.1,11h-6.5l1.3-7.3c0.1-0.9-0.3-1.3-1.2-1.3H296c-0.9,0-1.4,0.5-1.6,1.3l-1.3,7.3
		h-3.4c-0.9,0-1.4,0.4-1.6,1.3l-0.6,3.4c-0.1,0.8,0.3,1.3,1.2,1.3h3.1l-2.6,14.9c-0.1,1-0.3,2.1-0.3,3.2c0,2.5,0.8,4.3,2.2,5.3
		c1.4,1.2,3.6,1.7,6.6,1.7c1.7,0,3.1-0.3,4.5-0.6c0.9-0.3,1.4-0.6,1.4-1.3l0.3-3.4c0.1-0.4,0-0.6-0.1-0.9c-0.3-0.3-0.5-0.3-0.9-0.3
		c-0.3,0-0.6,0-1.2,0.1s-1,0.1-1.4,0.1c-1.3,0-2.2-0.1-2.7-0.5s-0.8-1-0.8-2.1c0-0.5,0-1.2,0.1-1.8l2.6-14.4l6.6-0.1
		c0.9,0,1.4-0.4,1.6-1.3l0.5-3.4C308.5,11.5,308.1,11,307.1,11L307.1,11z M331.7,34.7c-2.6,1.3-5.3,1.8-8,1.7c-2.5,0-4.5-0.6-6-1.8
		c-1.4-1.2-2.2-2.8-2.2-4.9v-0.9h20.1c1,0,1.6-0.5,1.7-1.4l0.5-2.8c0.1-0.9,0.3-2.1,0.3-3.2c0-3.5-1-6.3-3.2-8.4s-5.3-3.1-9.2-3.1
		c-4.7,0-8.4,1.4-11.5,4.1c-3,2.7-4.9,6.7-5.8,11.8c-0.3,1.3-0.4,2.6-0.4,3.8c0,4,1.3,7.3,3.9,9.5s6.1,3.4,10.8,3.4
		c3.6,0,7-0.8,10.2-2.3c0.9-0.5,1.3-1,1.2-1.7l-0.5-2.7C333.3,34.6,332.6,34.3,331.7,34.7z M325.1,15.5c1.9,0,3.4,0.5,4.4,1.6
		c0.9,1,1.4,2.5,1.4,4.3c0,0.6,0,1.4-0.1,2.2V24h-14.6C317.5,18.4,320.6,15.5,325.1,15.5L325.1,15.5z M362.4,10.2
		c-2.2,0-4.4,0.6-6.2,1.9s-3.2,2.7-4.3,4.3l0.5-4.7c0.1-0.9-0.3-1.3-1.2-1.3h-4.5c-0.9,0-1.4,0.4-1.6,1.3L340,40.2
		c-0.1,0.9,0.3,1.3,1.3,1.3h5.1c0.8,0,1.3-0.4,1.4-1.3l2.5-13.6c0.4-2.5,1.6-4.5,3.2-6.2c1.7-1.7,3.6-2.6,5.8-2.6h1.8
		c0.6,0,1.2-0.4,1.3-1l0.9-5.4C363.6,10.6,363.2,10.2,362.4,10.2L362.4,10.2z"/>
</g>
<g>
	<path class="st4" d="M373.8,5.3c0,2.1-1.7,3.8-3.8,3.8c-2.1,0-3.9-1.7-3.9-3.8c0-2.1,1.7-3.7,3.9-3.7
		C372.1,1.6,373.8,3.2,373.8,5.3z M367,5.3c0,1.7,1.2,3,2.9,3c1.6,0,2.8-1.3,2.8-3c0-1.7-1.2-3-2.9-3C368.3,2.3,367,3.7,367,5.3z
		 M369.3,7.3h-0.9V3.5c0.3-0.1,0.8-0.1,1.4-0.1c0.7,0,1,0.1,1.3,0.3c0.2,0.2,0.4,0.5,0.4,0.8c0,0.4-0.3,0.7-0.8,0.9v0
		c0.4,0.1,0.6,0.4,0.7,0.9c0.1,0.6,0.2,0.8,0.3,0.9h-0.9c-0.1-0.1-0.2-0.5-0.3-0.9c-0.1-0.4-0.3-0.6-0.8-0.6h-0.4V7.3z M369.4,5.1
		h0.4c0.5,0,0.9-0.2,0.9-0.5c0-0.3-0.3-0.6-0.8-0.6c-0.2,0-0.4,0-0.5,0V5.1z"/>
</g>
</svg>
