<?xml version="1.0" standalone="no"?>
<!DOCTYPE svg PUBLIC "-//W3C//DTD SVG 20010904//EN"
 "http://www.w3.org/TR/2001/REC-SVG-20010904/DTD/svg10.dtd">
<svg version="1.0" xmlns="http://www.w3.org/2000/svg"
 width="2575.000000pt" height="887.000000pt" viewBox="0 0 2575.000000 887.000000"
 preserveAspectRatio="xMidYMid meet">

<g transform="translate(0.000000,887.000000) scale(0.100000,-0.100000)"
fill="#000000" stroke="none">
<path d="M12499 6495 c-273 -43 -427 -169 -485 -397 -10 -40 -18 -128 -21
-240 l-5 -178 -172 -2 -171 -3 -3 -212 -2 -213 175 0 175 0 0 -930 0 -930 320
0 320 0 0 930 0 930 200 0 200 0 0 215 0 215 -206 0 -206 0 3 118 c6 189 25
204 257 210 l152 4 0 243 0 242 -97 6 c-150 10 -339 7 -434 -8z"/>
<path d="M18570 6210 l0 -280 323 2 322 3 0 275 0 275 -322 3 -323 2 0 -280z"/>
<path d="M22290 5990 l0 -310 -160 0 -160 0 0 -215 0 -214 158 -3 157 -3 5
-745 c5 -669 7 -751 23 -805 39 -133 100 -216 197 -265 115 -59 300 -78 613
-65 l177 7 0 229 0 229 -104 0 c-134 0 -204 13 -236 45 l-25 25 -3 675 -2 675
185 0 185 0 0 215 0 215 -185 0 -185 0 0 310 0 310 -320 0 -320 0 0 -310z"/>
<path d="M3705 5750 c-151 -15 -285 -64 -395 -145 -52 -38 -168 -156 -196
-200 l-19 -29 -5 149 -5 150 -307 3 -308 2 0 -1605 0 -1605 315 0 315 0 0 594
0 594 103 -102 c88 -89 115 -109 197 -150 145 -71 226 -89 405 -90 164 0 224
10 362 64 248 96 454 327 562 632 60 171 76 286 75 538 0 249 -14 341 -75 517
-163 468 -555 729 -1024 683z m107 -550 c135 -42 240 -150 296 -305 45 -123
57 -203 56 -375 -1 -222 -39 -366 -130 -486 -93 -122 -202 -180 -359 -190
-277 -19 -485 146 -550 436 -34 153 -30 389 10 545 40 154 139 293 248 349
117 59 291 70 429 26z"/>
<path d="M7610 5754 c-517 -61 -849 -310 -994 -744 -52 -155 -69 -275 -69
-475 0 -200 17 -320 69 -475 123 -369 388 -609 775 -704 422 -103 884 -28
1175 192 219 166 348 389 411 707 13 67 17 139 17 280 0 141 -4 213 -17 280
-52 265 -147 457 -306 616 -155 154 -343 250 -591 300 -92 19 -386 33 -470 23z
m308 -529 c218 -51 356 -217 403 -485 17 -96 17 -313 0 -410 -58 -329 -248
-503 -551 -503 -284 0 -468 151 -542 448 -32 130 -32 390 0 520 59 235 192
381 390 429 76 19 222 19 300 1z"/>
<path d="M10146 5744 c-443 -60 -766 -305 -913 -694 -52 -137 -74 -262 -80
-455 -10 -343 54 -598 207 -819 56 -81 176 -202 253 -255 122 -84 283 -147
461 -183 145 -29 440 -31 585 -4 252 47 439 137 600 291 229 219 341 518 341
910 0 296 -66 544 -197 742 -97 148 -286 305 -447 372 -236 98 -533 133 -810
95z m379 -519 c199 -51 330 -194 388 -423 18 -74 22 -115 22 -267 0 -152 -4
-193 -22 -267 -74 -291 -260 -442 -543 -441 -167 1 -289 49 -391 156 -58 60
-120 182 -144 281 -36 149 -36 394 0 542 54 218 190 367 385 418 74 20 231 20
305 1z"/>
<path d="M14540 5750 c-143 -15 -261 -56 -367 -128 -61 -42 -177 -155 -215
-209 -13 -18 -26 -33 -30 -33 -5 0 -8 68 -8 150 l0 150 -305 0 -305 0 0 -1605
0 -1605 315 0 315 0 2 595 3 594 52 -63 c97 -117 251 -212 418 -257 116 -32
355 -32 470 -1 328 90 568 332 689 695 89 268 99 638 26 922 -58 225 -139 372
-285 521 -108 109 -190 165 -317 214 -134 52 -311 75 -458 60z m52 -534 c194
-42 332 -189 383 -410 39 -168 39 -400 -1 -552 -77 -301 -325 -461 -619 -399
-100 21 -171 60 -240 129 -72 73 -104 131 -141 251 -26 85 -28 101 -28 285 0
206 9 273 54 392 63 167 200 283 370 311 56 9 159 6 222 -7z"/>
<path d="M16930 5754 c-202 -25 -348 -66 -489 -139 -300 -156 -482 -414 -557
-790 -26 -127 -26 -453 -1 -579 52 -258 148 -448 306 -607 159 -159 351 -254
616 -306 123 -24 432 -24 561 0 499 92 817 395 919 878 39 182 39 464 1 645
-76 358 -269 620 -561 764 -193 94 -344 129 -590 134 -93 3 -186 2 -205 0z
m308 -529 c88 -21 157 -58 225 -123 71 -69 117 -148 153 -267 26 -85 28 -101
28 -290 1 -231 -10 -296 -76 -433 -90 -190 -255 -287 -488 -285 -272 1 -454
150 -532 435 -20 73 -23 106 -23 273 0 167 3 200 23 273 62 229 193 369 389
416 77 19 223 19 301 1z"/>
<path d="M6195 5724 c-88 -19 -192 -68 -272 -128 -67 -51 -164 -164 -210 -246
-15 -27 -30 -50 -33 -50 -3 0 -5 84 -5 187 l0 188 -302 3 -303 2 0 -1145 0
-1145 325 0 324 0 4 673 c3 730 2 708 61 826 52 102 163 182 296 211 30 7 130
15 223 17 l167 6 0 308 0 309 -102 -1 c-57 0 -134 -7 -173 -15z"/>
<path d="M20840 5730 c-204 -28 -373 -108 -519 -245 l-71 -67 0 131 0 131
-317 -2 -318 -3 -3 -1142 -2 -1143 325 0 325 0 0 703 c0 764 2 784 57 897 76
156 263 250 473 237 147 -9 241 -60 291 -159 47 -92 49 -125 49 -925 l0 -753
325 0 326 0 -4 878 c-3 870 -3 878 -25 961 -60 225 -199 382 -399 452 -137 47
-365 69 -513 49z"/>
<path d="M18570 4535 l0 -1145 325 0 325 0 -2 1143 -3 1142 -322 3 -323 2 0
-1145z"/>
<path d="M23759 3792 c-192 -100 -173 -375 32 -447 119 -42 254 9 310 118 46
89 33 197 -32 271 -79 90 -205 113 -310 58z m188 -33 c34 -12 80 -55 98 -89
65 -127 -28 -290 -165 -290 -70 0 -155 59 -179 123 -25 66 -2 178 45 218 54
46 138 62 201 38z"/>
<path d="M23787 3693 c-4 -3 -7 -60 -7 -125 l0 -118 30 0 c29 0 30 1 30 50 0
46 2 50 23 50 30 0 53 -25 62 -67 6 -28 11 -33 36 -33 17 0 29 5 29 13 0 30
-22 87 -36 95 -14 8 -12 13 11 36 19 19 25 32 20 49 -13 43 -42 57 -119 57
-40 0 -76 -3 -79 -7z m117 -39 c9 -3 16 -16 16 -29 0 -24 -17 -35 -56 -35 -21
0 -24 5 -24 35 0 30 3 35 24 35 13 0 31 -3 40 -6z"/>
</g>
</svg>
