<svg height="892" viewBox="0 0 901.3 321" width="2500" xmlns="http://www.w3.org/2000/svg"><path d="m0 157.5c0 86.6.2 157.5.5 157.5.2 0 5.7-8.8 12.2-19.6 6.5-10.7 12.6-20.7 13.5-22.2 2.7-4.2 4-6.5 8.2-13.8 2.2-3.8 7.9-13.2 12.6-20.9 6.6-10.8 101.6-168.3 107.3-178 .7-1.1 2.3-3.8 3.7-6s2.9-4.7 3.3-5.5 1.5-2.7 2.5-4.2c1.9-2.9 10.6-17.3 13.7-22.8 1.2-1.9 3.3-5.4 4.8-7.7 1.5-2.4 2.7-4.6 2.7-5 .1-.5 1.1-2.1 2.4-3.7 2.7-3.2 5-3 6.6.6.6 1.3 1.6 3.2 2.2 4.3.7 1.1 2.4 3.8 3.8 6s3.1 4.9 3.8 6c.6 1.1 1.7 2.9 2.2 4 .6 1.1 1.8 3.2 2.8 4.7 1.7 2.7 23.2 38.4 26.8 44.5 3.2 5.4 52.8 87.2 54.6 90.1 1 1.5 2.1 3.4 2.5 4.3.8 1.6 18.4 30.7 21.5 35.7 1 1.5 2.2 3.6 2.8 4.7s1.8 3.2 2.8 4.7c10.2 16.1 61.9 102.8 61.4 103.2-.3.3-28.1.6-61.9.6-57.6 0-61.4-.1-61.9-1.8-.4-.9-2.6-6.5-5-12.4s-4.4-11.2-4.4-11.8c0-.5 1.1-1.2 2.5-1.6 2.8-.7 2.9 0-.8-11.7-1.8-5.6-1.9-7.2-.9-10 1-2.7.8-4.3-.7-9.5-1.9-6.1-1.9-6.2.1-8.8 2.2-2.8 2.2-3.7-.8-18.4-.8-4.1-1.7-11-2.1-15.3-.3-4.2-.9-7.7-1.3-7.7-.5 0-1.3-2.2-2-4.9-.9-3.7-.9-5.5 0-7 1.8-3.5 3-1.4 3 5.5 0 3.5.4 6.4.8 6.4 1.5 0 7.3-18.7 9-28.8 2.3-13.8 2.2-22-.2-23.8-3.5-2.5-5.9-1.6-11.1 4.3-5.5 6.1-7.5 6.4-7.5 1 0-1.8-.6-5.2-1.4-7.7-.7-2.5-1.6-7.1-2-10.2-.8-5.9-5.6-14.8-8.1-14.8-1.6 0-.9 3.5 1.1 5.1.8.6 1.4 1.7 1.4 2.4s.7 1.8 1.5 2.5c1 .9 1.5 3.3 1.6 7.9 0 3.6.6 10.2 1.3 14.5 1.2 7.3 1.2 8-.5 9.7-2.4 2.4-11.5 7-12.3 6.2-1.1-1.2-.6-5 2-14.9 2.6-10.1 2.6-10.5.8-26.1-.5-3.6-.2-5.8.6-6.8 1.9-2.3-.8-5.6-8.1-10.1-4.6-2.8-6.6-3.5-7.8-2.8-.9.6-6.8 11.3-13.1 23.9-6.4 12.5-12.2 23.2-13 23.6s-3 1.4-4.9 2.1c-13.5 5.1-21 12.5-28.9 28.2-2.4 4.7-7.2 12.5-10.6 17.4-3.5 4.8-7.7 11.4-9.4 14.7-2.9 5.9-11.4 14.2-28.9 28.4-3.3 2.6-5.1 4.7-4.5 5.3 2.6 2.6 12.1 4 25.7 3.9 13.5-.1 14.2-.2 19.9-3.1 9.6-4.9 11.2-3.9 4.4 2.7-6.5 6.2-7.7 6.6-15 4.9-3.5-.8-8.7-1.7-11.5-2.1-4.9-.6-5.4-.5-6.3 1.7-.5 1.2-1.4 3-2 3.8-.5.8-3.2 5.3-5.9 10s-7 10.5-9.5 12.8c-2.6 2.4-4.9 5.6-5.2 7.2-.3 1.5-3.3 5.7-6.6 9.4l-6 6.6h-37.4c-24.3 0-37.4.4-37.4 1 0 .7 150.7 1 450 1h450l-.2-95.2c-.2-62.8-.6-95.3-1.3-95.2-.5.1-1.6 1.3-2.3 2.8-.7 1.4-3.7 5.2-6.7 8.4-6 6.6-13.5 10.7-22.3 12.4-7 1.3-23.5.4-30.8-1.8-15.7-4.5-25.7-16-28.3-32.4-1.7-10-1.4-52.1.4-60.3 1.9-9.1 5.7-15.8 12.6-22.2 9.8-9.1 21.6-13.1 35.6-12.2 9.7.6 12.7 1.4 22.1 6.1 7 3.4 14.5 10.6 16.8 16.1.8 1.9 2.1 3.5 2.9 3.5 1.3 0 1.5-3.6 1.5-25.5v-25.5h-900zm619-130.6c8.7 2.5 14.3 5.4 19.7 10.4 5 4.6 11.7 15.3 10.9 17.3-.6 1.5-8 5-15.5 7.4-4.3 1.4-4.4 1.4-6-1-8-12.4-17.9-16.3-31-12.4-6.5 1.9-11.9 7.2-14.4 14.1-1.6 4.4-1.8 8-1.5 28.9.3 23.7.3 24 3 29.4 8.1 16.5 32.7 17.2 41.6 1.2 3.3-5.9 5.1-5.8 18.6.8 4.3 2.1 5.1 2.9 4.8 5-.5 4.4-6.5 13.2-12.2 17.7-9 7.1-14.3 8.6-29.5 8.7-14.9.1-22.6-1.6-31-7-14.7-9.3-18.5-21-18.5-57.1 0-30.2 2.6-41.1 12.3-51.1 11.8-12.3 31.6-17.2 48.7-12.3zm-225.3.3c.6.7 1.3 2.2 1.6 3.3s1.5 4.5 2.7 7.5c2.4 6 16.6 43.9 18 48 .5 1.4 1.8 5 3 8 3.3 8.7 4.2 11.1 13.4 35.5 7.2 18.9 8.5 23.1 7.3 24-.8.6-5.6.8-12.1.5l-10.7-.5-4.3-12.5c-3.4-9.8-4.8-12.8-6.7-13.7-2.9-1.5-39.4-1.8-43.2-.4-2.6 1-3.9 3.8-8.7 18.6-1.3 3.8-2.6 7.3-2.9 7.7-.9 1-22.1 1.2-23.1.2-.7-.7 9.3-28.9 19.2-53.9 1.1-2.8 2.3-6.1 2.8-7.5 1.2-3.6 12.9-35.1 13.9-37.5.5-1.1 1.6-4 2.6-6.5.9-2.5 2.3-6 3.1-7.8s1.4-3.6 1.4-4.1.9-2.9 2-5.5l2.1-4.6h8.8c5.9 0 9.2.4 9.8 1.2zm115.3-.1c9.7.9 12.4 1.5 17.3 4.2 15.8 8.4 22.5 29.9 14.7 47.4-2.5 5.7-10.8 14.3-16.5 17.2-2.5 1.2-4.5 2.9-4.5 3.8s1.4 4.6 3.1 8.2c4.8 10.3 11 23.8 16 34.9 1.6 3.5 2.9 7.5 2.9 8.8 0 2.4 0 2.4-11.5 2.4-13 0-12.5.3-16.5-10-1.2-3-3.2-7.7-4.4-10.5-1.3-2.7-3.3-7.5-4.6-10.5-5.1-12.5-8.3-19.4-9.5-20.2-.9-.7-21.2-1.2-21.7-.6-.1.2-.5 11.8-.8 25.8l-.5 25.5-9.9.3c-6.4.2-10.3-.1-11.2-.9-1.2-1-1.4-11.2-1.4-62.8 0-46.7.3-62 1.2-62.9 1.6-1.6 41.6-1.6 57.8-.1zm240.8 9.1c.2 7.9.1 8.8-1.8 9.8-1.2.7-7.7 1-16.6.9-8 0-14.8.2-15.2.6s-.9 24.4-1.2 53.3l-.5 52.7h-22l-.5-53-.5-53-16-.5c-8.8-.3-16.6-.9-17.2-1.3-1.4-.9-1.9-16.8-.6-18 .3-.4 21.2-.6 46.2-.5l45.6.3zm39 52.3c.1 33.5 0 62-.3 63.3-.5 2.2-.9 2.3-10.8 2l-10.2-.3-.3-62c-.1-34.1 0-62.6.3-63.3.3-.9 3.1-1.2 10.7-1l10.3.3zm-613 96.5c.3 3.1-.3 4.1-4.5 8.1-8.3 7.9-11.8 8.5-7.3 1.4 1.1-1.7 2.9-4.8 4.1-7 3-5.6 4-6.6 5.8-6.3 1 .2 1.7 1.6 1.9 3.8zm466 7.2c13.5 4.3 24.6 15.1 28.9 28.1 2.5 7.6 3.1 52.5.8 63.8-3.4 17.1-12.4 27.2-29.5 33.2-4.3 1.5-8.2 2-18 1.9-11.9 0-13-.1-20.3-3.2-8.1-3.3-17.3-10.6-20.1-15.8-6.8-12.6-8.1-20.7-8-48.7 0-22 .6-26 5.3-36.8 2.3-5.3 10.5-14.6 15.8-17.8 12.2-7.5 30.3-9.4 45.1-4.7zm-211.6-1c1.4 1.1 12.1 39.8 15.8 56.8.7 3.4 1.4 6.2 4.7 18.3.9 3.2 2 6 2.4 6.3.9.5 3.2-6.6 8.9-26.6 2.3-8 4.7-16.5 5.5-19 2.4-8.4 4.5-15.5 6.1-20.5.8-2.8 1.9-6.7 2.3-8.8 1.4-6.5 3.3-7.7 12.2-7.7h7.9l2 4c1.1 2.1 2 4.9 2 6 0 1.2.5 3.1 1.2 4.3.6 1.2 1.5 3.8 1.9 5.7s1.5 5.9 2.4 8.7c2.3 7.7 3.9 13 9.1 31.3 4.1 14.7 6.7 22 7.8 22 .4 0 3.8-11.2 5.9-19.5.9-3.3 2.3-8.9 3.2-12.5s2-7.9 2.5-9.5c.5-1.7 2.8-10.7 5-20 2.3-9.4 4.9-17.8 5.8-18.8 1.4-1.5 3.1-1.7 12.6-1.5l11.1.3-.1 3.5c0 1.9-2.4 11.8-5.3 22s-5.6 20.1-6.1 22c-.4 1.9-1.2 4.8-1.8 6.5-.5 1.6-1.8 5.9-2.7 9.5-1 3.6-2.3 8.5-3 11-3.6 12.6-4.6 16.4-7.5 27.5-5 18.7-7 24.9-8.3 25.7-2 1.3-18.1.9-19.9-.5-.9-.6-2.3-3.9-3.3-7.2-1.9-6.5-3-10.1-7.5-24.5-4.6-14.6-5.6-17.7-9-29-1.7-5.8-3.5-11.6-3.9-13-.9-3.1-4.4-3.4-4.9-.5-.4 2.5-4.7 16.7-12.2 40.5-4.6 14.6-5.6 18-7.6 25-2.6 9.6-3.2 10-13.1 10-4.6 0-9.2-.4-10.2-.9-1.7-.9-2.6-3.6-7.1-20.1-3.1-11.3-4-14.6-8.6-31-.8-3-2.2-8-3-11-.9-3-2.2-7.8-3-10.5-8.2-28.3-14.2-53-13.3-54.2 1.5-1.8 20.8-1.8 23.1-.1zm281.5 0c.4.7 1 24.9 1.3 53.8l.5 52.5 21.5.5 21.5.5.3 7.7c.5 12.8 3.2 11.8-33.1 11.8-23 0-31.6-.3-32.5-1.2s-1.2-16.3-1.2-63c0-57.7.1-61.8 1.8-62.7 2.5-1.5 18.9-1.4 19.9.1zm132.8 9.3v10l-28 .5-28 .5v32l22.8.5c18.8.4 22.9.8 23.7 2 .5.8 1 4.6 1 8.5 0 3.8-.5 7.7-1 8.5-.8 1.2-4.9 1.6-23.7 2l-22.8.5-.3 25.4c-.1 16.7-.6 25.9-1.3 26.8-1.2 1.4-16.1 1.9-19.3.7-1.4-.6-1.6-7.1-1.6-63.9 0-49.7.3-63.4 1.3-63.8.6-.3 18.3-.5 39.2-.4l38 .2z"/><path d="m382.4 61.1c-.4.6-1.9 5.3-3.5 10.3-1.5 5-3.2 10.4-3.8 12.1-6.1 17.4-7.2 21.8-5.9 22.6 1.5 1 25.1 1.2 28.6.2 1.8-.4 2.2-1 1.7-2.7-.3-1.1-1-3.5-1.5-5.1-.8-3-2.1-6.8-4.6-13.5-.7-1.9-2.7-8.3-4.6-14.3-3.1-10-4.7-12.4-6.4-9.6zm91.9-13c-1.8 1.8-1.8 31-.1 32.7.8.8 5.6 1.2 15 1.2 11.5 0 14.6-.3 19-2.1 6.6-2.6 8.6-4.3 10.9-9.4 3.5-7.6 1.4-16.2-4.8-20.5-3.5-2.4-4.4-2.5-21.2-2.8-13.2-.3-17.9 0-18.8.9zm140 164.7c-5.1 2.1-9.8 6.4-12.6 11.7-2.1 3.8-2.2 5.3-2.2 30 0 23.4.2 26.3 1.9 29.5 4.8 9.2 12.8 14 23.1 14 7.7 0 13.6-2.5 18.7-7.7 5.9-6.1 6.8-11.1 6.8-36.4 0-19.4-.2-22.4-2-27.2-4.8-12.9-20.3-19.3-33.7-13.9zm230.7-164.1c-5.9 2.5-10.1 6.4-12.4 11.2-1.9 4.2-2.1 6.7-2.4 27.3-.5 31 .8 35.8 11.1 42.9 4.5 3.1 5.4 3.3 13 3.3 7.1-.1 8.8-.5 12.4-2.7 2.3-1.5 5.5-4.6 7.1-7 5-7.1 4.8-7.1 14.2-3.2 13.3 5.5 12 8.8 12-30.5 0-20-.4-34-.9-34s-3.1.9-5.8 2.1c-6.1 2.6-12.5 4.9-13.9 4.9-.6 0-2.8-2.5-4.8-5.5-4.9-7-11.7-10.5-20.3-10.4-3.2 0-7.4.7-9.3 1.6z"/></svg>