<?xml version="1.0" encoding="utf-8"?>
<svg xmlns="http://www.w3.org/2000/svg" xmlns:xlink="http://www.w3.org/1999/xlink" version="1.1" id="Layer_1" x="0px" y="0px" viewBox="0 0 50 50" style="enable-background:new 0 0 50 50;">
<style type="text/css">
	.st0{fill:#10395E;}
	.st1{fill:#FF5500;}
	.st2{fill:#FFFFFF;}
</style>
<g>
	<g>
		<g>
			<g>
				<path class="st0" d="M112.4,46.3H69.6c-1.8,0-3.2-1.4-3.2-3.2V6.9c0-1.8,1.4-3.2,3.2-3.2h42.8c1.8,0,3.2,1.4,3.2,3.2v36.3      C115.6,44.9,114.2,46.3,112.4,46.3z M69.6,5.9c-0.5,0-0.9,0.4-0.9,0.9v36.3c0,0.5,0.4,0.9,0.9,0.9h42.8c0.5,0,0.9-0.4,0.9-0.9      V6.9c0-0.5-0.4-0.9-0.9-0.9L69.6,5.9L69.6,5.9z"/>
			</g>
		</g>
		<g>
			<path class="st1" d="M91,9.2v1.5c0,0.1-0.1,0.2-0.2,0.2h-6.3c-0.2,0-0.2,0.2-0.1,0.3l6.3,3.1c0.1,0.1,0.2,0,0.2-0.1v-1.5     c0-0.1,0.1-0.2,0.2-0.2h6.3c0.2,0,0.2-0.2,0.1-0.3L91.2,9C91.1,9,91,9,91,9.2z"/>
		</g>
		<path class="st0" d="M66.4,17.1v21.9c0,0.7,0.6,1.2,1.2,1.2c0.4,0,0.7-0.2,0.9-0.5C73,33.1,81.3,28.5,91,28.5    c9.7,0,18.1,4.6,22.6,11.3c0.2,0.4,0.6,0.5,0.9,0.5c0.6,0,1.2-0.5,1.2-1.2v-22L66.4,17.1z M104.4,20.2v8.2c-2.2-1-4.5-1.8-6.9-2.3    v-6L104.4,20.2z M84.5,20.2v5.9c-2.4,0.5-4.7,1.3-6.9,2.2v-8.2L84.5,20.2z M69.4,33.9V20.2h5.1V30C72.7,31.1,71,32.4,69.4,33.9z     M87.6,25.7v-5.5h6.9v5.5c-1.2-0.1-2.3-0.2-3.5-0.2C89.8,25.5,88.7,25.6,87.6,25.7z M112.6,34c-1.5-1.5-3.3-2.8-5.2-3.9v-9.8h5.2    V34z"/>
	</g>
</g>
<g>
	<g>
		<polygon class="st0" points="153.4,36.2 148.9,30.8 148.9,17.8 153.5,13.2 154.5,14.2 150.3,18.4 150.3,30.3 154.5,35.2"/>
	</g>
	<g>
		<polygon class="st0" points="157.3,43 156.3,42 160.3,38.6 160.3,33.7 156.3,30 157.3,29 161.7,33.1 161.7,39.2"/>
	</g>
	<g>
		<polygon class="st1" points="154.9,22.8 154,21.7 159.2,17.1 159.2,8.8 160.6,8.8 160.6,17.7"/>
	</g>
	<g>
		<g>
			<g>
				<g>
					<path class="st0" d="M161.9,49l-9.6-0.2l-8.8-11.1V14.4L156.2,1h5.8l4.1,3.6v40.8L161.9,49z M153.4,46.7l7.8,0.1l2.8-2.4V5.6       l-2.8-2.4h-4.1l-11.3,12.1V37L153.4,46.7z"/>
				</g>
			</g>
		</g>
		<g>
			<g>
				<g>
					<path class="st0" d="M168.1,49l-4.1-3.6V4.6L168,1h5.8l12.5,13.4v23.3l-8.8,11.1L168.1,49z M166,44.4l2.8,2.4l7.8-0.1l7.7-9.7       V15.2L173,3.1h-4.1l-2.8,2.4L166,44.4L166,44.4z"/>
				</g>
			</g>
		</g>
	</g>
	<g>
		<polygon class="st0" points="176.6,36.2 175.5,35.2 179.7,30.3 179.7,18.4 175.5,14.2 176.5,13.2 181.1,17.8 181.1,30.8"/>
	</g>
	<g>
		<polygon class="st1" points="172.7,43 168.3,39.2 168.3,33.1 172.7,29 173.7,30 169.7,33.7 169.7,38.6 173.7,42"/>
	</g>
	<g>
		<polygon class="st0" points="175.1,22.8 169.4,17.7 169.4,8.8 170.8,8.8 170.8,17.1 176,21.7"/>
	</g>
	<g>
		<circle class="st0" cx="154.1" cy="35.8" r="2"/>
	</g>
	<g>
		<circle class="st1" cx="154.5" cy="22.3" r="2"/>
	</g>
	<g>
		<circle class="st0" cx="154.1" cy="13.7" r="2"/>
	</g>
	<g>
		<circle class="st1" cx="159.8" cy="8.7" r="2"/>
	</g>
	<g>
		<circle class="st0" cx="156.8" cy="29.5" r="2"/>
	</g>
	<g>
		<circle class="st0" cx="156.8" cy="42.5" r="2"/>
	</g>
	<g>
		<circle class="st0" cx="175.9" cy="35.8" r="2"/>
	</g>
	<g>
		<circle class="st0" cx="175.5" cy="22.3" r="2"/>
	</g>
	<g>
		<circle class="st0" cx="175.9" cy="13.7" r="2"/>
	</g>
	<g>
		<circle class="st0" cx="170.2" cy="8.7" r="2"/>
	</g>
	<g>
		<circle class="st1" cx="173.2" cy="29.5" r="2"/>
	</g>
	<g>
		<circle class="st1" cx="173.2" cy="42.5" r="2"/>
	</g>
</g>
<g>
	<g>
		<path class="st0" d="M199.3,22.4v2.8h-3v-2.8c0-0.4,0.3-0.7,0.7-0.7h1.6C199,21.7,199.3,22,199.3,22.4z"/>
	</g>
	<g>
		<path class="st2" d="M216.7,31.5c0,1.3-1,2.3-2.3,2.3c-1.3,0-2.3-1-2.3-2.3s1-2.3,2.3-2.3C215.7,29.1,216.7,30.2,216.7,31.5z"/>
	</g>
	<g>
		<path class="st2" d="M216.7,25.2c0,1.3-1,2.3-2.3,2.3c-1.3,0-2.3-1-2.3-2.3c0-1.3,1-2.3,2.3-2.3C215.7,22.8,216.7,23.9,216.7,25.2    z"/>
	</g>
	<g>
		<path class="st2" d="M216.7,18.9c0,1.3-1,2.3-2.3,2.3c-1.3,0-2.3-1-2.3-2.3c0-1.3,1-2.3,2.3-2.3C215.7,16.6,216.7,17.6,216.7,18.9    z"/>
	</g>
	<g>
		<path class="st2" d="M222.9,29.9c0.4,0.4,0.6,1,0.6,1.6s-0.2,1.2-0.6,1.6c-0.4,0.5-1,0.7-1.7,0.7c-0.1,0-0.2,0-0.3,0    c-1.1-0.1-2-1.1-2-2.3c0-1.2,0.9-2.2,2-2.3c0.1,0,0.2,0,0.3,0C221.9,29.1,222.5,29.4,222.9,29.9z"/>
	</g>
	<g>
		<path class="st2" d="M222.9,23.6c0.4,0.4,0.6,1,0.6,1.6c0,0.6-0.2,1.2-0.6,1.6c-0.4,0.5-1,0.7-1.7,0.7c-0.1,0-0.2,0-0.3,0    c-1.1-0.2-2-1.1-2-2.3c0-1.2,0.9-2.1,2-2.3c0.1,0,0.2,0,0.3,0C221.9,22.8,222.5,23.1,222.9,23.6z"/>
	</g>
	<g>
		<path class="st2" d="M222.9,17.3c0.4,0.4,0.6,1,0.6,1.6c0,0.6-0.2,1.2-0.6,1.6c-0.4,0.5-1,0.7-1.7,0.7c-0.1,0-0.2,0-0.3,0    c-1.1-0.1-2-1.1-2-2.3s0.9-2.2,2-2.3c0.1,0,0.2,0,0.3,0C221.9,16.6,222.5,16.8,222.9,17.3z"/>
	</g>
	<g>
		<circle class="st2" cx="228.1" cy="31.5" r="2.3"/>
	</g>
	<g>
		<circle class="st2" cx="228.1" cy="25.2" r="2.3"/>
	</g>
	<g>
		<circle class="st2" cx="228.1" cy="18.9" r="2.3"/>
	</g>
	<path class="st0" d="M221.2,7.1c-5.1,0-9.7,2.1-12.9,5.5v0h-5c-6.9,0-12.4,5.6-12.4,12.4s5.6,12.4,12.4,12.4h5v0   c3.3,3.4,7.9,5.5,12.9,5.5c9.9,0,17.9-8,17.9-17.9S231.1,7.1,221.2,7.1z M200.6,27.9c0,1.1-0.9,2-2,2h-1.6c-1.1,0-2-0.9-2-2v-5.5   c0-1.1,0.9-2,2-2h1.6c1.1,0,2,0.9,2,2V27.9z M221.2,41.5c-5.2,0-9.9-2.5-12.9-6.3c-2.2-2.8-3.6-6.4-3.6-10.2   c0-3.9,1.3-7.4,3.6-10.2c3-3.8,7.7-6.3,12.9-6.3c9.1,0,16.5,7.4,16.5,16.5S230.3,41.5,221.2,41.5z"/>
	<g>
		<g>
			<path class="st1" d="M216.7,31.5c0,1.3-1,2.3-2.3,2.3c-1.3,0-2.3-1-2.3-2.3s1-2.3,2.3-2.3C215.7,29.1,216.7,30.2,216.7,31.5z"/>
		</g>
		<g>
			<path class="st1" d="M216.7,25.2c0,1.3-1,2.3-2.3,2.3c-1.3,0-2.3-1-2.3-2.3c0-1.3,1-2.3,2.3-2.3     C215.7,22.8,216.7,23.9,216.7,25.2z"/>
		</g>
		<g>
			<path class="st1" d="M216.7,18.9c0,1.3-1,2.3-2.3,2.3c-1.3,0-2.3-1-2.3-2.3c0-1.3,1-2.3,2.3-2.3     C215.7,16.6,216.7,17.6,216.7,18.9z"/>
		</g>
		<g>
			<path class="st1" d="M223.5,31.5c0,0.6-0.2,1.2-0.6,1.6c-0.4,0.5-1,0.7-1.7,0.7c-0.1,0-0.2,0-0.3,0c-1.1-0.1-2-1.1-2-2.3     c0-1.2,0.9-2.2,2-2.3c0.1,0,0.2,0,0.3,0c0.7,0,1.3,0.3,1.7,0.7C223.3,30.3,223.5,30.8,223.5,31.5z"/>
		</g>
		<g>
			<path class="st1" d="M223.5,25.2c0,0.6-0.2,1.2-0.6,1.6c-0.4,0.5-1,0.7-1.7,0.7c-0.1,0-0.2,0-0.3,0c-1.1-0.2-2-1.1-2-2.3     c0-1.2,0.9-2.1,2-2.3c0.1,0,0.2,0,0.3,0c0.7,0,1.3,0.3,1.7,0.7C223.3,24,223.5,24.5,223.5,25.2z"/>
		</g>
		<g>
			<path class="st1" d="M223.5,18.9c0,0.6-0.2,1.2-0.6,1.6c-0.4,0.5-1,0.7-1.7,0.7c-0.1,0-0.2,0-0.3,0c-1.1-0.1-2-1.1-2-2.3     s0.9-2.2,2-2.3c0.1,0,0.2,0,0.3,0c0.7,0,1.3,0.3,1.7,0.7C223.3,17.7,223.5,18.3,223.5,18.9z"/>
		</g>
		<g>
			<circle class="st1" cx="228.1" cy="31.5" r="2.3"/>
		</g>
		<g>
			<circle class="st1" cx="228.1" cy="25.2" r="2.3"/>
		</g>
		<g>
			<circle class="st1" cx="228.1" cy="18.9" r="2.3"/>
		</g>
	</g>
</g>
<g>
	<path class="st0" d="M276.8,24.7v-0.9c0-0.4-0.1-0.8-0.3-1.1c-0.3-0.8-1-1.4-1.8-1.7v-1c0-2.4-0.9-4.4-2.6-6.1   c-1.7-1.7-3.7-2.6-6.1-2.6c-2.4,0-4.4,0.9-6.1,2.6c-1.7,1.7-2.6,3.7-2.6,6.1v1c-1.2,0.3-2.1,1.3-2.1,2.6v0.2l0,0c0,0.1,0,0.2,0,0.3   v0.7l3.6,3.5c0.5,0.5,0.7,1.1,0.8,1.8c0,0.7-0.2,1.3-0.7,1.8l-3.7,3.7v0.8c0,1.3,1,2.3,2.3,2.3H274c0,0,0,0,0.1,0c0,0,0,0,0,0h0.3   c1.3,0,2.4-1.1,2.4-2.4v-0.8l-3.6-3.5c-1-1-1-2.6,0-3.5L276.8,24.7L276.8,24.7z M267.5,31.5v2.2c0,0.8-0.7,1.5-1.5,1.5   s-1.5-0.7-1.5-1.5v-2.2c-0.7-0.5-1.1-1.2-1.1-2.1c0-1.4,1.1-2.5,2.5-2.5c1.4,0,2.5,1.1,2.5,2.5C268.5,30.3,268.1,31,267.5,31.5   L267.5,31.5z M271,20.9h-9.9v-0.9c0-1.4,0.5-2.5,1.5-3.5c1-1,2.1-1.5,3.5-1.5c1.4,0,2.5,0.5,3.5,1.5s1.5,2.1,1.5,3.5L271,20.9   L271,20.9z"/>
	<path class="st1" d="M289.8,29.6l-7.3-7.2c-0.3-0.3-0.7-0.3-0.9,0l-3.5,3.5l0,0l-1.3,1.4l-2.3,2.4c-0.3,0.3-0.3,0.7,0,0.9l2.3,2.3   l1.3,1.3l0,0l3.6,3.6c0.3,0.3,0.7,0.3,0.9,0l7.2-7.3C290.1,30.3,290.1,29.9,289.8,29.6L289.8,29.6z M285.6,32.2l-1.5,1.5l-2.1-2.1   l-2,2.1l-1.5-1.5l2.1-2.1l-2.1-2l1.5-1.5l2,2.1l2.1-2.1l1.5,1.5l-2.1,2.1L285.6,32.2z"/>
	<path class="st1" d="M257.6,29.6l-2.3-2.3l-1.3-1.3l0,0l-3.6-3.6c-0.3-0.3-0.7-0.3-0.9,0l-7.2,7.3c-0.3,0.3-0.3,0.7,0,0.9l7.3,7.2   c0.3,0.3,0.7,0.3,0.9,0l3.5-3.5l0,0l1.3-1.4l2.3-2.4C257.9,30.3,257.8,29.9,257.6,29.6L257.6,29.6z M253.1,30.3l-1.5,1.6l-1.4,1.5   c-0.1,0.1-0.3,0.1-0.4,0l-3-3c-0.1-0.1-0.1-0.3,0-0.4l3-3c0.1-0.1,0.3-0.1,0.4,0l1.5,1.5l1.5,1.5C253.2,30,253.2,30.2,253.1,30.3   L253.1,30.3L253.1,30.3z"/>
</g>
<g>
	<path class="st0" d="M331.7,13.2c-1.8-1.8-3.9-2.7-6.4-2.7c-2.5,0-4.6,0.9-6.4,2.7c-1.8,1.8-2.7,3.9-2.7,6.4v3.9h3.9v-3.9   c0-1.4,0.5-2.7,1.5-3.7c1-1,2.3-1.5,3.7-1.5c1.4,0,2.7,0.5,3.7,1.5s1.5,2.3,1.5,3.7v3.9h3.9v-3.9C334.4,17.2,333.5,15,331.7,13.2   L331.7,13.2z"/>
	<path class="st0" d="M332.5,30.6c0-3,1.5-5.8,3.9-7.4c-0.1-1.3-1.1-2.3-2.3-2.5v0h-14.4v0h-3.4v0.1c-1.3,0.2-2.3,1.4-2.3,2.7v0.2   c1,0.7,1.8,1.7,2.4,2.8c0.7,1.3,1.1,2.8,1.1,4.3c0,1.2-0.2,2.4-0.7,3.5c-0.6,1.3-1.4,2.5-2.6,3.4c0,0,0,0,0,0.1l0,0   c0.4,1,1.4,1.6,2.5,1.6h16.9c1.1,0,2.1-0.6,2.5-1.6C333.9,36.2,332.5,33.5,332.5,30.6L332.5,30.6z M326.7,31.8v2.4   c0,0.9-0.7,1.5-1.5,1.5s-1.5-0.7-1.5-1.5v-2.4c-0.7-0.5-1.1-1.3-1.1-2.2c0-1.5,1.2-2.7,2.7-2.7s2.7,1.2,2.7,2.7   C327.9,30.6,327.4,31.4,326.7,31.8L326.7,31.8z"/>
	<path class="st1" d="M341.6,23.5c-1.2,0-2.3,0.3-3.3,0.8c-0.7,0.3-1.3,0.8-1.8,1.3c-1.3,1.3-2.1,3.1-2.1,5.1s0.8,3.8,2.1,5.1   c0.5,0.5,1.1,0.9,1.7,1.2c1,0.5,2.2,0.8,3.4,0.8c4,0,7.2-3.2,7.2-7.2S345.5,23.5,341.6,23.5L341.6,23.5z M345,32.6l-1.4,1.4l-2-2   l-2,2l-1.4-1.4l0.1-0.1l1.9-1.9l-1.9-1.9l-0.1-0.1l1.4-1.4l2,2l2-2l1.4,1.4l-2,2L345,32.6L345,32.6z"/>
	<path class="st1" d="M314.7,27.4c-0.2-0.4-0.5-0.8-0.8-1.1c-0.6-0.7-1.3-1.3-2.1-1.8c-1-0.5-2.2-0.8-3.4-0.8c-4,0-7.2,3.2-7.2,7.2   s3.2,7.2,7.2,7.2c1.3,0,2.4-0.3,3.5-0.9c0.8-0.4,1.5-1,2.1-1.7c0.5-0.5,0.8-1.1,1.1-1.8c0.4-0.9,0.6-1.8,0.6-2.8   C315.6,29.6,315.3,28.4,314.7,27.4L314.7,27.4z M308.4,33.2c-1.3,0-2.4-1.1-2.4-2.4s1.1-2.4,2.4-2.4s2.4,1.1,2.4,2.4   C310.9,32.1,309.8,33.2,308.4,33.2z"/>
</g>
<g>
	<g>
		<path class="st0" d="M97.8,105.3c-0.4,0-0.7-0.3-0.7-0.7s0.3-0.7,0.7-0.7c4.7,0,9.1-1.5,12.5-4.3c3.3-2.7,5.3-6.3,5.5-10.2    c0-0.4,0.3-0.7,0.8-0.7c0.4,0,0.7,0.4,0.7,0.8c-0.2,4.3-2.4,8.3-6,11.3C107.6,103.7,102.8,105.3,97.8,105.3z"/>
	</g>
	<g>
		<path class="st0" d="M116.9,87.8H114v-2.6c0-8.8-7.1-15.9-15.9-15.9s-15.9,7.1-15.9,15.9v2.4h-2.9v-2.4c0-10.4,8.5-18.9,18.9-18.9    s18.9,8.5,18.9,18.9V87.8z"/>
	</g>
	<g>
		<g>
			<path class="st0" d="M99.4,113.7h-2.8c-3.5,0-6.7-1.7-8.8-4.4c-3.6-4.9-8-11.6-8-15.8h1.5c0,2.9,2.7,8.3,7.7,15     c1.8,2.4,4.6,3.8,7.6,3.8h2.8c3,0,5.8-1.4,7.6-3.8c5-6.7,7.7-12,7.7-15h1.5c0,4.2-4.4,10.9-8,15.8     C106.1,112.1,102.9,113.7,99.4,113.7z"/>
		</g>
	</g>
	<g>
		<path class="st0" d="M82,80.1v18.8c0,0.6-0.6,1.1-1.2,1C77,99.3,74,96,74,91.9v-5c0-4,3-7.3,6.8-7.9C81.4,78.9,82,79.4,82,80.1z"/>
	</g>
	<g>
		<path class="st0" d="M114,98.4V79.7c0-0.6,0.6-1.1,1.2-1c3.9,0.6,6.8,3.9,6.8,7.9v5c0,4-3,7.3-6.8,7.9    C114.6,99.6,114,99.1,114,98.4z"/>
	</g>
	<g>
		<path class="st1" d="M99.5,106.5h-3c-1.1,0-2-0.9-2-2l0,0c0-1.1,0.9-2,2-2h3c1.1,0,2,0.9,2,2l0,0    C101.5,105.6,100.6,106.5,99.5,106.5z"/>
	</g>
</g>
<g>
	<g>
		<g>
			<g>
				<path class="st0" d="M41.1,1.2H8.9c-2.5,0-4.5,2-4.5,4.5v38.6c0,2.5,2,4.5,4.5,4.5h32.2c2.5,0,4.5-2,4.5-4.5V5.7      C45.6,3.2,43.6,1.2,41.1,1.2z M43.6,44.2c0,1.4-1.1,2.5-2.5,2.5H8.9c-1.4,0-2.5-1.1-2.5-2.5V5.8c0-1.4,1.1-2.5,2.5-2.5h32.2      c1.4,0,2.5,1.1,2.5,2.5L43.6,44.2L43.6,44.2z"/>
			</g>
		</g>
		<g>
			<path class="st1" d="M23.7,24.8c0,1.5-0.7,2.7-1.6,2.7c-0.9,0-1.6-1.2-1.6-2.7s0.7-2.7,1.6-2.7C23,22.1,23.7,23.3,23.7,24.8z"/>
			<path class="st0" d="M42.2,5.8v38.5c0,0.6-0.5,1.1-1.1,1.1H10.7l13.6-4.1c0.6-0.2,1.1-0.8,1.1-1.4V10.4c0-0.7-0.4-1.2-1.1-1.4     L10.2,4.7h30.9C41.7,4.7,42.2,5.1,42.2,5.8z"/>
		</g>
	</g>
</g>
</svg>