<svg version="1.1" id="Layer_1" xmlns="http://www.w3.org/2000/svg" xmlns:xlink="http://www.w3.org/1999/xlink" x="0px" y="0px"
	 width="100%" viewBox="0 0 2026 1061" enable-background="new 0 0 2026 1061" xml:space="preserve">
<path fill="#FFFFFF" opacity="1.000000" stroke="none" 
	d="
M1108.018311,1061.594971 
	C1015.645752,1062.000000 923.291565,1062.000000 830.468628,1062.000000 
	C830.311523,1059.269409 832.607544,1059.853516 834.213074,1059.675903 
	C860.658508,1056.751099 883.942566,1046.551880 904.387329,1029.595215 
	C908.497986,1026.185913 912.189331,1022.345520 916.281616,1018.916199 
	C922.179749,1013.973328 922.893372,1007.057678 918.462280,1002.206177 
	C913.954407,997.270569 907.369019,997.438782 901.677673,1002.800781 
	C886.044800,1017.529358 868.574341,1029.215454 847.555725,1034.669678 
	C811.331848,1044.069824 777.724487,1039.012573 748.205017,1014.991150 
	C728.741272,999.152466 717.452148,978.086914 711.712891,953.888550 
	C710.559265,949.024414 709.698486,944.093750 708.976501,939.147522 
	C707.966736,932.229858 709.247925,930.682312 716.140625,930.666016 
	C737.803406,930.614807 759.466370,930.647522 781.129272,930.646851 
	C825.288208,930.645447 869.447205,930.646484 913.606140,930.646179 
	C915.272522,930.646179 916.939636,930.677795 918.605103,930.629150 
	C927.023682,930.383362 931.734314,925.935364 931.578247,917.517273 
	C931.172668,895.649963 927.212402,874.446350 918.268555,854.387085 
	C906.185364,827.287170 887.814758,805.766846 860.446716,793.379639 
	C826.551270,778.037903 792.098877,777.683228 758.471985,793.936523 
	C715.738525,814.591431 693.332764,850.464966 685.467407,896.216675 
	C681.131409,921.438477 682.787903,946.468262 691.253967,970.659058 
	C708.597900,1020.217407 743.151062,1050.029297 794.997681,1059.464233 
	C796.756714,1059.784180 798.730469,1059.527954 800.018433,1061.594971 
	C535.209595,1062.000000 270.419128,1061.985596 5.628780,1062.125732 
	C1.317236,1062.127930 0.905684,1060.933350 0.906773,1057.130249 
	C1.007104,706.687012 1.008195,356.243805 0.896669,5.800634 
	C0.895413,1.854327 1.534621,0.880721 5.697915,0.882682 
	C281.152802,1.012421 556.607727,1.000000 832.531372,1.000000 
	C833.333130,3.109757 831.505066,3.851462 830.352844,4.864304 
	C812.611633,20.459673 795.130798,36.346912 777.488403,52.052822 
	C763.447327,64.552773 749.538452,77.205788 735.481079,89.687523 
	C718.188293,105.042099 701.067078,120.588272 683.717285,135.879578 
	C677.603271,141.268173 671.468079,146.651306 665.582336,152.294861 
	C661.194641,156.501938 661.259766,162.463028 665.867126,166.897781 
	C674.618652,175.321548 683.919128,183.147537 692.926636,191.294327 
	C704.151367,201.446487 715.484802,211.482407 726.775085,221.563934 
	C741.417114,234.638336 756.124146,247.640915 770.702576,260.785126 
	C784.665649,273.374603 798.754456,285.822876 812.733032,298.394623 
	C818.296814,303.398346 823.640991,308.658783 829.554077,313.276978 
	C833.191772,316.117981 836.927002,317.866333 841.466492,315.344757 
	C845.513489,313.096741 847.165344,308.942017 846.479919,303.282928 
	C843.820496,281.323761 840.985046,259.384857 838.665039,237.386078 
	C838.128723,232.300766 838.774475,231.895752 843.704956,232.337189 
	C850.160889,232.915192 856.586243,233.889893 863.478516,233.992615 
	C866.830139,234.662903 869.831299,234.603516 872.829956,234.603424 
	C921.134644,234.601883 969.439331,234.588348 1017.743958,234.637360 
	C1020.483826,234.640137 1024.296875,233.467728 1025.624268,236.160858 
	C1027.114136,239.183472 1023.718628,241.428879 1021.827698,243.639343 
	C997.798706,271.729095 973.825012,299.866180 949.815796,327.972809 
	C922.887024,359.497284 896.077026,391.123077 869.054077,422.567291 
	C864.171082,428.249207 859.185852,433.851654 854.599976,439.783386 
	C847.047607,449.552338 851.852112,461.498657 864.063965,463.360962 
	C866.048401,463.663605 868.051880,463.599548 870.049805,463.599640 
	C933.512146,463.602905 996.974548,463.596619 1060.436890,463.618225 
	C1063.618530,463.619324 1066.755371,463.364838 1070.283936,462.704956 
	C1082.306519,461.737457 1093.887573,460.463684 1105.414795,458.895020 
	C1114.621338,457.642120 1116.931885,454.156982 1115.598755,444.740784 
	C1113.334351,428.743805 1110.973145,412.759674 1108.601318,396.777618 
	C1108.270752,394.549591 1106.885376,391.577484 1109.186401,390.255310 
	C1111.738403,388.788879 1113.689331,391.488251 1115.508301,393.115601 
	C1137.472290,412.766907 1159.703247,432.116547 1181.736084,451.689056 
	C1202.275879,469.935089 1223.009033,487.963989 1243.357544,506.424591 
	C1246.599243,509.365387 1246.581299,511.099823 1243.229248,514.281006 
	C1232.717407,524.256836 1221.568848,533.520874 1210.756958,543.161804 
	C1194.973511,557.235840 1179.114014,571.223816 1163.221558,585.173706 
	C1146.953003,599.453857 1130.972534,614.060120 1114.519653,628.130676 
	C1113.508423,628.995483 1112.509033,629.887573 1111.328247,630.528564 
	C1109.572144,631.481873 1108.495483,630.938049 1108.045898,629.022644 
	C1107.693604,627.521790 1107.945190,626.043701 1108.177124,624.559509 
	C1110.594360,609.088379 1112.675537,593.568359 1114.925415,578.072876 
	C1116.693848,565.893799 1113.608154,562.366699 1101.100830,562.366455 
	C977.627991,562.363770 854.155151,562.365601 730.682312,562.359680 
	C728.351685,562.359619 726.014160,562.486084 723.692810,562.171753 
	C721.065796,561.815918 720.188904,560.525024 721.522766,558.056091 
	C722.080688,557.023438 722.767822,556.086975 723.496948,555.174988 
	C734.627686,541.250916 745.770569,527.336609 757.002319,513.493835 
	C757.843018,512.457764 758.697937,511.435455 759.391907,510.292816 
	C762.406555,505.329254 761.667053,500.117676 757.492310,496.871521 
	C753.324768,493.630951 748.591553,493.928772 744.470276,498.091614 
	C739.657837,502.952515 735.731812,508.582855 731.457031,513.906738 
	C718.103943,530.536865 704.806335,547.211670 691.462646,563.849304 
	C689.051697,566.855408 687.527161,570.029907 688.336487,573.960205 
	C689.191406,578.112000 692.186584,580.820618 696.645264,581.452698 
	C698.961731,581.780945 701.304382,581.631042 703.635620,581.631165 
	C830.940918,581.635681 958.246216,581.634583 1085.551514,581.636108 
	C1096.432861,581.636292 1096.560669,581.657654 1095.234009,592.419067 
	C1092.667358,613.240295 1090.480347,634.107117 1087.733887,654.905945 
	C1087.108032,659.645752 1088.298340,663.541992 1092.519775,666.074646 
	C1096.689331,668.576233 1100.629272,667.421753 1104.100220,664.618713 
	C1112.004150,658.235596 1119.476440,651.341248 1126.971924,644.495850 
	C1141.850098,630.908203 1157.114868,617.756470 1172.019653,604.202332 
	C1189.266113,588.518616 1206.768433,573.121277 1224.106934,557.540527 
	C1237.853027,545.187988 1251.551147,532.776062 1265.522217,520.677979 
	C1273.522827,513.750061 1274.027954,507.684479 1266.140747,500.692017 
	C1245.583740,482.466919 1225.180664,464.069824 1204.665283,445.798431 
	C1187.259155,430.295990 1169.913818,414.722107 1152.593262,399.121979 
	C1136.881348,384.970764 1121.030884,370.972015 1105.268555,356.875488 
	C1101.975830,353.930786 1098.119629,352.199066 1093.831299,354.471893 
	C1089.420898,356.809570 1087.626831,360.736511 1088.212036,365.764526 
	C1090.040894,381.475983 1091.940674,397.178650 1093.871826,412.877808 
	C1094.644287,419.157013 1095.340698,425.445343 1096.112549,431.725159 
	C1096.731445,436.759125 1095.561768,437.771210 1090.293457,437.462189 
	C1083.978027,437.091736 1077.686523,436.475983 1071.017578,435.498993 
	C1016.782776,435.316711 962.959045,435.441681 909.135315,435.398346 
	C907.135925,435.396729 905.130615,435.495239 903.138367,435.325745 
	C898.374512,434.920624 897.591248,433.212982 900.503662,429.289062 
	C902.188171,427.019440 904.034424,424.859863 905.897522,422.725616 
	C927.150513,398.380768 947.880005,373.588074 968.931763,349.071014 
	C997.473511,315.831085 1025.784058,282.393524 1054.320190,249.148712 
	C1058.877197,243.839783 1063.402100,238.502838 1067.908081,233.149582 
	C1072.512939,227.678833 1076.107422,221.980026 1072.571411,214.567505 
	C1069.060303,207.207443 1062.480103,206.338470 1055.272095,206.355774 
	C1016.612366,206.448624 977.952271,206.399750 939.292297,206.399704 
	C917.129456,206.399689 894.966675,206.407074 872.803833,206.390869 
	C869.795715,206.388672 866.805969,206.477249 863.440918,207.229004 
	C851.738586,208.234955 840.480408,209.446198 829.253479,210.844467 
	C820.944397,211.879333 817.780029,216.541275 818.925232,224.752457 
	C821.134766,240.595200 823.575195,256.404449 825.821228,272.241913 
	C825.914795,272.901642 826.071716,273.554504 826.122375,274.218353 
	C826.274353,276.210449 826.790344,278.711639 824.844055,279.716675 
	C822.773254,280.786011 821.261536,278.579956 819.806213,277.297943 
	C787.560913,248.891174 755.349792,220.445816 723.212280,191.916855 
	C713.373291,183.182678 703.641541,174.322235 693.573486,165.844238 
	C687.317871,160.576538 687.342712,158.577469 693.342773,153.321808 
	C727.547791,123.360558 761.573853,93.196884 795.584778,63.015896 
	C803.931885,55.608829 812.392273,48.329506 820.695435,40.871670 
	C822.026489,39.676121 823.454651,37.921108 825.426086,38.880615 
	C827.523743,39.901566 826.642700,42.145401 826.433777,43.844097 
	C824.521240,59.392181 821.969299,74.849640 819.722900,90.350784 
	C817.693726,104.352798 820.401733,107.578888 834.402161,107.579124 
	C957.235229,107.581200 1080.068359,107.568008 1202.901367,107.642960 
	C1206.383179,107.645088 1211.270142,105.863266 1212.961670,109.690445 
	C1214.453369,113.065269 1210.192261,115.709587 1208.078247,118.328659 
	C1197.925781,130.906998 1187.948242,143.625824 1177.731323,156.152237 
	C1175.731323,158.604309 1173.761108,161.096863 1173.536743,164.491150 
	C1173.271973,168.496765 1174.483398,171.709152 1178.146729,173.724747 
	C1181.718750,175.690109 1185.173950,175.482971 1188.482544,173.116379 
	C1190.961670,171.343018 1192.698120,168.863922 1194.564819,166.525101 
	C1210.054932,147.116272 1225.586182,127.740425 1241.098389,108.349220 
	C1244.447266,104.162971 1248.375244,100.064880 1245.549561,94.069565 
	C1242.736572,88.101585 1237.195190,88.398453 1231.755981,88.399559 
	C1104.422974,88.425377 977.089844,88.420265 849.756775,88.418922 
	C838.082092,88.418800 838.052856,88.313599 839.402466,76.520157 
	C841.637329,56.991390 843.902405,37.465443 846.407410,17.970606 
	C847.234985,11.530592 845.873413,6.166954 840.961121,1.428400 
	C1234.778564,1.000000 1628.557007,1.009161 2022.335571,0.878931 
	C2026.570435,0.877530 2027.099609,1.957660 2027.098511,5.834270 
	C2026.992310,356.285461 2026.991943,706.736633 2027.101685,1057.187866 
	C2027.102905,1061.110352 2026.501221,1062.120605 2022.313477,1062.118774 
	C1727.521362,1061.988281 1432.729370,1062.000000 1137.468628,1062.000000 
	C1137.322632,1059.269043 1139.599365,1059.886353 1141.216064,1059.702515 
	C1169.041138,1056.538330 1193.493530,1045.835205 1214.467041,1027.213501 
	C1217.953979,1024.117554 1221.647217,1021.251953 1224.751099,1017.746582 
	C1229.423462,1012.470093 1229.838745,1006.728333 1225.887451,1002.492859 
	C1221.260864,997.533508 1215.670898,997.247681 1209.856201,1001.910156 
	C1205.962402,1005.032349 1202.572021,1008.727173 1198.655029,1011.858948 
	C1178.976562,1027.592529 1156.876343,1036.711304 1131.523193,1038.549805 
	C1099.920288,1040.841553 1072.651123,1031.295898 1049.730835,1009.858887 
	C1035.575562,996.619751 1026.657227,979.833801 1020.995544,961.367432 
	C1018.549561,953.389465 1017.076782,945.181763 1016.107849,936.892822 
	C1015.553772,932.153015 1016.585327,930.960815 1021.438904,930.687988 
	C1023.268433,930.585083 1025.103760,930.647400 1026.936523,930.647339 
	C1091.917480,930.646301 1156.898438,930.647278 1221.879395,930.643066 
	C1224.044067,930.642883 1226.219604,930.773560 1228.369507,930.461975 
	C1234.323486,929.599060 1238.593384,925.286987 1238.567017,919.397583 
	C1238.364746,874.346497 1224.424927,835.127747 1188.450684,806.078491 
	C1168.619263,790.064575 1145.255981,782.795715 1119.805054,782.363159 
	C1083.784668,781.751038 1053.332642,794.765076 1028.733521,820.839233 
	C1008.469360,842.318481 996.872314,868.239563 992.548279,897.364075 
	C988.668518,923.496277 990.347717,949.359497 999.765625,974.089722 
	C1018.038147,1022.071167 1052.508057,1050.995483 1103.483643,1059.600464 
	C1105.099121,1059.873169 1106.865845,1059.663330 1108.018311,1061.594971 
z"/>
<path fill="#252223" opacity="1.000000" stroke="none" 
	d="
M863.223999,234.678635 
	C856.408508,234.446991 849.604431,233.932190 842.821045,233.219788 
	C840.146729,232.938934 838.962463,233.188614 839.378784,236.490707 
	C842.147766,258.453705 844.578003,280.459869 847.416138,302.413452 
	C848.167114,308.222595 847.606812,313.074707 842.185608,316.244537 
	C837.574341,318.940887 832.836609,317.849731 827.330933,312.927460 
	C779.911377,270.532501 732.502747,228.125229 685.091064,185.721390 
	C678.761353,180.060257 672.419067,174.413010 666.107788,168.731354 
	C659.607971,162.880020 659.547363,156.176926 665.992188,150.410858 
	C719.476746,102.559258 772.969238,54.716652 826.484497,6.899392 
	C828.582581,5.024675 830.934326,3.433873 833.083984,1.355391 
	C835.370544,1.000000 837.741150,1.000000 840.555847,1.000000 
	C847.594421,4.951338 848.697754,10.715213 847.719421,17.995213 
	C844.858093,39.287163 842.670837,60.669159 839.891907,81.973152 
	C839.305298,86.470192 840.638977,87.062057 844.699463,87.058731 
	C974.027405,86.952660 1103.355347,86.971077 1232.683350,86.970596 
	C1233.683350,86.970596 1234.686035,87.018394 1235.682739,86.960373 
	C1240.662964,86.670425 1244.580688,88.562469 1246.810547,93.030960 
	C1249.154541,97.728210 1247.895264,102.024933 1244.687500,106.002571 
	C1232.347290,121.304611 1220.067383,136.655228 1207.769897,151.991745 
	C1202.768188,158.229553 1197.806641,164.499924 1192.776611,170.714905 
	C1187.750244,176.925644 1180.964478,178.181686 1175.844482,173.925293 
	C1170.820190,169.748459 1170.605103,163.101303 1175.440552,157.048386 
	C1187.190796,142.339386 1198.997314,127.675133 1210.773926,112.987160 
	C1211.595459,111.962463 1212.358643,110.891090 1213.328247,109.603561 
	C1211.364014,108.359299 1209.357788,108.902466 1207.506226,108.901993 
	C1082.178101,108.869797 956.849915,108.870895 831.521790,108.873329 
	C820.380676,108.873550 816.481384,104.499229 818.069824,93.366104 
	C820.654663,75.250084 823.384644,57.154770 826.240356,37.781776 
	C819.294983,43.881886 813.202820,49.204266 807.141174,54.561169 
	C768.810425,88.435585 730.526611,122.363350 692.088745,156.115799 
	C688.798645,159.004868 688.993591,160.206146 692.156433,162.987411 
	C735.073914,200.726852 777.859802,238.616043 820.678955,276.467346 
	C822.014648,277.648102 823.359192,278.818970 825.788025,280.948914 
	C824.279175,270.386719 822.982361,261.125549 821.627258,251.872955 
	C820.203491,242.150665 818.678772,232.443024 817.284424,222.716614 
	C816.325867,216.031097 820.194580,210.730103 826.844604,209.935928 
	C838.585144,208.533813 850.353271,207.362305 862.547729,206.124634 
	C863.198730,207.570602 862.094299,208.172272 861.257019,208.927063 
	C852.764587,216.582825 853.037292,225.440262 862.002930,232.800415 
	C862.522156,233.226700 862.961365,233.703445 863.223999,234.678635 
z"/>
<path fill="#252122" opacity="1.000000" stroke="none" 
	d="
M800.468628,1062.000000 
	C799.373901,1060.575439 798.016113,1061.056641 796.955566,1060.895264 
	C738.842590,1052.056396 695.400330,1010.233093 685.134644,952.335632 
	C677.521057,909.395691 684.221497,869.041565 709.819336,832.896118 
	C749.087402,777.447693 827.016907,764.085388 880.187439,803.778687 
	C908.635254,825.015686 923.426086,854.543030 929.941284,888.775635 
	C931.627869,897.637146 932.412048,906.600220 932.701843,915.587952 
	C933.077393,927.234863 928.251404,932.041382 916.629761,932.042603 
	C849.647949,932.049805 782.666077,932.034058 715.684265,932.067688 
	C709.100586,932.071045 709.171143,930.672485 710.162842,938.148804 
	C716.018188,982.291443 736.814575,1016.190308 780.055847,1031.535278 
	C819.425598,1045.506470 856.189331,1037.284546 889.167847,1011.955505 
	C893.253235,1008.817749 897.007874,1005.239929 900.831726,1001.773315 
	C907.033813,996.150696 914.364746,995.921204 919.436157,1001.287354 
	C924.337830,1006.473816 923.779907,1012.999573 917.891174,1018.966431 
	C893.733337,1043.444702 864.966248,1058.387817 830.181763,1061.623291 
	C820.312439,1062.000000 810.624878,1062.000000 800.468628,1062.000000 
z"/>
<path fill="#252122" opacity="1.000000" stroke="none" 
	d="
M1108.468628,1062.000000 
	C1102.743774,1059.910522 1097.039795,1060.023560 1091.626465,1058.623291 
	C1046.138062,1046.855957 1014.199036,1019.090759 999.064331,974.889099 
	C980.291504,920.062012 987.126709,867.980164 1025.410522,822.948303 
	C1072.391724,767.686157 1157.997192,766.841064 1205.450562,820.287537 
	C1225.709595,843.105286 1235.647949,870.537537 1238.977051,900.545288 
	C1239.654907,906.655029 1239.886963,912.834656 1239.956055,918.986206 
	C1240.037598,926.260254 1234.897339,931.499023 1227.597534,932.010742 
	C1226.105103,932.115356 1224.599854,932.046204 1223.100586,932.046204 
	C1156.121582,932.047424 1089.142456,932.105591 1022.163818,931.924438 
	C1017.416382,931.911560 1016.810791,933.245605 1017.330872,937.488708 
	C1020.517578,963.484802 1029.439331,986.944275 1047.819214,1006.062439 
	C1078.299805,1037.767578 1125.291870,1046.744507 1167.291138,1029.311279 
	C1182.584595,1022.963196 1195.849365,1013.657837 1207.709229,1002.236572 
	C1210.684204,999.371521 1213.865112,997.020874 1218.226807,997.369263 
	C1223.258301,997.770996 1227.078125,1000.146606 1229.136719,1004.890137 
	C1231.361938,1010.017517 1229.713379,1014.414185 1226.066895,1018.107483 
	C1216.082764,1028.219727 1205.165527,1037.164062 1192.830322,1044.328613 
	C1175.670410,1054.295654 1157.055908,1059.422729 1137.214111,1061.640381 
	C1127.645752,1062.000000 1118.291504,1062.000000 1108.468628,1062.000000 
z"/>
<path fill="#252122" opacity="1.000000" stroke="none" 
	d="
M1070.954590,435.200806 
	C1077.732666,435.376801 1084.414429,435.547760 1090.981079,436.507172 
	C1094.876465,437.076324 1095.457031,436.123291 1095.003296,432.520355 
	C1092.361084,411.536224 1089.983643,390.518768 1087.356201,369.532623 
	C1086.561646,363.186005 1085.756226,356.930237 1092.714233,353.424866 
	C1099.348022,350.082855 1103.966064,354.008514 1108.628296,358.185730 
	C1161.608276,405.655090 1214.649414,453.056030 1267.670654,500.479370 
	C1275.287476,507.292053 1275.298218,513.449280 1267.775269,520.174927 
	C1214.494873,567.808594 1161.220337,615.448730 1107.940186,663.082642 
	C1106.574951,664.303223 1105.263306,665.616699 1103.760498,666.643494 
	C1099.837891,669.323669 1095.661743,669.691833 1091.552734,667.163330 
	C1087.659668,664.767700 1085.861694,661.085571 1086.389648,656.554016 
	C1089.049194,633.728027 1091.676392,610.896667 1094.622070,588.106934 
	C1095.167847,583.885010 1094.436157,582.873230 1090.072144,582.877441 
	C960.598877,583.002014 831.125427,582.980225 701.652039,582.969910 
	C699.164734,582.969666 696.660583,583.202820 694.215698,582.400818 
	C686.431458,579.847351 684.187073,571.104980 689.725708,564.114502 
	C700.793335,550.145813 711.975342,536.267822 723.116577,522.357483 
	C729.468018,514.427246 735.797791,506.479401 742.202209,498.592133 
	C746.830261,492.892487 753.379944,491.782227 758.438477,495.711853 
	C763.619690,499.736786 764.009705,506.574036 759.269775,512.516541 
	C746.616028,528.381165 733.915161,544.208130 720.548767,560.904785 
	C723.299744,560.904785 725.191711,560.904785 727.083679,560.904785 
	C852.224670,560.905029 977.365601,560.908813 1102.506592,560.887939 
	C1106.214600,560.887268 1109.930420,560.798279 1112.963989,563.334229 
	C1116.825439,566.562256 1117.405151,570.722046 1116.653198,575.547302 
	C1113.987061,592.656189 1111.554932,609.801636 1109.057983,626.936768 
	C1108.874634,628.194397 1108.881714,629.479736 1108.739136,631.707031 
	C1117.954712,623.576294 1126.523071,616.026062 1135.081177,608.464417 
	C1171.036743,576.695374 1206.973999,544.905579 1242.979492,513.193237 
	C1245.208618,511.229889 1246.105225,510.203888 1243.308350,507.740875 
	C1199.299927,468.985779 1155.395630,430.112305 1111.456909,391.277863 
	C1110.871094,390.760101 1110.410522,389.923187 1108.887695,390.218323 
	C1110.416260,400.801849 1111.941895,411.408905 1113.481934,422.013885 
	C1114.702148,430.417969 1116.035034,438.806946 1117.140991,447.225922 
	C1118.072998,454.320557 1114.213135,459.200073 1107.107666,460.010437 
	C1095.369019,461.349152 1083.616699,462.569153 1071.437500,463.802979 
	C1070.880737,462.592255 1071.723755,461.988037 1072.453735,461.322174 
	C1081.553711,453.020721 1081.281006,444.546570 1071.662476,436.727783 
	C1071.270508,436.409149 1070.986206,436.004150 1070.954590,435.200806 
z"/>
<path fill="#03B3EB" opacity="1.000000" stroke="none" 
	d="
M1070.666748,434.670044 
	C1083.536865,442.994812 1083.730835,455.469177 1071.273682,463.579712 
	C1067.912109,464.466156 1064.790894,464.833160 1061.609253,464.832367 
	C996.986633,464.816010 932.364014,464.826477 867.741394,464.811981 
	C857.042542,464.809601 850.537048,459.761292 849.651184,450.860748 
	C849.159790,445.923370 850.900330,441.832672 854.108459,438.084595 
	C880.525146,407.221344 906.867554,376.294556 933.244385,345.397186 
	C963.186401,310.323639 993.141968,275.261688 1023.083618,240.187820 
	C1024.019531,239.091461 1024.866455,237.919159 1026.363037,236.004013 
	C1023.784668,236.004013 1022.036255,236.004166 1020.287842,236.003998 
	C971.487976,235.999710 922.688049,236.007904 873.888184,235.963440 
	C870.569275,235.960419 867.250793,235.561813 863.568237,235.194061 
	C853.709961,228.850800 851.141663,220.286957 856.245056,212.080948 
	C857.792053,209.593460 860.128540,208.097977 862.735291,206.366867 
	C866.062012,205.310486 869.211365,205.080322 872.381531,205.080124 
	C934.180908,205.076294 995.980286,205.065506 1057.779663,205.091293 
	C1068.137085,205.095612 1074.642334,210.507568 1075.374756,219.607727 
	C1075.775879,224.591400 1073.570068,228.557190 1070.423828,232.237457 
	C1044.457397,262.611816 1018.544495,293.031982 992.601562,323.426483 
	C962.548889,358.636078 932.480347,393.832092 902.427917,429.041901 
	C901.293640,430.370850 900.255615,431.782013 899.092285,433.256989 
	C901.089905,434.427277 902.772461,433.912262 904.355042,433.913361 
	C956.659607,433.949493 1008.964233,433.935089 1061.268799,433.966278 
	C1064.257324,433.968079 1067.245728,434.291962 1070.666748,434.670044 
z"/>
<path fill="#242021" opacity="1.000000" stroke="none" 
	d="
M1300.678467,733.075928 
	C1300.726440,729.257935 1300.564331,725.908386 1300.865601,722.601013 
	C1301.505859,715.571655 1306.737427,710.849854 1313.460327,710.948853 
	C1320.115356,711.046875 1325.487549,715.952515 1326.206055,722.663330 
	C1326.364990,724.148193 1326.323730,725.657776 1326.323853,727.155945 
	C1326.325806,802.466370 1326.322388,877.776733 1326.319458,953.087158 
	C1326.319336,954.700073 1326.319336,956.312988 1326.319336,958.510010 
	C1331.916260,953.087708 1337.122314,948.319702 1342.021606,943.254944 
	C1391.357056,892.253662 1440.640991,841.202637 1489.943359,790.169373 
	C1494.668091,785.278809 1499.904297,784.017212 1505.258057,786.434326 
	C1509.880981,788.521606 1512.457764,793.287964 1512.061401,798.704102 
	C1511.823364,801.954529 1509.998413,804.203674 1507.851562,806.383118 
	C1476.873413,837.829773 1445.913208,869.294128 1414.950684,900.756287 
	C1414.132935,901.587097 1413.442383,902.582581 1412.515503,903.258850 
	C1409.750122,905.276489 1409.948853,906.938110 1412.133789,909.603943 
	C1429.871216,931.244873 1447.417725,953.042297 1465.037354,974.780029 
	C1481.293091,994.835022 1497.566284,1014.875732 1513.833984,1034.921021 
	C1516.057251,1037.660522 1518.089111,1040.472168 1518.339844,1044.187500 
	C1518.679932,1049.227173 1517.293091,1053.444702 1512.676880,1056.065308 
	C1508.018799,1058.709595 1502.000366,1058.371338 1498.116211,1055.095703 
	C1496.223389,1053.499512 1494.563477,1051.583618 1492.995972,1049.651855 
	C1460.251221,1009.301697 1427.482056,968.970886 1394.906128,928.484741 
	C1392.106812,925.005737 1390.884888,925.327820 1388.026001,928.246582 
	C1368.442749,948.239929 1348.696411,968.074280 1328.909058,987.866211 
	C1326.958008,989.817627 1326.250000,991.773682 1326.266235,994.457275 
	C1326.365845,1010.951660 1326.402588,1027.447388 1326.295776,1043.941650 
	C1326.228760,1054.276245 1318.799561,1059.956665 1309.458130,1057.019409 
	C1304.527344,1055.468994 1301.668945,1052.008301 1300.953003,1046.950439 
	C1300.605225,1044.493164 1300.688477,1041.965454 1300.688232,1039.469727 
	C1300.676880,937.500977 1300.678467,835.532288 1300.678467,733.075928 
z"/>
<path fill="#252122" opacity="1.000000" stroke="none" 
	d="
M634.549622,787.886475 
	C644.688232,790.315674 647.966248,798.260254 642.282043,806.496582 
	C638.606750,811.821899 634.180481,816.636414 630.005432,821.608154 
	C572.064819,890.605164 514.109192,959.589539 456.159882,1028.579224 
	C455.331024,1029.566040 454.535461,1030.580811 453.453888,1031.916626 
	C455.444336,1033.071411 457.265442,1032.656616 458.953918,1032.657349 
	C517.261169,1032.683228 575.568359,1032.677002 633.875610,1032.688232 
	C636.524353,1032.688843 639.222717,1032.393555 641.729919,1033.631714 
	C646.184570,1035.831787 648.763794,1039.489136 648.536011,1044.374878 
	C648.280945,1049.847168 645.372864,1053.731689 639.425537,1055.175781 
	C636.901001,1054.895264 634.735046,1055.001831 632.573914,1055.001587 
	C568.180603,1054.995483 503.787262,1054.993530 439.393951,1055.004272 
	C435.239136,1055.005005 431.084045,1055.060303 426.442719,1055.105347 
	C425.788971,1055.171021 425.621429,1055.186401 425.227417,1055.090454 
	C423.979218,1054.098755 422.627808,1053.953857 421.189178,1053.216797 
	C420.313568,1052.608398 419.711609,1052.176270 418.999817,1051.483398 
	C418.529510,1050.557007 418.004639,1050.014771 417.380280,1049.195435 
	C414.037994,1042.807495 417.148376,1038.008423 420.828644,1033.561157 
	C431.338104,1020.861450 441.993744,1008.282654 452.598511,995.661804 
	C503.266144,935.362305 553.936279,875.064941 604.602478,814.764160 
	C605.453430,813.751282 606.265564,812.705811 607.134460,811.627747 
	C605.930298,809.741089 604.110291,810.591003 602.622620,810.589844 
	C546.991028,810.546753 491.359406,810.551758 435.727783,810.550293 
	C434.561859,810.550232 433.393799,810.597229 432.230377,810.543518 
	C425.552979,810.235229 420.867004,806.562927 419.960632,800.957886 
	C419.005188,795.049438 421.825958,790.599609 428.600586,787.890930 
	C442.104919,788.166382 455.245544,787.993713 468.385040,787.990845 
	C523.609924,787.978760 578.834839,788.085938 634.549622,787.886475 
z"/>
<path fill="#2C292A" opacity="1.000000" stroke="none" 
	d="
M1593.819092,1054.909180 
	C1572.276001,1062.837646 1552.390747,1051.395508 1549.671265,1029.855713 
	C1547.726318,1014.451782 1557.932983,999.842102 1573.202759,996.172974 
	C1588.775513,992.431152 1604.673096,1000.808960 1609.939941,1015.533020 
	C1615.551270,1031.220703 1609.428589,1046.451904 1593.819092,1054.909180 
z"/>
<path fill="#403E3F" opacity="1.000000" stroke="none" 
	d="
M426.311279,1055.373047 
	C429.450714,1052.816040 433.393829,1054.257568 437.007568,1054.246826 
	C503.021942,1054.049316 569.037048,1054.098267 635.052002,1054.119263 
	C636.186584,1054.119629 637.321045,1054.421875 638.755554,1054.878906 
	C637.565125,1056.263062 635.841125,1055.829346 634.221802,1055.829834 
	C566.191895,1055.852905 498.162018,1055.848999 430.132111,1055.835449 
	C428.976746,1055.835205 427.821411,1055.675659 426.311279,1055.373047 
z"/>
<path fill="#4D4A4B" opacity="1.000000" stroke="none" 
	d="
M634.696899,787.598999 
	C633.687988,789.235107 631.934021,788.791748 630.316956,788.792236 
	C564.724731,788.810242 499.132477,788.810852 433.540253,788.791870 
	C432.231018,788.791504 430.921875,788.532654 429.289368,788.135742 
	C430.307922,786.920959 431.855316,787.253662 433.319092,787.253296 
	C499.667328,787.238159 566.015564,787.243530 632.363770,787.252014 
	C633.027283,787.252075 633.690796,787.326416 634.696899,787.598999 
z"/>
<path fill="#403E3F" opacity="1.000000" stroke="none" 
	d="
M421.081085,1053.335693 
	C422.369934,1052.908569 423.679901,1053.177979 424.826599,1054.682251 
	C423.518097,1055.174194 422.469482,1054.159912 421.081085,1053.335693 
z"/>
<path fill="#403E3F" opacity="1.000000" stroke="none" 
	d="
M417.251434,1049.261963 
	C418.159271,1049.110352 418.734406,1049.633423 418.892090,1050.904297 
	C418.354736,1050.668091 417.819489,1050.113403 417.251434,1049.261963 
z"/>
<path fill="#FEFEFE" opacity="1.000000" stroke="none" 
	d="
M753.364990,823.319336 
	C790.489014,796.478455 839.869812,798.746460 871.242676,828.823547 
	C889.513000,846.339050 898.607422,868.612183 902.989807,893.088684 
	C903.693420,897.018555 903.916931,901.037292 904.683167,904.952148 
	C905.357605,908.398010 904.075500,909.117188 900.844543,909.063416 
	C890.017456,908.883240 879.185425,908.995728 868.355286,908.995728 
	C817.203735,908.995850 766.051941,908.932068 714.901001,909.106079 
	C710.383789,909.121399 709.351990,908.089905 709.964417,903.637512 
	C714.380066,871.537598 727.147522,844.016785 753.364990,823.319336 
z"/>
<path fill="#FEFEFE" opacity="1.000000" stroke="none" 
	d="
M1178.000000,908.996033 
	C1125.501343,908.995544 1073.502563,908.993042 1021.503906,909.000671 
	C1019.036743,909.001038 1016.575684,909.708130 1017.115540,905.407471 
	C1020.731262,876.604187 1031.248291,851.173279 1052.264648,830.496582 
	C1093.598022,789.831299 1174.899170,793.640259 1202.853149,865.761719 
	C1207.699341,878.264954 1210.553101,891.227905 1212.029175,904.540222 
	C1212.401489,907.898254 1211.747559,909.192444 1207.996582,909.088196 
	C1198.171143,908.815247 1188.333008,908.996094 1178.000000,908.996033 
z"/>
<path fill="#F4F4F4" opacity="1.000000" stroke="none" 
	d="
M1595.692505,1006.197021 
	C1604.154907,1013.367615 1607.701782,1022.036865 1605.047852,1032.620361 
	C1602.616577,1042.316406 1596.265747,1048.486938 1586.598999,1050.954712 
	C1575.935547,1053.676758 1564.717285,1048.868408 1559.151978,1039.479004 
	C1553.539429,1030.009888 1554.646484,1018.084961 1561.910034,1009.771851 
	C1569.015137,1001.640137 1580.824707,999.106995 1591.043213,1003.583008 
	C1592.554443,1004.244995 1593.946167,1005.179932 1595.692505,1006.197021 
z"/>
<path fill="#272425" opacity="1.000000" stroke="none" 
	d="
M1592.529297,1043.100342 
	C1588.182373,1043.938965 1586.087280,1042.117920 1584.639282,1038.533569 
	C1583.475586,1035.653076 1581.986328,1032.779907 1579.338379,1030.829468 
	C1577.775391,1029.678223 1575.901489,1029.230591 1574.153687,1029.862671 
	C1572.274780,1030.542114 1573.302246,1032.457886 1573.183472,1033.818970 
	C1573.025024,1035.633057 1573.046143,1037.477905 1573.167114,1039.297729 
	C1573.327881,1041.716919 1573.186768,1043.267456 1569.893799,1043.233276 
	C1566.718018,1043.200195 1566.494629,1041.817261 1566.524536,1039.320435 
	C1566.628052,1030.680542 1566.651855,1022.037415 1566.510620,1013.398621 
	C1566.468628,1010.822021 1567.189575,1009.858093 1569.850220,1010.001709 
	C1574.158813,1010.234436 1578.487793,1010.064880 1582.802124,1010.226929 
	C1589.055176,1010.461731 1592.298706,1012.829041 1593.142334,1017.551086 
	C1594.058838,1022.681824 1591.897339,1025.968628 1585.544312,1028.601196 
	C1589.201904,1032.151123 1591.466309,1036.493896 1593.919556,1040.714600 
	C1594.621338,1041.922119 1595.472534,1043.220947 1592.529297,1043.100342 
z"/>
<path fill="#EEEEEE" opacity="1.000000" stroke="none" 
	d="
M1573.131104,1019.050354 
	C1572.982422,1016.612122 1573.095947,1014.869263 1575.881592,1015.152405 
	C1578.191040,1015.387146 1580.561401,1015.271606 1582.816040,1015.739197 
	C1585.815430,1016.361206 1587.176392,1018.686401 1585.902588,1021.359131 
	C1583.657837,1026.068848 1578.869507,1024.244873 1575.176880,1024.442017 
	C1571.563965,1024.634888 1573.760742,1021.212646 1573.131104,1019.050354 
z"/>
</svg>