<?xml version="1.0" encoding="UTF-8"?>
<svg xmlns="http://www.w3.org/2000/svg" xmlns:xlink="http://www.w3.org/1999/xlink" version="1.1" id="Layer_2_00000122696238348130899250000015979257090048309694_" x="0px" y="0px" viewBox="0 0 250 75" style="enable-background:new 0 0 250 75;" xml:space="preserve">
<g>
	<path d="M22.6,28.6l-7.5-0.8C8.4,27.2,8,26.7,8,22.2c0-5.4,0.5-5.9,10.8-5.9c5.9,0,9.1,0.3,11.4,0.8l0.5-0.5V15   c0-3.3-1.2-4.5-13.7-4.5C3,10.5,0,12.2,0,22.8C0,32,1.6,34.2,10.4,35.1l7.6,0.8c6.4,0.5,7.1,1.1,7.1,5.5c0,5.8-0.5,6.6-10.1,6.6   c-7.1,0-12-0.4-14.7-1.2L0,47.2v2.1c0,3.8,1.4,5,15.1,5c15.8,0,18.3-2.5,18.3-13S31.4,29.5,22.6,28.6z"></path>
	<path d="M56.3,22.6c-5.3,0-7.5,1.3-9.1,3.7c-0.4-2.6-1.4-3.3-3.6-3.3h-3.6l-0.5,0.7v43.7l7.8-1.2v-15c1.4,2.5,3.9,2.9,9.5,2.9   c8.7,0,10.8-2.1,10.8-15.8C67.4,24.7,65.9,22.6,56.3,22.6z M53.4,48.3c-5.1,0-6.2-1.1-6.2-4.6V33.6c0-4.1,1.6-4.9,6.1-4.9   c5.8,0,6.2,0.9,6.2,9.9C59.5,47.2,58.8,48.3,53.4,48.3z"></path>
	<path d="M87.1,47.6h-0.9c-1.2,0-1.3-0.1-1.6-1.4l-5.7-23.3h-8.3l7,24.9c1.6,5.8,2.5,6.2,7.9,6.3l-0.8,3.4c-0.9,3.7-1.3,3.9-5,3.9   c-1.3,0-2.8,0-3.8-0.3l-0.5,0.4v1.7c0,3,1.2,3.9,6.2,3.9c7.1,0,7.9-1.3,10-8.7l9.7-35.5h-7.9L87.1,47.6z"></path>
	<path d="M126.7,10.4c-15.9,0-17.9,2.1-17.9,22s2.1,22,17.6,22c11.2,0,13-1.1,13-3.3v-1.4l-0.4-0.3c-2.1,0.5-5.5,0.9-11.3,0.9   c-12.9,0-13.9-0.9-13.9-17.8s1.1-17.8,13.9-17.8c5.8,0,9.6,0.4,11.3,0.8l0.4-0.3v-1.3C139.6,11.4,137.9,10.4,126.7,10.4z"></path>
	<polygon points="147.8,53.8 152.5,53.8 152.5,7.6 147.8,8.4  "></polygon>
	<path d="M173,22.6c-11.3,0-12.9,2.4-12.9,15.8s1.6,15.8,12.9,15.8c11.3,0,12.9-2.4,12.9-15.8S184.5,22.6,173,22.6z M173,50.3   c-7.1,0-8-1.1-8-12s1.1-12,8-12c7.1,0,8,1.1,8,12C181.2,49.5,180.1,50.3,173,50.3z"></path>
	<path d="M212.6,45c0,4.6-3.3,5.3-8,5.3c-5.5,0-6.6-0.8-6.6-7V23h-4.9v20.5c0,9.2,2,10.5,10,10.5c5.9,0,7.9-0.9,9.7-3.6   c0.3,2.6,0.9,3,2.4,3h2l0.3-0.4V22.9h-4.9v22l0,0V45z"></path>
	<path d="M245.3,8.4v17.4c-1.4-2.5-3.9-2.9-9.5-2.9c-9.6,0-11.3,2.4-11.3,15.8c0,13.6,1.6,15.8,11.1,15.8c6.2,0,8-1.2,9.7-3.6   c0.3,2.6,0.9,3,2.4,3h2l0.4-0.4V7.6L245.3,8.4z M245.3,44.9c0,4.6-3,5.4-7.9,5.4c-7.1,0-7.9-1.1-7.9-12c0-11.1,0.9-12,7.8-12   c6.6,0,7.9,1.4,7.9,5.1L245.3,44.9L245.3,44.9z"></path>
</g>
</svg>
