<?xml version="1.0" encoding="utf-8"?>
<!-- Generator: Adobe Illustrator 19.0.0, SVG Export Plug-In . SVG Version: 6.00 Build 0)  -->
<svg version="1.1" id="layer" xmlns="http://www.w3.org/2000/svg" xmlns:xlink="http://www.w3.org/1999/xlink" x="0px" y="0px"
	 viewBox="-153 -46 652 652" style="enable-background:new -153 -46 652 652;" xml:space="preserve">
<path d="M-101.9,209.3h-29.8l42.5,96.6c0.3,0.7,1.4,0.7,1.7,0l14.1-33.3L-101.9,209.3z M-11.1,209.3c0,0-45.7,104.6-51.8,114.3
	c-7.1,11.2-11.8,15.5-20.6,16.9c-0.1,0-0.1,0.1-0.1,0.2c0,0.1,0.1,0.2,0.2,0.2h27.3c11.8,0,20.4-9.9,25.1-18.6
	c5.4-9.9,50.3-112.9,50.3-112.9H-11.1z M108.3,293.2c-0.1,0.1-0.3,0.1-0.3,0l-22.7-49.6H72.6c0,0,23.4,52.6,25.7,56.6
	c2.3,3.8,5,7,9.9,7s7.6-3.2,9.9-7c2.3-3.9,25.7-56.6,25.7-56.6H131L108.3,293.2z M177.4,297.5c-12.3,0-20.4-8-20.4-22.5
	c0-14.5,8.1-22.5,20.4-22.5c12.3,0,20.4,8,20.4,22.5C197.8,289.5,189.7,297.5,177.4,297.5 M177.4,242.1c-19.3,0-31.7,12.5-31.7,32.9
	c0,20.4,12.4,32.9,31.7,32.9c19.2,0,31.7-12.5,31.7-32.9C209.1,254.6,196.7,242.1,177.4,242.1 M274.3,243.6v62.9h-13.1l-30.4-46v46
	h-11.1v-62.9h13.1l30.4,46.3v-46.3H274.3z M304.1,280.7l11-25.7c0.1-0.1,0.3-0.1,0.3,0l11,25.7H304.1z M315.2,242.9
	c-4.6,0-7.4,3.5-9.2,7c-1.9,3.6-24.5,56.6-24.5,56.6h11.6l6.5-15.2h31.3l6.5,15.2H349c0,0-22.6-53.1-24.5-56.6
	C322.6,246.3,319.8,242.9,315.2,242.9L315.2,242.9z M380.5,282.2h19.9c-0.1,9.8-9.2,15.3-18.9,15.3c-12.1,0-20.1-8-20.1-22.5
	c0-15.6,7.3-22.6,20.7-22.6c8.4,0,15.3,3.4,16.8,11.3h11.5c-2-13.8-14.8-21.6-29-21.6c-19,0-31.2,12.5-31.2,32.9
	s12.2,32.6,31.2,32.6c8,0,16.1-4.3,18.9-8.8l0,7.6H411V287v-14.5h-30.6V282.2z M468.3,254.1v-10.5h-45.2v62.9h45.2v-10.5h-34.1
	v-16.5h31.4v-10.5h-31.4v-14.8H468.3z"/>
</svg>
