<svg width="225" height="65" viewBox="0 0 225 65" fill="none" xmlns="http://www.w3.org/2000/svg">
<g clip-path="url(#clip0_10_35)">
<path d="M222.138 8.5311C222.138 11.0418 220.167 13.0126 217.602 13.0126C215.064 13.0126 213.039 11.0418 213.039 8.5311C213.039 6.07436 215.064 4.10358 217.602 4.10358C220.167 4.10358 222.138 6.07436 222.138 8.5311ZM214.173 8.5311C214.173 10.5019 215.631 12.0677 217.629 12.0677C219.573 12.0677 221.004 10.5019 221.004 8.5581C221.004 6.58731 219.573 4.99448 217.602 4.99448C215.631 4.99448 214.173 6.58731 214.173 8.5311ZM216.9 10.8528H215.874V6.42533C216.279 6.34433 216.846 6.29034 217.575 6.29034C218.412 6.29034 218.79 6.42533 219.114 6.61431C219.357 6.80329 219.546 7.15425 219.546 7.5862C219.546 8.07215 219.168 8.45011 218.628 8.61209V8.66608C219.06 8.82807 219.303 9.15203 219.438 9.74597C219.573 10.4209 219.654 10.6909 219.762 10.8528H218.655C218.52 10.6909 218.439 10.2859 218.304 9.77296C218.223 9.28702 217.953 9.07104 217.386 9.07104H216.9V10.8528ZM216.927 8.34212H217.413C217.98 8.34212 218.439 8.15314 218.439 7.69419C218.439 7.28923 218.142 7.01926 217.494 7.01926C217.224 7.01926 217.035 7.04626 216.927 7.07326V8.34212Z" fill="#1F2933"/>
<path d="M27.4506 3.6806C27.4506 3.6806 27.4506 19.1409 27.4506 19.1904C27.4506 19.1904 28.9311 18.1375 30.2361 17.4086C31.5411 16.6797 32.2296 16.3647 32.9947 16.0048C33.7462 15.6493 34.8487 15.2444 35.6317 14.9654C36.4057 14.6864 37.1977 14.4479 37.9943 14.25C38.7863 14.052 39.5918 13.89 40.3973 13.764C41.2028 13.6425 42.0128 13.5525 42.8229 13.503C43.6329 13.4535 44.4474 13.4401 45.2574 13.467C46.0674 13.4895 46.8774 13.548 47.683 13.6425C48.4885 13.737 49.2895 13.8675 50.0815 14.0295C50.8735 14.1915 51.661 14.3894 52.4396 14.6189C53.2181 14.8484 53.9831 15.1139 54.7391 15.4063C55.4951 15.7033 56.2376 16.0273 56.9621 16.3872C57.6867 16.7472 58.3977 17.1342 59.0907 17.5571C59.7837 17.9756 60.4587 18.43 61.1112 18.907C61.7637 19.3884 62.3983 19.8969 63.0058 20.4323C63.6178 20.9722 64.2028 21.5392 64.7608 22.1286C65.3233 22.7226 65.8543 23.3435 66.3538 23.9914C66.8578 24.6438 67.3349 25.3188 67.7714 26.0117C68.2169 26.7181 68.6264 27.4425 68.9954 28.1895C69.3734 28.9454 69.7109 29.7238 70.0124 30.5157C70.2824 31.2356 70.5209 31.9646 70.7279 32.707C72.708 39.8387 71.2454 47.5599 66.9703 53.5757C57.3447 67.1193 35.3662 69.0856 23.783 56.9729C19.0264 52.0009 17.1858 45.8816 17.1543 39.1503C17.1048 27.3256 17.1183 15.5053 17.1003 3.6806H27.4506ZM44.4969 23.8969C42.9039 23.8249 41.3423 24.0139 39.8123 24.3964C34.1287 25.8272 29.8941 28.9859 28.1481 34.7588C26.492 40.2347 27.7566 45.1481 31.7121 49.2742C38.3633 56.2124 50.275 56.2394 57.0251 49.3957C62.7268 43.6183 62.7538 34.7812 57.0431 29.0174C53.5961 25.5527 49.348 23.9689 44.4969 23.8969Z" fill="#1F2933"/>
<path d="M224.469 54.4352C222.907 60.1315 217.939 63.7087 212.125 63.8481C202.311 64.0866 182.213 63.9246 182.213 63.9246V53.8097C182.213 53.8097 200.835 53.7017 209.002 53.6927C211.999 53.6882 213.435 52.8243 213.7 50.921C213.948 49.1527 212.827 47.8704 210.123 46.9975C203.868 44.9817 197.594 43.0064 191.33 41.0086C182.744 38.2729 180.845 31.5101 182.398 24.3604C183.37 19.8834 186.569 17.2377 190.835 15.8383C192.262 15.3704 193.733 14.9789 195.227 14.9744C204.142 14.9384 213.057 14.9564 222.115 14.9564C222.115 18.25 222.115 25.0623 222.115 25.0623C222.115 25.0623 206.154 25.1028 199.331 25.1208C198.134 25.1253 196.924 25.1478 195.749 25.3413C194.494 25.5483 193.513 26.2232 193.337 27.636C193.162 29.0444 193.63 30.1693 194.98 30.7497C196.073 31.2222 197.198 31.6271 198.332 31.9916C204.025 33.8139 209.736 35.5687 215.41 37.4405C217.629 38.1694 219.766 39.2673 221.431 40.9276C223.407 42.9029 224.469 45.5711 224.852 48.3023C225.14 50.3856 225 52.4824 224.469 54.4352Z" fill="#1F2933"/>
<path d="M99.0605 64.487C88.4088 62.8402 78.7606 55.2765 76.317 44.0592C73.419 30.7407 82.3382 18.9249 92.8639 15.5548C92.8639 19.2984 92.8639 23.0015 92.8639 26.8081C92.3554 27.249 91.7883 27.7305 91.2348 28.2299C83.6207 35.0872 84.6287 46.3495 93.3409 51.7579C100.591 56.2574 110.144 55.155 115.855 49.1572C121.25 43.4923 121.255 34.9027 115.841 29.2648C115.013 28.4009 114.082 27.636 113.137 26.7676C113.137 23.1095 113.137 19.3794 113.137 15.4063C117.511 17.0081 121.106 19.4649 124.023 22.862C134.517 35.0827 129.967 54.2596 116.053 61.7108C110.738 64.5545 104.758 65.3644 99.0605 64.487Z" fill="#2CAB62"/>
<path d="M0 25.7282C3.74407 25.7282 7.48365 25.7282 11.3537 25.7282C11.3537 38.3628 11.3537 50.849 11.3537 63.5106C5.67911 63.5106 0 59.1326 0 55.425C0 45.5261 0 35.6271 0 25.7282Z" fill="#1F2933"/>
<path d="M11.3267 10.6998C11.3267 14.0835 11.3267 17.3231 11.3267 20.7787C7.56465 20.7787 0 20.7787 0 20.7787C0 15.7393 5.66111 10.6998 11.3267 10.6998Z" fill="#1F2933"/>
<path d="M174.266 14.9564C174.266 18.3625 174.266 25.1793 174.266 25.1793C174.266 25.1793 158.282 25.0983 151.388 25.1163C150.267 25.1208 149.133 25.1523 148.026 25.3098C146.662 25.5033 145.618 26.2142 145.42 27.69C145.231 29.1119 145.857 30.1738 147.153 30.7812C147.823 31.0962 148.53 31.3526 149.241 31.5776C154.862 33.3774 160.487 35.1592 166.107 36.9545C166.818 37.1795 167.529 37.4135 168.227 37.679C176.102 40.6711 179.608 49.5757 175.792 57.0809C173.393 61.7964 169.086 63.7356 164.154 63.8481C154.272 64.0776 144.381 63.9156 134.332 63.9156C134.332 60.541 134.332 53.7242 134.332 53.7242C134.332 53.7242 152.927 53.7017 161.094 53.6927C162.062 53.6927 163.029 53.7512 163.956 53.3148C166.197 52.2664 166.508 49.5262 164.519 48.0548C163.722 47.4699 162.791 47.1819 161.864 46.8895C155.744 44.9322 149.633 42.9659 143.508 41.0266C135.381 38.4529 132.924 32.0771 134.544 24.4054C135.363 20.5268 137.919 17.9891 141.465 16.4052C143.323 15.5773 145.299 15.0014 147.319 14.9834C156.234 14.9204 165.149 14.9564 174.266 14.9564Z" fill="#1F2933"/>
<path d="M97.886 12.8911C101.306 12.3287 104.636 12.3512 108.169 12.8776C108.169 22.2951 108.169 31.6946 108.169 41.2785C104.861 41.2785 101.459 41.2785 97.886 41.2785C97.886 31.9555 97.886 22.5561 97.886 12.8911Z" fill="#2CAB62"/>
</g>
<defs>
<clipPath id="clip0_10_35">
<rect width="225" height="65" fill="white"/>
</clipPath>
</defs>
</svg>
