<?xml version="1.0" encoding="UTF-8"?>
<svg version="1.1" xmlns="http://www.w3.org/2000/svg" width="2348" height="1680">
<path d="M0 0 C774.84 0 1549.68 0 2348 0 C2348 554.4 2348 1108.8 2348 1680 C1573.16 1680 798.32 1680 0 1680 C0 1125.6 0 571.2 0 0 Z " fill="#FEE9EC" transform="translate(0,0)"/>
<path d="M0 0 C1.34641782 1.15154155 2.68562911 2.31201092 4 3.5 C4.04898437 2.89671875 4.09796875 2.2934375 4.1484375 1.671875 C4.22320313 0.87265625 4.29796875 0.0734375 4.375 -0.75 C4.44460938 -1.53890625 4.51421875 -2.3278125 4.5859375 -3.140625 C5.01678121 -5.59562126 5.84775285 -7.30870893 7 -9.5 C11.10403363 -9.58694042 15.20783129 -9.64037149 19.3125 -9.6875 C20.47974609 -9.71263672 21.64699219 -9.73777344 22.84960938 -9.76367188 C23.96787109 -9.77333984 25.08613281 -9.78300781 26.23828125 -9.79296875 C27.26993408 -9.8086792 28.30158691 -9.82438965 29.36450195 -9.84057617 C32 -9.5 32 -9.5 33.64090919 -8.3416748 C35.55660967 -5.74575017 35.37751049 -3.9023962 35.38095093 -0.69262695 C35.3894104 0.51879974 35.39786987 1.73022644 35.40658569 2.97836304 C35.40075264 4.32281628 35.39460812 5.6672682 35.38818359 7.01171875 C35.39224817 8.425999 35.39758941 9.84027608 35.40411377 11.25454712 C35.41780687 15.09750253 35.41248061 18.94021671 35.40297651 22.78317642 C35.39539019 26.80166533 35.40242266 30.82013335 35.40713501 34.83862305 C35.41259557 41.58744013 35.40539311 48.33615879 35.39111328 55.08496094 C35.37478614 62.89157976 35.38007444 70.69796355 35.3965925 78.50457668 C35.41019885 85.20273827 35.41213121 91.90082904 35.40427649 98.59899998 C35.39959527 102.60147009 35.39898739 106.60382967 35.40888596 110.60629272 C35.41754103 114.36889036 35.41156076 118.13118446 35.39420319 121.89374924 C35.39023048 123.27606069 35.39138578 124.65839762 35.39799118 126.04069901 C35.40616497 127.92466582 35.3941066 129.80868834 35.38095093 131.69262695 C35.37981985 132.74787064 35.37868877 133.80311432 35.37752342 134.89033508 C35 137.5 35 137.5 33.67272377 139.33586121 C29.47976422 142.25396816 22.8420042 141.00147339 18 140.5 C11.9636604 137.68997984 8.57924344 133.33020246 6.25 127.1875 C5.63125 125.3621875 5.63125 125.3621875 5 123.5 C4.34 124.49 3.68 125.48 3 126.5 C2.34 126.5 1.68 126.5 1 126.5 C0.67 127.49 0.34 128.48 0 129.5 C-2.02071193 130.95256974 -3.99096641 132.23854903 -6.125 133.5 C-7.24132813 134.180625 -8.35765625 134.86125 -9.5078125 135.5625 C-26.91766503 145.22165756 -48.7855606 146.44790391 -67.96850586 141.54321289 C-88.23117627 135.54940412 -104.18491053 122.08277497 -115 104.19140625 C-125.62719481 84.37993316 -128.53442278 62.1887224 -122 40.5 C-118.50244111 30.43171333 -113.77877087 21.77010047 -107 13.5 C-106.18789062 12.44425781 -106.18789062 12.44425781 -105.359375 11.3671875 C-97.63823267 1.80946277 -87.14325492 -4.63505426 -76 -9.5 C-75.10667969 -9.89058594 -74.21335937 -10.28117188 -73.29296875 -10.68359375 C-48.6837511 -20.5200746 -20.58633777 -16.30113666 0 0 Z " fill="#6A0432" transform="translate(1353,776.5)"/>
<path d="M0 0 C2.16048148 1.91297001 4.06308927 3.85369352 6 6 C6.07347656 4.73542969 6.07347656 4.73542969 6.1484375 3.4453125 C6.22320313 2.34960938 6.29796875 1.25390625 6.375 0.125 C6.44460938 -0.96554687 6.51421875 -2.05609375 6.5859375 -3.1796875 C7 -6 7 -6 9 -8 C11.49023438 -8.25878906 11.49023438 -8.25878906 14.59375 -8.265625 C15.70621094 -8.26820313 16.81867188 -8.27078125 17.96484375 -8.2734375 C19.13144531 -8.26570312 20.29804687 -8.25796875 21.5 -8.25 C22.66660156 -8.25773438 23.83320312 -8.26546875 25.03515625 -8.2734375 C26.14761719 -8.27085937 27.26007813 -8.26828125 28.40625 -8.265625 C29.43041016 -8.26336914 30.45457031 -8.26111328 31.50976562 -8.25878906 C34 -8 34 -8 36 -6 C36.25168228 -3.47935486 36.25168228 -3.47935486 36.25396729 -0.23022461 C36.26242676 1.61226364 36.26242676 1.61226364 36.27105713 3.49197388 C36.26716818 4.86053525 36.26307182 6.22909605 36.25878906 7.59765625 C36.2614979 9.03311338 36.26505823 10.46856912 36.26940918 11.90402222 C36.27854821 15.80890671 36.27498273 19.71368584 36.26865101 23.61857224 C36.26359882 27.69892416 36.26828028 31.77926687 36.27142334 35.85961914 C36.27506527 42.7127444 36.27025795 49.56582659 36.26074219 56.41894531 C36.24985719 64.34991818 36.25338261 72.28078824 36.264395 80.21175861 C36.27346142 87.01263213 36.27475632 93.81347463 36.26951766 100.61435223 C36.2663944 104.67994053 36.26599834 108.74548045 36.27259064 112.81106567 C36.27835413 116.6326798 36.27438563 120.45416094 36.26280212 124.27576065 C36.26015017 125.68106998 36.26092971 127.08639045 36.26532745 128.4916954 C36.27076304 130.4045345 36.2627497 132.31739795 36.25396729 134.23022461 C36.25283621 135.83854408 36.25283621 135.83854408 36.25168228 137.47935486 C36 140 36 140 34 142 C27.22890237 142.82480793 20.54694066 142.82685115 14.578125 139.265625 C10.34388283 135.86984663 8.2840526 130.79651047 6 126 C5.61070312 126.43570313 5.22140625 126.87140625 4.8203125 127.3203125 C-2.69775577 135.32341744 -11.56227542 139.83705316 -22 143 C-23.15628906 143.35578125 -24.31257812 143.7115625 -25.50390625 144.078125 C-42.22591457 148.12694225 -61.43465905 146.05257469 -77 139 C-77.64066406 138.71092773 -78.28132812 138.42185547 -78.94140625 138.12402344 C-99.10381408 128.62159428 -112.2018228 111.0054698 -120.32421875 90.6875 C-123.00569283 82.40786075 -123.37442413 74.46675456 -123.4375 65.8125 C-123.44773193 64.73194336 -123.45796387 63.65138672 -123.46850586 62.53808594 C-123.23654636 41.23674253 -113.70269793 22.98643421 -99 8 C-98.40960937 7.38511719 -97.81921875 6.77023437 -97.2109375 6.13671875 C-71.67947012 -18.32625109 -28.14575539 -21.28435234 0 0 Z " fill="#690231" transform="translate(1026,775)"/>
<path d="M0 0 C2.16787907 1.90890315 4.06114192 3.85153564 6 6 C6.07347656 4.73542969 6.07347656 4.73542969 6.1484375 3.4453125 C6.22320313 2.34960938 6.29796875 1.25390625 6.375 0.125 C6.44460938 -0.96554687 6.51421875 -2.05609375 6.5859375 -3.1796875 C7 -6 7 -6 9 -8 C11.49023438 -8.25878906 11.49023438 -8.25878906 14.59375 -8.265625 C15.70621094 -8.26820313 16.81867188 -8.27078125 17.96484375 -8.2734375 C19.13144531 -8.26570312 20.29804687 -8.25796875 21.5 -8.25 C22.66660156 -8.25773438 23.83320312 -8.26546875 25.03515625 -8.2734375 C26.14761719 -8.27085937 27.26007813 -8.26828125 28.40625 -8.265625 C29.43041016 -8.26336914 30.45457031 -8.26111328 31.50976562 -8.25878906 C34 -8 34 -8 36 -6 C36.25168228 -3.47935486 36.25168228 -3.47935486 36.25396729 -0.23022461 C36.26242676 1.61226364 36.26242676 1.61226364 36.27105713 3.49197388 C36.26716818 4.86053525 36.26307182 6.22909605 36.25878906 7.59765625 C36.2614979 9.03311338 36.26505823 10.46856912 36.26940918 11.90402222 C36.27854821 15.80890671 36.27498273 19.71368584 36.26865101 23.61857224 C36.26359882 27.69892416 36.26828028 31.77926687 36.27142334 35.85961914 C36.27506527 42.7127444 36.27025795 49.56582659 36.26074219 56.41894531 C36.24985719 64.34991818 36.25338261 72.28078824 36.264395 80.21175861 C36.27346142 87.01263213 36.27475632 93.81347463 36.26951766 100.61435223 C36.2663944 104.67994053 36.26599834 108.74548045 36.27259064 112.81106567 C36.27835413 116.6326798 36.27438563 120.45416094 36.26280212 124.27576065 C36.26015017 125.68106998 36.26092971 127.08639045 36.26532745 128.4916954 C36.27076304 130.4045345 36.2627497 132.31739795 36.25396729 134.23022461 C36.25283621 135.83854408 36.25283621 135.83854408 36.25168228 137.47935486 C36 140 36 140 34 142 C27.93301166 142.66892436 22.03949158 142.9302944 16.4375 140.375 C11.34401853 135.41212062 8.43984688 132.33078139 8 125 C7.52691406 125.43570313 7.05382813 125.87140625 6.56640625 126.3203125 C-7.87425219 139.32534993 -24.2992729 145.43124891 -43.75 145.3125 C-44.71083496 145.30758545 -45.67166992 145.3026709 -46.66162109 145.29760742 C-67.62889329 144.95442981 -85.38172096 136.79767692 -100.62890625 122.453125 C-116.81729046 105.70468137 -123.55235603 85.59539012 -123.42016602 62.61108398 C-122.9193598 43.11804222 -115.41871524 26.95177449 -103 12 C-102.20722656 11.03513672 -102.20722656 11.03513672 -101.3984375 10.05078125 C-76.00277743 -17.88444483 -30.02451087 -21.84882246 0 0 Z " fill="#690331" transform="translate(1715,775)"/>
<path d="M0 0 C13.36365813 10.12568494 22.62232602 24.46540462 25.5446167 41.10015869 C26.07502241 45.64248184 26.15531077 50.08303211 26.16113281 54.65136719 C26.16609772 55.59366684 26.17106262 56.53596649 26.17617798 57.50682068 C26.19070734 60.60351301 26.19758286 63.70015428 26.203125 66.796875 C26.20888 68.95444744 26.21463769 71.11201986 26.22039795 73.26959229 C26.23087877 77.78178138 26.23674186 82.2939528 26.24023438 86.80615234 C26.24574118 92.59573768 26.26982784 98.38509045 26.29820633 104.17460251 C26.3167906 108.62516985 26.32203585 113.07568039 26.32357025 117.52628326 C26.32660218 119.66178929 26.33464878 121.79729419 26.34775543 123.93276215 C26.36474259 126.91076216 26.36295473 129.88818263 26.35644531 132.86621094 C26.3656601 133.75144943 26.37487488 134.63668793 26.3843689 135.54875183 C26.37601517 136.76402306 26.37601517 136.76402306 26.36749268 138.00384521 C26.36895924 138.70729946 26.3704258 139.41075371 26.3719368 140.13552475 C25.88344279 142.58428752 24.94330846 143.47800053 23 145 C20.59570312 145.38818359 20.59570312 145.38818359 17.78125 145.3984375 C16.76675781 145.40230469 15.75226563 145.40617188 14.70703125 145.41015625 C13.64871094 145.39855469 12.59039063 145.38695312 11.5 145.375 C10.44167969 145.38660156 9.38335938 145.39820313 8.29296875 145.41015625 C6.77123047 145.40435547 6.77123047 145.40435547 5.21875 145.3984375 C3.8255957 145.39336182 3.8255957 145.39336182 2.40429688 145.38818359 C-0.48952101 144.92096482 -1.19677547 144.25820292 -3 142 C-3.27381478 138.98393803 -3.36509964 136.17572705 -3.32128906 133.16088867 C-3.32023666 132.25634949 -3.31918427 131.3518103 -3.31809998 130.41986084 C-3.31448874 128.45225596 -3.30432161 126.48465484 -3.28842926 124.51711082 C-3.26543211 121.39175486 -3.26430656 118.2671062 -3.26971436 115.14167786 C-3.28238296 106.25418692 -3.26574209 97.36706428 -3.20947266 88.47973633 C-3.17660123 83.04246706 -3.1781895 77.60606603 -3.20049286 72.16875648 C-3.20222941 70.10651962 -3.19113828 68.04422677 -3.16638947 65.98213768 C-2.98737388 50.68742309 -4.67530457 39.94850477 -15 28 C-15.66 27.67 -16.32 27.34 -17 27 C-17 26.34 -17 25.68 -17 25 C-17.639375 24.7525 -18.27875 24.505 -18.9375 24.25 C-22.27355275 22.88834582 -25.54236739 21.40601844 -28.81640625 19.90234375 C-36.4280529 16.75692268 -47.25397172 16.20412269 -55.16064453 18.67529297 C-59.32072708 20.42074718 -63.13102497 22.68527606 -67 25 C-67.99 25.33 -68.98 25.66 -70 26 C-70.68620031 27.32338632 -71.34786461 28.65949948 -72 30 C-72.78375 30.886875 -73.5675 31.77375 -74.375 32.6875 C-80.72753787 40.07373486 -82.1461624 48.51697339 -82.15771484 57.94360352 C-82.16279556 58.84645081 -82.16787628 59.7492981 -82.17311096 60.67950439 C-82.18380197 62.63780819 -82.19242712 64.59612411 -82.19923019 66.55444527 C-82.21102357 69.65150972 -82.23047546 72.74843501 -82.25234985 75.84544373 C-82.3139671 84.65008953 -82.36809724 93.45471925 -82.40136719 102.25952148 C-82.42226838 107.64588059 -82.45752912 113.03198296 -82.50212479 118.41819572 C-82.51631517 120.47271652 -82.52501404 122.52728269 -82.52817917 124.58185005 C-82.53306752 127.45010552 -82.55616955 130.31767424 -82.58349609 133.18579102 C-82.58048996 134.03833969 -82.57748383 134.89088837 -82.5743866 135.76927185 C-82.65680865 141.57114073 -82.65680865 141.57114073 -84.37423134 143.71726894 C-86.66890179 145.52776334 -88.3216466 145.38788247 -91.21875 145.3984375 C-92.23324219 145.40230469 -93.24773437 145.40617188 -94.29296875 145.41015625 C-95.35128906 145.39855469 -96.40960937 145.38695312 -97.5 145.375 C-98.55832031 145.38660156 -99.61664062 145.39820313 -100.70703125 145.41015625 C-102.22876953 145.40435547 -102.22876953 145.40435547 -103.78125 145.3984375 C-104.71001953 145.39505371 -105.63878906 145.39166992 -106.59570312 145.38818359 C-109.53780264 144.91316956 -110.2335017 144.37137834 -112 142 C-112.37752342 139.35630703 -112.37752342 139.35630703 -112.38095093 136.10997009 C-112.3894104 134.88026993 -112.39786987 133.65056976 -112.40658569 132.38360596 C-112.40075266 131.01867544 -112.39460814 129.65374622 -112.38818359 128.28881836 C-112.39224808 126.85321147 -112.39758927 125.41760771 -112.40411377 123.98200989 C-112.41780674 120.08127339 -112.41248098 116.18077455 -112.40297651 112.28003383 C-112.39539159 108.20235338 -112.40242213 104.12469355 -112.40713501 100.04701233 C-112.41259536 93.19984271 -112.40539301 86.35277013 -112.39111328 79.50561523 C-112.37477968 71.58196206 -112.38007923 63.65854037 -112.3965925 55.73489279 C-112.41019168 48.93823413 -112.41213493 42.14164529 -112.40427649 35.34497744 C-112.39959215 31.28273602 -112.39899603 27.22060354 -112.40888596 23.15836906 C-112.41753086 19.34078404 -112.41157952 15.52349853 -112.39420319 11.70594597 C-112.3902253 10.30225116 -112.39139456 8.89853129 -112.39799118 7.49484634 C-112.40614449 5.58425527 -112.39412447 3.67360932 -112.38095093 1.76304626 C-112.37981985 0.6921321 -112.37868877 -0.37878206 -112.37752342 -1.48214817 C-112.25294069 -2.31303927 -112.12835796 -3.14393038 -112 -4 C-107.11353188 -7.25764541 -101.7148936 -6.4374363 -96 -6 C-90.5025462 -4.30078701 -87.27339521 -0.58472522 -84 4 C-83.30475124 5.31865514 -82.62958743 6.64876283 -82 8 C-81.236875 6.989375 -80.47375 5.97875 -79.6875 4.9375 C-60.77799852 -17.04201466 -22.34208257 -15.96366468 0 0 Z " fill="#690231" transform="translate(1540,773)"/>
<path d="M0 0 C2.34162126 1.72565261 2.87224458 2.40758575 3.484375 5.24609375 C2.78775932 9.20669098 0.61937932 11.92440351 -1.75 15.0625 C-2.41515625 15.97999023 -2.41515625 15.97999023 -3.09375 16.91601562 C-8.10813987 23.73706067 -8.10813987 23.73706067 -11 26 C-15.52309832 25.84047164 -19.99325176 22.52141501 -23.9296875 20.47265625 C-34.61620557 15.34693448 -47.68810296 13.85198143 -59 17.75 C-64.24511679 19.91065218 -67.8205055 22.23075825 -71 27 C-71.83143572 32.08488582 -71.64399171 35.91326399 -69 40.375 C-61.92158401 46.56861399 -53.39145174 48.47902153 -44.5 50.875 C-3.10026695 62.41701961 -3.10026695 62.41701961 6.7890625 79 C12.35761826 89.76763388 14.02274412 100.42888731 10.375 112.25 C6.04710767 123.72570056 -1.76572698 133.52439659 -12.6875 139.3125 C-14.77484433 140.24685987 -16.87970927 141.14302746 -19 142 C-19.96679688 142.41378906 -20.93359375 142.82757812 -21.9296875 143.25390625 C-41.63175301 150.30439603 -67.051285 147.09754759 -86 139 C-102.713251 130.86569474 -102.713251 130.86569474 -105 127 C-104.99261896 120.89588353 -102.6192337 117.33170628 -99.0625 112.6875 C-98.60681641 112.06810547 -98.15113281 111.44871094 -97.68164062 110.81054688 C-95.8963094 108.40309437 -94.12159585 106.12159585 -92 104 C-87.43835048 104.2851031 -83.87300609 106.59025874 -80 108.8125 C-66.34363456 116.38643433 -50.16514427 120.97085198 -34.625 116.875 C-28.5091984 114.72892794 -23.77116889 111.4152303 -19.9375 106.1875 C-18.65499031 101.82696706 -18.49314883 98.32637166 -20 94 C-27.54845997 83.88327702 -43.02410531 81.95777319 -54.48999023 79.078125 C-72.24050669 74.59294092 -88.60611888 67.59686796 -98.61328125 51.38671875 C-103.29508895 41.85165686 -103.56279642 30.87789085 -101.23046875 20.61328125 C-97.26728974 9.03953538 -89.0068598 -0.55511723 -78 -6 C-74.38229169 -7.50040793 -70.73124461 -8.81160638 -67 -10 C-65.99839844 -10.35964844 -64.99679687 -10.71929688 -63.96484375 -11.08984375 C-42.73491314 -17.02084569 -18.41231432 -10.96185461 0 0 Z " fill="#690431" transform="translate(1197,774)"/>
<path d="M0 0 C10.33760323 8.84319561 16.14918899 19.18748971 19.18359375 32.4921875 C20.12121985 49.68199929 17.47106676 64.00602449 5.828125 77.38671875 C-4.42010852 87.99339605 -16.31846473 94.11553612 -31.15625 95.18359375 C-47.26696802 95.44598329 -60.6022285 90.86001065 -72.62890625 79.9296875 C-83.76375295 67.81126267 -88.50393221 54.80549241 -88.20385742 38.45214844 C-87.5695105 24.64652203 -81.77330665 11.50799413 -71.62890625 1.9296875 C-49.86069375 -15.56802498 -22.46421592 -17.69098727 0 0 Z " fill="#FD584A" transform="translate(755.62890625,738.0703125)"/>
<path d="M0 0 C9.67894554 7.62194004 16.35422492 19.77112461 18.75 31.75 C18.86079632 33.16478375 18.9399219 34.58215674 19 36 C19.06316406 37.02867187 19.12632812 38.05734375 19.19140625 39.1171875 C19.73174954 54.76971257 14.74391586 66.55820294 5.1875 78.6875 C4.465625 79.450625 3.74375 80.21375 3 81 C2.34 81 1.68 81 1 81 C1 81.66 1 82.32 1 83 C-0.97490508 84.41795776 -2.91999824 85.69120736 -5 86.9375 C-5.59433838 87.297229 -6.18867676 87.65695801 -6.80102539 88.02758789 C-19.26222406 95.42235003 -33.53526391 96.9256875 -47.71484375 94.31640625 C-57.06774986 91.63620367 -65.49983371 87.35545133 -72 80 C-72.61488281 79.38769531 -73.22976563 78.77539062 -73.86328125 78.14453125 C-83.33435901 68.3524 -88.40983883 55.70662979 -88.3125 42.125 C-88.30831055 41.32707031 -88.30412109 40.52914062 -88.29980469 39.70703125 C-88.18895891 33.94305103 -87.3790883 29.27536971 -85 24 C-84.61714844 22.82824219 -84.61714844 22.82824219 -84.2265625 21.6328125 C-79.71068334 8.33375552 -69.0156057 -1.21186115 -56.859375 -7.66796875 C-37.85929872 -15.70473087 -16.54228123 -11.4748372 0 0 Z " fill="#FC584A" transform="translate(686,858)"/>
<path d="M0 0 C0.79277344 0.33902344 1.58554687 0.67804687 2.40234375 1.02734375 C16.39495274 7.93757772 24.93194764 19.69249835 30 34 C33.88010057 48.17822912 31.26228845 63.69367304 24.1875 76.25 C15.83635802 89.26611905 4.3123482 97.94665499 -10.81445312 101.59643555 C-14.52180213 102.28100301 -18.1772761 102.29727322 -21.9375 102.25 C-22.73236816 102.24178223 -23.52723633 102.23356445 -24.34619141 102.22509766 C-38.35081457 101.95749339 -49.54061167 97.16046954 -59.75 87.34375 C-70.04663393 76.61808965 -75.92589757 64.02840643 -76.25 49.0625 C-75.91838516 35.88081007 -71.2766862 21.33132721 -61.8828125 11.578125 C-43.93379744 -3.46627766 -22.42295378 -9.66451635 0 0 Z " fill="#FC594A" transform="translate(813,851)"/>
<path d="M0 0 C0.57234375 0.40089844 1.1446875 0.80179688 1.734375 1.21484375 C11.1543197 8.42547152 17.40303382 20.64276081 20 32 C20.29000227 35.08904826 20.33393733 38.14873225 20.3125 41.25 C20.30512817 42.50852783 20.30512817 42.50852783 20.29760742 43.79248047 C20.01829744 58.6231244 14.11423644 70.26252716 4 81 C-7.93151415 91.52179758 -22.47005845 94.93553865 -38 94 C-41.52554792 93.37202723 -44.68774266 92.34801171 -48 91 C-48.79664063 90.69449219 -49.59328125 90.38898438 -50.4140625 90.07421875 C-62.97535396 84.59111533 -72.74804256 73.94329868 -77.75 61.375 C-82.18801853 49.54964683 -83.1663703 35.73763077 -78 24 C-77.76796875 23.22914063 -77.5359375 22.45828125 -77.296875 21.6640625 C-73.3502816 9.3986693 -62.17382052 -0.09219478 -51.1015625 -6.015625 C-34.12447976 -13.85120165 -14.97003086 -10.617633 0 0 Z " fill="#FDE8EC" transform="translate(1338,799)"/>
<path d="M0 0 C11.05723315 8.54649299 19.67971456 18.94889693 22.609375 32.90234375 C24.47249103 47.67685389 22.83169502 61.66308219 14.125 74.0625 C12.78282533 75.73521023 11.40993681 77.3839955 10 79 C9.4328125 79.66515625 8.865625 80.3303125 8.28125 81.015625 C-0.66328632 90.71960309 -12.46491086 94.92469651 -25.39453125 96.3828125 C-39.63052374 96.89923303 -52.86848761 91.25973831 -63.34765625 81.7421875 C-75.15844895 69.2892004 -78.44174786 55.2182445 -78.2109375 38.67578125 C-77.87136543 28.08825963 -73.49548123 18.04371065 -66.4375 10.125 C-65.633125 9.42375 -64.82875 8.7225 -64 8 C-63.2575 7.195625 -62.515 6.39125 -61.75 5.5625 C-44.69991293 -10.32508114 -19.72679299 -12.68827325 0 0 Z " fill="#FDE8EC" transform="translate(1699,797)"/>
<path d="M0 0 C9.45742316 7.93329298 17.32083921 19.42284798 19.1484375 31.87890625 C20.60782881 49.28076213 16.22940187 63.69961515 4.8984375 77.12890625 C-3.67157307 86.28747701 -15.97496044 92.43836717 -28.56640625 93 C-42.5977863 93.30079882 -54.94245229 89.20722477 -65.7890625 80.06640625 C-76.30509739 69.90220896 -81.78047848 57.60554217 -82.1953125 43.03881836 C-82.39108667 26.76662003 -78.14905615 15.14446866 -67.05078125 2.890625 C-48.19379343 -15.32029899 -20.45972605 -15.21867294 0 0 Z " fill="#FDE8EC" transform="translate(1013.8515625,800.12109375)"/>
<path d="M0 0 C0.99 0.495 0.99 0.495 2 1 C2.33 31.36 2.66 61.72 3 93 C2.01 92.34 1.02 91.68 0 91 C-0.28611093 88.06942931 -0.37805361 85.35112474 -0.34057617 82.41943359 C-0.34101425 81.53156662 -0.34145233 80.64369965 -0.34190369 79.72892761 C-0.33980852 76.78520957 -0.3164433 73.84205642 -0.29296875 70.8984375 C-0.28737538 68.86105663 -0.28310406 66.82367174 -0.28010559 64.7862854 C-0.26863643 59.41692008 -0.23915143 54.04779719 -0.20599365 48.67852783 C-0.17533737 43.20238525 -0.16160977 37.72620361 -0.14648438 32.25 C-0.11428372 21.49989333 -0.06306238 10.7499668 0 0 Z " fill="#682441" transform="translate(1537,824)"/>
<path d="M0 0 C1.32 0.33 2.64 0.66 4 1 C3.67 49.18 3.34 97.36 3 147 C2.67 147 2.34 147 2 147 C1.99576806 146.2545524 1.99153612 145.5091048 1.98717594 144.74106789 C1.88397988 126.62289798 1.77535885 108.50476809 1.66066074 90.38666725 C1.60532571 81.62497936 1.55184326 72.8632874 1.50268555 64.1015625 C1.45984713 56.46700137 1.41357002 48.83247026 1.36312145 41.19795549 C1.33651774 37.15360287 1.3116646 33.10925622 1.29092598 29.06486893 C1.27136823 25.26135146 1.24722707 21.45789115 1.21950912 17.65442467 C1.21013411 16.25557554 1.20246045 14.85671387 1.19658089 13.45784569 C1.18832746 11.55362867 1.17346175 9.64944367 1.15821838 7.74526978 C1.15176583 6.6778335 1.14531328 5.61039722 1.1386652 4.5106144 C1.16686308 2.00271985 1.16686308 2.00271985 0 0 Z " fill="#F8C9D7" transform="translate(1060,767)"/>
<path d="M0 0 C1.9375 0.75 1.9375 0.75 4 2 C4.75 4.125 4.75 4.125 5 6 C5.66 6 6.32 6 7 6 C7 6.66 7 7.32 7 8 C9.475 8.99 9.475 8.99 12 10 C12 10.99 12 11.98 12 13 C12.721875 13.0825 13.44375 13.165 14.1875 13.25 C17.59321217 14.15818991 19.30050938 15.76139802 22 18 C29.57579035 22.19086275 35.78273731 23.30367598 44.3125 23.1875 C45.23095703 23.18685547 46.14941406 23.18621094 47.09570312 23.18554688 C51.37853131 23.54473364 51.37853131 23.54473364 55 22 C56.51928038 21.92820036 58.04167482 21.91607993 59.5625 21.9375 C60.38878906 21.94652344 61.21507812 21.95554687 62.06640625 21.96484375 C63.02353516 21.98224609 63.02353516 21.98224609 64 22 C53.95410044 27.22035829 41.64542353 27.47848486 30.70703125 24.95703125 C20.13059505 21.21788714 9.99130304 15.29972776 3.125 6.3125 C2.52945313 5.54550781 1.93390625 4.77851562 1.3203125 3.98828125 C0 2 0 2 0 0 Z " fill="#E36A60" transform="translate(676,807)"/>
<path d="M0 0 C2 1 2 1 2.8515625 2.80078125 C6.8604343 15.81949118 7.0547581 31.63361528 1 44 C-0.86549382 47.43068863 -2.84067891 50.7466229 -5 54 C-5.640625 52.1796875 -5.640625 52.1796875 -6 50 C-5.2575 49.05125 -4.515 48.1025 -3.75 47.125 C2.36204692 39.03802984 2.25879245 28.10487061 2.3125 18.375 C2.31805908 17.50979736 2.32361816 16.64459473 2.3293457 15.75317383 C2.2800747 11.47586116 1.98510049 8.82319279 0 5 C-0.125 2.25 -0.125 2.25 0 0 Z " fill="#E86860" transform="translate(839,878)"/>
<path d="M0 0 C2.33984375 1.63671875 2.33984375 1.63671875 4 3 C-0.3364931 3.37169941 -2.39027353 2.31392722 -6 0 C-11.37574952 -1.7588824 -17.22422766 -1.22547659 -22.8125 -1.25 C-24.55756836 -1.2809375 -24.55756836 -1.2809375 -26.33789062 -1.3125 C-32.66506977 -1.34130901 -37.46275833 -1.18179019 -43 2 C-43.66 2.66 -44.32 3.32 -45 4 C-47.32275177 4.40047444 -49.65739357 4.7397104 -52 5 C-40.28399887 -8.14889335 -14.80434709 -6.9272297 0 0 Z " fill="#E56254" transform="translate(674,851)"/>
<path d="M0 0 C0 0.66 0 1.32 0 2 C-0.95712891 2.29003906 -0.95712891 2.29003906 -1.93359375 2.5859375 C-2.75988281 2.84632813 -3.58617187 3.10671875 -4.4375 3.375 C-5.26121094 3.63023437 -6.08492187 3.88546875 -6.93359375 4.1484375 C-9.17798016 4.80882227 -9.17798016 4.80882227 -10 7 C-20.12136149 7.4271618 -28.65172427 7.52270791 -38 3 C-34.38332417 1.74807375 -31.71614839 2.32100005 -28 3 C-19.71549061 3.52154296 -12.3098007 2.96111892 -4.328125 0.65625 C-2 0 -2 0 0 0 Z " fill="#FDD8D3" transform="translate(742,829)"/>
<path d="M0 0 C4.71115142 7.06672712 3.87047314 18.4161771 2.3125 26.5 C-1.4974631 41.33164207 -1.4974631 41.33164207 -7 45 C-7.1875 42.6875 -7.1875 42.6875 -7 40 C-6.02149805 38.97895449 -5.02019573 37.9793879 -4 37 C-3.27802838 34.39388923 -3.27802838 34.39388923 -3 32 C-2.34 32 -1.68 32 -1 32 C0.05728087 25.14016191 0.11639843 18.43216776 0.0625 11.5 C0.05798828 10.39140625 0.05347656 9.2828125 0.04882812 8.140625 C0.03713158 5.42702601 0.02074086 2.71354239 0 0 Z " fill="#E66F67" transform="translate(772,764)"/>
<path d="M0 0 C0.75539063 0.28875 1.51078125 0.5775 2.2890625 0.875 C13.53319762 4.66693316 24.25517064 4.41478615 36 4 C33.80655406 6.67143658 32.58587449 7.88378687 29.14453125 8.56640625 C21.92272554 8.55793989 15.61529392 7.67640705 8.6875 5.6875 C7.94024658 5.47488525 7.19299316 5.26227051 6.4230957 5.04321289 C4.32421875 4.38671875 4.32421875 4.38671875 1 3 C0.67 2.01 0.34 1.02 0 0 Z " fill="#FED9D6" transform="translate(628,948)"/>
<path d="M0 0 C1.32 0.33 2.64 0.66 4 1 C2.17215398 1.96875839 0.33739059 2.92446873 -1.5 3.875 C-2.5209375 4.40867187 -3.541875 4.94234375 -4.59375 5.4921875 C-11.45191966 8.52802866 -17.6703508 9.30692524 -25.125 9.1875 C-25.89714844 9.18685547 -26.66929687 9.18621094 -27.46484375 9.18554688 C-31.74657696 9.15272269 -35.78473393 8.84170648 -40 8 C-40 7.67 -40 7.34 -40 7 C-39.21761963 6.97494385 -38.43523926 6.9498877 -37.62915039 6.92407227 C-34.10675051 6.80850212 -30.5846444 6.68560051 -27.0625 6.5625 C-25.83080078 6.52318359 -24.59910156 6.48386719 -23.33007812 6.44335938 C-22.16025391 6.40146484 -20.99042969 6.35957031 -19.78515625 6.31640625 C-18.70113525 6.27974854 -17.61711426 6.24309082 -16.50024414 6.20532227 C-14.060737 6.27635735 -14.060737 6.27635735 -13 5 C-10.66702567 4.95907063 -8.33294775 4.95758277 -6 5 C-6 4.34 -6 3.68 -6 3 C-4.02 2.67 -2.04 2.34 0 2 C0 1.34 0 0.68 0 0 Z " fill="#E4675E" transform="translate(816,944)"/>
<path d="M0 0 C-0.309375 0.763125 -0.61875 1.52625 -0.9375 2.3125 C-1.67893593 4.18789677 -2.36228217 6.08684652 -3 8 C-4.60875 8.556875 -4.60875 8.556875 -6.25 9.125 C-11.33266423 11.06622289 -12.7546081 15.35784147 -15 20 C-15.66 20.99 -16.32 21.98 -17 23 C-17.66 23 -18.32 23 -19 23 C-17.64329682 14.27833671 -11.06205032 7.44544361 -4.5625 1.8125 C-2 0 -2 0 0 0 Z " fill="#E46D63" transform="translate(622,856)"/>
<path d="M0 0 C0.33 0 0.66 0 1 0 C0.99214478 0.8521106 0.99214478 0.8521106 0.98413086 1.72143555 C0.89778962 12.53376259 0.88138883 23.23336745 2 34 C-2.16127474 29.83872526 -2.25438244 23.93031223 -2.2734375 18.328125 C-2.26570312 17.55984375 -2.25796875 16.7915625 -2.25 16 C-2.25773438 15.23171875 -2.26546875 14.4634375 -2.2734375 13.671875 C-2.25668263 8.74594371 -1.56563275 4.67204694 0 0 Z " fill="#EB6E67" transform="translate(600,884)"/>
<path d="M0 0 C11.06426722 0.4810551 19.53865846 8.47020579 27 16 C28.02930466 17.31084313 29.04092071 18.63693555 30 20 C29.67 20.66 29.34 21.32 29 22 C27.76302083 20.47005208 26.52604167 18.94010417 25.2890625 17.41015625 C24.0333609 15.86733563 24.0333609 15.86733563 22 15 C22 14.34 22 13.68 22 13 C21.030625 12.731875 20.06125 12.46375 19.0625 12.1875 C17.5465625 11.5996875 17.5465625 11.5996875 16 11 C15.67 10.01 15.34 9.02 15 8 C13.948125 7.938125 12.89625 7.87625 11.8125 7.8125 C7.31348023 6.85369251 5.98025935 5.39418426 3 2 C2.01 1.34 1.02 0.68 0 0 Z " fill="#E66B63" transform="translate(736,729)"/>
<path d="M0 0 C1.23943359 -0.00386719 1.23943359 -0.00386719 2.50390625 -0.0078125 C3.35855469 -0.00007812 4.21320312 0.00765625 5.09375 0.015625 C6.37572266 0.00402344 6.37572266 0.00402344 7.68359375 -0.0078125 C8.50988281 -0.00523437 9.33617187 -0.00265625 10.1875 0 C10.93708984 0.00225586 11.68667969 0.00451172 12.45898438 0.00683594 C14.87389143 0.29958542 16.46968608 1.11206743 18.59375 2.265625 C21.25728755 2.78083482 23.88874131 2.99512413 26.59375 3.265625 C26.59375 4.585625 26.59375 5.905625 26.59375 7.265625 C25.92988281 7.06066406 25.26601563 6.85570312 24.58203125 6.64453125 C23.69902344 6.37511719 22.81601562 6.10570312 21.90625 5.828125 C21.03613281 5.56128906 20.16601562 5.29445313 19.26953125 5.01953125 C15.08407485 3.84027127 11.07457295 3.1454041 6.73046875 2.94921875 C5.40112305 2.88637695 5.40112305 2.88637695 4.04492188 2.82226562 C3.13291016 2.78294922 2.22089844 2.74363281 1.28125 2.703125 C0.34990234 2.65994141 -0.58144531 2.61675781 -1.54101562 2.57226562 C-3.82929454 2.46665275 -6.11767372 2.36454748 -8.40625 2.265625 C-5.4774238 0.59556385 -3.36313029 0.0101212 0 0 Z " fill="#FDC9C6" transform="translate(649.40625,844.734375)"/>
<path d="M0 0 C0.66 0.33 1.32 0.66 2 1 C0.125 5.75 0.125 5.75 -1 8 C-1.20092783 9.49579604 -1.36336066 10.99696724 -1.5 12.5 C-1.88888889 16.77777778 -1.88888889 16.77777778 -3 19 C-3.2322646 21.71262116 -3.41936235 24.40773126 -3.5625 27.125 C-3.60568359 27.87910156 -3.64886719 28.63320313 -3.69335938 29.41015625 C-3.7994832 31.27321888 -3.90025001 33.13658524 -4 35 C-8.0579371 28.20456564 -6.36867372 18.81410642 -4.7109375 11.40234375 C-3.53285015 7.4214442 -1.8465594 3.71104657 0 0 Z " fill="#E87975" transform="translate(743,875)"/>
<path d="M0 0 C0.99 0 1.98 0 3 0 C2.83846436 0.72670898 2.67692871 1.45341797 2.51049805 2.20214844 C1.71766297 6.54738516 1.81558989 10.84381879 1.8125 15.25 C1.80025391 16.15363281 1.78800781 17.05726563 1.77539062 17.98828125 C1.76249696 23.96234585 2.50618998 29.21370032 4 35 C3.34 35 2.68 35 2 35 C-2.72354647 23.97839157 -1.57194387 11.67729736 0 0 Z " fill="#FED7D4" transform="translate(667,764)"/>
<path d="M0 0 C0 0.99 0 1.98 0 3 C-1.15757813 2.98839844 -2.31515625 2.97679687 -3.5078125 2.96484375 C-5.04687338 2.95545923 -6.58593601 2.94635974 -8.125 2.9375 C-8.88554688 2.92912109 -9.64609375 2.92074219 -10.4296875 2.91210938 C-14.7389644 2.89353491 -18.75516474 3.13882735 -23 4 C-23.33 3.01 -23.66 2.02 -24 1 C-22.9275 0.855625 -21.855 0.71125 -20.75 0.5625 C-17.27440116 0.12632634 -17.27440116 0.12632634 -15.0625 -0.5625 C-10.07129787 -1.62123984 -4.91726343 -1.22931586 0 0 Z " fill="#64093C" transform="translate(1161,787)"/>
<path d="M0 0 C2.37693769 0.94844384 3.72152495 1.5245644 5.03588867 3.76855469 C7.04695577 10.00321614 7.42302102 15.72483887 7.3125 22.25 C7.31572266 23.21679688 7.31894531 24.18359375 7.32226562 25.1796875 C7.25702321 33.7916858 7.25702321 33.7916858 5 38 C4 36 4 36 4.4375 33.625 C6.13302315 22.69829528 5.37716577 11.77666503 0 2 C0 1.34 0 0.68 0 0 Z " fill="#FDD4CF" transform="translate(769,756)"/>
<path d="M0 0 C1.83498047 -0.00386719 1.83498047 -0.00386719 3.70703125 -0.0078125 C6.67767156 0.10554527 9.3064481 0.43354754 12.1875 1.125 C12.1875 1.785 12.1875 2.445 12.1875 3.125 C5.2575 3.125 -1.6725 3.125 -8.8125 3.125 C-8.8125 2.465 -8.8125 1.805 -8.8125 1.125 C-5.88323378 -0.33963311 -3.25993219 -0.00682708 0 0 Z " fill="#6A233C" transform="translate(980.8125,760.875)"/>
<path d="M0 0 C0.66 0 1.32 0 2 0 C4.69595746 5.73277538 4.37213064 11.31652333 4.37060547 17.54760742 C4.37499582 19.56058335 4.41140747 21.57139321 4.44921875 23.58398438 C4.45308594 24.85693359 4.45695313 26.12988281 4.4609375 27.44140625 C4.46915527 28.60357666 4.47737305 29.76574707 4.48583984 30.96313477 C3.90714241 34.58042994 2.80474399 35.73751578 0 38 C0.32484375 36.72125 0.6496875 35.4425 0.984375 34.125 C2.11062415 29.03897029 2.29793585 24.19305056 2.25 19 C2.26160156 17.74316406 2.26160156 17.74316406 2.2734375 16.4609375 C2.25560014 10.69947123 1.41857389 5.58422738 0 0 Z " fill="#FEC6C3" transform="translate(841,881)"/>
<path d="M0 0 C2.45070549 3.67605823 2.26594883 6.44254667 2.1875 10.6875 C2.17960449 11.40921387 2.17170898 12.13092773 2.16357422 12.87451172 C2.05281281 19.77759964 1.89004277 26.61148441 -1 33 C-3.07421875 34.1640625 -3.07421875 34.1640625 -5 35 C-4.80664062 34.443125 -4.61328125 33.88625 -4.4140625 33.3125 C-4.15367187 32.549375 -3.89328125 31.78625 -3.625 31 C-3.24214844 29.88625 -3.24214844 29.88625 -2.8515625 28.75 C-0.67788345 21.73041262 0.28008009 15.82455209 0.125 8.5 C0.11597656 7.67757812 0.10695313 6.85515625 0.09765625 6.0078125 C0.07436865 4.00507917 0.03850959 2.00249846 0 0 Z " fill="#FCCBC1" transform="translate(704,890)"/>
<path d="M0 0 C0.66 0 1.32 0 2 0 C1.89171875 0.87398437 1.89171875 0.87398437 1.78125 1.765625 C0.56754666 12.48667116 0.67121287 22.43728694 3 33 C2.01 32.67 1.02 32.34 0 32 C-0.89704677 25.87729986 -1.15252384 19.93368835 -1.125 13.75 C-1.12886719 12.86570312 -1.13273438 11.98140625 -1.13671875 11.0703125 C-1.13542969 10.21695313 -1.13414062 9.36359375 -1.1328125 8.484375 C-1.13168457 7.71834961 -1.13055664 6.95232422 -1.12939453 6.16308594 C-0.99958485 3.99306 -0.59640404 2.08593348 0 0 Z " fill="#FCDAD2" transform="translate(737,884)"/>
<path d="M0 0 C0.53625 0.13277344 1.0725 0.26554688 1.625 0.40234375 C9.69918795 2.22169202 17.75981434 2.61150489 26 3 C26 3.66 26 4.32 26 5 C8.14350797 5.55353075 8.14350797 5.55353075 0 2 C0 1.34 0 0.68 0 0 Z " fill="#FED0D2" transform="translate(772,950)"/>
<path d="M0 0 C1.76923828 0.01353516 1.76923828 0.01353516 3.57421875 0.02734375 C4.47785156 0.03894531 5.38148437 0.05054688 6.3125 0.0625 C6.3125 1.0525 6.3125 2.0425 6.3125 3.0625 C-0.2875 3.0625 -6.8875 3.0625 -13.6875 3.0625 C-8.65247313 0.54498657 -5.56462326 -0.05509528 0 0 Z " fill="#EAC3D1" transform="translate(1150.6875,788.9375)"/>
<path d="M0 0 C0.66 0.99 1.32 1.98 2 3 C1.01 3.33 0.02 3.66 -1 4 C-1.12375 4.78375 -1.2475 5.5675 -1.375 6.375 C-2 9 -2 9 -4 11 C-4.495 12.155 -4.99 13.31 -5.5 14.5 C-7 18 -7 18 -9 20 C-8.41082252 12.53708519 -4.56688199 5.79539995 0 0 Z " fill="#E76B64" transform="translate(679,746)"/>
<path d="M0 0 C-3.13029389 3.7276205 -5.33568777 4.59324873 -10.125 5.1875 C-14.20349202 5.63232509 -14.20349202 5.63232509 -18 7 C-18.66 6.34 -19.32 5.68 -20 5 C-17.79567015 4.15450362 -15.58751467 3.32357186 -13.375 2.5 C-11.53035156 1.80390625 -11.53035156 1.80390625 -9.6484375 1.09375 C-6.18957134 0.05683081 -3.57814964 -0.22019382 0 0 Z " fill="#6A1739" transform="translate(1294,763)"/>
<path d="M0 0 C0.66 0 1.32 0 2 0 C2.37125 0.886875 2.7425 1.77375 3.125 2.6875 C4.76988993 5.5934722 5.57911712 6.67593911 8.0625 8.625 C10.71986402 10.77350708 11.94492163 11.83476489 13 15 C13 15.99 13 16.98 13 18 C1.71992481 7.05169173 1.71992481 7.05169173 0 0 Z " fill="#E6655E" transform="translate(604,923)"/>
<path d="M0 0 C0.66 0 1.32 0 2 0 C1.5837413 6.38263338 -0.65350796 11.55804099 -4 17 C-4.66 17.33 -5.32 17.66 -6 18 C-5.34 15.03 -4.68 12.06 -4 9 C-3.34 9 -2.68 9 -2 9 C-1.855625 8.071875 -1.71125 7.14375 -1.5625 6.1875 C-1 3 -1 3 0 0 Z " fill="#E36958" transform="translate(701,912)"/>
<path d="M0 0 C6.6 0 13.2 0 20 0 C19.67 0.66 19.34 1.32 19 2 C14.92342562 3.20255163 10.91035258 3.10196591 6.6875 3.0625 C5.43324219 3.05347656 4.17898438 3.04445313 2.88671875 3.03515625 C1.93410156 3.02355469 0.98148438 3.01195312 0 3 C0 2.01 0 1.02 0 0 Z " fill="#E5B9CC" transform="translate(1142,920)"/>
<path d="M0 0 C0 0.33 0 0.66 0 1 C-0.99580078 1.16435547 -0.99580078 1.16435547 -2.01171875 1.33203125 C-6.99718829 2.22723235 -10.73856416 3.15904278 -15 6 C-18.1875 7.25 -18.1875 7.25 -21 8 C-21.66 7.67 -22.32 7.34 -23 7 C-8.10539423 -2.2677547 -8.10539423 -2.2677547 0 0 Z " fill="#E86E65" transform="translate(645,848)"/>
<path d="M0 0 C8.54789605 0.62166517 15.55669088 3.18023692 22 9 C18.44219804 8.39009109 15.3171411 7.4216319 12 6 C12 5.34 12 4.68 12 4 C9.69 4 7.38 4 5 4 C4.67 3.34 4.34 2.68 4 2 C1.98330173 0.86649466 1.98330173 0.86649466 0 0 Z " fill="#E26A61" transform="translate(800,848)"/>
<path d="M0 0 C-2.77994451 1.85329634 -4.78256551 2.68563605 -7.9375 3.625 C-9.21947266 4.01558594 -9.21947266 4.01558594 -10.52734375 4.4140625 C-13 5 -13 5 -17 5 C-16.30078125 3.046875 -16.30078125 3.046875 -15 1 C-12.79296875 0.390625 -12.79296875 0.390625 -10.1875 0.25 C-9.33542969 0.19328125 -8.48335937 0.1365625 -7.60546875 0.078125 C-5.06832717 0.00204879 -2.53810969 -0.018227 0 0 Z " fill="#6A163B" transform="translate(1009,915)"/>
<path d="M0 0 C1.41152344 -0.02126953 1.41152344 -0.02126953 2.8515625 -0.04296875 C5.375 0.1875 5.375 0.1875 8.375 2.1875 C6.31269732 2.3565907 4.2501477 2.52267133 2.1875 2.6875 C0.46466797 2.82671875 0.46466797 2.82671875 -1.29296875 2.96875 C-4.08572426 3.1520962 -6.82819812 3.22963637 -9.625 3.1875 C-9.955 2.5275 -10.285 1.8675 -10.625 1.1875 C-7.03614625 0.37185142 -3.67914195 0.02533844 0 0 Z " fill="#70273E" transform="translate(1671.625,760.8125)"/>
<path d="M0 0 C3.86055058 2.81373462 6.30356165 5.56915631 8.8125 9.625 C9.41707031 10.58664062 10.02164063 11.54828125 10.64453125 12.5390625 C12 15 12 15 12 17 C11.01 16.67 10.02 16.34 9 16 C8.66666667 14.66666667 8.33333333 13.33333333 8 12 C7.01 11.67 6.02 11.34 5 11 C3.91698965 8.70401807 2.92203709 6.36522558 2 4 C1.34711373 2.65986503 0.68774405 1.32258472 0 0 Z " fill="#E06D5F" transform="translate(688,861)"/>
<path d="M0 0 C-0.99 0.33 -1.98 0.66 -3 1 C-3.33 1.66 -3.66 2.32 -4 3 C-9.19209404 3.21192221 -13.126739 2.5912689 -18 1 C-18 0.67 -18 0.34 -18 0 C-15.75067773 -0.1954625 -13.50049858 -0.38108226 -11.25 -0.5625 C-9.99703125 -0.66691406 -8.7440625 -0.77132812 -7.453125 -0.87890625 C-4.60547636 -0.97876723 -2.65713933 -0.90584295 0 0 Z " fill="#FECCC5" transform="translate(664,953)"/>
<path d="M0 0 C-0.309375 0.763125 -0.61875 1.52625 -0.9375 2.3125 C-1.67893593 4.18789677 -2.36228217 6.08684652 -3 8 C-4.98 8.33 -6.96 8.66 -9 9 C-7.67183131 4.6532661 -5.0855272 0 0 0 Z " fill="#E9665C" transform="translate(622,856)"/>
<path d="M0 0 C0.66 0.66 1.32 1.32 2 2 C-0.64 5.3 -3.28 8.6 -6 12 C-6.66 11.67 -7.32 11.34 -8 11 C-7.67 9.68 -7.34 8.36 -7 7 C-6.01 7 -5.02 7 -4 7 C-3.67 5.35 -3.34 3.7 -3 2 C-2.01 2 -1.02 2 0 2 C0 1.34 0 0.68 0 0 Z " fill="#FEDDD2" transform="translate(612,860)"/>
<path d="M0 0 C3.14292072 2.09528048 3.50856669 2.58783233 4.6875 5.9375 C4.93886719 6.62714844 5.19023438 7.31679688 5.44921875 8.02734375 C6 10 6 10 6 13 C6.66 13 7.32 13 8 13 C7.67 13.99 7.34 14.98 7 16 C3.98270581 14.49135291 3.63407458 12.19537486 2.375 9.125 C1.92898438 8.05507813 1.48296875 6.98515625 1.0234375 5.8828125 C0 3 0 3 0 0 Z " fill="#E66759" transform="translate(739,912)"/>
<path d="M0 0 C0.66 0.33 1.32 0.66 2 1 C0.125 5.75 0.125 5.75 -1 8 C-1.27024708 10.29924497 -1.44497841 12.59801487 -1.62109375 14.90625 C-2 17 -2 17 -4 19 C-4.55253221 11.64825194 -3.51064108 6.488417 0 0 Z " fill="#E5665C" transform="translate(743,875)"/>
<path d="M0 0 C-1.89564426 0.79211929 -3.79152371 1.58367576 -5.6875 2.375 C-6.74324219 2.81585937 -7.79898438 3.25671875 -8.88671875 3.7109375 C-11.58356657 4.82757462 -14.28716264 5.92291801 -17 7 C-17 5.68 -17 4.36 -17 3 C-14.36 2.67 -11.72 2.34 -9 2 C-9 1.34 -9 0.68 -9 0 C-5.5657338 -0.85856655 -3.38317487 -0.97591583 0 0 Z " fill="#FDD5CB" transform="translate(637,849)"/>
<path d="M0 0 C0.66 0.99 1.32 1.98 2 3 C1.375 4.875 1.375 4.875 0 7 C-3 8.3125 -3 8.3125 -6 9 C-6.66 8.67 -7.32 8.34 -8 8 C-7.01 7.67 -6.02 7.34 -5 7 C-5 6.34 -5 5.68 -5 5 C-3.37446717 3.29319053 -1.70884005 1.62339805 0 0 Z " fill="#FAE0D0" transform="translate(692,934)"/>
<path d="M0 0 C0.7425 0.28875 1.485 0.5775 2.25 0.875 C7.42158657 2.42647597 12.66907548 3.1891474 18 4 C18 4.33 18 4.66 18 5 C15.93816367 5.08150744 13.87538651 5.1394194 11.8125 5.1875 C10.08966797 5.23970703 10.08966797 5.23970703 8.33203125 5.29296875 C4.70842376 4.97436317 2.85360856 4.21947332 0 2 C0 1.34 0 0.68 0 0 Z " fill="#5C0D2F" transform="translate(1730,912)"/>
<path d="M0 0 C1 3 1 3 0.00390625 5.48046875 C-0.47175781 6.37378906 -0.94742187 7.26710938 -1.4375 8.1875 C-1.91058594 9.08855469 -2.38367187 9.98960937 -2.87109375 10.91796875 C-3.24363281 11.60503906 -3.61617187 12.29210937 -4 13 C-4.66 13 -5.32 13 -6 13 C-5.58221009 7.2902045 -3.42453429 4.39042858 0 0 Z " fill="#6A1838" transform="translate(1098,887)"/>
<path d="M0 0 C2.15377564 2.62198774 3.40072174 4.64404172 4 8 C3.34 8 2.68 8 2 8 C1.34 7.34 0.68 6.68 0 6 C-2.10820797 6.3185177 -2.10820797 6.3185177 -4 7 C-3.43628586 3.73045798 -2.50037734 2.17424117 0 0 Z " fill="#F1C9E0" transform="translate(1032,900)"/>
<path d="M0 0 C4.29 0 8.58 0 13 0 C13.33 0.66 13.66 1.32 14 2 C9.38 2.33 4.76 2.66 0 3 C0 2.01 0 1.02 0 0 Z " fill="#712A48" transform="translate(1431,767)"/>
<path d="M0 0 C0.84256348 0.23771118 0.84256348 0.23771118 1.70214844 0.48022461 C4.09674429 1.02188362 6.31438553 1.20641474 8.765625 1.31640625 C9.65507813 1.35830078 10.54453125 1.40019531 11.4609375 1.44335938 C12.38132812 1.48267578 13.30171875 1.52199219 14.25 1.5625 C15.18585938 1.60568359 16.12171875 1.64886719 17.0859375 1.69335938 C19.39048641 1.7991805 21.69513839 1.90126557 24 2 C24 2.33 24 2.66 24 3 C20.37515001 3.08681476 16.75056557 3.14032721 13.125 3.1875 C11.57619141 3.22520508 11.57619141 3.22520508 9.99609375 3.26367188 C9.00996094 3.27333984 8.02382812 3.28300781 7.0078125 3.29296875 C5.64100342 3.31653442 5.64100342 3.31653442 4.24658203 3.34057617 C3.50520996 3.22818604 2.76383789 3.1157959 2 3 C1.34 2.01 0.68 1.02 0 0 Z " fill="#590329" transform="translate(1428,914)"/>
<path d="M0 0 C-1.95585325 1.00484204 -3.91476237 2.00373805 -5.875 3 C-6.96554687 3.556875 -8.05609375 4.11375 -9.1796875 4.6875 C-12 6 -12 6 -14 6 C-14 5.34 -14 4.68 -14 4 C-13.29875 3.731875 -12.5975 3.46375 -11.875 3.1875 C-8.90908254 2.02036103 -8.90908254 2.02036103 -5.875 0.3125 C-3 -1 -3 -1 0 0 Z " fill="#FBD3E4" transform="translate(1011,884)"/>
<path d="M0 0 C0.33 0 0.66 0 1 0 C1 3.96 1 7.92 1 12 C0.01 12.33 -0.98 12.66 -2 13 C-1.85966889 11.02043559 -1.7125877 9.04134859 -1.5625 7.0625 C-1.48128906 5.96035156 -1.40007812 4.85820313 -1.31640625 3.72265625 C-1 1 -1 1 0 0 Z " fill="#681139" transform="translate(1230,824)"/>
<path d="M0 0 C0.66 0 1.32 0 2 0 C1.67 4.95 1.34 9.9 1 15 C-0.65 13.35 -2.3 11.7 -4 10 C-3.01 9.67 -2.02 9.34 -1 9 C-0.67 6.03 -0.34 3.06 0 0 Z " fill="#FCCCE8" transform="translate(1032,767)"/>
<path d="M0 0 C0.99 0 1.98 0 3 0 C2.84660156 0.66386719 2.69320312 1.32773437 2.53515625 2.01171875 C1.89226979 5.60155922 1.64966009 9.17795419 1.4375 12.8125 C1.39431641 13.50537109 1.35113281 14.19824219 1.30664062 14.91210938 C1.20138547 16.60788686 1.10027137 18.30392052 1 20 C0.67 20 0.34 20 0 20 C0 13.4 0 6.8 0 0 Z " fill="#FECDC7" transform="translate(667,764)"/>
<path d="M0 0 C1.32 0 2.64 0 4 0 C3.34 3.3 2.68 6.6 2 10 C1.34 9.67 0.68 9.34 0 9 C0 6.03 0 3.06 0 0 Z " fill="#650C34" transform="translate(930,824)"/>
<path d="M0 0 C0.66 0.33 1.32 0.66 2 1 C-0.97 3.64 -3.94 6.28 -7 9 C-7.66 8.01 -8.32 7.02 -9 6 C-7.68 6 -6.36 6 -5 6 C-5 4.68 -5 3.36 -5 2 C-2.625 0.9375 -2.625 0.9375 0 0 Z " fill="#EB6D5D" transform="translate(760,814)"/>
<path d="M0 0 C1.5 1.3125 1.5 1.3125 3 3 C3 3.99 3 4.98 3 6 C3.99 6 4.98 6 6 6 C6 8.31 6 10.62 6 13 C3.12744934 10.57804552 2.29161081 8.40257297 1.3125 4.8125 C1.06113281 3.91144531 0.80976562 3.01039063 0.55078125 2.08203125 C0.36902344 1.39496094 0.18726563 0.70789063 0 0 Z " fill="#E8675E" transform="translate(670,794)"/>
<path d="M0 0 C1.485 0.99 1.485 0.99 3 2 C3.1875 4.625 3.1875 4.625 3 7 C1.68 7.33 0.36 7.66 -1 8 C-1.125 2.25 -1.125 2.25 0 0 Z " fill="#5D0C27" transform="translate(1197,775)"/>
<path d="M0 0 C0 2.83967231 -0.40267181 5.23735711 -1 8 C-1.66 8 -2.32 8 -3 8 C-3 7.34 -3 6.68 -3 6 C-4.32 5.67 -5.64 5.34 -7 5 C-4.69 3.35 -2.38 1.7 0 0 Z " fill="#651235" transform="translate(1473,768)"/>
<path d="M0 0 C3.63 2.31 7.26 4.62 11 7 C8 8 8 8 5 8 C3.3125 6.625 3.3125 6.625 2 5 C2 4.34 2 3.68 2 3 C1.34 3 0.68 3 0 3 C0 2.01 0 1.02 0 0 Z " fill="#FED7D7" transform="translate(616,940)"/>
<path d="M0 0 C0.33 0.66 0.66 1.32 1 2 C0.22265625 4.1640625 0.22265625 4.1640625 -0.9375 6.625 C-1.31777344 7.44226563 -1.69804688 8.25953125 -2.08984375 9.1015625 C-2.39019531 9.72804688 -2.69054687 10.35453125 -3 11 C-3.33 11 -3.66 11 -4 11 C-4.35233161 5.62694301 -4.35233161 5.62694301 -4 3 C-2 1 -2 1 0 0 Z " fill="#FCCECD" transform="translate(744,871)"/>
<path d="M0 0 C0.33 0 0.66 0 1 0 C1.33 4.95 1.66 9.9 2 15 C1.01 15 0.02 15 -1 15 C-0.67 10.05 -0.34 5.1 0 0 Z " fill="#76224C" transform="translate(1358,838)"/>
<path d="M0 0 C1.9375 0.75 1.9375 0.75 4 2 C4.75 4.125 4.75 4.125 5 6 C5.66 6 6.32 6 7 6 C7.33 7.65 7.66 9.3 8 11 C2.19794344 5.35475578 2.19794344 5.35475578 0 2 C0 1.34 0 0.68 0 0 Z " fill="#DF6A5A" transform="translate(676,807)"/>
<path d="M0 0 C0 1.66666667 0 3.33333333 0 5 C-1.95927063 6.7143618 -3.95880212 8.38405168 -6 10 C-6.66 9.67 -7.32 9.34 -8 9 C-7.67 8.01 -7.34 7.02 -7 6 C-6.67 6.33 -6.34 6.66 -6 7 C-4.02 4.69 -2.04 2.38 0 0 Z " fill="#782448" transform="translate(1464,774)"/>
<path d="M0 0 C3.47725069 3.63530754 4.46026213 8.11537223 5 13 C4.67 13.99 4.34 14.98 4 16 C3.32586789 14.08594633 2.6609668 12.16863974 2 10.25 C1.62875 9.18265625 1.2575 8.1153125 0.875 7.015625 C0 4 0 4 0 0 Z " fill="#E1635B" transform="translate(768,755)"/>
<path d="M0 0 C1.65 0 3.3 0 5 0 C5 0.66 5 1.32 5 2 C5.66 2 6.32 2 7 2 C7.66 3.32 8.32 4.64 9 6 C4.58763974 6 3.21615077 3.9302707 0 1 C0 0.67 0 0.34 0 0 Z " fill="#FBD7CF" transform="translate(753,736)"/>
<path d="M0 0 C0.66 0.33 1.32 0.66 2 1 C1.07038578 2.15224028 0.1309875 3.29659176 -0.8125 4.4375 C-1.59560547 5.39462891 -1.59560547 5.39462891 -2.39453125 6.37109375 C-4 8 -4 8 -7 9 C-6.67 7.35 -6.34 5.7 -6 4 C-5.01 4 -4.02 4 -3 4 C-1.29467677 2.05990478 -1.29467677 2.05990478 0 0 Z " fill="#E26C5F" transform="translate(831,932)"/>
<path d="M0 0 C0.33 0 0.66 0 1 0 C1.10853491 1.74861792 1.18583428 3.49919241 1.25 5.25 C1.29640625 6.22453125 1.3428125 7.1990625 1.390625 8.203125 C1 11 1 11 -3 15 C-2.01 10.05 -1.02 5.1 0 0 Z " fill="#FFD4CE" transform="translate(844,904)"/>
<path d="M0 0 C0.66 0.33 1.32 0.66 2 1 C0.35 2.98 -1.3 4.96 -3 7 C-3.99 6.67 -4.98 6.34 -6 6 C-2.25 1.125 -2.25 1.125 0 0 Z " fill="#620D2D" transform="translate(1014,881)"/>
<path d="M0 0 C0.99 0 1.98 0 3 0 C3 1.65 3 3.3 3 5 C1.02 5 -0.96 5 -3 5 C-1.125 1.125 -1.125 1.125 0 0 Z " fill="#621334" transform="translate(1709,875)"/>
<path d="M0 0 C2.63978826 3.18595135 5.10498388 6.30970546 7 10 C6.67 10.66 6.34 11.32 6 12 C3.10067643 9.60490662 2.49831724 7.68754757 2 4 C1.34 4 0.68 4 0 4 C0 2.68 0 1.36 0 0 Z " fill="#E26A64" transform="translate(832,866)"/>
<path d="M0 0 C2.0625 0.4375 2.0625 0.4375 4 1 C4 1.99 4 2.98 4 4 C4.66 4 5.32 4 6 4 C5.67 5.32 5.34 6.64 5 8 C3.02 5.69 1.04 3.38 -1 1 C-0.67 0.67 -0.34 0.34 0 0 Z " fill="#601437" transform="translate(1253,896)"/>
<path d="M0 0 C0.33 0 0.66 0 1 0 C1 1.98 1 3.96 1 6 C1.66 6 2.32 6 3 6 C3 8.31 3 10.62 3 13 C1 12 1 12 0 9 C-0.06740865 7.43881572 -0.08514456 5.8749748 -0.0625 4.3125 C-0.05347656 3.50425781 -0.04445313 2.69601562 -0.03515625 1.86328125 C-0.02355469 1.24839844 -0.01195312 0.63351562 0 0 Z " fill="#F9D1EE" transform="translate(1257,840)"/>
<path d="M0 0 C1.485 0.99 1.485 0.99 3 2 C2.71848913 3.31471568 2.42446661 4.62675767 2.125 5.9375 C1.96257812 6.66839844 1.80015625 7.39929688 1.6328125 8.15234375 C1 10 1 10 -1 11 C-0.67 7.37 -0.34 3.74 0 0 Z " fill="#701F42" transform="translate(1593,823)"/>
<path d="M0 0 C0.99 0.33 1.98 0.66 3 1 C2.02471263 2.33617352 1.04466681 3.6688751 0.0625 5 C-0.48277344 5.7425 -1.02804687 6.485 -1.58984375 7.25 C-2.28787109 8.11625 -2.28787109 8.11625 -3 9 C-3.33 9 -3.66 9 -4 9 C-4 7.35 -4 5.7 -4 4 C-3.34 4 -2.68 4 -2 4 C-1.34 2.68 -0.68 1.36 0 0 Z " fill="#F9D5E4" transform="translate(920,787)"/>
<path d="M0 0 C-2.28459758 2.28459758 -4.12537344 2.97129748 -7.125 4.125 C-8.03507812 4.47820313 -8.94515625 4.83140625 -9.8828125 5.1953125 C-10.58148437 5.46085938 -11.28015625 5.72640625 -12 6 C-12 5.34 -12 4.68 -12 4 C-7.9090934 0.68831371 -5.26371362 -0.50130606 0 0 Z " fill="#F1C9DB" transform="translate(1482,764)"/>
<path d="M0 0 C0 0.66 0 1.32 0 2 C-0.66 2 -1.32 2 -2 2 C-2.33 2.99 -2.66 3.98 -3 5 C-4.65 4.67 -6.3 4.34 -8 4 C-8 3.34 -8 2.68 -8 2 C-5.09399739 0.74335022 -3.20395416 0 0 0 Z " fill="#691335" transform="translate(1488,763)"/>
<path d="M0 0 C0.33 0.66 0.66 1.32 1 2 C-3.79300133 3.39151652 -8.15135782 2.68662689 -13 2 C-13 1.67 -13 1.34 -13 1 C-8.59085217 -0.10228696 -4.51617599 -0.07654536 0 0 Z " fill="#F7CFDD" transform="translate(1001,760)"/>
<path d="M0 0 C0 4.31618166 -2.13270348 5.92789659 -5 9 C-5.66 9 -6.32 9 -7 9 C-6.67 7.68 -6.34 6.36 -6 5 C-5.01 5 -4.02 5 -3 5 C-3 4.01 -3 3.02 -3 2 C-2.01 1.34 -1.02 0.68 0 0 Z " fill="#E16F61" transform="translate(694,930)"/>
<path d="M0 0 C5.94 1.485 5.94 1.485 12 3 C12 3.33 12 3.66 12 4 C8.04 3.67 4.08 3.34 0 3 C0 2.01 0 1.02 0 0 Z " fill="#EFC5DB" transform="translate(1134,850)"/>
<path d="M0 0 C1.07349791 4.29399165 0.79682816 5.19495213 -1 9 C-1.99 8.67 -2.98 8.34 -4 8 C-2.68 5.36 -1.36 2.72 0 0 Z " fill="#F8CDE1" transform="translate(939,813)"/>
<path d="M0 0 C1.65 0 3.3 0 5 0 C4.67 0.99 4.34 1.98 4 3 C2.02 3.33 0.04 3.66 -2 4 C-1.34 2.68 -0.68 1.36 0 0 Z " fill="#610A2C" transform="translate(1110,774)"/>
<path d="M0 0 C0.33 0.66 0.66 1.32 1 2 C1.66 2.33 2.32 2.66 3 3 C-0.3 3.33 -3.6 3.66 -7 4 C-6.67 3.01 -6.34 2.02 -6 1 C-4.02 0.67 -2.04 0.34 0 0 Z " fill="#F1D1DA" transform="translate(967,760)"/>
<path d="M0 0 C0.66 0.33 1.32 0.66 2 1 C-1.60957611 4.2910841 -4.12637153 5.54663921 -9 6 C-6.45368965 3.02930459 -3.57769851 1.5224249 0 0 Z " fill="#E56C60" transform="translate(700,730)"/>
<path d="M0 0 C0.33 1.98 0.66 3.96 1 6 C0.01 6 -0.98 6 -2 6 C-2 5.34 -2 4.68 -2 4 C-2.99 3.67 -3.98 3.34 -5 3 C-2.25 0 -2.25 0 0 0 Z " fill="#E8B1CF" transform="translate(1723,900)"/>
<path d="M0 0 C2.64 1.98 5.28 3.96 8 6 C6 7 6 7 3.4375 6.375 C1 5 1 5 0.1875 2.375 C0.125625 1.59125 0.06375 0.8075 0 0 Z " fill="#E46359" transform="translate(822,857)"/>
<path d="M0 0 C3.37503669 1.1858237 5.64722731 2.27573689 8 5 C6.35 5.33 4.7 5.66 3 6 C1 3 1 3 0 0 Z " fill="#E56761" transform="translate(678,854)"/>
<path d="M0 0 C0.66 0.99 1.32 1.98 2 3 C1.34 3.66 0.68 4.32 0 5 C-0.71408334 6.98356483 -1.38617742 8.98315437 -2 11 C-2.66 11 -3.32 11 -4 11 C-3.52269162 9.5410574 -3.04308958 8.08286504 -2.5625 6.625 C-2.29566406 5.81289063 -2.02882813 5.00078125 -1.75390625 4.1640625 C-1 2 -1 2 0 0 Z " fill="#F3C8DD" transform="translate(1462,809)"/>
<path d="M0 0 C0.99 0.33 1.98 0.66 3 1 C2.3125 2.9375 2.3125 2.9375 1 5 C-1.625 5.75 -1.625 5.75 -4 6 C-3.67 5.01 -3.34 4.02 -3 3 C-2.34 3 -1.68 3 -1 3 C-0.67 2.01 -0.34 1.02 0 0 Z " fill="#6F183C" transform="translate(1187,794)"/>
<path d="M0 0 C0.75 1.625 0.75 1.625 1 4 C-0.9375 7.25 -0.9375 7.25 -3 10 C-3.75 8.375 -3.75 8.375 -4 6 C-2.0625 2.75 -2.0625 2.75 0 0 Z " fill="#DD635C" transform="translate(837,922)"/>
<path d="M0 0 C0 1.98 0 3.96 0 6 C-1.98 6.33 -3.96 6.66 -6 7 C-5.16086207 4.48258621 -3.22783875 0 0 0 Z " fill="#EDC0D9" transform="translate(1359,899)"/>
<path d="M0 0 C0.66 0.33 1.32 0.66 2 1 C1.57692877 2.31722179 1.13602514 3.62872664 0.6875 4.9375 C0.44386719 5.66839844 0.20023438 6.39929688 -0.05078125 7.15234375 C-1 9 -1 9 -4 10 C-2.66666667 6.66666667 -1.33333333 3.33333333 0 0 Z " fill="#6E1A3D" transform="translate(1718,860)"/>
<path d="M0 0 C2.97 0.495 2.97 0.495 6 1 C6 1.66 6 2.32 6 3 C6.99 3.33 7.98 3.66 9 4 C8.34 4.66 7.68 5.32 7 6 C5.83054208 5.19152271 4.66449539 4.37810888 3.5 3.5625 C2.8503125 3.11003906 2.200625 2.65757812 1.53125 2.19140625 C1.0259375 1.79824219 0.520625 1.40507813 0 1 C0 0.67 0 0.34 0 0 Z " fill="#65183A" transform="translate(1167,859)"/>
<path d="M0 0 C0.66 0.99 1.32 1.98 2 3 C0.7260411 5.03833424 -0.61061923 7.03852126 -2 9 C-2.66 9 -3.32 9 -4 9 C-2.94124926 5.59687262 -1.99097846 2.98646769 0 0 Z " fill="#F3C5DD" transform="translate(1629,812)"/>
<path d="M0 0 C0.33 0.66 0.66 1.32 1 2 C-1.33679861 5.83902629 -2.86281109 8.20953589 -7 10 C-6.02223933 8.51990357 -5.0427506 7.04094856 -4.0625 5.5625 C-3.51722656 4.73878906 -2.97195313 3.91507813 -2.41015625 3.06640625 C-1 1 -1 1 0 0 Z " fill="#FED1C9" transform="translate(766,808)"/>
<path d="M0 0 C1.32 0.33 2.64 0.66 4 1 C4 1.99 4 2.98 4 4 C3.34 4 2.68 4 2 4 C2 4.66 2 5.32 2 6 C0.68 5.67 -0.64 5.34 -2 5 C-1.34 3.35 -0.68 1.7 0 0 Z " fill="#EDCED7" transform="translate(1200,778)"/>
<path d="M0 0 C1.98 0.99 3.96 1.98 6 3 C6 3.33 6 3.66 6 4 C3.03 3.67 0.06 3.34 -3 3 C-2.01 2.67 -1.02 2.34 0 2 C0 1.34 0 0.68 0 0 Z " fill="#F1C8D7" transform="translate(970,888)"/>
<path d="M0 0 C2.375 0.25 2.375 0.25 5 1 C6.375 2.875 6.375 2.875 7 5 C6.67 5.99 6.34 6.98 6 8 C4.02 5.36 2.04 2.72 0 0 Z " fill="#FDDDCD" transform="translate(687,859)"/>
<path d="M0 0 C7.75 0.875 7.75 0.875 10 2 C9.67 2.66 9.34 3.32 9 4 C7.68 4 6.36 4 5 4 C4.67 3.34 4.34 2.68 4 2 C1.98330173 0.86649466 1.98330173 0.86649466 0 0 Z " fill="#E86753" transform="translate(800,848)"/>
<path d="M0 0 C0 0.99 0 1.98 0 3 C-4.34285714 7 -4.34285714 7 -7 7 C-7 6.01 -7 5.02 -7 4 C-4.69 2.68 -2.38 1.36 0 0 Z " fill="#FED6D4" transform="translate(750,824)"/>
<path d="M0 0 C1.65 0 3.3 0 5 0 C2.47043472 3.0916909 -0.22454612 3.90931332 -4 5 C-4 4.34 -4 3.68 -4 3 C-3.01 2.67 -2.02 2.34 -1 2 C-0.67 1.34 -0.34 0.68 0 0 Z " fill="#E67061" transform="translate(745,824)"/>
<path d="M0 0 C0.66 0.99 1.32 1.98 2 3 C-0.8125 4.5625 -0.8125 4.5625 -4 6 C-4.99 5.67 -5.98 5.34 -7 5 C-4.69 3.35 -2.38 1.7 0 0 Z " fill="#EDCBD7" transform="translate(956,796)"/>
<path d="M0 0 C0.66 0 1.32 0 2 0 C2 1.65 2 3.3 2 5 C0.02 5.99 0.02 5.99 -2 7 C-2.66 6.34 -3.32 5.68 -4 5 C-3 3 -3 3 0 2 C0 1.34 0 0.68 0 0 Z " fill="#691338" transform="translate(1280,792)"/>
<path d="M0 0 C1 3 1 3 0.3125 5.125 C-1 7 -1 7 -5 8 C-3.35 5.36 -1.7 2.72 0 0 Z " fill="#FDD1CE" transform="translate(698,926)"/>
<path d="M0 0 C1.95216435 3.90432869 2.50639991 6.72213252 3 11 C2.01 10.67 1.02 10.34 0 10 C0 6.7 0 3.4 0 0 Z " fill="#FCC7BB" transform="translate(737,906)"/>
<path d="M0 0 C1.65 0 3.3 0 5 0 C5.33 0.66 5.66 1.32 6 2 C6.99 2.66 7.98 3.32 9 4 C8.01 4.495 8.01 4.495 7 5 C4.5249829 3.88568235 2.32116581 2.41849022 0 1 C0 0.67 0 0.34 0 0 Z " fill="#610F34" transform="translate(1266,908)"/>
<path d="M0 0 C2.64 0.33 5.28 0.66 8 1 C7.67 1.99 7.34 2.98 7 4 C5.35 4 3.7 4 2 4 C2 3.34 2 2.68 2 2 C1.34 2 0.68 2 0 2 C0 1.34 0 0.68 0 0 Z " fill="#5C062D" transform="translate(1142,892)"/>
<path d="M0 0 C2.31 0.33 4.62 0.66 7 1 C3.81237635 3.12508244 1.73487777 3.5020163 -2 4 C-1.34 2.68 -0.68 1.36 0 0 Z " fill="#F6D3E4" transform="translate(1682,888)"/>
<path d="M0 0 C1.98 1.65 3.96 3.3 6 5 C5.67 5.66 5.34 6.32 5 7 C3.0625 6.3125 3.0625 6.3125 1 5 C0.25 2.375 0.25 2.375 0 0 Z " fill="#570829" transform="translate(944,876)"/>
<path d="M0 0 C4.95 1.98 4.95 1.98 10 4 C10 4.33 10 4.66 10 5 C5.75776898 5.3636198 3.41831915 4.5393228 0 2 C0 1.34 0 0.68 0 0 Z " fill="#E56B6A" transform="translate(668,849)"/>
<path d="M0 0 C2.64 0 5.28 0 8 0 C8.66 1.32 9.32 2.64 10 4 C6.7 3.01 3.4 2.02 0 1 C0 0.67 0 0.34 0 0 Z " fill="#FCC7BE" transform="translate(805,848)"/>
<path d="M0 0 C1.98 0.66 3.96 1.32 6 2 C2.25 5 2.25 5 0 5 C0 3.35 0 1.7 0 0 Z " fill="#F5D6E4" transform="translate(1116,843)"/>
<path d="M0 0 C0.66 0.33 1.32 0.66 2 1 C1.34 2.32 0.68 3.64 0 5 C-1.98 5 -3.96 5 -6 5 C-5.195625 4.360625 -4.39125 3.72125 -3.5625 3.0625 C-1.7249496 1.59396498 -1.7249496 1.59396498 0 0 Z " fill="#F1CADE" transform="translate(1283,795)"/>
<path d="M0 0 C0.33 0.99 0.66 1.98 1 3 C0.01 3.33 -0.98 3.66 -2 4 C-2.73323796 6.01508358 -2.73323796 6.01508358 -3 8 C-3.66 8 -4.32 8 -5 8 C-3.8141763 4.62496331 -2.72426311 2.35277269 0 0 Z " fill="#F0C1D8" transform="translate(1130,795)"/>
<path d="M0 0 C2.64 0 5.28 0 8 0 C7.67 0.66 7.34 1.32 7 2 C3.9375 2.625 3.9375 2.625 1 3 C0.67 2.01 0.34 1.02 0 0 Z " fill="#5F1035" transform="translate(1137,788)"/>
</svg>
