<svg width="400" height="62" viewBox="0 0 400 62" fill="none" xmlns="http://www.w3.org/2000/svg">
<path fill-rule="evenodd" clip-rule="evenodd" d="M96.2741 14.76C100.861 14.76 104.428 16.4796 107.049 20.0622C109.67 23.5731 110.98 28.3736 110.98 34.4639C110.98 40.7692 109.67 45.6414 106.976 49.0807C104.282 52.5915 100.642 54.2395 96.0557 54.2395C91.4693 54.2395 87.9748 52.6632 85.354 49.3673H84.626L83.2428 52.7348C83.0244 53.2364 82.5148 53.523 82.0051 53.523H76.1811C75.4531 53.523 74.8706 52.9498 74.8706 52.2333V1.86292C74.8706 1.14641 75.4531 0.573205 76.1811 0.573205H84.0436C84.7716 0.573205 85.354 1.14641 85.354 1.86292V12.8971C85.354 14.4734 85.2084 16.9812 84.9172 20.4204H85.354C87.7564 16.6946 91.4693 14.76 96.2741 14.76ZM92.9253 23.1431C90.3773 23.1431 88.4116 23.9313 87.174 25.5076C86.0092 27.0839 85.354 29.735 85.354 33.3175V34.4639C85.354 38.548 85.9364 41.4857 87.174 43.2053C88.4116 44.9249 90.3773 45.8564 93.0709 45.8564C95.1821 45.8564 97.0022 44.8533 98.2398 42.8471C99.4774 40.9125 100.133 37.9748 100.133 34.3206C100.133 30.5948 99.4774 27.8004 98.2398 25.9375C96.9294 24.0746 95.1093 23.1431 92.9253 23.1431ZM128.307 53.5947H120.444C119.716 53.5947 119.134 53.0214 119.134 52.3049V16.8379C119.134 16.1214 119.716 15.5482 120.444 15.5482H128.307C129.035 15.5482 129.617 16.1214 129.617 16.8379V52.2333C129.69 52.8781 129.035 53.5947 128.307 53.5947ZM157.063 45.928C158.592 45.928 160.412 45.6414 162.596 45.0682C163.178 44.9249 163.688 45.3548 163.688 45.928V51.875C163.688 52.2333 163.469 52.5199 163.178 52.6632C160.703 53.6663 157.573 54.1679 154.078 54.1679C149.856 54.1679 146.798 53.1647 144.905 51.0152C143.012 48.9374 141.993 45.7847 141.993 41.629V23.3581H137.844C137.334 23.3581 136.97 22.9998 136.97 22.4983V19.1307C136.97 19.0591 137.043 18.9874 137.043 18.9158L142.794 15.5482L145.633 8.09652C145.779 7.73827 146.07 7.52331 146.434 7.52331H151.676C152.185 7.52331 152.549 7.88157 152.549 8.38312V15.6198H162.96C163.178 15.6198 163.397 15.8348 163.397 16.0497V22.4983C163.397 22.9998 163.033 23.3581 162.523 23.3581H152.622V41.5574C152.622 42.9904 153.059 44.1368 153.86 44.7816C154.588 45.5698 155.753 45.928 157.063 45.928ZM206.058 53.5947C205.039 53.5947 204.238 52.9498 203.801 52.0183L196.084 28.8752C195.575 27.2272 194.92 24.7195 194.046 21.4952H193.828L193.1 24.0746L191.571 28.9468L183.635 52.09C183.344 53.0214 182.471 53.5947 181.451 53.5947C180.432 53.5947 179.559 52.9498 179.267 51.9467L169.585 18.6292C169.294 17.626 170.094 16.5513 171.259 16.5513H171.478C172.206 16.5513 172.861 17.0528 173.079 17.7693L178.758 38.0465C180.141 43.3486 181.087 47.2178 181.524 49.7972H181.743C183.053 44.495 184.072 40.9841 184.727 39.1929L192.08 17.9843C192.371 17.1245 193.172 16.5513 194.192 16.5513C195.138 16.5513 195.939 17.1245 196.23 17.9843L203.073 39.0496C204.748 44.4234 205.767 47.8626 206.131 49.6539H206.349C206.568 48.2209 207.441 44.2084 209.116 37.7599L214.576 17.7693C214.794 17.0528 215.449 16.5513 216.177 16.5513C217.269 16.5513 218.07 17.5544 217.779 18.6292L208.606 51.9467C208.315 52.9498 207.441 53.5947 206.349 53.5947H206.058ZM249.302 53.5947C248.647 53.5947 248.064 53.0931 247.991 52.4482L247.336 47.7193H246.972C245.079 50.0838 243.187 51.8034 241.148 52.8065C239.183 53.8096 236.78 54.2395 234.086 54.2395C230.374 54.2395 227.534 53.3081 225.496 51.4451C223.676 49.7972 222.657 47.576 222.511 44.7816C222.22 41.0558 223.822 37.4733 226.879 35.3954C230.01 33.3892 234.378 32.1711 240.275 32.1711L247.409 31.9562V29.5201C247.409 25.9375 246.681 23.3581 245.152 21.5668C243.623 19.7756 241.367 18.9158 238.163 18.9158C235.106 18.9158 232.048 19.6323 228.845 21.1369C228.044 21.4952 227.098 21.1369 226.734 20.3488C226.37 19.5606 226.734 18.6292 227.534 18.3426C231.174 16.9095 234.742 16.1214 238.382 16.1214C242.531 16.1214 245.589 17.1961 247.7 19.3457C249.739 21.4235 250.758 24.7911 250.758 29.1618V52.4482C250.685 52.8781 250.03 53.5947 249.302 53.5947ZM234.232 51.1585C238.309 51.1585 241.439 50.0121 243.696 47.791C246.026 45.5698 247.191 42.3455 247.191 38.4047V34.8222L240.639 35.1088C235.324 35.3237 231.611 36.1836 229.282 37.5449C227.025 38.9063 225.86 41.1274 225.86 43.9935C225.86 46.2863 226.588 48.1492 227.971 49.4389C229.573 50.5137 231.611 51.1585 234.232 51.1585ZM277.33 15.8348C278.422 15.8348 279.514 15.9064 280.752 16.0497C281.698 16.193 282.281 17.0528 282.135 17.9127C281.99 18.7725 281.116 19.274 280.242 19.1307C279.15 18.9874 278.058 18.8441 276.966 18.8441C273.763 18.8441 271.142 20.2055 269.104 22.8565C267.065 25.5076 266.046 28.9468 266.046 32.9593V51.7317C266.046 52.6632 265.318 53.3797 264.372 53.3797C263.425 53.3797 262.697 52.6632 262.697 51.7317V18.056C262.697 17.2678 263.353 16.6229 264.153 16.6229C264.954 16.6229 265.609 17.1961 265.609 17.9843L265.901 23.2864H266.119C267.648 20.5637 269.322 18.6292 271.069 17.5544C272.744 16.408 274.855 15.8348 277.33 15.8348ZM302.956 15.8348C305.65 15.8348 308.052 16.3363 310.018 17.2678C312.056 18.1993 313.804 19.9189 315.332 22.2833H315.551C315.405 19.3457 315.332 16.6229 315.332 13.9002V2.22117C315.332 1.28971 316.06 0.573205 317.007 0.573205C317.953 0.573205 318.681 1.28971 318.681 2.22117V52.3049C318.681 52.9498 318.172 53.4513 317.516 53.4513C316.934 53.4513 316.424 53.0214 316.352 52.3766L315.624 47.7193H315.332C312.493 51.9467 308.344 54.0246 303.029 54.0246C297.787 54.0246 293.929 52.4482 291.09 49.224C288.396 45.9997 286.94 41.414 286.94 35.3237C286.94 28.9468 288.25 24.0746 291.017 20.6354C293.783 17.5544 297.715 15.8348 302.956 15.8348ZM302.956 18.9158C298.807 18.9158 295.749 20.3488 293.638 23.2148C291.599 26.0092 290.58 30.0933 290.58 35.5387C290.58 45.9997 294.73 51.2302 303.029 51.2302C307.324 51.2302 310.382 50.0121 312.348 47.576C314.386 45.1399 315.332 41.1274 315.332 35.5387V34.9655C315.332 29.2334 314.386 25.1494 312.348 22.7132C310.455 20.1338 307.324 18.9158 302.956 18.9158ZM346.564 54.2395C341.104 54.2395 336.882 52.5915 333.751 49.224C330.693 45.928 329.165 41.2707 329.165 35.3237C329.165 29.3767 330.621 24.6478 333.605 21.1369C336.59 17.5544 340.522 15.7631 345.545 15.7631C349.913 15.7631 353.48 17.2678 355.955 20.2771C358.576 23.2864 359.814 27.4422 359.814 32.6727V35.3954H332.732C332.805 40.4826 333.969 44.3517 336.372 47.0744C338.774 49.7972 342.123 51.0152 346.564 51.0152C348.675 51.0152 350.641 50.8719 352.243 50.5853C353.407 50.3704 354.791 50.0121 356.465 49.4389C357.411 49.0807 358.431 49.7972 358.431 50.8003C358.431 51.3735 358.067 51.9467 357.484 52.1616C355.737 52.8782 354.063 53.3081 352.534 53.5947C350.714 54.0962 348.748 54.2395 346.564 54.2395ZM345.545 18.8441C341.905 18.8441 338.993 19.9905 336.809 22.355C334.625 24.6478 333.387 28.087 332.95 32.4577H356.247C356.247 28.2303 355.3 24.7911 353.407 22.4266C351.515 20.0622 348.894 18.8441 345.545 18.8441ZM398.253 53.5947C397.306 53.5947 396.578 52.8781 396.578 51.9467V29.5201C396.578 25.7942 395.778 23.0715 394.249 21.4235C392.574 19.7756 390.172 18.8441 386.823 18.8441C382.309 18.8441 379.033 19.9189 376.995 22.2117C374.956 24.4329 373.792 28.087 373.792 33.0309V51.8034C373.792 52.7348 373.064 53.4513 372.117 53.4513C371.171 53.4513 370.443 52.7348 370.443 51.8034V18.056C370.443 17.1961 371.098 16.5513 371.972 16.5513C372.772 16.5513 373.355 17.1245 373.5 17.841L373.937 21.5668H374.156C376.631 17.6977 380.926 15.7631 387.187 15.7631C395.705 15.7631 400 20.2771 400 29.3051V51.8034C399.927 52.8065 399.126 53.5947 398.253 53.5947ZM124.448 0C121.026 0 118.26 2.57942 118.26 5.8037V6.3769C118.26 9.52953 121.099 12.1806 124.448 12.1806C127.797 12.1806 130.636 9.52953 130.636 6.3769V5.87535C130.636 2.57942 127.797 0 124.448 0Z" fill="#175DDC"/>
<path d="M44.1945 33.8182V8.19847H25.9967V53.7136C29.2193 52.0323 32.1033 50.2042 34.6488 48.2294C41.0126 43.3189 44.1945 38.5152 44.1945 33.8182ZM51.9935 3.07452V33.8182C51.9935 36.1134 51.5399 38.3884 50.6327 40.6435C49.7255 42.8986 48.6017 44.9001 47.2613 46.6481C45.9208 48.3962 44.3231 50.0975 42.4681 51.7521C40.6131 53.4067 38.9003 54.7811 37.3297 55.8753C35.7591 56.9694 34.1207 58.0036 32.4147 58.9777C30.7086 59.9517 29.4968 60.6123 28.7792 60.9592C28.0616 61.3061 27.4861 61.573 27.0529 61.7598C26.7279 61.9199 26.3759 62 25.9967 62C25.6176 62 25.2656 61.9199 24.9406 61.7598C24.5073 61.573 23.9319 61.3061 23.2143 60.9592C22.4967 60.6123 21.2848 59.9517 19.5788 58.9777C17.8728 58.0036 16.2344 56.9694 14.6638 55.8753C13.0932 54.7811 11.3803 53.4067 9.52537 51.7521C7.67039 50.0975 6.07268 48.3962 4.73222 46.6481C3.39176 44.9001 2.26794 42.8986 1.36077 40.6435C0.453589 38.3884 0 36.1134 0 33.8182V3.07452C0 2.38065 0.257259 1.78018 0.771778 1.27312C1.2863 0.766067 1.8956 0.512538 2.59967 0.512538H49.3938C50.0979 0.512538 50.7072 0.766067 51.2217 1.27312C51.7362 1.78018 51.9935 2.38065 51.9935 3.07452Z" fill="#175DDC"/>
</svg>
