<?xml version="1.0" encoding="UTF-8"?>
<svg version="1.1" xmlns="http://www.w3.org/2000/svg" width="994" height="451">
<path d="M0 0 C5.61 0 11.22 0 17 0 C17 5.28 17 10.56 17 16 C11.72 16 6.44 16 1 16 C1 20.62 1 25.24 1 30 C6.28 30 11.56 30 17 30 C17 35.28 17 40.56 17 46 C11.39 46 5.78 46 0 46 C0 41.05 0 36.1 0 31 C-4.62 31 -9.24 31 -14 31 C-14 35.95 -14 40.9 -14 46 C-18.29 46 -22.58 46 -27 46 C-27 50.62 -27 55.24 -27 60 C-21.72 60 -16.44 60 -11 60 C-11 64.95 -11 69.9 -11 75 C-16.28 75 -21.56 75 -27 75 C-27 79.62 -27 84.24 -27 89 C-31.62 89 -36.24 89 -41 89 C-41 98.9 -41 108.8 -41 119 C-45.29 119 -49.58 119 -54 119 C-54 122.96 -54 126.92 -54 131 C-55.65 131.33 -57.3 131.66 -59 132 C-58.38253906 132.76441406 -57.76507813 133.52882812 -57.12890625 134.31640625 C-36.64953197 160.04303411 -23.64552899 190.68725912 -18 223 C-17.66162109 224.79050781 -17.66162109 224.79050781 -17.31640625 226.6171875 C-10.75393442 267.98338922 -19.22955241 311.38202606 -39 348 C-39.48122314 348.90226318 -39.48122314 348.90226318 -39.97216797 349.82275391 C-46.59956776 362.16540247 -54.36323553 373.52848362 -63.93359375 383.78125 C-65.77932684 385.76305793 -67.51610674 387.79603216 -69.25 389.875 C-96.43450106 420.85413393 -136.76067733 440.93869488 -177 448 C-177.97646484 448.17732666 -178.95292969 448.35465332 -179.95898438 448.53735352 C-190.19172483 450.2132258 -200.27777976 450.35656155 -210.625 450.3125 C-211.51118011 450.31067719 -212.39736023 450.30885437 -213.31039429 450.30697632 C-226.08603016 450.2626791 -238.51007502 449.92821892 -251 447 C-251.76892578 446.82839355 -252.53785156 446.65678711 -253.33007812 446.47998047 C-271.50549255 442.34954003 -288.59653701 435.80270181 -305 427 C-306.73636719 426.09507812 -306.73636719 426.09507812 -308.5078125 425.171875 C-323.18601144 417.21421817 -336.02106648 406.55414864 -348 395 C-348.89847656 394.1646875 -349.79695313 393.329375 -350.72265625 392.46875 C-382.36563965 362.23718025 -405.08186933 314.60399788 -406.16113281 270.6237793 C-406.18060877 269.10731958 -406.19440094 267.59077844 -406.203125 266.07421875 C-406.21018463 265.25298019 -406.21724426 264.43174164 -406.22451782 263.58561707 C-406.45159155 229.43280061 -406.45159155 229.43280061 -403 215 C-402.70198486 213.70884277 -402.70198486 213.70884277 -402.39794922 212.39160156 C-394.10329961 177.28690474 -377.41319376 146.45406873 -353 120 C-352.29858887 119.23864746 -352.29858887 119.23864746 -351.58300781 118.46191406 C-344.39463379 110.75601851 -336.44654964 104.24968919 -328 98 C-327.46117187 97.60039063 -326.92234375 97.20078125 -326.3671875 96.7890625 C-292.85396542 72.19068767 -253.10379152 59.78347619 -211.6875 59.75 C-210.55825104 59.74898788 -210.55825104 59.74898788 -209.40618896 59.74795532 C-197.05501656 59.76548145 -185.11978117 60.44807401 -173 63 C-172.17435547 63.17160645 -171.34871094 63.34321289 -170.49804688 63.52001953 C-151.98727252 67.49422454 -134.63213006 73.98751573 -118 83 C-117.37722168 83.33676758 -116.75444336 83.67353516 -116.11279297 84.02050781 C-108.41252966 88.2221163 -101.06430502 92.79129583 -94 98 C-94 94.7 -94 91.4 -94 88 C-86.08 88 -78.16 88 -70 88 C-70 83.71 -70 79.42 -70 75 C-74.95 75 -79.9 75 -85 75 C-85 70.05 -85 65.1 -85 60 C-79.72 60 -74.44 60 -69 60 C-69 64.62 -69 69.24 -69 74 C-64.71 74 -60.42 74 -56 74 C-56 64.43 -56 54.86 -56 45 C-51.38 45 -46.76 45 -42 45 C-42 40.05 -42 35.1 -42 30 C-33.09 30 -24.18 30 -15 30 C-15 25.05 -15 20.1 -15 15 C-10.05 15 -5.1 15 0 15 C0 10.05 0 5.1 0 0 Z M-41 61 C-41 65.29 -41 69.58 -41 74 C-36.71 74 -32.42 74 -28 74 C-28 69.71 -28 65.42 -28 61 C-32.29 61 -36.58 61 -41 61 Z M-55 75 C-55 79.29 -55 83.58 -55 88 C-50.71 88 -46.42 88 -42 88 C-42 83.71 -42 79.42 -42 75 C-46.29 75 -50.58 75 -55 75 Z M-69 89 C-69 93.29 -69 97.58 -69 102 C-64.71 102 -60.42 102 -56 102 C-56 97.71 -56 93.42 -56 89 C-60.29 89 -64.58 89 -69 89 Z M-296 153 C-296.88171875 153.74121094 -297.7634375 154.48242188 -298.671875 155.24609375 C-324.86333577 178.061947 -341.07897493 210.35369647 -344 245 C-345.947938 280.03650953 -335.48589236 315.47082826 -311.87109375 341.87890625 C-310.91669847 342.92168951 -309.95967023 343.9620692 -309 345 C-308.53223145 345.51159668 -308.06446289 346.02319336 -307.58251953 346.55029297 C-284.74514948 371.26921771 -252.45490572 386.19741646 -218.83154297 388.12426758 C-183.91461 389.39691138 -151.6967101 378.58626426 -125 356 C-123.78183594 354.98486328 -123.78183594 354.98486328 -122.5390625 353.94921875 C-98.4696301 333.18268954 -82.61745651 302.5690396 -79 271 C-78.68822018 265.83251885 -78.60914329 260.67549381 -78.625 255.5 C-78.62587616 254.79823639 -78.62675232 254.09647278 -78.62765503 253.3734436 C-78.72935195 228.58719558 -85.37140277 206.3254044 -98 185 C-98.65613281 183.87207031 -99.31226563 182.74414062 -99.98828125 181.58203125 C-100.65214844 180.72996094 -101.31601562 179.87789062 -102 179 C-103.32 179 -104.64 179 -106 179 C-106 184.28 -106 189.56 -106 195 C-109.96 195 -113.92 195 -118 195 C-118 199.95 -118 204.9 -118 210 C-121.63 210 -125.26 210 -129 210 C-128.93296875 210.93457031 -128.8659375 211.86914062 -128.796875 212.83203125 C-128.65007639 225.29767989 -133.38514651 232.46904654 -140.32275391 242.50390625 C-155.23733779 264.69993327 -166.07087181 289.53480696 -176.1875 314.18359375 C-179.63908425 322.57093773 -179.63908425 322.57093773 -181.22265625 326.2578125 C-181.51148682 326.93344238 -181.80031738 327.60907227 -182.09790039 328.30517578 C-184.42254138 332.67260683 -188.51348047 334.49603235 -193 336 C-202.76264278 337.0139943 -210.73148637 336.2685884 -218.44921875 330.015625 C-221.94937051 325.87762016 -223.70865187 321.4223497 -225.75 316.4375 C-226.63057243 314.35507186 -227.51209994 312.27304736 -228.39453125 310.19140625 C-228.8323291 309.14871582 -229.27012695 308.10602539 -229.72119141 307.03173828 C-243.22405206 275.01980174 -259.98507239 246.30813502 -282.72851562 219.96508789 C-296.44867863 204.07256574 -296.44867863 204.07256574 -295.875 195.875 C-295 192 -295 192 -293.625 189.5 C-289.0518126 186.88675006 -285.11680218 187.03912586 -280 188 C-269.15249248 191.6060199 -259.68472181 197.66989223 -251 205 C-250.19820313 205.67417969 -249.39640625 206.34835938 -248.5703125 207.04296875 C-245.98415631 209.30267571 -243.48594285 211.63025561 -241 214 C-240.15066895 214.80848389 -240.15066895 214.80848389 -239.28417969 215.63330078 C-230.86167206 223.70320738 -223.27825257 232.03275067 -216.26416016 241.34667969 C-212.96533996 245.66101155 -209.45946159 249.81447857 -206 254 C-203.74177768 251.16444472 -202.10285818 248.3727509 -200.57421875 245.08984375 C-200.1148291 244.11394287 -199.65543945 243.13804199 -199.18212891 242.13256836 C-198.68890137 241.0781958 -198.19567383 240.02382324 -197.6875 238.9375 C-186.66217632 215.71585684 -174.71429219 193.08179225 -161.26171875 171.16845703 C-160.71128906 170.26853027 -160.16085938 169.36860352 -159.59375 168.44140625 C-159.09552734 167.63517822 -158.59730469 166.8289502 -158.08398438 165.99829102 C-156.84106023 164.08589374 -156.84106023 164.08589374 -157 162 C-153.37 162 -149.74 162 -146 162 C-146 157.38 -146 152.76 -146 148 C-142.7 148 -139.4 148 -136 148 C-138.31855979 143.36288041 -140.82054526 141.98551607 -145.1875 139.625 C-145.90510498 139.2321582 -146.62270996 138.83931641 -147.36206055 138.43457031 C-195.14467246 112.81482319 -254.34487175 117.86044662 -296 153 Z " fill="#FCBA2F" transform="translate(407,1)"/>
<path d="M0 0 C5.61 0 11.22 0 17 0 C17 5.28 17 10.56 17 16 C11.72 16 6.44 16 1 16 C1 20.62 1 25.24 1 30 C6.28 30 11.56 30 17 30 C17 35.28 17 40.56 17 46 C11.39 46 5.78 46 0 46 C0 41.05 0 36.1 0 31 C-4.62 31 -9.24 31 -14 31 C-14 35.95 -14 40.9 -14 46 C-18.29 46 -22.58 46 -27 46 C-27 50.62 -27 55.24 -27 60 C-21.72 60 -16.44 60 -11 60 C-11 64.95 -11 69.9 -11 75 C-16.28 75 -21.56 75 -27 75 C-27 79.62 -27 84.24 -27 89 C-31.62 89 -36.24 89 -41 89 C-41 98.9 -41 108.8 -41 119 C-45.29 119 -49.58 119 -54 119 C-54 122.96 -54 126.92 -54 131 C-58.29 131 -62.58 131 -67 131 C-67 136.61 -67 142.22 -67 148 C-70.63 148 -74.26 148 -78 148 C-78 152.62 -78 157.24 -78 162 C-82.62 162 -87.24 162 -92 162 C-92 167.28 -92 172.56 -92 178 C-96.62 178.33 -101.24 178.66 -106 179 C-106 184.28 -106 189.56 -106 195 C-109.96 195 -113.92 195 -118 195 C-118 199.95 -118 204.9 -118 210 C-121.63 210 -125.26 210 -129 210 C-128.79117188 211.40185547 -128.79117188 211.40185547 -128.578125 212.83203125 C-127.53400294 225.49822629 -132.21945078 232.36562112 -139.30664062 242.50390625 C-154.30764671 264.61611591 -165.08020832 289.55987171 -175.1875 314.18359375 C-176.12351954 316.45633945 -177.06087748 318.72853472 -178 321 C-178.3822876 321.92514404 -178.7645752 322.85028809 -179.15844727 323.8034668 C-179.49932373 324.60308838 -179.8402002 325.40270996 -180.19140625 326.2265625 C-180.47443604 326.8963916 -180.75746582 327.5662207 -181.04907227 328.25634766 C-183.59726165 332.92879146 -188.06637168 335.38368972 -193 337 C-201.31428408 337.86356091 -208.84840214 337.60659584 -216 333 C-216.81855469 332.47792969 -217.63710937 331.95585937 -218.48046875 331.41796875 C-221.95165058 328.08671053 -223.40461119 324.45309288 -225.25 320.0625 C-225.63639648 319.17715576 -226.02279297 318.29181152 -226.42089844 317.37963867 C-228.36716228 312.90189012 -230.25288084 308.39977767 -232.125 303.890625 C-245.03211236 272.92730221 -261.82056368 245.34041055 -283.72851562 219.96508789 C-297.4105524 204.11672862 -297.4105524 204.11672862 -296.9375 195.9375 C-296.42153587 192.98346363 -295.77851003 191.64561604 -294.125 189 C-289.2781762 185.89803277 -285.59505933 185.87968544 -280 187 C-269.14952319 190.63919034 -259.69981464 196.6591345 -251 204 C-250.20980469 204.66257813 -249.41960937 205.32515625 -248.60546875 206.0078125 C-236.31304918 216.73055329 -224.96448099 228.3447619 -215.20068359 241.41015625 C-213.28999129 243.94013354 -211.30007752 246.40527017 -209.3125 248.875 C-208.66925781 249.67679688 -208.02601563 250.47859375 -207.36328125 251.3046875 C-206.91339844 251.86414063 -206.46351563 252.42359375 -206 253 C-205.27244466 251.54488932 -204.54494271 250.08975193 -203.81762695 248.63452148 C-203.12813545 247.25604091 -202.43782587 245.87796931 -201.74682617 244.50024414 C-199.48920579 239.99504149 -197.2514951 235.48078063 -195.03125 230.95703125 C-188.2832551 217.25926724 -181.13852331 203.88628336 -173.51806641 190.65576172 C-170.73125013 185.78040188 -168.03020912 180.85715687 -165.33325195 175.93164062 C-164.60347784 174.60797585 -163.86531993 173.28889061 -163.11791992 171.97509766 C-162.32625311 170.57641137 -161.56062236 169.16284046 -160.8137207 167.73974609 C-159.65680305 165.66165139 -158.55272356 163.80213517 -157 162 C-154.10546875 161.21875 -154.10546875 161.21875 -151.1875 161.5 C-149.475625 161.665 -147.76375 161.83 -146 162 C-146 157.38 -146 152.76 -146 148 C-142.7 148 -139.4 148 -136 148 C-136 143.38 -136 138.76 -136 134 C-131.38 134 -126.76 134 -122 134 C-122 126.41 -122 118.82 -122 111 C-117.05 111 -112.1 111 -107 111 C-107 107.04 -107 103.08 -107 99 C-102.71 99 -98.42 99 -94 99 C-94 95.37 -94 91.74 -94 88 C-86.08 88 -78.16 88 -70 88 C-70 83.71 -70 79.42 -70 75 C-74.95 75 -79.9 75 -85 75 C-85 70.05 -85 65.1 -85 60 C-79.72 60 -74.44 60 -69 60 C-69 64.62 -69 69.24 -69 74 C-64.71 74 -60.42 74 -56 74 C-56 64.43 -56 54.86 -56 45 C-51.38 45 -46.76 45 -42 45 C-42 40.05 -42 35.1 -42 30 C-33.09 30 -24.18 30 -15 30 C-15 25.05 -15 20.1 -15 15 C-10.05 15 -5.1 15 0 15 C0 10.05 0 5.1 0 0 Z M-41 61 C-41 65.29 -41 69.58 -41 74 C-36.71 74 -32.42 74 -28 74 C-28 69.71 -28 65.42 -28 61 C-32.29 61 -36.58 61 -41 61 Z M-55 75 C-55 79.29 -55 83.58 -55 88 C-50.71 88 -46.42 88 -42 88 C-42 83.71 -42 79.42 -42 75 C-46.29 75 -50.58 75 -55 75 Z M-69 89 C-69 93.29 -69 97.58 -69 102 C-64.71 102 -60.42 102 -56 102 C-56 97.71 -56 93.42 -56 89 C-60.29 89 -64.58 89 -69 89 Z " fill="#000000" transform="translate(407,1)"/>
<path d="M0 0 C118.95936396 0 118.95936396 0 142 23 C142.57621094 23.56460938 143.15242187 24.12921875 143.74609375 24.7109375 C155.8067945 37.55480064 158.40430769 55.97565418 158.203125 72.875 C157.5377841 89.8817626 152.47277119 105.52955705 140.33984375 117.890625 C124.43880622 132.22545015 103.3335405 137.21286291 82.375 137.09765625 C81.4984375 137.09664917 80.621875 137.09564209 79.71875 137.09460449 C76.47915315 137.08941643 73.2395751 137.07545555 70 137.0625 C62.74 137.041875 55.48 137.02125 48 137 C48 165.05 48 193.1 48 222 C32.16 222 16.32 222 0 222 C0 148.74 0 75.48 0 0 Z M48 39 C48 58.8 48 78.6 48 99 C53.383125 99.061875 58.76625 99.12375 64.3125 99.1875 C65.98739502 99.21481201 67.66229004 99.24212402 69.38793945 99.27026367 C80.74392293 99.37844432 91.91800178 98.65777578 101 91 C106.75488824 84.73128245 108.37810357 78.12036985 108.3125 69.6875 C108.30686035 68.9342041 108.3012207 68.1809082 108.29541016 67.40478516 C108.11419844 59.09954713 106.5491861 52.67340293 100.71875 46.5 C90.53956996 37.61635197 75.96062775 38.7283588 63.3125 38.875 C58.259375 38.91625 53.20625 38.9575 48 39 Z " fill="#000000" transform="translate(795,214)"/>
<path d="M0 0 C17.16 0 34.32 0 52 0 C54.79332296 11.14542054 57.58558447 22.29110157 60.375 33.4375 C60.58570129 34.27944916 60.79640259 35.12139832 61.01348877 35.98886108 C68.50378373 65.92324648 75.92447465 95.87438303 83.29833984 125.83764648 C83.48111795 126.58032807 83.66389606 127.32300966 83.85221291 128.08819675 C84.70228747 131.54257469 85.55204637 134.99702955 86.40103149 138.45167542 C88.25024458 145.97211332 90.11527145 153.48838185 92 161 C94.60075484 153.4736267 96.7746424 145.85714878 98.89453125 138.18359375 C99.2786224 136.79980018 99.66290015 135.4160584 100.04734802 134.03236389 C101.08826702 130.28335714 102.12613481 126.53351198 103.16334534 122.78347778 C104.03388661 119.63743169 104.9061797 116.49187236 105.77841759 113.34629631 C116.2491526 75.58174311 126.6252258 37.79100258 137 0 C152.51 0 168.02 0 184 0 C181.45994387 10.16022452 178.86172751 20.16608801 175.82421875 30.16796875 C175.42210177 31.50234677 175.0203447 32.83683328 174.61891174 34.17141724 C173.76100874 37.02121368 172.9008905 39.87032763 172.03894043 42.71890259 C170.65386466 47.29668991 169.27417518 51.87608973 167.89550781 56.45581055 C167.41629269 58.04756237 166.93707514 59.63931346 166.45785522 61.23106384 C166.21765026 62.02894758 165.9774453 62.82683132 165.7299614 63.64889336 C164.99055208 66.10434041 164.25065992 68.55964153 163.51065063 71.01490784 C158.54830765 87.48205182 153.62327444 103.96028283 148.70431519 120.44042969 C147.49588198 124.48907652 146.28684752 128.53754347 145.07758045 132.58594131 C140.52059788 147.84195242 135.96824603 163.09932259 131.42938232 178.36073494 C130.81443626 180.42816252 130.1992599 182.4955214 129.58398438 184.56285095 C129.38678047 185.22546212 129.18957657 185.88807329 128.98639679 186.57076359 C128.59681677 187.87973425 128.20722448 189.18870127 127.81761932 190.49766445 C126.53037888 194.82312573 125.24590187 199.14940238 123.96191406 203.47583008 C123.31063857 205.66490358 122.65927702 207.85395149 122.0078125 210.04296875 C121.71421844 211.03473114 121.42062439 212.02649353 121.11813354 213.04830933 C120.85114655 213.94397614 120.58415955 214.83964294 120.30908203 215.76245117 C120.07867218 216.53836105 119.84826233 217.31427094 119.61087036 218.11369324 C119 220 119 220 118 222 C99.85 222 81.7 222 63 222 C52.54179793 186.14080463 42.18059239 150.2578571 31.94171143 114.33551025 C29.26223306 104.9352689 26.58089342 95.53555874 23.89854813 86.1361351 C23.23824825 83.82184534 22.57818834 81.50748709 21.91837692 79.19305801 C18.19532013 66.13394953 14.45046562 53.08156357 10.66455078 40.04052734 C10.13700305 38.22114733 10.13700305 38.22114733 9.5987978 36.36501217 C7.91153674 30.54617546 6.22060068 24.72846296 4.52244568 18.91279602 C3.92177203 16.84385142 3.32126312 14.77485899 2.72094727 12.70581055 C2.30475348 11.28891591 2.30475348 11.28891591 1.88015175 9.84339714 C1.63063444 8.98042078 1.38111713 8.11744442 1.1240387 7.22831726 C0.90563607 6.47954661 0.68723345 5.73077597 0.46221256 4.9593153 C0 3 0 3 0 0 Z " fill="#000000" transform="translate(443,214)"/>
<path d="M0 0 C16.17 0 32.34 0 49 0 C49 73.26 49 146.52 49 222 C32.83 222 16.66 222 0 222 C0 148.74 0 75.48 0 0 Z " fill="#000000" transform="translate(674,214)"/>
<path d="M0 0 C2.27034078 1.93809579 3.95443678 3.68606832 5.5625 6.1875 C6.14644531 5.59001953 6.14644531 5.59001953 6.7421875 4.98046875 C12.15986957 -0.15010114 17.70223509 -2.6407086 25.21484375 -2.90625 C30.64774778 -2.57945878 34.37299045 -1.49109375 38.5625 2.1875 C44.43029721 9.31268232 43.84614772 20.15244836 43.7578125 28.8828125 C43.7549826 29.95626923 43.75215271 31.02972595 43.74923706 32.13571167 C43.73813822 35.52809305 43.71305314 38.92019987 43.6875 42.3125 C43.67745688 44.62760032 43.66833338 46.94270483 43.66015625 49.2578125 C43.63823268 54.90114572 43.60377484 60.54427648 43.5625 66.1875 C37.6225 66.1875 31.6825 66.1875 25.5625 66.1875 C25.53744385 64.6833252 25.5123877 63.17915039 25.48657227 61.62939453 C25.39261201 56.06452473 25.29236376 50.49978308 25.19018555 44.93505859 C25.1467935 42.52363069 25.10512163 40.11217121 25.06518555 37.70068359 C25.00758631 34.24046294 24.94386221 30.78040188 24.87890625 27.3203125 C24.86219376 26.23694611 24.84548126 25.15357971 24.82826233 24.03738403 C24.7983445 22.53605423 24.7983445 22.53605423 24.76782227 21.00439453 C24.74450584 19.67868942 24.74450584 19.67868942 24.72071838 18.32620239 C24.69484999 16.1355278 24.69484999 16.1355278 23.5625 14.1875 C20.44397574 12.97511476 18.57080659 13.23047776 15.5 14.4375 C14.82839844 14.69015625 14.15679688 14.9428125 13.46484375 15.203125 C11.3083083 16.31903246 10.09770663 17.3020088 8.5625 19.1875 C8.09219005 21.38028255 8.09219005 21.38028255 8.13012695 23.8425293 C8.11033279 24.78327805 8.09053864 25.72402679 8.07014465 26.69328308 C8.06055977 28.21215874 8.06055977 28.21215874 8.05078125 29.76171875 C8.03283005 30.80068802 8.01487885 31.83965729 7.99638367 32.91011047 C7.94215957 36.23169891 7.90834572 39.55314266 7.875 42.875 C7.84183766 45.12567123 7.80734903 47.37632334 7.77148438 49.62695312 C7.68642592 55.14703122 7.61967221 60.66706549 7.5625 66.1875 C1.9525 66.1875 -3.6575 66.1875 -9.4375 66.1875 C-9.467229 64.03782715 -9.467229 64.03782715 -9.49755859 61.84472656 C-9.57361059 56.52944315 -9.66232895 51.21443364 -9.75488281 45.89941406 C-9.79317417 43.5986878 -9.82802674 41.29790165 -9.859375 38.99707031 C-9.9050217 35.69053738 -9.96301747 32.38441688 -10.0234375 29.078125 C-10.03498871 28.04882874 -10.04653992 27.01953247 -10.05844116 25.95904541 C-10.07831085 24.99835144 -10.09818054 24.03765747 -10.11865234 23.04785156 C-10.13197601 22.20401917 -10.14529968 21.36018677 -10.1590271 20.49078369 C-10.46361688 17.97148405 -11.1070523 16.33822401 -12.4375 14.1875 C-14.14041681 13.07144923 -14.14041681 13.07144923 -16.4375 13.1875 C-20.10927581 14.54025951 -23.18123423 16.01665615 -26.4375 18.1875 C-26.91295884 20.32081595 -26.91295884 20.32081595 -26.86987305 22.82080078 C-26.88966721 23.78164581 -26.90946136 24.74249084 -26.92985535 25.73245239 C-26.93944023 27.29188065 -26.93944023 27.29188065 -26.94921875 28.8828125 C-26.96716995 29.94539276 -26.98512115 31.00797302 -27.00361633 32.10275269 C-27.05792002 35.50596107 -27.09167963 38.90902764 -27.125 42.3125 C-27.15815532 44.61590524 -27.19264329 46.91929172 -27.22851562 49.22265625 C-27.31365815 54.87750213 -27.38037362 60.53230448 -27.4375 66.1875 C-33.3775 66.1875 -39.3175 66.1875 -45.4375 66.1875 C-45.4375 44.0775 -45.4375 21.9675 -45.4375 -0.8125 C-41.4775 -0.8125 -37.5175 -0.8125 -33.4375 -0.8125 C-32.4475 1.4975 -31.4575 3.8075 -30.4375 6.1875 C-29.96441406 5.78917969 -29.49132812 5.39085938 -29.00390625 4.98046875 C-20.20218595 -2.0712019 -10.60195246 -5.59012039 0 0 Z " fill="#000000" transform="translate(615.4375,99.8125)"/>
<path d="M0 0 C-1.49170266 4.9723422 -3.60457417 9.41845739 -6 14 C-6.99580078 13.69255859 -6.99580078 13.69255859 -8.01171875 13.37890625 C-8.89472656 13.10949219 -9.77773438 12.84007813 -10.6875 12.5625 C-11.55761719 12.29566406 -12.42773438 12.02882813 -13.32421875 11.75390625 C-20.39724278 9.76106882 -27.45930108 8.73546467 -34.5 11.25 C-37.14432841 13.10102988 -38.2006322 13.89134745 -39 17 C-38.86404698 20.26287255 -38.51733167 22.29027225 -36.58203125 24.9453125 C-32.05162287 28.55044836 -26.48445909 29.95337323 -21.06054688 31.82421875 C-11.64262396 35.20846879 -3.04371272 39.73113989 1.96484375 48.734375 C5.07072062 55.66176857 5.22353838 64.03690996 2.9375 71.25 C-0.33604313 78.55837536 -5.41937613 83.34209545 -12.7890625 86.30859375 C-26.4380177 90.5769066 -41.63132304 88.43742275 -54.1875 82.0625 C-58.62071975 79.68416323 -58.62071975 79.68416323 -60.015625 77.16796875 C-59.99166378 73.84334992 -58.404598 71.96467074 -56.5625 69.25 C-55.90378906 68.26515625 -55.24507813 67.2803125 -54.56640625 66.265625 C-54.04949219 65.51796875 -53.53257812 64.7703125 -53 64 C-52.19369141 64.41572266 -52.19369141 64.41572266 -51.37109375 64.83984375 C-48.63749765 66.17736935 -45.86592393 67.37820363 -43.0625 68.5625 C-41.53302734 69.21412109 -41.53302734 69.21412109 -39.97265625 69.87890625 C-33.55732078 72.29835603 -26.69907943 73.2830457 -20.1875 70.75 C-16.27615387 68.62219607 -16.27615387 68.62219607 -14 65 C-13.5240733 61.26057595 -13.49956672 58.9343437 -15.29296875 55.5859375 C-19.4471826 51.61755429 -24.43290464 50.08031856 -29.75 48.0625 C-48.32904525 40.97669624 -48.32904525 40.97669624 -52.9375 32.875 C-53.31777344 32.23304687 -53.69804687 31.59109375 -54.08984375 30.9296875 C-57.02094764 24.71524405 -56.9780597 17.04929176 -55.38671875 10.4609375 C-52.7792343 3.77566901 -48.25039517 -0.52720281 -42.11328125 -4.09765625 C-29.34675275 -9.49019776 -11.67859508 -6.6283918 0 0 Z " fill="#000000" transform="translate(503,79)"/>
<path d="M0 0 C8.11876894 6.09372131 11.08341366 14.53954447 12.70703125 24.28125 C12.70703125 28.57125 12.70703125 32.86125 12.70703125 37.28125 C-0.16296875 37.28125 -13.03296875 37.28125 -26.29296875 37.28125 C-24.09447568 45.54877844 -24.09447568 45.54877844 -21.29296875 48.84375 C-16.61907393 51.0833246 -12.37379217 51.10883406 -7.29296875 50.28125 C-4.4984569 49.13260927 -1.97699585 47.82898701 0.61328125 46.27734375 C2.70703125 45.28125 2.70703125 45.28125 5.70703125 46.28125 C7.09375 47.98828125 7.09375 47.98828125 8.39453125 50.09375 C8.83152344 50.78082031 9.26851562 51.46789062 9.71875 52.17578125 C10.70703125 54.28125 10.70703125 54.28125 10.70703125 58.28125 C8.765625 59.9140625 8.765625 59.9140625 6.14453125 61.40625 C5.29761719 61.90382813 4.45070313 62.40140625 3.578125 62.9140625 C-5.07250426 67.03340977 -15.00484098 67.85938297 -24.3125 65.5234375 C-33.43722524 62.04865458 -37.93254474 56.89671013 -42.29296875 48.28125 C-46.31909129 37.66692693 -45.52364235 23.69652277 -41.29296875 13.28125 C-37.72482138 5.79206157 -32.56789883 0.18618838 -24.66796875 -2.65625 C-16.59190626 -4.72450991 -7.29200124 -4.29844283 0 0 Z M-24.29296875 15.28125 C-24.95296875 18.58125 -25.61296875 21.88125 -26.29296875 25.28125 C-19.36296875 25.28125 -12.43296875 25.28125 -5.29296875 25.28125 C-5.79868478 16.81402735 -5.79868478 16.81402735 -10.29296875 11.28125 C-16.13809213 8.35868831 -20.26435709 10.70328221 -24.29296875 15.28125 Z " fill="#000000" transform="translate(879.29296875,100.71875)"/>
<path d="M0 0 C6.23126596 7.57856671 6.28678877 15.24923851 6.1953125 24.62109375 C6.1924826 25.72099136 6.18965271 26.82088898 6.18673706 27.95411682 C6.1755898 31.44869103 6.15049498 34.94300394 6.125 38.4375 C6.11496316 40.81444941 6.10583854 43.19140286 6.09765625 45.56835938 C6.07566831 51.3789946 6.0422451 57.18947862 6 63 C4.22317696 63.06755268 2.44562019 63.11601539 0.66796875 63.15625 C-0.32178955 63.18525391 -1.31154785 63.21425781 -2.33129883 63.24414062 C-5 63 -5 63 -7.6875 60.5 C-8.120625 59.675 -8.55375 58.85 -9 58 C-9.86625 58.61875 -10.7325 59.2375 -11.625 59.875 C-18.26847269 64.05792725 -24.27439576 64.73095237 -32 64 C-37.73914639 62.53034943 -42.56598798 59.40275138 -45.61328125 54.296875 C-48.17250241 48.21241681 -48.01095243 41.1370181 -46.44921875 34.74609375 C-43.84156351 29.22181938 -38.3420488 26.36059883 -33 24 C-26.11264874 21.7635695 -19.16087105 20.10927604 -12 19 C-12.28151087 17.68528432 -12.57553339 16.37324233 -12.875 15.0625 C-13.03742187 14.33160156 -13.19984375 13.60070312 -13.3671875 12.84765625 C-13.82961523 10.79299706 -13.82961523 10.79299706 -16 10 C-22.65445911 9.21938076 -27.74315245 10.29646239 -33.7734375 13.125 C-36 14 -36 14 -40 14 C-40.86627399 12.40233897 -41.71766465 10.79660056 -42.5625 9.1875 C-43.03816406 8.29417969 -43.51382813 7.40085937 -44.00390625 6.48046875 C-45 4 -45 4 -44 1 C-30.52883192 -7.23917177 -13.33655482 -9.23299949 0 0 Z M-28.125 37.25 C-30.53371869 40.78278741 -30.62132521 42.80605483 -30 47 C-28.44187004 49.07269757 -27.53683959 49.88451707 -24.984375 50.43359375 C-19.14343145 50.44380519 -15.8326431 49.2903102 -11 46 C-11 41.38 -11 36.76 -11 32 C-17.38299957 32 -22.92092337 33.50306482 -28.125 37.25 Z " fill="#000000" transform="translate(713,103)"/>
<path d="M0 0 C5.94 0 11.88 0 18 0 C19.98844759 5.3025269 21.78614516 10.42505633 23.26171875 15.859375 C23.45723831 16.57103821 23.65275787 17.28270142 23.85420227 18.01593018 C24.26188576 19.50440263 24.66764579 20.99340318 25.0715332 22.48291016 C25.69021432 24.75999014 26.31840042 27.034308 26.94726562 29.30859375 C27.34432408 30.76286422 27.74082828 32.21728615 28.13671875 33.671875 C28.3241716 34.34796814 28.51162445 35.02406128 28.70475769 35.72064209 C29.58143565 38.98336194 30 41.58399134 30 45 C30.66 45 31.32 45 32 45 C32.12238037 43.86304688 32.24476074 42.72609375 32.37084961 41.5546875 C32.94417981 36.98560383 33.9522938 32.58859023 35.06640625 28.125 C35.26475571 27.31506592 35.46310516 26.50513184 35.66746521 25.6706543 C36.29491548 23.11270784 36.92859563 20.55635378 37.5625 18 C37.99195113 16.25400819 38.42099155 14.50791531 38.84960938 12.76171875 C39.89423835 8.50642163 40.94729847 4.2533395 42 0 C47.94 0 53.88 0 60 0 C57.27959319 9.48276171 54.52797147 18.95594355 51.75421143 28.42321777 C50.96053638 31.13482845 50.16951887 33.84720762 49.37841797 36.55957031 C47.96517019 41.39824871 46.53724881 46.23242564 45.10092163 51.06430054 C44.5366384 52.96964436 43.97655201 54.87623646 43.42080688 56.78408813 C42.63052577 59.49371227 41.82483734 62.198322 41.015625 64.90234375 C40.78560287 65.70334503 40.55558075 66.50434631 40.31858826 67.32962036 C38.25049984 74.1408907 35.12526028 80.78457534 29.5 85.375 C28.68015625 86.06722656 28.68015625 86.06722656 27.84375 86.7734375 C22.73208946 90.17399133 18.19808894 90.28278979 12.25 90.1875 C11.47011719 90.18685547 10.69023438 90.18621094 9.88671875 90.18554688 C4.14057707 90.14057707 4.14057707 90.14057707 3 89 C3.09017996 86.80949979 3.24666208 84.621534 3.4375 82.4375 C3.53933594 81.23996094 3.64117187 80.04242188 3.74609375 78.80859375 C3.87177734 77.41833984 3.87177734 77.41833984 4 76 C4.65226562 76.03480469 5.30453125 76.06960937 5.9765625 76.10546875 C11.4692705 76.27559687 15.24492736 76.09079722 20 73 C20.99 72.01 20.99 72.01 22 71 C21.63607859 66.26148065 20.49701692 62.02492669 18.95874023 57.5456543 C18.53837997 56.31135178 18.11801971 55.07704926 17.68492126 53.80534363 C17.22618716 52.47828758 16.76741032 51.15124629 16.30859375 49.82421875 C15.83856978 48.44917386 15.36918387 47.07391072 14.90040588 45.69844055 C13.67102617 42.09550802 12.43479194 38.49496987 11.1965332 34.89508057 C9.20971048 29.11658337 7.23143103 23.33517093 5.25688362 17.55246925 C4.56619917 15.53394558 3.87138181 13.5168788 3.1761322 11.49992371 C2.7589241 10.28138199 2.341716 9.06284027 1.91186523 7.80737305 C1.5418187 6.73150436 1.17177216 5.65563568 0.79051208 4.54716492 C0 2 0 2 0 0 Z " fill="#000000" transform="translate(506,99)"/>
<path d="M0 0 C4.21433721 3.90597107 7.38892678 8.89527648 7.68275452 14.78581238 C7.68053391 15.73845474 7.67831329 16.69109711 7.67602539 17.67260742 C7.67594986 18.75350143 7.67587433 19.83439545 7.67579651 20.94804382 C7.67063522 22.11374405 7.66547394 23.27944427 7.66015625 24.48046875 C7.6587413 25.67481033 7.65732635 26.86915192 7.65586853 28.09968567 C7.6502635 31.92064908 7.63771011 35.74155425 7.625 39.5625 C7.61998565 42.15038978 7.61542263 44.73828048 7.61132812 47.32617188 C7.60029242 53.67580375 7.58302437 60.02539199 7.5625 66.375 C1.9525 66.375 -3.6575 66.375 -9.4375 66.375 C-9.467229 64.22532715 -9.467229 64.22532715 -9.49755859 62.03222656 C-9.57361059 56.71694315 -9.66232895 51.40193364 -9.75488281 46.08691406 C-9.79317417 43.7861878 -9.82802674 41.48540165 -9.859375 39.18457031 C-9.9050217 35.87803738 -9.96301747 32.57191688 -10.0234375 29.265625 C-10.03498871 28.23632874 -10.04653992 27.20703247 -10.05844116 26.14654541 C-10.07831085 25.18585144 -10.09818054 24.22515747 -10.11865234 23.23535156 C-10.13197601 22.39151917 -10.14529968 21.54768677 -10.1590271 20.67828369 C-10.46493309 18.1480975 -11.0723354 16.52009346 -12.4375 14.375 C-15.89534821 12.89306505 -17.42209274 13.36959394 -21 14.625 C-24.97977695 16.6489633 -24.97977695 16.6489633 -28.4375 19.375 C-29.05091613 21.5588804 -29.05091613 21.5588804 -28.98339844 24.0300293 C-29.00311707 24.97077805 -29.02283569 25.91152679 -29.04315186 26.88078308 C-29.04499481 28.39965874 -29.04499481 28.39965874 -29.046875 29.94921875 C-29.06341125 30.98818802 -29.07994751 32.02715729 -29.09698486 33.09761047 C-29.14560857 36.41929958 -29.16686814 39.74053042 -29.1875 43.0625 C-29.21564758 45.31317428 -29.24557329 47.56382707 -29.27734375 49.81445312 C-29.35137171 55.33459771 -29.40085872 60.85448574 -29.4375 66.375 C-35.0475 66.375 -40.6575 66.375 -46.4375 66.375 C-46.4375 44.265 -46.4375 22.155 -46.4375 -0.625 C-42.8075 -0.625 -39.1775 -0.625 -35.4375 -0.625 C-33.4375 3.375 -33.4375 3.375 -33.4375 7.375 C-32.82003906 6.90449219 -32.20257812 6.43398437 -31.56640625 5.94921875 C-21.64068279 -1.3477743 -11.96981252 -5.65845683 0 0 Z " fill="#000000" transform="translate(778.4375,99.625)"/>
<path d="M0 0 C4.62 0 9.24 0 14 0 C14 6.27 14 12.54 14 19 C18.29 19 22.58 19 27 19 C27 23.29 27 27.58 27 32 C22.71 32 18.42 32 14 32 C14.11793339 37.53604375 14.24215781 43.07189613 14.37231445 48.60766602 C14.41572933 50.49239218 14.45739943 52.37715936 14.49731445 54.26196289 C14.55485893 56.96513249 14.61859804 59.66809436 14.68359375 62.37109375 C14.70030624 63.21900986 14.71701874 64.06692596 14.73423767 64.9405365 C14.46409195 68.78292076 14.46409195 68.78292076 16 72 C18.01964199 72.07244053 20.04167124 72.08377188 22.0625 72.0625 C24.021875 72.041875 25.98125 72.02125 28 72 C28.495 78.435 28.495 78.435 29 85 C21.84753464 87.6008965 13.31754097 88.60656392 6.0625 85.8125 C1.27683975 82.98017046 -1.43155638 80.81665003 -3.12451172 75.40625 C-4.18130874 70.81125318 -4.255033 66.38403665 -4.1953125 61.6875 C-4.1924826 60.83317383 -4.18965271 59.97884766 -4.18673706 59.09863281 C-4.17563879 56.39893947 -4.15055427 53.69959123 -4.125 51 C-4.11495679 49.15755691 -4.1058333 47.31510857 -4.09765625 45.47265625 C-4.0757335 40.98164006 -4.04127646 36.49087832 -4 32 C-6.97 32 -9.94 32 -13 32 C-13 27.71 -13 23.42 -13 19 C-9.7 19 -6.4 19 -3 19 C-2.95101562 18.21496094 -2.90203125 17.42992188 -2.8515625 16.62109375 C-2.4379964 10.80977697 -1.88217852 5.521057 0 0 Z " fill="#000000" transform="translate(804,80)"/>
<path d="M0 0 C-0.34013015 5.44208234 -3.70296528 8.93668198 -7 13 C-7.70125 12.71125 -8.4025 12.4225 -9.125 12.125 C-17.75129659 8.63953362 -17.75129659 8.63953362 -26.6875 10.0625 C-30.24440687 13.04261116 -31.71078251 16.72687357 -32.28686523 21.25463867 C-32.40166997 23.69769355 -32.4095769 26.11714449 -32.375 28.5625 C-32.38660156 29.38685547 -32.39820313 30.21121094 -32.41015625 31.06054688 C-32.38178441 36.97607608 -31.36394771 41.27236803 -27.375 45.875 C-23.61267814 47.65715246 -20.08040194 47.64680908 -16 47 C-13.41894899 45.90020475 -11.36210847 44.55899159 -9 43 C-8.01 42.67 -7.02 42.34 -6 42 C-4.79427404 43.38012023 -3.61094249 44.77982828 -2.4375 46.1875 C-1.77621094 46.96480469 -1.11492188 47.74210937 -0.43359375 48.54296875 C1 51 1 51 0.94140625 53.6328125 C-0.70321421 57.76824818 -4.16040497 59.09756051 -8 61 C-16.17614769 64.36664905 -26.68479206 64.34803217 -34.9375 61.1015625 C-43.23015228 56.67253231 -47.14072057 50.47005398 -50.078125 41.828125 C-51.14947584 37.37929525 -51.38413515 33.30798098 -51.375 28.75 C-51.37338867 27.91315674 -51.37177734 27.07631348 -51.37011719 26.21411133 C-51.17707071 16.43592862 -48.47504605 7.43575146 -41.3671875 0.37890625 C-29.39164546 -10.43018689 -12.54867494 -8.95845459 0 0 Z " fill="#000000" transform="translate(949,104)"/>
<path d="M0 0 C5.61 0 11.22 0 17 0 C17 5.28 17 10.56 17 16 C11.72 16 6.44 16 1 16 C1 20.62 1 25.24 1 30 C6.28 30 11.56 30 17 30 C17 35.28 17 40.56 17 46 C11.39 46 5.78 46 0 46 C0 41.05 0 36.1 0 31 C-4.62 31 -9.24 31 -14 31 C-14 35.95 -14 40.9 -14 46 C-18.29 46 -22.58 46 -27 46 C-26.98839844 46.99902344 -26.97679687 47.99804688 -26.96484375 49.02734375 C-26.95582031 50.31769531 -26.94679688 51.60804687 -26.9375 52.9375 C-26.92589844 54.22527344 -26.91429687 55.51304688 -26.90234375 56.83984375 C-27 60 -27 60 -28 61 C-30.16480797 61.0989294 -32.33293785 61.129711 -34.5 61.125 C-35.6859375 61.12757812 -36.871875 61.13015625 -38.09375 61.1328125 C-41 61 -41 61 -42 60 C-42.08783542 57.78144736 -42.10694609 55.56011504 -42.09765625 53.33984375 C-42.0962413 52.67537735 -42.09482635 52.01091095 -42.09336853 51.3263092 C-42.08775518 49.19666101 -42.07520054 47.06711661 -42.0625 44.9375 C-42.05748671 43.49674631 -42.05292351 42.05599097 -42.04882812 40.61523438 C-42.03863076 37.07675042 -42.0190583 33.53849187 -42 30 C-33.09 30 -24.18 30 -15 30 C-15 25.05 -15 20.1 -15 15 C-10.05 15 -5.1 15 0 15 C0 10.05 0 5.1 0 0 Z " fill="#050300" transform="translate(407,1)"/>
<path d="M0 0 C2.31 0 4.62 0 7 0 C8.31626692 3.61973402 9 6.09567131 9 10 C9.66 10 10.32 10 11 10 C11.144375 8.72125 11.28875 7.4425 11.4375 6.125 C11.70642746 3.74307106 11.92226346 2.15547309 13 0 C14.98 0 16.96 0 19 0 C19 6.6 19 13.2 19 20 C17.68 20 16.36 20 15 20 C14.67 18.02 14.34 16.04 14 14 C13.34 15.98 12.68 17.96 12 20 C10.35 19.67 8.7 19.34 7 19 C6.67 18.01 6.34 17.02 6 16 C5.67 17.32 5.34 18.64 5 20 C3.35 20 1.7 20 0 20 C0 13.4 0 6.8 0 0 Z " fill="#000000" transform="translate(975,145)"/>
<path d="M0 0 C1.4883163 0.00574353 2.97660671 0.01875734 4.46484375 0.03515625 C7.08421875 0.05578125 9.70359375 0.07640625 12.40234375 0.09765625 C12.40234375 5.37765625 12.40234375 10.65765625 12.40234375 16.09765625 C6.79234375 16.09765625 1.18234375 16.09765625 -4.59765625 16.09765625 C-4.61828125 13.64328125 -4.63890625 11.18890625 -4.66015625 8.66015625 C-4.66926025 7.88615479 -4.67836426 7.11215332 -4.68774414 6.31469727 C-4.69490538 4.57543908 -4.64790327 2.83620321 -4.59765625 1.09765625 C-3.59765625 0.09765625 -3.59765625 0.09765625 0 0 Z " fill="#FCBA30" transform="translate(411.59765625,30.90234375)"/>
<path d="M0 0 C5.61 0 11.22 0 17 0 C17 5.28 17 10.56 17 16 C13.0709375 16.0309375 13.0709375 16.0309375 9.0625 16.0625 C8.2362915 16.071604 7.41008301 16.08070801 6.55883789 16.09008789 C4.70566241 16.09723945 2.85250692 16.0502852 1 16 C0 15 0 15 -0.09765625 11.62109375 C-0.09191424 10.22652508 -0.07890228 8.83198403 -0.0625 7.4375 C-0.041875 4.983125 -0.02125 2.52875 0 0 Z " fill="#FCBB30" transform="translate(407,1)"/>
<path d="M0 0 C4.62 0 9.24 0 14 0 C14.09765625 10.83984375 14.09765625 10.83984375 14 14 C13 15 13 15 10.05859375 15.09765625 C6.70572917 15.06510417 3.35286458 15.03255208 0 15 C0 10.05 0 5.1 0 0 Z " fill="#FCBB30" transform="translate(366,47)"/>
<path d="M0 0 C4.62 0 9.24 0 14 0 C14 4.62 14 9.24 14 14 C9.38 14 4.76 14 0 14 C0 9.38 0 4.76 0 0 Z " fill="#F8B72F" transform="translate(301,149)"/>
<path d="M0 0 C4.62 0 9.24 0 14 0 C14 4.62 14 9.24 14 14 C9.38 14 4.76 14 0 14 C0 9.38 0 4.76 0 0 Z " fill="#F4B42E" transform="translate(301,113)"/>
<path d="M0 0 C4.62 0 9.24 0 14 0 C14 1.32 14 2.64 14 4 C12.35 4 10.7 4 9 4 C9 9.28 9 14.56 9 20 C7.35 20 5.7 20 4 20 C4 14.72 4 9.44 4 4 C2.68 4 1.36 4 0 4 C0 2.68 0 1.36 0 0 Z " fill="#000000" transform="translate(959,145)"/>
<path d="M0 0 C0.33 0 0.66 0 1 0 C1 3.96 1 7.92 1 12 C5.62 12 10.24 12 15 12 C15 12.33 15 12.66 15 13 C10.38 13 5.76 13 1 13 C1 17.62 1 22.24 1 27 C0.67 27 0.34 27 0 27 C0 22.38 0 17.76 0 13 C-4.62 13 -9.24 13 -14 13 C-14 20.26 -14 27.52 -14 35 C-14.33 35 -14.66 35 -15 35 C-15 27.41 -15 19.82 -15 12 C-10.05 12 -5.1 12 0 12 C0 8.04 0 4.08 0 0 Z " fill="#674C13" transform="translate(300,100)"/>
</svg>
