<?xml version="1.0" encoding="UTF-8"?>
<svg version="1.1" xmlns="http://www.w3.org/2000/svg" width="1280" height="640">
<path d="M0 0 C422.4 0 844.8 0 1280 0 C1280 211.2 1280 422.4 1280 640 C857.6 640 435.2 640 0 640 C0 428.8 0 217.6 0 0 Z " fill="#00B4C8" transform="translate(0,0)"/>
<path d="M0 0 C18.1346796 14.48940948 28.2381922 36.02748812 30.92871094 58.90234375 C32.08626612 72.37835926 32.05478028 86.18292591 28.125 99.1875 C27.77308594 100.4146875 27.42117188 101.641875 27.05859375 102.90625 C20.94312877 123.27471476 9.65321725 139.1117436 -8.7421875 149.86328125 C-26.97792146 159.60996664 -50.87205933 162.75017421 -70.96875 157.15625 C-93.40360869 149.67796377 -108.69084051 136.12305754 -119.3671875 115.2734375 C-126.11767844 101.09341214 -128.03941124 87.12025429 -128.125 71.5625 C-128.13426514 70.51376709 -128.14353027 69.46503418 -128.15307617 68.38452148 C-128.12528611 61.44082119 -127.31918599 54.97181558 -125.875 48.1875 C-125.68679688 47.15238281 -125.49859375 46.11726563 -125.3046875 45.05078125 C-121.18551749 26.10840084 -109.078329 7.86748771 -92.875 -2.8125 C-84.42965555 -7.89218006 -75.59008972 -11.92258705 -65.875 -13.8125 C-65.00875 -13.99296875 -64.1425 -14.1734375 -63.25 -14.359375 C-41.17627844 -17.32297651 -18.03542361 -13.74002792 0 0 Z " fill="#FCFEFE" transform="translate(1157.875,323.8125)"/>
<path d="M0 0 C12.59987168 10.71083545 18.45304243 23.68436905 20.29296875 39.96484375 C20.42852709 43.71855567 20.41946772 47.46856733 20.40649414 51.22436523 C20.40664017 52.33729446 20.40678619 53.45022369 20.40693665 54.59687805 C20.40624234 58.25991799 20.39847254 61.92290649 20.390625 65.5859375 C20.38875911 68.13184074 20.38733601 70.67774434 20.38633728 73.22364807 C20.38291478 79.22997324 20.37504059 85.23627648 20.36498779 91.24259287 C20.35378697 98.0842186 20.34830622 104.92584524 20.34329236 111.76747787 C20.33285684 125.83327662 20.3152822 139.89905918 20.29296875 153.96484375 C18.076135 154.44750345 15.85884064 154.92804785 13.64135742 155.40771484 C12.40665207 155.67554779 11.17194672 155.94338074 9.89982605 156.21932983 C5.15592041 157.19986424 0.40377568 157.93771864 -4.39453125 158.58984375 C-5.24080078 158.71101562 -6.08707031 158.8321875 -6.95898438 158.95703125 C-17.79901091 160.47150724 -28.49300778 161.15143478 -39.43969727 161.15014648 C-41.50623298 161.1523297 -43.57223009 161.17055349 -45.63867188 161.18945312 C-64.68686521 161.26971217 -85.5550702 159.15762033 -100.15625 145.63671875 C-110.99038604 133.95659224 -114.05938397 119.29771111 -113.921875 103.8203125 C-113.20627236 90.97849776 -108.18327345 79.7245459 -98.70703125 70.96484375 C-78.50773651 55.61593258 -53.46648353 53.55689453 -28.92724609 56.27246094 C-24.77827581 56.90845276 -20.74175345 57.79414715 -16.70703125 58.96484375 C-17.17749617 48.61461553 -17.77419724 38.20929501 -24.70703125 29.96484375 C-33.37618198 22.24243111 -41.14022996 21.60536508 -52.45703125 21.65234375 C-53.7507666 21.65435791 -55.04450195 21.65637207 -56.37744141 21.65844727 C-66.45449042 21.76337726 -75.87431067 22.90658445 -85.70703125 24.96484375 C-88.03707641 25.33407667 -90.3682436 25.65360973 -92.70703125 25.96484375 C-94.81143255 19.58759286 -95.558038 13.18131637 -96.33203125 6.52734375 C-96.46609375 5.41423828 -96.60015625 4.30113281 -96.73828125 3.15429688 C-97.06626043 0.42504152 -97.38902778 -2.30472367 -97.70703125 -5.03515625 C-67.26502585 -13.30698392 -27.13599576 -20.40094342 0 0 Z " fill="#FDFEFE" transform="translate(751.70703125,321.03515625)"/>
<path d="M0 0 C50.16 0 100.32 0 152 0 C152 10.89 152 21.78 152 33 C115.04 33 78.08 33 40 33 C40 56.76 40 80.52 40 105 C71.68 105 103.36 105 136 105 C136 115.56 136 126.12 136 137 C104.32 137 72.64 137 40 137 C40 170.33 40 203.66 40 238 C26.8 238 13.6 238 0 238 C0 159.46 0 80.92 0 0 Z " fill="#FBFEFE" transform="translate(491,244)"/>
<path d="M0 0 C1.09094971 0.00491455 2.18189941 0.0098291 3.3059082 0.01489258 C17.73153173 0.22205044 30.49546772 2.94796487 43.875 8.3125 C42.69743526 14.61866905 41.32196549 20.8760688 39.875 27.125 C39.7090332 27.85388428 39.54306641 28.58276855 39.37207031 29.33374023 C38.48080901 33.14086182 37.45106046 36.73118404 35.875 40.3125 C34.84052734 40.02246094 34.84052734 40.02246094 33.78515625 39.7265625 C32.84542969 39.46617187 31.90570312 39.20578125 30.9375 38.9375 C30.02097656 38.68226563 29.10445312 38.42703125 28.16015625 38.1640625 C27.07605469 37.88304687 25.99195313 37.60203125 24.875 37.3125 C24.2358667 37.13678467 23.5967334 36.96106934 22.93823242 36.7800293 C16.32447973 35.10679737 9.86206684 34.91051718 3.0625 34.875 C1.96357422 34.84212891 0.86464844 34.80925781 -0.26757812 34.77539062 C-11.92647843 34.69981732 -21.47806064 38.47260139 -29.8671875 46.60546875 C-41.445415 60.48732282 -43.33597639 78.142346 -42.38378906 95.55419922 C-41.02224807 110.06617103 -35.7025566 123.27006155 -24.34765625 132.69140625 C-15.6687866 139.02133754 -5.01267875 139.70169652 5.375 139.6875 C6.42292725 139.68806396 7.47085449 139.68862793 8.55053711 139.68920898 C16.48842354 139.57822776 23.7027207 138.46303363 31.31640625 136.28515625 C34.87307759 135.31302544 38.22383428 134.75891022 41.875 134.3125 C42.55080829 138.33185181 43.21400261 142.35318815 43.875 146.375 C44.06578125 147.50873047 44.2565625 148.64246094 44.453125 149.81054688 C45.36179524 155.3761521 46.13701086 160.67107867 45.875 166.3125 C19.34739303 175.34545365 -10.47359076 179.12222734 -37.0703125 167.8203125 C-57.02420793 157.97094724 -69.81568121 144.11536806 -77.2421875 123.16015625 C-80.93491463 111.82590985 -82.48321457 100.84110269 -82.375 88.9375 C-82.36750732 87.84260254 -82.36001465 86.74770508 -82.35229492 85.61962891 C-82.01955383 60.55809061 -74.48887565 39.08068817 -56.75 20.875 C-41.07877301 6.00742567 -21.26366266 -0.11436532 0 0 Z " fill="#FCFEFE" transform="translate(971.125,308.6875)"/>
<path d="M0 0 C0.00146656 1.01729659 0.00293312 2.03459318 0.00444412 3.08271694 C0.04105387 27.84616859 0.10052292 52.60948514 0.18390274 77.37282467 C0.22369664 89.34824279 0.2560874 101.32359517 0.27099609 113.29907227 C0.28401073 123.73800537 0.31097077 134.17679383 0.35461307 144.61564547 C0.37723191 150.14195327 0.39291041 155.66808264 0.39188385 161.19444084 C0.3911375 166.39917397 0.40907856 171.60351258 0.44116783 176.80814362 C0.44966577 178.71522535 0.45141749 180.62235134 0.44580269 182.52944374 C0.26827881 197.74391751 0.26827881 197.74391751 7.375 210.8125 C12.27656809 214.48867607 19.15912356 215.56778509 25 217 C24.53865618 224.07924144 23.59618837 231.0583777 22.5 238.0625 C22.36940186 238.9078833 22.23880371 239.7532666 22.10424805 240.62426758 C21.91342651 241.81765747 21.91342651 241.81765747 21.71875 243.03515625 C21.54762695 244.10842163 21.54762695 244.10842163 21.37304688 245.20336914 C21 247 21 247 20 249 C2.78712583 248.57393876 -14.14389514 246.71896552 -27.4375 234.65625 C-36.34315405 225.21625671 -38.16757236 212.95130053 -38.12025452 200.45155334 C-38.12153615 199.19914019 -38.12153615 199.19914019 -38.12284368 197.92142576 C-38.12448419 195.13778054 -38.11900061 192.35419626 -38.11352539 189.57055664 C-38.11324318 187.56954958 -38.11340191 185.56854241 -38.1139679 183.5675354 C-38.11425456 178.14456006 -38.10837887 172.72160687 -38.10139394 167.29863667 C-38.09513872 161.6278388 -38.09455488 155.95704041 -38.09336853 150.28623962 C-38.09026161 139.55188816 -38.08205683 128.81754689 -38.07201904 118.08319992 C-38.06083806 105.86078057 -38.05534245 93.63836073 -38.05032361 81.41593754 C-38.0398737 56.27728604 -38.02228662 31.13864359 -38 6 C-33.07094305 5.14230988 -28.14133344 4.28789767 -23.21118164 3.43652344 C-21.53394204 3.14640982 -19.85685724 2.85539974 -18.17993164 2.56347656 C-15.77009538 2.14412654 -13.35972152 1.72799937 -10.94921875 1.3125 C-9.82407112 1.11563599 -9.82407112 1.11563599 -8.67619324 0.91479492 C-5.74238121 0.41169303 -2.98300255 0 0 0 Z " fill="#FEFEFE" transform="translate(849,233)"/>
<path d="M0 0 C2.70887503 0.8864767 5.16964007 2.10990674 7.6875 3.4375 C8.72861938 3.97286377 8.72861938 3.97286377 9.79077148 4.51904297 C16.40023834 8.02250878 22.2198968 12.24610632 28 17 C28.75667969 17.61617187 29.51335937 18.23234375 30.29296875 18.8671875 C31.89619871 20.2048125 33.45503296 21.59548451 35 23 C35 23.33 35 23.66 35 24 C27.27897824 25.56417251 19.55410477 27.10337415 11.8125 28.5625 C9.93920251 28.91561358 8.06598814 29.26940841 6.19577986 29.63853401 C4 30 4 30 1.31610626 30.20631891 C-7.53169451 31.10234563 -11.78085772 34.36803217 -17.83738708 40.64830017 C-18.75066098 41.55444095 -19.66393487 42.46058172 -20.60488373 43.39418131 C-23.12210268 45.89303135 -25.60725869 48.42173673 -28.08803594 50.95669782 C-30.77522166 53.69138819 -33.49150861 56.39690729 -36.20433044 59.10612488 C-40.89573774 63.79910646 -45.56864153 68.50987452 -50.22942924 73.2332592 C-56.97244767 80.06660622 -63.74406012 86.87103007 -70.52306033 93.66866095 C-81.52772894 104.70494029 -92.51062769 115.76261728 -103.47924805 126.8347168 C-114.12147418 137.57722227 -124.77132622 148.31205292 -135.43334961 159.03491211 C-136.09048293 159.69580347 -136.74761625 160.35669483 -137.4246627 161.03761321 C-144.59844671 168.25203533 -151.77408575 175.46461082 -158.95058537 182.67633152 C-160.85377576 184.58892197 -162.75695874 186.50151982 -164.66013186 188.41412746 C-165.91462595 189.67481175 -167.16915135 190.93546489 -168.42370857 192.19608635 C-176.40450306 200.21572971 -184.3771168 208.24338601 -192.34107482 216.2797488 C-196.35689664 220.33182133 -200.37608509 224.3805471 -204.39634513 228.42821591 C-207.57519524 231.62923087 -210.7497791 234.83439441 -213.92108109 238.04288661 C-216.29384383 240.44085231 -218.67315779 242.83228294 -221.05149841 245.22471619 C-221.89253929 246.07840394 -222.73358017 246.9320917 -223.60010713 247.81164879 C-224.37597581 248.58970235 -225.15184448 249.36775592 -225.95122433 250.16938686 C-226.61720416 250.84154686 -227.28318399 251.51370686 -227.96934503 252.20623535 C-232.48062448 256.19124202 -235.92575425 257.55068445 -241.84375 257.36328125 C-245.0640318 256.82073377 -246.79950371 255.3380273 -249 253 C-250.70136195 249.5972761 -250.93358054 246.61988324 -250 243 C-247.38182556 239.27882525 -244.25236851 236.16910788 -241 233 C-240.36964844 232.36964844 -239.73929688 231.73929688 -239.08984375 231.08984375 C-237.98428173 229.98428173 -236.87393889 228.88346994 -235.7578125 227.78857422 C-234.13504422 226.13740749 -232.64949687 224.43898955 -231.16015625 222.66796875 C-226.03815754 216.780645 -220.47292429 211.32383848 -214.94848633 205.81811523 C-213.06671726 203.94170525 -211.19035262 202.06001031 -209.31445312 200.17773438 C-208.09667462 198.96061679 -206.87858589 197.7438095 -205.66015625 196.52734375 C-205.11094009 195.97610336 -204.56172394 195.42486298 -203.99586487 194.85691833 C-201.17529198 192.05289025 -198.29765421 189.36787571 -195.27786732 186.77885914 C-191.07550571 183.11471801 -187.11751131 179.25185108 -183.18669128 175.30021667 C-182.44284961 174.55652386 -181.69900793 173.81283104 -180.93262559 173.04660207 C-178.46075793 170.57404438 -175.99247511 168.09793981 -173.52416992 165.62182617 C-171.74485183 163.84058743 -169.96530483 162.05957732 -168.18554688 160.27877808 C-164.36405859 156.45413641 -160.54407086 152.62800591 -156.7253933 148.80055809 C-151.20157612 143.26414779 -145.67448737 137.73101263 -140.14651755 132.19874898 C-131.17249529 123.21767304 -122.20034496 114.23472969 -113.22973633 105.25024414 C-112.693746 104.713426 -112.15775567 104.17660786 -111.60552321 103.6235225 C-107.79946682 99.81156357 -103.99347708 95.99953811 -100.1875 92.1875 C-95.83118476 87.82425152 -91.47483549 83.461037 -87.1184082 79.09790039 C-86.58156 78.56022406 -86.0447118 78.02254773 -85.49159547 77.46857818 C-76.54679134 68.51009814 -67.60003084 59.55357438 -58.65186769 50.59844953 C-53.13550807 45.07760699 -47.62093544 39.55499083 -42.10864667 34.03008369 C-37.89163755 29.80366938 -33.67210936 25.57977951 -29.45163727 21.35682297 C-27.71850763 19.62181537 -25.98624556 17.88594065 -24.25489998 16.14915276 C-21.89834986 13.78542625 -19.53876975 11.42476699 -17.1783905 9.06486511 C-16.48832434 8.37120399 -15.79825818 7.67754287 -15.08728093 6.96286172 C-14.45574678 6.33270191 -13.82421262 5.70254211 -13.17354107 5.05328655 C-12.62918177 4.50800546 -12.08482248 3.96272437 -11.52396744 3.40091962 C-7.63284581 -0.17602597 -5.16722329 -0.46297469 0 0 Z " fill="#FBFEFE" transform="translate(349,223)"/>
<path d="M0 0 C2.7578125 1.69921875 2.7578125 1.69921875 5.125 3.4375 C5.78242187 3.89769531 6.43984375 4.35789062 7.1171875 4.83203125 C11.42403935 8.45935758 13.87989659 13.26255673 16.4375 18.1875 C16.94458496 19.15212158 16.94458496 19.15212158 17.46191406 20.13623047 C22.04193065 29.51203951 22.49296868 39.47165277 22.4375 49.75 C22.43186035 50.84723389 22.4262207 51.94446777 22.42041016 53.07495117 C22.1838534 68.90434534 18.81689618 83.71592214 7.41796875 95.45703125 C-1.42066723 103.09108311 -9.99632796 104.26435613 -21.26171875 103.94140625 C-31.49150472 103.18316152 -39.13924002 98.61479442 -46.0625 91.25 C-49.65315247 86.82022766 -51.88447348 81.74777508 -53.875 76.4375 C-54.13756592 75.76114502 -54.40013184 75.08479004 -54.6706543 74.38793945 C-57.3300252 66.75914085 -57.38702187 59.25750713 -57.3125 51.25 C-57.30945862 50.56185211 -57.30641724 49.87370422 -57.30328369 49.16470337 C-57.19450912 32.5698129 -54.67797333 18.76687045 -43.1875 6.125 C-31.90185904 -4.25526305 -13.99227321 -6.56384065 0 0 Z " fill="#00B4C8" transform="translate(1126.875,345.5625)"/>
<path d="M0 0 C3 1.5 3 1.5 5 4 C5.88783651 7.2215782 5.75997016 9.75937135 5 13 C3.66306084 14.94161332 3.66306084 14.94161332 1.92877483 16.81286812 C1.29237493 17.50454024 0.65597502 18.19621235 0.00029027 18.90884423 C-3.16960717 22.22273793 -6.3638985 25.50507759 -9.61039734 28.74411011 C-10.34451192 29.48049025 -11.07862651 30.21687039 -11.83498698 30.97556508 C-14.27524595 33.42211269 -16.71902252 35.86511459 -19.1628418 38.30810547 C-20.92110781 40.06936598 -22.67916931 41.83083068 -24.43704224 43.59248352 C-28.70333697 47.86667474 -32.97199621 52.13849056 -37.24196085 56.40901451 C-40.7116749 59.87920499 -44.18059551 63.35018663 -47.64896584 66.82172012 C-57.49047965 76.67202641 -67.33407274 86.520248 -77.18035951 96.36578332 C-77.710023 96.89540685 -78.23968649 97.42503039 -78.78540039 97.97070312 C-79.31571268 98.50097454 -79.84602497 99.03124595 -80.39240734 99.57758619 C-89.00352536 108.18829699 -97.60963267 116.80399673 -106.21350541 125.42194651 C-115.05570892 134.27850262 -123.90162423 143.13133629 -132.75143939 151.98028672 C-137.71698215 156.94549737 -142.68097055 161.91223949 -147.64096642 166.88299179 C-152.29929978 171.5513633 -156.96276051 176.2145672 -161.62976456 180.8742733 C-163.34399051 182.58744993 -165.05649987 184.30234612 -166.76718712 186.01905632 C-169.09706319 188.35660539 -171.43297428 190.68794978 -173.77055359 193.01779175 C-174.45060713 193.70298885 -175.13066067 194.38818596 -175.8313219 195.09414661 C-176.45849701 195.71672292 -177.08567212 196.33929924 -177.73185253 196.9807415 C-178.27029865 197.51940499 -178.80874478 198.05806848 -179.36350745 198.61305511 C-182.43566669 201.21674283 -184.37226456 202.01141337 -188.4375 201.9375 C-192.64827101 200.82940237 -194.25210722 199.31363542 -197 196 C-198.51816358 192.96367283 -198.49607651 191.41052601 -198 188 C-193.97398054 181.78803704 -188.75227941 176.46162651 -183.52368164 171.26298523 C-182.80393441 170.53941245 -182.08418718 169.81583968 -181.34262943 169.07034045 C-178.95317699 166.6706496 -176.5567248 164.27808043 -174.16015625 161.88549805 C-172.43610711 160.15709754 -170.71247506 158.42828092 -168.98922729 156.69908142 C-164.80808287 152.50596955 -160.62225972 148.31756617 -156.43395495 144.13160934 C-153.02916849 140.72861124 -149.626164 137.32384086 -146.22439575 133.9178257 C-145.73890166 133.43173642 -145.25340757 132.94564714 -144.75320154 132.44482789 C-143.76673925 131.45715377 -142.78027811 130.4694785 -141.79381812 129.48180208 C-132.56209939 120.23922986 -123.32389766 111.00315895 -114.08369792 101.76906673 C-105.63680653 93.32734991 -97.19817071 84.87743511 -88.7633692 76.4236398 C-80.08919746 67.73008586 -71.40947424 59.04211063 -62.72372723 50.36012107 C-57.85261281 45.49091717 -52.98371423 40.61954651 -48.12063599 35.74231529 C-43.55084573 31.15935936 -38.9732575 26.58428803 -34.39035416 22.01444435 C-32.71038232 20.3368407 -31.03296337 18.65667604 -29.35830307 16.97377014 C-27.07118311 14.67620286 -24.77500158 12.38808657 -22.47631836 10.10209656 C-21.81667619 9.4350801 -21.15703402 8.76806364 -20.47740269 8.08083457 C-14.43722676 2.11056216 -8.76161654 -2.78612074 0 0 Z " fill="#FBFDFE" transform="translate(356,279)"/>
<path d="M0 0 C5.16553311 2.93664596 9.11099106 6.83101213 13.27581787 11.02857971 C13.98598785 11.73633527 14.69615782 12.44409083 15.4278481 13.17329353 C17.80009798 15.53991931 20.16514771 17.91360968 22.53027344 20.28735352 C24.23190325 21.98791015 25.93396599 23.68803368 27.63642883 25.38775635 C31.7750034 29.52198891 35.90892489 33.66083816 40.04069272 37.80187053 C44.85272788 42.62430631 49.67000267 47.44149388 54.48748341 52.25848865 C63.08122318 60.85172824 71.67012838 69.44978375 80.25634766 78.05053711 C88.58898161 86.39726859 96.92511976 94.74047948 105.26513672 103.07983398 C106.03620135 103.85083868 106.03620135 103.85083868 106.82284304 104.63741923 C107.33599701 105.15053284 107.84915098 105.66364645 108.37785506 106.19230896 C117.87435428 115.68811859 127.36756177 125.18721299 136.85923712 134.68784424 C140.21641725 138.04804156 143.57457411 141.40726087 146.9330368 144.76617622 C151.44987745 149.28376968 155.96391854 153.80414884 160.4760952 158.32640076 C162.13532533 159.98855843 163.79540907 161.64986448 165.45639229 163.31027031 C167.71728891 165.57067825 169.97509985 167.83412301 172.2321167 170.09840393 C173.22694018 171.09090451 173.22694018 171.09090451 174.2418611 172.1034556 C175.14622511 173.01265628 175.14622511 173.01265628 176.0688591 173.94022465 C176.59038016 174.46245013 177.11190122 174.98467562 177.64922595 175.52272612 C180.71901657 178.88000227 181.51822173 181.38636363 181.3671875 185.92578125 C180.65578507 189.94444818 179.18568893 191.39943761 176 194 C172.77677673 194.90691453 170.24787792 194.72955972 167 194 C161.20042755 190.61715271 156.38999721 185.67901257 151.68695068 180.94764709 C150.99690075 180.26142271 150.30685082 179.57519832 149.59589028 178.86817926 C147.30364202 176.58618293 145.01853299 174.29717473 142.73339844 172.00805664 C141.08396249 170.36297136 139.43411021 168.71830341 137.78387451 167.07402039 C133.31663258 162.62013824 128.85578552 158.15990365 124.39648724 153.69806981 C120.19852224 149.49889785 115.99684733 145.30344289 111.79556969 141.10758572 C102.96980446 132.29267754 94.15054527 123.47128248 85.33326104 114.64789223 C77.27300441 106.58246253 69.20455497 98.52528597 61.13221857 90.47194798 C52.83193928 82.19105327 44.53724201 73.90460508 36.24852777 65.61213392 C31.59947112 60.96126424 26.94821611 56.31264824 22.29131317 51.66963387 C17.91467881 47.30556564 13.54534836 42.93431453 9.18152618 38.55743599 C7.57971325 36.9532555 5.97534088 35.35162594 4.3682251 33.75275803 C2.17350637 31.56849218 -0.01174464 29.3751659 -2.19488525 27.17933655 C-2.83145624 26.55013984 -3.46802723 25.92094314 -4.12388825 25.27267987 C-8.75817081 20.5816227 -12.57114657 16.10918738 -13.5 9.375 C-12.91488179 5.42545209 -11.79599402 3.79599402 -9 1 C-5.89046621 -0.5547669 -3.43733239 -0.28644437 0 0 Z " fill="#FBFDFE" transform="translate(77,87)"/>
<path d="M0 0 C3.37021602 2.0970233 5.89129539 4.11953387 7 8 C7.24103965 12.01732755 6.8221667 13.93946077 4.34361267 17.1366272 C-1.45873707 23.43952142 -7.43157065 29.54139709 -13.52062798 35.56522751 C-15.2260123 37.25291589 -16.92756701 38.94438501 -18.62818909 40.63687134 C-23.45571907 45.44019147 -28.2891515 50.23754144 -33.12670898 55.03076172 C-36.10445535 57.98173406 -39.07731696 60.93755496 -42.04722786 63.8964119 C-43.17405638 65.01704517 -44.30277728 66.13577901 -45.43343925 67.2525444 C-47.00765354 68.80754515 -48.57561276 70.36860751 -50.14233398 71.93115234 C-51.48061501 73.25824722 -51.48061501 73.25824722 -52.84593201 74.6121521 C-55.851749 77.94418889 -56.98380003 79.78716258 -57.04394531 84.29003906 C-55.62860887 89.31984556 -52.99885343 91.79648595 -49.296875 95.359375 C-48.62207092 96.03043274 -47.94726685 96.70149048 -47.25201416 97.3928833 C-45.82651723 98.80497134 -44.39386006 100.20986317 -42.95458984 101.60791016 C-40.75741624 103.74279401 -38.58228794 105.89826445 -36.41015625 108.05859375 C-35.01946533 109.43094131 -33.62757715 110.80207689 -32.234375 112.171875 C-31.58523132 112.81251892 -30.93608765 113.45316284 -30.26727295 114.11322021 C-22.23546436 121.89491144 -16.52081208 123.07150015 -5.5078125 123.5234375 C-1.7197498 124.03807408 0.75453914 125.00352116 4 127 C6.47739149 130.71608723 6.63913888 133.69422231 6 138 C4.54030603 141.0520874 3.3345144 142.45419218 0.17578125 143.74609375 C-5.63130848 145.21560162 -11.66427284 145.25688023 -17.625 145.375 C-18.82394897 145.41427612 -18.82394897 145.41427612 -20.04711914 145.4543457 C-30.10929431 145.48236826 -36.45811055 140.40987504 -43.42919922 133.58447266 C-48.13371741 128.83900746 -52.66748079 123.92710784 -57.22265625 119.0390625 C-62.62817459 113.24238168 -68.09317901 107.58633578 -74.125 102.4375 C-85.60613855 92.58995031 -85.60613855 92.58995031 -86.23828125 86.828125 C-86.26277344 85.97734375 -86.28726562 85.1265625 -86.3125 84.25 C-86.34988281 83.40953125 -86.38726562 82.5690625 -86.42578125 81.703125 C-85.4028754 75.20908055 -79.7796297 70.4917017 -75.30712891 66.04833984 C-74.64318619 65.38089249 -73.97924347 64.71344513 -73.29518127 64.02577209 C-71.1106277 61.83245401 -68.9188845 59.64648865 -66.7265625 57.4609375 C-65.1993637 55.93239054 -63.67246183 54.40354687 -62.14584351 52.87442017 C-58.94975469 49.67538723 -55.75008797 46.47998819 -52.54785156 43.28710938 C-48.44998662 39.20063841 -44.3611659 35.10525443 -40.27498817 31.00710106 C-37.12500454 27.84987967 -33.97025954 24.69745058 -30.81406784 21.54643631 C-29.30476569 20.03846535 -27.7969396 18.5290155 -26.29063797 17.01804733 C-24.18245625 14.904769 -22.06793846 12.79803723 -19.95166016 10.69287109 C-19.02564247 9.76078072 -19.02564247 9.76078072 -18.08091736 8.80986023 C-8.00872562 -1.16490554 -8.00872562 -1.16490554 0 0 Z " fill="#FBFDFE" transform="translate(355,337)"/>
<path d="M0 0 C4.42479391 2.61210166 8.04591145 5.75898634 11.64337158 9.3894043 C12.44523742 10.18659016 12.44523742 10.18659016 13.26330256 10.99988079 C15.0413057 12.76994943 16.81212483 14.54702889 18.58300781 16.32421875 C19.86100607 17.5995052 21.13942903 18.87436616 22.41824341 20.14883423 C25.8812768 23.60276589 29.33797323 27.06297471 32.79328251 30.5246315 C36.4114996 34.14791783 40.03460032 37.76631549 43.65692139 41.38549805 C49.73647233 47.46141298 55.81179967 53.5415272 61.88476562 59.62402344 C68.90769802 66.65784945 75.9378196 73.6844283 82.97169995 80.70730495 C89.01200479 86.73853822 95.04840886 92.77365478 101.08156085 98.81204319 C104.68446083 102.41806231 108.28870115 106.02271382 111.89646149 109.62387085 C115.28595763 113.00759574 118.67053532 116.39616417 122.05135727 119.78855515 C123.29367133 121.03351653 124.53769573 122.27677387 125.783535 123.51820755 C127.48187393 125.21109285 129.17395036 126.90999953 130.86456299 128.6105957 C131.6084203 129.34776085 131.6084203 129.34776085 132.36730504 130.09981823 C134.78902337 132.54941078 136.82245607 134.73123956 138 138 C137.92302727 142.15652755 137.25493709 145.1047552 134.8125 148.4375 C132 151 132 151 129.1875 151.6875 C115.98810621 148.84057193 105.45473771 134.60700523 96.2956543 125.45678711 C95.15963571 124.32540988 94.023425 123.19422554 92.88703918 122.06321716 C89.8311826 119.02034723 86.77854812 115.97426613 83.72694373 112.92713237 C81.81600707 111.01914474 79.90449249 109.11173791 77.99280739 107.2045002 C71.99818676 101.22350919 66.00553802 95.240553 60.01578873 89.25468343 C53.12450064 82.3678855 46.22670134 75.4876975 39.32322377 68.61311907 C33.96735637 63.27889004 28.61728893 57.93888882 23.27156192 52.59449774 C20.08654413 49.41052506 16.89917198 46.22900013 13.70572472 43.05348015 C10.70556525 40.06984197 7.7127005 37.0790724 4.72517204 34.08278847 C3.63173695 32.98858558 2.53576049 31.8969151 1.43699265 30.80806732 C-12.12841293 17.35793536 -12.12841293 17.35793536 -13.625 9.875 C-12.73424568 5.77753012 -10.92439345 3.99402186 -8 1 C-5.13391871 -0.43304064 -3.18699217 -0.30644155 0 0 Z " fill="#FBFDFE" transform="translate(91,161)"/>
<path d="M0 0 C6.70131978 3.49850141 12.04811583 8.61914698 17.31787109 13.94555664 C18.0946521 14.71868698 18.87143311 15.49181732 19.67175293 16.28837585 C22.21307639 18.82165546 24.74346849 21.36554099 27.2734375 23.91015625 C29.04649589 25.6837338 30.82007394 27.45679199 32.59414673 29.22935486 C36.77173137 33.40704035 40.94189799 37.59202607 45.10915339 41.78001255 C48.90285017 45.59127529 52.70560087 49.3933941 56.51085603 53.19311243 C60.64237803 57.31893204 64.76814111 61.45046277 68.89125443 65.58468437 C70.64022226 67.33749861 72.39053725 69.08896974 74.14222336 70.83906746 C76.58595512 73.28242838 79.02308707 75.73218491 81.45849609 78.18383789 C82.18162994 78.90449432 82.90476379 79.62515076 83.64981079 80.36764526 C92.42588169 89.23732067 92.42588169 89.23732067 92.4375 95 C92.29182657 99.05585501 90.93734866 101.14904395 88 104 C84.4360087 105.78199565 80.87443181 105.74244345 77 105 C74.74254238 103.60710062 73.04865878 102.0485378 71.18234253 100.16590881 C69.07375963 98.07320419 66.89658037 96.11379532 64.66455078 94.15405273 C57.62913104 87.84707484 50.98596899 81.15029044 44.3046875 74.47265625 C42.90331918 73.07450963 41.50187943 71.67643461 40.10037231 70.27842712 C37.17891473 67.3629209 34.25949393 64.44539261 31.34130859 61.52661133 C27.62357262 57.80877359 23.89899035 54.0978773 20.17262077 50.38869572 C17.28135348 47.50860497 14.39470141 44.62392167 11.50928116 41.73797417 C10.13873164 40.36859495 8.76658311 39.00081396 7.3927269 37.63475227 C-13.47114443 16.87827414 -13.47114443 16.87827414 -14.375 10.25 C-13.8528401 5.7246142 -12.15770622 4.2328897 -9 1 C-5.77239609 -0.61380195 -3.59420831 -0.39935648 0 0 Z " fill="#FAFDFE" transform="translate(107,236)"/>
<path d="M0 0 C1.67835938 -0.00483398 1.67835938 -0.00483398 3.390625 -0.00976562 C9.78493292 0.03170689 14.32945953 0.70736488 20.75 2.3125 C20.75 16.5025 20.75 30.6925 20.75 45.3125 C13.79925215 46.30546398 7.09243477 46.56873176 0.09936523 46.60766602 C-1.33660745 46.61917974 -2.77253753 46.63962246 -4.20825195 46.66918945 C-14.37981499 46.87791464 -23.26201933 46.28970151 -31.6875 39.9375 C-36.47470195 35.03353703 -37.68056308 30.65237405 -37.6875 23.875 C-37.5081684 16.54392411 -36.84662173 12.9350589 -31.625 7.67578125 C-22.80361295 0.08571281 -11.10404265 -0.16215016 0 0 Z " fill="#01B4C8" transform="translate(714.25,404.6875)"/>
</svg>
