<?xml version="1.0" encoding="utf-8"?>
<!-- Generator: Adobe Illustrator 27.5.0, SVG Export Plug-In . SVG Version: 6.00 Build 0)  -->
<svg version="1.1" id="Layer_1" xmlns="http://www.w3.org/2000/svg" xmlns:xlink="http://www.w3.org/1999/xlink" x="0px" y="0px"
	 viewBox="0 0 1000 459.5" style="enable-background:new 0 0 1000 459.5;" xml:space="preserve">
<style type="text/css">
	.st0{fill:#0080FF;}
	.st1{fill:#101921;}
</style>
<g id="Layer_2_00000060713386101494968510000010172914608969267349_">
	<g id="Layer_1-2">
		<path class="st0" d="M26,52.2c-4.3,5.6-8,11.6-11.3,17.9c18.5,13.9,30.2,36.3,30.2,62c0,25.4-11.6,47.4-29.8,61.4
			c3.4,6.2,7.2,12.2,11.5,17.8c25.9-16.5,42.8-45.5,42.8-79.2C69.4,98,52.3,68.8,26,52.2z M34.8,132C35,111.8,26,92.4,10.4,79.5
			C-3.6,113-3.4,150.6,10.7,184C26.1,171.2,35,152.1,34.8,132L34.8,132z M77.1,11.6c-7.2,3.1-14,7-20.5,11.4
			c20.8,13.8,37.1,33.5,46.9,56.5c7.1-3.8,14.9-6.1,22.9-6.7C116,48.2,98.9,27,77.1,11.6z M77.8,151.4c-4.9,27.8-21,52.3-44.6,67.8
			c4.7,5.3,9.9,10.2,15.5,14.7c21.1-13.3,37.5-33,46.6-56.2C86.9,170.9,80.8,161.7,77.8,151.4z M104,183.3
			c-9.6,23.2-25.8,43-46.6,57c6.5,4.4,13.5,8.2,20.7,11.3c21.8-15.6,38.8-37.1,49.1-61.8C119.1,189.3,111.2,187.1,104,183.3z
			 M47.8,29.5c-5.5,4.5-10.7,9.4-15.4,14.8c23.6,15.3,39.9,39.7,45,67.4c3-10.3,9-19.5,17.2-26.4C85.4,62.2,69,42.7,47.8,29.5z"/>
		<path class="st1" d="M321.5,358.7c0-6.5,6.1-9.6,13.1-9.6c7.4,0,13.7,3.2,16.9,10.2l16.4-9.1c-6.3-11.9-18.5-18.7-33.3-18.7
			c-18.2,0-32.8,10.6-32.8,27.5c0,32.1,48.3,23.1,48.3,39.2c0,7.1-6.7,10-15.2,10c-9.9,0-17-4.9-19.9-12.9l-16.7,9.7
			c5.7,12.9,18.7,21,36.6,21c19.4,0,34.9-9.7,34.9-27.7C369.8,365.1,321.5,375,321.5,358.7z"/>
		<path class="st1" d="M480.1,378.9c0-25.8-18.4-47.4-45-47.4c-28.1,0-47.4,20.7-47.4,47.2c0,26.9,19.2,47.3,48.8,47.3
			c17.6,0,31-7.3,39.3-19.6l-16-9.4c-4.2,6.2-12.3,11.1-23.1,11.1c-14.4,0-25.6-7.1-28.7-21.1h71.4
			C479.9,384.3,480.1,381.6,480.1,378.9z M407.8,371.2c2.7-13.5,12.6-22.1,27-22.1c11.7,0,23,6.7,25.7,22.1L407.8,371.2z"/>
		<path class="st1" d="M570.8,393.1c-4.2,8.2-13.1,13.8-23.8,13.8c-15.8,0-27.8-12-27.8-28.3s12-28.1,27.8-28.1
			c10.7,0,19.6,5.5,23.5,13.8l16.7-9.7c-7.1-14-22.5-23.1-40-23.1c-27,0-47.4,20.5-47.4,47.2s20.3,47.3,47.3,47.3
			c17.6,0,32.9-9.2,40.4-23.4L570.8,393.1z"/>
		<path class="st1" d="M670.7,333.9v48.1c0,18.4-10,25.9-22.8,25.9c-12.2,0-20.1-7.2-20.1-20.8v-53.2h-19.4v55.1
			c0,23.4,14.3,37,34.5,37c12.2,0,21.9-4.6,27.8-13.8v11.5h19.3v-89.7H670.7z"/>
		<path class="st1" d="M740.2,349v-15.1h-19.4v89.8h19.4v-45.3c0-20,14.9-26,27.6-25.1v-20.9C756.6,332.3,745.6,336.7,740.2,349z"/>
		<path class="st1" d="M790.4,333.9v89.8h19.4v-89.8H790.4z"/>
		<path class="st1" d="M890.4,352.5v-18.7h-22.2v-25.1l-19.4,5.8v19.4h-16.6v18.7h16.6v43c0,23.4,11.8,31.6,41.6,28v-17.4
			c-14.7,0.8-22.2,0.9-22.2-10.6v-43L890.4,352.5z"/>
		<path class="st1" d="M978.4,333.9L955.5,399l-26.8-65.2h-21.1l38,88.2l-0.9,1.8c-4.5,11.9-11.3,18.4-23.9,17.6v18.1
			c20.7,1.3,35.4-10.2,43.8-32.9l34.5-92.7L978.4,333.9z"/>
		<path class="st1" d="M447.4,1.9v84.6c-30.8-5-74.7,7.5-74.7,56.8v112.4h-74.6V6.9h42.2c14.5,0,27.2,9.6,31.2,23.6
			C390.4,12.2,417.3,2.8,443.6,2c0.1,0,0.2,0,0.2,0C445,1.9,446.2,1.9,447.4,1.9z"/>
		<path class="st1" d="M131.8,0C117,0,102.3,2.4,88.2,7.2c22.1,17,39.1,39.7,49.3,65.6c29.6,2.6,51.6,25.2,51.6,58.5
			c0,32.9-21.7,55.5-51,58.4c-10.1,26-27,48.9-48.9,66.1c13.7,4.6,28.1,6.9,42.6,6.9c73.2,0,131.9-57.3,131.9-131.4S205,0,131.8,0z"
			/>
		<path class="st1" d="M649.3,162.5c-9.7,17.4-27.9,27.8-49.5,27.8c-32.4,0-57.3-23.4-57.3-58.7s24.9-58.7,57.3-58.7
			c21.3,0,39.5,10.2,49.3,27.4L713,63.3C690,25.1,648,0.2,599.8,0.2c-73.2,0-131.9,57.3-131.9,131.4S526.6,263,599.8,263
			c48.5,0,90.7-25.1,113.6-63.9L649.3,162.5z"/>
		<path class="st1" d="M957.8,6.9c-14.5,0-27.2,9.6-31.3,23.5C909.8,11.4,885,0,851.2,0C786,0,732.2,57.2,732.2,131.3
			S786,262.6,851.2,262.6c33.8,0,58.6-11.3,75.4-30.4c4.1,13.9,16.8,23.5,31.3,23.5h42.2V6.9H957.8z M864.5,190
			c-32.4,0-57.2-23.4-57.2-58.7s24.8-58.6,57.2-58.6s57.3,23.4,57.3,58.6S896.9,190,864.5,190z"/>
	</g>
</g>
</svg>
