<?xml version="1.0" encoding="utf-8"?>
<!-- Generator: Adobe Illustrator 16.0.1, SVG Export Plug-In . SVG Version: 6.00 Build 0)  -->
<!DOCTYPE svg PUBLIC "-//W3C//DTD SVG 1.1//EN" "http://www.w3.org/Graphics/SVG/1.1/DTD/svg11.dtd">
<svg version="1.1" id="Layer_1" xmlns="http://www.w3.org/2000/svg" xmlns:xlink="http://www.w3.org/1999/xlink" x="0px" y="0px"
	 width="600px" height="180px" viewBox="0 0 600 180" enable-background="new 0 0 600 180" xml:space="preserve">
<g>
	<g>
		<g>
			<g>
				<path fill="#293644" d="M10.207,42.133l18.042,84.02h4.792l19.555-82.758h5.046l20.186,82.758h4.793l17.41-84.02h4.417
					L86.28,130.442h-12.11l-19.05-81.118L36.7,130.442H24.589L5.792,42.133H10.207z"/>
				<path fill="#293644" d="M114.281,42.133h4.417v6.938h-4.417V42.133z M114.281,67.364h4.417v63.078h-4.417V67.364z"/>
				<path fill="#293644" d="M134.844,38.349h4.416v92.094h-4.416V38.349z"/>
				<path fill="#293644" d="M199.181,130.442h-4.414v-5.298c0,0-10.347,6.434-21.826,6.434c-7.823,0-21.322-1.136-21.322-31.792
					c0-21.699,5.805-33.557,26.494-33.557c5.929,0,13.5,1.009,16.653,1.514V42.133h4.414V130.442z M194.768,120.981V71.78
					c-3.282-0.377-11.734-1.514-16.653-1.514c-17.914,0-22.078,10.724-22.078,29.898c0,25.106,9.841,27.377,16.905,27.377
					C183.791,127.541,194.768,120.981,194.768,120.981z"/>
				<path fill="#243446" d="M213.56,43.395h55.257v16.652h-38.099v25.105h30.531v16.526h-30.531v28.764H213.56V43.395z"/>
				<path fill="#243446" d="M273.861,42.133h16.903v88.309h-16.903V42.133z"/>
				<path fill="#243446" d="M309.687,67.491l11.481,46.424h2.9l11.48-46.424H352.2l-22.076,89.319h-16.653l6.435-26.367h-11.354
					l-15.518-62.952H309.687z"/>
			</g>
		</g>
	</g>
	<g>
		<path opacity="0.7" fill="#FFFFFF" d="M415.713,83.244c-2.188-0.656-4.432-1.198-6.686-1.703
			c-1.124-0.254-2.261-0.493-3.395-0.719c-1.135-0.234-2.273-0.459-3.409-0.665c-0.566-0.101-1.142-0.203-1.691-0.286l-1.718-0.228
			c-1.158-0.153-2.328-0.33-3.469-0.427c-1.154-0.107-2.294-0.247-3.461-0.33l-3.489-0.254c-2.337-0.117-4.678-0.24-7.029-0.285
			c-1.173-0.042-2.348-0.055-3.526-0.064c-1.178-0.011-2.358-0.029-3.54-0.014c-2.351,0.002-4.761,0.043-7.078,0.105l-3.579,0.155
			l-3.496,0.271l-3.525,0.373c-1.183,0.135-2.353,0.3-3.532,0.448c-2.355,0.334-4.711,0.708-7.067,1.129
			c-2.36,0.423-4.724,0.879-7.087,1.36c-4.753,0.954-9.502,1.952-14.218,3.108c-2.362,0.58-4.715,1.197-7.036,1.88
			c-1.203,0.358-2.402,0.733-3.578,1.138c0.432,0.133,0.879,0.251,1.332,0.353c1.646,0.374,3.392,0.589,5.184,0.828
			c0.894,0.123,1.804,0.249,2.731,0.408l1.345,0.251l0.585,0.086l0.613,0.068c1.662,0.158,3.4,0.11,5.146,0.03
			c3.495-0.184,7.021-0.647,10.588-1.001c1.78-0.174,3.574-0.33,5.404-0.359c0.935-0.013,1.793,0.022,2.686,0.032l2.658,0.056
			c1.776,0.045,3.543,0.11,5.311,0.197l0.083,0.005c0.141-0.039,0.284-0.086,0.425-0.124l0.439-0.117l0.479-0.117
			c0.324-0.085,0.641-0.137,0.961-0.205c0.634-0.117,1.264-0.206,1.885-0.276c1.251-0.139,2.482-0.207,3.705-0.247
			c2.433-0.075,4.827-0.028,7.209,0.032c2.374,0.073,4.729,0.127,7.078,0.238c2.343,0.12,4.683,0.441,7.022,0.69
			c2.333,0.27,4.676,0.377,6.995,0.258l2.588-0.138l-2.449,0.74c-1.688,0.509-3.401,0.703-5.118,0.882
			c-1.718,0.174-3.441,0.276-5.168,0.354c-3.464,0.146-6.938,0.183-10.427,0.136c-1.385-0.029-2.771-0.081-4.168-0.175
			c-1.129,0.017-2.253,0.046-3.364,0.104c-1.156,0.062-2.298,0.149-3.407,0.298c-0.558,0.072-1.102,0.165-1.63,0.272
			c-0.262,0.062-0.528,0.111-0.778,0.184l-0.383,0.103l-0.416,0.125c-1.089,0.325-2.164,0.684-3.107,1.112
			c-0.192,0.085-0.377,0.178-0.55,0.269c0.385,0.161,0.807,0.315,1.25,0.457c1.048,0.328,2.168,0.601,3.294,0.847
			c1.122,0.243,2.296,0.467,3.407,0.649c0.593,0.099,1.183,0.191,1.726,0.257c0.544,0.078,1.13,0.13,1.693,0.191
			c2.277,0.222,4.578,0.315,6.886,0.289c2.3-0.029,4.603-0.135,6.898-0.343c4.579-0.418,9.141-1.078,13.628-1.991
			c2.243-0.454,4.467-0.951,6.674-1.509l1.651-0.423l1.626-0.44c1.132-0.289,2.145-0.617,3.214-0.919
			c2.132-0.659,4.254-1.389,6.43-2.077c2.159-0.695,4.368-1.327,6.628-1.771l0.182-0.28c0.204-0.497-0.08-1.01-0.713-1.523
			c-0.356-0.232-0.747-0.441-1.157-0.624C417.888,83.925,416.8,83.583,415.713,83.244z"/>
		<path opacity="0.7" fill="#FFFFFF" d="M459.73,99.105c0.92,0.625,1.777,1.256,2.763,1.888l1.401,0.93l1.434,0.924
			c1.918,1.224,3.872,2.399,5.857,3.536c3.969,2.284,8.089,4.35,12.301,6.191c2.113,0.923,4.268,1.746,6.438,2.503
			c2.182,0.753,4.396,1.389,6.627,1.897c0.557,0.119,1.126,0.258,1.668,0.353c0.535,0.111,1.125,0.208,1.716,0.303
			c1.114,0.175,2.299,0.336,3.438,0.459c1.148,0.123,2.296,0.217,3.393,0.234c0.463,0.006,0.912-0.006,1.329-0.038
			c-0.137-0.142-0.278-0.288-0.435-0.429c-0.759-0.704-1.666-1.385-2.598-2.036l-0.357-0.25l-0.329-0.217
			c-0.215-0.146-0.451-0.278-0.679-0.423c-0.468-0.268-0.956-0.524-1.459-0.772c-1.007-0.487-2.064-0.933-3.141-1.356
			c-1.034-0.405-2.089-0.787-3.151-1.156c-1.358-0.353-2.695-0.743-4.019-1.154c-3.327-1.056-6.61-2.188-9.853-3.418
			c-1.615-0.619-3.22-1.262-4.795-1.966c-1.57-0.714-3.133-1.438-4.574-2.454l-2.088-1.475l2.41,0.947
			c2.163,0.846,4.419,1.482,6.72,1.963c2.296,0.502,4.618,0.935,6.88,1.561c2.263,0.638,4.517,1.327,6.793,2.01
			c2.276,0.692,4.565,1.405,6.85,2.246c1.146,0.424,2.294,0.875,3.434,1.402c0.572,0.263,1.138,0.545,1.702,0.857
			c0.284,0.163,0.568,0.313,0.848,0.495l0.419,0.264l0.379,0.249c0.123,0.08,0.244,0.17,0.365,0.252l0.08,0.021
			c1.705,0.476,3.402,0.972,5.1,1.49l2.542,0.784c0.849,0.272,1.675,0.512,2.557,0.818c1.729,0.604,3.381,1.318,5.018,2.046
			c3.271,1.46,6.471,3.012,9.73,4.291c1.631,0.626,3.264,1.223,4.893,1.597l0.602,0.128l0.581,0.103l1.356,0.188
			c0.932,0.139,1.834,0.309,2.722,0.473c1.774,0.339,3.502,0.688,5.179,0.85c0.461,0.048,0.92,0.074,1.371,0.083
			c-0.986-0.754-2.003-1.487-3.031-2.205c-1.986-1.381-4.025-2.707-6.084-4.003c-4.108-2.587-8.301-5.032-12.51-7.438
			c-2.091-1.203-4.188-2.382-6.295-3.528c-2.104-1.143-4.22-2.241-6.35-3.303c-1.072-0.512-2.134-1.039-3.211-1.54l-3.228-1.466
			l-3.231-1.36l-3.347-1.275c-2.179-0.789-4.454-1.589-6.685-2.334c-1.114-0.388-2.242-0.744-3.364-1.103
			c-1.12-0.364-2.239-0.723-3.366-1.055c-2.246-0.698-4.504-1.319-6.76-1.947l-3.393-0.86c-1.13-0.287-2.256-0.515-3.385-0.778
			c-1.114-0.269-2.28-0.47-3.428-0.69l-1.699-0.325c-0.552-0.096-1.129-0.178-1.697-0.26c-1.143-0.164-2.296-0.31-3.444-0.447
			c-1.149-0.144-2.302-0.276-3.448-0.39c-2.3-0.232-4.598-0.424-6.879-0.492c-1.141-0.023-2.283-0.043-3.389,0.066
			c-0.445,0.045-0.883,0.12-1.293,0.228c-0.765,0.287-1.197,0.684-1.159,1.22l0.084,0.322c2.003,1.135,3.904,2.433,5.731,3.773
			C456.133,96.445,457.918,97.809,459.73,99.105z"/>
	</g>
	<path opacity="0.5" fill="#E1EEF4" d="M366.991,77.127c-10.275,0.158-20.005,1.812-30.161,3.873
		c-7.279,1.48-20.327,4.298-27.09,7.248c2.851,2.606,9.754,2.619,13.722,3.372c6.46,1.222,17.17-1.481,23.911-1.546
		c4.632-0.045,9.169-0.042,13.726,0.211c-0.857,0.124-1.661,0.275-2.376,0.473c-1.563,0.435-6.37,1.776-6.086,3.308
		c0.33,1.753,8.414,3.194,9.994,3.481c12.34,2.22,27.757-0.364,40.356-3.861c6.812-1.891,10.951-4.266,17.605-6.879
		c-2.26,0.444-4.469,1.076-6.628,1.771c-2.176,0.688-4.298,1.417-6.43,2.077c-1.069,0.302-2.082,0.63-3.214,0.919l-1.626,0.44
		l-1.651,0.423c-2.207,0.558-4.431,1.055-6.674,1.509c-4.487,0.913-9.049,1.573-13.628,1.991c-2.296,0.208-4.599,0.313-6.898,0.343
		c-2.308,0.026-4.608-0.067-6.886-0.289c-0.563-0.062-1.149-0.113-1.693-0.191c-0.543-0.065-1.133-0.158-1.726-0.257
		c-1.111-0.183-2.285-0.406-3.407-0.649c-1.126-0.246-2.246-0.519-3.294-0.847c-0.443-0.142-0.865-0.296-1.25-0.457
		c0.173-0.091,0.357-0.184,0.55-0.269c0.943-0.429,2.019-0.787,3.107-1.112l0.416-0.125l0.383-0.103
		c0.25-0.072,0.517-0.122,0.778-0.184c0.528-0.107,1.072-0.2,1.63-0.272c1.109-0.148,2.251-0.236,3.407-0.298
		c1.111-0.058,2.235-0.087,3.364-0.104c1.396,0.094,2.783,0.146,4.168,0.175c3.489,0.047,6.963,0.01,10.427-0.136
		c1.727-0.078,3.45-0.18,5.168-0.354c1.717-0.18,3.43-0.374,5.118-0.882l2.449-0.74l-2.588,0.138
		c-2.319,0.119-4.662,0.012-6.995-0.258c-2.34-0.25-4.68-0.571-7.022-0.69c-2.35-0.11-4.704-0.165-7.078-0.238
		c-2.382-0.06-4.776-0.107-7.209-0.032c-1.223,0.041-2.454,0.108-3.705,0.247c-0.621,0.07-1.251,0.159-1.885,0.276
		c-0.32,0.067-0.637,0.12-0.961,0.205l-0.479,0.117l-0.439,0.117c-0.141,0.038-0.284,0.084-0.425,0.124l-0.083-0.005
		c-1.768-0.087-3.534-0.152-5.311-0.197l-2.658-0.056c-0.893-0.009-1.751-0.044-2.686-0.032c-1.83,0.029-3.624,0.185-5.404,0.359
		c-3.566,0.354-7.093,0.817-10.588,1.001c-1.745,0.081-3.483,0.128-5.146-0.03l-0.613-0.068l-0.585-0.086l-1.345-0.251
		c-0.928-0.16-1.838-0.285-2.731-0.408c-1.792-0.239-3.538-0.455-5.184-0.828c-0.453-0.101-0.9-0.22-1.332-0.353
		c1.176-0.405,2.375-0.78,3.578-1.138c2.321-0.683,4.674-1.3,7.036-1.88c4.716-1.156,9.465-2.154,14.218-3.108
		c2.363-0.481,4.727-0.937,7.087-1.36c2.356-0.421,4.712-0.794,7.067-1.129c1.18-0.148,2.35-0.313,3.532-0.448l3.525-0.373
		l3.496-0.271l3.579-0.155c2.317-0.062,4.728-0.103,7.078-0.105c1.182-0.015,2.362,0.003,3.54,0.014
		c1.179,0.009,2.354,0.021,3.526,0.064c2.352,0.045,4.692,0.168,7.029,0.285l3.489,0.254c1.167,0.083,2.307,0.223,3.461,0.33
		c1.141,0.097,2.311,0.273,3.469,0.427l1.718,0.228c0.55,0.083,1.125,0.185,1.691,0.286c1.136,0.206,2.274,0.431,3.409,0.665
		c1.134,0.226,2.271,0.465,3.395,0.719c2.254,0.505,4.497,1.047,6.686,1.703c1.087,0.338,2.175,0.681,3.191,1.135
		c0.41,0.182,0.801,0.391,1.157,0.624c-3.459-2.794-17.368-5.619-19.856-6.025C389.769,77.277,377.532,76.966,366.991,77.127z"/>
	<g>
		<path fill="#293644" d="M421.544,85.297c-0.151-0.328-0.374-0.587-0.609-0.808c-0.469-0.44-0.983-0.775-1.505-1.083
			c-1.046-0.608-2.127-1.104-3.223-1.54c-2.202-0.885-4.448-1.585-6.707-2.229c-2.267-0.636-4.551-1.202-6.861-1.691
			c-0.58-0.124-1.153-0.244-1.761-0.354l-1.759-0.275c-1.159-0.174-2.308-0.37-3.5-0.495c-1.181-0.137-2.372-0.303-3.552-0.411
			l-3.545-0.326c-2.368-0.167-4.74-0.337-7.12-0.429c-1.188-0.066-2.381-0.102-3.571-0.136c-1.193-0.036-2.384-0.076-3.579-0.083
			c-2.401-0.045-4.757-0.051-7.207-0.034l-3.587,0.085l-3.664,0.211l-3.631,0.32c-1.21,0.13-2.41,0.291-3.62,0.434
			c-2.412,0.328-4.82,0.694-7.213,1.109c-2.399,0.412-4.793,0.859-7.182,1.329c-2.397,0.461-4.778,0.981-7.172,1.503
			c-2.396,0.529-4.795,1.086-7.188,1.683c-2.4,0.6-4.799,1.238-7.19,1.954c-2.399,0.723-4.787,1.506-7.17,2.527l-2.281,0.98
			l1.804,1.598c0.889,0.784,1.886,1.281,2.852,1.649c0.969,0.368,1.932,0.612,2.877,0.806c1.893,0.385,3.744,0.584,5.538,0.769
			c0.898,0.089,1.784,0.176,2.633,0.29l1.315,0.198c0.231,0.035,0.508,0.062,0.757,0.091l0.733,0.059
			c1.926,0.116,3.789,0.022,5.62-0.151c3.649-0.356,7.167-0.981,10.66-1.482c1.744-0.25,3.479-0.477,5.19-0.578
			c1.712-0.077,3.523-0.121,5.27-0.167c0.471-0.009,0.939-0.007,1.412-0.014c-0.366,0.179-0.737,0.386-1.127,0.664
			c-0.336,0.252-0.713,0.545-1.067,1.101c-0.172,0.291-0.342,0.65-0.374,1.116c-0.014,0.112-0.011,0.225-0.002,0.344l0.016,0.173
			l0.012,0.085l0.029,0.136l0.016,0.051c0.004,0.022,0.04,0.139,0.062,0.2c0.063,0.171,0.108,0.258,0.156,0.347
			c0.424,0.714,0.849,0.975,1.205,1.233c0.366,0.245,0.704,0.415,1.03,0.572c0.655,0.304,1.271,0.53,1.891,0.737
			c1.229,0.402,2.433,0.714,3.637,0.994c1.214,0.28,2.386,0.521,3.624,0.745c0.588,0.103,1.173,0.206,1.818,0.295
			c0.635,0.098,1.235,0.16,1.854,0.235c2.462,0.261,4.918,0.345,7.357,0.322c2.431-0.021,4.847-0.181,7.238-0.414
			c1.197-0.115,2.386-0.261,3.567-0.412c1.181-0.172,2.356-0.349,3.525-0.554c2.338-0.398,4.645-0.871,6.935-1.387
			c2.288-0.524,4.55-1.093,6.789-1.718l1.674-0.473l0.211-0.062l0.233-0.073l0.408-0.131l0.819-0.266
			c1.074-0.327,2.197-0.782,3.286-1.205c2.143-0.896,4.185-1.923,6.157-3.024c1.965-1.104,3.898-2.215,5.805-3.432
			c-6.654,2.613-10.794,4.988-17.605,6.879c-12.6,3.497-28.017,6.081-40.356,3.861c-1.58-0.287-9.664-1.729-9.994-3.481
			c-0.284-1.532,4.522-2.873,6.086-3.308c0.715-0.198,1.519-0.349,2.376-0.473c-4.557-0.253-9.094-0.256-13.726-0.211
			c-6.741,0.065-17.451,2.768-23.911,1.546c-3.968-0.753-10.871-0.766-13.722-3.372c6.763-2.949,19.811-5.768,27.09-7.248
			c10.156-2.06,19.886-3.714,30.161-3.873c10.541-0.161,22.777,0.15,33.214,1.851c2.488,0.406,16.397,3.23,19.856,6.025
			c0.081,0.054,0.173,0.101,0.249,0.158c0.196,0.152,0.379,0.314,0.491,0.48c0.06,0.084,0.099,0.165,0.114,0.245
			c0.011,0.043,0.013,0.078,0.017,0.103c0.014,0.017-0.024,0.119-0.032,0.176l0.679,0.213c0.025-0.075,0.053-0.097,0.074-0.221
			c0.029-0.11,0.037-0.215,0.032-0.309C421.681,85.65,421.623,85.461,421.544,85.297z"/>
		<path fill="#293644" d="M554.116,126.186c-1.938-1.724-3.957-3.217-6.005-4.662c-2.045-1.436-4.119-2.797-6.206-4.121
			c-2.085-1.325-4.185-2.608-6.29-3.868c-2.106-1.251-4.204-2.497-6.332-3.688c-2.117-1.203-4.249-2.382-6.396-3.53
			c-2.139-1.147-4.307-2.258-6.493-3.328c-1.102-0.518-2.19-1.048-3.299-1.554l-3.347-1.45l-3.408-1.356l-3.376-1.214
			c-2.319-0.791-4.557-1.526-6.851-2.242c-1.135-0.37-2.278-0.708-3.421-1.05c-1.141-0.344-2.283-0.688-3.433-1.001
			c-2.288-0.662-4.59-1.25-6.892-1.838l-3.466-0.811c-1.154-0.268-2.337-0.487-3.502-0.73c-1.168-0.257-2.321-0.435-3.475-0.633
			l-1.756-0.296c-0.612-0.086-1.192-0.153-1.782-0.219c-2.346-0.265-4.694-0.449-7.043-0.559c-2.35-0.103-4.702-0.147-7.067-0.003
			c-1.179,0.069-2.361,0.196-3.547,0.444c-0.59,0.128-1.186,0.282-1.771,0.553c-0.29,0.136-0.585,0.311-0.835,0.573
			c-0.125,0.133-0.238,0.293-0.307,0.48c-0.034,0.086-0.061,0.188-0.066,0.303c-0.02,0.123,0.001,0.151,0.002,0.232l0.712,0.012
			c0.007-0.057,0.004-0.168,0.025-0.179c0.01-0.022,0.023-0.053,0.045-0.091c0.043-0.071,0.102-0.137,0.185-0.197
			c0.161-0.122,0.385-0.218,0.622-0.301c0.09-0.031,0.192-0.046,0.287-0.071c4.165-1.56,18.251,0.15,20.742,0.551
			c10.439,1.679,22.147,5.246,32.1,8.725c9.699,3.394,18.409,8.033,27.398,13.195c6.439,3.699,17.929,10.494,23.417,15.426
			c-3.527,1.573-10.083-0.593-14.085-1.133c-6.517-0.878-15.826-6.821-22.202-9.011c-4.38-1.505-8.688-2.936-13.092-4.135
			c0.774,0.389,1.492,0.788,2.108,1.201c1.343,0.903,5.482,3.695,4.73,5.058c-0.865,1.561-8.995,0.377-10.584,0.148
			c-12.406-1.787-26.224-9.104-37.073-16.396c-5.868-3.946-9.047-7.507-14.535-12.087c1.426,1.757,2.91,3.423,4.426,5.089
			c1.522,1.668,3.136,3.286,4.886,4.813c0.901,0.744,1.823,1.531,2.74,2.183l0.693,0.509l0.345,0.252l0.199,0.146l0.179,0.123
			l1.439,0.977c1.93,1.301,3.895,2.555,5.897,3.771c2.012,1.214,4.054,2.391,6.146,3.507c1.042,0.563,2.102,1.101,3.17,1.637
			c1.074,0.517,2.157,1.031,3.254,1.519c2.195,0.978,4.439,1.89,6.736,2.678c2.311,0.79,4.666,1.486,7.085,2.016
			c0.608,0.122,1.201,0.255,1.831,0.359c0.644,0.12,1.231,0.208,1.82,0.295c1.248,0.178,2.436,0.319,3.675,0.437
			c1.229,0.113,2.471,0.199,3.765,0.203c0.65,0.002,1.311-0.018,2.026-0.101c0.359-0.046,0.731-0.103,1.156-0.218
			c0.421-0.133,0.907-0.248,1.533-0.79c0.074-0.07,0.146-0.137,0.262-0.28c0.038-0.051,0.108-0.15,0.119-0.17l0.03-0.045
			l0.072-0.118l0.037-0.077l0.067-0.161c0.048-0.109,0.084-0.211,0.107-0.324c0.118-0.452,0.07-0.845,0-1.178
			c-0.161-0.64-0.426-1.035-0.668-1.378c-0.283-0.39-0.571-0.706-0.861-0.992c0.445,0.156,0.894,0.303,1.339,0.462
			c1.64,0.594,3.347,1.211,4.948,1.823c1.591,0.637,3.165,1.398,4.74,2.186c3.16,1.576,6.3,3.282,9.648,4.77
			c1.682,0.744,3.42,1.421,5.286,1.919l0.712,0.176c0.249,0.051,0.521,0.111,0.747,0.152l1.313,0.227
			c0.838,0.161,1.708,0.356,2.588,0.557c1.762,0.392,3.581,0.784,5.499,1.019c0.956,0.111,1.946,0.188,2.98,0.143
			c1.036-0.042,2.139-0.201,3.229-0.664l2.217-0.946L554.116,126.186z"/>
	</g>
	<path opacity="0.5" fill="#E1EEF4" d="M500.164,119.816c1.589,0.229,9.719,1.412,10.584-0.148c0.752-1.362-3.388-4.154-4.73-5.058
		c-0.616-0.413-1.334-0.812-2.108-1.201c4.404,1.199,8.712,2.63,13.092,4.135c6.376,2.189,15.686,8.133,22.202,9.011
		c4.002,0.54,10.558,2.706,14.085,1.133c-5.488-4.932-16.978-11.727-23.417-15.426c-8.989-5.162-17.699-9.802-27.398-13.195
		c-9.952-3.479-21.66-7.046-32.1-8.725c-2.491-0.401-16.577-2.111-20.742-0.551c0.41-0.107,0.848-0.183,1.293-0.228
		c1.105-0.11,2.248-0.089,3.389-0.066c2.281,0.067,4.579,0.259,6.879,0.492c1.146,0.113,2.299,0.246,3.448,0.39
		c1.148,0.137,2.302,0.283,3.444,0.447c0.568,0.082,1.146,0.164,1.697,0.26l1.699,0.325c1.147,0.221,2.313,0.422,3.428,0.69
		c1.129,0.264,2.255,0.491,3.385,0.778l3.393,0.86c2.256,0.628,4.514,1.249,6.76,1.947c1.127,0.332,2.246,0.69,3.366,1.055
		c1.122,0.358,2.25,0.715,3.364,1.103c2.23,0.745,4.506,1.545,6.685,2.334l3.347,1.275l3.231,1.36l3.228,1.466
		c1.077,0.501,2.139,1.028,3.211,1.54c2.13,1.062,4.246,2.16,6.35,3.303c2.107,1.146,4.204,2.325,6.295,3.528
		c4.209,2.405,8.401,4.851,12.51,7.438c2.059,1.296,4.098,2.622,6.084,4.003c1.028,0.718,2.045,1.451,3.031,2.205
		c-0.451-0.009-0.91-0.035-1.371-0.083c-1.677-0.162-3.404-0.511-5.179-0.85c-0.888-0.164-1.79-0.334-2.722-0.473l-1.356-0.188
		l-0.581-0.103l-0.602-0.128c-1.629-0.374-3.262-0.971-4.893-1.597c-3.26-1.279-6.459-2.831-9.73-4.291
		c-1.637-0.728-3.288-1.442-5.018-2.046c-0.882-0.307-1.708-0.546-2.557-0.818l-2.542-0.784c-1.697-0.519-3.395-1.015-5.1-1.49
		l-0.08-0.021c-0.121-0.082-0.242-0.172-0.365-0.252l-0.379-0.249l-0.419-0.264c-0.279-0.182-0.563-0.332-0.848-0.495
		c-0.564-0.312-1.13-0.595-1.702-0.857c-1.14-0.527-2.288-0.979-3.434-1.402c-2.284-0.841-4.573-1.554-6.85-2.246
		c-2.276-0.683-4.53-1.372-6.793-2.01c-2.262-0.626-4.584-1.059-6.88-1.561c-2.301-0.48-4.557-1.117-6.72-1.963l-2.41-0.947
		l2.088,1.475c1.441,1.017,3.004,1.74,4.574,2.454c1.575,0.704,3.18,1.347,4.795,1.966c3.242,1.23,6.525,2.362,9.853,3.418
		c1.323,0.411,2.66,0.802,4.019,1.154c1.062,0.369,2.117,0.751,3.151,1.156c1.076,0.424,2.134,0.869,3.141,1.356
		c0.503,0.248,0.991,0.505,1.459,0.772c0.228,0.145,0.464,0.276,0.679,0.423l0.329,0.217l0.357,0.25
		c0.932,0.651,1.839,1.332,2.598,2.036c0.156,0.141,0.298,0.287,0.435,0.429c-0.417,0.032-0.866,0.044-1.329,0.038
		c-1.097-0.018-2.244-0.111-3.393-0.234c-1.14-0.123-2.324-0.284-3.438-0.459c-0.591-0.095-1.181-0.191-1.716-0.303
		c-0.542-0.095-1.111-0.233-1.668-0.353c-2.231-0.509-4.445-1.145-6.627-1.897c-2.17-0.757-4.324-1.58-6.438-2.503
		c-4.212-1.842-8.332-3.907-12.301-6.191c-1.985-1.137-3.939-2.312-5.857-3.536l-1.434-0.924l-1.401-0.93
		c-0.985-0.632-1.843-1.263-2.763-1.888c-1.812-1.297-3.598-2.66-5.443-3.999c-1.827-1.341-3.729-2.639-5.731-3.773
		c5.488,4.58,8.667,8.141,14.535,12.087C473.94,110.712,487.758,118.029,500.164,119.816z"/>
	<path fill="#D4DFE5" d="M409.96,97.449c-0.167,4.067,2.272,7.894,4.583,11.273c3.42,5.012,1.601,11.523,1.741,16.912
		c0.214,8.389-2.87,41.71,4.271,49.608l0,0l0.029,0.009c9.081-3.81,16.467-35.43,19.333-43.216
		c1.845-5.007,2.197-13.464,7.028-16.806c3.583-2.483,8.524-5.108,9.39-9.628l-21.372-21.811
		C434.964,83.792,409.973,97.183,409.96,97.449z"/>
	<path fill="#DFEEF6" d="M452.957,105.642c-0.594,0.256-1.183,0.524-1.772,0.796c0.753-0.481,1.493-0.991,2.194-1.576
		c0.79-0.659-0.681-1.422-1.259-1.287c-1.011,0.232-2.008,0.5-2.999,0.781c0.47-0.615,0.878-1.282,1.195-2.018
		c0.337-0.784-0.798-1.246-1.394-1.148c-6.247,1.066-10.544,5.319-16.072,8.076c-2.711,1.351-5.531,2.54-8.436,3.458
		c-0.392,0.105-0.774,0.219-1.157,0.334c-0.743,0.188-1.492,0.338-2.258,0.43c-0.656,0.199-1.159-0.035-1.51-0.702
		c0.527-0.54,2.14-0.813,2.796-0.979c2.625-0.657,5.092-1.544,7.557-2.647c2.185-0.977,4.229-2.174,6.126-3.604
		c4.027-1.346,7.802-3.346,10.752-6.446c0.629-0.658-1.013-1.205-1.397-1.148c-3.398,0.479-5.966,2.22-8.55,4.406
		c-0.819,0.697-1.649,1.342-2.494,1.952c-1.626,0.524-3.28,0.97-4.926,1.357c-1.1,0.261-2.264,0.433-3.451,0.582
		c1.612-0.869,3.209-1.781,4.842-2.653c4.419-2.354,9.456-3.83,13.084-7.39c0.851-0.831-0.881-1.409-1.495-1.235
		c-4.659,1.309-8.962,3.392-13.343,5.447c0.019-0.011,0.037-0.02,0.058-0.028c3.857-1.922,7.647-3.947,11.366-6.08
		c0.929-0.53-0.656-1.278-1.349-1.258c0.349-0.175,0.698-0.347,1.045-0.525c1.163-0.599-0.518-1.65-1.309-1.34
		c-4.168,1.62-8.226,3.483-12.179,5.615c-3.146,1.689-7.082,4.939-10.895,5.83c2.176-2.083,5.52-3.19,8.039-4.671
		c3.805-2.24,7.583-4.5,11.291-6.86c0.674-0.427-0.06-0.988-0.761-1.197c0.838-0.507,1.677-1.016,2.511-1.532
		c0.693-0.429-0.164-1.095-0.896-1.261c0.271-0.463,0.354-0.902,0.104-1.271c-0.293-0.431-0.901-0.702-1.398-0.596
		c-0.679,0.146-1.228,0.567-1.795,0.947c-2.379,1.583-4.658,3.094-7.246,4.361c-3.265,1.6-6.658,2.938-9.962,4.488
		c-0.952,0.278-1.907,0.562-2.865,0.868c-0.493,0.157-0.508,0.447-0.297,0.722c-0.222,0.12-0.447,0.233-0.667,0.355
		c-0.238,0.136-0.268,0.483-0.125,0.711c0.548,0.888,1.488,1.162,2.573,1.102c-0.926,0.443-1.854,0.878-2.792,1.303
		c-1.025,0.463,0.126,1.418,0.83,1.422c0.708,0.003,1.376-0.119,2.019-0.315c-0.66,0.568-1.26,1.203-1.741,1.967
		c-0.422,0.668,0.688,1.141,1.162,1.171c0.462,0.031,0.911,0.024,1.353-0.014c-0.273,0.201-0.555,0.386-0.826,0.592
		c-0.887,0.671,0.89,1.579,1.525,1.243c0.066-0.035,0.13-0.071,0.194-0.104l0,0c0.001,0,0.001,0,0.003,0
		c0.223-0.118,0.442-0.242,0.665-0.36c-0.082,0.076-0.168,0.143-0.249,0.219c-0.805,0.771,0.698,1.33,1.287,1.301
		c3.632-0.174,6.754-2.339,9.785-4.07c3.199-1.828,6.662-3.473,10.187-4.831c-2.646,1.466-5.538,2.582-8.21,3.934
		c-3.168,1.607-6.151,3.448-9.379,4.869c-1.431,0.323-2.797,0.785-4.021,1.513c-1.02,0.604,0.957,1.404,1.524,1.239
		c1.228-0.352,2.406-0.785,3.556-1.271c1.817-0.351,3.749-0.446,5.464-0.743c0.973-0.169,1.933-0.377,2.893-0.588
		c-1.39,0.719-2.831,1.369-4.356,1.961c-2.199,0.851-5.88,0.932-7.612,2.699c-0.839,0.856,0.41,2.288,1.247,2.621
		c0.104,0.043,0.212,0.07,0.318,0.105c-0.313,0.154-0.638,0.295-0.939,0.467c-0.573,0.323,0.051,1.042,0.452,1.178
		c1.49,0.505,2.936,0.545,4.347,0.318c-1.097,0.437-2.188,0.875-3.288,1.309c-0.916,0.36-0.167,1.101,0.606,1.323
		c-1.987,1.209-3.339,2.483-2.104,3.298c1.198,0.788,2.905,0.01,4.028-0.406c1.168-0.433,2.311-0.919,3.455-1.409
		c-0.146,0.098-0.293,0.187-0.438,0.285c-0.265,0.177-0.31,0.367-0.228,0.543c-0.675,0.381-1.353,0.762-2.022,1.157
		c-0.393,0.232-0.315,0.519-0.046,0.76c-2.029,0.631-4.006,1.387-5.487,2.899c-0.667,0.681,0.42,1.25,1.019,1.305
		c2.569,0.245,5.147-0.198,7.7-0.982c-0.377,0.573,0.65,1.102,1.143,1.139c1.327,0.096,2.615-0.06,3.874-0.355
		c-0.208,0.104-0.421,0.205-0.626,0.312c-0.951,0.5-1.945,0.911-2.962,1.274c-3.025,0.812-6.042,1.673-8.911,2.942
		c-1.195,0.529,0.512,1.689,1.329,1.334c2.221-0.973,4.547-1.649,6.851-2.377c0.243-0.068,0.481-0.14,0.724-0.207
		c-2.889,1.516-5.747,3.09-8.396,5.042c-0.962,0.711,0.932,1.422,1.521,1.226c0.455-0.154,0.9-0.326,1.346-0.498
		c-0.797,0.711-1.53,1.494-2.178,2.376c-0.523,0.719,0.952,1.259,1.424,1.143c2.066-0.511,4.025-1.235,5.939-2.057
		c-1.49,1.284-2.82,2.725-3.818,4.449c-0.298,0.516,0.176,0.868,0.685,1.034c-0.466,0.31-0.929,0.628-1.392,0.951
		c-0.948,0.665,1.005,1.574,1.709,1.114c0.899-0.586,1.788-1.181,2.661-1.79c1.521-0.947,3.113-1.716,4.881-2.004
		c-0.82,1.279-2.507,2.029-3.779,2.595c-1.188,0.526,0.507,1.685,1.32,1.323c2.013-0.893,4.604-2.113,5.03-4.555
		c0.104-0.62-0.762-0.963-1.215-0.973c-0.587-0.015-1.153,0.027-1.707,0.097c1.045-0.912,2.05-1.874,2.997-2.917
		c0.63-0.698-1.161-1.341-1.644-1.077c-2.062,1.132-3.758,3.183-5.75,4.551c3.089-3.444,7.588-5.663,11.198-8.315
		c0.896-0.663-0.884-1.52-1.503-1.222c-4.327,2.08-8.475,4.575-12.997,6.246c3.393-3.031,8.01-4.705,11.71-7.176
		c0.775-0.517-0.295-1.139-1.049-1.244c0.333-0.182,0.667-0.364,0.998-0.551c0.001,0,0.001,0,0.002,0v-0.002
		c0.064-0.034,0.128-0.069,0.191-0.105c0.534-0.302,0.23-0.681-0.255-0.94c2.256-1.061,4.506-2.293,6.104-3.93
		c0.831-0.853-0.872-1.409-1.5-1.225c-3.3,0.975-6.62,3.065-10.104,3.791c3.452-2.408,7.561-4.135,11.333-5.688
		c1.214-0.503-0.521-1.59-1.311-1.331c-3.358,1.117-6.594,2.623-9.876,3.979c-2.824,1.164-5.989,2.602-9.164,3.031
		c3.01-1.816,7.187-2.531,10.216-3.829c5.091-2.184,10.149-4.368,14.921-7.129c0.784-0.453-0.315-1.139-0.975-1.267
		c2.073-1.131,4.143-2.265,6.224-3.381c1.191-0.643-0.544-1.54-1.304-1.329c-0.354,0.098-0.692,0.213-1.043,0.313
		c1.736-0.887,3.484-1.746,5.271-2.528C455.423,106.461,453.754,105.303,452.957,105.642z M427.246,101.287
		c-1.962,1.051-3.912,2.356-5.97,3.288C423.169,103.329,425.221,102.285,427.246,101.287z M424.198,114.692
		c-0.709,0.263-1.43,0.467-2.147,0.574c0.366-0.133,0.74-0.255,1.12-0.371C423.513,114.841,423.854,114.772,424.198,114.692z
		 M436.605,109.057c3.511-2.186,6.907-4.597,10.774-5.827c-0.671,0.938-1.504,1.75-2.442,2.461
		C442.122,106.684,439.36,107.827,436.605,109.057z M421.75,120.449c0.829-0.483,1.708-0.896,2.557-1.31
		c2.208-1.077,4.49-1.993,6.746-2.945c4.174-1.761,8.132-3.951,12.147-6.002c0.757-0.287,1.505-0.583,2.251-0.887
		c-3.485,1.851-6.939,3.799-10.516,5.5C430.642,116.847,426.195,118.664,421.75,120.449z M438.922,115.19
		c-0.313,0.165-0.627,0.331-0.94,0.495c-0.018,0.007-0.037,0.014-0.056,0.02c0.091-0.053,0.181-0.105,0.272-0.16
		C438.439,115.428,438.68,115.306,438.922,115.19z"/>
	<path fill="#293644" d="M483.136,131.111c-0.572-0.569-1.414-1.398-2.502-2.438c-2.143-2.119-5.203-5.148-8.823-8.848
		c-1.806-1.863-3.791-3.856-5.84-6.026c-2.092-2.126-4.253-4.427-6.516-6.785c-2.255-2.376-4.588-4.835-6.966-7.341
		c-2.383-2.504-4.8-5.067-7.202-7.653c-2.673-2.85-5.33-5.714-7.955-8.532c1.778-0.981,3.542-1.954,5.269-2.906
		c1.472-0.797,2.916-1.585,4.33-2.356c1.424-0.763,2.82-1.511,4.176-2.238c2.722-1.496,5.278-2.975,7.567-4.461
		c2.3-1.479,4.342-2.952,6.04-4.403c1.707-1.444,3.063-2.879,4.034-4.173c0.974-1.301,1.547-2.458,1.857-3.28
		c0.163-0.408,0.251-0.731,0.307-0.952c0.059-0.22,0.091-0.332,0.091-0.332s-0.039,0.11-0.111,0.323
		c-0.075,0.215-0.181,0.535-0.373,0.922c-0.355,0.786-1.003,1.882-2.041,3.084c-1.044,1.197-2.461,2.505-4.23,3.804
		c-1.764,1.305-3.863,2.616-6.228,3.907c-2.37,1.281-5,2.539-7.816,3.806c-1.395,0.658-2.857,1.288-4.317,2.031
		c-1.441,0.74-2.92,1.499-4.415,2.265c-1.929,1.003-3.899,2.04-5.882,3.089c-1.54-1.648-3.068-3.281-4.571-4.867
		c-1.162-1.215-2.309-2.412-3.43-3.584c-1.14-1.181-2.312-2.256-3.413-3.332c-2.247-2.12-4.321-4.169-6.14-6.156
		c-1.813-1.993-3.371-3.92-4.607-5.73c-1.249-1.807-2.156-3.506-2.75-4.978c-0.59-1.478-0.841-2.725-0.925-3.584
		c-0.049-0.427-0.048-0.766-0.046-0.992c0.001-0.226,0.001-0.343,0.001-0.343s-0.01,0.117-0.026,0.343
		c-0.017,0.227-0.041,0.562-0.021,1c0.024,0.877,0.189,2.159,0.686,3.708c0.492,1.541,1.303,3.339,2.443,5.263
		c1.131,1.929,2.577,3.988,4.267,6.136c1.679,2.154,3.607,4.389,5.691,6.693c1.045,1.133,2.118,2.296,3.212,3.482
		c1.084,1.191,2.194,2.409,3.322,3.644c1.324,1.472,2.68,2.976,4.047,4.493c-3.41,1.809-6.869,3.649-10.337,5.471
		c-3.115,1.656-6.236,3.291-9.31,4.875c-1.065,0.554-7.16,3.711-8.984,4.657c-2.91,1.487-5.705,2.954-8.378,4.279
		c-2.645,1.379-5.174,2.61-7.488,3.78c-4.633,2.311-8.516,4.175-11.233,5.475c-1.368,0.626-2.437,1.137-3.164,1.486
		c-0.725,0.345-1.116,0.534-1.116,0.534s0.415-0.135,1.188-0.379c0.771-0.248,1.905-0.61,3.341-1.092
		c1.439-0.477,3.156-1.139,5.139-1.864c1.983-0.739,4.183-1.657,6.604-2.627c2.394-1.033,5.002-2.132,7.725-3.374
		c2.732-1.244,5.595-2.596,8.552-4.012c1.254-0.623,2.536-1.26,3.822-1.899c0.019,0.718,0.105,1.435,0.267,2.134
		c0.386,1.738,1.13,3.368,1.989,4.899c0.843,1.533,1.892,2.975,2.787,4.412c0.843,1.455,1.292,3.125,1.482,4.799
		c0.375,3.379-0.183,6.765-0.246,10.217c0.001,0.095-0.001,0.186,0,0.277c-0.242,0.168-0.458,0.339-0.63,0.513
		c-0.317,0.311-0.502,0.626-0.56,0.858c-0.062,0.234-0.05,0.359-0.05,0.359s0.02-0.132,0.128-0.322
		c0.105-0.193,0.328-0.434,0.671-0.647c0.127-0.078,0.284-0.15,0.44-0.223c0.007,1.451-0.013,2.873-0.07,4.321l-0.181,5.133
		c-0.252,6.844-0.442,13.713-0.159,20.596c0.15,3.442,0.438,6.888,1.022,10.307c0.294,1.708,0.677,3.409,1.225,5.077
		c0.559,1.649,1.274,3.305,2.477,4.668l0.072,0.085l0.111,0.03l0.032,0.007l0.129,0.034l0.11-0.049
		c1.666-0.733,2.913-2.04,3.987-3.394c1.073-1.369,1.975-2.851,2.802-4.366c1.644-3.038,2.982-6.222,4.213-9.438
		c1.914-5.028,3.531-10.156,5.078-15.295l0.088-0.027c0,0-0.01-0.07-0.028-0.173c0.412-1.372,0.821-2.744,1.229-4.116
		c0.491-1.641,0.979-3.283,1.498-4.908c0.254-0.816,0.546-1.604,0.825-2.424c0.269-0.828,0.491-1.661,0.701-2.495
		c0.068-0.279,0.132-0.56,0.198-0.839c0.184,0.136,0.356,0.266,0.51,0.379c0.691,0.507,1.091,0.796,1.091,0.796
		s-0.37-0.326-1.016-0.893c-0.163-0.143-0.343-0.304-0.538-0.48c0.315-1.325,0.619-2.65,0.97-3.953
		c0.443-1.639,0.965-3.258,1.705-4.748c0.739-1.479,1.732-2.832,3.051-3.751c1.356-0.938,2.764-1.815,4.112-2.799
		c1.344-0.977,2.647-2.057,3.704-3.403c0.491-0.624,0.909-1.329,1.225-2.084c0.495,0.505,1.001,1.02,1.49,1.519
		c2.333,2.307,4.592,4.521,6.768,6.587c2.166,2.067,4.271,3.96,6.195,5.719c1.969,1.711,3.749,3.299,5.378,4.644
		c1.638,1.335,3.042,2.52,4.247,3.443c1.199,0.925,2.15,1.641,2.803,2.125c0.645,0.484,0.994,0.745,0.994,0.745
		S483.71,131.677,483.136,131.111z M440.56,128.806c-0.205,0.828-0.427,1.652-0.687,2.451c-0.271,0.798-0.577,1.607-0.832,2.429
		c-0.531,1.633-1.022,3.275-1.52,4.914c-0.316,1.055-0.638,2.105-0.955,3.158c-0.097-0.254-0.213-0.521-0.368-0.819
		c-0.227-0.416-0.519-0.877-0.901-1.327c-0.359-0.474-0.823-0.913-1.33-1.371c-0.524-0.424-1.098-0.863-1.729-1.229
		c-0.635-0.369-1.317-0.703-2.034-0.961c-0.715-0.27-1.461-0.47-2.212-0.606c-1.507-0.287-3.036-0.325-4.445-0.185
		c-0.707,0.065-1.383,0.183-2.011,0.341c-0.63,0.163-1.219,0.325-1.739,0.556c-0.525,0.209-0.992,0.439-1.385,0.679
		c-0.394,0.233-0.722,0.46-0.971,0.679c-0.26,0.2-0.438,0.389-0.559,0.517c-0.117,0.128-0.184,0.196-0.184,0.196l0.042,0.057
		c0,0,0.085-0.03,0.249-0.089c0.158-0.064,0.391-0.149,0.689-0.241c0.148-0.051,0.312-0.099,0.495-0.142
		c0.18-0.047,0.368-0.109,0.583-0.149c0.417-0.088,0.881-0.185,1.402-0.25c0.512-0.068,1.073-0.125,1.665-0.159
		c0.596-0.021,1.217-0.039,1.86-0.021c0.642,0.006,1.311,0.057,1.981,0.117c0.668,0.071,1.349,0.156,2.021,0.275
		c0.67,0.126,1.338,0.247,1.989,0.418c0.65,0.155,1.285,0.34,1.888,0.557c1.21,0.415,2.28,1.009,3.071,1.689
		c0.793,0.677,1.301,1.431,1.597,1.965c0.049,0.076,0.081,0.145,0.119,0.219c-1.605,5.276-3.275,10.535-5.25,15.669
		c-1.232,3.193-2.582,6.352-4.205,9.337c-0.819,1.491-1.708,2.941-2.751,4.257c-0.981,1.233-2.12,2.374-3.478,3.033
		c-0.973-1.189-1.627-2.666-2.131-4.172c-0.521-1.611-0.893-3.277-1.175-4.957c-0.573-3.366-0.822-6.785-0.992-10.198
		c-0.314-6.842-0.161-13.691,0.054-20.534l0.155-5.137c0.046-1.527,0.033-3.093,0.016-4.616c0.605-0.212,1.325-0.397,2.156-0.536
		c1.395-0.243,3.05-0.418,4.827-0.481c0.889-0.035,1.805-0.055,2.734-0.055c0.916-0.012,1.85-0.023,2.778-0.033
		c0.458-0.004,0.915,0,1.339,0.029c0.476,0.037,0.967,0.053,1.395,0.096c0.88,0.059,1.783,0.218,2.64,0.398
		c0.843,0.226,1.667,0.487,2.41,0.83c0.742,0.344,1.436,0.706,2.052,1.093c0.724,0.443,1.345,0.875,1.884,1.266
		C440.727,128.108,440.646,128.459,440.56,128.806z M454.469,108.905c-1.003,1.282-2.271,2.335-3.597,3.298
		c-1.33,0.968-2.734,1.838-4.103,2.788c-1.419,0.986-2.471,2.421-3.235,3.958c-0.769,1.546-1.3,3.195-1.749,4.855
		c-0.33,1.223-0.619,2.454-0.909,3.684c-0.479-0.434-1.028-0.915-1.672-1.426c-1.163-0.94-2.646-1.907-4.378-2.705
		c-0.873-0.392-1.78-0.768-2.773-1.02c-0.508-0.157-0.965-0.243-1.442-0.336c-0.524-0.104-1.037-0.146-1.539-0.178
		c-1.009-0.058-1.995-0.024-2.958,0.076c-0.963,0.109-1.901,0.257-2.801,0.432c-1.803,0.358-3.471,0.783-4.851,1.3
		c-0.7,0.264-1.332,0.547-1.867,0.843c0.062-3.339,0.598-6.706,0.211-10.15c-0.205-1.734-0.672-3.487-1.58-5.045
		c-0.945-1.505-1.952-2.877-2.791-4.395c-0.846-1.496-1.565-3.073-1.935-4.728c-0.178-0.763-0.26-1.535-0.257-2.306
		c1.551-0.774,3.116-1.562,4.693-2.371c3.082-1.591,6.206-3.228,9.323-4.889c3.134-1.651,6.244-3.359,9.319-5.031
		c0.497-0.275,0.986-0.544,1.481-0.818c0.374,0.415,0.741,0.822,1.116,1.239c1.236,1.355,2.479,2.722,3.729,4.09l0.132,0.175
		c0.377,0.491,0.772,0.966,1.156,1.449c0.39,0.479,0.766,0.968,1.165,1.439l1.211,1.393c0.399,0.475,0.813,0.927,1.24,1.371
		l1.266,1.34l1.321,1.289c0.43,0.436,0.904,0.826,1.357,1.241c0.311,0.288,0.643,0.553,0.97,0.82
		c0.272,0.288,0.548,0.581,0.819,0.866c1.735,1.812,3.457,3.569,5.157,5.3C455.402,107.529,454.98,108.255,454.469,108.905z"/>
	<path fill="none" stroke="#E2E2E2" stroke-width="0.8378" stroke-miterlimit="10" d="M427.218,137.233"/>
	<path fill="#FFFFFF" d="M435.938,142.14c-0.146-0.493-1.151-0.588-1.506-0.358c-0.876,0.55-1.675,1.178-2.413,1.864
		c-0.051,0.007-0.101,0.016-0.126,0.028c-4.109,1.886-7.573,5.157-11.265,7.88c-0.673,0.496-1.369,0.929-2.088,1.339
		c2.017-1.149,3.863-3.077,5.709-4.567c2.666-2.155,5.326-4.303,7.93-6.534c0.476-0.412-1.191-0.706-1.474-0.581
		c-3.146,1.363-6.188,3.094-9.337,4.506c2.669-2.355,2.977-3.25,3.544-4.494c1.089-0.195,2.095-0.432,2.804-0.815
		c-0.271-0.105-1.201-0.355-2.068-0.595c0.298-0.59-1.191-0.709-1.489-0.547c-2.03,1.095-4.259,1.488-6.29,2.587
		c-0.63,0.339,0.931,0.91,1.379,0.667c0.679-0.366,1.629-0.596,2.658-0.786c-1.904,1.679-4.124,3.208-4.649,5.724
		c-0.117,0.563,1.106,0.626,1.387,0.539c2.881-0.92,5.613-2.295,8.34-3.673c-3.575,2.939-6.933,5.558-10.469,8.593
		c-0.167,0.143,0,0.379,0.088,0.453c1.547,1.229,3.188,0.321,4.662-0.631c2.655-1.712,5.041-3.861,7.585-5.721
		c-2.979,3.13-6.163,6.027-9.305,8.996c-0.479,0.455,1.201,0.708,1.479,0.578c1.689-0.775,3.274-1.711,4.801-2.753
		c-2.081,2.487-4.288,4.84-6.702,7.011c-0.471,0.421,1.113,0.704,1.334,0.632c1.735-0.556,3.411-1.249,5.058-2.024
		c-2.262,2.235-4.493,4.509-6.572,6.967c-0.388,0.458,1.203,0.896,1.585,0.488c1.708-1.826,3.421-3.632,5.168-5.392
		c-0.979,1.84-1.976,3.681-2.943,5.547c-1.063,1.078-2.045,2.225-2.83,3.602c-0.21,0.367,0.254,0.581,0.741,0.632
		c-0.08,0.172-0.161,0.34-0.24,0.512c-0.248,0.546,1.349,0.649,1.634,0.378c2.284-2.167,2.96-3.617,4.118-6.464
		c0.002-0.004-0.001-0.008,0.001-0.01c2.545-3.47,4.408-7.266,6.241-11.311c0.2-0.445-0.644-0.614-1.168-0.487
		c0.751-1.74,1.422-3.527,1.982-5.376c0.481,0.262,1.155,0.219,1.163-0.164C434.43,146.275,436.566,144.26,435.938,142.14z
		 M433.965,144.766c-0.185-0.139-0.496-0.209-0.783-0.223c0.366-0.36,0.75-0.706,1.152-1.035
		C434.262,143.927,434.125,144.348,433.965,144.766z M426.871,151.068c-0.043,0.091-0.088,0.175-0.132,0.265
		c-0.032,0.07-0.036,0.137-0.024,0.2c-0.49,0.376-0.984,0.744-1.484,1.102C425.779,152.115,426.328,151.595,426.871,151.068z
		 M430.861,149.928c0.243-0.336-0.235-0.548-0.737-0.606c0.539-0.702,1.107-1.377,1.707-2.02c-0.928,3.317-2.226,6.427-3.695,9.451
		c-1.779,0.964-3.575,1.874-5.419,2.664C425.686,156.508,428.377,153.342,430.861,149.928z"/>
	<path opacity="0.5" fill="#E1EEF4" d="M457.148,94.484c0.4-0.163,0.816-0.278,1.229-0.368c0.831-0.19,1.666-0.278,2.495-0.353
		c0.833-0.068,1.658-0.088,2.482-0.11l2.457,0.014c0.816,0.017,1.629,0.054,2.417,0.053l2.428-0.055
		c1.655-0.031,3.308-0.023,4.949-0.011c3.297,0.025,6.571,0.069,9.825-0.101c0.817-0.048,1.624-0.106,2.436-0.171l1.192-0.121
		l1.238-0.157l4.947-0.706c3.314-0.476,6.614-0.994,9.907-1.573c3.299-0.583,6.576-1.275,9.803-2.147
		c3.229-0.88,6.42-1.91,9.42-3.296c2.368-1.096,4.623-2.433,6.517-4.092c-0.279-0.033-0.559-0.072-0.841-0.096
		c-0.484-0.033-0.969-0.079-1.462-0.098c-0.489-0.019-0.982-0.028-1.478-0.023c-0.495,0.012-0.993,0.014-1.49,0.037
		c-0.5,0.02-0.998,0.051-1.5,0.089c-1.002,0.077-2.009,0.183-3.016,0.317c-1.006,0.136-2.01,0.293-3.016,0.473
		c-0.998,0.19-2.002,0.378-2.995,0.6c-0.992,0.227-1.989,0.444-2.98,0.678l-2.967,0.696c1.731-0.47,3.461-0.931,5.185-1.443
		c0.467-0.134,0.934-0.275,1.4-0.41l2.231-0.688c0.976-0.303,1.963-0.603,2.96-0.872c0.376-0.103,0.754-0.198,1.132-0.294
		c0.894-0.255,1.787-0.506,2.681-0.766c1.748-0.512,3.504-0.956,5.267-1.381l2.66-0.646c0.866-0.211,1.736-0.414,2.592-0.662
		c1.724-0.475,3.427-1.03,5.111-1.654c1.682-0.619,3.348-1.298,4.998-2.027c1.655-0.718,3.3-1.461,4.937-2.252l4.925-2.376
		c1.652-0.799,3.273-1.626,4.979-2.408c3.379-1.569,6.805-2.958,10.138-4.449c1.667-0.752,3.306-1.541,4.896-2.4
		c0.794-0.429,1.58-0.885,2.34-1.347c0.376-0.239,0.753-0.46,1.127-0.714l1.133-0.763c1.536-1.069,3.079-2.093,4.551-3.15
		c0.994-0.716,1.916-1.484,2.801-2.282c-2.585-0.513-5.212-0.885-7.854-1.138c-3.222-0.294-6.466-0.46-9.713-0.485
		c-3.238-0.021-6.487,0.067-9.708,0.222c-3.238,0.169-6.457,0.396-9.663,0.691c-1.603,0.128-3.196,0.331-4.792,0.492
		c-1.591,0.178-3.176,0.404-4.761,0.602l-4.725,0.725c-1.562,0.291-3.14,0.543-4.686,0.86l-2.309,0.477
		c-0.769,0.153-1.543,0.321-2.323,0.513l-2.333,0.551l-1.136,0.275l-1.154,0.292c-3.074,0.782-6.14,1.577-9.189,2.398
		c-6.08,1.642-12.098,3.415-18.002,5.435c-2.939,1.003-5.865,2.043-8.761,3.138c-1.442,0.551-2.886,1.107-4.307,1.697
		c-1.44,0.553-2.848,1.164-4.262,1.758c-1.404,0.624-2.782,1.193-4.196,1.859c-1.409,0.661-2.791,1.319-4.219,1.966l-4.217,1.917
		c-1.398,0.626-2.788,1.265-4.161,1.928c-2.745,1.317-5.455,2.695-8.02,4.282c-1.274,0.804-2.53,1.637-3.675,2.602
		c-1.15,0.963-2.205,2.015-2.986,3.324l-0.062-0.028c-0.004,0.012-0.298,0.923-0.267,1.652c0.03,0.734,1.462,1.311,2.714,2.018
		c1.25,0.706,7.551,5.042,7.551,5.042l-0.012-0.414l0,0h0.02c0.019-0.131,0.082-0.236,0.161-0.332l-0.091-0.083
		C456.336,94.867,456.743,94.643,457.148,94.484z"/>
	<path fill="#293644" d="M589.483,49.514c-3.238-0.775-6.528-1.297-9.83-1.652c-3.293-0.348-6.597-0.521-9.893-0.628
		c-3.291-0.098-6.564-0.089-9.852-0.01c-3.261,0.098-6.519,0.239-9.773,0.451c-1.622,0.085-3.243,0.246-4.866,0.368
		c-1.617,0.137-3.229,0.323-4.845,0.482l-4.827,0.613c-1.604,0.253-3.201,0.467-4.806,0.75l-2.403,0.432
		c-0.807,0.139-1.598,0.291-2.376,0.459l-2.343,0.49l-0.588,0.124l-0.61,0.135l-1.169,0.271c-3.116,0.706-6.217,1.482-9.298,2.292
		c-3.084,0.804-6.139,1.669-9.188,2.556c-3.042,0.912-6.07,1.82-9.073,2.823c-3.003,0.972-5.976,2.051-8.92,3.179
		c-2.946,1.119-5.85,2.348-8.712,3.661c-2.888,1.346-5.648,2.766-8.36,4.221l-4.115,2.156c-1.361,0.742-2.726,1.5-4.07,2.283
		c-1.353,0.777-2.673,1.61-3.976,2.469c-1.309,0.857-2.575,1.777-3.793,2.757c-1.223,0.977-2.386,2.034-3.433,3.2
		c-0.52,0.585-0.996,1.206-1.429,1.852c-0.417,0.652-0.777,1.359-1.022,2.059l0.064,0.028l0.062,0.028
		c0.781-1.309,1.836-2.361,2.986-3.324c1.145-0.964,2.4-1.798,3.675-2.602c2.564-1.587,5.274-2.965,8.02-4.282
		c1.373-0.663,2.763-1.302,4.161-1.928l4.217-1.917c1.428-0.647,2.81-1.305,4.219-1.966c1.414-0.666,2.792-1.235,4.196-1.859
		c1.414-0.594,2.821-1.205,4.262-1.758c1.421-0.59,2.864-1.146,4.307-1.697c2.896-1.095,5.821-2.135,8.761-3.138
		c5.904-2.021,11.922-3.793,18.002-5.435c3.05-0.821,6.115-1.616,9.189-2.398l1.154-0.292l1.136-0.275l2.333-0.551
		c0.78-0.192,1.555-0.36,2.323-0.513l2.309-0.477c1.546-0.317,3.123-0.57,4.686-0.86l4.725-0.725
		c1.585-0.198,3.17-0.424,4.761-0.602c1.596-0.162,3.189-0.364,4.792-0.492c3.206-0.295,6.425-0.522,9.663-0.691
		c3.221-0.155,6.47-0.243,9.708-0.222c3.247,0.024,6.491,0.19,9.713,0.485c2.642,0.252,5.269,0.625,7.854,1.138
		c-0.885,0.798-1.807,1.566-2.801,2.282c-1.472,1.057-3.015,2.081-4.551,3.15l-1.133,0.763c-0.374,0.254-0.751,0.475-1.127,0.714
		c-0.76,0.462-1.546,0.918-2.34,1.347c-1.59,0.859-3.229,1.648-4.896,2.4c-3.333,1.491-6.759,2.88-10.138,4.449
		c-1.705,0.782-3.326,1.608-4.979,2.408l-4.925,2.376c-1.637,0.791-3.281,1.534-4.937,2.252c-1.65,0.729-3.316,1.409-4.998,2.027
		c-1.685,0.624-3.388,1.179-5.111,1.654c-0.855,0.249-1.726,0.451-2.592,0.662l-2.66,0.646c-1.763,0.425-3.519,0.869-5.267,1.381
		c-0.894,0.26-1.787,0.511-2.681,0.766c-0.378,0.096-0.756,0.192-1.132,0.294c-0.997,0.269-1.984,0.569-2.96,0.872l-2.231,0.688
		c-0.467,0.135-0.934,0.276-1.4,0.41c-1.724,0.512-3.453,0.973-5.185,1.443l5.208-1.351c0.055-0.014,0.11-0.027,0.164-0.04
		c-1.789,0.479-3.574,0.967-5.372,1.391l2.967-0.696c0.991-0.234,1.988-0.452,2.98-0.678c0.993-0.222,1.997-0.41,2.995-0.6
		c1.006-0.18,2.01-0.337,3.016-0.473c1.007-0.134,2.014-0.24,3.016-0.317c0.502-0.038,1-0.069,1.5-0.089
		c0.497-0.023,0.995-0.025,1.49-0.037c0.495-0.005,0.988,0.004,1.478,0.023c0.493,0.02,0.978,0.065,1.462,0.098
		c0.282,0.024,0.562,0.063,0.841,0.096c-1.894,1.659-4.148,2.997-6.517,4.092c-3,1.386-6.19,2.416-9.42,3.296
		c-3.227,0.872-6.504,1.563-9.803,2.147c-3.293,0.579-6.593,1.098-9.907,1.573l-4.947,0.706l-1.238,0.157l-1.192,0.121
		c-0.812,0.064-1.618,0.123-2.436,0.171c-3.254,0.17-6.528,0.126-9.825,0.101c-1.642-0.013-3.294-0.021-4.949,0.011l-2.428,0.055
		c-0.788,0.001-1.601-0.036-2.417-0.053l-2.457-0.014c-0.824,0.022-1.649,0.042-2.482,0.11c-0.829,0.074-1.664,0.162-2.495,0.353
		c-0.413,0.09-0.829,0.205-1.229,0.368c-0.405,0.158-0.812,0.383-1.095,0.731l0.091,0.083l0.031,0.028
		c0.662-0.407,1.488-0.386,2.265-0.418c0.791,0.006,1.585,0.042,2.381,0.111c0.799,0.062,1.597,0.13,2.394,0.216l2.414,0.229
		c0.814,0.069,1.628,0.131,2.473,0.172c0.888,0.039,1.664,0,2.483,0.012c1.621,0.008,3.253,0.051,4.891,0.104
		c3.279,0.099,6.599,0.224,9.973,0.119c0.843-0.022,1.689-0.072,2.535-0.134l1.296-0.119l1.247-0.144l4.993-0.655
		c3.332-0.447,6.681-0.908,10.032-1.532c3.351-0.608,6.708-1.331,10.04-2.243c3.338-0.917,6.641-2.077,9.82-3.595
		c3.162-1.532,6.238-3.493,8.629-6.195l1.242-1.401l-1.819-0.32c-0.429-0.077-0.855-0.133-1.284-0.185l0.811-0.144
		c0.908-0.171,1.818-0.333,2.721-0.544c1.812-0.398,3.609-0.879,5.379-1.432c1.775-0.545,3.534-1.157,5.269-1.817
		c1.727-0.668,3.439-1.386,5.135-2.127c1.697-0.732,3.362-1.53,5.026-2.313l4.969-2.357c3.303-1.543,6.705-3.015,10.045-4.712
		c1.675-0.842,3.343-1.733,4.963-2.703c0.812-0.484,1.61-0.99,2.404-1.521c0.389-0.271,0.799-0.542,1.178-0.817l1.123-0.833
		c1.432-1.11,2.953-2.152,4.446-3.285c1.501-1.126,2.988-2.335,4.302-3.704l1.102-1.147L589.483,49.514z"/>
	<path opacity="0.5" fill="#E1EEF4" d="M424.186,83.821c-0.327-1.487-0.995-2.819-1.782-4.097c-0.784-1.275-1.713-2.464-2.668-3.628
		c-1.932-2.314-4.068-4.478-6.261-6.593c-1.09-1.062-2.208-2.108-3.338-3.142l-3.396-3.149c-1.151-1.068-2.25-2.126-3.381-3.198
		c-1.132-1.077-2.26-2.054-3.396-3.089c-1.155-1.009-2.299-2.033-3.488-3.013c-1.164-1.008-2.357-1.992-3.55-2.969
		c-2.404-1.951-4.851-3.862-7.326-5.742c-4.963-3.781-10.114-7.363-15.365-10.84c-2.637-1.741-5.293-3.462-7.962-5.175l-1.005-0.642
		l-0.99-0.619l-2.04-1.26c-0.679-0.429-1.36-0.833-2.042-1.22l-2.041-1.182c-1.367-0.789-2.782-1.526-4.175-2.294l-4.253-2.179
		c-1.442-0.689-2.874-1.404-4.328-2.076c-1.462-0.656-2.911-1.351-4.394-1.98c-2.946-1.291-5.929-2.522-8.945-3.704
		c-3.012-1.163-6.067-2.271-9.146-3.273c-3.087-1.001-6.219-1.869-9.37-2.607c-2.596-0.595-5.215-1.072-7.838-1.401
		c0.589,1.04,1.247,2.056,1.967,3.054c1.063,1.466,2.201,2.925,3.32,4.424l0.836,1.081c0.277,0.36,0.564,0.689,0.845,1.034
		c0.574,0.679,1.179,1.36,1.795,2.017c1.239,1.318,2.543,2.583,3.889,3.823c2.692,2.467,5.502,4.865,8.215,7.422
		c1.372,1.279,2.647,2.574,3.965,3.856l3.924,3.809c1.303,1.266,2.629,2.492,3.975,3.694c1.335,1.212,2.699,2.384,4.1,3.501
		c1.402,1.124,2.841,2.188,4.328,3.183c0.734,0.506,1.498,0.972,2.251,1.447l2.319,1.449c1.539,0.96,3.064,1.938,4.562,2.974
		c0.873,0.604,1.751,1.199,2.625,1.797c0.217,0.141,0.444,0.27,0.658,0.413c0.864,0.569,1.703,1.165,2.535,1.76l1.926,1.377
		c0.391,0.269,0.78,0.544,1.173,0.812c1.475,1.028,2.969,2.013,4.465,3.005l-2.596-1.598c-0.868-0.535-1.744-1.054-2.613-1.583
		c-0.873-0.523-1.767-1.019-2.655-1.515c-0.894-0.489-1.801-0.954-2.712-1.4c-0.912-0.446-1.833-0.861-2.761-1.253
		c-0.462-0.196-0.927-0.38-1.396-0.558c-0.464-0.177-0.937-0.337-1.402-0.504c-0.468-0.162-0.939-0.308-1.41-0.445
		c-0.471-0.138-0.948-0.249-1.418-0.368c-0.275-0.067-0.552-0.118-0.827-0.174c1.273,2.171,2.992,4.152,4.892,5.939
		c2.41,2.261,5.112,4.246,7.896,6.1c2.785,1.846,5.679,3.536,8.626,5.132c2.94,1.586,5.911,3.122,8.903,4.618l4.474,2.232
		l1.123,0.539l1.095,0.491c0.748,0.32,1.499,0.631,2.256,0.932c3.035,1.189,6.158,2.182,9.292,3.197
		c1.564,0.503,3.134,1.019,4.694,1.571l2.287,0.819c0.745,0.25,1.527,0.471,2.308,0.712l2.335,0.763
		c0.775,0.281,1.554,0.56,2.323,0.887c0.762,0.331,1.526,0.681,2.256,1.122c0.363,0.216,0.722,0.456,1.05,0.739
		c0.332,0.276,0.65,0.62,0.81,1.038l-0.112,0.051c0.044,0.116,0.07,0.236,0.045,0.366l0.019,0.005v0l-0.141,0.389
		c0,0,7.347-2.126,8.758-2.4c1.411-0.276,2.949-0.372,3.21-1.058c0.262-0.685,0.271-1.645,0.271-1.653l0.021-0.002v0L424.186,83.821
		z"/>
	<path fill="#293644" d="M424.005,81.532c-0.207-0.749-0.464-1.49-0.774-2.208c-0.623-1.436-1.393-2.807-2.246-4.12
		c-0.847-1.315-1.757-2.588-2.729-3.812c-0.964-1.228-1.954-2.434-2.99-3.599c-1.031-1.168-2.083-2.316-3.145-3.451l-3.225-3.344
		c-2.113-2.237-4.286-4.457-6.601-6.644c-2.302-2.15-4.671-4.232-7.112-6.223c-2.438-2-4.917-3.961-7.46-5.831
		c-2.532-1.899-5.123-3.717-7.718-5.542c-2.611-1.803-5.241-3.589-7.911-5.325c-2.669-1.742-5.368-3.456-8.102-5.11l-1.023-0.624
		l-0.536-0.323l-0.518-0.302l-2.069-1.204c-0.684-0.405-1.389-0.8-2.108-1.184l-2.146-1.17c-1.432-0.773-2.881-1.482-4.322-2.227
		l-4.388-2.106c-1.482-0.66-2.952-1.347-4.446-1.988c-1.502-0.625-2.987-1.291-4.5-1.885c-3.023-1.227-6.07-2.39-9.131-3.509
		c-3.096-1.115-6.199-2.157-9.354-3.102c-3.159-0.938-6.349-1.817-9.583-2.525c-3.244-0.707-6.533-1.25-9.851-1.536L298.413,2.5
		l0.682,1.437c0.815,1.714,1.844,3.331,2.913,4.873c1.06,1.545,2.174,3.014,3.181,4.52l0.805,1.145
		c0.271,0.38,0.575,0.766,0.859,1.146c0.588,0.754,1.182,1.487,1.802,2.202c1.232,1.433,2.533,2.805,3.855,4.132
		c2.634,2.663,5.399,5.134,8.047,7.642l3.968,3.805c1.332,1.268,2.661,2.55,4.042,3.782c1.373,1.238,2.771,2.458,4.198,3.639
		c1.438,1.173,2.914,2.307,4.427,3.384c1.505,1.084,3.059,2.107,4.653,3.058c0.787,0.484,1.601,0.927,2.408,1.375l0.724,0.391
		c-0.423-0.084-0.847-0.166-1.277-0.228l-1.824-0.271l0.734,1.722c1.414,3.318,3.717,6.149,6.234,8.601
		c2.536,2.445,5.307,4.589,8.18,6.512c2.876,1.916,5.834,3.66,8.823,5.297c2.979,1.648,6.015,3.142,9.033,4.619l4.532,2.199
		l1.138,0.531l1.19,0.52c0.785,0.326,1.572,0.641,2.366,0.928c3.168,1.163,6.354,2.094,9.501,3.035
		c1.567,0.468,3.131,0.941,4.672,1.445c0.78,0.248,1.504,0.529,2.36,0.772c0.814,0.228,1.606,0.428,2.397,0.617l2.365,0.545
		c0.786,0.168,1.565,0.356,2.34,0.549c0.778,0.188,1.542,0.403,2.294,0.647c0.727,0.275,1.517,0.517,2.018,1.112l0.04-0.018
		l0.112-0.051c-0.159-0.418-0.478-0.762-0.81-1.038c-0.328-0.283-0.687-0.523-1.05-0.739c-0.729-0.44-1.494-0.791-2.256-1.122
		c-0.77-0.327-1.548-0.606-2.323-0.887l-2.335-0.763c-0.78-0.242-1.562-0.463-2.308-0.712l-2.287-0.819
		c-1.561-0.552-3.13-1.067-4.694-1.571c-3.134-1.015-6.257-2.008-9.292-3.197c-0.757-0.301-1.508-0.612-2.256-0.932l-1.095-0.491
		l-1.123-0.539l-4.474-2.232c-2.992-1.497-5.963-3.032-8.903-4.618c-2.947-1.596-5.841-3.287-8.626-5.132
		c-2.784-1.854-5.486-3.839-7.896-6.1c-1.899-1.787-3.618-3.768-4.892-5.939c0.275,0.056,0.552,0.106,0.827,0.174
		c0.47,0.12,0.947,0.23,1.418,0.368c0.471,0.137,0.942,0.283,1.41,0.445c0.466,0.167,0.938,0.327,1.402,0.504
		c0.469,0.178,0.934,0.362,1.396,0.558c0.928,0.392,1.849,0.807,2.761,1.253c0.911,0.447,1.818,0.912,2.712,1.4
		c0.889,0.496,1.782,0.992,2.655,1.515c0.869,0.529,1.745,1.048,2.613,1.583l2.596,1.598c-1.496-0.992-2.99-1.977-4.465-3.005
		c-0.393-0.268-0.782-0.543-1.173-0.812l-1.926-1.377c-0.832-0.595-1.671-1.191-2.535-1.76c-0.214-0.143-0.441-0.272-0.658-0.413
		c-0.874-0.599-1.752-1.194-2.625-1.797c-1.498-1.036-3.023-2.013-4.562-2.974l-2.319-1.449c-0.753-0.475-1.517-0.941-2.251-1.447
		c-1.487-0.995-2.926-2.059-4.328-3.183c-1.4-1.118-2.765-2.289-4.1-3.501c-1.346-1.202-2.672-2.428-3.975-3.694l-3.924-3.809
		c-1.317-1.282-2.593-2.577-3.965-3.856c-2.713-2.557-5.522-4.955-8.215-7.422c-1.346-1.241-2.649-2.505-3.889-3.823
		c-0.616-0.656-1.221-1.338-1.795-2.017c-0.28-0.345-0.567-0.674-0.845-1.034l-0.836-1.081c-1.119-1.499-2.257-2.958-3.32-4.424
		c-0.72-0.998-1.378-2.014-1.967-3.054c2.623,0.329,5.242,0.806,7.838,1.401c3.151,0.738,6.283,1.606,9.37,2.607
		c3.079,1.002,6.135,2.111,9.146,3.273c3.017,1.182,5.999,2.413,8.945,3.704c1.482,0.629,2.932,1.324,4.394,1.98
		c1.454,0.671,2.886,1.386,4.328,2.076l4.253,2.179c1.393,0.768,2.808,1.505,4.175,2.294l2.041,1.182
		c0.682,0.387,1.363,0.791,2.042,1.22l2.04,1.26l0.99,0.619l1.005,0.642c2.669,1.712,5.325,3.434,7.962,5.175
		c5.251,3.477,10.402,7.059,15.365,10.84c2.476,1.879,4.922,3.791,7.326,5.742c1.192,0.978,2.386,1.961,3.55,2.969
		c1.189,0.98,2.333,2.004,3.488,3.013c1.136,1.035,2.264,2.013,3.396,3.089c1.131,1.072,2.229,2.13,3.381,3.198l3.396,3.149
		c1.13,1.034,2.248,2.08,3.338,3.142c2.192,2.115,4.329,4.278,6.261,6.593c0.955,1.165,1.884,2.353,2.668,3.628
		c0.787,1.278,1.455,2.609,1.782,4.097l0.09-0.009l0.048-0.004C424.312,83.065,424.192,82.282,424.005,81.532z"/>
</g>
</svg>
