<svg xmlns="http://www.w3.org/2000/svg" width="200" height="128">
    <path fill="#FC0000" d="M37.31 67.41a48.39 48.39 0 014.58 3.26 6.75 6.75 0 003.68-2.3v-.26L43.15 66h-.3A3.83 3.83 0 0140 67.31a3.26 3.26 0 010-6.51 3.86 3.86 0 012.82 1.28h.3L45.57 60v-.29a7.11 7.11 0 00-5.52-2.56c-4.13 0-7.28 2.93-7.28 6.88a2.32 2.32 0 00.06.45c1.7 1.15 3.17 2.08 4.48 2.93zM58.72 67.31a1 1 0 01-.53.13c-.46 0-.75-.48-1-.88a3.18 3.18 0 00-1-1.09 3.82 3.82 0 002.45-3.63c0-2.72-1.84-4.43-5.31-4.43h-6v13.26h4V66h.37c.88 0 2 1.92 2.53 2.77 1.1 1.73 1.95 2.11 3.5 2.11a2.54 2.54 0 001.68-.59l.16-.27-.62-2.61zm-5.49-3.92h-1.84v-2.7h1.84a1.31 1.31 0 011.38 1.39 1.27 1.27 0 01-1.38 1.31zM67.65 57.17c-4.16 0-7.3 2.94-7.3 6.88s3.14 6.88 7.3 6.88S75 68 75 64.05s-3.19-6.88-7.35-6.88zm0 10.14a3.26 3.26 0 113.25-3.26 3.19 3.19 0 01-3.27 3.26zM91.09 57.43l-2.34 7.34-2.51-7.34h-2.4l-2.48 7.31-2.35-7.31H75.2l-.19.3 4.88 12.96h2.4l2.75-7.23 2.77 7.23h2.4l4.88-12.96-.18-.3h-3.82zM102.75 57.43h-6.11v13.26h6.11c4.29 0 6.93-2.64 6.93-6.64s-2.68-6.62-6.93-6.62zm-.14 10h-1.94v-6.74h1.94c1.74 0 3 1.2 3 3.36s-1.26 3.36-3 3.36zM122.83 60.69h3.97v10h4v-10h3.97v-3.26h-11.94v3.26zM147.52 61.86c0-2.72-1.84-4.43-5.31-4.43h-6v13.26h4v-4.64h.93l2.48 4.64h4l.18-.3-2.66-4.9a3.92 3.92 0 002.38-3.63zm-5.44 1.52h-1.84v-2.69h1.84a1.32 1.32 0 011.39 1.38 1.27 1.27 0 01-1.39 1.31zM149.95 57.43h3.97v13.25h-3.97zM168.53 57.73l-.16-.3h-4.26l-3.68 4.72v-4.72h-3.98v13.26h3.98v-4.08l.72-.86 3.38 4.94h4.16l.19-.32-4.85-7.02 4.5-5.62zM173.95 67.43v-1.84h4.56v-3.06h-4.56v-1.84h6v-3.26h-9.98v13.26H180v-3.26h-6.05zM117.09 62.24c-.88-.27-1.78-.56-1.78-1.23 0-.48.5-.74 1.28-.74a4.72 4.72 0 013 1.33h.3l1.86-2.24v-.29a7.16 7.16 0 00-5.22-2c-3.1 0-5.26 1.68-5.26 4.11 0 2.61 2.38 3.76 4.38 4.32 1.3.37 2.18.43 2.18 1.15 0 .5-.61.82-1.6.82a5.63 5.63 0 01-3.46-1.47h-.29l-1.84 2.32v.3a7.89 7.89 0 005.79 2.26c2.9 0 5.46-1.41 5.46-4.18 0-3.02-2.56-3.79-4.8-4.46zM37.2 73.92C33.71 72 27.71 69 22.32 63.28c.48 2 3 6.59 13.73 12.21 3 1.66 8 3.18 11.66 7.52-.96-2.21-2.91-5.01-10.51-9.09zM34.61 69.71c3.87 2.64 8.86 4.24 12.62 9.52-.91-2.62-2.56-6-10.43-10.94A73.78 73.78 0 0120 54.64c.53 2.16 2.85 7.79 14.61 15.07z"/>
</svg>
