<?xml version="1.0" encoding="UTF-8"?>
<svg version="1.1" viewBox="0 0 2048 1146" width="1280" height="1280" xmlns="http://www.w3.org/2000/svg">
<path transform="translate(0)" d="m0 0h2048v1146h-2048z" fill="#FEFEFE"/>
<path transform="translate(240,302)" d="m0 0h18l12 3 10 5 13 12 12 12 5 6 6-2 16-7 21-7 23-5 13-1h10l18 2 12 4 10 6 7 6 6 10 4 9 1 5v10l-4 17-5 13-9 17-7 9-9 10-6 7 2 5 4 5 9 16 5 14 3 20 2 42 11 3 22 8 12 7 9 9 4 8 3 10v13l-6 15 1 8 5 16 6 5 6 3 6 10 2 7v17l-3 19-6 20-9 20-11 17-9 12-11 13-10 9-17 13-15 9-23 11-24 8-22 5-30 3h-25l-31-3-18-4-20-6-23-10-15-8-18-12-10-8-12-11-7-8-10-11-14-22-8-15-6-2-10-2-12-4-16-8-9-7-8-7-9-12-5-8-6-17-2-15 1-17 3-12 2-4-12-11-8-7-6-7-5-8-3-14v-14l3-17 9-27 8-16 9-17 11-17 12-17 16-20 11-13 18-20 10-10 8-7 15-13 14-11 15-11 21-13 16-8 15-6z" fill="#020202"/>
<path transform="translate(392,466)" d="m0 0 9 1 10 6 5 7 4 11 2 13 2 48 4 6 10 5 23 7 12 6 10 9 1 2v17l-7 11-8 8-15 10-21 10-17 6-21 5-27 4h-34l-17-2-10 1-9 6-5 8-3 12 1 11 4 9 7 8 9 6 13 5 15 3 10 1h19l24-3 21-5 20-7 16-8 11-7 13-11 3-5-24 14-24 10-19 6-25 5-10 1h-28l-19-3-10-4-11-8-4-7-1-4h9l20 4 12 1h22l15-2 8-3v-1h-33l-22-2-12-2-16-4-1-5 4-6 3-2h13l14 1h30l23-2 31-7 20-7 25-12 10-7 4-3 3 1 6 16 3 12 11 3 2 3v17l-3 15-6 16-8 14-9 11-17 17-15 11-17 9-21 8-21 5-18 2h-20l-20-3-18-6-16-8-10-7-10-9-7-7-10-16-6-15-4-17v-24l5-22 7-16 7-11 11-12-1-5-11-13-11-14-6-10-5-14-2-12v-8l5-19 7-13 6-7 11-8 8-4 13-4 18 1 16 2h18l18-6 6-4 12-9z" fill="#FDFDFD"/>
<path transform="translate(691,509)" d="m0 0h17l12 4 8 6 8 9 4 9 3 17 3 3 2-6 5-11 7-12 8-9 11-7 9-3h19l12 3 10 6 8 8 6 10 4 11 2 11 1 109-1 8h-56l-1-73-1-28-2-10-5-4-4-1h-8l-4 2-7 14-2 7-1 92-1 1h-57l-1-98-2-9-4-7-8-3-7 1-7 8-5 12-1 6-1 89-1 1h-57v-162l1-1h42l1 1-1 24-3 11-1 10 4-4 8-17 7-11 5-6 10-7z" fill="#020202"/>
<path transform="translate(1696,509)" d="m0 0h15l13 4 8 6 8 9 4 10 3 16 3 3 3-9 8-16 9-11 12-9 10-3h20l13 4 10 7 8 9 6 12 3 11 1 7 1 37-1 79h-57l-1-99-2-12-5-4-4-1h-8l-4 2-7 14-2 6-1 11-1 82-1 1h-56l-1-100-4-11-5-5-7-1-7 3-6 8-5 13-1 8-1 84-1 1h-56v-163h43v23l-4 16v7l4-4 8-17 7-11 6-7 13-8z" fill="#020202"/>
<path transform="translate(1966,509)" d="m0 0h14l11 2 16 8 11 10 9 14 6 15 2 10 1 11v24l-2 21-5 15-6 12-11 12-9 7-11 5-7 2h-21l-10-3-10-7-10-11h-1l-1 62-1 1h-18l-39-1v-206h43l1 1v18l-4 17-1 10 4-4 11-22 9-10 8-6 10-5z" fill="#020202"/>
<path transform="translate(241,321)" d="m0 0h20l6 3 10 9 10 10 5 8-22 13-33 22-12 10-11 8-11 9-16 15-15 15-7 8-10 12-12 17-7 10-15 26-11 22-10 25-12 5-19 10-10 9-5 6-5-1v-2h-2l-14-16-4-9v-18l5-19 9-22 8-16 8-14 11-17 12-17 9-11 9-10 9-11 16-17 14-13 11-9 16-13 24-16 23-12 19-7z" fill="#FEFEFE"/>
<path transform="translate(1358,463)" d="m0 0h49l1 1v45l-2 23-5 14-1 11 3-3 10-19 8-10 9-8 12-6 11-2h14l10 2 10 5 8 7 7 11 6 16 2 17v93l-1 15h-56l-1-1v-94l-2-13-4-6-8-3-9 2-5 5-5 8-3 9-1 34v56l-1 3h-57v-211z" fill="#020202"/>
<path transform="translate(941,509)" d="m0 0h19l14 2 13 5 10 6 6 5 7 10 7 15 4 19 1 9 1 22v41l-1 31-1 1h-31l-11-1-2-6-1-10v-26h-3l-2 5-6 12-8 10-10 9-11 6-10 4-14 1-11-2-16-8-10-9-7-9-3-12v-19l3-11 5-9 9-10 11-7 10-4 15-3 9-1h24l15 1-3-10-6-8-8-4h-20l-20 4-17 7-17 9h-2v-30l1-18 4-3 16-6 25-6z" fill="#020202"/>
<path transform="translate(1267,509)" d="m0 0h18l20 2 21 7 10 6 1 1 1 56-5-2-17-8-12-3-7-1h-25l-13 4-8 6-6 10-1 10 4 10 7 8 8 4 12 2h15l17-3 16-6 14-7v52l-4 4-15 8-13 5-17 4h-19l-17-3-12-5-11-6-9-7-7-7-8-14-5-13-4-20v-22l3-17 4-13 8-13 9-10 10-7 16-8 12-3z" fill="#020202"/>
<path transform="translate(1120,463)" d="m0 0h59v207l-1 5h-58z" fill="#020202"/>
<path transform="translate(103,583)" d="m0 0h17l12 4 9 6 8 8 6 10 6 15 2 11v28l-3 11-5 10-9 10-10 5-4 1h-24l-12-4-11-7-12-11-9-14-4-9-2-9v-15l5-19 6-10 9-10 10-6 11-4z" fill="#FEFEFE"/>
<path transform="translate(1588,513)" d="m0 0 2 1v35l-1 126h-58l-1-160 21 2h22l12-2z" fill="#020202"/>
<path transform="translate(1042,514)" d="m0 0 30 3h10l19-2-1 160h-57z" fill="#020202"/>
<path transform="translate(1949,558)" d="m0 0h12l8 4 6 8 3 8 1 5v32l-3 10-7 11-6 4h-12l-8-5-6-8-4-10-1-5v-27l4-12 6-9z" fill="#FEFEFE"/>
<path transform="translate(1549,462)" d="m0 0h20l10 3 9 6 6 7 2 5v6l-6 8-8 7-16 4h-11l-16-3-6-4-6-7-3-6v-7l6-9 5-4 10-5z" fill="#020202"/>
<path transform="translate(1062,462)" d="m0 0h19l12 4 9 7 4 6 1 4v7l-4 7-8 6-11 4-6 1h-11l-15-3-9-6-5-5-2-5v-8l4-7 7-6 10-5z" fill="#020202"/>
<path transform="translate(318,395)" d="m0 0h8l1 3-6 7-1 3h9l20 3 18 7 2 4h-12l-18-2h-36l-25 3-26 8-19 8-15 8-14 9h-2l2-5 8-9 5-5 12-11 18-14 21-14 4-1v6l-6 12 12-7 15-6 20-6z" fill="#FEFEFE"/>
<path transform="translate(105,605)" d="m0 0h9l9 3 7 6 5 10 1 3v7l-6 17-1 11 3 3 10 2-1 5-2 2h-10l-7-6-3-6-1-6 3-13v-14l-5-6-4-2h-11l-6 4-5 9-2 6-1 1h-5l-1-1v-9l4-10 4-6 7-7z" fill="#020202"/>
<path transform="translate(938,608)" d="m0 0h26l1 2-5 10-11 12-12 6-3 1h-8l-6-3-5-6v-10l5-6 11-5z" fill="#FEFEFE"/>
<path transform="translate(392,517)" d="m0 0h7l4 4 5 13 1 4v16l-3 4h-7l-4-4-4-7-3-15v-8l2-6z" fill="#020202"/>
<path transform="translate(306,552)" d="m0 0h12l9 3 9 6 5 6v4l-4-1-8-4-10-3h-11l-19 5-5-1 1-4 4-4 13-6z" fill="#020202"/>
<path transform="translate(318,574)" d="m0 0h10l10 6-1 3-18-1-6 4h-8l-1-4 3-3z" fill="#020202"/>
<path transform="translate(373,583)" d="m0 0 6 1 7 6-1 5-4 3-6-2-6-5-1-4z" fill="#020202"/>
<path transform="translate(404,570)" d="m0 0 5 2 2 5v7l-2 3h-6l-4-5 2-9z" fill="#020202"/>
</svg>
