<?xml version="1.0" encoding="UTF-8"?>
<svg version="1.1" viewBox="0 0 2560 686" width="1280" height="1280" xmlns="http://www.w3.org/2000/svg">
<path transform="translate(473,218)" d="m0 0 11 1 8 4 6 7 5 10 3 14 1 7 3 56 3 8 3 3 10 4 24 7 14 6 11 8 5 8 1 3v12l-4 10-8 10-10 9-16 10-16 8-14 6-15 5-26 6-22 3-8 1h-39l-18-2h-8l-9 3-6 4-6 8-3 7-1 5v15l3 10 6 9 7 6 10 6 13 5 17 4 10 1h27l19-2 20-4 21-6 24-10 14-8 11-8 10-8 1-2h2l2-4 3-4-18 11-15 8-29 12-28 8-24 4-12 1h-20l-18-2-19-5-12-6-5-4-4-5-3-10 2-1 25 6 16 2h27l15-2 17-5-4-1-15 1h-20l-22-2-21-4-16-5-2-1 1-6 7-6 4-1h11l16 2h39l26-3 29-6 24-8 19-8 18-10 13-9 5-2 6 17 3 12v5l9 1 7 6 2 6v11l-4 19-7 19-9 16-9 12-9 10-14 14-18 13-23 12-15 6-21 6-19 3-7 1h-28l-25-4-19-6-21-10-14-10-10-9-9-11-9-14-7-17-3-10-2-13v-29l4-20 6-17 9-16 7-9 8-10-1-5-4-6-12-14-9-11-6-10-6-15-2-8v-28l3-11 5-12 9-12 8-8 9-6 15-6 7-1h12l24 2h29l13-4 10-5 10-8 10-7 5-2zm0 60-5 5-1 11 3 16 5 12 3 3h12l2-5v-14l-3-14-4-9-5-5zm-101 41-8 2-12 6-5 4-3 6 1 1 9-1 15-4 13-1 16 4 12 5 2-1-1-5-7-8-14-7-6-1zm112 22-4 6v9l2 4 3 2h5l4-4 1-3v-8l-4-6zm-97 4-11 4-7 6-1 3 5 1 9-3 6-1h21l-1-5-8-4-4-1zm62 11-4 3v6l4 5 3 2h10l3-3v-6l-5-5-4-2z" fill="#fff"/>
<path transform="translate(289)" d="m0 0h31l15 4 16 8 10 8 20 20 9-3 16-6 21-6 20-4 18-2h21l20 3 17 5 15 8 9 7 9 9 8 13 5 13 2 10v23l-3 15-6 18-8 16-10 17-11 14-1 5 8 15 6 16 4 16 2 13 1 19v19l11 3 18 8 11 6 9 7 9 9 9 14 5 15 1 5v20l-3 13-3 9 3 8 9 7 8 9 7 14 3 16v19l-3 21-6 23-7 19-8 16-10 18-8 11-7 9-11 13-15 15h-2v2l-10 8-15 11-13 8-14 8-23 10-27 9-26 6-22 3-8 1h-56l-23-3-25-5-24-7-25-10-16-8-19-11-17-12-13-11-10-9-11-11-9-11-8-10-10-15-11-19-24-7-21-10-14-10-13-12-8-9-9-13-8-16-5-15-3-18v-23l2-17-11-10-3-2v-2h-2l-9-13-6-13-4-17v-28l4-21 6-19 8-20 9-19 12-21 9-14 13-19 9-12 10-13 11-13 9-10 7-8 12-13 16-16h2v-2l8-7 11-10 11-9 14-11 14-10 14-9 17-10 15-8 23-9 14-4zm9 23-17 3-16 5-19 8-23 13-22 15-13 10-16 13-13 12-8 7-25 25-7 8-10 11-9 11-14 18-12 17-15 23-12 22-10 21-8 22-4 16-1 8v24l3 13 6 11 8 9 11 9 8 7h2l-1 9-3 11-1 9v20l3 17 6 15 7 11 8 10 12 12 15 10 13 6 16 5 17 2 9 19 11 18 10 13 9 11 19 19 14 11 11 8 13 8 23 12 23 9 21 6 26 5 17 2 13 1h28l24-2 24-4 23-6 22-8 27-13 11-7 14-10 14-12 9-8v-2h2l7-8 11-14 11-17 8-14 8-19 7-25 3-17v-22l-4-13-4-6h-2v-2l-6-4-7-2-6-20-3-7 1-5 5-10 2-7v-18l-4-11-6-9-3-4h-2v-2l-14-9-18-8-20-6h-5l-1-45-2-19-4-16-6-15-6-11-8-10-3-4 7-8 11-13 12-18 10-19 5-15 2-11v-19l-2-8-4-9-8-11-11-8-11-5-16-4-8-1h-23l-22 3-23 6-20 7-22 9-7-6-9-9-8-7-12-12-10-6-13-4-6-1z" fill="#fff"/>
<path transform="translate(860,262)" d="m0 0h21l16 5 9 6 5 4 7 9 4 8 3 11 2 15 3-1 9-21 9-14 11-11 10-6 10-4 5-1h22l15 4 12 6 10 9 7 10 7 15 4 17 2 20v130h-75l-1-119-2-14-5-10-5-3-9-1-6 3-6 8-4 9-3 16-1 111h-76l-1-120-2-15-4-8-5-3-10-1-7 4-6 9-5 16-1 8-1 110h-76v-206l5-1h49l3 3v26l-6 26 5-3 5-12 8-16 8-10 8-8 10-6z" fill="#fff"/>
<path transform="translate(2128,262)" d="m0 0h20l15 4 11 7 8 8 6 10 4 11 2 19 3-1 8-19 8-14 12-13 13-8 13-4h22l16 4 13 7 12 12 6 10 6 17 3 15 1 10v136h-75l-1-124-2-10-4-8-5-4-9-1-8 4-6 10-4 12-2 15-1 106h-76l-1-126-2-10-4-7-5-3-9-1-8 4-6 10-4 12-2 15-1 106h-75v-207h54l2 1 1 9v11l-2 15-4 14v4l4-1 8-19 7-12 8-10 8-7 13-7z" fill="#fff"/>
<path transform="translate(2467,262)" d="m0 0h23l16 4 16 8 9 7v2h2v2h2l8 11 8 16 5 14 3 16 1 7v41l-2 15-5 17-5 13-8 13-7 9-14 11-13 6-11 3-8 1h-16l-12-3-10-5-10-8-3-3v-2h-2l-4-6-1 79h-76v-263l4-1h51l2 6v20l-3 16-3 13 4-2 7-16 9-14 9-10 7-6 10-6 12-4zm-12 63-8 3-7 6-6 10-4 12-2 12v17l3 16 5 13 6 8 8 5 3 1h11l8-4 5-5 5-10 3-13 1-12v-14l-2-17-4-13-6-8-5-4-4-2z" fill="#fff"/>
<path transform="translate(1701,204)" d="m0 0h64l3 8 1 13v22l-2 22-3 18-5 19-3 11v3l4-2 8-17 7-11 7-9h2v-2l12-9 13-6 9-2h22l16 4 10 5 10 9 7 9 5 10 4 12 3 17 1 7v138h-75l-1-120-2-14-4-8-6-4-9-1-8 3-6 7-5 11-3 14-1 112h-76v-268z" fill="#fff"/>
<path transform="translate(1171,262)" d="m0 0h33l16 3 13 5 11 6 12 11 8 10 8 17 5 18 3 20v121h-58l-2-12v-40l-4 1-8 19-7 11-11 11-9 6-8 4-13 4-7 1h-20l-16-4-14-7-10-8-7-10-4-8-3-10-1-17 2-15 5-14 7-11 3-4h2l1-3 13-9 13-6 14-4 13-2 9-1h25l19 2-1-11-3-6-1-3-4-2-8-3-4-1h-21l-15 3-20 6-21 9-15 7-1-5v-55l2-4 11-5 22-7 23-5zm-1 128-12 3-9 6-3 4-1 4v9l3 6 6 3 8 1 14-3 10-6 3-2v-2h2v-2h2l8-11 4-9v-1z" fill="#fff"/>
<path transform="translate(301,45)" d="m0 0h12l10 3 8 6v2l4 2v2h2v2h2v2h2l7 8 6 7-1 3-14 8-19 12-19 13-14 10-13 10-10 8-16 13-10 9-8 7-14 14-1 2h-2l-2 4-9 10-8 10-11 15-9 13-13 21-12 22-12 25-11 26-8 3-14 5-14 9-10 9-6 8-5-2-8-8-8-7-5-8-3-11v-17l5-23 10-26 8-16 13-23 18-27 12-16 8-10 11-13 11-12 9-10 11-11h2v-2h2v-2l8-7 3-1v-2l11-9 15-12 18-13 21-13 17-9 20-8 16-4z" fill="#fff"/>
<path transform="translate(1586,262)" d="m0 0h32l19 3 17 5 12 5 10 7 1 1v72l-4-1-21-10-21-6-16-2h-13l-15 3-9 4-6 4h-2l-2 4-5 8-2 7v9l2 8 4 7 9 8 10 4 9 2h27l18-4 15-6 19-10 3-1v69l-7 6-16 9-16 6-16 4-9 1h-25l-13-2-18-5-17-9-10-8-10-10-10-15-7-16-4-15-2-12v-37l3-15 6-18 6-11 10-13 7-7 13-9 15-7 17-5z" fill="#fff"/>
<path transform="translate(1403,204)" d="m0 0h74l1 1v268h-76v-268z" fill="#fff"/>
<path transform="translate(1920,267)" d="m0 0 9 3 17 3h23l16-3 10-3 1 1v205h-76z" fill="#fff"/>
<path transform="translate(1303,267)" d="m0 0 10 3 8 2 9 1h22l13-2 12-4h2v206h-76z" fill="#fff"/>
<path transform="translate(136,355)" d="m0 0h13l11 3 14 7 8 7v2h2l7 10 5 10 4 13 3 19v17l-3 17-5 13-7 10-7 7-10 5-12 3h-12l-16-4-16-8-8-6-10-9-10-14-6-15-2-13v-13l3-16 5-12 7-11 7-7 10-7 12-5zm1 26-9 2-8 5-7 8-5 12-1 12 2 4 4-1 3-4 4-10 5-6 7-3h8l8 4 4 5 2 5v7l-4 15v11l3 8 5 5 6 3h7l6-3 3-3-1-4h-11l-5-3-1-2v-9l6-15 2-9v-8l-4-11-9-10-9-4z" fill="#fff"/>
<path transform="translate(1950,202)" d="m0 0h15l16 4 10 5 7 6 4 6 2 6v7l-4 9-6 7-10 6-12 4-5 1h-18l-14-3-13-7-7-7-4-9v-9l5-10 9-8 11-5z" fill="#fff"/>
<path transform="translate(1333,202)" d="m0 0h15l14 3 14 7 7 7 4 8v11l-4 8-5 5-8 6-14 5-6 1h-18l-16-4-12-7-7-8-2-5v-13l5-8 7-7 13-6z" fill="#fff"/>
<path transform="translate(387,133)" d="m0 0h10l-2 4-9 9 24 4 18 5 16 7 1 4-12-1-20-3h-45l-20 3-21 5-27 9-19 8-19 11-10 7h-3l1-4 7-8 22-22 11-9 4-3h2v-2l18-12 14-8h3l-1 5-6 15 10-6 17-8 21-7z" fill="#fff"/>
</svg>
