<?xml version="1.0" encoding="UTF-8"?>
<svg version="1.1" xmlns="http://www.w3.org/2000/svg" width="1280" height="240">
<path d="M0 0 C0 15.18 0 30.36 0 46 C2.97 46 5.94 46 9 46 C26.42148797 49.06589333 40.38447089 57.72181436 50.9375 71.9375 C60.62128246 86.79383944 63.74743593 104.70876813 60.3125 122.09375 C57.01258657 134.52342394 51.0225739 143.94543116 42 153 C41.45859375 153.56460938 40.9171875 154.12921875 40.359375 154.7109375 C29.50198655 165.07480829 14.50367539 169 0 169 C0 184.18 0 199.36 0 215 C-30.29599825 215 -55.83826278 205.14795115 -77.6875 183.75 C-97.49815368 163.69999556 -108.45855718 136.42016006 -108.3125 108.3125 C-108.30686035 107.16982666 -108.3012207 106.02715332 -108.29541016 104.84985352 C-107.87977375 75.76147763 -96.13145027 50.70431906 -76.25 29.8125 C-55.25425778 9.63434899 -28.90556985 0 0 0 Z M-42.93774414 63.74243164 C-54.86239008 75.66707758 -61.06579777 90.34984754 -61.375 107.125 C-61.3266081 124.06588655 -55.10011266 138.39362067 -43.44140625 150.68359375 C-31.31953674 162.18482354 -17.64103338 168 -1 168 C-1 128.07 -1 88.14 -1 47 C-17.12752379 47 -31.25363906 52.60592986 -42.93774414 63.74243164 Z " fill="#00CC66" transform="translate(108,0)"/>
<path d="M0 0 C12.18027971 10.41927541 19.84804214 23.88891056 21.40625 39.96875 C22.56247577 57.45666481 18.6996019 73.92236782 7.03125 87.40625 C-7.95850993 102.8250098 -27.87005434 109.90618843 -49.21899414 110.21020508 C-71.36860484 110.27750574 -93.34405994 106.01058821 -109.96875 90.15625 C-122.2311185 77.16678594 -127.18228251 61.21857286 -126.8359375 43.57421875 C-125.6465894 25.86827848 -118.39893657 11.95657006 -105.4765625 0.01171875 C-77.70654756 -23.3334037 -27.95685412 -21.8939219 0 0 Z M-79.765625 21.82421875 C-87.06739929 29.64086174 -89.96103596 38.75117604 -89.8046875 49.2890625 C-89.09235905 58.3382721 -85.31554199 66.40942827 -78.77734375 72.72265625 C-70.54591784 79.35768441 -61.12215874 82.2761488 -50.59375 81.96875 C-39.95996658 80.74268185 -30.64888647 77.62239134 -23.21875 69.65625 C-16.79461924 61.44864951 -14.78868216 52.1960933 -15.59375 41.96875 C-17.19416162 33.09867203 -21.25556758 25.40060919 -28.28125 19.65625 C-43.86673312 8.98937942 -65.2260549 9.40282343 -79.765625 21.82421875 Z " fill="#000000" transform="translate(534.59375,61.03125)"/>
<path d="M0 0 C19.3359375 -0.061875 19.3359375 -0.061875 39.0625 -0.125 C43.10250244 -0.14320801 47.14250488 -0.16141602 51.30493164 -0.18017578 C56.31530762 -0.18920898 56.31530762 -0.18920898 58.67576599 -0.19088745 C60.29178475 -0.1939183 61.90779958 -0.20086634 63.52378845 -0.21115112 C82.46572909 -0.32546635 103.39546093 0.07156647 118.0390625 13.9296875 C124.63367257 21.59066005 127.76996877 31.59748002 127.25 41.671875 C126.07325067 52.63035316 121.92098892 61.40669863 113.2109375 68.46484375 C107.4563345 72.46053099 101.96113267 75.05167178 95 76 C99.77879821 82.01774589 104.61512393 87.77359711 110.125 93.1328125 C112.48542025 95.48339767 114.62820134 97.98193201 116.79296875 100.51171875 C118.6776998 102.63662792 120.59822152 104.70745376 122.55078125 106.76953125 C123.18806152 107.44363037 123.8253418 108.11772949 124.48193359 108.81225586 C125.77635875 110.17762392 127.07481434 111.53918324 128.37744141 112.89672852 C128.97347168 113.52635498 129.56950195 114.15598145 130.18359375 114.8046875 C130.72556396 115.37171387 131.26753418 115.93874023 131.82592773 116.52294922 C133 118 133 118 133 120 C127.68450825 120.35003238 122.37589727 120.60177484 117.05151367 120.76904297 C115.24759002 120.83882663 113.44444018 120.93391342 111.64331055 121.05615234 C95.89547306 122.09697026 95.89547306 122.09697026 89.95483398 116.96411133 C87.07961681 114.0591343 84.56672264 110.94025023 82.17935181 107.62658691 C80.72092849 105.61509869 79.10634757 103.77620011 77.4375 101.9375 C76.92445313 101.34195313 76.41140625 100.74640625 75.8828125 100.1328125 C72.74420917 96.57746516 69.50074734 93.11767302 66.26147461 89.65405273 C65.7691333 89.12497314 65.27679199 88.59589355 64.76953125 88.05078125 C64.28274902 87.53878174 63.7959668 87.02678223 63.29443359 86.49926758 C62 85 62 85 60.40234375 82.15625 C56.27496614 78.45167693 51.08697149 79.21683567 45.75 79.1875 C39.93375 79.0946875 39.93375 79.0946875 34 79 C34 92.53 34 106.06 34 120 C22.78 120 11.56 120 0 120 C0 80.4 0 40.8 0 0 Z M34 25 C34 34.9 34 44.8 34 55 C39.78084876 55.09237042 45.55908617 55.17184284 51.34008789 55.21972656 C53.30209074 55.23970918 55.26403505 55.26690484 57.22583008 55.30175781 C73.76664529 55.94348174 73.76664529 55.94348174 88.75195312 49.76416016 C91.7216134 46.89045829 92.38167 43.95262884 92.625 40 C92.43608132 36.60456968 91.99085946 34.29803868 89.9375 31.5625 C82.48372874 25.060274 74.05453114 24.8449174 64.6640625 24.90234375 C63.34503433 24.90446617 63.34503433 24.90446617 61.99935913 24.90663147 C59.20787058 24.91220123 56.41646406 24.9247481 53.625 24.9375 C51.72526158 24.94251891 49.8255219 24.94708113 47.92578125 24.95117188 C43.28379761 24.96130721 38.64198997 24.98088842 34 25 Z " fill="#000000" transform="translate(601,48)"/>
<path d="M0 0 C37.95 0 75.9 0 115 0 C115 8.58 115 17.16 115 26 C87.94 26 60.88 26 33 26 C33 33.26 33 40.52 33 48 C53.13 48 73.26 48 94 48 C94 55.59 94 63.18 94 71 C73.87 71 53.74 71 33 71 C33 78.92 33 86.84 33 95 C60.06 95 87.12 95 115 95 C115 103.25 115 111.5 115 120 C77.05 120 39.1 120 0 120 C0 80.4 0 40.8 0 0 Z " fill="#000000" transform="translate(946,48)"/>
<path d="M0 0 C5.67391402 -0.2486713 11.34460947 -0.42931269 17.02270508 -0.54931641 C18.95035079 -0.59936835 20.87762132 -0.66743798 22.80395508 -0.75439453 C38.78402353 -1.45726947 38.78402353 -1.45726947 44.17529297 2.08813477 C46.46135955 4.61596523 48.21792804 7.10224668 50 10 C51.39641726 11.74556027 52.81110535 13.47678553 54.25 15.1875 C54.97703125 16.08726563 55.7040625 16.98703125 56.453125 17.9140625 C60.10639234 22.38678214 63.93421187 26.71294025 67.74707031 31.04956055 C68.28428711 31.66355713 68.82150391 32.27755371 69.375 32.91015625 C69.85710937 33.45808838 70.33921875 34.00602051 70.8359375 34.57055664 C72 36 72 36 73 38 C76.70016395 36.76661202 77.54703034 35.36179556 79.9375 32.3125 C83.95956244 27.27186331 88.0911078 22.35232801 92.31030273 17.47583008 C92.77380127 16.93853271 93.2372998 16.40123535 93.71484375 15.84765625 C94.22982422 15.27837402 94.74480469 14.7090918 95.27539062 14.12255859 C97.14281464 11.92163463 97.14281464 11.92163463 98.88085938 8.91259766 C104.31682791 0.77426546 104.31682791 0.77426546 109.1590271 -0.62301636 C115.30545809 -1.49554503 121.4503967 -1.09478031 127.625 -0.75 C129.50633953 -0.68971935 131.38786528 -0.63498179 133.26953125 -0.5859375 C137.85100053 -0.4545452 142.42342598 -0.24807003 147 0 C145.13441041 4.0249218 142.46824058 6.93669654 139.4375 10.125 C138.34323607 11.29248727 137.24949015 12.46046026 136.15625 13.62890625 C135.61742187 14.2027002 135.07859375 14.77649414 134.5234375 15.36767578 C132.46517852 17.5730475 130.44883186 19.81432652 128.4375 22.0625 C125.14946199 25.73107044 121.83318682 29.37247174 118.5 33 C110.91541111 41.25807302 103.43780278 49.60967206 96 58 C97.35172847 62.08379341 99.06936242 64.37683519 102.1875 67.3125 C105.01391364 70.04469985 107.75192737 72.76686981 110.3125 75.75 C113.41979672 79.36917159 116.6320231 82.8779394 119.875 86.375 C124.1908763 91.03184921 128.46791314 95.71901342 132.69921875 100.453125 C134.41651427 102.35410408 136.14651799 104.23703566 137.89453125 106.109375 C138.38945068 106.64167725 138.88437012 107.17397949 139.39428711 107.72241211 C140.35368821 108.75268076 141.3165374 109.77975357 142.28344727 110.80297852 C144.9695316 113.69360451 147.02434505 116.5966898 149 120 C143.23881451 120.32428735 137.48305532 120.55851133 131.71484375 120.71411133 C129.7588237 120.77902207 127.80342299 120.86739828 125.84960938 120.98071289 C108.74254343 121.94713967 108.74254343 121.94713967 103.08813477 117.19116211 C99.97870782 114.06262743 97.49510832 110.62914816 95 107 C93.83328572 105.62788434 92.65183034 104.26765993 91.4375 102.9375 C90.91285156 102.33164063 90.38820313 101.72578125 89.84765625 101.1015625 C87.39081118 98.30709602 84.88654684 95.55779559 82.375 92.8125 C81.91923584 92.31290771 81.46347168 91.81331543 80.99389648 91.29858398 C78.07255855 88.11432034 75.07398341 85.03514246 72 82 C71.61070313 82.44988281 71.22140625 82.89976562 70.8203125 83.36328125 C67.26208398 87.45442418 63.6539724 91.49403944 60 95.5 C56.55482024 99.27774614 53.15494133 103.08682764 49.80078125 106.9453125 C40.90769231 117.09230769 40.90769231 117.09230769 38 120 C35.04294679 120.08868299 32.10934944 120.11520296 29.15234375 120.09765625 C27.82270348 120.09553383 27.82270348 120.09553383 26.46620178 120.09336853 C23.62326746 120.08775215 20.78041069 120.07519691 17.9375 120.0625 C16.01497509 120.05748711 14.09244896 120.05292384 12.16992188 120.04882812 C7.44658451 120.03777741 2.72330542 120.02050183 -2 120 C-0.6094672 116.88840849 1.02337417 114.69566991 3.37890625 112.2421875 C4.04825195 111.53932617 4.71759766 110.83646484 5.40722656 110.11230469 C6.47408691 109.00483887 6.47408691 109.00483887 7.5625 107.875 C9.02813931 106.33669509 10.49298897 104.79763742 11.95703125 103.2578125 C13.01204834 102.15034668 13.01204834 102.15034668 14.08837891 101.02050781 C17.05616306 97.88367746 19.93133036 94.66827963 22.8046875 91.4453125 C25.46734165 88.47943795 28.16876842 85.55107272 30.875 82.625 C31.62946411 81.80757324 31.62946411 81.80757324 32.39916992 80.97363281 C34.95940748 78.20089512 37.52673036 75.43523038 40.10546875 72.6796875 C41.09119235 71.61983493 42.07687122 70.55994075 43.0625 69.5 C43.94035156 68.5615625 44.81820313 67.623125 45.72265625 66.65625 C47.82104827 64.20872586 49.44444603 61.81529769 51 59 C46.30527944 53.52833625 41.45154552 48.21545869 36.55249023 42.92773438 C31.9858611 37.9954613 27.48343785 33.00800827 23 28 C17.07792986 21.39369098 17.07792986 21.39369098 11.09375 14.84375 C10.60052246 14.30862793 10.10729492 13.77350586 9.59912109 13.22216797 C8.64018281 12.18318582 7.67965337 11.14566923 6.71728516 10.10986328 C0 2.8321899 0 2.8321899 0 0 Z " fill="#000000" transform="translate(1096,48)"/>
<path d="M0 0 C0.68758392 -0.00261841 1.37516785 -0.00523682 2.08358765 -0.00793457 C18.04863112 -0.01443452 31.39680744 2.34622298 46.3125 8.3125 C46.3125 18.2125 46.3125 28.1125 46.3125 38.3125 C41.02117247 36.54872416 35.95251618 34.8202843 30.8125 32.75 C14.07916519 26.32300981 -5.17642795 24.97020723 -22.125 31.5625 C-31.92020491 36.04482796 -38.67331489 41.89364159 -42.86328125 51.9296875 C-45.75073195 60.27729379 -45.03863328 68.96270821 -41.49609375 77.0234375 C-35.93225181 87.12021878 -27.50407419 91.9041859 -16.6875 95.3125 C4.57233025 99.80663717 25.05984162 96.02581409 44.3125 86.3125 C44.9725 86.3125 45.6325 86.3125 46.3125 86.3125 C46.3125 96.2125 46.3125 106.1125 46.3125 116.3125 C30.8420045 121.83767696 17.98577764 124.85167174 1.83032227 124.70361328 C-0.25375455 124.68747092 -2.33590132 124.70361518 -4.41992188 124.72265625 C-26.33171239 124.7575525 -47.18120326 118.8097714 -63.4296875 103.60546875 C-74.34343885 92.52178009 -79.41922978 78.70797251 -79.9375 63.25 C-79.70046142 47.47615969 -74.08543687 32.8493895 -63.0546875 21.484375 C-45.29134858 5.1866581 -23.46804846 0.08517714 0 0 Z " fill="#000000" transform="translate(314.6875,45.6875)"/>
<path d="M0 0 C44.22 0 88.44 0 134 0 C134 8.91 134 17.82 134 27 C117.5 27 101 27 84 27 C84 57.69 84 88.38 84 120 C72.78 120 61.56 120 50 120 C50 89.31 50 58.62 50 27 C33.5 27 17 27 0 27 C0 18.09 0 9.18 0 0 Z " fill="#000000" transform="translate(766,48)"/>
<path d="M0 0 C2.64 0 5.28 0 8 0 C8.99 3.96 9.98 7.92 11 12 C12.32 8.04 13.64 4.08 15 0 C17.64 0 20.28 0 23 0 C24.32 3.96 25.64 7.92 27 12 C27.99 8.04 28.98 4.08 30 0 C32.64 0 35.28 0 38 0 C37.354523 7.90709331 35.13002861 15.39133967 33 23 C29.37 23 25.74 23 22 23 C21.34 19.7 20.68 16.4 20 13 C19.34 13 18.68 13 18 13 C17.34 16.3 16.68 19.6 16 23 C12.37 23 8.74 23 5 23 C4.16059992 19.91820258 3.32828078 16.83478625 2.5 13.75 C2.26152344 12.87730469 2.02304687 12.00460938 1.77734375 11.10546875 C1.55175781 10.26113281 1.32617188 9.41679687 1.09375 8.546875 C0.88427734 7.77182617 0.67480469 6.99677734 0.45898438 6.19824219 C0 4 0 4 0 0 Z " fill="#808080" transform="translate(652,216)"/>
<path d="M0 0 C8 0 8 0 10.53125 2.1875 C11.1809375 3.115625 11.830625 4.04375 12.5 5 C13.1703125 5.928125 13.840625 6.85625 14.53125 7.8125 C15.0159375 8.534375 15.500625 9.25625 16 10 C16.33 6.7 16.66 3.4 17 0 C19.31 0 21.62 0 24 0 C24 7.59 24 15.18 24 23 C16 23 16 23 13.6875 21.03125 C12.8521875 19.77828125 12.8521875 19.77828125 12 18.5 C11.4225 17.6646875 10.845 16.829375 10.25 15.96875 C9.8375 15.3190625 9.425 14.669375 9 14 C8.67 16.97 8.34 19.94 8 23 C5.36 23 2.72 23 0 23 C0 15.41 0 7.82 0 0 Z " fill="#808080" transform="translate(568,216)"/>
<path d="M0 0 C2.8875 -0.061875 5.775 -0.12375 8.75 -0.1875 C9.65331055 -0.21481201 10.55662109 -0.24212402 11.48730469 -0.27026367 C14.99024032 -0.30667103 17.39551852 -0.30500514 20.5625 1.29296875 C22.8538487 4.01394533 22.24449898 6.57701431 22 10 C21.88605777 13.01596918 21.88605777 13.01596918 22.6875 15.9375 C23 19 23 19 21.8112793 21.16699219 C20 23 20 23 17.82348633 23.45410156 C17.00130615 23.4331543 16.17912598 23.41220703 15.33203125 23.390625 C14.52741455 23.38063477 13.72279785 23.37064453 12.89379883 23.36035156 C11.36855591 23.30572754 11.36855591 23.30572754 9.8125 23.25 C6.574375 23.1675 3.33625 23.085 0 23 C0 15.41 0 7.82 0 0 Z M7 6 C7 6.99 7 7.98 7 9 C9.31 9 11.62 9 14 9 C14 8.01 14 7.02 14 6 C11.69 6 9.38 6 7 6 Z M7 14 C7 14.99 7 15.98 7 17 C9.64 17 12.28 17 15 17 C14.67 16.01 14.34 15.02 14 14 C11.69 14 9.38 14 7 14 Z " fill="#808080" transform="translate(254,216)"/>
<path d="M0 0 C2.701875 -0.061875 5.40375 -0.12375 8.1875 -0.1875 C9.02949951 -0.21481201 9.87149902 -0.24212402 10.73901367 -0.27026367 C15.27453146 -0.32040074 18.40342181 -0.08677196 22 3 C23.26585987 7.82609075 23.46347573 9.87153736 21.5625 14.5 C20.7890625 15.7375 20.7890625 15.7375 20 17 C21.98 19.97 21.98 19.97 24 23 C20.7 23 17.4 23 14 23 C13.34 21.35 12.68 19.7 12 18 C10.68 18 9.36 18 8 18 C8 19.65 8 21.3 8 23 C5.36 23 2.72 23 0 23 C0 15.41 0 7.82 0 0 Z M8 7 C8 8.32 8 9.64 8 11 C9.98 11 11.96 11 14 11 C14 9.68 14 8.36 14 7 C12.02 7 10.04 7 8 7 Z " fill="#808080" transform="translate(726,216)"/>
<path d="M0 0 C1.01964844 -0.01675781 2.03929687 -0.03351563 3.08984375 -0.05078125 C6.52028245 0.3684445 8.33396596 1.21034247 11.0625 3.3125 C13.94401893 7.53405661 13.83622581 12.39934111 13.0625 17.3125 C11.17549112 20.93410551 8.99446733 23.00184422 5.0625 24.3125 C0.48323361 24.71609636 -3.60748677 24.87846308 -7.875 23.0625 C-10.72745207 20.64223764 -12.70935475 18.68808162 -13.3359375 14.91015625 C-13.25451891 6.10337875 -13.25451891 6.10337875 -9.9375 2.3125 C-6.62911059 0.20851303 -3.88149991 0.01468411 0 0 Z M-4.9375 8.3125 C-6.04818406 11.32721387 -6.22719442 12.68198861 -4.875 15.625 C-2.97477981 17.59818869 -2.97477981 17.59818869 0.125 17.6875 C3.18111241 17.60180236 3.18111241 17.60180236 5.0625 15.3125 C5.47916667 11.8125 5.47916667 11.8125 5.0625 8.3125 C0.96336392 5.57974261 -0.83836392 5.57974261 -4.9375 8.3125 Z " fill="#808080" transform="translate(706.9375,215.6875)"/>
<path d="M0 0 C1.01964844 -0.01675781 2.03929687 -0.03351563 3.08984375 -0.05078125 C6.52028245 0.3684445 8.33396596 1.21034247 11.0625 3.3125 C13.94401893 7.53405661 13.83622581 12.39934111 13.0625 17.3125 C11.17549112 20.93410551 8.99446733 23.00184422 5.0625 24.3125 C0.48323361 24.71609636 -3.60748677 24.87846308 -7.875 23.0625 C-10.72745207 20.64223764 -12.70935475 18.68808162 -13.3359375 14.91015625 C-13.25451891 6.10337875 -13.25451891 6.10337875 -9.9375 2.3125 C-6.62911059 0.20851303 -3.88149991 0.01468411 0 0 Z M-4.9375 8.3125 C-5.9521239 10.1189655 -5.9521239 10.1189655 -5.9375 12.3125 C-5.01726712 15.15178533 -5.01726712 15.15178533 -2.9375 17.3125 C0.0625 18.0625 0.0625 18.0625 3.0625 17.3125 C5.22916667 15.8125 5.22916667 15.8125 6.0625 13.3125 C5.35026153 10.09075456 5.35026153 10.09075456 4.0625 7.3125 C-0.67826549 6.12551999 -0.67826549 6.12551999 -4.9375 8.3125 Z " fill="#808080" transform="translate(536.9375,215.6875)"/>
<path d="M0 0 C3.23307772 1.61956043 5.36183145 3.7236629 7 7 C7.43281664 11.23660902 7.44858706 14.91394711 5.8125 18.875 C3.05821098 22.10416644 0.94205059 23.76644202 -3.37109375 24.28515625 C-8.35842771 24.45560006 -12.04600779 24.35490248 -16 21 C-19.58210461 17.0325345 -19.5540892 13.81321158 -19.4296875 8.63671875 C-19 6 -19 6 -16.625 2.875 C-11.38647079 -0.86680658 -6.31169693 -0.75707447 0 0 Z M-10.3125 7.6875 C-12.28087944 9.87722477 -12.28087944 9.87722477 -11.875 12.625 C-11.13532087 15.14405125 -11.13532087 15.14405125 -9 17 C-6 17.33333333 -6 17.33333333 -3 17 C-0.70172688 15.12061828 -0.70172688 15.12061828 -0.6875 12.0625 C-0.75352791 9.05325956 -0.75352791 9.05325956 -2.25 7.125 C-5.35611708 5.12821045 -7.45724592 5.60393621 -10.3125 7.6875 Z " fill="#808080" transform="translate(422,216)"/>
<path d="M0 0 C6.93 0 13.86 0 21 0 C21 2.31 21 4.62 21 7 C16.71 7 12.42 7 8 7 C8 7.66 8 8.32 8 9 C11.3 9 14.6 9 18 9 C18 10.98 18 12.96 18 15 C14.7 15 11.4 15 8 15 C8 15.66 8 16.32 8 17 C12.29 17 16.58 17 21 17 C21 18.98 21 20.96 21 23 C14.07 23 7.14 23 0 23 C0 15.41 0 7.82 0 0 Z " fill="#808080" transform="translate(599,216)"/>
<path d="M0 0 C1.70736328 0.03673828 1.70736328 0.03673828 3.44921875 0.07421875 C6.3125 0.3125 6.3125 0.3125 8.3125 1.3125 C8.3125 3.6225 8.3125 5.9325 8.3125 8.3125 C2.3725 7.3225 2.3725 7.3225 -3.6875 6.3125 C-3.6875 6.9725 -3.6875 7.6325 -3.6875 8.3125 C-3.09582031 8.33828125 -2.50414062 8.3640625 -1.89453125 8.390625 C2.08337084 8.67615141 4.83798371 9.05103184 8.375 11 C10.3125 13.3125 10.3125 13.3125 10.8125 16.3125 C10.26948679 19.57057925 9.63123852 20.99376148 7.3125 23.3125 C4.27728606 24.32423798 2.11516921 24.47823514 -1.0625 24.5 C-2.46628906 24.52126953 -2.46628906 24.52126953 -3.8984375 24.54296875 C-6.84868154 24.29918108 -9.01114112 23.54362508 -11.6875 22.3125 C-11.6875 20.0025 -11.6875 17.6925 -11.6875 15.3125 C-10.78257812 15.5290625 -10.78257812 15.5290625 -9.859375 15.75 C-9.06015625 15.935625 -8.2609375 16.12125 -7.4375 16.3125 C-6.64859375 16.498125 -5.8596875 16.68375 -5.046875 16.875 C-2.43193998 17.43404828 -2.43193998 17.43404828 1.3125 17.3125 C0.70921875 17.13074219 0.1059375 16.94898438 -0.515625 16.76171875 C-9.54381068 13.92220874 -9.54381068 13.92220874 -11.6875 11.3125 C-12.25 7.875 -12.25 7.875 -11.6875 4.3125 C-7.94284343 0.4158463 -5.3158811 -0.1757817 0 0 Z " fill="#808080" transform="translate(794.6875,215.6875)"/>
<path d="M0 0 C3.96 0 7.92 0 12 0 C20 19.71428571 20 19.71428571 20 23 C17.36 23 14.72 23 12 23 C11.67 21.68 11.34 20.36 11 19 C8.03 19 5.06 19 2 19 C1.67 20.32 1.34 21.64 1 23 C-1.64 23 -4.28 23 -7 23 C-5.48526781 15.01323028 -2.83197448 7.59877122 0 0 Z M6 7 C5.34 8.98 4.68 10.96 4 13 C5.32 13 6.64 13 8 13 C7.67 11.02 7.34 9.04 7 7 C6.67 7 6.34 7 6 7 Z " fill="#808080" transform="translate(355,216)"/>
<path d="M0 0 C3.96 0 7.92 0 12 0 C13.17029422 3.45714465 14.33638613 6.91560742 15.5 10.375 C15.83386719 11.35984375 16.16773438 12.3446875 16.51171875 13.359375 C16.82753906 14.30039063 17.14335937 15.24140625 17.46875 16.2109375 C17.90864258 17.51490479 17.90864258 17.51490479 18.35742188 18.84521484 C19 21 19 21 19 23 C16.36 23 13.72 23 11 23 C10.67 21.68 10.34 20.36 10 19 C7.03 19 4.06 19 1 19 C0.67 20.32 0.34 21.64 0 23 C-2.64 23 -5.28 23 -8 23 C-6.0524756 14.9565659 -3.30316087 7.58834255 0 0 Z M5 7 C4.34 8.98 3.68 10.96 3 13 C4.65 13 6.3 13 8 13 C7.34 11.02 6.68 9.04 6 7 C5.67 7 5.34 7 5 7 Z " fill="#808080" transform="translate(453,216)"/>
<path d="M0 0 C2.7225 -0.04125 5.445 -0.0825 8.25 -0.125 C9.10110352 -0.14320801 9.95220703 -0.16141602 10.82910156 -0.18017578 C17.96402213 -0.23256388 17.96402213 -0.23256388 21 2 C22.83477551 5.05795918 23.00042008 6.97605517 22.9375 10.5625 C22 14 22 14 20 16.4375 C15.92625304 18.55924321 12.50172909 18.35307679 8 18 C8 19.65 8 21.3 8 23 C5.36 23 2.72 23 0 23 C0 15.41 0 7.82 0 0 Z M8 7 C8 8.65 8 10.3 8 12 C11.465 11.505 11.465 11.505 15 11 C14.67 9.68 14.34 8.36 14 7 C12.02 7 10.04 7 8 7 Z " fill="#808080" transform="translate(323,216)"/>
<path d="M0 0 C2.31 0 4.62 0 7 0 C7 2.64 7 5.28 7 8 C10.45695005 6.84768332 10.4836482 6.44664496 12.125 3.4375 C13.39453125 1.5234375 13.39453125 1.5234375 15 0 C18.08261825 -0.61134278 20.89952901 -0.42555484 24 0 C22.67855892 2.79108116 21.19617639 5.25786389 19.375 7.75 C18.92898438 8.36359375 18.48296875 8.9771875 18.0234375 9.609375 C17.51683594 10.29773438 17.51683594 10.29773438 17 11 C17.5775 11.86625 18.155 12.7325 18.75 13.625 C21.875 18.3125 21.875 18.3125 25 23 C21.57195219 23.42681228 18.41332602 23.60115294 15 23 C12.95201221 21.38316753 11.64083702 19.76515792 10.15625 17.62890625 C9.08206126 15.84499002 9.08206126 15.84499002 7 15 C7 17.64 7 20.28 7 23 C4.69 23 2.38 23 0 23 C0 15.41 0 7.82 0 0 Z " fill="#808080" transform="translate(755,216)"/>
<path d="M0 0 C3.07423183 -0.35471906 5.94008528 -0.52666346 9 0 C13 4.48780488 13 4.48780488 13 8 C13.66 8 14.32 8 15 8 C15.28875 7.236875 15.5775 6.47375 15.875 5.6875 C17 3 17 3 19 0 C21.1640625 -0.29296875 21.1640625 -0.29296875 23.625 -0.1875 C24.44226563 -0.16042969 25.25953125 -0.13335937 26.1015625 -0.10546875 C27.04128906 -0.05326172 27.04128906 -0.05326172 28 0 C27.06652642 1.75215106 26.1280468 3.50163563 25.1875 5.25 C24.66542969 6.22453125 24.14335937 7.1990625 23.60546875 8.203125 C22 11 22 11 20.34375 13.09375 C18.81801428 15.25816579 18.53038704 16.63535547 18.3125 19.25 C18.209375 20.4875 18.10625 21.725 18 23 C15.36 23 12.72 23 10 23 C9.92910156 21.83339844 9.85820312 20.66679687 9.78515625 19.46484375 C9.18346548 14.65025638 7.19436016 11.46770008 4.4375 7.5625 C0 1.05102428 0 1.05102428 0 0 Z " fill="#808080" transform="translate(279,216)"/>
<path d="M0 0 C7.59 0 15.18 0 23 0 C23 2.31 23 4.62 23 7 C20.36 7 17.72 7 15 7 C15 12.28 15 17.56 15 23 C12.36 23 9.72 23 7 23 C7 17.72 7 12.44 7 7 C4.36 7 1.72 7 -1 7 C-0.67 4.69 -0.34 2.38 0 0 Z " fill="#808080" transform="translate(625,216)"/>
<path d="M0 0 C7.59 0 15.18 0 23 0 C23 2.31 23 4.62 23 7 C20.69 7 18.38 7 16 7 C16 12.28 16 17.56 16 23 C13.36 23 10.72 23 8 23 C8 17.72 8 12.44 8 7 C5.36 7 2.72 7 0 7 C0 4.69 0 2.38 0 0 Z " fill="#808080" transform="translate(497,216)"/>
<path d="M0 0 C2.64 0 5.28 0 8 0 C8 5.61 8 11.22 8 17 C11.96 17 15.92 17 20 17 C19.67 18.98 19.34 20.96 19 23 C12.73 23 6.46 23 0 23 C0 15.41 0 7.82 0 0 Z " fill="#808080" transform="translate(477,216)"/>
<path d="M0 0 C2.31 0 4.62 0 7 0 C7 5.61 7 11.22 7 17 C10.96 17 14.92 17 19 17 C19 18.98 19 20.96 19 23 C12.73 23 6.46 23 0 23 C0 15.41 0 7.82 0 0 Z " fill="#808080" transform="translate(380,216)"/>
<path d="M0 0 C2.59393856 2.8371203 3.02858292 4.28542702 2.875 8.125 C1.53492334 12.52810903 1.53492334 12.52810903 -1 14 C-4.55711138 14.53468062 -7.74533898 14.62733051 -11 13 C-12.64019798 9.71960404 -12.74234817 6.52085131 -12 3 C-8.40350823 -1.46836857 -5.347453 -1.68345742 0 0 Z M-6 1 C-6.66 1.66 -7.32 2.32 -8 3 C-6.02 3 -4.04 3 -2 3 C-3.32 2.34 -4.64 1.68 -6 1 Z M-9 3 C-9.33 3.33 -9.66 3.66 -10 4 C-9.71269945 6.33944736 -9.38063221 8.6739143 -9 11 C-8.67 11 -8.34 11 -8 11 C-8 8.36 -8 5.72 -8 3 C-8.33 3 -8.66 3 -9 3 Z M-2 3 C-2 4.98 -2 6.96 -2 9 C-1.01 9.495 -1.01 9.495 0 10 C0.77242269 8.16299211 0.77242269 8.16299211 1 6 C-0.35444301 4.22809091 -0.35444301 4.22809091 -2 3 Z M-6 8 C-6.33 9.32 -6.66 10.64 -7 12 C-5.35 12 -3.7 12 -2 12 C-3.32 10.68 -4.64 9.36 -6 8 Z " fill="#000000" transform="translate(1267,49)"/>
</svg>
