<?xml version="1.0" standalone="no"?>
<!DOCTYPE svg PUBLIC "-//W3C//DTD SVG 20010904//EN"
 "http://www.w3.org/TR/2001/REC-SVG-20010904/DTD/svg10.dtd">
<svg version="1.0" xmlns="http://www.w3.org/2000/svg"
 width="628.000000pt" height="353.000000pt" viewBox="0 0 628.000000 353.000000"
 preserveAspectRatio="xMidYMid meet">

<g transform="translate(0.000000,353.000000) scale(0.100000,-0.100000)"
fill="#000000" stroke="none">
<path d="M1440 2106 c-105 -29 -171 -78 -214 -155 -54 -100 -42 -225 29 -308
95 -111 323 -152 500 -90 l40 14 3 66 c2 37 1 67 -2 67 -3 0 -41 -12 -83 -26
-100 -34 -205 -31 -274 7 -89 48 -114 166 -51 240 63 76 216 97 340 47 34 -14
65 -22 68 -17 9 16 1 119 -11 129 -43 36 -253 51 -345 26z"/>
<path d="M2233 2102 c-114 -41 -181 -113 -202 -220 -37 -189 94 -341 309 -359
182 -15 341 74 380 214 17 59 8 168 -18 219 -26 51 -90 109 -150 136 -68 31
-246 36 -319 10z m255 -144 c79 -53 94 -171 30 -243 -77 -88 -240 -75 -296 23
-36 65 -25 160 24 204 65 57 169 64 242 16z"/>
<path d="M2960 1826 l0 -284 76 -4 c42 -2 78 -1 80 1 2 2 4 46 4 98 l0 93 58
0 59 0 83 -95 83 -95 89 0 c48 0 88 2 88 5 0 3 -38 46 -85 97 -85 92 -96 108
-72 108 27 0 96 55 117 93 28 48 24 133 -7 175 -57 77 -120 92 -378 92 l-195
0 0 -284z m421 135 c26 -32 21 -69 -12 -94 -22 -15 -49 -20 -138 -25 l-111 -5
0 77 0 78 121 -4 c114 -3 122 -4 140 -27z"/>
<path d="M3750 2050 l0 -60 120 0 120 0 0 -225 0 -225 80 0 80 0 2 223 3 222
118 3 117 3 0 59 0 60 -320 0 -320 0 0 -60z"/>
<path d="M4616 2103 c-3 -4 -6 -132 -6 -285 l1 -278 280 0 279 0 0 55 0 55
-197 2 -198 3 -3 58 -3 57 151 0 150 0 0 55 0 55 -150 0 -150 0 0 55 0 55 200
0 200 0 0 60 0 60 -273 0 c-151 0 -277 -3 -281 -7z"/>
<path d="M5356 2088 c11 -13 68 -75 127 -139 59 -64 107 -119 107 -123 0 -3
-56 -67 -125 -142 -69 -75 -125 -139 -125 -142 0 -4 42 -5 93 -2 l93 5 79 88
c43 48 82 86 85 85 4 -2 42 -42 86 -90 l78 -88 99 0 99 0 -98 108 c-54 59
-113 123 -131 142 l-33 35 72 80 c39 44 95 105 124 137 30 31 54 59 54 62 0 3
-42 6 -92 6 l-93 0 -70 -86 c-38 -47 -75 -90 -81 -95 -7 -6 -37 23 -90 86
l-79 94 -99 0 -99 1 19 -22z"/>
<path d="M6140 2106 c0 -2 7 -7 16 -10 8 -3 12 -2 9 4 -6 10 -25 14 -25 6z"/>
<path d="M6105 2089 c-4 -6 -4 -13 -1 -16 3 -4 6 -1 6 5 0 7 5 12 10 12 6 0 9
-5 8 -11 -2 -6 3 -14 10 -16 6 -3 12 2 12 10 0 8 -7 18 -16 21 -21 8 -22 8
-29 -5z"/>
<path d="M6117 2048 c6 -11 41 -10 47 1 3 4 -8 8 -23 7 -16 -1 -27 -4 -24 -8z"/>
<path d="M2029 1282 c-15 -13 -19 -21 -11 -26 7 -4 12 -1 12 7 0 18 24 29 45
21 8 -4 15 -13 15 -21 0 -8 5 -11 10 -8 13 8 13 -1 0 -26 -13 -23 -53 -25 -75
-3 -9 9 -18 14 -21 12 -8 -9 32 -37 55 -40 16 -2 30 6 45 25 l21 29 -28 24
c-34 29 -38 29 -68 6z"/>
<path d="M2371 1284 c0 -11 3 -14 6 -6 3 7 2 16 -1 19 -3 4 -6 -2 -5 -13z"/>
<path d="M2613 1283 c-13 -8 -23 -20 -23 -26 0 -6 11 0 24 12 20 19 28 21 45
12 27 -15 27 -52 0 -69 -18 -12 -24 -11 -45 9 -13 12 -24 17 -24 11 0 -19 44
-42 67 -36 12 3 26 19 32 34 7 23 6 32 -10 49 -23 25 -36 26 -66 4z"/>
<path d="M3430 1280 c-14 -10 -23 -21 -20 -23 3 -3 18 6 33 19 33 28 23 32
-13 4z"/>
<path d="M3875 1290 c3 -5 10 -10 16 -10 5 0 9 5 9 10 0 6 -7 10 -16 10 -8 0
-12 -4 -9 -10z"/>
<path d="M1287 1273 c6 -16 10 -16 16 0 3 8 -1 14 -8 14 -7 0 -11 -6 -8 -14z"/>
<path d="M1426 1275 c4 -8 15 -20 26 -26 13 -7 17 -16 13 -30 -4 -10 -2 -19 3
-19 23 0 -4 65 -35 84 -9 5 -11 2 -7 -9z"/>
<path d="M1687 1279 c7 -7 15 -10 18 -7 3 3 -2 9 -12 12 -14 6 -15 5 -6 -5z"/>
<path d="M1771 1274 c-7 -8 -11 -17 -8 -20 2 -2 10 2 17 11 12 14 15 14 31 -1
21 -19 27 -6 7 14 -16 16 -30 15 -47 -4z"/>
<path d="M1896 1268 c-8 -33 -7 -50 3 -44 11 7 20 66 10 66 -3 0 -9 -10 -13
-22z"/>
<path d="M2232 1248 c-11 -24 -18 -45 -16 -47 8 -9 34 23 29 37 -3 8 0 21 6
29 7 7 10 16 7 19 -3 2 -15 -15 -26 -38z"/>
<path d="M2275 1275 c4 -11 8 -25 8 -32 0 -7 4 -10 9 -7 12 8 10 18 -8 40 -15
19 -16 19 -9 -1z"/>
<path d="M2804 1271 c0 -13 7 -16 24 -13 16 3 20 8 13 15 -17 17 -37 16 -37
-2z"/>
<path d="M2890 1250 c0 -22 -5 -40 -11 -40 -5 0 -8 4 -5 9 3 5 -1 14 -9 21
-10 9 -15 9 -15 1 0 -6 5 -11 10 -11 6 0 9 -5 8 -12 -2 -6 5 -14 15 -16 14 -3
17 4 17 42 0 25 -2 46 -5 46 -3 0 -5 -18 -5 -40z"/>
<path d="M2965 1279 c-4 -6 -5 -12 -2 -15 2 -3 7 2 10 11 7 17 1 20 -8 4z"/>
<path d="M3111 1260 l0 -35 15 28 c9 16 13 31 10 35 -3 3 -6 -1 -6 -9 0 -11
-2 -11 -10 1 -7 11 -10 6 -9 -20z"/>
<path d="M3220 1270 c0 -11 4 -20 9 -20 5 0 7 9 4 20 -3 11 -7 20 -9 20 -2 0
-4 -9 -4 -20z"/>
<path d="M3277 1283 c-4 -3 -7 -14 -7 -24 0 -10 -9 -26 -20 -37 -19 -18 -19
-18 0 -19 11 -1 19 1 19 5 -2 15 14 52 22 52 5 0 9 7 9 15 0 16 -12 20 -23 8z"/>
<path d="M3352 1270 c-7 -11 -12 -27 -12 -35 0 -21 -20 -19 -21 3 0 11 -2 12
-6 4 -6 -14 14 -42 30 -42 6 0 8 3 4 6 -3 4 0 22 9 42 16 40 14 51 -4 22z"/>
<path d="M3486 1275 c4 -8 10 -15 16 -15 5 0 6 -10 3 -22 -5 -18 -4 -20 4 -8
16 23 13 38 -9 50 -16 9 -18 8 -14 -5z"/>
<path d="M3580 1280 c0 -5 7 -7 15 -4 8 4 15 8 15 10 0 2 -7 4 -15 4 -8 0 -15
-4 -15 -10z"/>
<path d="M3630 1283 c0 -7 5 -15 10 -18 7 -4 4 -13 -8 -23 -16 -14 -17 -19 -6
-30 17 -15 32 -16 16 0 -9 9 -8 16 5 30 16 17 16 20 0 35 -10 10 -17 12 -17 6z"/>
<path d="M3709 1248 c-2 -27 -1 -48 3 -48 5 0 8 9 8 21 0 18 4 20 28 16 l27
-6 -27 11 c-15 7 -29 21 -31 32 -1 12 -5 0 -8 -26z"/>
<path d="M3767 1276 c-10 -8 -14 -16 -10 -19 5 -3 14 3 21 14 14 22 13 23 -11
5z"/>
<path d="M3840 1269 c0 -5 5 -7 10 -4 6 3 10 8 10 11 0 2 -4 4 -10 4 -5 0 -10
-5 -10 -11z"/>
<path d="M1690 1245 c-8 -9 -8 -15 -2 -15 12 0 26 19 19 26 -2 2 -10 -2 -17
-11z"/>
<path d="M2500 1250 c0 -5 5 -10 10 -10 6 0 10 5 10 10 0 6 -4 10 -10 10 -5 0
-10 -4 -10 -10z"/>
<path d="M1291 1236 c-9 -10 -8 -15 2 -19 8 -3 13 3 13 14 0 23 0 23 -15 5z"/>
<path d="M1360 1221 c0 -25 6 -27 13 -6 4 8 2 17 -3 20 -6 4 -10 -3 -10 -14z"/>
<path d="M1632 1228 c-15 -15 -15 -28 -1 -28 5 0 8 4 5 9 -4 5 0 11 6 14 7 2
10 7 7 10 -3 4 -11 1 -17 -5z"/>
<path d="M1750 1231 c0 -6 4 -13 10 -16 6 -3 7 1 4 9 -7 18 -14 21 -14 7z"/>
<path d="M1810 1234 c0 -6 6 -17 14 -23 11 -9 16 -9 22 1 4 7 4 10 -1 6 -4 -4
-14 0 -21 10 -7 9 -14 12 -14 6z"/>
<path d="M3416 1233 c-10 -10 -7 -25 4 -18 6 3 10 1 10 -5 0 -6 4 -9 9 -6 5 4
11 0 14 -6 2 -8 8 -9 13 -4 5 5 4 11 -4 13 -7 3 -18 11 -26 18 -7 8 -16 11
-20 8z"/>
<path d="M3580 1229 c0 -5 -4 -7 -10 -4 -5 3 -10 2 -10 -4 0 -19 16 -19 28 0
7 11 8 19 2 19 -5 0 -10 -5 -10 -11z"/>
<path d="M2300 1215 c0 -8 4 -15 10 -15 5 0 7 7 4 15 -4 8 -8 15 -10 15 -2 0
-4 -7 -4 -15z"/>
<path d="M2362 1220 c3 -8 20 -16 44 -18 45 -4 44 4 -1 9 -16 2 -34 8 -38 14
-5 6 -7 4 -5 -5z"/>
<path d="M3110 1210 c0 -5 5 -10 11 -10 5 0 7 5 4 10 -3 6 -8 10 -11 10 -2 0
-4 -4 -4 -10z"/>
<path d="M3480 1210 c0 -5 5 -10 11 -10 5 0 7 5 4 10 -3 6 -8 10 -11 10 -2 0
-4 -4 -4 -10z"/>
<path d="M3765 1210 c3 -5 11 -10 16 -10 6 0 7 5 4 10 -3 6 -11 10 -16 10 -6
0 -7 -4 -4 -10z"/>
<path d="M2973 1203 c15 -2 37 -2 50 0 12 2 0 4 -28 4 -27 0 -38 -2 -22 -4z"/>
<path d="M3885 1200 c-3 -6 1 -7 9 -4 18 7 21 14 7 14 -6 0 -13 -4 -16 -10z"/>
</g>
</svg>
