<?xml version="1.0" encoding="UTF-8"?>
<svg id="Layer_1" data-name="Layer 1" xmlns="http://www.w3.org/2000/svg" version="1.1" viewBox="0 0 6129.85 1000">
  <defs>
    <style>
      .cls-1 {
        fill: #fff;
        stroke-width: 0px;
      }
    </style>
  </defs>
  <path class="cls-1" d="M489.28,978.96c-120.6.02-241.19.16-361.79-.04-60.99-.1-107.85-33.52-122.97-87.78-2.97-10.66-4.32-22.11-4.33-33.19C-.05,611.13,0,364.32.01,117.51.01,58.42,50.35,4.81,109.48.93c6.28-.41,12.59-.51,18.89-.52C367.76.32,607.15.4,846.54,0c37.1-.06,70,8.77,97.25,35.27,24.31,23.65,35.99,52.55,36.02,85.82.27,247.26.45,494.53.04,741.79-.1,59.39-51.85,113.44-111.26,114.73-85.91,1.86-171.87,1.07-257.81,1.32-40.5.12-81,.02-121.5.04ZM489.1,847.86c4.03,0,8.07.01,12.1,0,67.5-.29,133.38-10.76,197.28-32.51,47.41-16.14,92.77-36.82,132.58-67.69,7.63-5.91,14.53-15.24,17.29-24.35,3.89-12.82-1.41-24.85-13.47-32.44-13.82-8.7-27.39-7.2-40.18,2.21-37.26,27.41-78.22,47.48-122.06,61.87-71.85,23.59-145.61,30.36-220.88,26.16-97.71-5.45-188.22-31.73-268.75-88.74-3.92-2.78-8.53-5.15-13.17-6.25-15.22-3.62-30.23,3.97-36.87,17.95-7.3,15.36-3.2,30.16,13.26,42.15,102.19,74.44,219.04,100.1,342.88,101.65ZM522.57,398.83h-.06c0-73.27.02-146.53-.04-219.8,0-6.73-.16-13.5-.83-20.19-2.18-21.52-23.35-34.29-43.41-26.38-15.22,6-21.55,16.54-21.55,36.49-.02,151.93-.01,303.86.05,455.79,0,5.83.12,11.74,1.11,17.46,2.39,13.88,13.55,24.09,27.41,25.78,14.33,1.75,27.87-4.67,33.17-17.72,2.93-7.22,3.95-15.65,3.98-23.54.28-75.96.17-151.93.17-227.89ZM359.04,397.47c0-71.89.12-143.79-.07-215.68-.06-20.94-13.63-35.24-32.52-35.4-19.17-.16-32.99,13.71-33.01,34.81-.16,143.79-.12,287.58.22,431.36.02,6.84,2.03,14.43,5.42,20.36,7.35,12.84,22.48,17.93,36.15,13.79,14.97-4.54,23.76-16.46,23.79-33.55.13-71.89.05-143.79.04-215.68ZM686.09,396.93c0-3.59,0-7.19,0-10.78-.01-68.28.08-136.56-.1-204.84-.06-20.01-13.39-34.23-31.71-34.87-18.67-.65-32.19,12.35-33.79,32.65-.35,4.47-.26,8.98-.26,13.47.02,135.66.05,271.32.12,406.98,0,6.73-.23,13.57.87,20.16.85,5.1,2.75,10.49,5.7,14.69,8.29,11.8,22.73,16.27,35.69,12,15.2-5.01,23.39-16.38,23.42-33.83.13-71.87.05-143.75.06-215.62ZM783.54,391.44h-.07c0,46.75-.03,93.49.01,140.24.02,23.75,13.34,39.15,33.44,38.87,20.08-.28,32.59-14.67,32.68-38.08.13-32.81.04-65.63.03-98.44,0-61.58.02-123.16-.07-184.74-.03-18.39-7.58-30.63-21.33-35.33-23.98-8.2-44.46,7.33-44.63,34.53-.29,47.64-.08,95.29-.08,142.94ZM195.49,390.78h-.17c0-47.2-.08-94.39.04-141.59.04-15.63-4.61-28.51-19.97-34.99-22.51-9.5-45.5,7.05-45.55,33.06-.18,86.3-.07,172.6-.07,258.9,0,11.24-.48,22.51.2,33.7.76,12.59,7.23,22.19,18.71,27.58,11.46,5.38,22.99,4.41,33.25-3.03,10.26-7.45,13.67-18.24,13.62-30.7-.18-47.64-.07-95.29-.07-142.94Z"/>
  <path class="cls-1" d="M1238.13,0h184.62v197.2h-184.62V0ZM1240.93,307.69h179.02v671.33h-179.02V307.69Z"/>
  <path class="cls-1" d="M1517.42,307.69h172.03l4.2,124.47h5.6c29.37-76.93,76.93-145.45,200-145.45s211.19,55.94,211.19,232.17v460.14h-179.02v-427.97c0-65.74-12.59-123.08-95.11-123.08-116.08,0-139.86,137.06-139.86,218.18v332.87h-179.02V307.69Z"/>
  <path class="cls-1" d="M2255.88,819.59v-377.63h-117.49v-118.88c155.24-7,172.03-92.32,180.42-209.8h113.28v194.41h142.67v134.27h-139.86v355.25c0,19.57,8.39,27.96,27.98,27.96h111.89v153.85h-174.83c-107.69,0-144.06-57.34-144.06-159.44Z"/>
  <path class="cls-1" d="M2581.75,644.76c0-198.61,134.27-358.04,341.26-358.04s332.87,145.45,332.87,372.03h-488.12c0,118.88,51.74,211.18,162.24,211.18,99.29,0,141.25-83.91,148.24-166.42l169.24,37.76c-33.57,145.46-142.66,258.74-318.89,258.74-211.19,0-346.86-155.24-346.86-355.24ZM3072.67,563.64c-13.99-104.9-76.93-149.66-149.66-149.66s-135.66,47.56-149.64,149.66h299.3Z"/>
  <path class="cls-1" d="M3316.01,307.69h172.03l4.2,160.84h5.6c20.98-102.1,72.73-172.03,173.42-172.03,19.59,0,30.77,1.4,44.76,4.21v177.62c-19.59-4.2-33.57-7-58.74-7-128.67,0-162.24,118.89-162.24,247.56v260.14h-179.02V307.69Z"/>
  <path class="cls-1" d="M3714.19,644.76c0-204.2,131.47-358.04,344.06-358.04,186.02,0,289.52,110.49,316.09,248.95l-174.83,57.34c-7-109.08-50.35-176.22-141.27-176.22-82.51,0-148.25,71.33-148.25,227.97s69.94,225.17,151.06,225.17c95.1,0,142.66-81.12,155.24-193l169.23,33.56c-23.78,172.03-141.25,289.51-324.47,289.51-216.79,0-346.86-151.05-346.86-355.24Z"/>
  <path class="cls-1" d="M4407.33,643.36c0-200,131.47-356.64,339.86-356.64s339.86,156.64,339.86,356.64-131.46,356.64-339.86,356.64-339.86-156.64-339.86-356.64ZM4891.25,643.36c0-152.45-55.94-226.57-144.06-226.57s-144.06,74.12-144.06,226.57,55.95,226.57,144.06,226.57,144.06-74.12,144.06-226.57Z"/>
  <path class="cls-1" d="M5150.82,307.69h172.03l4.2,124.47h5.6c27.98-86.71,81.12-145.45,197.2-145.45,97.9,0,169.23,41.95,191.61,146.85h5.6c27.96-79.72,78.32-146.85,198.6-146.85s204.2,55.94,204.2,232.17v460.14h-179.02v-427.97c0-64.34-13.99-123.08-89.51-123.08-109.1,0-131.47,137.06-131.47,218.18v332.87h-179.02v-427.97c0-64.34-13.99-123.08-89.51-123.08-109.1,0-131.47,137.06-131.47,218.18v332.87h-179.02V307.69Z"/>
</svg>