<?xml version="1.0" standalone="no"?>
<!DOCTYPE svg PUBLIC "-//W3C//DTD SVG 20010904//EN"
 "http://www.w3.org/TR/2001/REC-SVG-20010904/DTD/svg10.dtd">
<svg version="1.0" xmlns="http://www.w3.org/2000/svg"
 width="480.000000pt" height="250.000000pt" viewBox="0 0 480.000000 250.000000"
 preserveAspectRatio="xMidYMid meet">

<g transform="translate(0.000000,250.000000) scale(0.100000,-0.100000)"
fill="#000000" stroke="none">
<path d="M1160 1478 c-19 -7 -58 -35 -85 -63 -78 -77 -95 -166 -51 -260 39
-86 118 -137 211 -138 91 -2 165 42 210 125 63 115 18 260 -98 320 -48 24
-138 32 -187 16z m50 -82 c0 -36 -4 -46 -21 -51 -27 -9 -59 -63 -59 -101 0
-25 -6 -33 -34 -47 -33 -15 -34 -15 -40 6 -25 94 32 200 123 227 14 5 27 9 29
9 1 1 2 -19 2 -43z m167 -20 c38 -41 57 -103 48 -157 -4 -22 -8 -39 -10 -39
-2 0 -20 9 -39 21 -31 18 -36 26 -36 59 0 32 -6 44 -40 73 -30 25 -40 41 -40
64 0 16 3 32 6 36 12 12 79 -23 111 -57z m-105 -78 c30 -24 31 -56 3 -83 -18
-19 -31 -24 -48 -20 -47 15 -61 61 -27 95 23 23 49 26 72 8z m87 -191 c-75
-62 -191 -57 -253 12 -18 20 -18 20 18 37 28 14 40 15 58 6 44 -21 63 -22 98
-4 34 18 36 18 73 -2 l39 -21 -33 -28z"/>
<path d="M1660 1403 c0 -5 16 -77 37 -160 33 -135 40 -153 58 -153 17 0 24 14
44 88 14 48 32 109 41 135 l16 49 38 -136 c34 -120 41 -136 60 -136 19 0 25
16 59 153 21 83 37 155 37 160 0 4 -6 7 -14 7 -9 0 -24 -43 -46 -135 -18 -74
-36 -133 -39 -130 -4 2 -22 63 -41 135 -31 115 -37 130 -55 128 -16 -3 -26
-28 -59 -143 l-41 -140 -33 143 c-24 98 -39 142 -48 142 -8 0 -14 -3 -14 -7z"/>
<path d="M2520 1249 c0 -124 3 -160 13 -157 6 3 13 21 15 40 2 20 12 44 23 54
23 21 15 27 91 -65 16 -18 35 -31 43 -29 11 2 1 20 -36 66 l-52 63 41 42 c23
24 42 46 42 50 0 18 -24 2 -85 -54 -36 -34 -65 -57 -66 -53 0 5 0 53 1 107 1
82 -1 97 -14 97 -14 0 -16 -22 -16 -161z"/>
<path d="M2808 1399 c-12 -6 -18 -22 -18 -44 0 -29 -4 -34 -27 -37 -39 -4 -42
-28 -4 -28 l31 0 0 -100 c0 -60 4 -100 10 -100 6 0 10 40 10 100 l0 100 36 0
c45 0 42 24 -4 28 -32 3 -38 14 -26 46 4 12 20 16 55 16 l48 0 3 -142 c2 -102
6 -143 16 -146 9 -3 12 33 12 157 l0 161 -62 0 c-35 0 -71 -5 -80 -11z"/>
<path d="M2121 1294 c-36 -30 -48 -80 -32 -134 22 -73 107 -97 160 -46 34 33
45 75 31 127 -21 76 -100 103 -159 53z m106 -18 c24 -21 28 -31 27 -76 -1 -57
-14 -77 -60 -86 -40 -8 -73 20 -81 68 -10 63 23 115 74 117 7 1 25 -10 40 -23z"/>
<path d="M2350 1205 c0 -70 4 -115 10 -115 6 0 10 26 10 59 0 97 25 141 79
141 13 0 21 6 21 16 0 13 -7 15 -32 10 -18 -3 -38 -13 -44 -21 -15 -21 -24
-19 -24 5 0 11 -4 20 -10 20 -6 0 -10 -45 -10 -115z"/>
<path d="M3048 1291 c-30 -27 -33 -35 -33 -85 0 -49 4 -59 31 -87 82 -81 202
11 164 126 -25 76 -104 98 -162 46z m105 -11 c54 -43 40 -151 -21 -165 -54
-11 -92 26 -92 91 0 34 26 81 47 87 33 9 40 7 66 -13z"/>
<path d="M3253 1308 c2 -7 19 -59 38 -115 44 -136 58 -138 96 -13 15 50 30 90
33 90 3 0 18 -40 33 -90 38 -126 52 -123 100 18 42 121 42 123 23 116 -8 -3
-27 -42 -42 -87 -14 -45 -30 -86 -34 -90 -3 -4 -14 20 -24 54 -26 93 -43 130
-59 124 -7 -3 -26 -46 -42 -95 -16 -50 -32 -87 -35 -83 -3 5 -18 47 -34 96
-19 60 -32 87 -43 87 -8 0 -13 -6 -10 -12z"/>
<path d="M3652 1304 c-27 -19 -29 -64 -4 -87 9 -8 38 -21 64 -27 33 -9 49 -19
54 -33 14 -43 -70 -65 -103 -27 -18 20 -43 27 -43 12 0 -14 43 -49 68 -55 57
-14 121 29 107 73 -9 27 -53 60 -80 60 -13 0 -33 9 -46 20 l-24 20 24 21 c27
22 67 19 87 -7 13 -16 34 -19 34 -5 0 19 -53 51 -84 51 -17 0 -42 -7 -54 -16z"/>
</g>
</svg>
