<?xml version="1.0" encoding="UTF-8"?><svg id="c" xmlns="http://www.w3.org/2000/svg" xmlns:xlink="http://www.w3.org/1999/xlink" viewBox="0 0 1762.33 441.46"><defs><style>.g{fill:url(#e);}</style><linearGradient id="e" x1="1502.21" y1="107.61" x2="1762.33" y2="107.61" gradientUnits="userSpaceOnUse"><stop offset=".07" stop-color="#3600ff"/><stop offset=".12" stop-color="#2e17ff"/><stop offset=".25" stop-color="#1a54ff"/><stop offset=".36" stop-color="#0c7fff"/><stop offset=".45" stop-color="#039aff"/><stop offset=".5" stop-color="#00a5ff"/><stop offset="1" stop-color="#00d300"/></linearGradient></defs><g id="d"><path class="g" d="M1594.18,215.22h-91.97S1670.36,0,1670.36,0h91.97l-168.15,215.22Z"/></g><g id="f"><polygon points="1676.4 436.47 1421.74 110.67 1329.77 110.67 1457.04 273.5 1329.77 436.47 1421.74 436.47 1503.05 332.35 1584.43 436.47 1676.4 436.47"/><path d="M1209.92,110.67h79.31V436.54h-79.31V110.67Z"/><path d="M1075.11,0h79.31V436.54h-79.31V0Z"/><path d="M937.02,0h79.31V436.54h-79.31V0Z"/><path d="M732.42,441.46c-30.74,0-59.02-7.58-84.85-22.75-25.82-15.16-46.11-35.66-60.87-61.48-14.76-25.82-22.13-53.69-22.13-83.62s7.58-59.03,22.75-84.85c15.16-25.82,35.66-46.21,61.48-61.18,25.82-14.96,53.69-22.44,83.62-22.44,26.64,0,51.54,5.95,74.7,17.83,23.15,11.89,42.63,28.28,58.41,49.19,15.77,20.9,26.13,44.07,31.05,69.48,4.51,21.73,4.71,42.22,.61,61.48h-253.32c2.86,14.35,8.5,26.65,16.91,36.89,8.4,10.25,18.85,17.94,31.36,23.06,12.5,5.13,25.92,7.69,40.27,7.69,15.57,0,30.84-2.97,45.81-8.91,14.96-5.94,27.56-14.24,37.81-24.9l70.09,19.06c-13.12,25.82-34.23,46.53-63.33,62.1-29.11,15.58-59.24,23.36-90.38,23.36Zm86.69-199.21c-2.87-11.88-8.3-22.95-16.29-33.2-7.99-10.24-18.04-18.34-30.13-24.29-12.09-5.94-25.73-8.91-40.89-8.91s-28.9,2.98-41.19,8.91c-12.3,5.95-22.44,14.05-30.43,24.29-7.99,10.25-13.43,21.32-16.29,33.2h175.23Z"/><path d="M348,110.67h79.93v48.57c10.24-18.45,25.61-32.48,46.11-42.12,20.49-9.62,45.7-12.19,75.63-7.69v85.47c-20.09-6.97-39.56-8.3-58.41-4-18.86,4.31-34.12,13.53-45.81,27.67-11.68,14.14-17.52,31.46-17.52,51.96v166.01h-79.93V110.67Z"/><path d="M135.27,76.86H0V0H348V76.86H217.65V436.54h-82.39V76.86Z"/></g></svg>