<?xml version="1.0" encoding="UTF-8"?>
<!DOCTYPE svg PUBLIC "-//W3C//DTD SVG 1.1//EN" "http://www.w3.org/Graphics/SVG/1.1/DTD/svg11.dtd">
<svg xmlns="http://www.w3.org/2000/svg" version="1.1" width="1000px" height="1000px" style="shape-rendering:geometricPrecision; text-rendering:geometricPrecision; image-rendering:optimizeQuality; fill-rule:evenodd; clip-rule:evenodd" xmlns:xlink="http://www.w3.org/1999/xlink">
<g><path style="opacity:0.996" fill="#012599" d="M 958.5,496.5 C 886.833,496.5 815.167,496.5 743.5,496.5C 743.5,437.5 743.5,378.5 743.5,319.5C 662.556,272.022 581.223,225.022 499.5,178.5C 418.273,225.274 337.273,272.274 256.5,319.5C 256.5,378.5 256.5,437.5 256.5,496.5C 185.167,496.5 113.833,496.5 42.5,496.5C 44.9143,358.202 97.2476,243.035 199.5,151C 312.45,56.9308 441.783,22.2642 587.5,47C 723.326,76.1086 826.826,149.942 898,268.5C 937.85,339.227 958.017,415.227 958.5,496.5 Z"/></g>
<g><path style="opacity:1" fill="#fbfbfd" d="M 498.5,67.5 C 508.192,67.4721 517.859,67.9721 527.5,69C 547.392,74.2542 554.892,87.0876 550,107.5C 547.158,118.342 540.325,125.175 529.5,128C 518.497,128.342 507.497,128.175 496.5,127.5C 497.462,107.511 498.129,87.5106 498.5,67.5 Z"/></g>
<g><path style="opacity:1" fill="#fafafd" d="M 457.5,69.5 C 463.678,69.1067 469.678,69.9401 475.5,72C 485.698,80.9393 486.032,90.2727 476.5,100C 474.956,100.29 473.623,100.956 472.5,102C 475.973,102.319 478.806,103.819 481,106.5C 483.791,113.555 486.958,120.388 490.5,127C 484.881,128.299 479.214,128.632 473.5,128C 471.582,121.652 468.915,115.652 465.5,110C 460.833,109.333 456.167,109.333 451.5,110C 451.043,110.414 450.709,110.914 450.5,111.5C 451.496,118.116 452.163,124.782 452.5,131.5C 447.507,131.916 442.507,132.249 437.5,132.5C 436.188,112.55 434.188,92.7163 431.5,73C 440.32,71.8896 448.987,70.723 457.5,69.5 Z"/></g>
<g><path style="opacity:1" fill="#f9fafc" d="M 568.5,72.5 C 578.876,74.7855 589.209,77.2855 599.5,80C 614.069,87.6796 618.902,99.5129 614,115.5C 610.594,130.075 601.428,137.409 586.5,137.5C 576.132,136.365 565.965,134.365 556,131.5C 560.301,111.951 564.467,92.2839 568.5,72.5 Z"/></g>
<g><path style="opacity:1" fill="#0b289a" d="M 513.5,80.5 C 532.999,80.5252 539.499,89.8586 533,108.5C 531.332,112.165 528.499,114.332 524.5,115C 520.514,115.499 516.514,115.666 512.5,115.5C 512.473,103.82 512.806,92.1537 513.5,80.5 Z"/></g>
<g><path style="opacity:1" fill="#fafafd" d="M 393.5,80.5 C 395.39,80.2965 396.89,80.9632 398,82.5C 409.747,98.9926 421.247,115.659 432.5,132.5C 427.817,135.003 422.817,136.17 417.5,136C 415.542,133.252 413.709,130.418 412,127.5C 411.107,126.919 410.107,126.585 409,126.5C 403.28,128.378 397.447,129.878 391.5,131C 390.033,132.098 389.199,133.598 389,135.5C 388.502,138.817 388.335,142.15 388.5,145.5C 383.761,146.185 379.094,147.185 374.5,148.5C 375.695,127.083 377.695,105.75 380.5,84.5C 384.992,83.2998 389.326,81.9665 393.5,80.5 Z"/></g>
<g><path style="opacity:1" fill="#122a9b" d="M 448.5,82.5 C 453.844,82.334 459.177,82.5006 464.5,83C 467.394,85.9087 468.227,89.4087 467,93.5C 465.681,95.4875 463.848,96.6541 461.5,97C 457.459,97.8265 453.459,97.6599 449.5,96.5C 448.557,91.8999 448.223,87.2332 448.5,82.5 Z"/></g>
<g><path style="opacity:1" fill="#0d299a" d="M 580.5,88.5 C 598.51,90.1646 604.01,99.4979 597,116.5C 592.979,123.067 587.146,125.567 579.5,124C 577.22,123.767 575.22,122.934 573.5,121.5C 575.963,110.519 578.296,99.5193 580.5,88.5 Z"/></g>
<g><path style="opacity:1" fill="#f9fafc" d="M 344.5,95.5 C 345.978,95.238 347.311,95.5713 348.5,96.5C 353.924,107.684 359.091,119.017 364,130.5C 368.006,142.482 364.839,151.982 354.5,159C 340.113,168.152 327.946,165.985 318,152.5C 312.629,140.259 307.129,128.092 301.5,116C 305.93,113.198 310.597,111.198 315.5,110C 321.376,121.611 326.876,133.445 332,145.5C 337.215,151.816 342.882,152.149 349,146.5C 350.368,143.262 350.701,139.928 350,136.5C 344.833,125 339.667,113.5 334.5,102C 334.645,101.228 334.978,100.561 335.5,100C 338.84,98.9967 341.84,97.4967 344.5,95.5 Z"/></g>
<g><path style="opacity:1" fill="#f9f9fc" d="M 642.5,95.5 C 654.902,93.961 665.402,97.6276 674,106.5C 682.622,123.89 679.788,139.39 665.5,153C 649.752,161.778 635.919,159.278 624,145.5C 616.414,127.881 619.914,112.714 634.5,100C 637.099,98.205 639.766,96.705 642.5,95.5 Z"/></g>
<g><path style="opacity:1" fill="#122c9c" d="M 391.5,98.5 C 395.724,103.925 399.724,109.591 403.5,115.5C 399.618,117.138 395.618,118.472 391.5,119.5C 390.432,112.507 390.432,105.507 391.5,98.5 Z"/></g>
<g><path style="opacity:1" fill="#08279a" d="M 648.5,108.5 C 661.353,108.534 666.187,114.868 663,127.5C 661.741,133.854 658.574,139.021 653.5,143C 639.234,146.069 633.4,140.235 636,125.5C 638.168,118.192 642.335,112.526 648.5,108.5 Z"/></g>
<g><path style="opacity:1" fill="#fafafd" d="M 703.5,125.5 C 719.855,124.258 731.688,130.925 739,145.5C 739.499,149.152 739.665,152.818 739.5,156.5C 734.732,156.483 730.066,155.816 725.5,154.5C 725.013,142.848 719.013,138.015 707.5,140C 695.558,147.344 691.725,157.511 696,170.5C 702.646,177.47 708.812,177.137 714.5,169.5C 711.337,167.827 708.671,165.66 706.5,163C 707.306,159.877 708.973,157.377 711.5,155.5C 719.053,159.436 726.053,164.102 732.5,169.5C 727.415,177.334 722.582,185.334 718,193.5C 717.261,194.574 716.261,195.241 715,195.5C 712.419,194.583 710.086,193.249 708,191.5C 708.053,189.064 707.887,186.731 707.5,184.5C 695.108,186.387 685.941,181.72 680,170.5C 676.224,149.384 684.057,134.384 703.5,125.5 Z"/></g>
<g><path style="opacity:1" fill="#f8f9fc" d="M 272.5,132.5 C 276.846,132.334 281.179,132.501 285.5,133C 288.657,133.742 291.323,135.242 293.5,137.5C 290.912,141.676 288.079,145.676 285,149.5C 277.248,144.506 270.915,145.839 266,153.5C 264.741,164.487 268.574,173.32 277.5,180C 284.139,182.745 289.972,181.579 295,176.5C 298.448,164.585 295.448,162.251 286,169.5C 283.56,167.457 281.727,164.957 280.5,162C 287.122,156.683 294.122,151.85 301.5,147.5C 307.624,156.247 313.624,165.08 319.5,174C 316.926,176.243 314.092,178.076 311,179.5C 309.056,178.561 307.389,177.227 306,175.5C 304.145,186.026 297.978,192.526 287.5,195C 274.884,197.272 265.05,193.106 258,182.5C 244.319,160.384 249.152,143.717 272.5,132.5 Z"/></g>
<g><path style="opacity:1" fill="#fe8080" d="M 743.5,319.5 C 711.698,337.235 680.032,355.235 648.5,373.5C 609.147,312.991 553.147,285.157 480.5,290C 423.963,298.418 380.963,326.918 351.5,375.5C 346.311,371.218 340.644,367.384 334.5,364C 308.354,349.339 282.354,334.506 256.5,319.5C 337.273,272.274 418.273,225.274 499.5,178.5C 581.223,225.022 662.556,272.022 743.5,319.5 Z"/></g>
<g><path style="opacity:1" fill="#fefdfd" d="M 648.5,373.5 C 668.203,409.087 675.037,447.087 669,487.5C 665.974,502.227 661.974,516.56 657,530.5C 685.643,547.569 714.476,564.236 743.5,580.5C 782.607,603.559 821.94,626.392 861.5,649C 871.828,657.829 872.162,667.162 862.5,677C 857.43,679.424 852.097,680.091 846.5,679C 812.139,659.155 777.806,639.322 743.5,619.5C 708.861,599.512 674.194,579.512 639.5,559.5C 604.369,605.4 557.702,629.067 499.5,630.5C 429.323,627.184 378.156,594.518 346,532.5C 329.177,493.997 325.844,454.331 336,413.5C 339.908,400.264 345.075,387.598 351.5,375.5C 380.963,326.918 423.963,298.418 480.5,290C 553.147,285.157 609.147,312.991 648.5,373.5 Z"/></g>
<g><path style="opacity:1" fill="#fe8180" d="M 627.5,386.5 C 584.535,410.316 541.869,434.649 499.5,459.5C 461.533,438.183 423.867,416.35 386.5,394C 381.89,391.526 377.223,389.359 372.5,387.5C 401.307,339.411 443.974,314.411 500.5,312.5C 544.519,313.598 581.353,330.265 611,362.5C 617.251,370.007 622.751,378.007 627.5,386.5 Z"/></g>
<g><path style="opacity:1" fill="#d9211b" d="M 743.5,319.5 C 743.5,378.5 743.5,437.5 743.5,496.5C 743.5,524.5 743.5,552.5 743.5,580.5C 714.476,564.236 685.643,547.569 657,530.5C 661.974,516.56 665.974,502.227 669,487.5C 675.037,447.087 668.203,409.087 648.5,373.5C 680.032,355.235 711.698,337.235 743.5,319.5 Z"/></g>
<g><path style="opacity:1" fill="#990500" d="M 256.5,319.5 C 282.354,334.506 308.354,349.339 334.5,364C 340.644,367.384 346.311,371.218 351.5,375.5C 345.075,387.598 339.908,400.264 336,413.5C 325.844,454.331 329.177,493.997 346,532.5C 378.156,594.518 429.323,627.184 499.5,630.5C 499.5,683.5 499.5,736.5 499.5,789.5C 418.476,743.236 337.643,696.569 257,649.5C 256.5,623.502 256.333,597.502 256.5,571.5C 256.5,546.5 256.5,521.5 256.5,496.5C 256.5,437.5 256.5,378.5 256.5,319.5 Z"/></g>
<g><path style="opacity:1" fill="#d9211b" d="M 627.5,386.5 C 650.995,428.273 653.828,471.607 636,516.5C 613.673,565.821 575.84,595.321 522.5,605C 514.855,605.887 507.189,606.387 499.5,606.5C 499.5,557.5 499.5,508.5 499.5,459.5C 541.869,434.649 584.535,410.316 627.5,386.5 Z"/></g>
<g><path style="opacity:1" fill="#990600" d="M 372.5,387.5 C 377.223,389.359 381.89,391.526 386.5,394C 423.867,416.35 461.533,438.183 499.5,459.5C 499.5,508.5 499.5,557.5 499.5,606.5C 439.792,603.742 395.958,576.075 368,523.5C 347.404,477.331 348.904,431.998 372.5,387.5 Z"/></g>
<g><path style="opacity:1" fill="#fbf3f3" d="M 368.5,468.5 C 375.716,467.688 377.716,470.355 374.5,476.5C 371.42,478.105 368.92,477.438 367,474.5C 366.591,472.305 367.091,470.305 368.5,468.5 Z"/></g>
<g><path style="opacity:1" fill="#fcf6f6" d="M 374.5,488.5 C 376.722,488.178 378.556,488.845 380,490.5C 388.24,517.722 403.24,540.388 425,558.5C 425.995,564.241 423.829,566.075 418.5,564C 396.119,544.906 380.786,521.24 372.5,493C 372.519,491.167 373.185,489.667 374.5,488.5 Z"/></g>
<g><path style="opacity:0.998" fill="#7f9cfe" d="M 42.5,496.5 C 113.833,496.5 185.167,496.5 256.5,496.5C 256.5,521.5 256.5,546.5 256.5,571.5C 188.838,580.595 121.171,589.595 53.5,598.5C 46.3214,564.892 42.6547,530.892 42.5,496.5 Z"/></g>
<g><path style="opacity:0.996" fill="#809cfe" d="M 743.5,496.5 C 815.167,496.5 886.833,496.5 958.5,496.5C 954.885,651.24 891.885,775.073 769.5,868C 657.612,945.912 534.612,971.246 400.5,944C 327.141,927.321 262.141,894.821 205.5,846.5C 303.696,827.727 401.696,808.727 499.5,789.5C 580.771,743.529 661.771,697.029 742.5,650C 743.486,639.916 743.819,629.749 743.5,619.5C 777.806,639.322 812.139,659.155 846.5,679C 852.097,680.091 857.43,679.424 862.5,677C 872.162,667.162 871.828,657.829 861.5,649C 821.94,626.392 782.607,603.559 743.5,580.5C 743.5,552.5 743.5,524.5 743.5,496.5 Z"/></g>
<g><path style="opacity:1" fill="#d8211b" d="M 743.5,619.5 C 743.819,629.749 743.486,639.916 742.5,650C 661.771,697.029 580.771,743.529 499.5,789.5C 499.5,736.5 499.5,683.5 499.5,630.5C 557.702,629.067 604.369,605.4 639.5,559.5C 674.194,579.512 708.861,599.512 743.5,619.5 Z"/></g>
<g><path style="opacity:0.997" fill="#002598" d="M 256.5,571.5 C 256.333,597.502 256.5,623.502 257,649.5C 337.643,696.569 418.476,743.236 499.5,789.5C 401.696,808.727 303.696,827.727 205.5,846.5C 138.243,790.403 91.076,720.403 64,636.5C 60.1809,623.887 56.6809,611.22 53.5,598.5C 121.171,589.595 188.838,580.595 256.5,571.5 Z"/></g>
<g><path style="opacity:1" fill="#fafbff" d="M 415.5,851.5 C 423.174,851.334 430.841,851.5 438.5,852C 443.235,853.068 446.402,855.901 448,860.5C 450.863,869.492 449.363,877.658 443.5,885C 441.283,886.275 438.949,887.275 436.5,888C 429.508,888.5 422.508,888.666 415.5,888.5C 415.5,876.167 415.5,863.833 415.5,851.5 Z"/></g>
<g><path style="opacity:1" fill="#f8f9ff" d="M 464.5,851.5 C 467.448,851.223 470.281,851.556 473,852.5C 477.875,864.291 483.042,875.958 488.5,887.5C 485.833,888.833 483.167,888.833 480.5,887.5C 479.167,884.833 477.833,882.167 476.5,879.5C 472.555,878.509 468.555,878.176 464.5,878.5C 464.358,872.441 467.358,869.774 473.5,870.5C 472.167,867.5 470.833,864.5 469.5,861.5C 468.998,860.479 468.332,860.312 467.5,861C 463.935,869.857 460.269,878.69 456.5,887.5C 454.257,888.474 451.924,888.808 449.5,888.5C 454.22,876.06 459.22,863.726 464.5,851.5 Z"/></g>
<g><path style="opacity:1" fill="#fafbff" d="M 484.5,851.5 C 493.833,851.5 503.167,851.5 512.5,851.5C 512.5,853.5 512.5,855.5 512.5,857.5C 508.833,857.5 505.167,857.5 501.5,857.5C 501.5,867.833 501.5,878.167 501.5,888.5C 499.167,888.5 496.833,888.5 494.5,888.5C 494.5,878.167 494.5,867.833 494.5,857.5C 491.167,857.5 487.833,857.5 484.5,857.5C 484.5,855.5 484.5,853.5 484.5,851.5 Z"/></g>
<g><path style="opacity:1" fill="#f8f9ff" d="M 523.5,851.5 C 526.572,851.183 529.572,851.516 532.5,852.5C 538.071,864.303 543.071,876.303 547.5,888.5C 545.143,888.663 542.81,888.497 540.5,888C 538.765,885.363 537.432,882.53 536.5,879.5C 532.167,878.833 527.833,878.167 523.5,877.5C 524.723,872.231 528.056,870.064 533.5,871C 531.811,867.121 529.978,863.288 528,859.5C 523.612,868.944 519.778,878.611 516.5,888.5C 513.753,888.813 511.086,888.48 508.5,887.5C 514.071,875.697 519.071,863.697 523.5,851.5 Z"/></g>
<g><path style="opacity:1" fill="#fafbff" d="M 552.5,851.5 C 561.235,851.124 569.902,851.624 578.5,853C 583.843,857.019 586.176,862.352 585.5,869C 586.601,879.15 582.268,885.483 572.5,888C 565.842,888.5 559.175,888.666 552.5,888.5C 552.5,876.167 552.5,863.833 552.5,851.5 Z"/></g>
<g><path style="opacity:1" fill="#fbfcff" d="M 599.5,851.5 C 620.54,848.041 629.373,856.707 626,877.5C 625.394,880.548 623.894,883.048 621.5,885C 598.878,893.38 588.711,885.547 591,861.5C 592.978,857.362 595.811,854.029 599.5,851.5 Z"/></g>
<g><path style="opacity:1" fill="#f8faff" d="M 645.5,850.5 C 651.303,850.209 656.97,850.875 662.5,852.5C 662.5,854.5 662.5,856.5 662.5,858.5C 656.87,857.479 651.204,857.313 645.5,858C 636.506,865.153 636.173,872.819 644.5,881C 647.738,882.368 651.072,882.701 654.5,882C 655.444,879.281 655.777,876.448 655.5,873.5C 653.076,873.808 650.743,873.474 648.5,872.5C 649.747,870.677 650.414,868.677 650.5,866.5C 654.5,866.5 658.5,866.5 662.5,866.5C 662.83,873.2 662.497,879.866 661.5,886.5C 639.824,892.767 629.991,884.767 632,862.5C 634.443,856.051 638.943,852.051 645.5,850.5 Z"/></g>
<g><path style="opacity:1" fill="#c2d0ff" d="M 342.5,852.5 C 342.168,864.186 342.501,875.852 343.5,887.5C 344.182,886.757 344.849,886.091 345.5,885.5C 345.5,886.5 345.5,887.5 345.5,888.5C 344.167,888.5 342.833,888.5 341.5,888.5C 341.172,876.322 341.505,864.322 342.5,852.5 Z"/></g>
<g><path style="opacity:1" fill="#f6f8ff" d="M 342.5,852.5 C 343.833,852.5 345.167,852.5 346.5,852.5C 346.334,856.846 346.501,861.179 347,865.5C 356.9,861.033 362.4,864.2 363.5,875C 363.376,885.131 358.376,889.464 348.5,888C 347.299,887.097 346.465,885.931 346,884.5C 345.601,884.728 345.435,885.062 345.5,885.5C 344.849,886.091 344.182,886.757 343.5,887.5C 342.501,875.852 342.168,864.186 342.5,852.5 Z"/></g>
<g><path style="opacity:1" fill="#a7bbff" d="M 423.5,857.5 C 423.5,865.5 423.5,873.5 423.5,881.5C 426.5,881.5 429.5,881.5 432.5,881.5C 429.375,882.479 426.042,882.813 422.5,882.5C 422.174,873.983 422.507,865.65 423.5,857.5 Z"/></g>
<g><path style="opacity:1" fill="#809dff" d="M 423.5,857.5 C 439.461,855.624 444.961,862.29 440,877.5C 438.117,880.024 435.617,881.358 432.5,881.5C 429.5,881.5 426.5,881.5 423.5,881.5C 423.5,873.5 423.5,865.5 423.5,857.5 Z"/></g>
<g><path style="opacity:1" fill="#819dff" d="M 559.5,857.5 C 574.002,854.51 580.169,860.176 578,874.5C 577.208,876.587 576.041,878.421 574.5,880C 569.628,881.388 564.628,881.888 559.5,881.5C 559.5,873.5 559.5,865.5 559.5,857.5 Z"/></g>
<g><path style="opacity:1" fill="#829eff" d="M 603.5,857.5 C 618.264,856.649 623.097,863.316 618,877.5C 614.65,882.083 610.15,883.583 604.5,882C 601.667,880.5 599.5,878.333 598,875.5C 597.333,871.5 597.333,867.5 598,863.5C 599.36,860.977 601.193,858.977 603.5,857.5 Z"/></g>
<g><path style="opacity:1" fill="#f7f9ff" d="M 367.5,863.5 C 369.144,863.286 370.644,863.62 372,864.5C 373.874,870.624 376.041,876.624 378.5,882.5C 380.959,876.624 383.126,870.624 385,864.5C 386.388,863.446 387.888,863.28 389.5,864C 385.672,874.15 381.838,884.317 378,894.5C 375.592,897.62 372.426,898.953 368.5,898.5C 368.343,897.127 368.51,895.793 369,894.5C 370.388,895.554 371.888,895.72 373.5,895C 374.764,893.139 375.764,891.139 376.5,889C 373.394,880.514 370.394,872.014 367.5,863.5 Z"/></g>
<g><path style="opacity:1" fill="#839fff" d="M 349.5,866.5 C 353.639,865.704 356.805,867.037 359,870.5C 360.472,876.076 359.305,880.909 355.5,885C 352.044,886.123 349.21,885.29 347,882.5C 346.333,878.167 346.333,873.833 347,869.5C 348.045,868.627 348.878,867.627 349.5,866.5 Z"/></g>
</svg>
