<svg version="1.1" id="Layer_1" xmlns="http://www.w3.org/2000/svg" xmlns:xlink="http://www.w3.org/1999/xlink" x="0px" y="0px"
	 width="100%" viewBox="0 0 500 264" enable-background="new 0 0 500 264" xml:space="preserve">
<path fill="#000000" opacity="1.000000" stroke="none" 
	d="
M372.000000,265.000000 
	C248.000015,265.000000 124.500046,265.000000 1.000050,265.000000 
	C1.000033,177.000031 1.000033,89.000076 1.000017,1.000085 
	C167.666595,1.000057 334.333191,1.000057 500.999817,1.000028 
	C500.999878,88.999916 500.999878,176.999832 500.999939,264.999878 
	C458.166656,265.000000 415.333344,265.000000 372.000000,265.000000 
M150.769348,130.615417 
	C150.787048,94.406975 150.804733,58.198528 150.958267,21.193323 
	C150.108658,12.512002 146.711578,8.997403 137.644424,9.145790 
	C131.169724,9.251751 125.904701,12.815956 125.947037,22.382341 
	C126.103004,57.622749 125.998207,92.864281 126.043816,128.105316 
	C126.046082,129.857834 126.234589,131.728226 126.859352,133.341156 
	C129.405060,139.913452 132.591934,140.417282 141.382156,139.977951 
	C146.082916,139.743027 149.680267,135.986435 150.769348,130.615417 
M372.783997,174.055664 
	C370.003845,176.062988 367.007629,177.831284 364.479187,180.117065 
	C349.766357,193.417953 347.566223,210.244263 352.783203,228.074951 
	C357.467682,244.085709 369.098541,253.191254 385.662048,256.070129 
	C401.523346,258.826965 415.587799,255.767502 427.273956,244.195114 
	C437.875366,233.696915 440.376709,220.419098 438.766754,206.457291 
	C437.446899,195.011169 432.662659,184.809494 422.635132,177.941757 
	C407.039124,167.260269 390.531952,167.605988 372.783997,174.055664 
M234.740723,191.901138 
	C238.722534,192.291687 242.704346,192.682236 246.993729,193.102951 
	C246.993729,186.646652 247.144623,180.990677 246.868698,175.355576 
	C246.812317,174.203918 245.256195,172.281326 244.218399,172.156860 
	C236.556213,171.238098 228.760941,169.620941 221.178070,170.256912 
	C208.626953,171.309555 196.534286,174.688049 193.280289,192.534515 
	C191.870880,200.264435 194.442520,213.611755 203.061554,217.538025 
	C208.805298,220.154495 214.724335,222.388794 220.446121,225.049622 
	C222.952042,226.214981 225.161362,228.018127 228.115891,229.925858 
	C216.260941,239.579254 204.635712,233.055176 193.306793,231.884674 
	C193.306793,239.934769 193.306793,247.354706 193.306793,255.003922 
	C199.940735,255.683807 206.303925,256.848358 212.666275,256.843750 
	C219.017151,256.839172 225.450836,256.099884 231.698486,254.901825 
	C241.709457,252.982117 251.243927,243.760559 251.887589,235.236176 
	C253.015991,220.291855 251.555115,211.764252 237.611435,204.985901 
	C232.364960,202.435501 226.829834,200.484131 221.503632,198.087799 
	C220.488388,197.631027 219.179382,196.352646 219.199219,195.480469 
	C219.219467,194.590866 220.605591,193.137833 221.575455,192.967728 
	C225.668076,192.249939 229.828506,191.918869 234.740723,191.901138 
M303.752930,254.994034 
	C313.874084,255.886810 323.921265,255.900726 333.690002,252.668274 
	C333.690002,244.047882 333.690002,235.623489 333.690002,226.616440 
	C331.410767,227.174820 329.477112,227.446030 327.697052,228.121887 
	C321.927979,230.312317 316.230072,232.644012 309.836670,231.010696 
	C298.978546,228.236771 290.943146,217.194824 295.237579,206.407349 
	C299.105591,196.690948 310.819672,191.491089 321.422638,194.785812 
	C325.409882,196.024826 329.412048,197.215820 333.829407,198.556808 
	C333.829407,188.834702 333.829407,180.202560 333.829407,171.454895 
	C322.967621,167.782532 311.812256,166.433868 300.901245,169.358597 
	C294.204163,171.153763 287.409088,174.508743 282.013550,178.848557 
	C269.271179,189.097656 266.533264,203.723267 268.214966,219.038849 
	C269.171539,227.750717 272.357300,235.970673 278.958008,242.580338 
	C285.697723,249.329163 293.767303,253.028717 303.752930,254.994034 
M61.055679,232.256561 
	C71.285667,254.273529 97.852623,260.045563 122.730469,252.492691 
	C122.730469,244.076004 122.730469,235.640121 122.730469,226.332718 
	C118.143089,227.853638 114.074928,229.314804 109.939819,230.552261 
	C97.719673,234.209122 85.795998,226.347458 83.601173,216.699722 
	C80.401115,202.633331 94.766136,190.369965 109.833427,194.380569 
	C114.067986,195.507706 118.181206,197.090698 122.816605,198.618332 
	C122.816605,188.858673 122.816605,180.236755 122.816605,171.298492 
	C112.792519,168.593231 102.825317,166.941101 92.366226,168.926376 
	C81.140350,171.057190 71.508080,175.707474 65.019913,185.294556 
	C55.180489,199.833557 54.511959,215.398727 61.055679,232.256561 
M360.172241,9.036955 
	C350.696411,8.551277 345.773132,14.195342 345.860046,22.908184 
	C346.209045,57.881332 346.095673,92.860435 345.929108,127.836273 
	C345.894867,135.030014 349.095306,138.109100 352.709320,139.763351 
	C357.042206,141.746689 365.742981,139.903275 368.136292,136.073502 
	C369.905731,133.242004 370.847443,129.425247 370.866455,126.040184 
	C371.058197,91.897408 370.986816,57.753136 370.980804,23.609285 
	C370.979401,15.769982 369.477905,11.259086 360.172241,9.036955 
M157.517609,171.002777 
	C154.090317,171.002777 150.663040,171.002777 147.384460,171.002777 
	C147.384460,199.399460 147.384460,227.109024 147.384460,254.735626 
	C155.372421,254.735626 162.973267,254.735626 170.702148,254.735626 
	C170.702148,226.768875 170.702148,199.060226 170.702148,171.002777 
	C166.442017,171.002777 162.474716,171.002777 157.517609,171.002777 
M291.008026,98.492508 
	C291.006714,102.324677 290.904694,106.160187 291.031952,109.988083 
	C291.164124,113.964157 292.527069,117.258713 296.427032,119.156189 
	C306.480713,124.047707 315.868958,118.515915 315.950989,107.398964 
	C316.069031,91.404694 316.053314,75.408440 315.950073,59.413960 
	C315.897430,51.254803 311.201294,46.966999 302.814178,47.013653 
	C295.233795,47.055817 291.029083,51.477375 291.014587,59.506458 
	C290.991730,72.169235 291.008209,84.832085 291.008026,98.492508 
M414.277954,47.013863 
	C406.575104,47.019615 401.120880,50.696346 401.069946,56.507080 
	C400.912292,74.502319 400.952332,92.500206 401.059082,110.496208 
	C401.085754,114.993347 403.368927,118.502182 407.739441,119.805954 
	C418.647614,123.059959 425.959015,117.518555 425.973541,106.235298 
	C425.992645,91.404747 425.990265,76.574135 425.973877,61.743580 
	C425.963348,52.221348 424.211945,49.870129 414.277954,47.013863 
M71.012886,84.500000 
	C71.013214,92.494972 70.844307,100.494987 71.082199,108.482880 
	C71.209435,112.755379 71.965607,117.004951 76.565468,119.189522 
	C86.730576,124.017174 95.962440,118.408592 95.978668,107.323074 
	C95.999649,92.998787 96.031548,78.674141 95.940353,64.350410 
	C95.923889,61.765724 95.519470,59.145603 94.977776,56.609421 
	C93.468231,49.541843 88.255295,46.086700 80.800865,47.023468 
	C74.750252,47.783821 71.063911,52.246662 71.024490,59.015476 
	C70.976952,67.176727 71.013016,75.338470 71.012886,84.500000 
M181.003479,71.503067 
	C181.003616,82.991058 181.253586,94.486137 180.927460,105.964859 
	C180.649933,115.732498 184.265915,121.085556 194.778992,120.110466 
	C201.307220,119.504959 205.795303,116.358284 205.891068,109.828171 
	C206.142532,92.683121 206.162216,75.529068 205.893860,58.384552 
	C205.774658,50.768955 200.568130,46.795456 192.291763,47.012436 
	C185.261169,47.196758 181.095520,51.609039 181.013657,59.017319 
	C180.971344,62.846191 181.004440,66.675896 181.003479,71.503067 
M236.009491,84.976517 
	C236.007751,92.784218 235.991638,100.591949 236.008362,108.399612 
	C236.024719,116.033424 239.460800,119.938293 246.167374,119.998993 
	C256.822418,120.095436 260.877686,116.948593 260.967438,108.362335 
	C261.040375,101.386024 260.993774,94.408287 260.973999,87.431252 
	C260.955414,80.875664 257.305878,75.779358 252.173187,75.084717 
	C242.296783,73.748085 238.493011,75.867989 236.009491,84.976517 
M480.982056,97.499626 
	C480.981171,94.004089 481.085602,90.504723 480.958710,87.013771 
	C480.639923,78.241669 476.148773,74.769691 465.598663,75.005241 
	C459.443024,75.142685 456.010925,79.500725 456.003510,87.206032 
	C455.997101,93.864189 455.996826,100.522362 456.002899,107.180519 
	C456.012909,118.220375 463.395233,123.506149 473.752502,119.518364 
	C475.870117,118.703026 478.398956,116.451218 478.892822,114.414162 
	C480.147034,109.240906 480.355133,103.814041 480.982056,97.499626 
M15.998891,98.496597 
	C16.000301,102.654724 15.917503,106.815018 16.024664,110.970413 
	C16.155519,116.044601 20.021883,119.823021 25.122919,119.987312 
	C27.116774,120.051529 29.116617,120.060493 31.109837,119.987801 
	C35.931385,119.811958 39.887680,116.050697 39.956734,111.243637 
	C40.083328,102.430214 40.125454,93.611107 39.951351,84.799339 
	C39.823624,78.334702 36.155315,75.044670 29.613144,75.004677 
	C28.282595,74.996544 26.951551,74.982407 25.621420,75.007431 
	C19.856562,75.115883 16.081026,78.826408 16.011375,84.526733 
	C15.958545,88.850540 15.999610,93.175507 15.998891,98.496597 
z"/>
<path fill="#00A4DE" opacity="1.000000" stroke="none" 
	d="
M373.160461,173.978256 
	C390.531952,167.605988 407.039124,167.260269 422.635132,177.941757 
	C432.662659,184.809494 437.446899,195.011169 438.766754,206.457291 
	C440.376709,220.419098 437.875366,233.696915 427.273956,244.195114 
	C415.587799,255.767502 401.523346,258.826965 385.662048,256.070129 
	C369.098541,253.191254 357.467682,244.085709 352.783203,228.074951 
	C347.566223,210.244263 349.766357,193.417953 364.479187,180.117065 
	C367.007629,177.831284 370.003845,176.062988 373.160461,173.978256 
M410.105164,203.496460 
	C404.327484,194.493408 394.218353,191.622971 385.811066,197.098938 
	C376.497986,203.164902 373.047913,212.740082 378.412506,221.811493 
	C383.451721,230.332733 394.232819,235.753357 403.851776,229.048752 
	C411.978668,223.384140 417.153442,214.711411 410.105164,203.496460 
z"/>
<path fill="#00A4DE" opacity="1.000000" stroke="none" 
	d="
M234.352432,191.673737 
	C229.828506,191.918869 225.668076,192.249939 221.575455,192.967728 
	C220.605591,193.137833 219.219467,194.590866 219.199219,195.480469 
	C219.179382,196.352646 220.488388,197.631027 221.503632,198.087799 
	C226.829834,200.484131 232.364960,202.435501 237.611435,204.985901 
	C251.555115,211.764252 253.015991,220.291855 251.887589,235.236176 
	C251.243927,243.760559 241.709457,252.982117 231.698486,254.901825 
	C225.450836,256.099884 219.017151,256.839172 212.666275,256.843750 
	C206.303925,256.848358 199.940735,255.683807 193.306793,255.003922 
	C193.306793,247.354706 193.306793,239.934769 193.306793,231.884674 
	C204.635712,233.055176 216.260941,239.579254 228.115891,229.925858 
	C225.161362,228.018127 222.952042,226.214981 220.446121,225.049622 
	C214.724335,222.388794 208.805298,220.154495 203.061554,217.538025 
	C194.442520,213.611755 191.870880,200.264435 193.280289,192.534515 
	C196.534286,174.688049 208.626953,171.309555 221.178070,170.256912 
	C228.760941,169.620941 236.556213,171.238098 244.218399,172.156860 
	C245.256195,172.281326 246.812317,174.203918 246.868698,175.355576 
	C247.144623,180.990677 246.993729,186.646652 246.993729,193.102951 
	C242.704346,192.682236 238.722534,192.291687 234.352432,191.673737 
z"/>
<path fill="#00A4DE" opacity="1.000000" stroke="none" 
	d="
M303.308685,254.990875 
	C293.767303,253.028717 285.697723,249.329163 278.958008,242.580338 
	C272.357300,235.970673 269.171539,227.750717 268.214966,219.038849 
	C266.533264,203.723267 269.271179,189.097656 282.013550,178.848557 
	C287.409088,174.508743 294.204163,171.153763 300.901245,169.358597 
	C311.812256,166.433868 322.967621,167.782532 333.829407,171.454895 
	C333.829407,180.202560 333.829407,188.834702 333.829407,198.556808 
	C329.412048,197.215820 325.409882,196.024826 321.422638,194.785812 
	C310.819672,191.491089 299.105591,196.690948 295.237579,206.407349 
	C290.943146,217.194824 298.978546,228.236771 309.836670,231.010696 
	C316.230072,232.644012 321.927979,230.312317 327.697052,228.121887 
	C329.477112,227.446030 331.410767,227.174820 333.690002,226.616440 
	C333.690002,235.623489 333.690002,244.047882 333.690002,252.668274 
	C323.921265,255.900726 313.874084,255.886810 303.308685,254.990875 
z"/>
<path fill="#00A4DE" opacity="1.000000" stroke="none" 
	d="
M60.982773,231.872803 
	C54.511959,215.398727 55.180489,199.833557 65.019913,185.294556 
	C71.508080,175.707474 81.140350,171.057190 92.366226,168.926376 
	C102.825317,166.941101 112.792519,168.593231 122.816605,171.298492 
	C122.816605,180.236755 122.816605,188.858673 122.816605,198.618332 
	C118.181206,197.090698 114.067986,195.507706 109.833427,194.380569 
	C94.766136,190.369965 80.401115,202.633331 83.601173,216.699722 
	C85.795998,226.347458 97.719673,234.209122 109.939819,230.552261 
	C114.074928,229.314804 118.143089,227.853638 122.730469,226.332718 
	C122.730469,235.640121 122.730469,244.076004 122.730469,252.492691 
	C97.852623,260.045563 71.285667,254.273529 60.982773,231.872803 
z"/>
<path fill="#00A4DE" opacity="1.000000" stroke="none" 
	d="
M360.589722,9.057594 
	C369.477905,11.259086 370.979401,15.769982 370.980804,23.609285 
	C370.986816,57.753136 371.058197,91.897408 370.866455,126.040184 
	C370.847443,129.425247 369.905731,133.242004 368.136292,136.073502 
	C365.742981,139.903275 357.042206,141.746689 352.709320,139.763351 
	C349.095306,138.109100 345.894867,135.030014 345.929108,127.836273 
	C346.095673,92.860435 346.209045,57.881332 345.860046,22.908184 
	C345.773132,14.195342 350.696411,8.551277 360.589722,9.057594 
z"/>
<path fill="#00A4DE" opacity="1.000000" stroke="none" 
	d="
M150.047150,131.113510 
	C149.680267,135.986435 146.082916,139.743027 141.382156,139.977951 
	C132.591934,140.417282 129.405060,139.913452 126.859352,133.341156 
	C126.234589,131.728226 126.046082,129.857834 126.043816,128.105316 
	C125.998207,92.864281 126.103004,57.622749 125.947037,22.382341 
	C125.904701,12.815956 131.169724,9.251751 137.644424,9.145790 
	C146.711578,8.997403 150.108658,12.512002 150.667664,21.604851 
	C150.377045,22.016378 149.931992,22.047735 149.695587,22.381836 
	C149.311127,23.697824 149.034363,24.679617 149.033615,25.661617 
	C149.008469,58.657463 148.997498,91.653343 149.048340,124.649132 
	C149.050537,126.072067 149.658020,127.494080 149.993088,129.282715 
	C150.017471,130.137115 150.032318,130.625320 150.047150,131.113510 
z"/>
<path fill="#00A5DE" opacity="1.000000" stroke="none" 
	d="
M158.012512,171.002777 
	C162.474716,171.002777 166.442017,171.002777 170.702148,171.002777 
	C170.702148,199.060226 170.702148,226.768875 170.702148,254.735626 
	C162.973267,254.735626 155.372421,254.735626 147.384460,254.735626 
	C147.384460,227.109024 147.384460,199.399460 147.384460,171.002777 
	C150.663040,171.002777 154.090317,171.002777 158.012512,171.002777 
z"/>
<path fill="#00A4DE" opacity="1.000000" stroke="none" 
	d="
M291.008026,97.993706 
	C291.008209,84.832085 290.991730,72.169235 291.014587,59.506458 
	C291.029083,51.477375 295.233795,47.055817 302.814178,47.013653 
	C311.201294,46.966999 315.897430,51.254803 315.950073,59.413960 
	C316.053314,75.408440 316.069031,91.404694 315.950989,107.398964 
	C315.868958,118.515915 306.480713,124.047707 296.427032,119.156189 
	C292.527069,117.258713 291.164124,113.964157 291.031952,109.988083 
	C290.904694,106.160187 291.006714,102.324677 291.008026,97.993706 
z"/>
<path fill="#00A4DE" opacity="1.000000" stroke="none" 
	d="
M414.703522,47.017437 
	C424.211945,49.870129 425.963348,52.221348 425.973877,61.743580 
	C425.990265,76.574135 425.992645,91.404747 425.973541,106.235298 
	C425.959015,117.518555 418.647614,123.059959 407.739441,119.805954 
	C403.368927,118.502182 401.085754,114.993347 401.059082,110.496208 
	C400.952332,92.500206 400.912292,74.502319 401.069946,56.507080 
	C401.120880,50.696346 406.575104,47.019615 414.703522,47.017437 
z"/>
<path fill="#00A3DD" opacity="1.000000" stroke="none" 
	d="
M71.012886,84.000000 
	C71.013016,75.338470 70.976952,67.176727 71.024490,59.015476 
	C71.063911,52.246662 74.750252,47.783821 80.800865,47.023468 
	C88.255295,46.086700 93.468231,49.541843 94.977776,56.609421 
	C95.519470,59.145603 95.923889,61.765724 95.940353,64.350410 
	C96.031548,78.674141 95.999649,92.998787 95.978668,107.323074 
	C95.962440,118.408592 86.730576,124.017174 76.565468,119.189522 
	C71.965607,117.004951 71.209435,112.755379 71.082199,108.482880 
	C70.844307,100.494987 71.013214,92.494972 71.012886,84.000000 
z"/>
<path fill="#00A4DE" opacity="1.000000" stroke="none" 
	d="
M181.003479,71.004150 
	C181.004440,66.675896 180.971344,62.846191 181.013657,59.017319 
	C181.095520,51.609039 185.261169,47.196758 192.291763,47.012436 
	C200.568130,46.795456 205.774658,50.768955 205.893860,58.384552 
	C206.162216,75.529068 206.142532,92.683121 205.891068,109.828171 
	C205.795303,116.358284 201.307220,119.504959 194.778992,120.110466 
	C184.265915,121.085556 180.649933,115.732498 180.927460,105.964859 
	C181.253586,94.486137 181.003616,82.991058 181.003479,71.004150 
M203.993195,81.500107 
	C203.993195,90.012024 203.993195,98.523941 203.993195,107.035858 
	C204.244186,107.031128 204.495178,107.026398 204.746170,107.021667 
	C204.746170,91.604668 204.746170,76.187668 204.746170,60.770664 
	C204.495178,60.766697 204.244171,60.762733 203.993179,60.758766 
	C203.993179,67.339256 203.993179,73.919746 203.993195,81.500107 
z"/>
<path fill="#00A4DE" opacity="1.000000" stroke="none" 
	d="
M236.012573,84.533043 
	C238.493011,75.867989 242.296783,73.748085 252.173187,75.084717 
	C257.305878,75.779358 260.955414,80.875664 260.973999,87.431252 
	C260.993774,94.408287 261.040375,101.386024 260.967438,108.362335 
	C260.877686,116.948593 256.822418,120.095436 246.167374,119.998993 
	C239.460800,119.938293 236.024719,116.033424 236.008362,108.399612 
	C235.991638,100.591949 236.007751,92.784218 236.012573,84.533043 
z"/>
<path fill="#00A4DE" opacity="1.000000" stroke="none" 
	d="
M480.982056,97.994171 
	C480.355133,103.814041 480.147034,109.240906 478.892822,114.414162 
	C478.398956,116.451218 475.870117,118.703026 473.752502,119.518364 
	C463.395233,123.506149 456.012909,118.220375 456.002899,107.180519 
	C455.996826,100.522362 455.997101,93.864189 456.003510,87.206032 
	C456.010925,79.500725 459.443024,75.142685 465.598663,75.005241 
	C476.148773,74.769691 480.639923,78.241669 480.958710,87.013771 
	C481.085602,90.504723 480.981171,94.004089 480.982056,97.994171 
z"/>
<path fill="#00A4DE" opacity="1.000000" stroke="none" 
	d="
M15.998892,97.998276 
	C15.999610,93.175507 15.958545,88.850540 16.011375,84.526733 
	C16.081026,78.826408 19.856562,75.115883 25.621420,75.007431 
	C26.951551,74.982407 28.282595,74.996544 29.613144,75.004677 
	C36.155315,75.044670 39.823624,78.334702 39.951351,84.799339 
	C40.125454,93.611107 40.083328,102.430214 39.956734,111.243637 
	C39.887680,116.050697 35.931385,119.811958 31.109837,119.987801 
	C29.116617,120.060493 27.116774,120.051529 25.122919,119.987312 
	C20.021883,119.823021 16.155519,116.044601 16.024664,110.970413 
	C15.917503,106.815018 16.000301,102.654724 15.998892,97.998276 
z"/>
<path fill="#009ADA" opacity="1.000000" stroke="none" 
	d="
M149.931992,22.047735 
	C149.931992,22.047735 150.377045,22.016378 150.599731,22.003231 
	C150.804733,58.198528 150.787048,94.406975 150.408249,130.864471 
	C150.032318,130.625320 150.017471,130.137115 149.997070,128.821930 
	C149.971680,92.679214 149.951828,57.363472 149.931992,22.047735 
z"/>
<path fill="#000000" opacity="1.000000" stroke="none" 
	d="
M410.360657,203.778549 
	C417.153442,214.711411 411.978668,223.384140 403.851776,229.048752 
	C394.232819,235.753357 383.451721,230.332733 378.412506,221.811493 
	C373.047913,212.740082 376.497986,203.164902 385.811066,197.098938 
	C394.218353,191.622971 404.327484,194.493408 410.360657,203.778549 
z"/>
<path fill="#005BC3" opacity="1.000000" stroke="none" 
	d="
M149.695587,22.381836 
	C149.951828,57.363472 149.971680,92.679214 149.987518,128.455734 
	C149.658020,127.494080 149.050537,126.072067 149.048340,124.649132 
	C148.997498,91.653343 149.008469,58.657463 149.033615,25.661617 
	C149.034363,24.679617 149.311127,23.697824 149.695587,22.381836 
z"/>
<path fill="#00FEFF" opacity="1.000000" stroke="none" 
	d="
M203.993195,81.000168 
	C203.993179,73.919746 203.993179,67.339256 203.993179,60.758766 
	C204.244171,60.762733 204.495178,60.766697 204.746170,60.770664 
	C204.746170,76.187668 204.746170,91.604668 204.746170,107.021667 
	C204.495178,107.026398 204.244186,107.031128 203.993195,107.035858 
	C203.993195,98.523941 203.993195,90.012024 203.993195,81.000168 
z"/>
</svg>