<?xml version="1.0" encoding="UTF-8"?>
<!DOCTYPE svg PUBLIC "-//W3C//DTD SVG 1.1//EN" "http://www.w3.org/Graphics/SVG/1.1/DTD/svg11.dtd">
<svg xmlns="http://www.w3.org/2000/svg" version="1.1" width="2560px" height="1351px" style="shape-rendering:geometricPrecision; text-rendering:geometricPrecision; image-rendering:optimizeQuality; fill-rule:evenodd; clip-rule:evenodd" xmlns:xlink="http://www.w3.org/1999/xlink">
<g><path style="opacity:0.998" fill="#049ed8" d="M 665.5,-0.5 C 666.833,-0.5 668.167,-0.5 669.5,-0.5C 693.197,1.77368 710.03,13.7737 720,35.5C 721.313,39.4204 722.313,43.4204 723,47.5C 723.667,250.167 723.667,452.833 723,655.5C 716.268,685.065 697.768,700.732 667.5,702.5C 637.241,700.742 618.741,685.075 612,655.5C 611.333,452.5 611.333,249.5 612,46.5C 615.711,27.4629 626.211,13.6295 643.5,5C 650.727,2.19313 658.061,0.359798 665.5,-0.5 Z"/></g>
<g><path style="opacity:0.998" fill="#049ed8" d="M 1889.5,-0.5 C 1890.83,-0.5 1892.17,-0.5 1893.5,-0.5C 1914.05,1.36023 1929.88,11.0269 1941,28.5C 1943.8,34.2316 1945.8,40.2316 1947,46.5C 1947.67,249.5 1947.67,452.5 1947,655.5C 1940.26,685.075 1921.76,700.742 1891.5,702.5C 1861.25,700.752 1842.75,685.085 1836,655.5C 1835.33,452.833 1835.33,250.167 1836,47.5C 1839.29,27.8926 1849.79,13.7259 1867.5,5C 1874.73,2.19313 1882.06,0.359798 1889.5,-0.5 Z"/></g>
<g><path style="opacity:0.993" fill="#049fd9" d="M 354.5,209.5 C 388.298,208.815 409.132,224.815 417,257.5C 417.667,352.833 417.667,448.167 417,543.5C 410.708,573.626 392.208,589.626 361.5,591.5C 331.687,589.856 313.187,574.523 306,545.5C 305.333,448.833 305.333,352.167 306,255.5C 312.355,229.641 328.522,214.308 354.5,209.5 Z"/></g>
<g><path style="opacity:0.993" fill="#049fd9" d="M 966.5,209.5 C 995.621,208.133 1015.79,220.8 1027,247.5C 1027.79,250.471 1028.46,253.471 1029,256.5C 1029.67,352.5 1029.67,448.5 1029,544.5C 1022.26,574.075 1003.76,589.742 973.5,591.5C 943.249,589.752 924.749,574.085 918,544.5C 917.333,448.833 917.333,353.167 918,257.5C 923.435,230.564 939.602,214.564 966.5,209.5 Z"/></g>
<g><path style="opacity:0.993" fill="#049fd9" d="M 1578.5,209.5 C 1603.11,208.219 1621.94,217.885 1635,238.5C 1638.01,244.517 1640.01,250.851 1641,257.5C 1641.67,353.167 1641.67,448.833 1641,544.5C 1634.25,574.085 1615.75,589.752 1585.5,591.5C 1555.24,589.742 1536.74,574.075 1530,544.5C 1529.33,448.5 1529.33,352.5 1530,256.5C 1535.91,230.092 1552.07,214.425 1578.5,209.5 Z"/></g>
<g><path style="opacity:0.993" fill="#049fd9" d="M 2190.5,209.5 C 2214.39,207.725 2232.89,216.725 2246,236.5C 2249.52,242.394 2251.85,248.727 2253,255.5C 2253.67,352.167 2253.67,448.833 2253,545.5C 2245.81,574.523 2227.31,589.856 2197.5,591.5C 2166.8,589.636 2148.3,573.636 2142,543.5C 2141.33,448.167 2141.33,352.833 2142,257.5C 2147.47,230.531 2163.63,214.531 2190.5,209.5 Z"/></g>
<g><path style="opacity:0.992" fill="#049fd9" d="M -0.5,546.5 C -0.5,500.5 -0.5,454.5 -0.5,408.5C 10.441,372.847 34.441,358.347 71.5,365C 91.6038,372.103 104.437,385.937 110,406.5C 111.141,429.96 111.641,453.46 111.5,477C 111.636,500.868 111.136,524.701 110,548.5C 100.198,579.494 79.0312,593.66 46.5,591C 21.7422,585.644 6.07558,570.811 -0.5,546.5 Z"/></g>
<g><path style="opacity:0.992" fill="#049fd9" d="M 2559.5,408.5 C 2559.5,454.5 2559.5,500.5 2559.5,546.5C 2549.93,578.642 2528.26,593.476 2494.5,591C 2470.65,586.155 2455.49,571.988 2449,548.5C 2447.86,524.701 2447.36,500.868 2447.5,477C 2447.67,455.167 2447.83,433.333 2448,411.5C 2454.53,381.301 2473.2,364.968 2504,362.5C 2533.51,364.806 2552.01,380.139 2559.5,408.5 Z"/></g>
<g><path style="opacity:0.996" fill="#049fd9" d="M 1275.5,362.5 C 1298.94,362.131 1316.77,371.798 1329,391.5C 1331.85,396.866 1333.85,402.532 1335,408.5C 1335.98,455.871 1335.64,503.204 1334,550.5C 1325.2,576.647 1307.03,590.314 1279.5,591.5C 1249.69,589.856 1231.19,574.523 1224,545.5C 1223.33,499.833 1223.33,454.167 1224,408.5C 1230.69,381.3 1247.86,365.967 1275.5,362.5 Z"/></g>
<g><path style="opacity:0.993" fill="#049fd9" d="M 467.5,1350.5 C 467.167,1350.5 466.833,1350.5 466.5,1350.5C 401.946,1350.15 345.612,1328.65 297.5,1286C 247.79,1235.57 225.29,1174.73 230,1103.5C 237.685,1010.55 283.852,945.053 368.5,907C 422.272,887.043 477.272,883.043 533.5,895C 545.29,897.531 556.957,900.531 568.5,904C 569.829,944.1 569.829,984.266 568.5,1024.5C 527.057,1002.48 483.39,996.315 437.5,1006C 383.043,1023.88 354.71,1061.54 352.5,1119C 354.387,1175.83 382.054,1213.5 435.5,1232C 482.283,1242.46 526.783,1236.29 569,1213.5C 569.5,1253.83 569.667,1294.17 569.5,1334.5C 536.079,1344.4 502.079,1349.74 467.5,1350.5 Z"/></g>
<g><path style="opacity:0.994" fill="#049fd9" d="M 1109.5,1350.5 C 1108.83,1350.5 1108.17,1350.5 1107.5,1350.5C 1067.32,1349.54 1027.32,1345.37 987.5,1338C 986.504,1303.57 986.171,1269.07 986.5,1234.5C 1021.49,1244.39 1057.15,1250.05 1093.5,1251.5C 1113.05,1251.52 1132.05,1248.35 1150.5,1242C 1173.29,1231.62 1179.46,1215.12 1169,1192.5C 1161.22,1183.41 1151.72,1176.57 1140.5,1172C 1121.91,1165.47 1103.24,1159.14 1084.5,1153C 999.997,1121.49 970.163,1062.33 995,975.5C 1012.83,934.676 1043.33,908.509 1086.5,897C 1119.71,888.533 1153.38,886.2 1187.5,890C 1212.21,892.077 1236.54,896.244 1260.5,902.5C 1261.83,934.5 1261.83,966.5 1260.5,998.5C 1232.21,990.535 1203.37,985.868 1174,984.5C 1159.52,984.711 1145.36,986.877 1131.5,991C 1116.45,995.707 1107.45,1005.71 1104.5,1021C 1105.72,1033.45 1111.72,1042.78 1122.5,1049C 1129.6,1052.88 1136.93,1056.21 1144.5,1059C 1162.17,1064.67 1179.83,1070.33 1197.5,1076C 1277.59,1107.82 1307.09,1165.65 1286,1249.5C 1270.95,1289.55 1243.45,1317.38 1203.5,1333C 1173.06,1344.35 1141.73,1350.18 1109.5,1350.5 Z"/></g>
<g><path style="opacity:0.993" fill="#049fd9" d="M 1639.5,1350.5 C 1638.83,1350.5 1638.17,1350.5 1637.5,1350.5C 1566.5,1349.91 1506.33,1324.24 1457,1273.5C 1414.62,1223.01 1396.29,1164.68 1402,1098.5C 1412.35,1001.84 1462.85,936.342 1553.5,902C 1603.2,886.739 1653.53,884.406 1704.5,895C 1716.66,897.373 1728.66,900.373 1740.5,904C 1741.83,944.1 1741.83,984.266 1740.5,1024.5C 1695.49,1000.55 1648.49,995.388 1599.5,1009C 1550.43,1029.12 1525.43,1065.78 1524.5,1119C 1524.67,1165.37 1544.67,1200.04 1584.5,1223C 1614.18,1236.85 1645.18,1240.85 1677.5,1235C 1699.98,1231.62 1721.15,1224.45 1741,1213.5C 1741.5,1253.83 1741.67,1294.17 1741.5,1334.5C 1708.05,1344.23 1674.05,1349.56 1639.5,1350.5 Z"/></g>
<g><path style="opacity:0.994" fill="#049fd9" d="M 2094.5,1350.5 C 2094.17,1350.5 2093.83,1350.5 2093.5,1350.5C 2022.87,1349.8 1963.37,1323.8 1915,1272.5C 1867.05,1214.06 1849.72,1147.39 1863,1072.5C 1883.9,982.189 1938.74,923.689 2027.5,897C 2094.37,880.151 2158.04,888.151 2218.5,921C 2290.49,966.934 2327.49,1032.93 2329.5,1119C 2327.9,1205.9 2290.57,1272.23 2217.5,1318C 2179.18,1339.33 2138.18,1350.16 2094.5,1350.5 Z M 2086.5,1002.5 C 2134.22,1001.43 2170.39,1021.1 2195,1061.5C 2217.46,1107.76 2213.8,1151.76 2184,1193.5C 2150.57,1230.75 2109.41,1243.25 2060.5,1231C 2012.41,1214.57 1985.24,1181.07 1979,1130.5C 1976.27,1076.97 1998.44,1037.8 2045.5,1013C 2058.77,1007.43 2072.44,1003.93 2086.5,1002.5 Z"/></g>
<g><path style="opacity:0.993" fill="#049ed8" d="M 723.5,896.5 C 761.167,896.5 798.833,896.5 836.5,896.5C 836.5,1045.17 836.5,1193.83 836.5,1342.5C 798.833,1342.5 761.167,1342.5 723.5,1342.5C 723.5,1193.83 723.5,1045.17 723.5,896.5 Z"/></g>
</svg>
