<?xml version="1.0" encoding="UTF-8"?>
<svg version="1.1" xmlns="http://www.w3.org/2000/svg" width="1093" height="186">
<path d="M0 0 C13.85101514 17.73096818 12.30127244 43.86059607 9.734375 65 C7.87824995 78.63091831 4.01262536 92.62617748 -6.14453125 102.41796875 C-10.69206491 105.69847899 -15.19067518 106.03146703 -20.64575195 106.06079102 C-21.40416382 106.07232712 -22.16257568 106.08386322 -22.94396973 106.0957489 C-25.44313666 106.12994794 -27.94205719 106.14853496 -30.44140625 106.1640625 C-31.72690904 106.17441686 -31.72690904 106.17441686 -33.03838158 106.18498039 C-37.57335967 106.22076743 -42.10821414 106.24433245 -46.64331055 106.25805664 C-51.31427195 106.27460449 -55.98371941 106.33304133 -60.65417194 106.40120029 C-64.25828986 106.44608497 -67.86204772 106.4595583 -71.46642113 106.464674 C-73.18758696 106.47254407 -74.90874254 106.49211778 -76.62963295 106.52389717 C-91.75334544 106.78478031 -91.75334544 106.78478031 -96.97192383 102.33520508 C-99.35506853 99.73799129 -101.18372399 97.21287505 -102.328125 93.84765625 C-102.74191406 92.70683594 -102.74191406 92.70683594 -103.1640625 91.54296875 C-103.42445313 90.61226563 -103.68484375 89.6815625 -103.953125 88.72265625 C-104.31019531 87.47226563 -104.66726562 86.221875 -105.03515625 84.93359375 C-106.56836395 77.80860066 -106.30137379 70.47525322 -106.265625 63.22265625 C-106.26380219 62.46353943 -106.26197937 61.70442261 -106.26010132 60.92230225 C-106.19274861 44.31931139 -105.18718803 28.67920052 -96.35546875 14.08203125 C-89.51269677 7.36165032 -77.09020995 7.3153415 -67.94921875 5.98828125 C-66.29966799 5.7439581 -64.65017861 5.49922021 -63.00074768 5.25408936 C-59.55800074 4.74447151 -56.11442457 4.24099462 -52.67016602 3.74169922 C-48.27152375 3.10338377 -43.87562256 2.44798711 -39.48022366 1.78775406 C-36.07969959 1.27920901 -32.67776591 0.78065771 -29.27534676 0.28496552 C-27.65426684 0.04741513 -26.03366054 -0.19339236 -24.41357231 -0.43761444 C-22.14483382 -0.77826652 -19.87449987 -1.10513462 -17.60327148 -1.42871094 C-16.31581528 -1.61729675 -15.02835907 -1.80588257 -13.70188904 -2.00018311 C-9.09316597 -2.34092385 -3.99568618 -2.61317876 0 0 Z " fill="#000000" transform="translate(245.953125,28.27734375)"/>
<path d="M0 0 C9.24 0 18.48 0 28 0 C28 17.49 28 34.98 28 53 C43.51 53 59.02 53 75 53 C75 35.51 75 18.02 75 0 C88.86 0.495 88.86 0.495 103 1 C103 43.57 103 86.14 103 130 C93.76 130 84.52 130 75 130 C75 111.52 75 93.04 75 74 C59.49 74 43.98 74 28 74 C28 92.48 28 110.96 28 130 C18.76 130 9.52 130 0 130 C0 87.1 0 44.2 0 0 Z " fill="#000000" transform="translate(766,9)"/>
<path d="M0 0 C4.96963314 5.22448613 6.2476833 9.11086101 6.32226562 16.2878418 C6.33716034 17.37894005 6.33716034 17.37894005 6.35235596 18.49208069 C6.38152219 20.89449888 6.39519195 23.29665271 6.40625 25.69921875 C6.41776216 27.37587995 6.42927751 29.05254112 6.4407959 30.72920227 C6.46179595 34.245506 6.47349327 37.76171858 6.48046875 41.27807617 C6.49141491 45.7661042 6.53942385 50.25291144 6.59641266 54.74055767 C6.63382064 58.20574865 6.64408483 61.67065062 6.6471405 65.13602638 C6.65316322 66.78935204 6.66911762 68.44267445 6.69551086 70.0958004 C6.92595627 85.64356193 6.92595627 85.64356193 1.6739502 92.40364075 C-4.54756215 98.33677354 -13.50989252 100.26029669 -21.859375 100.23046875 C-23.78136719 100.22756836 -23.78136719 100.22756836 -25.7421875 100.22460938 C-26.40186523 100.21840576 -27.06154297 100.21220215 -27.74121094 100.20581055 C-29.73104859 100.18767275 -31.72101742 100.1865281 -33.7109375 100.18554688 C-53.81016178 100.09491911 -53.81016178 100.09491911 -58 98 C-58 112.19 -58 126.38 -58 141 C-62.269375 141.020625 -66.53875 141.04125 -70.9375 141.0625 C-72.95991821 141.07615601 -72.95991821 141.07615601 -75.02319336 141.09008789 C-76.6030603 141.09383423 -76.6030603 141.09383423 -78.21484375 141.09765625 C-79.29886475 141.10289307 -80.38288574 141.10812988 -81.49975586 141.11352539 C-84 141 -84 141 -85 140 C-85.09652596 138.12705216 -85.12187266 136.25041756 -85.12025452 134.37498474 C-85.12162918 133.15355774 -85.12300385 131.93213074 -85.12442017 130.6736908 C-85.12088056 129.30776953 -85.11724574 127.94184852 -85.11352539 126.57592773 C-85.11324352 125.14722699 -85.11340124 123.7185261 -85.1139679 122.28982544 C-85.11425589 118.39950028 -85.10835887 114.50920569 -85.10139394 110.61888766 C-85.0951607 106.55761795 -85.09455663 102.49634761 -85.09336853 98.43507385 C-85.09025512 90.73921067 -85.08204161 83.04336162 -85.07201904 75.34750468 C-85.06085819 66.58827886 -85.05534753 57.82905239 -85.05032361 49.06982124 C-85.03985901 31.04653947 -85.02225939 13.02327087 -85 -5 C-79.18766899 -5.2901728 -73.3750969 -5.57472215 -67.56225586 -5.85449219 C-65.59278282 -5.95002453 -63.62337837 -6.04698367 -61.65405273 -6.14550781 C-10.85291142 -8.68232914 -10.85291142 -8.68232914 0 0 Z M-58 13 C-58 35.11 -58 57.22 -58 80 C-38.84801727 81.76184318 -38.84801727 81.76184318 -21 78 C-18.8483222 74.89207426 -18.73858308 72.18750052 -18.70947266 68.46875 C-18.69671295 67.36080078 -18.68395325 66.25285156 -18.67080688 65.11132812 C-18.66858124 63.91958984 -18.66635559 62.72785156 -18.6640625 61.5 C-18.6574057 60.27216797 -18.6507489 59.04433594 -18.64389038 57.77929688 C-18.63376644 55.183609 -18.62907328 52.5878951 -18.62939453 49.9921875 C-18.62501672 46.0151912 -18.58867898 42.03930028 -18.55078125 38.0625 C-18.54491411 35.54167047 -18.54094403 33.02083566 -18.5390625 30.5 C-18.52469147 29.30826172 -18.51032043 28.11652344 -18.49551392 26.88867188 C-18.50166718 25.78072266 -18.50782043 24.67277344 -18.51416016 23.53125 C-18.51131012 22.55736328 -18.50846008 21.58347656 -18.50552368 20.58007812 C-19.14388 17.24926306 -20.37826579 16.08655697 -23 14 C-34.07248843 10.30917052 -46.3285724 13 -58 13 Z " fill="#000000" transform="translate(1087,40)"/>
<path d="M0 0 C1.9474839 -0.01441132 1.9474839 -0.01441132 3.93431091 -0.02911377 C5.33909935 -0.0339616 6.74388985 -0.03824047 8.14868164 -0.04199219 C8.86259127 -0.04481956 9.57650089 -0.04764694 10.31204414 -0.05056 C14.08726491 -0.06549938 17.86244794 -0.074763 21.63769531 -0.07910156 C25.52238235 -0.08459027 29.40671964 -0.10864147 33.29129696 -0.13707352 C36.29314671 -0.15575461 39.29491291 -0.16090831 42.29681587 -0.16243744 C43.7284595 -0.16545023 45.16010213 -0.17343202 46.59168816 -0.18662262 C60.55994441 -0.30618248 60.55994441 -0.30618248 66.37133789 3.16113281 C70.15666009 7.06856218 69.69301615 11.58772154 69.67211914 16.73535156 C69.37133789 19.16113281 69.37133789 19.16113281 67.37133789 21.16113281 C64.86213684 21.41941833 64.86213684 21.41941833 61.65576172 21.43237305 C60.45724075 21.44255966 59.25871979 21.45274628 58.02388 21.46324158 C56.07085213 21.46645164 56.07085213 21.46645164 54.07836914 21.46972656 C52.73035083 21.48082542 51.3823426 21.49321874 50.03434753 21.5068512 C44.30684621 21.56225469 38.57927003 21.59284365 32.8515625 21.61743164 C29.34776834 21.63337942 25.84431876 21.66368144 22.34070396 21.70219612 C20.36504476 21.71940706 18.3892626 21.7199004 16.41352844 21.72007751 C10.02661717 21.79023716 4.94297668 21.87664522 -0.62866211 25.16113281 C-3.68660759 29.76142397 -4.12651723 35.78429753 -3.62866211 41.16113281 C-2.70135492 45.44101215 -2.05786842 48.37332435 1.37133789 51.16113281 C7.0435367 53.23936657 13.14296454 53.48194006 19.12524414 53.57519531 C19.91156723 53.59456146 20.69789032 53.61392761 21.50804138 53.63388062 C23.98320167 53.69295498 26.45841034 53.73976835 28.93383789 53.78613281 C30.62721589 53.82437927 32.32057583 53.86343471 34.01391602 53.90332031 C38.13295466 54.00009655 42.25183555 54.08023302 46.37133789 54.16113281 C46.37133789 60.43113281 46.37133789 66.70113281 46.37133789 73.16113281 C43.56504883 73.19851562 40.75875977 73.23589844 37.86743164 73.27441406 C35.13354942 73.32069572 32.39980052 73.37190518 29.66601562 73.42358398 C27.77384622 73.45672888 25.88158044 73.48479298 23.98925781 73.50756836 C21.26073335 73.54130702 18.5330839 73.59363147 15.80493164 73.64941406 C14.96610947 73.65580399 14.12728729 73.66219391 13.26304626 73.66877747 C7.93227191 73.80062554 4.06477341 74.55568455 -0.62866211 77.16113281 C-4.43870172 83.92088051 -4.83836519 91.83468824 -3.12475586 99.37988281 C-2.0045085 102.40134997 -0.74053497 104.07507676 1.80883789 106.03613281 C6.03797068 107.89282526 9.5927201 108.29221226 14.2097168 108.3347168 C15.38418365 108.34820663 16.55865051 108.36169647 17.76870728 108.37559509 C19.032341 108.38603348 20.29597473 108.39647186 21.59790039 108.40722656 C23.5824633 108.43172534 25.56702615 108.45623533 27.55158043 108.48142338 C32.44518934 108.54219546 37.33888758 108.5930437 42.23266602 108.63793945 C44.98164776 108.66353988 47.73047979 108.69432647 50.4793396 108.73072815 C53.07008507 108.76466791 55.66095087 108.79052701 58.25186157 108.807724 C59.42002411 108.824366 60.58818665 108.841008 61.79174805 108.8581543 C63.33918198 108.87361549 63.33918198 108.87361549 64.9178772 108.88938904 C67.37133789 109.16113281 67.37133789 109.16113281 69.37133789 111.16113281 C69.97493108 116.02907265 69.98240748 120.66401231 68.12133789 125.22363281 C64.70223581 129.00906726 61.30229731 129.45437347 56.37133789 130.16113281 C54.44514548 130.25216716 52.51646243 130.29885617 50.58813477 130.30639648 C49.47257202 130.31277634 48.35700928 130.31915619 47.2076416 130.32572937 C46.01384888 130.32684219 44.82005615 130.32795502 43.59008789 130.32910156 C42.3444104 130.33242996 41.09873291 130.33575836 39.81530762 130.33918762 C37.17932563 130.34424509 34.54344676 130.34702972 31.9074707 130.34643555 C27.91357835 130.34631479 23.91987243 130.36674502 19.92602539 130.38574219 C17.35571383 130.38867894 14.78540096 130.39066185 12.21508789 130.39160156 C11.03748901 130.39878708 9.85989014 130.4059726 8.64660645 130.41337585 C-16.7672512 130.34483589 -16.7672512 130.34483589 -26.21459961 121.71191406 C-31.52478395 115.86457235 -31.92575164 109.64164916 -31.90332031 102.16162109 C-31.90843124 101.27626678 -31.91354218 100.39091248 -31.91880798 99.47872925 C-31.93266523 96.56289844 -31.93175002 93.64730506 -31.92944336 90.73144531 C-31.9333326 88.69652214 -31.93766774 86.66159978 -31.94242859 84.62667847 C-31.94988263 80.36486172 -31.94960556 76.10312783 -31.94433594 71.84130859 C-31.93854445 66.391821 -31.95546866 60.94267363 -31.97868061 55.49324226 C-31.99344474 51.29122957 -31.99428596 47.08929829 -31.99117088 42.88726425 C-31.99168281 40.87870485 -31.99689637 38.87014074 -32.0069828 36.8616066 C-32.01938089 34.04732702 -32.01253515 31.23370343 -32.00097656 28.41943359 C-32.01244217 27.18631439 -32.01244217 27.18631439 -32.0241394 25.92828369 C-31.96728411 19.63485614 -30.90491801 14.01276161 -26.86694336 8.95410156 C-18.61394355 2.07381166 -10.72150844 0.06432649 0 0 Z " fill="#000000" transform="translate(327.628662109375,8.8388671875)"/>
<path d="M0 0 C0.95904236 -0.00287018 1.91808472 -0.00574036 2.90618896 -0.00869751 C4.9265604 -0.0107295 6.9469519 -0.00526051 8.96728516 0.00732422 C12.02422243 0.02331898 15.07982339 0.00748224 18.13671875 -0.01171875 C45.27317043 -0.04136517 45.27317043 -0.04136517 55.796875 8.3984375 C61.81119699 15.39574545 64.11370313 22.32785831 64.02392578 31.51513672 C64.02421783 32.30605209 64.02450989 33.09696747 64.02481079 33.91184998 C64.02342473 36.5090558 64.00789787 39.10596969 63.9921875 41.703125 C63.98845479 43.51058801 63.98560904 45.31805304 63.98361206 47.1255188 C63.9759959 51.87005249 63.9563648 56.61446267 63.9342041 61.35894775 C63.91370215 66.20542734 63.90460105 71.05192699 63.89453125 75.8984375 C63.87311696 85.3984916 63.83900544 94.89845426 63.796875 104.3984375 C30.69536868 106.74831588 30.69536868 106.74831588 15.14453125 106.65917969 C12.83829691 106.64803356 10.5327802 106.65943998 8.2265625 106.671875 C-3.50814074 106.68337108 -15.17114575 106.29637276 -24.015625 97.6484375 C-29.44382746 89.58367956 -29.67145406 82.4545769 -29.578125 72.9609375 C-29.58972656 71.78466797 -29.60132813 70.60839844 -29.61328125 69.39648438 C-29.58719725 61.61910457 -28.99641656 54.80849836 -24.765625 48.12890625 C-17.02132363 40.48140865 -8.05768242 38.96735945 2.42904663 38.97410583 C4.73953681 38.99828485 7.04918403 39.04209305 9.359375 39.0859375 C10.91079523 39.09746076 12.46222946 39.10723641 14.01367188 39.11523438 C21.65622051 39.17726954 29.20336377 39.46536869 36.796875 40.3984375 C36.68956416 31.73808123 36.68956416 31.73808123 32.796875 24.3984375 C26.92848572 21.23533749 21.93033173 20.95784159 15.33984375 20.95703125 C14.35566971 20.94382339 13.37149567 20.93061554 12.35749817 20.91700745 C9.23309408 20.87630027 6.1089835 20.8544776 2.984375 20.8359375 C-0.15799868 20.8121662 -3.30009548 20.78413122 -6.44230652 20.74415588 C-8.39314596 20.71975296 -10.34413311 20.7049318 -12.29512024 20.70054626 C-13.17330917 20.69035965 -14.05149811 20.68017303 -14.95629883 20.66967773 C-15.73016434 20.66540268 -16.50402985 20.66112762 -17.30134583 20.65672302 C-19.203125 20.3984375 -19.203125 20.3984375 -21.203125 18.3984375 C-21.86521079 14.09917911 -21.43244137 10.17238026 -20.203125 6.0234375 C-15.40225665 -0.27770221 -7.27327115 -0.04878404 0 0 Z M-2.203125 65.3984375 C-2.45584795 68.07259894 -2.57339058 70.59848992 -2.578125 73.2734375 C-2.60261719 73.99402344 -2.62710938 74.71460937 -2.65234375 75.45703125 C-2.672037 79.02151021 -2.52015514 80.9900818 -0.3046875 83.84375 C3.5321966 86.68218842 6.58990286 86.52961458 11.2109375 86.49609375 C11.94057709 86.4946788 12.67021667 86.49326385 13.42196655 86.49180603 C15.75531085 86.48620281 18.08855964 86.47364985 20.421875 86.4609375 C22.00260278 86.45592291 23.58333207 86.45135993 25.1640625 86.44726562 C29.04173318 86.43708267 32.91919702 86.41750805 36.796875 86.3984375 C36.796875 77.8184375 36.796875 69.2384375 36.796875 60.3984375 C32.65194843 60.32922722 28.50905961 60.26960307 24.36401367 60.23364258 C22.95671766 60.21863873 21.54946776 60.19822887 20.14233398 60.17211914 C18.10909593 60.13536085 16.07648068 60.11862766 14.04296875 60.10546875 C12.82279053 60.0897583 11.6026123 60.07404785 10.34545898 60.05786133 C5.42194963 60.53039628 1.37879965 61.81651285 -2.203125 65.3984375 Z " fill="#000000" transform="translate(682.203125,33.6015625)"/>
<path d="M0 0 C2.24897522 -0.00217526 4.49744979 -0.02034634 6.74633789 -0.03930664 C34.85017948 -0.1521284 34.85017948 -0.1521284 45.02172852 9.49780273 C49.93149184 17.94259565 50.04446694 25.49569207 50.01782227 35.08764648 C50.02239217 36.5343907 50.02770013 37.98113274 50.03370667 39.4278717 C50.04260479 42.44956318 50.04025265 45.47098989 50.03027344 48.49267578 C50.01878764 52.34367097 50.03900501 56.1937486 50.06819057 60.04462337 C50.08663469 63.02944129 50.08624394 66.01404261 50.08055305 68.99890327 C50.08040084 70.41772308 50.08636162 71.83655851 50.09884453 73.25532341 C50.16531015 82.04640434 50.11894917 90.22609505 43.90623474 97.02037048 C35.78000457 104.6764098 26.21022536 105.33779169 15.61157227 105.42358398 C14.1723214 105.4356916 14.1723214 105.4356916 12.70399475 105.44804382 C10.67589091 105.46183807 8.64776432 105.47258093 6.61962891 105.48046875 C4.56682423 105.49195501 2.51404862 105.5123532 0.46142578 105.54199219 C-26.58302153 105.93185738 -26.58302153 105.93185738 -36.54077148 98.31030273 C-41.42288203 93.51278321 -43.22922358 88.02106741 -43.55621338 81.29756165 C-43.56304138 80.23740341 -43.56986938 79.17724518 -43.5769043 78.08496094 C-43.58651184 76.87632889 -43.59611938 75.66769684 -43.60601807 74.42243958 C-43.61026794 73.12344223 -43.61451782 71.82444489 -43.61889648 70.48608398 C-43.62172386 69.81913198 -43.62455124 69.15217999 -43.62746429 68.46501732 C-43.64242158 64.93272892 -43.65167181 61.40048097 -43.65600586 57.86816406 C-43.66147337 54.24492501 -43.68547444 50.62206499 -43.71397781 46.99894428 C-43.73273557 44.19084138 -43.7378168 41.3828272 -43.73934174 38.57466698 C-43.74378682 36.59736634 -43.76237029 34.62011347 -43.78131104 32.64289856 C-43.75954028 23.76083081 -43.40008026 15.31699034 -37.41577148 8.31030273 C-27.28693756 -0.76924395 -12.72562042 -0.00137381 0 0 Z M-15.08447266 25.09399414 C-17.11584676 29.81089474 -16.84354437 34.35244833 -16.81420898 39.43530273 C-16.81707916 40.52617188 -16.81994934 41.61704102 -16.82290649 42.7409668 C-16.82494515 45.04403198 -16.81942921 47.34711456 -16.80688477 49.65014648 C-16.79082904 53.17267625 -16.80674096 56.6940586 -16.82592773 60.21655273 C-16.82394527 62.4561386 -16.82010153 64.69572375 -16.81420898 66.93530273 C-16.82028168 67.9875 -16.82635437 69.03969727 -16.83261108 70.1237793 C-16.89809499 77.22717303 -16.89809499 77.22717303 -13.41577148 83.18530273 C-8.22906348 86.03371871 -2.73967104 85.51586355 3.02172852 85.49780273 C4.04588867 85.51391602 5.07004883 85.5300293 6.12524414 85.54663086 C11.6527762 85.55020855 15.88544898 85.44770739 20.58422852 82.18530273 C22.77189438 78.90380393 22.83632726 77.94013852 22.84301758 74.13476562 C22.8493219 73.10682388 22.85562622 72.07888214 22.86212158 71.01979065 C22.85807312 69.9103862 22.85402466 68.80098175 22.84985352 67.65795898 C22.85176697 66.51749619 22.85368042 65.37703339 22.85565186 64.20201111 C22.85701367 61.78864318 22.85331752 59.37526794 22.8449707 56.96191406 C22.83428123 53.26602718 22.84486134 49.57062748 22.85766602 45.87475586 C22.85634423 43.53165583 22.85378144 41.1885561 22.84985352 38.84545898 C22.85390198 37.73807877 22.85795044 36.63069855 22.86212158 35.48976135 C22.85581726 34.45866745 22.84951294 33.42757355 22.84301758 32.36523438 C22.84142639 31.45939102 22.83983521 30.55354767 22.8381958 29.62025452 C22.5612991 26.96546333 22.07560536 25.3947982 20.58422852 23.18530273 C14.65694003 20.28401646 9.55351565 19.7164702 3.02172852 19.81030273 C2.21026367 19.79870117 1.39879883 19.78709961 0.56274414 19.77514648 C-5.4244711 19.80414026 -10.90790226 20.31675532 -15.08447266 25.09399414 Z " fill="#000000" transform="translate(932.415771484375,33.814697265625)"/>
<path d="M0 0 C9.9 0 19.8 0 30 0 C31.11375 2.248125 32.2275 4.49625 33.375 6.8125 C38.09342553 16.29049428 43.03634512 25.64871932 48 35 C50.26289737 30.49892183 52.52316551 25.99653694 54.78100586 21.49291992 C55.54948943 19.96098192 56.31869059 18.42940368 57.08862305 16.89819336 C58.19508637 14.69739429 59.29896379 12.49531496 60.40234375 10.29296875 C60.74716293 9.60849167 61.09198212 8.92401459 61.44725037 8.21879578 C62.80571341 5.50219007 64.03798564 2.88604309 65 0 C74.9 0 84.8 0 95 0 C93.5455012 4.36349641 92.30326628 7.53507183 90.09375 11.421875 C89.51890869 12.43926758 88.94406738 13.45666016 88.35180664 14.50488281 C87.74071045 15.57577148 87.12961426 16.64666016 86.5 17.75 C85.87794678 18.8544043 85.25589355 19.95880859 84.61499023 21.09667969 C81.71619592 26.24098743 78.79238193 31.3687037 75.81640625 36.46875 C75.3471875 37.28375977 74.87796875 38.09876953 74.39453125 38.93847656 C73.52790521 40.44236501 72.64955629 41.93957891 71.7578125 43.42871094 C69.54875942 47.18356912 69.54875942 47.18356912 69.23339844 51.41577148 C70.06383261 54.21518093 71.17453173 56.38656425 72.66796875 58.89453125 C73.22532715 59.83917236 73.78268555 60.78381348 74.35693359 61.75708008 C74.96102051 62.76536865 75.56510742 63.77365723 76.1875 64.8125 C76.80447754 65.85752686 77.42145508 66.90255371 78.05712891 67.97924805 C80.03160813 71.32338182 82.01500422 74.66209939 84 78 C86.6331906 82.43271673 89.25672581 86.87096043 91.875 91.3125 C92.79381958 92.85031128 92.79381958 92.85031128 93.73120117 94.41918945 C94.29170166 95.37011475 94.85220215 96.32104004 95.4296875 97.30078125 C95.92710449 98.13778564 96.42452148 98.97479004 96.93701172 99.8371582 C98 102 98 102 98 105 C88.43 105 78.86 105 69 105 C67.948125 102.855 66.89625 100.71 65.8125 98.5 C60.19544786 87.16530644 54.07055354 76.09599346 48 65 C40.45373415 78.2283252 33.04895705 91.49945515 26 105 C16.43 105 6.86 105 -3 105 C-1.60210955 101.50527389 -0.28283805 98.55006512 1.546875 95.32421875 C2.05573242 94.42485596 2.56458984 93.52549316 3.08886719 92.59887695 C3.63704102 91.63812256 4.18521484 90.67736816 4.75 89.6875 C5.3162207 88.68871826 5.88244141 87.68993652 6.46582031 86.66088867 C9.582863 81.17961944 12.73975507 75.72364584 15.9375 70.2890625 C16.57461914 69.20536377 17.21173828 68.12166504 17.86816406 67.00512695 C19.10484263 64.90704112 20.34624355 62.81173032 21.59277344 60.71948242 C22.15512695 59.76662354 22.71748047 58.81376465 23.296875 57.83203125 C24.04469238 56.57483276 24.04469238 56.57483276 24.80761719 55.29223633 C26.37529205 52.28207254 26.37529205 52.28207254 27 49 C26.05659533 46.51112315 26.05659533 46.51112315 24.4921875 43.94921875 C23.92322754 42.95083984 23.35426758 41.95246094 22.76806641 40.92382812 C22.14335449 39.85583984 21.51864258 38.78785156 20.875 37.6875 C20.2464209 36.58986328 19.6178418 35.49222656 18.97021484 34.36132812 C17.6534646 32.06268943 16.33301134 29.76671555 15.00585938 27.47412109 C11.84201082 22.00373107 8.73663401 16.50019104 5.625 11 C5.06022949 10.00959717 4.49545898 9.01919434 3.91357422 7.9987793 C3.14037842 6.63813354 3.14037842 6.63813354 2.3515625 5.25 C1.89604004 4.45078125 1.44051758 3.6515625 0.97119141 2.828125 C0 1 0 1 0 0 Z " fill="#000000" transform="translate(401,34)"/>
<path d="M0 0 C0.17015625 1.16015625 0.3403125 2.3203125 0.515625 3.515625 C3.44927875 24.28779402 3.44927875 24.28779402 14.61328125 41.47265625 C18.94838845 44.47388431 22.69126589 45.12964122 27.84838867 45.20532227 C29.0494072 45.22526749 30.25042572 45.24521271 31.48783875 45.26576233 C32.78478165 45.28247482 34.08172455 45.29918732 35.41796875 45.31640625 C36.7589023 45.33698293 38.09982946 45.35797959 39.44075012 45.37937927 C42.96701889 45.43452627 46.49334548 45.48396794 50.01971436 45.53222656 C53.61931493 45.5824955 57.21883173 45.63815339 60.81835938 45.69335938 C67.87883352 45.80085071 74.93938282 45.90231565 82 46 C81.70847377 48.20253749 81.41028212 50.40419325 81.109375 52.60546875 C80.94405273 53.83160889 80.77873047 55.05774902 80.60839844 56.32104492 C78.86383953 66.87030582 75.03280508 76.84037944 66.8125 84 C62.52592694 87.04822973 59.40358966 87.14244682 54.25292969 87.20874023 C53.57123215 87.21852402 52.88953461 87.2283078 52.18717957 87.23838806 C49.93209776 87.26829047 47.67707508 87.28971418 45.421875 87.30859375 C44.26413952 87.31845149 44.26413952 87.31845149 43.08301544 87.32850838 C38.99660576 87.36108109 34.9102219 87.38553573 30.82373047 87.4050293 C27.4480176 87.42283172 24.07314179 87.45763586 20.69775391 87.50756836 C16.61580155 87.56787644 12.53462425 87.59851897 8.45224762 87.60820198 C6.900515 87.61674046 5.34880221 87.63551927 3.79732513 87.6649456 C-9.85557286 87.90993044 -9.85557286 87.90993044 -14.41381836 84.09887695 C-23.21536445 74.59886334 -23.36896752 60.64610909 -23.3125 48.4375 C-23.30831055 47.20402832 -23.30412109 45.97055664 -23.29980469 44.69970703 C-23.12543019 30.54012687 -22.46960563 12.80733484 -12 2 C-7.93192322 -0.71205119 -4.69252613 -1.56417538 0 0 Z " fill="#000000" transform="translate(131,99)"/>
<path d="M0 0 C0.83265381 0.00523682 1.66530762 0.01047363 2.52319336 0.01586914 C3.33280518 0.0183667 4.14241699 0.02086426 4.9765625 0.0234375 C6.01159912 0.0325415 7.04663574 0.04164551 8.11303711 0.05102539 C11.39241211 0.07165039 14.67178711 0.09227539 18.05053711 0.11352539 C18.05053711 9.02352539 18.05053711 17.93352539 18.05053711 27.11352539 C27.62053711 27.11352539 37.19053711 27.11352539 47.05053711 27.11352539 C47.05053711 33.71352539 47.05053711 40.31352539 47.05053711 47.11352539 C37.48053711 47.11352539 27.91053711 47.11352539 18.05053711 47.11352539 C18.1391081 54.60010518 18.22949245 62.08625626 18.33782959 69.57250977 C18.38774654 73.05879847 18.43423793 76.5450554 18.47241211 80.03149414 C18.51638374 84.03298986 18.57601682 88.03411955 18.63647461 92.03540039 C18.64802582 93.28343445 18.65957703 94.53146851 18.67147827 95.81732178 C18.69134796 96.97822327 18.71121765 98.13912476 18.73168945 99.33520508 C18.74501312 100.3566864 18.75833679 101.37816772 18.77206421 102.43060303 C19.05590783 105.16526913 19.58209085 106.80821648 21.05053711 109.11352539 C24.04691198 111.15381745 26.61008134 111.38206234 30.18334961 111.45727539 C31.6393457 111.50174805 31.6393457 111.50174805 33.12475586 111.54711914 C35.16641883 111.59155995 37.20808554 111.63582949 39.24975586 111.67993164 C40.70188477 111.7244043 40.70188477 111.7244043 42.18334961 111.76977539 C43.06909668 111.7884668 43.95484375 111.8071582 44.86743164 111.82641602 C47.05053711 112.11352539 47.05053711 112.11352539 49.05053711 114.11352539 C49.74226417 119.1084382 49.79646553 123.65150569 47.48803711 128.17602539 C41.85827735 132.65096263 35.11854481 132.43867971 28.23803711 132.36352539 C27.35019531 132.35675781 26.46235352 132.34999023 25.54760742 132.34301758 C15.69250217 132.18727722 6.1199182 131.27456374 -1.67211914 124.64868164 C-9.65642798 116.31125841 -9.37169435 105.46523515 -9.24243164 94.57446289 C-9.23682296 93.1987047 -9.23255889 91.82294044 -9.22956848 90.44717407 C-9.21821956 86.85995374 -9.18884099 83.27310904 -9.15545654 79.68603516 C-9.12453834 76.01217731 -9.11101711 72.33825762 -9.09594727 68.66430664 C-9.06395925 61.48052338 -9.0112757 54.29712528 -8.94946289 47.11352539 C-13.56946289 47.11352539 -18.18946289 47.11352539 -22.94946289 47.11352539 C-22.94946289 41.17352539 -22.94946289 35.23352539 -22.94946289 29.11352539 C-17.99946289 28.78352539 -13.04946289 28.45352539 -7.94946289 28.11352539 C-7.82571289 26.82446289 -7.70196289 25.53540039 -7.57446289 24.20727539 C-7.02357928 19.25708186 -6.05796746 14.46524105 -4.94946289 9.61352539 C-4.68262695 8.39922852 -4.68262695 8.39922852 -4.41040039 7.16040039 C-2.83766504 0.16524912 -2.83766504 0.16524912 0 0 Z " fill="#000000" transform="translate(527.949462890625,6.886474609375)"/>
<path d="M0 0 C6.67727492 6.37376243 7.73181882 13.88392824 8.203125 22.875 C8.44106557 35.43583736 8.17786773 49.71395674 0 60 C-3.0266565 62.69797076 -4.94623828 63.38076005 -8.98046875 63.41992188 C-10.46220581 63.44378967 -10.46220581 63.44378967 -11.97387695 63.46813965 C-13.56462036 63.46844177 -13.56462036 63.46844177 -15.1875 63.46875 C-16.28215576 63.47636353 -17.37681152 63.48397705 -18.50463867 63.49182129 C-20.81784789 63.50262143 -23.13110588 63.50547576 -25.44433594 63.50097656 C-28.98715226 63.50000353 -32.52780851 63.5416439 -36.0703125 63.5859375 C-38.31770381 63.59114387 -40.56510266 63.5938327 -42.8125 63.59375 C-43.87299561 63.61014526 -44.93349121 63.62654053 -46.02612305 63.64343262 C-53.34660795 63.57447283 -53.34660795 63.57447283 -56.59130859 60.72167969 C-60.45280167 53.26103413 -61.50078787 46.62220687 -61.375 38.25 C-61.36629883 37.28642578 -61.35759766 36.32285156 -61.34863281 35.33007812 C-61.15858146 26.05183329 -60.82185009 15.01134592 -54 8 C-48.62003942 6.14769184 -43.17719936 5.29919981 -37.55859375 4.4921875 C-36.67269058 4.36184113 -35.78678741 4.23149475 -34.8740387 4.09719849 C-33.01117376 3.82434888 -31.14796022 3.55386983 -29.28442383 3.28564453 C-26.44183085 2.87562469 -23.60078576 2.45592083 -20.75976562 2.03515625 C-18.94279285 1.77025301 -17.12573814 1.50591099 -15.30859375 1.2421875 C-14.46469589 1.11721893 -13.62079803 0.99225037 -12.75132751 0.86349487 C-4.04285434 -0.37726702 -4.04285434 -0.37726702 0 0 Z " fill="#000000" transform="translate(106,44)"/>
<path d="M0 0 C0 6.6 0 13.2 0 20 C-8.25 20 -16.5 20 -25 20 C-25 48.38 -25 76.76 -25 106 C-33.91 106 -42.82 106 -52 106 C-52 71.68 -52 37.36 -52 2 C-34.33957685 0.78203978 -17.5725301 -0.22674232 0 0 Z " fill="#000000" transform="translate(645,33)"/>
<path d="M0 0 C3.81976206 3.69654393 4.51715947 9.86492569 5 15 C5.08978908 23.86218243 4.93804302 33.30292342 0 41 C-2.57444278 43.61956641 -3.94338086 43.99474143 -7.66699219 44.34057617 C-9.12703929 44.34010383 -10.58714311 44.32330994 -12.046875 44.29296875 C-12.81807678 44.28872391 -13.58927856 44.28447906 -14.3838501 44.28010559 C-16.83959315 44.26335383 -19.29450629 44.22570939 -21.75 44.1875 C-23.41795687 44.17244857 -25.08592665 44.15876097 -26.75390625 44.14648438 C-30.83625578 44.11346194 -34.91798732 44.06170484 -39 44 C-42.61804908 37.79558316 -43.62487951 33.26035729 -43.4375 26.125 C-43.42428711 25.24602051 -43.41107422 24.36704102 -43.39746094 23.46142578 C-43.04780516 10.89013515 -43.04780516 10.89013515 -40 6 C-36.78766257 4.02874026 -33.72018135 3.48185428 -30.01953125 2.9296875 C-28.2725293 2.66865234 -28.2725293 2.66865234 -26.49023438 2.40234375 C-24.66975586 2.14130859 -24.66975586 2.14130859 -22.8125 1.875 C-21.61818359 1.69324219 -20.42386719 1.51148438 -19.19335938 1.32421875 C-12.74228352 0.37981249 -6.52049192 -0.40668349 0 0 Z " fill="#000000" transform="translate(44,2)"/>
</svg>
