<?xml version="1.0" encoding="UTF-8"?>
<svg version="1.1" xmlns="http://www.w3.org/2000/svg" width="1800" height="600">
<path d="M0 0 C2.80119316 0.0161283 5.60094863 0.00001082 8.40209961 -0.01904297 C38.73866639 -0.05490003 67.86508877 6.40531225 90.54858398 27.82861328 C121.95286426 61.20514304 118.73608398 113.95065123 118.73608398 155.39111328 C45.80608398 155.39111328 -27.12391602 155.39111328 -102.26391602 155.39111328 C-99.50026164 208.63385216 -99.50026164 208.63385216 -71.82250977 252.63330078 C-44.97472484 274.90141661 -8.41709546 277.6258111 25.12939453 274.92871094 C52.78414134 272.21532618 76.75131008 262.26106224 98.73608398 245.39111328 C102.16967684 248.74570312 105.36388862 252.19246626 108.42358398 255.89111328 C109.19057617 256.80892578 109.95756836 257.72673828 110.74780273 258.67236328 C112.60734117 261.21507203 113.73073519 263.42345267 114.73608398 266.39111328 C86.81516083 287.81614819 53.09466509 300.42198494 17.75170898 300.59423828 C16.81542664 300.59993835 15.87914429 300.60563843 14.91448975 300.61151123 C12.93787749 300.62090784 10.96124994 300.62747381 8.98461914 300.63134766 C6.03559035 300.64095205 3.08729056 300.67198479 0.13842773 300.70361328 C-34.93669136 300.89955136 -69.63906334 293.36696845 -95.92407227 268.82861328 C-125.14252709 238.3906904 -129.45264994 193.82427665 -129.44921875 153.68969727 C-129.45139376 150.85759168 -129.46958776 148.02588424 -129.48852539 145.19384766 C-129.54213916 128.2191938 -128.5122644 111.35053527 -125.01391602 94.70361328 C-124.79703125 93.65818359 -124.58014648 92.61275391 -124.35668945 91.53564453 C-119.72870438 70.04810076 -111.58972545 51.20102772 -97.26391602 34.39111328 C-96.70446289 33.72982422 -96.14500977 33.06853516 -95.56860352 32.38720703 C-71.69480696 6.53392484 -33.47862012 -0.22824337 0 0 Z M-33.26391602 28.39111328 C-34.26745117 28.64054687 -34.26745117 28.64054687 -35.29125977 28.89501953 C-57.35815771 34.52645852 -74.7139316 46.49490456 -86.88891602 65.95361328 C-98.02597077 85.81765399 -100.3170003 108.00158256 -102.26391602 130.39111328 C-38.24391602 130.39111328 25.77608398 130.39111328 91.73608398 130.39111328 C91.76210321 114.69661463 91.76210321 114.69661463 90.48608398 99.20361328 C90.35186035 98.09356934 90.21763672 96.98352539 90.0793457 95.83984375 C87.98130245 79.49706542 83.77546773 63.73394463 73.73608398 50.39111328 C73.06125977 49.46878906 73.06125977 49.46878906 72.37280273 48.52783203 C60.46448448 33.39923616 40.18823869 27.82011186 21.85804749 25.60029602 C15.56297026 24.97972856 9.18313064 25.14597582 2.86108398 25.14111328 C2.07607513 25.14043854 1.29106628 25.13976379 0.48226929 25.1390686 C-11.03214461 25.15481335 -22.05568714 25.51958357 -33.26391602 28.39111328 Z " fill="#231F20" transform="translate(1349.263916015625,95.60888671875)"/>
<path d="M0 0 C36.7846875 -0.0928125 36.7846875 -0.0928125 74.3125 -0.1875 C82.02278564 -0.21481201 89.73307129 -0.24212402 97.67700195 -0.27026367 C107.17614746 -0.28381348 107.17614746 -0.28381348 111.639328 -0.28633118 C114.72106053 -0.28909822 117.8026341 -0.30022721 120.88432312 -0.31672668 C161.956157 -0.5269595 161.956157 -0.5269595 179.4375 5.75 C180.17355469 6.00676514 180.90960937 6.26353027 181.66796875 6.52807617 C200.46182803 13.35604625 215.19178147 27.13069543 224 45 C235.78185885 73.02171834 235.70116529 108.05221625 225.44140625 136.50390625 C217.24363459 156.38739035 203.85676673 171.42300737 183.91601562 179.88427734 C181.72989019 180.74453061 179.53181767 181.54211785 177.3125 182.3125 C176.66804932 182.54275879 176.02359863 182.77301758 175.35961914 183.01025391 C157.54107615 188.77016713 138.95007864 188.4066504 120.45703125 188.29296875 C117.74891914 188.28566875 115.04080735 188.28294833 112.33268738 188.28010559 C105.98670244 188.27087105 99.64087707 188.246377 93.29496163 188.21605712 C85.34315635 188.178909 77.39132384 188.16274188 69.43945312 188.14648438 C55.29284523 188.11747133 41.14658426 188.05734241 27 188 C27 221 27 254 27 288 C18.09 288 9.18 288 0 288 C0 192.96 0 97.92 0 0 Z M27 27 C27 71.22 27 115.44 27 161 C56.4834375 161.0928125 56.4834375 161.0928125 86.5625 161.1875 C95.83323608 161.22846802 95.83323608 161.22846802 105.29125977 161.27026367 C110.88603724 161.28030393 110.88603724 161.28030393 116.4808197 161.28633118 C118.9510104 161.29090395 121.42119488 161.30138379 123.89134216 161.31672668 C145.64492583 161.44495859 167.89010064 161.48554182 185 146 C185.86625 145.236875 186.7325 144.47375 187.625 143.6875 C203.26082798 125.99432623 205.27090903 104.70527862 204 82 C202.6882113 68.35854823 198.08818708 56.26149789 189 46 C188.52433594 45.39671875 188.04867188 44.7934375 187.55859375 44.171875 C179.86115692 35.24847565 166.28150759 30.19463411 155 28 C153.80738052 27.74138939 153.80738052 27.74138939 152.59066772 27.47755432 C147.42945702 26.79111975 142.32055302 26.86978628 137.11962891 26.88647461 C135.90961905 26.88635407 134.69960918 26.88623354 133.45293236 26.88610935 C129.54412357 26.88685452 125.63536273 26.89446476 121.7265625 26.90234375 C119.31014021 26.9038144 116.8937176 26.90483435 114.47729492 26.90539551 C105.52652508 26.91063418 96.57576207 26.92459541 87.625 26.9375 C67.61875 26.958125 47.6125 26.97875 27 27 Z " fill="#231F20" transform="translate(959,103)"/>
<path d="M0 0 C1.065672 -0.00570007 2.13134399 -0.01140015 3.22930908 -0.01727295 C5.47822088 -0.02667026 7.72714612 -0.03323581 9.97607422 -0.03710938 C13.33977816 -0.04672958 16.7028474 -0.0777691 20.06640625 -0.109375 C49.82195779 -0.25579499 79.97187751 3.35607899 104.640625 21.203125 C106.2184375 22.316875 106.2184375 22.316875 107.828125 23.453125 C131.90180312 46.99183249 133.23198314 80.79658371 133.67139673 112.41750956 C133.79856098 124.90866632 133.76025325 137.40133339 133.74201894 149.89292645 C133.73568056 154.9830545 133.73517345 160.07318343 133.73399353 165.16331482 C133.73091064 174.76021497 133.72273916 184.35710345 133.71264404 193.95399851 C133.70138728 204.89753652 133.69594859 215.84107516 133.69094861 226.78461754 C133.68055327 249.25746 133.66280775 271.73029135 133.640625 294.203125 C124.400625 294.203125 115.160625 294.203125 105.640625 294.203125 C105.63253815 291.77950623 105.62445129 289.35588745 105.61611938 286.85882568 C105.53881529 263.96668395 105.4508086 241.07460093 105.35309792 218.18253708 C105.30312366 206.41483592 105.2566799 194.64714119 105.21875 182.87939453 C105.18565446 172.61435527 105.14572836 162.34936833 105.09783494 152.08438706 C105.07274325 146.65670167 105.05091233 141.22905021 105.03728104 135.80132294 C105.02430145 130.67627531 105.00208194 125.55134511 104.97324181 120.42636299 C104.96428853 118.56098526 104.95850511 116.6955887 104.95641136 114.83019066 C104.94383786 105.31620658 104.66042071 95.90783931 103.73007202 86.43487549 C103.65073099 85.62686076 103.57138995 84.81884603 103.48964465 83.98634601 C101.7219572 67.58595319 96.76074175 52.8935905 83.640625 42.203125 C56.32012281 22.73334183 14.43776658 23.26999912 -17.359375 28.203125 C-31.07534 30.60644827 -44.21638818 34.53875227 -55.359375 43.203125 C-55.97425781 43.68007812 -56.58914063 44.15703125 -57.22265625 44.6484375 C-70.36880181 56.24969234 -73.05995256 75.70976399 -74.359375 92.203125 C-74.70100762 99.02224234 -74.67080368 105.85012466 -74.67822266 112.67602539 C-74.68754535 114.66865942 -74.69771739 116.66128963 -74.70866394 118.65391541 C-74.73571445 124.0081018 -74.7510384 129.36226227 -74.76409197 134.71649861 C-74.77983298 140.33254894 -74.80658759 145.94854714 -74.8321228 151.56455994 C-74.87871788 162.17459781 -74.91555464 172.78464569 -74.94879568 183.39473289 C-74.98715407 195.48440959 -75.03652783 207.57403369 -75.08677983 219.66366589 C-75.18981272 244.51011389 -75.27877468 269.35659497 -75.359375 294.203125 C-84.269375 294.203125 -93.179375 294.203125 -102.359375 294.203125 C-102.40580281 267.95024999 -102.44143052 241.69738498 -102.46299934 215.44447708 C-102.47328322 203.25300951 -102.48728791 191.06156801 -102.51025391 178.87011719 C-102.53027666 168.23595052 -102.54311239 157.60180275 -102.54755199 146.96761775 C-102.55014441 141.34428614 -102.55617656 135.72100857 -102.57083511 130.0976944 C-102.5845599 124.78883413 -102.58856803 119.48004942 -102.58559036 114.1711731 C-102.58613394 112.23805071 -102.59002163 110.30492541 -102.59778595 108.37181854 C-102.70934575 79.12511588 -100.87909469 47.46261267 -79.734375 25.015625 C-58.82048469 5.19916522 -27.81132431 0.11879647 0 0 Z " fill="#231F20" transform="translate(704.359375,96.796875)"/>
<path d="M0 0 C8.91 0 17.82 0 27 0 C27.01030746 2.26439941 27.02061493 4.52879883 27.03123474 6.86181641 C27.12915899 28.28107586 27.23202595 49.7003076 27.33933926 71.11952209 C27.39438328 82.12931344 27.44781449 93.139108 27.49731445 104.14892578 C27.54051297 113.75622833 27.58687448 123.3635098 27.63687855 132.97077942 C27.66319608 138.0475901 27.68803564 143.12439738 27.70907402 148.20123291 C27.77072966 173.67057307 27.77072966 173.67057307 28.44165039 199.12890625 C28.47758773 200.03690475 28.51352507 200.94490326 28.55055141 201.88041687 C29.39784813 219.71204874 33.78616657 237.35162768 47 250.125 C71.04912581 270.15266603 109.41326819 269.82533975 138.93554688 267.48413086 C159.0389426 265.60287047 179.98382473 261.22659586 194.1328125 245.65234375 C207.19797175 228.26041099 207.45141802 205.75310357 207.43237305 184.93286133 C207.44141611 182.900522 207.45174944 180.86818807 207.46325684 178.83586121 C207.49055448 173.38259991 207.50007384 167.92944283 207.50611091 162.47612214 C207.51556636 156.75330205 207.54177487 151.03055768 207.56611633 145.30778503 C207.60958936 134.49947978 207.63825375 123.69118939 207.66143972 112.88282365 C207.68859497 100.56576554 207.73249964 88.24878434 207.77772844 75.93178141 C207.87029942 50.62122781 207.94151152 25.31065335 208 0 C216.91 0 225.82 0 235 0 C235.04639295 26.82622259 235.08203782 53.65243544 235.10362434 80.47869015 C235.11391588 92.9359213 235.12793545 105.39312699 235.15087891 117.8503418 C235.17087796 128.71410835 235.18373185 139.57785646 235.18817699 150.44164091 C235.19077337 156.18839622 235.19683134 161.93509877 235.21146011 167.68183708 C235.22514719 173.10313388 235.2292004 178.52435674 235.22621536 183.94566917 C235.22676059 185.92359063 235.23067118 187.90151485 235.23841095 189.87942123 C235.33496133 215.8512983 233.37316216 242.71872366 217 264 C216.278125 265.010625 215.55625 266.02125 214.8125 267.0625 C197.61341284 286.7663086 168.63528166 291.75281415 144 294 C135.61001853 294.50044651 127.2142352 294.48554843 118.8125 294.4375 C117.69813568 294.43479095 116.58377136 294.43208191 115.43563843 294.42929077 C98.67974992 294.36757949 82.37717254 293.8685984 66 290 C65.21882813 289.81808105 64.43765625 289.63616211 63.6328125 289.44873047 C49.72190291 286.03506647 35.68751087 279.65531666 25 270 C24.32839844 269.43152344 23.65679687 268.86304688 22.96484375 268.27734375 C8.35790668 255.02133728 3.57072217 234.80757175 1 216 C0.91049859 215.37636377 0.82099718 214.75272755 0.72878361 214.11019325 C-0.40840288 204.76885478 -0.13183407 195.34738754 -0.11352539 185.95458984 C-0.11324301 183.923584 -0.11340224 181.89257805 -0.1139679 179.86157227 C-0.11425389 174.370595 -0.10838918 168.87963975 -0.10139394 163.38866758 C-0.09512742 157.64181347 -0.09455399 151.89495881 -0.09336853 146.14810181 C-0.09026493 135.27572803 -0.08206465 124.40336435 -0.07201904 113.53099501 C-0.06082772 101.14889606 -0.05533985 88.76679662 -0.05032361 76.38469386 C-0.03988121 50.92312346 -0.02209831 25.46156272 0 0 Z " fill="#231F20" transform="translate(323,102)"/>
<path d="M0 0 C9.24 0 18.48 0 28 0 C28.02269429 29.98759766 28.04055676 59.97519435 28.05106533 89.9627987 C28.05231576 93.51808652 28.05361011 97.07337432 28.05493164 100.62866211 C28.05519395 101.33633666 28.05545626 102.04401121 28.05572652 102.77313044 C28.0600558 114.17154536 28.06792798 125.56995513 28.0771528 136.96836702 C28.08656611 148.69915581 28.09207171 160.42994194 28.09408849 172.16073436 C28.09532718 178.73498155 28.09838704 185.30921927 28.10573006 191.88346291 C28.11260983 198.09436204 28.11459313 204.30524503 28.11310768 210.51614761 C28.11337872 212.77367555 28.11531191 215.03120412 28.11920547 217.28872871 C28.13889271 229.31195947 27.99142831 241.31572705 27.57102966 253.33232117 C27.53432885 254.42570323 27.49762804 255.51908529 27.45981508 256.64560014 C26.39548551 284.21629653 21.52337536 309.46496309 0.73046875 329.1484375 C-22.06396799 348.88093498 -57.07386787 351.25706666 -85.75 351.0625 C-87.03132812 351.05798828 -88.31265625 351.05347656 -89.6328125 351.04882812 C-92.75522902 351.03717732 -95.87762107 351.01924754 -99 351 C-99 342.42 -99 333.84 -99 325 C-97.15019531 324.96261719 -95.30039063 324.92523438 -93.39453125 324.88671875 C-51.89515348 324.01723641 -51.89515348 324.01723641 -16.1875 304.75 C0.6707191 286.6415302 -0.70008063 260.07927249 -0.68115234 237.15454102 C-0.67184068 234.5612253 -0.66167019 231.96791255 -0.65071106 229.37460327 C-0.62857425 223.81891479 -0.61347992 218.2632443 -0.60334396 212.70752144 C-0.58867913 204.67515746 -0.56312117 196.64285627 -0.53501268 188.61052942 C-0.48968543 175.57459818 -0.45301291 162.53865783 -0.421875 149.50268555 C-0.39163154 136.84902347 -0.35725491 124.1953836 -0.31738281 111.54174805 C-0.31492126 110.76010906 -0.31245972 109.97847008 -0.30992357 109.17314506 C-0.29754785 105.25139363 -0.28509153 101.32964245 -0.27259517 97.40789139 C-0.16923831 64.93862372 -0.0805055 32.4693324 0 0 Z " fill="#231F20" transform="translate(251,102)"/>
<path d="M0 0 C3.54100562 0.01854706 7.08175304 0.02050716 10.62280273 0.02026367 C12.87085189 0.02516957 15.11889928 0.03099378 17.36694336 0.0378418 C18.42715195 0.03895462 19.48736053 0.04006744 20.57969666 0.04121399 C21.54903641 0.04759384 22.51837616 0.05397369 23.51708984 0.06054688 C24.37261948 0.06435867 25.22814911 0.06817047 26.10960388 0.07209778 C28.05834961 0.20581055 28.05834961 0.20581055 29.05834961 1.20581055 C29.14583168 3.13248562 29.16532295 5.06232916 29.15600586 6.9909668 C29.1527832 8.16079102 29.14956055 9.33061523 29.14624023 10.53588867 C29.13786133 11.76758789 29.12948242 12.99928711 29.12084961 14.26831055 C29.11633789 15.50387695 29.11182617 16.73944336 29.10717773 18.01245117 C29.09534569 21.07695172 29.07886134 24.14135776 29.05834961 27.20581055 C28.14359863 27.12886963 27.22884766 27.05192871 26.28637695 26.97265625 C-4.18222169 24.50180165 -43.06571192 23.39895476 -67.94165039 44.20581055 C-76.73156641 52.36235828 -80.53255768 61.54702347 -83.19165039 73.01831055 C-83.35503906 73.71625732 -83.51842773 74.4142041 -83.68676758 75.13330078 C-86.52636698 88.49122439 -86.10418899 102.38448655 -86.14697266 115.97094727 C-86.15657252 117.92372841 -86.16658376 119.87650756 -86.17697144 121.82928467 C-86.20379844 127.08860564 -86.22492693 132.34793538 -86.24497342 137.60728598 C-86.26697142 143.11923885 -86.29429196 148.63116538 -86.32102966 154.14309692 C-86.37077107 164.56199379 -86.41577805 174.98090542 -86.45905203 185.39983094 C-86.50858384 197.2693547 -86.5634424 209.13885201 -86.61873162 221.00835013 C-86.73226655 245.40747906 -86.83897773 269.8066337 -86.94165039 294.20581055 C-95.85165039 294.20581055 -104.76165039 294.20581055 -113.94165039 294.20581055 C-113.98810273 268.37862855 -114.02371833 242.55145674 -114.04527473 216.72424126 C-114.05555323 204.73012742 -114.06954745 192.73604014 -114.0925293 180.74194336 C-114.11256872 170.27842252 -114.12539167 159.81492092 -114.12982738 149.35138142 C-114.13241702 143.81964744 -114.13843096 138.28796849 -114.1531105 132.75625229 C-114.16686188 127.53110461 -114.17083826 122.30603373 -114.16786575 117.08086967 C-114.16840818 115.18083845 -114.17227964 113.28080417 -114.18006134 111.3807888 C-114.29263553 82.43128921 -113.25461965 51.48041452 -93.94165039 28.20581055 C-93.16241211 27.25641602 -93.16241211 27.25641602 -92.36743164 26.2878418 C-78.86996269 11.43042636 -58.07641322 5.40582208 -38.94165039 2.20581055 C-37.35984985 1.93546997 -37.35984985 1.93546997 -35.74609375 1.65966797 C-23.85154913 -0.1063377 -12.00551228 -0.0653165 0 0 Z " fill="#231F20" transform="translate(1618.941650390625,96.794189453125)"/>
<path d="M0 0 C8.91 0 17.82 0 27 0 C27 95.04 27 190.08 27 288 C18.09 288 9.18 288 0 288 C0 192.96 0 97.92 0 0 Z " fill="#231F20" transform="translate(885,103)"/>
<path d="M0 0 C3.3 0 6.6 0 10 0 C16.80076187 20.29155175 23.55410294 40.59225752 30 61 C32.95617502 53.88873405 35.49749161 46.70434468 37.85546875 39.375 C38.20257401 38.30628662 38.54967926 37.23757324 38.90730286 36.13647461 C40.00390332 32.75867757 41.09599428 29.37944645 42.1875 26 C43.29036151 22.59220356 44.39419929 19.18473036 45.49983215 15.77783203 C46.18493311 13.66609801 46.86832694 11.55380925 47.54985046 9.44091797 C47.8571962 8.4923291 48.16454193 7.54374023 48.48120117 6.56640625 C48.75115402 5.73052979 49.02110687 4.89465332 49.29924011 4.03344727 C50 2 50 2 51 0 C53.64 0 56.28 0 59 0 C61.94603897 7.10368062 64.5087192 14.2793333 66.890625 21.58984375 C67.24010193 22.65618546 67.58957886 23.72252716 67.949646 24.82118225 C68.68066053 27.05513016 69.40998927 29.28963037 70.13769531 31.5246582 C71.25534109 34.95388787 72.38128394 38.38032017 73.5078125 41.80664062 C74.21925042 43.98421157 74.93020536 46.16194038 75.640625 48.33984375 C76.14677338 49.87728493 76.14677338 49.87728493 76.66314697 51.44578552 C76.97056824 52.39429886 77.2779895 53.34281219 77.59472656 54.32006836 C78.00298676 55.57055214 78.00298676 55.57055214 78.41949463 56.84629822 C79 59 79 59 79 62 C79.66 62 80.32 62 81 62 C81.24927246 60.77224854 81.49854492 59.54449707 81.75537109 58.27954102 C83.10027452 52.24130873 85.00407355 46.40662907 86.9140625 40.52734375 C87.28856537 39.3636879 87.66306824 38.20003204 88.04891968 37.00111389 C89.23715248 33.31200643 90.43098616 29.62473993 91.625 25.9375 C92.43526741 23.42525002 93.24516712 20.91288142 94.0546875 18.40039062 C96.03220596 12.26554618 98.01474701 6.13234567 100 0 C103.3 0 106.6 0 110 0 C104.7851339 17.01016432 99.52262887 34.00470359 94.18823242 50.9777832 C93.42382477 53.41191844 92.6608533 55.84650506 91.89916992 58.28149414 C90.78082253 61.85657769 89.65848473 65.43038517 88.53515625 69.00390625 C88.02276146 70.64559532 88.02276146 70.64559532 87.50001526 72.32044983 C87.18555954 73.31757492 86.87110382 74.31470001 86.54711914 75.34204102 C86.27146622 76.22070328 85.99581329 77.09936554 85.71180725 78.00465393 C85 80 85 80 84 81 C81.32941149 81.14115161 78.67567762 81.04247107 76 81 C73.27692425 75.00156124 71.24294474 68.86176741 69.2421875 62.58984375 C68.8936673 61.50417618 68.54514709 60.41850861 68.18606567 59.29994202 C67.4532163 57.01358142 66.72211959 54.72665838 65.99267578 52.43920898 C64.87706336 48.94396455 63.75333701 45.45140049 62.62890625 41.95898438 C61.91617534 39.73192801 61.20391956 37.50471953 60.4921875 35.27734375 C60.15677948 34.23658188 59.82137146 33.19582001 59.47579956 32.1235199 C57.98615522 27.43265456 56.6021403 22.90530412 56 18 C55.34 18 54.68 18 54 18 C53.75000244 19.22847656 53.50000488 20.45695312 53.24243164 21.72265625 C51.90101082 27.74499656 50.01599643 33.57018377 48.12109375 39.4375 C47.74896255 40.59878418 47.37683136 41.76006836 46.99342346 42.95654297 C46.21118332 45.3943423 45.42696514 47.83150771 44.64086914 50.26806641 C43.43290917 54.01423726 42.23262924 57.76280796 41.03320312 61.51171875 C40.27128626 63.88295808 39.50893213 66.25405696 38.74609375 68.625 C38.3856749 69.75091553 38.02525604 70.87683105 37.65391541 72.03686523 C37.32009354 73.06884033 36.98627167 74.10081543 36.64233398 75.1640625 C36.34858383 76.07623535 36.05483368 76.9884082 35.75218201 77.92822266 C35 80 35 80 34 81 C31.32941149 81.14115161 28.67567762 81.04247107 26 81 C24.05921328 75.90163349 22.2337267 70.79587003 20.5480957 65.60595703 C20.3233255 64.91549789 20.0985553 64.22503876 19.86697388 63.51365662 C19.13468194 61.26231891 18.40508636 59.01011939 17.67578125 56.7578125 C17.16447935 55.18217543 16.65310013 53.60656344 16.14164734 52.03097534 C15.07550689 48.74501713 14.01079951 45.45859873 12.94702148 42.171875 C11.58166404 37.95401262 10.2119284 33.73758629 8.84104633 29.5215168 C7.78643818 26.27606371 6.73451307 23.02974582 5.68337059 19.78316879 C5.17911923 18.22709196 4.67393533 16.671317 4.16781044 15.11584854 C3.463657 12.95068259 2.76320971 10.78435237 2.0637207 8.61767578 C1.66417679 7.38493927 1.26463287 6.15220276 0.85298157 4.8821106 C0 2 0 2 0 0 Z " fill="#231F20" transform="translate(1113,424)"/>
<path d="M0 0 C0.86657227 -0.0103125 1.73314453 -0.020625 2.62597656 -0.03125 C13.09425238 0.11177009 22.38205084 3.11343624 30.22265625 10.15234375 C39.51531759 19.80013864 40.73667667 32.42355229 40.5234375 45.26171875 C40.12490745 55.99496936 37.3431494 66.65199895 29.390625 74.28125 C20.22014569 81.53232666 11.06428017 82.64556199 -0.3125 82.75 C-1.34246094 82.77900391 -2.37242188 82.80800781 -3.43359375 82.83789062 C-13.22591667 82.91795364 -22.22417597 80.5586177 -29.90625 74.24609375 C-38.6520298 65.36605856 -40.92247952 53.51967966 -41.0625 41.4375 C-40.92457381 28.19341542 -38.11978746 17.60251221 -28.6875 8.1875 C-20.16520425 1.11343752 -10.71613591 0.10576377 0 0 Z M-23.9609375 17.46875 C-31.87325728 26.49094269 -31.2942407 37.72320222 -30.87548828 49.04003906 C-30.33285636 55.96035783 -27.70264756 62.56985678 -22.6875 67.4375 C-16.01179227 73.11185157 -6.4722701 75.03038715 2.1640625 74.65625 C11.27097653 73.72900057 18.25902066 70.94547314 24.625 64.1875 C29.86934042 57.44532246 30.85082607 49.83095382 30.75 41.5 C30.74242676 40.62190674 30.73485352 39.74381348 30.72705078 38.83911133 C30.49514444 29.72790063 28.31379106 22.67556449 22.0234375 15.90625 C9.61874293 5.2574711 -12.39296854 6.59209393 -23.9609375 17.46875 Z " fill="#231F20" transform="translate(1269.6875,422.5625)"/>
<path d="M0 0 C11 0 11 0 14.4609375 3.3046875 C15.46961097 4.80367668 16.43926204 6.32943046 17.375 7.875 C18.47691163 9.54099527 19.57980352 11.20634253 20.68359375 12.87109375 C21.23257324 13.72687012 21.78155273 14.58264648 22.34716797 15.46435547 C24.90601958 19.38994377 27.67103521 23.15683291 30.4375 26.9375 C31.50957314 28.42154384 32.58118273 29.90592267 33.65234375 31.390625 C37.81415994 37.13464996 42.02518453 42.84235883 46.24389648 48.54467773 C46.79247314 49.28661377 47.3410498 50.0285498 47.90625 50.79296875 C48.38384766 51.4377417 48.86144531 52.08251465 49.35351562 52.74682617 C51.59411371 55.81303017 53.79268058 58.90975281 56 62 C56.33 41.54 56.66 21.08 57 0 C59.97 0 62.94 0 66 0 C66 26.4 66 52.8 66 80 C57 80 57 80 54.390625 77.7890625 C53.68421875 76.74492187 52.9778125 75.70078125 52.25 74.625 C51.64248901 73.75911255 51.64248901 73.75911255 51.02270508 72.87573242 C50.1350839 71.60839274 49.25966023 70.33244448 48.39501953 69.04931641 C46.43662648 66.17239108 44.3789782 63.37160177 42.32666016 60.5612793 C40.09554728 57.50039448 37.88981194 54.42155382 35.68212891 51.34375 C32.91990456 47.49507747 30.14759956 43.65370128 27.375 39.8125 C26.65896606 38.81827026 26.65896606 38.81827026 25.9284668 37.80395508 C20.66227767 30.50348028 15.32387272 23.25982644 10 16 C9.67 37.12 9.34 58.24 9 80 C6.03 80 3.06 80 0 80 C0 53.6 0 27.2 0 0 Z " fill="#231F20" transform="translate(885,424)"/>
<path d="M0 0 C6.909375 -0.061875 13.81875 -0.12375 20.9375 -0.1875 C23.10046631 -0.21481201 25.26343262 -0.24212402 27.49194336 -0.27026367 C29.2329045 -0.27903685 30.97387186 -0.28667881 32.71484375 -0.29296875 C33.59724731 -0.30831665 34.47965088 -0.32366455 35.38879395 -0.33947754 C43.81968809 -0.34298311 51.30454133 1.33973189 57.55859375 7.2890625 C62.3351344 12.95877742 62.5478887 19.56438207 62.33984375 26.74609375 C61.72817681 32.60262896 60.34227503 37.55610783 56.19921875 41.87890625 C52.01511666 45.25056133 48.18503979 46.56693933 43 48 C43.43868408 48.75619629 43.87736816 49.51239258 44.3293457 50.29150391 C45.96895161 53.11978616 47.60695 55.94898692 49.24389648 58.77880859 C49.95029365 59.99922791 50.65731422 61.21928663 51.36499023 62.43896484 C52.38693008 64.20053276 53.40655925 65.96342101 54.42578125 67.7265625 C55.03848877 68.78439941 55.65119629 69.84223633 56.2824707 70.93212891 C57.95145137 73.91328186 59.49807549 76.93181152 61 80 C57.37 80 53.74 80 50 80 C49.2886792 78.75126099 49.2886792 78.75126099 48.56298828 77.47729492 C46.80106568 74.38487116 45.03771113 71.29326594 43.27392578 68.2019043 C42.51116563 66.86456176 41.7487925 65.52699841 40.98681641 64.18920898 C39.89066944 62.26487796 38.79312707 60.34134879 37.6953125 58.41796875 C37.3556546 57.82098679 37.0159967 57.22400482 36.66604614 56.6089325 C35.18165182 54.01106735 33.66081425 51.49122138 32 49 C29.5842887 48.49095616 29.5842887 48.49095616 26.7734375 48.48828125 C25.84450684 48.45516846 24.91557617 48.42205566 23.95849609 48.38793945 C22.77594238 48.36304443 21.59338867 48.33814941 20.375 48.3125 C16.62125 48.209375 12.8675 48.10625 9 48 C9 58.56 9 69.12 9 80 C6.03 80 3.06 80 0 80 C0 53.6 0 27.2 0 0 Z M9 9 C9 18.9 9 28.8 9 39 C13.59041573 39.06908652 18.17900877 39.12875125 22.76953125 39.16479492 C24.32916394 39.17982869 25.88875472 39.20026135 27.44824219 39.22631836 C29.69737116 39.26294211 31.94593847 39.27978021 34.1953125 39.29296875 C34.8861795 39.30845261 35.57704651 39.32393646 36.28884888 39.33988953 C41.7139504 39.34175143 45.52934328 37.92162189 49.79296875 34.60546875 C52.66420015 30.78645223 53.12054898 25.40266593 52.88671875 20.7421875 C52.17517416 16.96165768 50.90316377 14.54188234 48.0625 12.0625 C43.45853877 8.96187305 39.85160951 8.86315406 34.48828125 8.90234375 C33.39594429 8.90446617 33.39594429 8.90446617 32.28153992 8.90663147 C29.95848461 8.91222341 27.63552612 8.92477438 25.3125 8.9375 C23.73632952 8.94251604 22.16015752 8.94707877 20.58398438 8.95117188 C16.72258905 8.96133879 12.86140275 8.98091564 9 9 Z " fill="#231F20" transform="translate(1326,424)"/>
<path d="M0 0 C17.49 0 34.98 0 53 0 C53 2.97 53 5.94 53 9 C38.81 9 24.62 9 10 9 C10 17.25 10 25.5 10 34 C23.86 34 37.72 34 52 34 C52 36.97 52 39.94 52 43 C38.14 43 24.28 43 10 43 C10 52.57 10 62.14 10 72 C24.52 72 39.04 72 54 72 C54 74.64 54 77.28 54 80 C36.18 80 18.36 80 0 80 C0 53.6 0 27.2 0 0 Z " fill="#231F20" transform="translate(970,424)"/>
<path d="M0 0 C0.96212402 0.00467285 1.92424805 0.0093457 2.91552734 0.01416016 C12.16764111 0.20545449 20.00126357 2.13886271 28.25 6.4375 C27.60455571 9.92289917 26.14865603 12.46569057 24.25 15.4375 C23.610625 15.169375 22.97125 14.90125 22.3125 14.625 C21.301875 14.233125 20.29125 13.84125 19.25 13.4375 C18.62996094 13.18484375 18.00992187 12.9321875 17.37109375 12.671875 C7.79016091 9.07240852 -2.95618005 8.11817927 -12.75 11.4375 C-15.91821233 12.78728302 -15.91821233 12.78728302 -17.75 15.4375 C-19.01153137 19.67434122 -19.22597835 23.14955857 -17.6875 27.3125 C-13.89812647 31.4685871 -8.9908052 32.80847689 -3.609375 33.8671875 C-2.45566406 34.10566406 -1.30195312 34.34414063 -0.11328125 34.58984375 C2.27905072 35.06831014 4.67227608 35.54233288 7.06640625 36.01171875 C15.59325286 37.78537872 24.61125374 39.78344021 30.375 46.8125 C33.86670763 53.34857905 33.48229375 62.06547907 31.515625 69.04296875 C28.37406722 75.90546996 23.1721715 78.84168569 16.25 81.4375 C-0.343316 85.35128708 -18.03632713 82.67325052 -32.75 74.4375 C-32.02633685 71.09319263 -30.93284504 69.09487657 -28.75 66.4375 C-24.87577536 67.69400529 -21.06238467 69.06970562 -17.25 70.5 C-7.1847983 74.13428088 5.01280956 75.40289393 15.25 71.4375 C18.69835999 69.31319384 20.93623874 67.37878377 22.25 63.4375 C22.60507509 57.13046192 22.60507509 57.13046192 20.25 51.4375 C13.93951077 47.53170066 7.61325203 46.24779531 0.375 44.9375 C-20.37717279 41.15251251 -20.37717279 41.15251251 -26.69140625 33.12109375 C-30.1616074 27.60206536 -29.56380327 19.38237687 -28.2890625 13.203125 C-26.63850824 8.81459249 -23.71712572 5.79192421 -19.75 3.4375 C-13.24359114 0.5217752 -7.06197908 -0.07527184 0 0 Z " fill="#231F20" transform="translate(1506.75,422.5625)"/>
<path d="M0 0 C2.97 0 5.94 0 9 0 C9.33 13.53 9.66 27.06 10 41 C14.14399552 36.85600448 18.00040023 32.89259431 21.79296875 28.4921875 C24.75797504 25.14409191 27.81605542 21.88717251 30.875 18.625 C35.78563763 13.38742071 40.64424037 8.11384535 45.42578125 2.7578125 C46.26471272 1.82104039 47.11080149 0.88919851 48 0 C49.85287502 -0.07226502 51.70833878 -0.0838122 53.5625 -0.0625 C54.57441406 -0.05347656 55.58632812 -0.04445313 56.62890625 -0.03515625 C57.41136719 -0.02355469 58.19382812 -0.01195312 59 0 C56.87945499 4.11635208 54.15667518 6.9469385 50.87890625 10.12890625 C48.44316465 12.55452003 46.22024307 15.13211535 43.9765625 17.734375 C40.06015934 22.22353277 36.01807583 26.60194516 32 31 C33.24187321 34.36406162 34.63266418 37.15046787 36.73046875 40.0546875 C37.27944824 40.82385498 37.82842773 41.59302246 38.39404297 42.38549805 C38.98588379 43.20703369 39.57772461 44.02856934 40.1875 44.875 C45.75213183 52.70591452 51.12954694 60.63921495 56.375 68.6875 C57.0352417 69.69731934 57.6954834 70.70713867 58.37573242 71.74755859 C63 78.87005028 63 78.87005028 63 80 C59.13219948 80.70388282 55.85854977 80.82062028 52 80 C50.015625 78.06054688 50.015625 78.06054688 48.25 75.40625 C47.23486328 73.90807739 47.23486328 73.90807739 46.19921875 72.37963867 C45.46550547 71.25350941 44.73245956 70.12694511 44 69 C43.19529004 67.79122072 42.38926178 66.58331819 41.58203125 65.3762207 C39.0273122 61.53932155 36.51203311 57.67742456 34 53.8125 C33.12135697 52.46532308 32.24245221 51.11831683 31.36328125 49.77148438 C29.23917539 46.51627578 27.11858888 43.25880164 25 40 C22.60131738 41.94892963 20.29277896 43.93075625 18 46 C17.27039062 46.64122803 16.54078125 47.28245605 15.7890625 47.94311523 C10.40175672 53.20947406 9.07317335 57.188971 8.94140625 64.67773438 C8.96074219 65.79470703 8.98007813 66.91167969 9 68.0625 C8.98839844 69.21427734 8.97679687 70.36605469 8.96484375 71.55273438 C8.94146122 74.37032943 8.95397927 77.18282846 9 80 C6.03 80 3.06 80 0 80 C0 53.6 0 27.2 0 0 Z " fill="#231F20" transform="translate(1405,424)"/>
<path d="M0 0 C22.77 0 45.54 0 69 0 C69 2.97 69 5.94 69 9 C59.1 9 49.2 9 39 9 C39 32.43 39 55.86 39 80 C36.03 80 33.06 80 30 80 C30 56.57 30 33.14 30 9 C20.1 9 10.2 9 0 9 C0 6.03 0 3.06 0 0 Z " fill="#231F20" transform="translate(1035,424)"/>
<path d="M0 0 C4.42960068 3.41448385 7.48108551 6.86972307 9 12.3125 C9.57474121 19.43929097 8.42710049 24.42621834 3.6875 30.0625 C-1.23658564 34.18499031 -5.30683117 35.90752169 -11.6953125 35.66015625 C-17.13335219 34.83984179 -21.34511335 32.37764197 -24.9375 28.25 C-28.84574524 22.68371132 -28.72750577 16.91022472 -28 10.3125 C-26.20105707 5.30288763 -23.01668126 1.32177046 -18.15234375 -1.0625 C-12.26838174 -2.77109151 -5.50120147 -2.90472923 0 0 Z M-21.8125 7.3125 C-25.03668554 11.73424017 -25.45026135 14.9093638 -25 20.3125 C-23.05960168 25.62364739 -20.04762175 28.68773669 -15 31.3125 C-10.43481017 32.80114886 -7.21953151 32.1942889 -2.8984375 30.40625 C0.78786669 28.28245334 3.10509022 25.10231956 5 21.3125 C5.64891795 16.24166973 5.7825076 11.73626139 2.875 7.375 C-0.60811198 3.2265745 -4.09974136 1.51609914 -9.5 0.9375 C-14.86742233 1.51258096 -18.29974624 3.2662908 -21.8125 7.3125 Z " fill="#231F20" transform="translate(1599,356.6875)"/>
<path d="M0 0 C1.876875 -0.04125 3.75375 -0.0825 5.6875 -0.125 C6.74324219 -0.14820313 7.79898437 -0.17140625 8.88671875 -0.1953125 C12.05522823 0.00346476 14.18862338 0.55125457 17 2 C18.40457737 4.80915474 18.24895157 6.88810534 18 10 C17.46375 10.680625 16.9275 11.36125 16.375 12.0625 C15.92125 12.701875 15.4675 13.34125 15 14 C15.67518454 16.60470331 15.67518454 16.60470331 17 19 C17.33 19.99 17.66 20.98 18 22 C16.35 22 14.7 22 13 22 C12.443125 20.865625 11.88625 19.73125 11.3125 18.5625 C9.5777124 15.44531169 9.5777124 15.44531169 6.25 14.0625 C5.13625 14.0315625 5.13625 14.0315625 4 14 C4 16.64 4 19.28 4 22 C2.68 22 1.36 22 0 22 C0 14.74 0 7.48 0 0 Z M4 4 C4 6.31 4 8.62 4 11 C9.32170494 11.29562367 9.32170494 11.29562367 14 9 C14 7.68 14 6.36 14 5 C11.71294169 3.85647084 10.40735238 3.89665561 7.875 3.9375 C5.956875 3.9684375 5.956875 3.9684375 4 4 Z " fill="#231F20" transform="translate(1581,362)"/>
</svg>
