<?xml version="1.0" encoding="UTF-8"?> <svg xmlns="http://www.w3.org/2000/svg" width="137" height="23" fill="none"><g fill="#16284D" clip-path="url(#a)"><path d="M38.59 10.937c1.228-.805 1.95-2.226 1.95-3.87 0-2.905-2.034-4.781-5.183-4.781h-6.209v18.398h6.356c3.475 0 5.72-2.087 5.72-5.319 0-2.065-1.022-3.763-2.634-4.428Zm-6.668-6.084h3.385c1.507 0 2.41.923 2.41 2.47 0 1.546-.95 2.544-2.362 2.544H31.92V4.853h.002Zm3.702 13.26h-3.702v-5.779H35.6c1.701 0 2.8 1.14 2.8 2.902 0 1.762-1.063 2.878-2.774 2.878h-.002ZM46.77 2.286h-2.774v18.396h10.487v-2.567H46.77V2.286ZM67.137 14.062c0 2.65-1.577 4.231-4.216 4.231-2.639 0-4.167-1.561-4.167-4.178V2.285H55.98v11.828c0 4.111 2.798 6.874 6.965 6.874 4.168 0 6.966-2.763 6.966-6.874V2.284H67.14v11.778h-.002ZM75.46 12.692h6.177v-2.569h-6.176V4.855h7.592V2.286H72.688v18.396h10.78v-2.567h-8.007v-5.423ZM109.901 2.408l-.043-.124h-2.791l-6.329 18.398h2.872l1.71-5.182h6.239l1.733 5.182h2.896l-6.287-18.276v.002Zm-3.822 10.626 1.845-5.472c.178-.558.394-1.384.534-1.947.134.561.34 1.381.519 1.949l1.821 5.47h-4.721.002ZM114.977 4.855h5.907v15.827h2.774V4.855h5.907V2.286h-14.588v2.569ZM93.558 18.293c-3.545 0-6.218-2.982-6.218-6.936 0-3.954 2.605-6.706 6.195-6.706 1.94 0 3.47.868 4.26 1.436l1.62-2.075c-.82-.693-2.812-2.031-5.979-2.031-5.098 0-8.944 4.042-8.944 9.404s3.867 9.606 8.993 9.606c3.337 0 5.51-1.65 6.386-2.471l-1.74-1.945c-.83.677-2.45 1.72-4.575 1.72l.002-.002ZM136.999 4.853h-.356l-.14-1.728V3.08l-.572 1.305h-.289l-.573-1.305v.047l-.139 1.728h-.364l.197-2.567h.328l.637 1.455c.025.054.045.112.058.159.012-.045.032-.105.057-.16l.637-1.454h.328l.19 2.567.001-.002ZM133.565 4.853h-.367V2.64h-.854v-.356h2.082v.356h-.861v2.213ZM24.917.667s-2.587 1.368-4.495 2.916C18.418 1.378 15.59 0 12.459 0 9.327 0 6.5 1.378 4.495 3.583 2.59 2.035 0 .667 0 .667s.607 4 1.839 7.855a11.913 11.913 0 0 0-.376 2.979C1.463 17.842 6.397 23 12.46 23c6.064 0 10.998-5.158 10.998-11.5 0-1.029-.133-2.027-.376-2.978C24.314 4.667 24.919.667 24.919.667h-.002ZM12.458 19.694c-3.637 0-6.704-2.606-7.583-6.128 3.367-.23 6.738-1.07 6.738-1.07S8.53 10.24 5.06 8.804c1.07-3.198 3.98-5.499 7.398-5.499 3.417 0 6.328 2.301 7.397 5.499-3.468 1.438-6.554 3.69-6.554 3.69s3.37.843 6.74 1.071c-.877 3.522-3.945 6.128-7.583 6.128h.002Z"></path></g><defs><clipPath id="a"><path fill="#fff" d="M0 0h137v23H0z"></path></clipPath></defs></svg> 