<?xml version="1.0" encoding="UTF-8"?>
<svg version="1.1" xmlns="http://www.w3.org/2000/svg" width="200" height="50">
<path d="M0 0 C2.92353056 -0.62202778 4.19164729 -0.85626725 7 0 C10.85624815 3.41677204 14.67854405 7.35708811 17 12 C17.33 9.03 17.66 6.06 18 3 C17.01 2.67 16.02 2.34 15 2 C15 1.34 15 0.68 15 0 C17.97 0 20.94 0 24 0 C23.34 1.32 22.68 2.64 22 4 C21.83275263 7.16695956 21.83275263 7.16695956 22 10 C22.350625 9.505 22.70125 9.01 23.0625 8.5 C25.96292076 6.25451296 28.42415459 6.81179761 32 7 C33.32 7 34.64 7 36 7 C36.66 5.68 37.32 4.36 38 3 C38.99 3 39.98 3 41 3 C41 4.32 41 5.64 41 7 C41.33 5.68 41.66 4.36 42 3 C43.32 3 44.64 3 46 3 C46 4.32 46 5.64 46 7 C45.34 7 44.68 7 44 7 C44 7.99 44 8.98 44 10 C43.01 10 42.02 10 41 10 C41 12.97 41 15.94 41 19 C42.32 19 43.64 19 45 19 C45 19.66 45 20.32 45 21 C42.26752652 22.36623674 40.01801098 22.128426 37 22 C35.03177114 20.03177114 35.33751619 16.65191291 35 14 C32.03 14 29.06 14 26 14 C26.495 15.98 26.495 15.98 27 18 C29.31 17.67 31.62 17.34 34 17 C34 17.99 34 18.98 34 20 C32 22 32 22 30.125 22.265625 C29.42375 22.26046875 28.7225 22.2553125 28 22.25 C26.948125 22.25773437 26.948125 22.25773437 25.875 22.265625 C24 22 24 22 22 20 C21.67 20.66 21.34 21.32 21 22 C19.68 22 18.36 22 17 22 C14.67578125 19.62890625 14.67578125 19.62890625 12.3125 16.5625 C11.52488281 15.55316406 10.73726563 14.54382813 9.92578125 13.50390625 C9.29027344 12.67761719 8.65476563 11.85132813 8 11 C7.505 10.505 7.505 10.505 7 10 C7 12.97 7 15.94 7 19 C7.99 19.33 8.98 19.66 10 20 C10 20.66 10 21.32 10 22 C7.54159395 22.02691685 5.08348118 22.04679802 2.625 22.0625 C1.92632812 22.07087891 1.22765625 22.07925781 0.5078125 22.08789062 C-4.7734375 22.11328125 -4.7734375 22.11328125 -7 21 C-7.99 21.495 -7.99 21.495 -9 22 C-12.67329964 22.13357453 -15.49852959 22.1671568 -19 21 C-19.495 21.495 -19.495 21.495 -20 22 C-21.63472882 22.08700342 -23.27314055 22.10701063 -24.91015625 22.09765625 C-25.89951172 22.09443359 -26.88886719 22.09121094 -27.90820312 22.08789062 C-28.94912109 22.07951172 -29.99003906 22.07113281 -31.0625 22.0625 C-32.10728516 22.05798828 -33.15207031 22.05347656 -34.22851562 22.04882812 C-36.8190666 22.03699913 -39.40950559 22.02051689 -42 22 C-42 21.34 -42 20.68 -42 20 C-41.34 20 -40.68 20 -40 20 C-40.33 17.03 -40.66 14.06 -41 11 C-42.65 11.33 -44.3 11.66 -46 12 C-46.33 14.64 -46.66 17.28 -47 20 C-46.01 20 -45.02 20 -44 20 C-44 20.66 -44 21.32 -44 22 C-47.3 22 -50.6 22 -54 22 C-54 21.34 -54 20.68 -54 20 C-53.34 20 -52.68 20 -52 20 C-52 16.7 -52 13.4 -52 10 C-52.66 10 -53.32 10 -54 10 C-54 9.34 -54 8.68 -54 8 C-47.6368234 6.8430588 -41.46395007 6.92737135 -35 7 C-34.67 10.96 -34.34 14.92 -34 19 C-33.34 19 -32.68 19 -32 19 C-30.40604084 16.75116689 -30.40604084 16.75116689 -28.875 14 C-28.33617188 13.071875 -27.79734375 12.14375 -27.2421875 11.1875 C-26.83226563 10.465625 -26.42234375 9.74375 -26 9 C-26.61875 9.495 -27.2375 9.99 -27.875 10.5 C-30 12 -30 12 -32 12 C-32 10.35 -32 8.7 -32 7 C-29.27157939 5.63578969 -27.39046682 6.12192789 -24.375 6.4375 C-23.37210938 6.53933594 -22.36921875 6.64117188 -21.3359375 6.74609375 C-20.56507812 6.82988281 -19.79421875 6.91367187 -19 7 C-20.64557388 11.29183459 -22.67400176 15.04580299 -25 19 C-23.02 18.34 -21.04 17.68 -19 17 C-19.0825 16.0925 -19.165 15.185 -19.25 14.25 C-19 11 -19 11 -17.4375 8.625 C-14.13230302 6.42153535 -11.89201406 6.56755399 -8 7 C-6 9 -6 9 -5.875 11.625 C-5.91625 12.40875 -5.9575 13.1925 -6 14 C-8.64 14.33 -11.28 14.66 -14 15 C-12.80502546 16.64941034 -12.80502546 16.64941034 -11 18 C-8.7498 17.88977779 -8.7498 17.88977779 -6.4375 17.125 C-2.18181818 15.90909091 -2.18181818 15.90909091 0 17 C0 17.99 0 18.98 0 20 C0.99 20 1.98 20 3 20 C3 14.39 3 8.78 3 3 C2.01 2.67 1.02 2.34 0 2 C0 1.34 0 0.68 0 0 Z M-13 9 C-13.33 9.99 -13.66 10.98 -14 12 C-13.01 12 -12.02 12 -11 12 C-11.33 11.01 -11.66 10.02 -12 9 C-12.33 9 -12.66 9 -13 9 Z M28 9 C27.01 10.485 27.01 10.485 26 12 C27.32 11.67 28.64 11.34 30 11 C29.34 10.34 28.68 9.68 28 9 Z " fill="#005581" transform="translate(144,14)"/>
<path d="M0 0 C3 1 3 1 3.9831543 2.76586914 C4.3994812 3.88916626 4.3994812 3.88916626 4.82421875 5.03515625 C5.13037109 5.84404297 5.43652344 6.65292969 5.75195312 7.48632812 C6.06068359 8.33646484 6.36941406 9.18660156 6.6875 10.0625 C7.00783203 10.91650391 7.32816406 11.77050781 7.65820312 12.65039062 C8.44908493 14.76334351 9.2291202 16.87968513 10 19 C10.02712066 17.56260487 10.04645067 16.12506137 10.0625 14.6875 C10.07410156 13.88699219 10.08570312 13.08648437 10.09765625 12.26171875 C10.09657855 9.83138666 10.09657855 9.83138666 9 7 C11.31 7 13.62 7 16 7 C16.33 10.63 16.66 14.26 17 18 C17.66 18 18.32 18 19 18 C19.020625 16.741875 19.04125 15.48375 19.0625 14.1875 C19.07410156 13.47980469 19.08570312 12.77210937 19.09765625 12.04296875 C19.08263217 9.79694539 19.08263217 9.79694539 18 7 C20.31 7 22.62 7 25 7 C25 10.96 25 14.92 25 19 C25.66 19 26.32 19 27 19 C26.505 20.485 26.505 20.485 26 22 C18.08 22 10.16 22 2 22 C2.33 21.01 2.66 20.02 3 19 C2.61067144 16.85744207 2.61067144 16.85744207 2 15 C0.35 15 -1.3 15 -3 15 C-3.33 16.65 -3.66 18.3 -4 20 C-3.34 20 -2.68 20 -2 20 C-2 20.66 -2 21.32 -2 22 C-4.64 22 -7.28 22 -10 22 C-10 21.34 -10 20.68 -10 20 C-9.34 20 -8.68 20 -8 20 C-7.82984375 19.46632813 -7.6596875 18.93265625 -7.484375 18.3828125 C-2.23076923 2.23076923 -2.23076923 2.23076923 0 0 Z M-1 8 C-1.33 9.65 -1.66 11.3 -2 13 C-1.01 13 -0.02 13 1 13 C0.67 11.35 0.34 9.7 0 8 C-0.33 8 -0.66 8 -1 8 Z " fill="#005581" transform="translate(20,14)"/>
<path d="M0 0 C1.98 0 3.96 0 6 0 C6.33 2.64 6.66 5.28 7 8 C8.134375 7.979375 9.26875 7.95875 10.4375 7.9375 C14 8 14 8 15 9 C15.20956883 10.78715644 15.36811616 12.58043769 15.5 14.375 C15.73236344 17.52020509 15.99875969 19.99627907 17 23 C14.36 23 11.72 23 9 23 C9.33 22.01 9.66 21.02 10 20 C10.06740865 18.43881572 10.08514456 16.8749748 10.0625 15.3125 C10.05347656 14.50425781 10.04445313 13.69601563 10.03515625 12.86328125 C10.02355469 12.24839844 10.01195313 11.63351563 10 11 C9.01 11.33 8.02 11.66 7 12 C6.979375 13.258125 6.95875 14.51625 6.9375 15.8125 C6.92589844 16.52019531 6.91429688 17.22789063 6.90234375 17.95703125 C6.91736783 20.20305461 6.91736783 20.20305461 8 23 C5.35409986 23.02684679 2.70846904 23.04676357 0.0625 23.0625 C-0.69224609 23.07087891 -1.44699219 23.07925781 -2.22460938 23.08789062 C-4.14994313 23.09652441 -6.07535581 23.05224333 -8 23 C-9 22 -9 22 -9.09765625 19.49609375 C-9.08605469 18.48675781 -9.07445312 17.47742188 -9.0625 16.4375 C-9.05347656 15.42558594 -9.04445312 14.41367187 -9.03515625 13.37109375 C-9.02355469 12.58863281 -9.01195312 11.80617188 -9 11 C-9.66 11 -10.32 11 -11 11 C-11 10.01 -11 9.02 -11 8 C-10.34 8 -9.68 8 -9 8 C-8.34 6.68 -7.68 5.36 -7 4 C-6.01 4 -5.02 4 -4 4 C-4 5.32 -4 6.64 -4 8 C-3.01 8 -2.02 8 -1 8 C-1 8.99 -1 9.98 -1 11 C-1.99 11 -2.98 11 -4 11 C-4 13.97 -4 16.94 -4 20 C-2.68 20 -1.36 20 0 20 C0.33 14.39 0.66 8.78 1 3 C0.34 3 -0.32 3 -1 3 C-0.67 2.01 -0.34 1.02 0 0 Z " fill="#005581" transform="translate(57,13)"/>
<path d="M0 0 C1.90625 0.4140625 1.90625 0.4140625 4.40625 1.9765625 C6.49017818 5.36294579 6.46427097 7.50791568 5.90625 11.4140625 C4.40625 13.8515625 4.40625 13.8515625 1.90625 15.4140625 C-2.16904338 16.22411057 -5.08297596 16.07106562 -8.59375 13.7890625 C-10.5611699 10.67398099 -10.6861239 9.04235261 -10.09375 5.4140625 C-7.58590691 0.60736325 -5.16868613 -0.3664367 0 0 Z M-3.09375 2.4140625 C-4.85437164 5.73968115 -5.20159228 7.00580245 -4.21875 10.7265625 C-3.8475 11.6134375 -3.47625 12.5003125 -3.09375 13.4140625 C-2.10375 13.0840625 -1.11375 12.7540625 -0.09375 12.4140625 C-0.073125 11.1353125 -0.0525 9.8565625 -0.03125 8.5390625 C-0.01964844 7.81976562 -0.00804688 7.10046875 0.00390625 6.359375 C0.03274242 4.33220846 0.03274242 4.33220846 -1.09375 2.4140625 C-1.75375 2.4140625 -2.41375 2.4140625 -3.09375 2.4140625 Z " fill="#005581" transform="translate(84.09375,20.5859375)"/>
<path d="M0 0 C1.98 0.495 1.98 0.495 4 1 C4 2.65 4 4.3 4 6 C2.35 5.67 0.7 5.34 -1 5 C-0.67 3.35 -0.34 1.7 0 0 Z " fill="#005581" transform="translate(105,13)"/>
</svg>
