<?xml version="1.0" encoding="UTF-8"?>
<svg version="1.1" xmlns="http://www.w3.org/2000/svg" width="3168" height="2448">
<path d="M0 0 C1.71177429 -0.00855011 1.71177429 -0.00855011 3.45812988 -0.01727295 C5.86839895 -0.02667043 8.27868057 -0.03323588 10.68896484 -0.03710938 C14.27856661 -0.04670083 17.86756616 -0.07772797 21.45703125 -0.109375 C43.02997654 -0.20910985 64.31028066 1.66328887 85.46875 5.953125 C86.75668457 6.20989014 88.04461914 6.46665527 89.37158203 6.73120117 C117.62824199 12.47191581 144.85191167 21.75012314 170.84375 34.203125 C171.66149902 34.59081055 172.47924805 34.97849609 173.32177734 35.37792969 C201.86148944 48.97675445 229.09544322 66.44287074 252.3671875 87.9375 C254.36602586 89.7660903 256.39379678 91.53351871 258.44921875 93.296875 C263.2766489 97.5115842 267.82241023 101.99570616 272.35229492 106.52636719 C273.77043284 107.94232447 275.19671665 109.35010789 276.62304688 110.7578125 C282.80628352 116.92815845 288.40020356 123.37794301 293.84375 130.203125 C295.40325185 132.0182053 296.96508812 133.83128826 298.53125 135.640625 C338.55182344 183.72736053 363.09762366 244.87116375 372.84375 306.203125 C373.0914917 307.66057129 373.0914917 307.66057129 373.34423828 309.14746094 C378.88070704 342.6868963 378.66606965 380.72347922 372.84375 414.203125 C372.64507324 415.40195313 372.44639648 416.60078125 372.24169922 417.8359375 C362.29494152 476.84591574 338.88961808 533.00770402 301.84375 580.203125 C301.21597656 581.01136719 300.58820312 581.81960938 299.94140625 582.65234375 C297.93905965 585.19520109 295.89710244 587.70129667 293.84375 590.203125 C293.08835937 591.14542969 292.33296875 592.08773437 291.5546875 593.05859375 C284.62961284 601.52419286 276.99034598 609.2722292 269.28125 617.015625 C268.75081085 617.55124054 268.2203717 618.08685608 267.67385864 618.63870239 C260.73135394 625.63451516 253.5685849 632.06262442 245.84375 638.203125 C244.0286697 639.76262685 242.21558674 641.32446312 240.40625 642.890625 C196.09933621 679.76541132 139.71775807 704.17270368 83.40625 714.953125 C82.44517334 715.13979736 81.48409668 715.32646973 80.49389648 715.51879883 C59.02919284 719.38157822 37.49837214 720.75985406 15.71875 720.640625 C14.5278476 720.63758362 13.33694519 720.63454224 12.10995483 720.63140869 C-7.25984059 720.55861363 -26.07417853 719.65291737 -45.15625 716.203125 C-46.97914551 715.87368896 -46.97914551 715.87368896 -48.83886719 715.53759766 C-122.63966048 701.71828664 -188.28242804 666.2710369 -241.24291992 613.30175781 C-242.71580972 611.8310609 -244.19655265 610.36858966 -245.67773438 608.90625 C-251.9471296 602.67356137 -257.65561899 596.12830507 -263.15625 589.203125 C-264.10874147 588.06389727 -265.06507742 586.92785834 -266.02734375 585.796875 C-323.95823683 516.56022177 -351.47505858 421.76833349 -344.15625 332.203125 C-336.21486252 244.59132912 -299.48602756 165.33727615 -237.25488281 103.11645508 C-235.7841859 101.64356528 -234.32171466 100.16282235 -232.859375 98.68164062 C-226.62668637 92.4122454 -220.08143007 86.70375601 -213.15625 81.203125 C-212.01702227 80.25063353 -210.88098334 79.29429758 -209.75 78.33203125 C-192.53701538 63.93491296 -173.08523569 51.46662556 -153.15625 41.203125 C-152.50221191 40.86168457 -151.84817383 40.52024414 -151.17431641 40.16845703 C-147.22273984 38.11175411 -143.24167437 36.12829113 -139.22558594 34.20068359 C-137.84455081 33.53493212 -136.46755561 32.86073525 -135.09472656 32.17822266 C-94.22723116 11.93289125 -45.61145411 0.18259813 0 0 Z M-31.15625 60.203125 C-32.16526367 60.37473145 -33.17427734 60.54633789 -34.21386719 60.72314453 C-84.67433138 69.46660372 -132.14346966 90.16101803 -172.15625 122.203125 C-173.07535156 122.92886719 -173.99445312 123.65460938 -174.94140625 124.40234375 C-189.40421907 135.99340381 -203.45582246 148.91751336 -214.97265625 163.47265625 C-216.39727686 165.25406915 -217.86246073 167.00399536 -219.37109375 168.71484375 C-232.35972076 183.5188529 -243.05794603 200.76624385 -252.15625 218.203125 C-252.48496094 218.82493652 -252.81367188 219.44674805 -253.15234375 220.08740234 C-270.76356982 253.57100288 -281.74050411 289.6166201 -286.15625 327.203125 C-286.29764404 328.32243408 -286.29764404 328.32243408 -286.44189453 329.46435547 C-287.53245976 339.3769886 -287.4001072 349.3683563 -287.40625 359.328125 C-287.40692474 360.31044098 -287.40759949 361.29275696 -287.40829468 362.30484009 C-287.39174063 377.48923531 -286.8125206 392.21916735 -284.15625 407.203125 C-283.98464355 408.21213867 -283.81303711 409.22115234 -283.63623047 410.26074219 C-272.61314611 473.87743458 -243.49290258 536.31931408 -189.75073242 574.40234375 C-163.29542072 592.74941209 -133.16085295 604.32331993 -101.15625 608.203125 C-100.39900635 608.2959375 -99.6417627 608.38875 -98.86157227 608.484375 C-49.93723384 613.95023625 0.86370293 599.7570775 39.81640625 569.640625 C53.82684088 558.35996538 66.84914605 546.5091325 77.84375 532.203125 C78.31796387 531.58937012 78.79217773 530.97561523 79.28076172 530.34326172 C80.81462261 528.34762488 82.33179295 526.34039616 83.84375 524.328125 C84.32529541 523.69737061 84.80684082 523.06661621 85.30297852 522.41674805 C88.73506159 517.78490654 88.73506159 517.78490654 89.84375 512.203125 C87.84375 509.203125 87.84375 509.203125 84.84375 507.203125 C81.27642768 507.59456111 78.0077151 508.7584051 74.6328125 509.9453125 C31.04798409 525.0277332 -14.30058034 524.51941462 -56.15625 504.203125 C-56.77806152 503.90712402 -57.39987305 503.61112305 -58.04052734 503.30615234 C-94.20380744 485.89698942 -122.38397205 452.57024946 -135.61621094 414.93554688 C-145.11590394 386.55242656 -148.46405091 353.5853434 -141.15625 324.203125 C-140.85823486 323.00357178 -140.85823486 323.00357178 -140.55419922 321.77978516 C-129.99523524 280.86478841 -104.62943388 244.75977148 -68.265625 222.81640625 C-33.08294218 202.19850425 10.71318119 193.0252826 50.84375 203.203125 C51.6495752 203.39648438 52.45540039 203.58984375 53.28564453 203.7890625 C87.97435672 212.25386593 119.9932239 231.73364391 141.84375 260.203125 C142.57078125 261.10289062 143.2978125 262.00265625 144.046875 262.9296875 C162.69173229 286.59431407 171.38782111 314.90995995 177.09375 344.078125 C177.24489258 344.84825928 177.39603516 345.61839355 177.55175781 346.41186523 C180.33882132 361.52523615 181.19212918 376.38269294 181.15942383 391.72998047 C181.1562753 394.8034253 181.17978225 397.87589268 181.20507812 400.94921875 C181.26242056 418.80947099 179.54492386 436.46010397 175.53125 453.890625 C175.31960205 454.83083496 175.1079541 455.77104492 174.88989258 456.73974609 C160.83615772 517.5659874 126.39638454 576.54485015 75.56640625 613.92919922 C73.80813165 615.22946522 72.07528929 616.5589232 70.34375 617.89453125 C55.59452293 629.14740763 39.5504711 638.2094136 22.84375 646.203125 C20.56998265 647.30123706 18.29887967 648.40489382 16.03125 649.515625 C15.09667969 649.96550781 14.16210938 650.41539062 13.19921875 650.87890625 C10.95388726 652.14120704 9.40821289 653.16252123 7.84375 655.203125 C7.84375 658.28645833 7.84375 658.28645833 8.84375 661.203125 C13.33453096 664.19697897 17.61630635 663.54319344 22.90625 663.515625 C24.57397461 663.50825317 24.57397461 663.50825317 26.27539062 663.50073242 C90.21688489 662.62562073 154.15584509 637.99304089 203.84375 598.203125 C204.76285156 597.47738281 205.68195313 596.75164063 206.62890625 596.00390625 C221.09171907 584.41284619 235.14332246 571.48873664 246.66015625 556.93359375 C248.08477686 555.15218085 249.54996073 553.40225464 251.05859375 551.69140625 C264.05218721 536.8817365 274.72445624 519.6350236 283.84375 502.203125 C284.32884033 501.29433594 284.32884033 501.29433594 284.82373047 500.3671875 C302.56561713 467.01208872 313.30711448 430.64999017 317.84375 393.203125 C317.98731934 392.07511475 317.98731934 392.07511475 318.13378906 390.92431641 C319.22253952 381.01824818 319.08761134 371.03118569 319.09375 361.078125 C319.09442474 360.09580902 319.09509949 359.11349304 319.09579468 358.10140991 C319.07924063 342.91701469 318.5000206 328.18708265 315.84375 313.203125 C315.67214355 312.19411133 315.50053711 311.18509766 315.32373047 310.14550781 C305.67343649 254.45149665 281.31125316 201.17002544 242.875 159.41796875 C241.06533012 157.44473256 239.32535109 155.43204687 237.59375 153.390625 C229.95297607 144.65325852 221.65070839 136.54223461 212.5390625 129.3515625 C210.76972317 127.94121955 209.03318245 126.48851249 207.3359375 124.9921875 C192.53245261 112.00137423 175.28239183 101.3005505 157.84375 92.203125 C157.21130371 91.86909668 156.57885742 91.53506836 155.92724609 91.19091797 C122.54917238 73.65215087 86.28876288 62.60224809 48.84375 58.203125 C47.72444092 58.06173096 47.72444092 58.06173096 46.58251953 57.91748047 C36.6698864 56.82691524 26.6785187 56.9592678 16.71875 56.953125 C15.73643402 56.95245026 14.75411804 56.95177551 13.74203491 56.95108032 C-1.44236031 56.96763437 -16.17229235 57.5468544 -31.15625 60.203125 Z M-65.15625 294.203125 C-67.83410393 297.38307655 -70.052276 300.61987237 -72.15625 304.203125 C-72.51025879 304.80463379 -72.86426758 305.40614258 -73.22900391 306.02587891 C-82.88434025 322.67091831 -88.58479806 339.99733645 -88.46875 359.390625 C-88.46311035 360.3923877 -88.4574707 361.39415039 -88.45166016 362.42626953 C-88.05113156 387.16783288 -79.2314841 409.49799575 -63.15625 428.203125 C-62.38087891 429.19505859 -62.38087891 429.19505859 -61.58984375 430.20703125 C-46.36249426 449.09810393 -21.20658029 461.06582177 2.57568359 463.9921875 C29.15716222 466.46435085 57.30714644 460.89730216 78.51953125 443.85693359 C82.11968771 440.79486734 85.4880733 437.52910544 88.84375 434.203125 C89.59398438 433.501875 90.34421875 432.800625 91.1171875 432.078125 C104.7502775 419.1240778 113.28118544 401.24250842 117.84375 383.203125 C118.08867187 382.24792969 118.33359375 381.29273438 118.5859375 380.30859375 C123.91255413 354.80650455 118.22871971 326.65611618 104.59204102 304.63354492 C88.28167008 279.71819828 64.1343922 263.69206838 35.15625 257.328125 C-3.41653162 250.34620893 -39.378822 265.70778516 -65.15625 294.203125 Z " fill="#0066CC" transform="translate(2470.15625,863.796875)"/>
<path d="M0 0 C1.96484025 -0.00701996 1.96484025 -0.00701996 3.96937424 -0.01418173 C7.5856752 -0.02665255 11.20173725 -0.02053922 14.81803882 -0.01122308 C18.72625298 -0.00441616 22.63442696 -0.01492235 26.54263306 -0.02316284 C34.19363498 -0.03648824 41.84454849 -0.03362678 49.49555384 -0.02492492 C55.72040204 -0.01813963 61.94522553 -0.01723532 68.17007637 -0.02049637 C69.05732627 -0.02095607 69.94457617 -0.02141577 70.85871242 -0.0218894 C72.66146946 -0.02284863 74.46422649 -0.02382127 76.26698352 -0.02480717 C93.16676814 -0.03335873 110.06650392 -0.02353293 126.96628053 -0.00740607 C141.43677849 0.00597604 155.90720417 0.00368597 170.37770081 -0.01016235 C187.20457827 -0.02625835 204.03141284 -0.03251287 220.85829693 -0.02332556 C222.65703745 -0.02236999 224.45577798 -0.02142688 226.25451851 -0.02049637 C227.13937431 -0.02003354 228.02423011 -0.01957072 228.93589972 -0.01909386 C235.14171955 -0.01651444 241.34751197 -0.02085269 247.55332756 -0.02793503 C255.13349794 -0.03639593 262.71357526 -0.03397518 270.29373514 -0.0180928 C274.15421258 -0.01026807 278.01453554 -0.00701762 281.87501144 -0.01704025 C312.03626203 -0.08868453 339.20245261 2.26857851 362.81446838 23.38095093 C363.64720276 24.11958374 364.47993713 24.85821655 365.33790588 25.61923218 C381.05844891 40.39654263 391.96162419 62.68904433 392.81446838 84.38095093 C392.85442932 85.35161499 392.89439026 86.32227905 392.93556213 87.32235718 C393.32525857 106.37163597 388.89031943 127.12536395 376.81446838 142.38095093 C377.54149963 142.8424353 378.26853088 143.30391968 379.01759338 143.77938843 C402.34657011 158.91331436 417.78993323 177.7980776 424.49415588 205.15438843 C429.24861042 228.92666109 424.22406797 254.4237632 411.0092926 274.69491577 C407.46101573 279.70194481 403.13750961 284.04588455 398.81446838 288.38095093 C398.28458313 288.94435181 397.75469788 289.50775269 397.20875549 290.08822632 C393.02938865 294.45802423 388.66862414 297.81437365 383.50196838 300.94345093 C382.72434143 301.41452271 381.94671448 301.88559448 381.14552307 302.37094116 C375.79848358 305.48897254 370.42931349 307.96852157 364.56446838 309.94345093 C363.89375305 310.17040649 363.22303772 310.39736206 362.53199768 310.63119507 C350.89089663 314.20869062 338.80065608 314.67749216 326.71429443 314.64164734 C325.2443198 314.64467579 323.77434675 314.64856871 322.30437642 314.65323991 C318.30579642 314.66343839 314.3073069 314.66135919 310.30871975 314.65705931 C305.98086358 314.65457731 301.65302838 314.66362413 297.32518005 314.6710968 C288.8644251 314.68380249 280.40370195 314.68564288 271.94293907 314.68329654 C265.06596288 314.68150954 258.1889963 314.68327116 251.31202126 314.68752098 C250.33126338 314.68811617 249.3505055 314.68871136 248.34002769 314.68932458 C246.34736575 314.69053638 244.35470381 314.69175052 242.36204187 314.69296696 C223.70612419 314.70382536 205.05022461 314.70168734 186.39430592 314.69558211 C169.33285672 314.69040747 152.27146451 314.70168587 135.21002658 314.72068033 C117.67287206 314.7400543 100.13574452 314.74831595 82.59857923 314.74455708 C72.75992632 314.74264527 62.921322 314.74513126 53.08267784 314.75927162 C44.71259945 314.7711803 36.3425996 314.7725956 27.97252014 314.76048145 C23.70402013 314.75459085 19.43566384 314.75349862 15.16717339 314.76548386 C11.25722535 314.77633487 7.34754119 314.77324876 3.43760554 314.75922217 C2.02602947 314.75657323 0.61443277 314.758948 -0.79712305 314.76695804 C-11.15760628 314.82165322 -19.44808484 314.17599897 -27.58006287 307.36923218 C-33.14247622 300.48050128 -33.76547028 294.40233303 -33.69346619 285.84286499 C-33.69970615 284.69827946 -33.70594611 283.55369392 -33.71237516 282.37442398 C-33.72829942 278.54826361 -33.71570233 274.72274077 -33.70310974 270.89657593 C-33.70633113 268.14977712 -33.71550941 265.40300518 -33.72434998 262.65621948 C-33.74211183 255.97562457 -33.7383057 249.2952097 -33.72669941 242.61460781 C-33.71765614 237.18388329 -33.71644495 231.75320914 -33.72079468 226.32247925 C-33.72140761 225.5487718 -33.72202054 224.77506436 -33.72265205 223.97791123 C-33.72393098 222.40600934 -33.72522784 220.83410746 -33.72654241 219.2622056 C-33.73794137 204.53161807 -33.72484527 189.80113021 -33.70334095 175.07055902 C-33.68547057 162.43829601 -33.68857487 149.80618004 -33.70701599 137.17391968 C-33.72843482 122.49509639 -33.7368428 107.81636039 -33.72456694 93.13752365 C-33.72329278 91.57148998 -33.72203529 90.0054563 -33.72079468 88.43942261 C-33.72017758 87.66895733 -33.71956047 86.89849205 -33.71892467 86.10467935 C-33.7154748 80.68214076 -33.72129227 75.25965767 -33.73071289 69.83712769 C-33.74194553 63.22645286 -33.73886639 56.61596796 -33.71758991 50.00531483 C-33.7070961 46.63404467 -33.70509094 43.26335218 -33.71618652 39.89204407 C-33.7271157 36.23405939 -33.71340819 32.57696482 -33.69346619 28.91903687 C-33.70238907 27.85833103 -33.71131196 26.7976252 -33.72050524 25.70477676 C-33.64273049 18.35046188 -32.3025112 13.24115193 -27.58006287 7.39266968 C-19.22142069 0.3961766 -10.58576352 -0.05833512 0 0 Z M13.81446838 48.38095093 C13.81446838 76.43095093 13.81446838 104.48095093 13.81446838 133.38095093 C51.22551169 133.44710812 88.63649975 133.50249262 126.04758482 133.53414692 C130.4659732 133.53789896 134.88436145 133.54178194 139.30274963 133.54574585 C140.62216201 133.54692625 140.62216201 133.54692625 141.96822919 133.54813049 C156.20401738 133.56117848 170.43976917 133.58482899 184.67553578 133.61240932 C199.28664214 133.64048039 213.89772945 133.65713079 228.50886166 133.66321641 C237.52210556 133.66732932 246.53524655 133.68031189 255.54845877 133.70470033 C261.73216491 133.72057852 267.91581798 133.72534657 274.09954302 133.72145506 C277.66532161 133.71953675 281.23092058 133.72244293 284.7966671 133.73856735 C288.66870464 133.7559483 292.54051018 133.74989553 296.4125824 133.74171448 C297.53128373 133.750453 298.64998506 133.75919153 299.80258644 133.76819485 C312.81015259 133.69402284 323.42291102 129.57266022 333.06446838 120.75595093 C341.35657256 111.99384895 345.40417086 100.31199133 345.12306213 88.37313843 C343.80633041 75.60584094 337.86479738 65.00443451 327.97853088 56.91220093 C317.49992419 49.49773554 307.17522868 48.07471545 294.60876465 48.14044189 C293.40459398 48.13873304 292.20042332 48.1370242 290.95976263 48.13526356 C287.63934644 48.13255081 284.31916898 48.13875566 280.9987818 48.14881968 C277.40994963 48.1574916 273.82112426 48.15453139 270.23228455 48.15301514 C264.0216696 48.15196864 257.81109682 48.15822055 251.60049248 48.16949081 C242.62111075 48.18577488 233.64174931 48.19095679 224.66235442 48.1934668 C210.09236068 48.19783934 195.52238939 48.21113649 180.95240784 48.23007202 C166.80266939 48.24844222 152.65293706 48.26259315 138.50318909 48.27108765 C137.1939513 48.27187582 137.1939513 48.27187582 135.85826426 48.27267991 C131.47936713 48.27529007 127.10046996 48.27781746 122.72157276 48.28030372 C86.41918469 48.30102251 50.11683817 48.33788487 13.81446838 48.38095093 Z M13.81446838 181.38095093 C13.81446838 209.43095093 13.81446838 237.48095093 13.81446838 266.38095093 C55.25105998 266.46918104 96.68756279 266.54301911 138.12422149 266.58521225 C143.01942439 266.5902149 147.9146271 266.5953922 152.80982971 266.60067749 C153.78435071 266.60172673 154.7588717 266.60277597 155.76292364 266.60385701 C171.52926364 266.62124844 187.29554513 266.65277918 203.06185045 266.68956211 C219.24707719 266.72700665 235.43227334 266.74919421 251.61754161 266.75730491 C261.59968768 266.76278539 271.58166834 266.78007687 281.56376348 266.8126168 C288.41468465 266.83380806 295.26552066 266.84014055 302.11647221 266.83495644 C306.06544068 266.83240182 310.01412069 266.83623721 313.96303749 266.85777283 C317.58638119 266.87738748 321.20924531 266.87812572 324.83261213 266.86454651 C326.74770519 266.86208379 328.66279349 266.87920167 330.57780284 266.89727616 C344.68949327 266.80080176 356.08382559 262.68099709 366.50196838 253.19345093 C375.35602074 243.88640054 378.30547161 233.10961552 378.06056213 220.61923218 C377.19528279 209.23325479 371.51040915 199.08978141 363.29493713 191.27157593 C355.24019868 185.13221622 346.23578382 181.25402412 336.07673168 181.2579031 C334.92422269 181.25591205 333.7717137 181.253921 332.58428019 181.25186962 C331.32261336 181.25478246 330.06094653 181.2576953 328.76104736 181.26069641 C327.40379736 181.26026028 326.04654744 181.25938459 324.68929797 181.25810724 C320.96086774 181.25587056 317.23246622 181.2598723 313.50403965 181.26488531 C309.48295841 181.26920145 305.4618788 181.26774255 301.4407959 181.26698303 C294.47437849 181.26645854 287.50797045 181.26959758 280.5415554 181.27522087 C270.46927338 181.28334593 260.39699589 181.28595213 250.32471094 181.28720886 C233.98332218 181.2893978 217.64193842 181.2960536 201.30055237 181.30551147 C185.42587814 181.31468968 169.55120527 181.32176852 153.67652893 181.32601929 C152.20889753 181.32641337 152.20889753 181.32641337 150.71161702 181.32681542 C145.80319482 181.32812045 140.89477262 181.32938416 135.98635042 181.33062732 C95.26238531 181.340995 54.53842943 181.35943066 13.81446838 181.38095093 Z " fill="#0066CC" transform="translate(355.18553161621094,1066.6190490722656)"/>
<path d="M0 0 C2.51307831 -0.00243144 5.02615565 -0.00615417 7.53923035 -0.01106262 C13.62912491 -0.01945901 19.71886812 -0.01399755 25.80875196 -0.00179968 C32.92186553 0.01190947 40.03495154 0.0101745 47.14807496 0.00806699 C59.85557688 0.00488467 72.56302257 0.01649877 85.27050781 0.03613281 C97.55861119 0.05511351 109.84664864 0.06222463 122.13476562 0.05664062 C135.55644261 0.05055943 148.97809069 0.05080407 162.39976531 0.06212646 C163.83586967 0.06333356 165.27197403 0.06453955 166.70807838 0.0657444 C167.41441548 0.06634794 168.12075257 0.06695148 168.84849381 0.06757331 C173.78801889 0.07142656 178.7275331 0.0710689 183.66705894 0.06915855 C190.33942706 0.06679347 197.01169978 0.07549178 203.68405342 0.09121895 C206.11910532 0.0954258 208.55416575 0.09633694 210.98921967 0.09352875 C228.25017586 0.07665736 245.61690853 0.28768867 262.46606445 4.49731445 C263.32603027 4.70831787 264.18599609 4.91932129 265.07202148 5.13671875 C289.21951355 11.37933174 311.57747468 23.26642222 329.7980957 40.2980957 C331.84016765 42.19711532 333.94308028 43.970691 336.09106445 45.74731445 C341.05202982 50.09188733 345.02169463 55.15670556 349.02856445 60.37231445 C349.82262695 61.38938477 350.61668945 62.40645508 351.43481445 63.4543457 C367.28011424 84.29463359 377.56007986 109.43034288 381.02856445 135.37231445 C381.16560791 136.36593994 381.16560791 136.36593994 381.30541992 137.37963867 C385.23993567 168.52613499 379.71162429 199.28322999 366.02856445 227.37231445 C365.48458008 228.48993164 364.9405957 229.60754883 364.38012695 230.7590332 C358.42764613 242.34261677 350.92132424 252.70414458 342.03637695 262.20825195 C340.31502131 264.06356524 338.73199354 265.95952319 337.15356445 267.93481445 C333.04941445 272.74929811 327.99556649 276.49531155 323.02856445 280.37231445 C322.09915039 281.11739258 321.16973633 281.8624707 320.2121582 282.63012695 C292.02579554 304.64233398 257.3432494 314.54478174 221.88504028 314.51275635 C220.30414275 314.51721303 220.30414275 314.51721303 218.6913079 314.52175975 C215.1958083 314.53036053 211.70034329 314.53194759 208.20483398 314.53344727 C205.68393889 314.53808139 203.16304448 314.54310684 200.64215088 314.54849243 C193.81982473 314.56155719 186.9975098 314.56808685 180.17517328 314.57250309 C175.90752064 314.57527752 171.63987022 314.5795168 167.37221909 314.58400726 C155.53191076 314.59618599 143.6916042 314.60649021 131.85128975 314.60988235 C131.09558937 314.61010192 130.33988898 314.61032149 129.56128859 314.61054771 C128.80390564 314.61076598 128.04652269 314.61098426 127.26618874 314.61120915 C125.73173976 314.6116526 124.19729078 314.61209917 122.6628418 314.61254883 C121.52116143 314.61288097 121.52116143 314.61288097 120.35641681 314.61321983 C108.02201133 314.61716845 95.6876649 314.63463069 83.35328223 314.65790835 C70.65827308 314.68167143 57.96329352 314.69408634 45.26826179 314.69525027 C38.15299176 314.69616389 31.03779886 314.70183742 23.9225502 314.72006989 C17.22969252 314.73716131 10.53700569 314.73868672 3.84412384 314.72993088 C1.39567803 314.72916276 -1.05277578 314.73347327 -3.50120163 314.74338913 C-33.76623462 314.85872074 -33.76623462 314.85872074 -47.15893555 307.87231445 C-47.82473633 307.5282959 -48.49053711 307.18427734 -49.17651367 306.82983398 C-61.97857585 299.83931546 -71.06122702 287.76552477 -75.54969788 273.96530151 C-77.94815053 264.88582828 -77.39787556 255.45329742 -77.37548828 246.13452148 C-77.38119741 243.98652798 -77.38816376 241.8385375 -77.39628601 239.69055176 C-77.41417289 233.88055417 -77.41305737 228.07070798 -77.40734363 222.26069117 C-77.40424518 217.40005155 -77.41035156 212.53944074 -77.41638237 207.67880523 C-77.43041145 196.20666266 -77.42887988 184.73459459 -77.41748047 173.26245117 C-77.40600193 161.4500604 -77.42007434 149.63789674 -77.44687694 137.82553589 C-77.46906968 127.6621215 -77.47566322 117.49877822 -77.46980053 107.33534133 C-77.4664382 101.27473565 -77.46879792 95.21427551 -77.48605156 89.15369034 C-77.50157545 83.45227909 -77.49750469 77.75120296 -77.47874641 72.04980469 C-77.47507555 69.96538225 -77.47812481 67.88093468 -77.4886322 65.79653549 C-77.57798866 46.59469573 -74.51216676 31.31480073 -61.03393555 16.62231445 C-56.74980041 12.56118909 -52.40180494 9.57282089 -47.15893555 6.87231445 C-46.55637939 6.55810547 -45.95382324 6.24389648 -45.33300781 5.92016602 C-31.01599417 -0.86578256 -15.43188108 -0.052443 0 0 Z M-26.97143555 51.37231445 C-30.07385346 56.00398958 -30.40036144 60.22216361 -30.35238647 65.64624023 C-30.35706645 66.46384386 -30.36174642 67.28144749 -30.36656821 68.12382698 C-30.37850554 70.85526011 -30.36906596 73.58619036 -30.35961914 76.31762695 C-30.3636854 78.27919812 -30.36902759 80.240767 -30.37554932 82.20233154 C-30.38922219 87.52458058 -30.38392433 92.84665509 -30.37441206 98.16890717 C-30.36681536 103.7394813 -30.37386111 109.31004051 -30.37857056 114.88061523 C-30.38402807 124.23529747 -30.37683658 133.58990864 -30.36254883 142.94458008 C-30.34622236 153.75893664 -30.35151086 164.57312352 -30.36802804 175.38747597 C-30.381643 184.67340357 -30.38356251 193.9592801 -30.37571204 203.24521446 C-30.37103559 208.79088497 -30.37040994 214.33647573 -30.3803215 219.88214111 C-30.38898898 225.09588817 -30.38297311 230.30941651 -30.36563873 235.52313995 C-30.36167275 237.43633918 -30.36280985 239.34955682 -30.36942673 241.26274872 C-30.37762783 243.87487701 -30.36733807 246.48630497 -30.35238647 249.09838867 C-30.35907864 249.85500856 -30.3657708 250.61162846 -30.37266576 251.39117622 C-30.32015951 256.12233256 -29.61537225 259.42511707 -26.97143555 263.37231445 C-22.54694758 267.36758045 -17.4096524 266.7921871 -11.77253723 266.75326538 C-10.73557589 266.75794535 -9.69861454 266.76262532 -8.63023013 266.76744711 C-5.14984164 266.77942804 -1.66984466 266.76992714 1.81054688 266.76049805 C4.30421682 266.76456268 6.79788496 266.76990395 9.29154968 266.77642822 C15.36830457 266.78870528 21.44490553 266.78688217 27.52165445 266.7781903 C32.4679959 266.77140951 37.41430625 266.77049877 42.36065102 266.77376175 C43.06526903 266.77422145 43.76988705 266.77468115 44.49585712 266.77515478 C45.9275383 266.77611401 47.35921947 266.77708665 48.79090063 266.77807255 C62.2236603 266.78663111 75.6563586 266.77678925 89.08910821 266.76067145 C100.58287389 266.74730572 112.07654852 266.74956442 123.5703125 266.76342773 C136.93551913 266.77954092 150.3006717 266.78576727 163.6658867 266.77659094 C165.09621544 266.77563539 166.52654419 266.77469228 167.95687294 266.77376175 C168.66047741 266.77329892 169.36408188 266.7728361 170.0890077 266.77235924 C175.01538295 266.76978366 179.9417236 266.77411003 184.86809349 266.78120041 C191.52723803 266.79057411 198.18618653 266.78374489 204.84532356 266.76651764 C207.27756342 266.76258094 209.7098178 266.76363794 212.1420517 266.77030563 C247.58002041 266.85842398 277.4898125 258.89427753 303.34106445 233.43481445 C308.57764117 228.13831461 313.1291729 222.74300871 317.02856445 216.37231445 C317.59704102 215.50993164 318.16551758 214.64754883 318.7512207 213.7590332 C333.56121633 190.2257874 338.16535033 160.37196136 332.1262207 133.29418945 C324.38134931 104.44509832 307.02807294 78.85302092 281.03051758 63.50561523 C270.2368735 57.39535965 259.25115371 52.74568272 247.02856445 50.37231445 C245.86307194 50.12238849 245.86307194 50.12238849 244.67403412 49.86741352 C232.91759185 47.68213054 221.04439143 48.08402117 209.13208008 48.09765625 C206.6161382 48.09330394 204.10019764 48.08811907 201.58425903 48.08216858 C195.487599 48.07021195 189.39099975 48.06761913 183.2943303 48.06996884 C178.33996828 48.07175787 173.38561959 48.06998991 168.43125916 48.0657444 C167.72397166 48.06514921 167.01668417 48.06455402 166.28796372 48.0639408 C164.85086032 48.06272898 163.41375691 48.06151484 161.97665352 48.06029842 C148.53568423 48.04945073 135.09474011 48.05157354 121.65376943 48.05768327 C109.35860888 48.06286285 97.0635273 48.05156468 84.76838237 48.03258505 C72.12649045 48.0132202 59.48463594 48.00494744 46.84272909 48.0087083 C39.75180042 48.01062075 32.66093914 48.00812748 25.57002258 47.99399376 C18.91165986 47.98085531 12.25342991 47.98332108 5.59505844 47.99640465 C3.1492851 47.99877793 0.70350068 47.99600901 -1.74225998 47.98778152 C-5.07465726 47.97737727 -8.40651419 47.98536381 -11.7388916 47.99809265 C-12.7115426 47.99071837 -13.6841936 47.98334408 -14.68631887 47.97574633 C-21.36755843 47.99555908 -21.36755843 47.99555908 -26.97143555 51.37231445 Z " fill="#0066CC" transform="translate(1606.971435546875,1066.627685546875)"/>
<path d="M0 0 C1.1865325 -0.00297112 2.37306501 -0.00594224 3.59555304 -0.0090034 C6.8719952 -0.016152 10.14840529 -0.01886025 13.42485404 -0.01960087 C16.96565566 -0.02146002 20.50644611 -0.02901177 24.04724121 -0.03573608 C31.78326498 -0.0492867 39.51928355 -0.0553394 47.25531721 -0.05974674 C52.0931824 -0.06251547 56.93104561 -0.06675403 61.76890945 -0.07125092 C75.18403434 -0.08344075 88.59915765 -0.09373969 102.01428795 -0.09712601 C103.30088805 -0.09745536 103.30088805 -0.09745536 104.61348007 -0.09779136 C105.90303269 -0.09811878 105.90303269 -0.09811878 107.21863687 -0.09845281 C108.96050604 -0.09889626 110.70237521 -0.09934282 112.44424438 -0.09979248 C113.3082583 -0.10001391 114.17227221 -0.10023534 115.06246836 -0.10046348 C129.04338699 -0.10440633 143.02425334 -0.12184595 157.00515179 -0.145152 C171.38603186 -0.16892966 185.76688576 -0.18133082 200.14778578 -0.18249393 C208.21115635 -0.18340724 216.27445883 -0.18907225 224.33781052 -0.20731354 C231.20799824 -0.22280157 238.07809685 -0.22778426 244.94829874 -0.21957543 C248.44626173 -0.21569906 251.94404574 -0.21644854 255.44198608 -0.23063278 C284.82332698 -0.32951295 311.16934714 2.66087156 334.07363892 23.14044189 C334.90637329 23.87907471 335.73910767 24.61770752 336.59707642 25.37872314 C353.19036829 40.97641751 363.19188944 63.62168318 364.16761255 86.3272562 C364.20675737 88.58424373 364.21658567 90.83929533 364.21408081 93.09661865 C364.21853749 94.37882191 364.21853749 94.37882191 364.22308421 95.68692827 C364.23169545 98.52626071 364.23327295 101.36555061 364.23477173 104.20489502 C364.23940506 106.25070789 364.24443041 108.29651991 364.24981689 110.34233093 C364.2628882 115.8814815 364.26937484 121.42061998 364.27382755 126.95978355 C364.27676517 130.42316728 364.28087113 133.88654774 364.28533173 137.34992981 C364.29898914 148.19469102 364.30866591 159.03944472 364.31253362 169.88421392 C364.31701836 182.38841333 364.33459298 194.89250363 364.36353421 207.39666986 C364.38515569 217.07504579 364.39523805 226.75339101 364.39657474 236.43179083 C364.39762188 242.20724027 364.40351132 247.98258691 364.42139435 253.75801086 C364.43788431 259.18846571 364.44002597 264.61874053 364.43125534 270.0492115 C364.43048563 272.03856451 364.43481901 274.02792724 364.44471359 276.01725578 C364.45745816 278.73980529 364.45154285 281.46171941 364.44113159 284.18426514 C364.449188 284.96511868 364.4572444 285.74597222 364.46554494 286.550488 C364.38792044 295.27195192 361.89785699 302.13487518 355.90567017 308.48028564 C351.11937471 312.81754699 346.06445896 313.91037881 339.82363892 314.39044189 C333.4331225 313.96440747 327.16371962 312.27424138 322.4101162 307.72526741 C314.43079045 298.2631993 315.37758579 287.60478067 315.46182251 275.91827393 C315.45827774 273.867325 315.45249603 271.8163789 315.44465637 269.76544189 C315.43251072 265.36308825 315.43590576 260.96112269 315.45148849 256.55878067 C315.47587658 249.58994956 315.46428055 242.62145577 315.44781494 235.65261841 C315.42335135 223.37010984 315.42910887 211.08775564 315.44161987 198.80523682 C315.46021457 180.3233811 315.45528073 161.84155524 315.42158568 143.35972106 C315.41010738 136.44016518 315.41446236 129.52085671 315.43160605 122.60131478 C315.4395343 118.28722006 315.43523323 113.9731965 315.4278965 109.65910339 C315.42709004 107.66778458 315.43138842 105.6764557 315.44133949 103.68516159 C315.51832673 87.48786226 314.64616637 73.64639007 303.19082642 61.07403564 C292.48058745 51.03589669 280.32207911 48.8303948 266.13850403 48.87974548 C264.96321791 48.87591994 263.7879318 48.87209439 262.57703096 48.86815292 C259.33683181 48.85965695 256.09677868 48.86004231 252.85657585 48.86433351 C249.35339232 48.86680958 245.85023497 48.85777563 242.34706116 48.85029602 C235.49218564 48.83757106 228.63734933 48.8357526 221.78246399 48.83809628 C216.20783424 48.8398822 210.63321636 48.83812394 205.05858803 48.83387184 C204.26396807 48.83327665 203.46934812 48.83268146 202.65064878 48.83206824 C201.03615536 48.83085643 199.42166194 48.8296423 197.80716852 48.82842586 C182.67875825 48.81755864 167.5503703 48.81970884 152.42195878 48.82581071 C138.5987095 48.83097818 124.77553072 48.81972744 110.95229539 48.80071249 C96.7409099 48.78131428 82.52955773 48.77308163 68.31815892 48.77683574 C60.34666168 48.7787449 52.37522443 48.77628817 44.40373802 48.7621212 C37.61683911 48.75018106 30.83003711 48.74883187 24.0431368 48.76091137 C20.58439452 48.76678187 17.12582927 48.76795061 13.667099 48.75590897 C9.90781158 48.74542276 6.14899552 48.75355798 2.38972473 48.76622009 C1.3102248 48.75884581 0.23072486 48.75147152 -0.88148719 48.74387378 C-14.04555343 48.83673899 -25.14249216 52.04814544 -34.99276733 61.02325439 C-44.05093347 70.68790681 -47.25959429 82.16032387 -47.17118835 95.12785339 C-47.17458521 96.41512364 -47.17458521 96.41512364 -47.1780507 97.72839934 C-47.18331129 100.57928451 -47.17454435 103.42994866 -47.16586304 106.28082275 C-47.16697689 108.334865 -47.16903622 110.38890693 -47.17196655 112.44294739 C-47.17667727 116.8544842 -47.17558068 121.26596773 -47.17019081 125.67750359 C-47.16256422 132.6582356 -47.17325521 139.63886558 -47.18739319 146.61958313 C-47.22508592 166.46597707 -47.24331948 186.31232428 -47.23178101 206.15875244 C-47.22556042 217.12879339 -47.23716439 228.09866907 -47.26822633 239.06866938 C-47.28685545 246.00306961 -47.28358628 252.93700077 -47.26405871 259.87139308 C-47.25716375 264.19092976 -47.27115992 268.51021356 -47.291008 272.82970238 C-47.29604324 274.82669032 -47.29260161 276.82372116 -47.2798748 278.8206749 C-47.16093717 298.91751414 -47.16093717 298.91751414 -52.92636108 306.14044189 C-58.37816446 311.41089461 -63.69363859 313.74852315 -71.30136108 314.45294189 C-79.967276 313.70588026 -86.06578005 310.60776544 -91.92636108 304.14044189 C-95.82042658 297.85969109 -96.07427858 291.93698836 -96.06007385 284.69892883 C-96.06233941 283.85107219 -96.06460497 283.00321554 -96.06693918 282.12966627 C-96.07326737 279.28957566 -96.07245055 276.44953291 -96.07162476 273.60943604 C-96.07461713 271.57232603 -96.07801984 269.5352166 -96.08180237 267.49810791 C-96.09064219 261.96251352 -96.09298058 256.42693459 -96.09361815 250.89133382 C-96.09432908 247.42927277 -96.09646429 243.96721564 -96.09911537 240.50515556 C-96.10837125 228.41605251 -96.11245027 216.32696048 -96.11166382 204.237854 C-96.11106411 192.98916685 -96.12159432 181.74052781 -96.13740748 170.49185282 C-96.15051413 160.82197186 -96.15584635 151.15210655 -96.15520841 141.48221678 C-96.15495419 135.71272207 -96.15776303 129.94327007 -96.16838646 124.17378426 C-96.17811916 118.73929092 -96.17811136 113.30488061 -96.17086983 107.87038422 C-96.16983014 105.88475103 -96.17214993 103.89911254 -96.17823029 101.91348839 C-96.2548911 75.12529487 -91.43500414 50.56849979 -72.92636108 30.14044189 C-72.18901733 29.31028564 -71.45167358 28.48012939 -70.69198608 27.62481689 C-52.17810661 7.90087994 -26.47894987 -0.02084685 0 0 Z " fill="#0066CC" transform="translate(1080.9263610839844,1066.8595581054688)"/>
<path d="M0 0 C5.01903394 3.94429434 8.45338914 8.89437 9.38382816 15.3131485 C9.52594226 18.30998191 9.54489118 21.2840355 9.51965332 24.28417969 C9.52589328 25.42876522 9.53213325 26.57335075 9.5385623 27.7526207 C9.55448655 31.57878107 9.54188947 35.40430391 9.52929688 39.23046875 C9.53251826 41.97726756 9.54169654 44.7240395 9.55053711 47.4708252 C9.56829896 54.1514201 9.56449283 60.83183498 9.55288655 67.51243687 C9.54384327 72.94316138 9.54263208 78.37383554 9.54698181 83.80456543 C9.54759474 84.57827287 9.54820768 85.35198032 9.54883918 86.14913344 C9.55011812 87.72103534 9.55141497 89.29293721 9.55272955 90.86483908 C9.5641285 105.59542661 9.55103241 120.32591447 9.52952808 135.05648565 C9.5116577 147.68874867 9.514762 160.32086464 9.53320312 172.953125 C9.55462196 187.63194829 9.56302993 202.31068429 9.55075407 216.98952103 C9.54947991 218.55555469 9.54822243 220.12158838 9.54698181 221.68762207 C9.54636471 222.45808735 9.54574761 223.22855262 9.54511181 224.02236533 C9.54166194 229.44490391 9.5474794 234.867387 9.55690002 240.28991699 C9.56813266 246.90059181 9.56505352 253.51107671 9.54377705 260.12172985 C9.53328324 263.49300001 9.53127808 266.8636925 9.54237366 270.23500061 C9.55330283 273.89298529 9.53959533 277.55007986 9.51965332 281.20800781 C9.52857621 282.26871365 9.53749909 283.32941948 9.54669237 284.42226791 C9.46891762 291.7765828 8.12869834 296.88589275 3.40625 302.734375 C-2.0359738 307.28971788 -7.4420671 309.36614223 -14.48828125 310.12109375 C-22.16314609 309.2987868 -29.0129617 306.90774254 -33.98828125 300.74609375 C-38.0393777 294.08145849 -38.56109282 288.92024393 -38.49621582 281.20800781 C-38.50245578 280.06342228 -38.50869575 278.91883675 -38.5151248 277.7395668 C-38.53104905 273.91340643 -38.51845197 270.08788359 -38.50585938 266.26171875 C-38.50908076 263.51491994 -38.51825904 260.768148 -38.52709961 258.0213623 C-38.54486146 251.3407674 -38.54105533 244.66035252 -38.52944905 237.97975063 C-38.52040577 232.54902612 -38.51919458 227.11835196 -38.52354431 221.68762207 C-38.52415724 220.91391463 -38.52477018 220.14020718 -38.52540168 219.34305406 C-38.52668062 217.77115216 -38.52797747 216.19925029 -38.52929205 214.62734842 C-38.540691 199.89676089 -38.52759491 185.16627303 -38.50609058 170.43570185 C-38.4882202 157.80343883 -38.4913245 145.17132286 -38.50976562 132.5390625 C-38.53118446 117.86023921 -38.53959243 103.18150321 -38.52731657 88.50266647 C-38.52604241 86.93663281 -38.52478493 85.37059912 -38.52354431 83.80456543 C-38.52292721 83.03410015 -38.52231011 82.26363488 -38.52167431 81.46982217 C-38.51822444 76.04728359 -38.5240419 70.6248005 -38.53346252 65.20227051 C-38.54469516 58.59159569 -38.54161602 51.98111079 -38.52033955 45.37045765 C-38.50984574 41.99918749 -38.50784058 38.628495 -38.51893616 35.25718689 C-38.52986533 31.59920221 -38.51615783 27.94210764 -38.49621582 24.28417969 C-38.50513871 23.22347385 -38.51406159 22.16276802 -38.52325487 21.06991959 C-38.44548012 13.7156047 -37.10526084 8.60629475 -32.3828125 2.7578125 C-22.82261652 -5.24442562 -10.78557904 -6.80190741 0 0 Z " fill="#0066CC" transform="translate(890.98828125,1071.25390625)"/>
</svg>
