<svg version="1.0" xmlns="http://www.w3.org/2000/svg" width="428.8" height="112.7" xml:space="preserve">
  <path fill="#FFC700" d="m19.7 43.1 7.3-6.7v40.9L19.7 71V43.1zm74.1-7.4L89.2 30 71 44.5H55.9V14.8h-7.3v37h25l20.2-16.1zm-9.3-10-6.1-4.5-8.2 6.7V17.6l-7.3-1.9v22.7h6l15.6-12.7zM34 92.4l7.3-6.4V27L34 20.6v71.8zm65.6-43-4.7-5.7-15 12.4 15 12.4 4.7-5.7-8.1-6.7 8.1-6.7zM48.5 60.5v37h7.3V67.8H71l18.2 14.5 4.6-5.7-20.3-16.1h-25zm14.4 14.4v22.7l7.3-1.9V85.4l8.2 6.7 6.1-4.5-15.7-12.8-5.9.1z"/>
  <path fill-rule="evenodd" clip-rule="evenodd" d="M187.8 59v10.9h29.6v6.9h-37.6V35.6h36.8l-4.1 6.9h-24.6v9.6h24.7l-4.1 6.9h-20.7m46.9 0h20.6l4.1-6.9h-24.7v-9.6h24.6l4.1-6.9h-36.8v41.2h37.6v-6.9h-29.6V59m97 0h20.6l4.1-6.9h-24.7v-9.6h24.6l4.1-6.9h-36.8v41.2h37.6v-6.9h-29.6V59M170.8 35.6h-10.6l-20.6 20.6 20.6 20.6h10.6l-20.6-20.6c3.5-3.6 15.6-15.7 20.6-20.6m-42.3 41.2h8V35.6h-8v41.2zM400.6 60c6.1-.3 11.5-4.5 11.5-12.1 0-10.1-7-12.3-16.8-12.3h-24.8v41.2h8V42.3H394c6.6 0 9.9 1 9.9 5.8 0 4.9-3.3 5.8-9.9 5.8h-8.4l-4 6.7h9.5l12 16.2h9.9L400.6 60M296.5 35.6h-23v41.2h8V42.5h16.7c4.6 0 8.6.4 8.6 5.7s-4 5.7-8.6 5.7h-9.5l-4.1 6.9h11.9c7 0 18.4 0 18.4-12.6s-11.4-12.6-18.4-12.6M104.9 56.2c0 26.2-21.3 47.5-47.5 47.5C31.2 103.6 10 82.4 10 56.2S31.2 8.7 57.5 8.7c26.2 0 47.4 21.3 47.4 47.5zm-42-17.7h6l15.6-12.8-6.1-4.5-8.2 6.7V17.6l-7.3-1.9v22.8zM48.5 51.8h25l20.2-16.1-4.6-5.7L71 44.5H55.9V14.8h-7.3v37zM27 36.4l-7.3 6.7V71l7.3 6.2V36.4zM41.4 27 34 20.6v71.8l7.3-6.4V27zm43.1 60.7L68.8 74.8h-6v22.7l7.3-1.9V85.4l8.2 6.7 6.2-4.4zm9.3-11.1L73.5 60.5h-25v37h7.3V67.8H71l18.2 14.5 4.6-5.7zm5.8-13.7-8.1-6.7 8.1-6.7-4.7-5.7-15 12.4 15 12.4 4.7-5.7zm318.8-34.6c.4 0 .7-.2 1-.3.3-.2.4-.5.4-.9s-.2-.8-.4-1c-.3-.2-.8-.3-1.4-.3h-2v4.7h.8v-2h.9l1.4 2h.9l-1.6-2.2zm-.3-.5h-1.4v-1.5h1.5c.1 0 .3.1.4.1.1.1.2.1.3.2.1.1.1.2.1.4s0 .3-.1.4c-.1.1-.2.2-.3.2-.2.1-.4.2-.5.2zm3.3.2c0-.6-.1-1.1-.3-1.6-.2-.5-.5-.9-.9-1.3s-.8-.6-1.3-.8c-.5-.2-1-.3-1.5-.3s-1.1.1-1.5.3c-.5.2-.9.5-1.3.8-.4.4-.7.8-.9 1.3-.2.5-.3 1-.3 1.6 0 .6.1 1.1.3 1.6.2.5.5.9.9 1.3s.8.6 1.3.8c.5.2 1 .3 1.5.3s1.1-.1 1.5-.3c.5-.2.9-.5 1.3-.8.4-.4.7-.8.9-1.3.2-.5.3-1 .3-1.6zm-.7 0c0 .5-.1.9-.3 1.4-.2.4-.4.8-.7 1.1-.3.3-.6.5-1 .7-.4.2-.8.3-1.3.3s-.9-.1-1.3-.3c-.4-.2-.7-.4-1-.7-.3-.3-.5-.7-.7-1.1-.2-.4-.3-.9-.3-1.4 0-.5.1-.9.3-1.3.2-.4.4-.8.7-1.1.3-.3.6-.5 1-.7.4-.2.8-.3 1.3-.3s.9.1 1.3.3c.4.2.7.4 1 .7.3.3.5.7.7 1.1.2.4.3.9.3 1.3z"/>
</svg>
