<svg version="1.1" id="Layer_1" xmlns:x="ns_extend;" xmlns:i="ns_ai;" xmlns:graph="ns_graphs;" xmlns="http://www.w3.org/2000/svg" xmlns:xlink="http://www.w3.org/1999/xlink" x="0px" y="0px" viewBox="0 0 127 95.4" style="enable-background:new 0 0 127 95.4;" xml:space="preserve">
 <style type="text/css">
  .st0{fill:#FFFFFF;}
	.st1{fill:#D7282F;}
	.st2{fill:#0E2538;}
 </style>
 <metadata>
  <sfw xmlns="ns_sfw;">
   <slices>
   </slices>
   <sliceSourceBounds bottomLeftOrigin="true" height="95.4" width="127" x="-194.3" y="-252.7">
   </sliceSourceBounds>
  </sfw>
 </metadata>
 <g>
  <path class="st0" d="M48.9,47.7c0,13.5-11,24.5-24.5,24.5S0,61.2,0,47.7s11-24.5,24.5-24.5S48.9,34.2,48.9,47.7">
  </path>
  <path class="st0" d="M127,47.7c0,26.3-21.4,47.7-47.7,47.7S31.6,74,31.6,47.7S53,0,79.3,0S127,21.4,127,47.7">
  </path>
  <path class="st1" d="M125.5,47.7c0,25.5-20.7,46.2-46.2,46.2S33.1,73.2,33.1,47.7S53.8,1.5,79.3,1.5S125.5,22.2,125.5,47.7">
  </path>
  <path class="st2" d="M47.4,47.7c0,12.7-10.3,23-23,23S1.5,60.4,1.5,47.7s10.3-23,23-23S47.4,35,47.4,47.7">
  </path>
  <path class="st0" d="M19.8,42.6c-0.9,0-1.7,0.2-2.5,0.7c-0.7,0.5-1.3,1.1-1.7,1.8c-0.4,0.8-0.6,1.6-0.6,2.5s0.2,1.8,0.6,2.6
		c0.4,0.8,1,1.4,1.7,1.9s1.6,0.7,2.5,0.7s1.7-0.2,2.5-0.7c0.7-0.5,1.3-1.2,1.8-2.2h4.8c-0.4,1.4-1,2.5-1.9,3.6
		c-0.9,1-1.9,1.8-3.2,2.4c-1.2,0.6-2.6,0.8-4,0.8c-1.3,0-2.5-0.2-3.6-0.7c-1.1-0.4-2.2-1.1-3.1-1.9c-0.9-0.9-1.6-1.9-2.1-3
		c-0.4-1.1-0.7-2.3-0.7-3.6c0-1.5,0.4-2.9,1.2-4.2s1.9-2.4,3.4-3.2c1.4-0.8,3-1.2,4.6-1.2c1.2,0,2.4,0.2,3.4,0.5s2,0.9,2.8,1.6
		c1.7,1.4,2.7,3,3,4.7h-4.8c-0.4-0.9-1-1.7-1.7-2.2S20.7,42.6,19.8,42.6 M60.8,39.1V43h-6.5v2.9h6.3v3.8h-6.3v6.6h-5.2V39.1H60.8z
		 M74.6,39.1V43h-6.7v2.6h6.5v3.9h-6.5v2.9h6.7v3.9h-12V39.1H74.6z M122.6,39.1V43h-6.7v2.6h6.5v3.9h-6.5v2.9h6.7v3.9h-12V39.1
		H122.6z M81.1,56.3h-4.8V39.1h4.4L88.3,50l-0.2-10.9h4.8v17.2h-4.4L81,45.8L81.1,56.3z M101.8,42.5c-0.5,0-1,0.1-1.3,0.4
		c-0.4,0.3-0.6,0.6-0.6,1c0,0.5,0.3,0.9,0.8,1.2s1.4,0.7,2.8,1.1c1.6,0.5,2.8,1.1,3.6,1.6c0.9,0.5,1.4,1.1,1.8,1.6
		c0.3,0.6,0.5,1.3,0.5,2c0,1.7-0.7,2.9-2,3.9c-1.3,0.9-3.2,1.4-5.5,1.4c-2.4,0-4.3-0.5-5.7-1.5c-1.4-1-2.1-2.4-2.1-4.2v-0.4h5.5
		c0,0.7,0.2,1.3,0.6,1.7s1,0.6,1.6,0.6s1-0.2,1.5-0.5c0.4-0.3,0.6-0.7,0.6-1.2s-0.3-1-1-1.3s-1.6-0.7-2.8-1.1
		c-0.1,0-0.2-0.1-0.3-0.1c-0.1,0-0.2-0.1-0.3-0.1c-1.8-0.6-3.1-1.2-3.9-2s-1.2-1.7-1.2-2.8c0-0.9,0.3-1.8,1-2.6s1.6-1.4,2.8-1.8
		c1.2-0.4,2.4-0.7,3.7-0.7c1.4,0,2.6,0.2,3.8,0.7c1.2,0.5,2,1.1,2.6,1.8s0.8,1.7,0.9,2.8h-5.4c-0.1-0.6-0.3-1-0.6-1.3
		C102.8,42.6,102.4,42.5,101.8,42.5">
  </path>
  <path class="st0" d="M42.8,47.7c0-0.9-0.2-1.7-0.6-2.5c-0.4-0.8-1-1.4-1.7-1.9s-1.6-0.7-2.5-0.7s-1.8,0.2-2.5,0.7s-1.3,1.1-1.7,1.8
		c-0.4,0.8-0.6,1.6-0.6,2.5s0.2,1.8,0.6,2.6c0.4,0.8,1,1.4,1.7,1.8c0.7,0.5,1.6,0.7,2.5,0.7s1.7-0.2,2.5-0.7
		c0.7-0.5,1.3-1.1,1.7-1.8S42.8,48.6,42.8,47.7 M42.8,47.7c0-0.9-0.2-1.7-0.6-2.5c-0.4-0.8-1-1.4-1.7-1.9s-1.6-0.7-2.5-0.7
		s-1.8,0.2-2.5,0.7s-1.3,1.1-1.7,1.8c-0.4,0.8-0.6,1.6-0.6,2.5s0.2,1.8,0.6,2.6c0.4,0.8,1,1.4,1.7,1.8c0.7,0.5,1.6,0.7,2.5,0.7
		s1.7-0.2,2.5-0.7c0.7-0.5,1.3-1.1,1.7-1.8S42.8,48.6,42.8,47.7 M28.6,48.1c0-1.7,0.4-3.3,1.2-4.7c0.8-1.4,1.9-2.5,3.4-3.3
		c1.4-0.8,3-1.2,4.8-1.2c1.7,0,3.3,0.4,4.7,1.2s2.6,1.8,3.4,3.2c0.8,1.3,1.3,2.8,1.3,4.4c0,1.7-0.4,3.2-1.2,4.6
		c-0.8,1.4-1.9,2.5-3.3,3.3c-1.4,0.8-3,1.2-4.6,1.2c-1.7,0-3.2-0.4-4.7-1.1c-1.5-0.7-2.7-1.7-3.6-3C29,51.2,28.6,49.7,28.6,48.1">
  </path>
  <path class="st1" d="M42.8,47.7c0-0.9-0.2-1.7-0.6-2.5c-0.4-0.8-1-1.4-1.7-1.9s-1.6-0.7-2.5-0.7s-1.8,0.2-2.5,0.7s-1.3,1.1-1.7,1.8
		c-0.4,0.8-0.6,1.6-0.6,2.5s0.2,1.8,0.6,2.6c0.4,0.8,1,1.4,1.8,1.8c0.7,0.5,1.6,0.7,2.5,0.7s1.7-0.2,2.5-0.7
		c0.7-0.5,1.3-1.1,1.7-1.8C42.6,49.5,42.8,48.6,42.8,47.7">
  </path>
 </g>
</svg>