<svg width="492" height="48" viewBox="0 0 492 48" fill="none" xmlns="http://www.w3.org/2000/svg">
  <path d="M72.3497 35.9205C74.0053 36.5925 75.7568 36.9285 77.6043 36.9285C79.4518 36.9285 81.1553 36.6405 82.7149 36.0645C84.2745 35.4885 85.6181 34.6605 86.7458 33.5805C87.8975 32.4765 88.7852 31.1565 89.4091 29.6205C90.0569 28.0845 90.3808 26.3685 90.3808 24.4725C90.3808 24.1605 90.3568 23.7645 90.3088 23.2845C90.2608 22.8045 90.2008 22.4445 90.1289 22.2045H77.4963V26.3445H85.5941C85.4741 27.0885 85.2102 27.8205 84.8023 28.5405C84.4184 29.2365 83.8906 29.8725 83.2188 30.4485C82.5709 31.0245 81.7792 31.4805 80.8434 31.8165C79.9077 32.1525 78.8399 32.3205 77.6403 32.3205C76.4406 32.3205 75.3129 32.1165 74.2572 31.7085C73.2015 31.2765 72.2657 30.6765 71.45 29.9085C70.6582 29.1165 70.0344 28.1805 69.5785 27.1005C69.1226 26.0205 68.8947 24.8085 68.8947 23.4645C68.8947 22.1205 69.1226 20.9085 69.5785 19.8285C70.0344 18.7485 70.6582 17.8245 71.45 17.0565C72.2657 16.2645 73.1895 15.6645 74.2212 15.2565C75.2769 14.8245 76.3926 14.6085 77.5683 14.6085C78.528 14.6085 79.3918 14.7165 80.1596 14.9325C80.9274 15.1485 81.6352 15.4605 82.283 15.8685C82.9308 16.2525 83.5307 16.7445 84.0825 17.3445L87.4296 14.0685C86.2539 12.7965 84.8383 11.8005 83.1828 11.0805C81.5272 10.3605 79.6677 10.0005 77.6043 10.0005C75.7328 10.0005 73.9693 10.3365 72.3137 11.0085C70.6822 11.6805 69.2426 12.6165 67.9949 13.8165C66.7473 15.0165 65.7635 16.4445 65.0437 18.1005C64.3479 19.7325 64 21.5205 64 23.4645C64 25.4085 64.3479 27.2085 65.0437 28.8645C65.7635 30.4965 66.7473 31.9125 67.9949 33.1125C69.2666 34.3125 70.7182 35.2485 72.3497 35.9205Z" fill="white"></path>
  <path d="M386.421 17.9925V36.3525H389.481V17.9925H386.421Z" fill="white"></path>
  <path d="M386.385 13.9605C386.817 14.3925 387.333 14.6085 387.933 14.6085C388.557 14.6085 389.073 14.3925 389.481 13.9605C389.912 13.5285 390.128 13.0125 390.128 12.4125C390.128 11.7885 389.912 11.2725 389.481 10.8645C389.073 10.4325 388.557 10.2165 387.933 10.2165C387.333 10.2165 386.817 10.4325 386.385 10.8645C385.953 11.2725 385.738 11.7885 385.738 12.4125C385.738 13.0125 385.953 13.5285 386.385 13.9605Z" fill="white"></path>
  <path fill-rule="evenodd" clip-rule="evenodd" d="M402.138 44.7045C400.579 44.7045 399.235 44.4405 398.107 43.9125C397.004 43.4085 396.104 42.7605 395.408 41.9685C394.736 41.1765 394.257 40.3725 393.969 39.5565L396.776 38.3685C397.16 39.3765 397.808 40.2165 398.719 40.8885C399.655 41.5845 400.795 41.9325 402.138 41.9325C404.058 41.9325 405.533 41.3685 406.565 40.2405C407.597 39.1365 408.113 37.5885 408.113 35.5965V33.5445H407.969C407.393 34.4325 406.565 35.1885 405.485 35.8125C404.406 36.4125 403.146 36.7125 401.707 36.7125C400.123 36.7125 398.671 36.3045 397.352 35.4885C396.056 34.6725 395.024 33.5445 394.257 32.1045C393.489 30.6405 393.105 28.9605 393.105 27.0645C393.105 25.1685 393.489 23.5005 394.257 22.0605C395.024 20.5965 396.056 19.4565 397.352 18.6405C398.671 17.8245 400.123 17.4165 401.707 17.4165C403.146 17.4165 404.406 17.7285 405.485 18.3525C406.565 18.9525 407.393 19.7085 407.969 20.6205H408.113V17.9925H411.028V35.6325C411.028 37.6725 410.632 39.3645 409.84 40.7085C409.073 42.0525 408.017 43.0485 406.673 43.6965C405.354 44.3685 403.842 44.7045 402.138 44.7045ZM402.138 33.9405C403.218 33.9405 404.214 33.6765 405.126 33.1485C406.037 32.5965 406.757 31.8045 407.285 30.7725C407.837 29.7405 408.113 28.5045 408.113 27.0645C408.113 25.5765 407.837 24.3285 407.285 23.3205C406.757 22.2885 406.037 21.5085 405.126 20.9805C404.214 20.4525 403.218 20.1885 402.138 20.1885C401.059 20.1885 400.063 20.4645 399.151 21.0165C398.239 21.5445 397.508 22.3245 396.956 23.3565C396.404 24.3645 396.128 25.6005 396.128 27.0645C396.128 28.5285 396.404 29.7765 396.956 30.8085C397.508 31.8165 398.239 32.5965 399.151 33.1485C400.063 33.6765 401.059 33.9405 402.138 33.9405Z" fill="white"></path>
  <path fill-rule="evenodd" clip-rule="evenodd" d="M418.795 35.6685C420.186 36.5085 421.77 36.9285 423.545 36.9285C425.561 36.9285 427.24 36.4725 428.584 35.5605C429.928 34.6485 430.959 33.4965 431.679 32.1045L429.088 30.8445C428.56 31.7805 427.852 32.5725 426.964 33.2205C426.101 33.8445 424.997 34.1565 423.653 34.1565C422.621 34.1565 421.626 33.9045 420.666 33.4005C419.73 32.8965 418.963 32.1285 418.363 31.0965C417.835 30.1845 417.535 29.0685 417.463 27.7485H432.003C432.027 27.6285 432.039 27.4845 432.039 27.3165C432.063 27.1485 432.075 26.9805 432.075 26.8125C432.075 24.9885 431.715 23.3685 430.995 21.9525C430.299 20.5365 429.292 19.4325 427.972 18.6405C426.676 17.8245 425.117 17.4165 423.293 17.4165C421.494 17.4165 419.922 17.8725 418.579 18.7845C417.259 19.6725 416.227 20.8605 415.483 22.3485C414.764 23.8365 414.404 25.4565 414.404 27.2085C414.404 29.0805 414.788 30.7485 415.555 32.2125C416.347 33.6765 417.427 34.8285 418.795 35.6685ZM428.836 25.2285H417.643C417.763 24.6525 417.943 24.1125 418.183 23.6085C418.639 22.5525 419.298 21.7245 420.162 21.1245C421.05 20.5005 422.094 20.1885 423.293 20.1885C424.301 20.1885 425.141 20.3565 425.813 20.6925C426.508 21.0045 427.072 21.4245 427.504 21.9525C427.96 22.4565 428.284 23.0085 428.476 23.6085C428.692 24.1845 428.812 24.7245 428.836 25.2285Z" fill="white"></path>
  <path d="M438.714 36.3525H435.655V17.9925H438.57V20.6925H438.714C439.194 19.8045 439.974 19.0365 441.054 18.3885C442.157 17.7405 443.357 17.4165 444.653 17.4165C446.908 17.4165 448.6 18.0765 449.727 19.3965C450.879 20.6925 451.455 22.4205 451.455 24.5805V36.3525H448.396V25.0485C448.396 23.2725 447.964 22.0245 447.1 21.3045C446.26 20.5605 445.169 20.1885 443.825 20.1885C442.817 20.1885 441.929 20.4765 441.162 21.0525C440.394 21.6045 439.794 22.3245 439.362 23.2125C438.93 24.1005 438.714 25.0365 438.714 26.0205V36.3525Z" fill="white"></path>
  <path d="M459.32 35.6685C460.736 36.5085 462.344 36.9285 464.143 36.9285C466.206 36.9285 467.91 36.4365 469.254 35.4525C470.597 34.4685 471.569 33.2685 472.169 31.8525L469.434 30.7005C468.978 31.8045 468.282 32.6565 467.346 33.2565C466.41 33.8565 465.295 34.1565 463.999 34.1565C462.919 34.1565 461.912 33.8685 460.976 33.2925C460.064 32.7165 459.32 31.9005 458.744 30.8445C458.169 29.7885 457.881 28.5645 457.881 27.1725C457.881 25.7565 458.169 24.5325 458.744 23.5005C459.32 22.4445 460.064 21.6285 460.976 21.0525C461.912 20.4765 462.919 20.1885 463.999 20.1885C465.271 20.1885 466.35 20.4885 467.238 21.0885C468.15 21.6645 468.834 22.5165 469.29 23.6445L472.061 22.4925C471.509 21.0045 470.561 19.7925 469.218 18.8565C467.898 17.8965 466.206 17.4165 464.143 17.4165C462.344 17.4165 460.736 17.8485 459.32 18.7125C457.929 19.5525 456.837 20.7045 456.045 22.1685C455.253 23.6325 454.858 25.3005 454.858 27.1725C454.858 29.0205 455.253 30.6885 456.045 32.1765C456.837 33.6405 457.929 34.8045 459.32 35.6685Z" fill="white"></path>
  <path fill-rule="evenodd" clip-rule="evenodd" d="M478.72 35.6685C480.111 36.5085 481.695 36.9285 483.47 36.9285C485.486 36.9285 487.165 36.4725 488.509 35.5605C489.853 34.6485 490.884 33.4965 491.604 32.1045L489.013 30.8445C488.485 31.7805 487.777 32.5725 486.889 33.2205C486.026 33.8445 484.922 34.1565 483.578 34.1565C482.547 34.1565 481.551 33.9045 480.591 33.4005C479.655 32.8965 478.888 32.1285 478.288 31.0965C477.76 30.1845 477.46 29.0685 477.388 27.7485H491.928C491.952 27.6285 491.964 27.4845 491.964 27.3165C491.988 27.1485 492 26.9805 492 26.8125C492 24.9885 491.64 23.3685 490.92 21.9525C490.224 20.5365 489.217 19.4325 487.897 18.6405C486.601 17.8245 485.042 17.4165 483.218 17.4165C481.419 17.4165 479.847 17.8725 478.504 18.7845C477.184 19.6725 476.152 20.8605 475.409 22.3485C474.689 23.8365 474.329 25.4565 474.329 27.2085C474.329 29.0805 474.713 30.7485 475.48 32.2125C476.272 33.6765 477.352 34.8285 478.72 35.6685ZM488.761 25.2285H477.568C477.688 24.6525 477.868 24.1125 478.108 23.6085C478.564 22.5525 479.223 21.7245 480.087 21.1245C480.975 20.5005 482.019 20.1885 483.218 20.1885C484.226 20.1885 485.066 20.3565 485.738 20.6925C486.434 21.0045 486.997 21.4245 487.429 21.9525C487.885 22.4565 488.209 23.0085 488.401 23.6085C488.617 24.1845 488.737 24.7245 488.761 25.2285Z" fill="white"></path>
  <path d="M378.542 36.3525V10.5765H381.601V36.3525H378.542Z" fill="white"></path>
  <path d="M370.95 10.5765V36.3525H374.009V10.5765H370.95Z" fill="white"></path>
  <path fill-rule="evenodd" clip-rule="evenodd" d="M358.84 36.9285C357.065 36.9285 355.481 36.5085 354.09 35.6685C352.722 34.8285 351.642 33.6765 350.85 32.2125C350.083 30.7485 349.699 29.0805 349.699 27.2085C349.699 25.4565 350.059 23.8365 350.778 22.3485C351.522 20.8605 352.554 19.6725 353.874 18.7845C355.217 17.8725 356.789 17.4165 358.588 17.4165C360.412 17.4165 361.971 17.8245 363.267 18.6405C364.587 19.4325 365.594 20.5365 366.29 21.9525C367.01 23.3685 367.37 24.9885 367.37 26.8125C367.37 26.9805 367.358 27.1485 367.334 27.3165C367.334 27.4845 367.322 27.6285 367.298 27.7485H352.758C352.83 29.0685 353.13 30.1845 353.658 31.0965C354.258 32.1285 355.025 32.8965 355.961 33.4005C356.921 33.9045 357.917 34.1565 358.948 34.1565C360.292 34.1565 361.396 33.8445 362.259 33.2205C363.147 32.5725 363.855 31.7805 364.383 30.8445L366.974 32.1045C366.254 33.4965 365.223 34.6485 363.879 35.5605C362.535 36.4725 360.856 36.9285 358.84 36.9285ZM352.938 25.2285H364.131C364.107 24.7245 363.987 24.1845 363.771 23.6085C363.579 23.0085 363.255 22.4565 362.799 21.9525C362.367 21.4245 361.803 21.0045 361.108 20.6925C360.436 20.3565 359.596 20.1885 358.588 20.1885C357.389 20.1885 356.345 20.5005 355.457 21.1245C354.593 21.7245 353.934 22.5525 353.478 23.6085C353.238 24.1125 353.058 24.6525 352.938 25.2285Z" fill="white"></path>
  <path d="M340.277 17.9925H337.074V20.7645H340.277V31.5285C340.277 33.1365 340.745 34.3965 341.681 35.3085C342.617 36.1965 343.853 36.6405 345.388 36.6405C346.012 36.6405 346.504 36.5925 346.864 36.4965C347.248 36.4245 347.595 36.3165 347.907 36.1725V33.1845C347.643 33.3525 347.344 33.4965 347.008 33.6165C346.672 33.7365 346.3 33.7965 345.892 33.7965C344.98 33.7965 344.32 33.5325 343.912 33.0045C343.529 32.4765 343.337 31.7325 343.337 30.7725V20.7645H347.835V17.9925H343.337V12.8085H340.277V17.9925Z" fill="white"></path>
  <path d="M319.074 36.3525V17.9925H321.989V20.6925H322.133C322.613 19.8045 323.392 19.0365 324.472 18.3885C325.576 17.7405 326.776 17.4165 328.071 17.4165C330.327 17.4165 332.018 18.0765 333.146 19.3965C334.297 20.6925 334.873 22.4205 334.873 24.5805V36.3525H331.814V25.0485C331.814 23.2725 331.382 22.0245 330.519 21.3045C329.679 20.5605 328.587 20.1885 327.243 20.1885C326.236 20.1885 325.348 20.4765 324.58 21.0525C323.812 21.6045 323.213 22.3245 322.781 23.2125C322.349 24.1005 322.133 25.0365 322.133 26.0205V36.3525H319.074Z" fill="white"></path>
  <path d="M310.864 10.5765V36.3525H313.923V10.5765H310.864Z" fill="white"></path>
  <path d="M287.482 17.9925H290.686V12.8085H293.745V17.9925H298.243V20.7645H293.745V30.7725C293.745 31.7325 293.937 32.4765 294.321 33.0045C294.728 33.5325 295.388 33.7965 296.3 33.7965C296.708 33.7965 297.08 33.7365 297.416 33.6165C297.752 33.4965 298.052 33.3525 298.315 33.1845V36.1725C298.004 36.3165 297.656 36.4245 297.272 36.4965C296.912 36.5925 296.42 36.6405 295.796 36.6405C294.261 36.6405 293.025 36.1965 292.089 35.3085C291.153 34.3965 290.686 33.1365 290.686 31.5285V20.7645H287.482V17.9925Z" fill="white"></path>
  <path fill-rule="evenodd" clip-rule="evenodd" d="M272.241 36.1365C273.273 36.6645 274.473 36.9285 275.84 36.9285C276.776 36.9285 277.628 36.7725 278.395 36.4605C279.187 36.1485 279.871 35.7525 280.447 35.2725C281.023 34.7685 281.467 34.2525 281.779 33.7245H281.922V36.3525H284.838V24.7245C284.838 22.4925 284.13 20.7165 282.714 19.3965C281.299 18.0765 279.343 17.4165 276.848 17.4165C275.816 17.4165 274.832 17.5605 273.897 17.8485C272.985 18.1365 272.169 18.5445 271.449 19.0725C270.73 19.6005 270.13 20.2245 269.65 20.9445L271.953 22.6725C272.457 21.8805 273.141 21.2685 274.005 20.8365C274.892 20.3805 275.84 20.1525 276.848 20.1525C278.263 20.1525 279.463 20.5605 280.447 21.3765C281.431 22.1925 281.922 23.2965 281.922 24.6885V25.8045C281.659 25.6365 281.263 25.4685 280.735 25.3005C280.231 25.1085 279.631 24.9525 278.935 24.8325C278.239 24.6885 277.484 24.6165 276.668 24.6165C275.252 24.6165 273.957 24.8565 272.781 25.3365C271.605 25.7925 270.67 26.4885 269.974 27.4245C269.278 28.3365 268.93 29.4645 268.93 30.8085C268.93 31.9845 269.218 33.0405 269.794 33.9765C270.394 34.8885 271.209 35.6085 272.241 36.1365ZM279.007 33.4365C278.144 33.9645 277.184 34.2285 276.128 34.2285C274.952 34.2285 273.981 33.9165 273.213 33.2925C272.445 32.6685 272.061 31.8525 272.061 30.8445C272.061 29.7885 272.469 28.9005 273.285 28.1805C274.101 27.4605 275.384 27.1005 277.136 27.1005C278.12 27.1005 279.019 27.2205 279.835 27.4605C280.675 27.7005 281.371 28.0125 281.922 28.3965C281.922 29.4525 281.659 30.4245 281.131 31.3125C280.603 32.2005 279.895 32.9085 279.007 33.4365Z" fill="white"></path>
  <path fill-rule="evenodd" clip-rule="evenodd" d="M257.688 36.9285C255.913 36.9285 254.329 36.5085 252.938 35.6685C251.57 34.8285 250.49 33.6765 249.698 32.2125C248.931 30.7485 248.547 29.0805 248.547 27.2085C248.547 25.4565 248.907 23.8365 249.626 22.3485C250.37 20.8605 251.402 19.6725 252.722 18.7845C254.065 17.8725 255.637 17.4165 257.436 17.4165C259.26 17.4165 260.819 17.8245 262.115 18.6405C263.435 19.4325 264.442 20.5365 265.138 21.9525C265.858 23.3685 266.218 24.9885 266.218 26.8125C266.218 26.9805 266.206 27.1485 266.182 27.3165C266.182 27.4845 266.17 27.6285 266.146 27.7485H251.606C251.678 29.0685 251.978 30.1845 252.506 31.0965C253.105 32.1285 253.873 32.8965 254.809 33.4005C255.769 33.9045 256.764 34.1565 257.796 34.1565C259.14 34.1565 260.243 33.8445 261.107 33.2205C261.995 32.5725 262.703 31.7805 263.231 30.8445L265.822 32.1045C265.102 33.4965 264.07 34.6485 262.727 35.5605C261.383 36.4725 259.704 36.9285 257.688 36.9285ZM251.786 25.2285H262.979C262.955 24.7245 262.835 24.1845 262.619 23.6085C262.427 23.0085 262.103 22.4565 261.647 21.9525C261.215 21.4245 260.651 21.0045 259.956 20.6925C259.284 20.3565 258.444 20.1885 257.436 20.1885C256.237 20.1885 255.193 20.5005 254.305 21.1245C253.441 21.7245 252.782 22.5525 252.326 23.6085C252.086 24.1125 251.906 24.6525 251.786 25.2285Z" fill="white"></path>
  <path d="M237.112 17.9925V36.3525H240.171V26.0925C240.171 25.0845 240.387 24.1605 240.819 23.3205C241.274 22.4805 241.874 21.8085 242.618 21.3045C243.362 20.8005 244.178 20.5485 245.065 20.5485C245.521 20.5485 245.965 20.5965 246.397 20.6925C246.853 20.7885 247.273 20.9325 247.657 21.1245V17.8125C247.393 17.6925 247.105 17.6085 246.793 17.5605C246.481 17.4885 246.049 17.4525 245.497 17.4525C244.778 17.4525 244.046 17.6085 243.302 17.9205C242.582 18.2085 241.934 18.6165 241.358 19.1445C240.807 19.6485 240.411 20.2485 240.171 20.9445H240.027V17.9925H237.112Z" fill="white"></path>
  <path d="M216.797 36.3525V10.5765H219.856V18.1725L219.712 20.6925H219.856C220.336 19.7805 221.116 19.0125 222.195 18.3885C223.299 17.7405 224.511 17.4165 225.83 17.4165C227.39 17.4165 228.674 17.7285 229.681 18.3525C230.689 18.9765 231.445 19.8285 231.949 20.9085C232.453 21.9645 232.705 23.1885 232.705 24.5805V36.3525H229.645V25.0485C229.645 23.8725 229.429 22.9365 228.998 22.2405C228.59 21.5205 228.038 21.0045 227.342 20.6925C226.67 20.3565 225.926 20.1885 225.111 20.1885C224.103 20.1885 223.203 20.4765 222.411 21.0525C221.62 21.6285 220.996 22.3725 220.54 23.2845C220.084 24.1965 219.856 25.1445 219.856 26.1285V36.3525H216.797Z" fill="white"></path>
  <path d="M203.333 13.4925V36.3525H206.393V13.4925H213.591V10.5765H196.099V13.4925H203.333Z" fill="white"></path>
  <path fill-rule="evenodd" clip-rule="evenodd" d="M178.022 36.9285C176.174 36.9285 174.519 36.5085 173.055 35.6685C171.615 34.8285 170.476 33.6765 169.636 32.2125C168.82 30.7485 168.412 29.0805 168.412 27.2085C168.412 25.4565 168.82 23.8365 169.636 22.3485C170.452 20.8605 171.567 19.6725 172.983 18.7845C174.399 17.8725 176.018 17.4165 177.842 17.4165C179.809 17.4165 181.465 17.8365 182.808 18.6765C184.152 19.5165 185.172 20.6445 185.868 22.0605C186.563 23.4525 186.911 25.0005 186.911 26.7045C186.911 27.0885 186.899 27.4245 186.875 27.7125C186.851 27.9765 186.827 28.1685 186.803 28.2885H173.055C173.151 28.9845 173.343 29.5965 173.631 30.1245C174.087 30.9885 174.699 31.6485 175.466 32.1045C176.258 32.5365 177.134 32.7525 178.094 32.7525C179.221 32.7525 180.169 32.5125 180.937 32.0325C181.705 31.5285 182.305 30.9045 182.736 30.1605L186.551 32.0325C185.688 33.5445 184.56 34.7445 183.168 35.6325C181.777 36.4965 180.061 36.9285 178.022 36.9285ZM173.235 24.9405H182.376C182.352 24.5325 182.233 24.1125 182.017 23.6805C181.801 23.2485 181.501 22.8525 181.117 22.4925C180.733 22.1325 180.265 21.8445 179.713 21.6285C179.185 21.3885 178.574 21.2685 177.878 21.2685C176.966 21.2685 176.126 21.5085 175.358 21.9885C174.615 22.4685 174.027 23.1285 173.595 23.9685C173.451 24.2805 173.331 24.6045 173.235 24.9405Z" fill="white"></path>
  <path d="M160.248 10.5765V36.3525H164.962V10.5765H160.248Z" fill="white"></path>
  <path fill-rule="evenodd" clip-rule="evenodd" d="M146.211 44.7045C144.555 44.7045 143.115 44.4405 141.892 43.9125C140.692 43.4085 139.708 42.7485 138.941 41.9325C138.173 41.1165 137.633 40.2645 137.321 39.3765L141.748 37.5765C142.132 38.4645 142.708 39.1725 143.475 39.7005C144.267 40.2525 145.179 40.5285 146.211 40.5285C147.674 40.5285 148.85 40.0725 149.738 39.1605C150.625 38.2725 151.069 36.9765 151.069 35.2725V33.8325H150.781C150.205 34.6485 149.45 35.2725 148.514 35.7045C147.578 36.1365 146.51 36.3525 145.311 36.3525C143.823 36.3525 142.42 35.9685 141.1 35.2005C139.804 34.4325 138.749 33.3405 137.933 31.9245C137.141 30.5085 136.745 28.8285 136.745 26.8845C136.745 24.9165 137.141 23.2365 137.933 21.8445C138.749 20.4285 139.804 19.3365 141.1 18.5685C142.42 17.8005 143.823 17.4165 145.311 17.4165C146.51 17.4165 147.578 17.6325 148.514 18.0645C149.45 18.4725 150.205 19.0965 150.781 19.9365H151.069V17.9925H155.604V35.0925C155.604 37.0605 155.22 38.7645 154.452 40.2045C153.685 41.6445 152.593 42.7485 151.177 43.5165C149.786 44.3085 148.13 44.7045 146.211 44.7045ZM146.283 32.0685C147.122 32.0685 147.902 31.8765 148.622 31.4925C149.366 31.0845 149.954 30.4965 150.385 29.7285C150.841 28.9365 151.069 27.9885 151.069 26.8845C151.069 25.7325 150.841 24.7725 150.385 24.0045C149.954 23.2365 149.366 22.6605 148.622 22.2765C147.902 21.8925 147.122 21.7005 146.283 21.7005C145.443 21.7005 144.651 21.8925 143.907 22.2765C143.163 22.6605 142.564 23.2365 142.108 24.0045C141.676 24.7725 141.46 25.7325 141.46 26.8845C141.46 28.0125 141.676 28.9725 142.108 29.7645C142.564 30.5325 143.163 31.1085 143.907 31.4925C144.651 31.8765 145.443 32.0685 146.283 32.0685Z" fill="white"></path>
  <path fill-rule="evenodd" clip-rule="evenodd" d="M119.281 35.6685C120.769 36.5085 122.473 36.9285 124.392 36.9285C126.312 36.9285 128.003 36.5085 129.467 35.6685C130.93 34.8045 132.07 33.6405 132.886 32.1765C133.726 30.6885 134.145 29.0205 134.145 27.1725C134.145 25.3245 133.726 23.6685 132.886 22.2045C132.07 20.7405 130.93 19.5765 129.467 18.7125C128.003 17.8485 126.312 17.4165 124.392 17.4165C122.473 17.4165 120.769 17.8485 119.281 18.7125C117.818 19.5525 116.666 20.7165 115.826 22.2045C115.011 23.6685 114.603 25.3245 114.603 27.1725C114.603 29.0205 115.011 30.6885 115.826 32.1765C116.666 33.6405 117.818 34.8045 119.281 35.6685ZM126.875 31.9245C126.132 32.3325 125.304 32.5365 124.392 32.5365C123.504 32.5365 122.665 32.3325 121.873 31.9245C121.105 31.4925 120.481 30.8805 120.001 30.0885C119.545 29.2725 119.317 28.3005 119.317 27.1725C119.317 26.0445 119.545 25.0845 120.001 24.2925C120.481 23.5005 121.105 22.8885 121.873 22.4565C122.665 22.0245 123.516 21.8085 124.428 21.8085C125.316 21.8085 126.132 22.0245 126.875 22.4565C127.643 22.8885 128.255 23.5005 128.711 24.2925C129.191 25.0845 129.431 26.0445 129.431 27.1725C129.431 28.3005 129.191 29.2725 128.711 30.0885C128.255 30.8805 127.643 31.4925 126.875 31.9245Z" fill="white"></path>
  <path fill-rule="evenodd" clip-rule="evenodd" d="M102.25 36.9285C100.33 36.9285 98.6267 36.5085 97.1391 35.6685C95.6755 34.8045 94.5238 33.6405 93.684 32.1765C92.8683 30.6885 92.4604 29.0205 92.4604 27.1725C92.4604 25.3245 92.8683 23.6685 93.684 22.2045C94.5238 20.7165 95.6755 19.5525 97.1391 18.7125C98.6267 17.8485 100.33 17.4165 102.25 17.4165C104.169 17.4165 105.861 17.8485 107.324 18.7125C108.788 19.5765 109.928 20.7405 110.743 22.2045C111.583 23.6685 112.003 25.3245 112.003 27.1725C112.003 29.0205 111.583 30.6885 110.743 32.1765C109.928 33.6405 108.788 34.8045 107.324 35.6685C105.861 36.5085 104.169 36.9285 102.25 36.9285ZM102.25 32.5365C103.161 32.5365 103.989 32.3325 104.733 31.9245C105.501 31.4925 106.113 30.8805 106.569 30.0885C107.048 29.2725 107.288 28.3005 107.288 27.1725C107.288 26.0445 107.048 25.0845 106.569 24.2925C106.113 23.5005 105.501 22.8885 104.733 22.4565C103.989 22.0245 103.173 21.8085 102.286 21.8085C101.374 21.8085 100.522 22.0245 99.7304 22.4565C98.9626 22.8885 98.3388 23.5005 97.8589 24.2925C97.403 25.0845 97.1751 26.0445 97.1751 27.1725C97.1751 28.3005 97.403 29.2725 97.8589 30.0885C98.3388 30.8805 98.9626 31.4925 99.7304 31.9245C100.522 32.3325 101.362 32.5365 102.25 32.5365Z" fill="white"></path>
  <path fill-rule="evenodd" clip-rule="evenodd" d="M23.8719 44.3016C28.3038 44.3282 32.4138 42.9264 35.7681 40.5285C36.4973 40.0061 37.4988 40.0974 38.1335 40.733C38.9365 41.5385 38.835 42.8779 37.9096 43.5389C33.8919 46.4118 28.9581 48.0759 23.6388 47.9973C10.7112 47.8067 0.192692 37.2719 0.00230769 24.3242C0 24.204 0 24.0838 0 23.9636H3.69231V24.0907C3.76038 35.1802 12.7996 44.2334 23.8719 44.3016ZM43.5577 37.8786C42.8931 38.8112 41.5535 38.9291 40.7446 38.119V38.1201C40.1112 37.4857 40.0177 36.4838 40.5381 35.7534C42.9104 32.4252 44.3077 28.355 44.3077 23.9636H48C48 29.1455 46.3535 33.9495 43.5577 37.8786Z" fill="#4285F4"></path>
  <path fill-rule="evenodd" clip-rule="evenodd" d="M25.9869 0.0062099C24.9162 -0.0816183 24 0.773551 24 1.8506C24 2.80631 24.7269 3.61294 25.6777 3.69153C36.0935 4.54901 44.3077 13.3122 44.3077 23.9625H48C48 11.3776 38.295 1.02201 25.9869 0.0062099ZM40.6154 23.9625C40.6154 15.4894 34.26 8.47583 26.0735 7.45079C24.9727 7.31327 24 8.17421 24 9.28593C24 10.2266 24.705 11.0055 25.635 11.1234C31.9915 11.9312 36.9231 17.3811 36.9231 23.9636H40.6154V23.9625ZM26.2304 14.9902C30.2466 15.992 33.2302 19.634 33.2308 23.9613H29.5385C29.5385 21.3797 27.7673 19.2036 25.3788 18.5888C24.5735 18.3819 24 17.6724 24 16.8403V16.734C24 15.5645 25.0973 14.707 26.2304 14.9902Z" fill="#FBBC04"></path>
  <path fill-rule="evenodd" clip-rule="evenodd" d="M23.6792 40.6001C26.8834 40.6614 29.8881 39.8074 32.4519 38.2842C33.4834 37.6718 33.6519 36.2434 32.8038 35.394C32.205 34.7942 31.2784 34.6856 30.5492 35.1166C28.4919 36.3324 26.0711 36.9946 23.4923 36.8952C16.7827 36.6363 11.3446 31.1898 11.0861 24.4698C11.0792 24.2999 11.0769 24.13 11.0769 23.9613H7.38459C7.38459 24.0688 7.38459 24.1751 7.38805 24.2826C7.55651 33.1844 14.7911 40.4303 23.6792 40.599V40.6001ZM40.6142 23.9625H36.9231C36.9231 26.3535 36.2723 28.5942 35.1392 30.5184C34.7077 31.2499 34.8138 32.179 35.4138 32.78C36.2619 33.6293 37.6881 33.4595 38.2996 32.4263C39.7696 29.9452 40.6142 27.0503 40.6142 23.9625ZM24.4246 29.4933C27.1327 29.2888 29.3192 27.1 29.5223 24.3877L29.52 24.3889C29.5304 24.2456 29.5362 24.1035 29.5362 23.9625H33.2285C33.2285 29.2252 28.8162 33.4745 23.5027 33.1948C18.6946 32.9417 14.8569 28.9548 14.7692 24.1335C14.7681 24.0757 14.7681 24.0191 14.7681 23.9625H18.4604C18.4604 27.1613 21.18 29.7372 24.4246 29.4933Z" fill="#34A853"></path>
  <path d="M25.305 22.6543L4.99731 2.31515C4.27615 1.59288 3.10731 1.59288 2.38615 2.31515C1.665 3.03743 1.665 4.20808 2.38615 4.93035L5.78192 8.33138C2.17962 12.5367 0 17.9994 0 23.9625H3.69231C3.69231 19.0198 5.46346 14.4828 8.40115 10.9547L11.0238 13.5814C8.74731 16.4289 7.38461 20.0391 7.38461 23.9625H11.0769C11.0769 21.0595 12.0358 18.3762 13.6535 16.2151L16.3015 18.8673C15.3335 20.3292 14.7681 22.08 14.7681 23.9613H18.4604C18.4604 23.1062 18.6554 22.2949 19.0015 21.5715L22.6938 25.2695C23.0538 25.6301 23.5269 25.8115 23.9988 25.8115C24.4708 25.8115 24.9438 25.6312 25.3038 25.2695C26.025 24.5472 26.025 23.3766 25.3038 22.6543H25.305Z" fill="#EA4335"></path>
</svg>