<svg version="1.1" id="Layer_1" xmlns="http://www.w3.org/2000/svg" xmlns:xlink="http://www.w3.org/1999/xlink" x="0px" y="0px"
	 width="100%" viewBox="0 0 600 315" enable-background="new 0 0 600 315" xml:space="preserve">
<path fill="#FFFEFE" opacity="1.000000" stroke="none" 
	d="
M601.000000,243.000000 
	C601.000000,267.318451 601.000000,291.636932 601.000000,315.955597 
	C401.000000,315.955811 201.000000,315.955811 1.000000,315.955811 
	C1.000000,301.920197 1.000000,287.928741 1.363715,273.518982 
	C2.486715,274.533081 3.262180,275.957214 4.002818,277.399170 
	C13.451590,295.795471 40.865864,298.606567 52.810078,282.628418 
	C50.066261,280.028473 47.352497,277.457001 44.602180,274.850891 
	C34.158138,282.184113 25.772902,282.695801 19.312389,276.210449 
	C13.262538,270.137360 12.358439,259.326782 17.924780,252.483765 
	C19.998318,249.934677 23.184847,247.695648 26.304180,246.712982 
	C33.416046,244.472565 39.462097,247.811813 44.808136,252.521011 
	C47.796268,249.032028 50.355152,246.044250 52.885109,243.090240 
	C38.237358,227.904099 12.179350,232.101730 3.372262,250.676590 
	C2.798284,251.887161 1.800595,252.896866 0.999999,254.000000 
	C1.000000,169.700607 1.000000,85.401215 1.000000,1.050910 
	C200.885574,1.050910 400.771149,1.050910 601.000000,1.050910 
	C601.000000,78.687225 601.000000,156.374954 600.633057,234.437164 
	C599.107788,235.592346 597.949524,236.373062 596.899963,237.080475 
	C595.776978,236.211075 594.739136,235.407562 593.452148,234.411209 
	C593.452148,237.739838 593.452148,240.352936 593.452148,242.234024 
	C595.139160,241.575790 596.649414,240.543213 598.146545,240.561813 
	C599.107666,240.573761 600.049500,242.133850 601.000000,243.000000 
M303.372711,56.678680 
	C298.941498,55.725151 294.510254,54.771622 289.444946,53.266586 
	C284.635406,53.228554 279.825867,53.190521 274.202789,53.043922 
	C272.428925,53.365868 270.658203,53.706440 268.880707,54.006779 
	C255.834229,56.211208 244.416763,61.677685 234.318130,71.215889 
	C233.166290,72.457024 232.014450,73.698158 230.331696,75.321815 
	C228.868530,77.206161 227.405365,79.090508 225.409195,81.402039 
	C224.053070,83.813652 222.696960,86.225266 220.790527,88.981918 
	C220.128586,90.797699 219.466629,92.613487 218.185974,94.841141 
	C217.408508,96.870865 216.631058,98.900597 215.432343,101.542366 
	C214.834366,104.322617 214.236374,107.102867 213.235031,110.512573 
	C213.028931,113.022072 212.822815,115.531570 212.308105,118.876167 
	C212.561172,121.911812 212.814240,124.947464 213.054306,128.793243 
	C213.134277,129.865341 213.214233,130.937439 213.258759,132.745926 
	C214.022034,135.492371 214.785324,138.238800 215.570908,141.741302 
	C216.259720,143.539322 216.948532,145.337341 217.756165,147.819656 
	C218.479813,149.218262 219.203461,150.616852 219.993927,152.737793 
	C224.662582,162.148895 231.108017,170.056274 240.103714,176.693481 
	C250.562653,184.173706 261.961975,189.135666 275.752136,190.034348 
	C324.581879,193.643707 358.879761,147.664871 347.341125,105.458138 
	C345.192383,106.187592 343.052429,106.914070 340.035950,107.685135 
	C337.689636,107.751778 335.343323,107.818428 332.587860,107.318275 
	C329.978485,106.310318 327.369110,105.302361 324.158081,104.061989 
	C323.382812,105.542671 322.583893,107.068542 321.190338,108.935585 
	C316.090790,115.655388 310.932526,122.332298 305.958466,129.143707 
	C305.255798,130.105881 304.977020,131.868469 305.324921,133.009720 
	C306.176453,135.803223 307.509369,138.449982 308.539246,141.752274 
	C308.610443,142.347610 308.681641,142.942963 308.348602,143.889160 
	C308.287231,144.231033 308.225861,144.572891 307.888824,145.550308 
	C307.881927,146.239746 307.875000,146.929184 307.292206,148.039917 
	C304.933136,154.217697 300.151398,157.490570 293.167389,158.969818 
	C285.126801,159.494263 280.041748,155.111603 276.131317,147.939468 
	C276.131317,143.521210 276.131317,139.102951 276.131317,133.678772 
	C275.404205,133.355637 273.732605,132.612747 271.850220,131.305832 
	C270.971466,130.500275 270.092743,129.694717 268.887848,128.283752 
	C266.182098,126.292542 263.476318,124.301331 260.690338,122.251083 
	C258.797699,124.538925 257.253265,126.405846 255.608047,128.394592 
	C253.642639,127.168762 251.866028,126.060684 249.774399,124.360397 
	C247.501831,122.747231 245.229263,121.134064 242.529800,118.995377 
	C241.064026,117.979462 239.598236,116.963539 238.094513,115.270142 
	C239.113678,113.595879 240.132858,111.921616 241.722351,109.871254 
	C243.840576,106.923729 245.958786,103.976212 248.584625,100.736748 
	C249.084152,99.904457 249.583694,99.072166 250.705063,98.020119 
	C251.132385,97.930916 251.559723,97.841721 252.370926,98.228210 
	C252.898575,98.515633 253.426224,98.803062 254.319687,99.657082 
	C256.319763,101.014023 258.319855,102.370964 260.677185,104.264366 
	C262.434448,105.547585 264.191681,106.830803 266.257843,108.591072 
	C267.028290,109.110252 267.798706,109.629433 268.628754,110.815628 
	C267.246185,112.973946 265.863647,115.132263 264.247162,117.655754 
	C266.517242,119.193077 268.649719,120.637199 271.128174,122.670685 
	C274.312958,125.061508 277.497742,127.452324 279.556458,128.997803 
	C284.929749,127.872986 289.262878,126.063271 293.491241,126.281769 
	C300.736359,126.656174 302.427826,126.167931 305.902191,118.962433 
	C308.717163,114.972984 311.532104,110.983536 314.986511,106.977722 
	C316.664032,105.002258 318.341522,103.026794 320.060852,101.002068 
	C318.199554,98.700737 316.645294,96.779068 314.982269,94.097527 
	C314.379974,87.744881 313.777710,81.392235 313.675476,74.616257 
	C314.459564,72.772316 315.243652,70.928375 316.657532,68.769981 
	C317.605865,67.547989 318.554199,66.326004 320.091370,64.345299 
	C314.245422,61.708561 309.126862,59.399902 303.372711,56.678680 
M317.390991,291.744110 
	C321.296143,291.744110 325.201263,291.744110 329.600342,291.744110 
	C329.600342,285.911926 329.600342,280.658997 329.600342,274.931732 
	C333.729828,274.931732 337.359314,275.016113 340.983765,274.916077 
	C352.345398,274.602478 361.037964,266.892609 361.247253,257.023743 
	C361.534149,243.493179 354.792847,235.710175 341.850922,235.024109 
	C336.040619,234.716110 330.199158,234.861572 324.376038,234.990463 
	C321.839508,235.046616 319.313507,235.578629 316.461975,236.682327 
	C316.419800,245.343689 316.289978,254.005753 316.359039,262.666229 
	C316.434509,272.131653 316.693878,281.595581 317.390991,291.744110 
M382.080780,33.481895 
	C375.338867,25.099308 366.295227,22.432589 356.196381,24.331758 
	C342.183014,26.967087 333.164276,41.778442 336.647888,55.328979 
	C340.467712,70.187210 354.356415,78.473709 368.766113,74.491913 
	C386.260345,69.657761 392.935181,50.058308 382.080780,33.481895 
M506.753174,263.895844 
	C506.645386,265.086182 506.537567,266.276489 506.336151,268.500519 
	C499.056641,258.913544 491.899200,250.526062 485.975708,241.342667 
	C481.594055,234.549652 476.125732,234.127151 469.288208,235.403336 
	C469.288208,254.197220 469.288208,272.880737 469.288208,291.601410 
	C473.605347,291.601410 477.518188,291.601410 482.121704,291.601410 
	C482.121704,280.365509 482.121704,269.430603 482.121704,257.349304 
	C489.916931,267.561066 497.453552,276.320892 503.654358,285.941711 
	C507.911560,292.546936 513.082092,292.497711 519.558472,291.492126 
	C519.558472,272.703552 519.558472,254.139297 519.558472,235.293152 
	C515.255432,235.293152 511.220947,235.293152 506.753784,235.293152 
	C506.753784,244.761536 506.753784,253.893127 506.753174,263.895844 
M387.748077,236.011948 
	C374.061646,242.371918 367.340668,253.916367 369.155945,267.947174 
	C370.781799,280.514038 380.251404,289.714203 394.451416,292.522949 
	C408.323883,295.266907 423.342407,286.631714 427.856903,273.315857 
	C432.709137,259.003754 426.798370,243.904480 413.663788,237.304367 
	C405.526672,233.215500 397.088318,233.000351 387.748077,236.011948 
M75.646996,275.460876 
	C75.646996,273.505066 75.646996,271.549255 75.646996,269.421997 
	C83.311424,269.421997 90.427147,269.421997 98.072182,269.421997 
	C98.072182,276.882446 98.072182,284.285004 98.072182,291.624512 
	C102.504967,291.624512 106.402298,291.624512 110.360710,291.624512 
	C110.360710,272.602570 110.360710,253.887131 110.360710,235.221832 
	C106.104919,235.221832 102.188446,235.221832 97.863907,235.221832 
	C97.863907,242.761307 97.863907,250.021942 97.863907,257.235962 
	C90.335373,257.235962 83.232147,257.235962 75.590683,257.235962 
	C75.590683,249.779877 75.590683,242.543198 75.590683,235.287598 
	C70.996170,235.287598 66.953918,235.287598 62.997940,235.287598 
	C62.997940,254.325272 62.997940,273.014465 62.997940,291.627136 
	C67.332405,291.627136 71.253487,291.627136 75.646790,291.627136 
	C75.646790,286.385040 75.646790,281.426147 75.646996,275.460876 
M164.375656,234.943802 
	C151.439804,234.943802 138.503967,234.943802 125.410027,234.943802 
	C125.410027,254.163300 125.410027,272.856018 125.410027,291.637085 
	C139.985687,291.637085 154.217575,291.637085 168.646774,291.637085 
	C168.646774,287.792847 168.646774,284.238007 168.646774,280.277039 
	C158.461533,280.277039 148.538315,280.277039 138.464569,280.277039 
	C138.464569,276.323975 138.464569,272.788635 138.464569,268.739746 
	C147.359543,268.739746 155.917862,268.739746 164.459015,268.739746 
	C164.459015,264.800293 164.459015,261.383118 164.459015,257.444855 
	C155.624786,257.444855 147.062607,257.444855 138.443481,257.444855 
	C138.443481,253.512222 138.443481,250.118454 138.443481,246.218323 
	C148.476379,246.218323 158.192108,246.218323 168.094910,246.218323 
	C168.094910,243.053009 168.350525,240.360397 167.969513,237.761139 
	C167.816422,236.716812 166.265533,235.877396 164.375656,234.943802 
M270.112152,254.621796 
	C276.139221,248.347885 282.166290,242.073975 289.012573,234.947342 
	C285.038208,234.947342 282.400421,235.204849 279.832062,234.892197 
	C274.918640,234.294037 271.522736,236.055725 268.343353,239.914154 
	C263.136566,246.232986 257.275696,252.012787 250.701660,259.083771 
	C250.701660,250.147507 250.701660,242.634048 250.701660,235.109741 
	C246.131378,235.109741 242.162048,235.109741 237.923279,235.109741 
	C237.923279,253.999481 237.923279,272.727783 237.923279,291.517029 
	C242.297562,291.517029 246.490479,291.517029 250.511642,291.517029 
	C252.402039,283.610535 247.092072,274.125000 257.301056,268.697449 
	C262.129730,275.325439 266.957977,282.037109 271.901031,288.663116 
	C272.834961,289.915009 274.157104,291.642731 275.417297,291.748016 
	C279.915100,292.123688 284.463409,291.894958 289.932037,291.894958 
	C281.490173,280.443451 273.737396,269.926697 265.876282,259.262970 
	C267.179749,257.817566 268.394897,256.470093 270.112152,254.621796 
M214.189514,247.942703 
	C216.379730,249.340637 218.569962,250.738556 220.935226,252.248199 
	C223.618134,249.105423 226.166061,246.120758 228.674530,243.182327 
	C217.376801,230.671158 195.842438,230.863480 184.290665,243.250122 
	C172.855927,255.511337 174.434875,276.301483 187.598679,286.807007 
	C199.966156,296.677002 220.743942,294.374451 228.247589,283.129913 
	C225.734421,280.044800 223.359146,277.128967 221.161331,274.430939 
	C218.423386,276.211639 216.327316,277.907043 213.964737,279.053070 
	C204.486389,283.650787 194.283188,279.236633 191.094559,269.264526 
	C188.819077,262.148193 190.261093,255.674728 195.458801,250.462296 
	C200.595337,245.311218 206.922653,245.019165 214.189514,247.942703 
M547.204956,291.063141 
	C551.350952,291.426636 555.496948,291.790161 560.168457,292.199738 
	C560.168457,276.600342 560.168457,262.029144 560.168457,246.957108 
	C566.047668,246.957108 571.452454,246.957108 576.812744,246.957108 
	C576.812744,242.718765 576.812744,239.001709 576.812744,235.338318 
	C561.039734,235.338318 545.660095,235.338318 530.396729,235.338318 
	C530.396729,239.462112 530.396729,243.196808 530.396729,247.351868 
	C536.028870,247.351868 541.289307,247.351868 546.966736,247.351868 
	C546.966736,261.904938 546.966736,276.030060 547.204956,291.063141 
M440.963501,262.500000 
	C440.963501,272.236115 440.963501,281.972198 440.963501,291.580933 
	C445.745880,291.580933 449.667450,291.580933 453.755798,291.580933 
	C453.755798,272.671722 453.755798,254.103973 453.755798,235.285156 
	C449.441956,235.285156 445.402710,235.285156 440.963501,235.285156 
	C440.963501,244.240753 440.963501,252.870377 440.963501,262.500000 
M585.900879,237.020325 
	C586.530701,239.067749 587.160522,241.115158 588.021057,243.912567 
	C589.147827,240.405960 589.969666,237.848343 590.863586,235.066360 
	C589.098450,235.524124 586.331909,232.666611 585.900879,237.020325 
z"/>
<path fill="#070707" opacity="1.000000" stroke="none" 
	d="
M0.999999,254.468277 
	C1.800595,252.896866 2.798284,251.887161 3.372262,250.676590 
	C12.179350,232.101730 38.237358,227.904099 52.885109,243.090240 
	C50.355152,246.044250 47.796268,249.032028 44.808136,252.521011 
	C39.462097,247.811813 33.416046,244.472565 26.304180,246.712982 
	C23.184847,247.695648 19.998318,249.934677 17.924780,252.483765 
	C12.358439,259.326782 13.262538,270.137360 19.312389,276.210449 
	C25.772902,282.695801 34.158138,282.184113 44.602180,274.850891 
	C47.352497,277.457001 50.066261,280.028473 52.810078,282.628418 
	C40.865864,298.606567 13.451590,295.795471 4.002818,277.399170 
	C3.262180,275.957214 2.486715,274.533081 1.363715,273.050354 
	C1.000000,266.978851 1.000000,260.957703 0.999999,254.468277 
z"/>
<path fill="#E12C7E" opacity="1.000000" stroke="none" 
	d="
M601.000000,242.555832 
	C600.049500,242.133850 599.107666,240.573761 598.146545,240.561813 
	C596.649414,240.543213 595.139160,241.575790 593.452148,242.234024 
	C593.452148,240.352936 593.452148,237.739838 593.452148,234.411209 
	C594.739136,235.407562 595.776978,236.211075 596.899963,237.080475 
	C597.949524,236.373062 599.107788,235.592346 600.633057,234.905823 
	C601.000000,237.370560 601.000000,239.741104 601.000000,242.555832 
z"/>
<path fill="#020202" opacity="1.000000" stroke="none" 
	d="
M382.310547,33.764191 
	C392.935181,50.058308 386.260345,69.657761 368.766113,74.491913 
	C354.356415,78.473709 340.467712,70.187210 336.647888,55.328979 
	C333.164276,41.778442 342.183014,26.967087 356.196381,24.331758 
	C366.295227,22.432589 375.338867,25.099308 382.310547,33.764191 
z"/>
<path fill="#DA1A74" opacity="1.000000" stroke="none" 
	d="
M506.753479,263.460266 
	C506.753784,253.893127 506.753784,244.761536 506.753784,235.293152 
	C511.220947,235.293152 515.255432,235.293152 519.558472,235.293152 
	C519.558472,254.139297 519.558472,272.703552 519.558472,291.492126 
	C513.082092,292.497711 507.911560,292.546936 503.654358,285.941711 
	C497.453552,276.320892 489.916931,267.561066 482.121704,257.349304 
	C482.121704,269.430603 482.121704,280.365509 482.121704,291.601410 
	C477.518188,291.601410 473.605347,291.601410 469.288208,291.601410 
	C469.288208,272.880737 469.288208,254.197220 469.288208,235.403336 
	C476.125732,234.127151 481.594055,234.549652 485.975708,241.342667 
	C491.899200,250.526062 499.056641,258.913544 506.336151,268.500519 
	C506.537567,266.276489 506.645386,265.086182 506.753479,263.460266 
z"/>
<path fill="#DA1974" opacity="1.000000" stroke="none" 
	d="
M388.121704,235.872375 
	C397.088318,233.000351 405.526672,233.215500 413.663788,237.304367 
	C426.798370,243.904480 432.709137,259.003754 427.856903,273.315857 
	C423.342407,286.631714 408.323883,295.266907 394.451416,292.522949 
	C380.251404,289.714203 370.781799,280.514038 369.155945,267.947174 
	C367.340668,253.916367 374.061646,242.371918 388.121704,235.872375 
M406.500885,247.729874 
	C405.092255,247.261627 403.716156,246.603775 402.269745,246.355972 
	C392.926819,244.755203 384.759674,250.328079 382.998108,259.417542 
	C381.152161,268.942566 386.417542,278.132324 394.910553,280.208649 
	C404.407501,282.530396 412.692810,277.671387 415.330017,268.233459 
	C417.495911,260.482239 414.555817,253.202042 406.500885,247.729874 
z"/>
<path fill="#080808" opacity="1.000000" stroke="none" 
	d="
M75.646896,275.964050 
	C75.646790,281.426147 75.646790,286.385040 75.646790,291.627136 
	C71.253487,291.627136 67.332405,291.627136 62.997940,291.627136 
	C62.997940,273.014465 62.997940,254.325272 62.997940,235.287598 
	C66.953918,235.287598 70.996170,235.287598 75.590683,235.287598 
	C75.590683,242.543198 75.590683,249.779877 75.590683,257.235962 
	C83.232147,257.235962 90.335373,257.235962 97.863907,257.235962 
	C97.863907,250.021942 97.863907,242.761307 97.863907,235.221832 
	C102.188446,235.221832 106.104919,235.221832 110.360710,235.221832 
	C110.360710,253.887131 110.360710,272.602570 110.360710,291.624512 
	C106.402298,291.624512 102.504967,291.624512 98.072182,291.624512 
	C98.072182,284.285004 98.072182,276.882446 98.072182,269.421997 
	C90.427147,269.421997 83.311424,269.421997 75.646996,269.421997 
	C75.646996,271.549255 75.646996,273.505066 75.646896,275.964050 
z"/>
<path fill="#080808" opacity="1.000000" stroke="none" 
	d="
M164.863251,234.944244 
	C166.265533,235.877396 167.816422,236.716812 167.969513,237.761139 
	C168.350525,240.360397 168.094910,243.053009 168.094910,246.218323 
	C158.192108,246.218323 148.476379,246.218323 138.443481,246.218323 
	C138.443481,250.118454 138.443481,253.512222 138.443481,257.444855 
	C147.062607,257.444855 155.624786,257.444855 164.459015,257.444855 
	C164.459015,261.383118 164.459015,264.800293 164.459015,268.739746 
	C155.917862,268.739746 147.359543,268.739746 138.464569,268.739746 
	C138.464569,272.788635 138.464569,276.323975 138.464569,280.277039 
	C148.538315,280.277039 158.461533,280.277039 168.646774,280.277039 
	C168.646774,284.238007 168.646774,287.792847 168.646774,291.637085 
	C154.217575,291.637085 139.985687,291.637085 125.410027,291.637085 
	C125.410027,272.856018 125.410027,254.163300 125.410027,234.943802 
	C138.503967,234.943802 151.439804,234.943802 164.863251,234.944244 
z"/>
<path fill="#060606" opacity="1.000000" stroke="none" 
	d="
M269.861084,254.872223 
	C268.394897,256.470093 267.179749,257.817566 265.876282,259.262970 
	C273.737396,269.926697 281.490173,280.443451 289.932037,291.894958 
	C284.463409,291.894958 279.915100,292.123688 275.417297,291.748016 
	C274.157104,291.642731 272.834961,289.915009 271.901031,288.663116 
	C266.957977,282.037109 262.129730,275.325439 257.301056,268.697449 
	C247.092072,274.125000 252.402039,283.610535 250.511642,291.517029 
	C246.490479,291.517029 242.297562,291.517029 237.923279,291.517029 
	C237.923279,272.727783 237.923279,253.999481 237.923279,235.109741 
	C242.162048,235.109741 246.131378,235.109741 250.701660,235.109741 
	C250.701660,242.634048 250.701660,250.147507 250.701660,259.083771 
	C257.275696,252.012787 263.136566,246.232986 268.343353,239.914154 
	C271.522736,236.055725 274.918640,234.294037 279.832062,234.892197 
	C282.400421,235.204849 285.038208,234.947342 289.012573,234.947342 
	C282.166290,242.073975 276.139221,248.347885 269.861084,254.872223 
z"/>
<path fill="#060606" opacity="1.000000" stroke="none" 
	d="
M213.847778,247.751801 
	C206.922653,245.019165 200.595337,245.311218 195.458801,250.462296 
	C190.261093,255.674728 188.819077,262.148193 191.094559,269.264526 
	C194.283188,279.236633 204.486389,283.650787 213.964737,279.053070 
	C216.327316,277.907043 218.423386,276.211639 221.161331,274.430939 
	C223.359146,277.128967 225.734421,280.044800 228.247589,283.129913 
	C220.743942,294.374451 199.966156,296.677002 187.598679,286.807007 
	C174.434875,276.301483 172.855927,255.511337 184.290665,243.250122 
	C195.842438,230.863480 217.376801,230.671158 228.674530,243.182327 
	C226.166061,246.120758 223.618134,249.105423 220.935226,252.248199 
	C218.569962,250.738556 216.379730,249.340637 213.847778,247.751801 
z"/>
<path fill="#DA1B75" opacity="1.000000" stroke="none" 
	d="
M316.782745,235.894531 
	C319.313507,235.578629 321.839508,235.046616 324.376038,234.990463 
	C330.199158,234.861572 336.040619,234.716110 341.850922,235.024109 
	C354.792847,235.710175 361.534149,243.493179 361.247253,257.023743 
	C361.037964,266.892609 352.345398,274.602478 340.983765,274.916077 
	C337.359314,275.016113 333.729828,274.931732 329.600342,274.931732 
	C329.600342,280.658997 329.600342,285.911926 329.600342,291.744110 
	C325.201263,291.744110 321.296143,291.744110 317.453644,291.120483 
	C317.673157,289.864319 317.965912,289.231964 317.967041,288.599121 
	C317.996033,272.213837 318.019775,255.828400 317.946136,239.443405 
	C317.940765,238.258728 317.188019,237.077408 316.782745,235.894531 
M340.437378,246.936584 
	C336.884735,246.722488 333.332062,246.508392 329.719910,246.290710 
	C329.719910,252.406097 329.719910,257.647095 329.719910,263.168488 
	C333.379791,263.168488 336.698853,263.331207 339.995758,263.130310 
	C344.941162,262.828979 348.077332,259.897461 348.426636,255.597305 
	C348.783844,251.199875 346.521545,248.501694 340.437378,246.936584 
z"/>
<path fill="#C31A4E" opacity="1.000000" stroke="none" 
	d="
M308.752869,143.538300 
	C308.681641,142.942963 308.610443,142.347610 308.967224,141.389343 
	C313.609009,138.053284 317.822784,135.080185 322.367279,132.023651 
	C327.150787,128.309631 331.603607,124.679062 336.367432,120.886642 
	C338.761108,120.043411 340.843781,119.362038 342.926422,118.680664 
	C343.289337,120.563553 343.962189,122.445488 343.967987,124.329475 
	C344.037445,146.920944 327.572937,170.982559 306.005554,179.547089 
	C306.624817,168.628128 307.246460,158.123367 307.868103,147.618622 
	C307.875000,146.929184 307.881927,146.239746 308.223175,145.055420 
	C308.622620,144.219803 308.687744,143.879044 308.752869,143.538300 
z"/>
<path fill="#DA1873" opacity="1.000000" stroke="none" 
	d="
M547.085815,290.609161 
	C546.966736,276.030060 546.966736,261.904938 546.966736,247.351868 
	C541.289307,247.351868 536.028870,247.351868 530.396729,247.351868 
	C530.396729,243.196808 530.396729,239.462112 530.396729,235.338318 
	C545.660095,235.338318 561.039734,235.338318 576.812744,235.338318 
	C576.812744,239.001709 576.812744,242.718765 576.812744,246.957108 
	C571.452454,246.957108 566.047668,246.957108 560.168457,246.957108 
	C560.168457,262.029144 560.168457,276.600342 560.168457,292.199738 
	C555.496948,291.790161 551.350952,291.426636 547.085815,290.609161 
z"/>
<path fill="#FC0872" opacity="1.000000" stroke="none" 
	d="
M306.007904,179.961304 
	C327.572937,170.982559 344.037445,146.920944 343.967987,124.329475 
	C343.962189,122.445488 343.289337,120.563553 342.926422,118.680664 
	C340.843781,119.362038 338.761108,120.043411 336.063293,120.593994 
	C335.285156,116.813011 335.122162,113.162834 334.985779,110.108116 
	C337.529907,109.048874 339.221191,108.344719 340.912445,107.640564 
	C343.052429,106.914070 345.192383,106.187592 347.341125,105.458138 
	C358.879761,147.664871 324.581879,193.643707 275.373291,189.487946 
	C274.998779,187.638138 275.003113,186.334732 275.422638,185.024414 
	C278.230835,185.324661 280.623810,185.631851 283.433167,185.950546 
	C287.912384,184.988968 291.975220,184.015884 296.430664,183.032776 
	C299.884827,182.002258 302.946350,180.981781 306.007904,179.961304 
z"/>
<path fill="#DA1974" opacity="1.000000" stroke="none" 
	d="
M440.963501,262.000000 
	C440.963501,252.870377 440.963501,244.240753 440.963501,235.285156 
	C445.402710,235.285156 449.441956,235.285156 453.755798,235.285156 
	C453.755798,254.103973 453.755798,272.671722 453.755798,291.580933 
	C449.667450,291.580933 445.745880,291.580933 440.963501,291.580933 
	C440.963501,281.972198 440.963501,272.236115 440.963501,262.000000 
z"/>
<path fill="#ED6DAC" opacity="1.000000" stroke="none" 
	d="
M218.804688,94.429260 
	C219.466629,92.613487 220.128586,90.797699 221.494247,88.915207 
	C223.910828,88.339935 225.651917,87.910393 227.332016,87.310150 
	C239.275375,83.043221 250.979401,77.843956 263.216858,74.750160 
	C272.129059,72.497040 282.110718,71.483574 290.188782,78.194321 
	C296.922607,83.788399 301.936523,90.598228 300.623657,100.086403 
	C299.559143,99.667519 298.800262,99.319221 297.893463,98.693680 
	C296.868042,97.922020 295.990509,97.427605 294.987396,96.687775 
	C294.563263,95.983070 294.264709,95.523788 293.975861,94.675644 
	C292.963745,88.355370 289.106384,84.842255 283.907227,82.477386 
	C273.699249,77.834221 263.389160,79.677223 253.452484,82.887283 
	C242.947052,86.281097 232.811386,90.812241 222.462723,94.709915 
	C221.425720,95.100494 220.032562,94.545448 218.804688,94.429260 
z"/>
<path fill="#E80463" opacity="1.000000" stroke="none" 
	d="
M239.761566,176.094879 
	C231.108017,170.056274 224.662582,162.148895 220.348862,152.328522 
	C225.135468,150.944641 229.567123,149.970047 234.033386,149.342072 
	C238.379059,153.126831 242.690140,156.564941 247.001190,160.389008 
	C247.077286,161.589432 246.856979,162.626740 247.275650,163.183792 
	C251.265961,168.493103 255.385971,173.704666 259.416351,178.984314 
	C260.377869,180.243881 261.144012,181.652603 261.633636,182.956375 
	C256.739227,180.899338 252.303528,178.618454 247.645187,176.964798 
	C245.220001,176.103851 242.402084,176.349228 239.761566,176.094879 
z"/>
<path fill="#EF78B3" opacity="1.000000" stroke="none" 
	d="
M300.929291,100.156998 
	C301.936523,90.598228 296.922607,83.788399 290.188782,78.194321 
	C282.110718,71.483574 272.129059,72.497040 263.216858,74.750160 
	C250.979401,77.843956 239.275375,83.043221 227.332016,87.310150 
	C225.651917,87.910393 223.910828,88.339935 221.769409,88.742691 
	C222.696960,86.225266 224.053070,83.813652 226.110855,81.196877 
	C230.281494,80.122482 233.947327,79.707733 237.185333,78.305260 
	C251.114716,72.272079 265.126831,66.947609 280.743652,67.957512 
	C288.196350,68.439461 293.917389,71.625298 298.333008,77.557518 
	C303.982819,85.147842 305.593384,93.744362 304.701141,102.861160 
	C303.238953,101.903618 302.084137,101.030312 300.929291,100.156998 
z"/>
<path fill="#DB065E" opacity="1.000000" stroke="none" 
	d="
M247.001221,160.003052 
	C242.690140,156.564941 238.379059,153.126831 234.182465,149.039246 
	C236.531693,146.259857 238.766464,144.129929 241.401245,141.999847 
	C243.365692,141.649506 245.051926,141.560150 246.470505,140.897690 
	C249.987274,139.255402 253.391907,137.370377 256.822693,135.547318 
	C260.963287,133.347092 265.084442,131.110199 269.213989,128.889160 
	C270.092743,129.694717 270.971466,130.500275 271.714294,131.886810 
	C266.385315,134.444946 261.132996,136.285797 256.042053,138.498016 
	C254.815353,139.031052 253.218842,140.976212 253.413849,141.945877 
	C253.658447,143.162140 255.413773,144.492325 256.797607,144.984177 
	C261.129242,146.523880 265.592773,147.692596 269.965332,149.361481 
	C269.284027,151.478790 268.642639,153.239685 267.705048,155.142517 
	C265.605896,157.190247 263.802948,159.096039 261.641785,160.965118 
	C257.535461,158.267517 253.576996,158.334549 249.441269,159.904312 
	C248.719421,160.178268 247.819107,159.982086 247.001221,160.003052 
z"/>
<path fill="#D81162" opacity="1.000000" stroke="none" 
	d="
M268.001251,155.000595 
	C268.642639,153.239685 269.284027,151.478790 270.348816,149.361389 
	C272.568817,148.912445 274.365448,148.820007 276.162109,148.727570 
	C280.041748,155.111603 285.126801,159.494263 293.584076,159.505356 
	C294.679871,167.708191 295.358978,175.375504 296.038086,183.042801 
	C291.975220,184.015884 287.912384,184.988968 283.427979,185.531006 
	C281.307678,178.793137 280.375458,172.128983 277.657074,166.297455 
	C275.640503,161.971497 271.304230,158.726883 268.001251,155.000595 
z"/>
<path fill="#F182BA" opacity="1.000000" stroke="none" 
	d="
M305.008484,102.945389 
	C305.593384,93.744362 303.982819,85.147842 298.333008,77.557518 
	C293.917389,71.625298 288.196350,68.439461 280.743652,67.957512 
	C265.126831,66.947609 251.114716,72.272079 237.185333,78.305260 
	C233.947327,79.707733 230.281494,80.122482 226.377350,80.983292 
	C227.405365,79.090508 228.868530,77.206161 231.013306,75.149963 
	C233.772736,74.495316 235.888443,74.135597 237.921982,73.509155 
	C248.632828,70.209656 259.172943,66.183578 270.067078,63.705406 
	C278.979767,61.677956 288.069672,62.156548 296.173096,67.984673 
	C301.866486,72.079483 304.450104,77.951439 307.055908,84.413986 
	C307.357330,91.324402 307.606445,97.819244 307.545502,104.252655 
	C306.817017,104.142151 306.398560,104.093063 305.871338,103.819016 
	C305.554352,103.327690 305.302979,103.111473 305.008484,102.945389 
z"/>
<path fill="#F489BF" opacity="1.000000" stroke="none" 
	d="
M307.003601,83.998405 
	C304.450104,77.951439 301.866486,72.079483 296.173096,67.984673 
	C288.069672,62.156548 278.979767,61.677956 270.067078,63.705406 
	C259.172943,66.183578 248.632828,70.209656 237.921982,73.509155 
	C235.888443,74.135597 233.772736,74.495316 231.278778,74.958694 
	C232.014450,73.698158 233.166290,72.457024 235.001770,71.096802 
	C247.868515,66.768921 260.096466,62.680637 272.173248,58.186207 
	C273.554108,57.672302 274.089111,54.885437 275.016327,53.152481 
	C279.825867,53.190521 284.635406,53.228554 289.617188,53.887653 
	C288.238495,56.970707 289.707031,58.002281 291.782745,58.809948 
	C293.539612,59.493553 295.264252,60.260002 297.036041,61.336399 
	C298.412964,63.323017 299.846130,64.898727 301.084381,66.615074 
	C304.821655,71.795364 308.014099,77.189468 307.003601,83.998405 
z"/>
<path fill="#EA62A4" opacity="1.000000" stroke="none" 
	d="
M218.495331,94.635201 
	C220.032562,94.545448 221.425720,95.100494 222.462723,94.709915 
	C232.811386,90.812241 242.947052,86.281097 253.452484,82.887283 
	C263.389160,79.677223 273.699249,77.834221 283.907227,82.477386 
	C289.106384,84.842255 292.963745,88.355370 293.637085,94.623764 
	C291.523102,93.975777 289.757507,92.990791 287.788940,91.727539 
	C285.057312,90.301262 282.528656,89.153236 279.769806,87.728104 
	C276.695374,86.638069 273.851135,85.825142 270.593414,84.998810 
	C265.998047,85.209267 261.460938,84.460426 257.699005,85.834244 
	C244.986725,90.476654 232.565369,95.912148 219.981064,100.914299 
	C218.791138,101.387283 217.238068,100.946739 215.853607,100.930328 
	C216.631058,98.900597 217.408508,96.870865 218.495331,94.635201 
z"/>
<path fill="#E6559B" opacity="1.000000" stroke="none" 
	d="
M215.642975,101.236343 
	C217.238068,100.946739 218.791138,101.387283 219.981064,100.914299 
	C232.565369,95.912148 244.986725,90.476654 257.699005,85.834244 
	C261.460938,84.460426 265.998047,85.209267 270.532288,85.353302 
	C266.156036,87.797478 261.448761,89.924171 256.694275,91.939339 
	C247.275238,95.931557 237.785629,99.762329 228.441956,103.922028 
	C226.978699,104.573441 226.129486,106.604073 224.582489,107.997566 
	C220.658539,108.626488 217.148468,109.254807 213.638397,109.883118 
	C214.236374,107.102867 214.834366,104.322617 215.642975,101.236343 
z"/>
<path fill="#CD1759" opacity="1.000000" stroke="none" 
	d="
M296.430664,183.032776 
	C295.358978,175.375504 294.679871,167.708191 294.001465,159.582275 
	C300.151398,157.490570 304.933136,154.217697 307.580139,147.829269 
	C307.246460,158.123367 306.624817,168.628128 306.005554,179.547089 
	C302.946350,180.981781 299.884827,182.002258 296.430664,183.032776 
z"/>
<path fill="#EF0366" opacity="1.000000" stroke="none" 
	d="
M322.036560,132.107086 
	C317.822784,135.080185 313.609009,138.053284 309.021912,141.091095 
	C307.509369,138.449982 306.176453,135.803223 305.324921,133.009720 
	C304.977020,131.868469 305.255798,130.105881 305.958466,129.143707 
	C310.932526,122.332298 316.090790,115.655388 321.836975,108.938217 
	C322.990021,109.057930 323.496429,109.175003 324.001801,109.738190 
	C323.346039,117.491898 322.691315,124.799484 322.036560,132.107086 
z"/>
<path fill="#E01167" opacity="1.000000" stroke="none" 
	d="
M305.249481,119.102333 
	C302.427826,126.167931 300.736359,126.656174 293.491241,126.281769 
	C289.262878,126.063271 284.929749,127.872986 279.556458,128.997803 
	C277.497742,127.452324 274.312958,125.061508 271.340546,122.350563 
	C277.702759,118.688446 283.852600,115.346451 290.348633,112.058220 
	C295.546387,114.442101 300.397949,116.772217 305.249481,119.102333 
z"/>
<path fill="#D71465" opacity="1.000000" stroke="none" 
	d="
M269.050903,128.586456 
	C265.084442,131.110199 260.963287,133.347092 256.822693,135.547318 
	C253.391907,137.370377 249.987274,139.255402 246.470505,140.897690 
	C245.051926,141.560150 243.365692,141.649506 241.373245,141.673828 
	C240.296616,140.232193 239.647995,139.116409 238.999542,137.583984 
	C239.000000,135.778854 239.000305,134.390335 239.348816,132.966660 
	C243.161163,130.271851 246.625305,127.612228 250.089432,124.952599 
	C251.866028,126.060684 253.642639,127.168762 255.608047,128.394592 
	C257.253265,126.405846 258.797699,124.538925 260.690338,122.251083 
	C263.476318,124.301331 266.182098,126.292542 269.050903,128.586456 
z"/>
<path fill="#DA0358" opacity="1.000000" stroke="none" 
	d="
M276.146729,148.333527 
	C274.365448,148.820007 272.568817,148.912445 270.388672,149.004974 
	C265.592773,147.692596 261.129242,146.523880 256.797607,144.984177 
	C255.413773,144.492325 253.658447,143.162140 253.413849,141.945877 
	C253.218842,140.976212 254.815353,139.031052 256.042053,138.498016 
	C261.132996,136.285797 266.385315,134.444946 271.819702,132.168823 
	C273.732605,132.612747 275.404205,133.355637 276.131317,133.678772 
	C276.131317,139.102951 276.131317,143.521210 276.146729,148.333527 
z"/>
<path fill="#E44C94" opacity="1.000000" stroke="none" 
	d="
M224.996338,107.996964 
	C226.129486,106.604073 226.978699,104.573441 228.441956,103.922028 
	C237.785629,99.762329 247.275238,95.931557 256.694275,91.939339 
	C261.448761,89.924171 266.156036,87.797478 270.945770,85.366714 
	C273.851135,85.825142 276.695374,86.638069 279.701080,88.090118 
	C279.054443,89.173332 278.284393,89.715370 277.432312,90.046219 
	C269.614288,93.081825 261.782013,96.080833 253.953873,99.090492 
	C253.426224,98.803062 252.898575,98.515633 252.120621,97.704422 
	C251.274612,97.533714 250.678925,97.886795 250.083221,98.239876 
	C249.583694,99.072166 249.084152,99.904457 247.900970,100.873779 
	C243.913803,101.787315 240.543747,102.356796 237.323380,103.391907 
	C233.151932,104.732712 229.099823,106.444748 224.996338,107.996964 
z"/>
<path fill="#F190C1" opacity="1.000000" stroke="none" 
	d="
M307.055908,84.413986 
	C308.014099,77.189468 304.821655,71.795364 301.084381,66.615074 
	C299.846130,64.898727 298.412964,63.323017 297.427307,61.341156 
	C299.530762,61.320423 301.275757,61.641544 303.316711,61.993118 
	C304.081665,62.343822 304.550690,62.664078 304.770355,63.179779 
	C306.207214,66.625854 307.736969,69.974144 309.669922,73.070724 
	C310.292389,74.067871 311.976807,74.402092 313.175415,75.039581 
	C313.777710,81.392235 314.379974,87.744881 314.875153,94.825439 
	C313.511261,99.039032 312.254456,102.524704 310.688416,105.986160 
	C309.537994,105.412659 308.696777,104.863365 307.855530,104.314072 
	C307.606445,97.819244 307.357330,91.324402 307.055908,84.413986 
z"/>
<path fill="#E54891" opacity="1.000000" stroke="none" 
	d="
M224.582474,107.997559 
	C229.099823,106.444748 233.151932,104.732712 237.323380,103.391907 
	C240.543747,102.356796 243.913803,101.787315 247.647156,101.019753 
	C245.958786,103.976212 243.840576,106.923729 241.212662,109.751984 
	C239.318604,109.670273 237.786636,109.335297 236.577209,109.814445 
	C232.779053,111.319206 229.228287,113.554977 225.344284,114.707550 
	C221.155960,115.950447 217.700439,120.258736 212.616714,118.041069 
	C212.822815,115.531570 213.028931,113.022072 213.436707,110.197845 
	C217.148468,109.254807 220.658539,108.626488 224.582474,107.997559 
z"/>
<path fill="#F7026A" opacity="1.000000" stroke="none" 
	d="
M322.367279,132.023636 
	C322.691315,124.799484 323.346039,117.491898 324.435181,109.662338 
	C327.578766,108.721931 330.287872,108.303505 332.997009,107.885071 
	C335.343323,107.818428 337.689636,107.751778 340.474182,107.662849 
	C339.221191,108.344719 337.529907,109.048874 334.985779,110.108116 
	C335.122162,113.162834 335.285156,116.813011 335.752258,120.755844 
	C331.603607,124.679062 327.150787,128.309631 322.367279,132.023636 
z"/>
<path fill="#E71470" opacity="1.000000" stroke="none" 
	d="
M307.545502,104.252655 
	C308.696777,104.863365 309.537994,105.412659 310.941772,106.244827 
	C312.451935,106.683159 313.399475,106.838615 314.347046,106.994080 
	C311.532104,110.983536 308.717163,114.972984 305.575836,119.032379 
	C300.397949,116.772217 295.546387,114.442101 290.454498,111.798302 
	C290.476105,110.989853 290.738068,110.495087 291.369385,109.960472 
	C296.485840,107.961739 301.232971,106.002861 305.980103,104.043976 
	C306.398560,104.093063 306.817017,104.142151 307.545502,104.252655 
z"/>
<path fill="#E43988" opacity="1.000000" stroke="none" 
	d="
M212.462402,118.458618 
	C217.700439,120.258736 221.155960,115.950447 225.344284,114.707550 
	C229.228287,113.554977 232.779053,111.319206 236.577209,109.814445 
	C237.786636,109.335297 239.318604,109.670273 240.927490,109.940033 
	C240.132858,111.921616 239.113678,113.595879 237.740143,115.658798 
	C229.279617,120.026009 221.173477,124.004555 213.067322,127.983109 
	C212.814240,124.947464 212.561172,121.911812 212.462402,118.458618 
z"/>
<path fill="#DC1D6F" opacity="1.000000" stroke="none" 
	d="
M291.000000,110.000313 
	C290.738068,110.495087 290.476105,110.989853 290.108276,111.744537 
	C283.852600,115.346451 277.702759,118.688446 271.167542,122.055885 
	C268.649719,120.637199 266.517242,119.193077 264.247162,117.655754 
	C265.863647,115.132263 267.246185,112.973946 269.062408,110.441154 
	C274.330719,109.376457 279.165344,108.686241 284.221954,108.287407 
	C286.629272,109.052635 288.814636,109.526466 291.000000,110.000313 
z"/>
<path fill="#F693C3" opacity="1.000000" stroke="none" 
	d="
M274.609558,53.098198 
	C274.089111,54.885437 273.554108,57.672302 272.173248,58.186207 
	C260.096466,62.680637 247.868515,66.768921 235.291351,70.965240 
	C244.416763,61.677685 255.834229,56.211208 268.880707,54.006779 
	C270.658203,53.706440 272.428925,53.365868 274.609558,53.098198 
z"/>
<path fill="#E23584" opacity="1.000000" stroke="none" 
	d="
M287.991943,92.005814 
	C289.757507,92.990791 291.523102,93.975777 293.627441,95.012634 
	C294.264709,95.523788 294.563263,95.983070 294.596924,96.748520 
	C286.436829,99.448540 278.496155,101.707558 270.680389,104.337669 
	C268.883148,104.942451 267.514709,106.821419 265.948944,108.114014 
	C264.191681,106.830803 262.434448,105.547585 260.766998,103.641449 
	C262.645630,101.949509 264.324371,100.590065 266.242828,99.863152 
	C273.450165,97.132263 280.735718,94.607697 287.991943,92.005814 
z"/>
<path fill="#E2408C" opacity="1.000000" stroke="none" 
	d="
M287.788940,91.727547 
	C280.735718,94.607697 273.450165,97.132263 266.242828,99.863152 
	C264.324371,100.590065 262.645630,101.949509 260.588379,103.373230 
	C258.319855,102.370964 256.319763,101.014023 254.136780,99.373787 
	C261.782013,96.080833 269.614288,93.081825 277.432312,90.046219 
	C278.284393,89.715370 279.054443,89.173332 279.931274,88.367233 
	C282.528656,89.153236 285.057312,90.301262 287.788940,91.727547 
z"/>
<path fill="#E12C7E" opacity="1.000000" stroke="none" 
	d="
M266.103394,108.352539 
	C267.514709,106.821419 268.883148,104.942451 270.680389,104.337669 
	C278.496155,101.707558 286.436829,99.448540 294.722534,96.993935 
	C295.990509,97.427605 296.868042,97.922020 297.583588,98.848015 
	C292.947754,102.185066 288.473877,105.090546 284.000000,107.996017 
	C279.165344,108.686241 274.330719,109.376457 269.032593,110.107651 
	C267.798706,109.629433 267.028290,109.110252 266.103394,108.352539 
z"/>
<path fill="#E12C7E" opacity="1.000000" stroke="none" 
	d="
M213.060822,128.388184 
	C221.173477,124.004555 229.279617,120.026009 237.759109,115.997543 
	C239.598236,116.963539 241.064026,117.979462 242.325134,119.377747 
	C239.413696,121.841698 236.706909,123.923286 233.617279,126.047195 
	C226.587677,128.062866 219.940948,130.036194 213.294205,132.009537 
	C213.214233,130.937439 213.134277,129.865341 213.060822,128.388184 
z"/>
<path fill="#E32177" opacity="1.000000" stroke="none" 
	d="
M213.276489,132.377731 
	C219.940948,130.036194 226.587677,128.062866 233.610626,126.441704 
	C233.657227,128.862595 233.327621,130.931290 232.680573,133.139526 
	C230.513351,134.362122 228.745407,135.631424 226.796173,136.488251 
	C223.101898,138.112183 219.303650,139.499588 215.548599,140.985245 
	C214.785324,138.238800 214.022034,135.492371 213.276489,132.377731 
z"/>
<path fill="#DF0D66" opacity="1.000000" stroke="none" 
	d="
M238.999390,138.000610 
	C239.647995,139.116409 240.296616,140.232193 240.973236,141.674011 
	C238.766464,144.129929 236.531693,146.259857 234.147858,148.692612 
	C229.567123,149.970047 225.135468,150.944641 220.315460,151.967346 
	C219.203461,150.616852 218.479813,149.218262 218.048523,147.340607 
	C225.227066,143.907928 232.113220,140.954269 238.999390,138.000610 
z"/>
<path fill="#F7026A" opacity="1.000000" stroke="none" 
	d="
M239.932648,176.394180 
	C242.402084,176.349228 245.220001,176.103851 247.645187,176.964798 
	C252.303528,178.618454 256.739227,180.899338 262.022461,182.965485 
	C265.519531,183.669128 268.261414,184.327332 271.403625,184.988922 
	C272.871765,185.005310 273.939606,185.018326 275.007446,185.031326 
	C275.003113,186.334732 274.998779,187.638138 274.994690,189.332123 
	C261.961975,189.135666 250.562653,184.173706 239.932648,176.394180 
z"/>
<path fill="#DC1D6F" opacity="1.000000" stroke="none" 
	d="
M232.998016,133.000000 
	C233.327621,130.931290 233.657227,128.862595 233.993469,126.399384 
	C236.706909,123.923286 239.413696,121.841698 242.538574,119.640503 
	C245.229263,121.134064 247.501831,122.747231 249.931915,124.656494 
	C246.625305,127.612228 243.161163,130.271851 238.920197,132.966202 
	C236.428253,133.000610 234.713150,133.000305 232.998016,133.000000 
z"/>
<path fill="#E1156E" opacity="1.000000" stroke="none" 
	d="
M232.680588,133.139526 
	C234.713150,133.000305 236.428253,133.000610 238.571991,133.001373 
	C239.000305,134.390335 239.000000,135.778854 238.999542,137.583984 
	C232.113220,140.954269 225.227066,143.907928 217.989120,146.998474 
	C216.948532,145.337341 216.259720,143.539322 215.559753,141.363281 
	C219.303650,139.499588 223.101898,138.112183 226.796173,136.488251 
	C228.745407,135.631424 230.513351,134.362122 232.680588,133.139526 
z"/>
<path fill="#DB065E" opacity="1.000000" stroke="none" 
	d="
M316.622375,236.288422 
	C317.188019,237.077408 317.940765,238.258728 317.946136,239.443405 
	C318.019775,255.828400 317.996033,272.213837 317.967041,288.599121 
	C317.965912,289.231964 317.673157,289.864319 317.194702,290.778534 
	C316.693878,281.595581 316.434509,272.131653 316.359039,262.666229 
	C316.289978,254.005753 316.419800,245.343689 316.622375,236.288422 
z"/>
<path fill="#ED6DAC" opacity="1.000000" stroke="none" 
	d="
M305.019714,62.984325 
	C304.550690,62.664078 304.081665,62.343822 303.348389,61.637131 
	C303.392212,59.864208 303.700256,58.477722 304.008301,57.091240 
	C309.126862,59.399902 314.245422,61.708561 320.091370,64.345299 
	C318.554199,66.326004 317.605865,67.547989 316.196625,68.606491 
	C312.163727,66.623436 308.591705,64.803879 305.019714,62.984325 
z"/>
<path fill="#EF78B3" opacity="1.000000" stroke="none" 
	d="
M303.690491,56.884956 
	C303.700256,58.477722 303.392212,59.864208 303.052490,61.606682 
	C301.275757,61.641544 299.530762,61.320423 297.394470,60.994545 
	C295.264252,60.260002 293.539612,59.493553 291.782745,58.809948 
	C289.707031,58.002281 288.238495,56.970707 289.934265,54.163406 
	C294.510254,54.771622 298.941498,55.725151 303.690491,56.884956 
z"/>
<path fill="#F693C3" opacity="1.000000" stroke="none" 
	d="
M304.770355,63.179775 
	C308.591705,64.803879 312.163727,66.623436 315.881714,68.763718 
	C315.243652,70.928375 314.459564,72.772316 313.425446,74.827919 
	C311.976807,74.402092 310.292389,74.067871 309.669922,73.070724 
	C307.736969,69.974144 306.207214,66.625854 304.770355,63.179775 
z"/>
<path fill="#F693C3" opacity="1.000000" stroke="none" 
	d="
M314.666779,106.985901 
	C313.399475,106.838615 312.451935,106.683159 311.251007,106.269035 
	C312.254456,102.524704 313.511261,99.039032 314.929565,95.205383 
	C316.645294,96.779068 318.199554,98.700737 320.060852,101.002068 
	C318.341522,103.026794 316.664032,105.002258 314.666779,106.985901 
z"/>
<path fill="#F190C1" opacity="1.000000" stroke="none" 
	d="
M332.792419,107.601669 
	C330.287872,108.303505 327.578766,108.721931 324.436218,109.216217 
	C323.496429,109.175003 322.990021,109.057930 322.134277,108.767639 
	C322.583893,107.068542 323.382812,105.542671 324.158081,104.061989 
	C327.369110,105.302361 329.978485,106.310318 332.792419,107.601669 
z"/>
<path fill="#DA1B75" opacity="1.000000" stroke="none" 
	d="
M585.535400,236.894989 
	C586.331909,232.666611 589.098450,235.524124 590.863586,235.066360 
	C589.969666,237.848343 589.147827,240.405960 588.021057,243.912567 
	C587.160522,241.115158 586.530701,239.067749 585.535400,236.894989 
z"/>
<path fill="#E54891" opacity="1.000000" stroke="none" 
	d="
M250.394150,98.129997 
	C250.678925,97.886795 251.274612,97.533714 251.928680,97.466583 
	C251.559723,97.841721 251.132385,97.930916 250.394150,98.129997 
z"/>
<path fill="#EF0366" opacity="1.000000" stroke="none" 
	d="
M308.550720,143.713730 
	C308.687744,143.879044 308.622620,144.219803 308.360992,144.737656 
	C308.225861,144.572891 308.287231,144.231033 308.550720,143.713730 
z"/>
<path fill="#FEFAFC" opacity="1.000000" stroke="none" 
	d="
M406.842651,247.896729 
	C414.555817,253.202042 417.495911,260.482239 415.330017,268.233459 
	C412.692810,277.671387 404.407501,282.530396 394.910553,280.208649 
	C386.417542,278.132324 381.152161,268.942566 382.998108,259.417542 
	C384.759674,250.328079 392.926819,244.755203 402.269745,246.355972 
	C403.716156,246.603775 405.092255,247.261627 406.842651,247.896729 
z"/>
<path fill="#FDF3F8" opacity="1.000000" stroke="none" 
	d="
M340.844177,246.987854 
	C346.521545,248.501694 348.783844,251.199875 348.426636,255.597305 
	C348.077332,259.897461 344.941162,262.828979 339.995758,263.130310 
	C336.698853,263.331207 333.379791,263.168488 329.719910,263.168488 
	C329.719910,257.647095 329.719910,252.406097 329.719910,246.290710 
	C333.332062,246.508392 336.884735,246.722488 340.844177,246.987854 
z"/>
<path fill="#DF0D66" opacity="1.000000" stroke="none" 
	d="
M275.422638,185.024414 
	C273.939606,185.018326 272.871765,185.005310 271.362671,184.622787 
	C267.947632,176.502792 264.973816,168.752304 262.000000,161.001831 
	C263.802948,159.096039 265.605896,157.190247 267.705048,155.142517 
	C271.304230,158.726883 275.640503,161.971497 277.657074,166.297455 
	C280.375458,172.128983 281.307678,178.793137 283.011658,185.519501 
	C280.623810,185.631851 278.230835,185.324661 275.422638,185.024414 
z"/>
<path fill="#E32177" opacity="1.000000" stroke="none" 
	d="
M284.221954,108.287407 
	C288.473877,105.090546 292.947754,102.185066 297.731506,99.125259 
	C298.800262,99.319221 299.559143,99.667519 300.623657,100.086411 
	C302.084137,101.030312 303.238953,101.903618 304.701141,102.861160 
	C305.302979,103.111473 305.554352,103.327690 305.871338,103.819016 
	C301.232971,106.002861 296.485840,107.961739 291.369354,109.960464 
	C288.814636,109.526466 286.629272,109.052635 284.221954,108.287407 
z"/>
<path fill="#E40766" opacity="1.000000" stroke="none" 
	d="
M261.641785,160.965103 
	C264.973816,168.752304 267.947632,176.502792 270.962402,184.619385 
	C268.261414,184.327332 265.519531,183.669128 262.388794,183.001831 
	C261.144012,181.652603 260.377869,180.243881 259.416351,178.984314 
	C255.385971,173.704666 251.265961,168.493103 247.275650,163.183792 
	C246.856979,162.626740 247.077286,161.589432 247.001190,160.389008 
	C247.819107,159.982086 248.719421,160.178268 249.441269,159.904312 
	C253.576996,158.334549 257.535461,158.267517 261.641785,160.965103 
z"/>
</svg>