<?xml version="1.0" encoding="UTF-8"?>
<svg version="1.1" xmlns="http://www.w3.org/2000/svg" width="578" height="166">
<path d="M0 0 C1.81951172 0.02030273 1.81951172 0.02030273 3.67578125 0.04101562 C6.65931206 0.07625418 9.64192458 0.12552475 12.625 0.1875 C14.02633204 2.99016408 13.75224805 5.30635338 13.75439453 8.44140625 C13.75754669 9.75616943 13.76069885 11.07093262 13.76394653 12.42553711 C13.7621567 13.86702508 13.76010573 15.30851274 13.7578125 16.75 C13.75848584 18.22208675 13.75945611 19.6941734 13.76071167 21.16625977 C13.76218723 24.2531032 13.76003862 27.33991773 13.75537109 30.42675781 C13.74967388 34.38815106 13.75295364 38.34947655 13.75894356 42.31086731 C13.76255298 45.35112012 13.76140882 48.39135681 13.75881577 51.43161011 C13.75814755 52.89248665 13.75897124 54.35336465 13.76129532 55.8142395 C13.76382803 57.85402398 13.75928493 59.89381357 13.75439453 61.93359375 C13.75359894 63.09560303 13.75280334 64.2576123 13.75198364 65.45483398 C13.625 68.1875 13.625 68.1875 12.625 70.1875 C9.05043424 71.37902192 5.800177 71.3350948 2.08007812 71.33276367 C0.93085121 71.33780159 0.93085121 71.33780159 -0.24159241 71.34294128 C-2.7756614 71.35244505 -5.3096643 71.35439396 -7.84375 71.35546875 C-9.60347521 71.35868119 -11.36320016 71.36204525 -13.1229248 71.36555481 C-16.81161112 71.37154425 -20.50027401 71.37339484 -24.18896484 71.37280273 C-28.92039814 71.372701 -33.65168175 71.38636581 -38.38307953 71.40357494 C-42.01699517 71.41468011 -45.65087442 71.41672242 -49.2848053 71.41619301 C-51.02955136 71.41737488 -52.77429831 71.42180823 -54.51902771 71.42952538 C-56.95615209 71.43929753 -59.39294873 71.43645857 -61.83007812 71.43041992 C-62.9148922 71.43884918 -62.9148922 71.43884918 -64.0216217 71.44744873 C-67.70136762 71.4242215 -69.22539918 71.28723388 -72.375 69.1875 C-72.74731445 67.33984375 -72.74731445 67.33984375 -72.73828125 65.125 C-72.73763672 64.32835938 -72.73699219 63.53171875 -72.73632812 62.7109375 C-72.72021484 61.87820312 -72.70410156 61.04546875 -72.6875 60.1875 C-72.69072266 59.35476562 -72.69394531 58.52203125 -72.69726562 57.6640625 C-72.64200255 51.45450255 -72.64200255 51.45450255 -70.375 49.1875 C-67.85644531 48.91625977 -67.85644531 48.91625977 -64.703125 48.87890625 C-63.56359375 48.85376953 -62.4240625 48.82863281 -61.25 48.80273438 C-58.84900902 48.76780617 -56.44796228 48.73650776 -54.046875 48.70898438 C-45.63153833 48.79211122 -45.63153833 48.79211122 -38.375 45.1875 C-33.07239248 37.21270449 -30.64879186 27.50332041 -27.76953125 18.46875 C-25.2949594 11.00162091 -23.28813235 6.13160746 -16.8984375 1.32421875 C-11.32248245 -0.47467584 -5.81462023 -0.12284409 0 0 Z " fill="#778EB1" transform="translate(74.375,47.8125)"/>
<path d="M0 0 C1.55859375 1.0390625 1.55859375 1.0390625 3.93359375 3.1640625 C4.92359375 3.8240625 5.91359375 4.4840625 6.93359375 5.1640625 C8.32578125 3.9575 8.32578125 3.9575 9.74609375 2.7265625 C14.8589839 -1.70460896 20.69197701 -1.31919103 27.18359375 -1.1796875 C32.22383059 -0.71766579 35.34764334 0.6243228 38.93359375 4.1640625 C42.58126373 8.74703247 44.06590217 12.41306781 44.04711914 18.19824219 C44.04700584 19.36900299 44.04700584 19.36900299 44.04689026 20.56341553 C44.04172897 21.39584778 44.03656769 22.22828003 44.03125 23.0859375 C44.02983505 23.94592346 44.0284201 24.80590942 44.02696228 25.69195557 C44.02137472 28.43269359 44.0088245 31.17334926 43.99609375 33.9140625 C43.99107714 35.7747384 43.98651452 37.63541559 43.98242188 39.49609375 C43.97140936 44.05211496 43.95415326 48.60807478 43.93359375 53.1640625 C40.63359375 53.1640625 37.33359375 53.1640625 33.93359375 53.1640625 C33.92424805 52.07464355 33.91490234 50.98522461 33.90527344 49.86279297 C33.86526394 45.80330196 33.79947546 41.74456009 33.72607422 37.68554688 C33.69792791 35.93206438 33.6766819 34.17845651 33.66259766 32.42480469 C33.64107948 29.89713651 33.59438673 27.37096566 33.54296875 24.84375 C33.54174011 24.06538788 33.54051147 23.28702576 33.53924561 22.4850769 C33.40105778 17.29696385 32.3495414 14.28893518 28.93359375 10.1640625 C25.73981293 8.56717209 22.4083806 8.79057293 18.93359375 9.1640625 C16.17147115 10.36498537 14.55455452 11.27822786 12.82666016 13.74316406 C11.50763909 17.31872801 11.57468374 20.88277738 11.51953125 24.6484375 C11.5001651 25.46403137 11.48079895 26.27962524 11.46084595 27.11993408 C11.401198 29.71787142 11.35472433 32.31585343 11.30859375 34.9140625 C11.27040033 36.67840444 11.2313478 38.44272801 11.19140625 40.20703125 C11.0955087 44.52589196 11.01142328 48.84483994 10.93359375 53.1640625 C7.63359375 53.1640625 4.33359375 53.1640625 0.93359375 53.1640625 C0.91901123 52.14046631 0.90442871 51.11687012 0.8894043 50.06225586 C0.8311287 46.23948439 0.75389954 42.41728405 0.67114258 38.5949707 C0.63803015 36.9453259 0.60995619 35.29557154 0.5871582 33.64575195 C0.55335842 31.26466482 0.50103371 28.88456944 0.4453125 26.50390625 C0.43892258 25.77445297 0.43253265 25.04499969 0.4259491 24.29344177 C0.28350641 19.25468125 -0.75482664 15.66092739 -3.06640625 11.1640625 C-5.52888384 9.14131305 -7.24145816 9.14461229 -10.44140625 8.7890625 C-14.84230559 9.24432795 -16.7943602 10.19639282 -20.06640625 13.1640625 C-21.86175645 18.12910003 -22.39227472 22.83101014 -22.48046875 28.06640625 C-22.4998349 28.7889711 -22.51920105 29.51153595 -22.53915405 30.2559967 C-22.5983823 32.53773625 -22.6451048 34.81952783 -22.69140625 37.1015625 C-22.72963848 38.6595258 -22.76869317 40.21746916 -22.80859375 41.77539062 C-22.904036 45.57145031 -22.98827293 49.36760872 -23.06640625 53.1640625 C-26.03640625 53.1640625 -29.00640625 53.1640625 -32.06640625 53.1640625 C-32.06640625 35.6740625 -32.06640625 18.1840625 -32.06640625 0.1640625 C-29.09640625 0.1640625 -26.12640625 0.1640625 -23.06640625 0.1640625 C-22.73640625 1.1540625 -22.40640625 2.1440625 -22.06640625 3.1640625 C-21.17953125 2.5040625 -20.29265625 1.8440625 -19.37890625 1.1640625 C-13.79805012 -2.02499814 -5.96777292 -2.41418413 0 0 Z " fill="#444444" transform="translate(242.06640625,70.8359375)"/>
<path d="M0 0 C0.79083984 0.00974854 1.58167969 0.01949707 2.39648438 0.02954102 C12.780201 0.34416678 19.42988449 3.73569321 26.92578125 10.9609375 C33.95975886 18.8819709 36.52350851 28.89572641 35.96875 39.39453125 C34.68084545 48.24887506 30.93923867 55.57408533 24.125 61.4375 C23.56167969 61.94152344 22.99835937 62.44554687 22.41796875 62.96484375 C15.28533776 68.90628179 6.87803648 71.06935083 -2.33984375 70.71875 C-12.64819113 69.57514289 -21.09118671 65.77127757 -28.1875 58.125 C-35.05440841 49.54136448 -36.57691103 40.13833224 -35.875 29.4375 C-34.5009592 20.86550237 -30.33074447 13.23728209 -23.69921875 7.58203125 C-16.23973572 2.36425815 -9.09558638 -0.12567809 0 0 Z M-18.875 16.4375 C-24.68119916 22.72401734 -26.32301286 29.24894433 -26.1171875 37.69921875 C-25.42142004 45.56587989 -21.71447804 51.21209405 -15.875 56.4375 C-9.71042138 60.42837459 -3.25153974 62.34538181 4.125 61.4375 C10.31753508 59.70321316 14.95646362 57.46426446 19.125 52.4375 C19.82625 51.715625 20.5275 50.99375 21.25 50.25 C25.39920474 44.0261929 26.84828635 37.27641923 25.7578125 29.88671875 C23.81659053 22.37347075 19.5392312 16.71824228 13.125 12.4375 C1.40559688 6.36852338 -8.98099011 8.04200035 -18.875 16.4375 Z " fill="#939393" transform="translate(541.875,51.5625)"/>
<path d="M0 0 C1.10347778 0.00213753 1.10347778 0.00213753 2.22924805 0.00431824 C3.06351318 0.00124161 3.89777832 -0.00183502 4.75732422 -0.00500488 C5.65942627 0.00218063 6.56152832 0.00936615 7.4909668 0.01676941 C8.87795776 0.01745674 8.87795776 0.01745674 10.29296875 0.01815796 C12.24993166 0.02118191 14.20689212 0.02907247 16.16381836 0.04142761 C19.16618336 0.05966355 22.16823975 0.06193746 25.1706543 0.06169128 C27.06909447 0.06660719 28.96753255 0.07243582 30.8659668 0.07926941 C31.76806885 0.08038223 32.6701709 0.08149506 33.59960938 0.0826416 C34.43387451 0.08902145 35.26813965 0.09540131 36.12768555 0.10197449 C36.8633374 0.10578629 37.59898926 0.10959808 38.35693359 0.11352539 C40.1784668 0.24723816 40.1784668 0.24723816 42.1784668 1.24723816 C44.10230007 7.33360876 41.91060388 13.17196292 40.4909668 19.18473816 C40.23379883 20.35198425 39.97663086 21.51923035 39.71166992 22.72184753 C36.70394756 35.69126461 36.70394756 35.69126461 30.6784668 40.05973816 C24.3943079 43.04471363 17.88157174 42.43106318 11.0534668 42.43473816 C9.84819336 42.44698425 8.64291992 42.45923035 7.40112305 42.47184753 C6.25256836 42.47378113 5.10401367 42.47571472 3.9206543 42.47770691 C2.8673291 42.4818158 1.81400391 42.48592468 0.72875977 42.49015808 C-1.8215332 42.24723816 -1.8215332 42.24723816 -3.8215332 40.24723816 C-4.02143548 37.40183674 -4.10130296 34.65586032 -4.0871582 31.80973816 C-4.08907166 30.97386169 -4.09098511 30.13798523 -4.09295654 29.27677917 C-4.09431856 27.50814005 -4.09062097 25.73949093 -4.08227539 23.97087097 C-4.07157596 21.25807822 -4.08216996 18.54594772 -4.0949707 15.83317566 C-4.09364911 14.11702836 -4.09108672 12.40088147 -4.0871582 10.68473816 C-4.09120667 9.87013123 -4.09525513 9.05552429 -4.09942627 8.2162323 C-4.03532401 0.54771776 -4.03532401 0.54771776 0 0 Z " fill="#778EB1" transform="translate(5.821533203125,35.75276184082031)"/>
<path d="M0 0 C30.46666667 0 30.46666667 0 37.05859375 5.81640625 C37.74115234 6.68072266 37.74115234 6.68072266 38.4375 7.5625 C38.91058594 8.14128906 39.38367188 8.72007813 39.87109375 9.31640625 C43.29062722 14.41612572 42.5951643 21.15216468 42 27 C39.21530169 35.18493101 32.26567937 38.37330245 25 42 C30.54891822 48.54195184 36.50343329 54.55531585 42.65429688 60.52734375 C43.34458984 61.20667969 44.03488281 61.88601562 44.74609375 62.5859375 C45.37185303 63.1948584 45.9976123 63.8037793 46.64233398 64.43115234 C48 66 48 66 48 68 C43.55560351 69.164371 39.34789767 69.65973861 35 68 C28.75274788 63.38629969 23.94218461 56.91683855 19 51 C16.03 47.7 13.06 44.4 10 41 C9.67 49.91 9.34 58.82 9 68 C6.03 68 3.06 68 0 68 C0 45.56 0 23.12 0 0 Z M9 8 C9 16.25 9 24.5 9 33 C19.83615393 33.41038334 19.83615393 33.41038334 29 30 C31.92696096 26.78034295 32.88544956 24.8018531 33.5 20.5 C32.89519026 16.2663318 31.78945399 14.22989409 29 11 C22.40870967 6.92834536 16.56324488 7.7859459 9 8 Z " fill="#939393" transform="translate(454,53)"/>
<path d="M0 0 C3.61619953 2.97987257 5.33263466 6.03696647 6.8203125 10.5 C6.90575541 11.83528807 6.93805875 13.17443888 6.93383789 14.51245117 C6.93376236 15.31305466 6.93368683 16.11365814 6.93360901 16.93852234 C6.92844772 17.79798965 6.92328644 18.65745697 6.91796875 19.54296875 C6.9165538 20.4265657 6.91513885 21.31016266 6.91368103 22.22053528 C6.90808319 25.04289128 6.89553111 27.86516797 6.8828125 30.6875 C6.87779722 32.60091031 6.87323436 34.51432187 6.86914062 36.42773438 C6.85811447 41.11852014 6.84085133 45.80924663 6.8203125 50.5 C3.8503125 50.5 0.8803125 50.5 -2.1796875 50.5 C-2.6746875 48.52 -2.6746875 48.52 -3.1796875 46.5 C-4.1078125 47.139375 -5.0359375 47.77875 -5.9921875 48.4375 C-12.07871822 52.37584341 -18.11750157 52.08988096 -25.1796875 51.5 C-31.62254663 49.77188618 -36.71964267 46.48127396 -40.28515625 40.7109375 C-42.10993415 36.20078775 -41.69704861 31.26483194 -41.1796875 26.5 C-38.66298445 21.28017144 -35.03198215 18.00537773 -29.9296875 15.3125 C-21.41607238 12.79711372 -13.03258041 12.97649569 -5.0546875 17.125 C-4.1265625 17.805625 -4.1265625 17.805625 -3.1796875 18.5 C-3.60237853 15.08061883 -4.1427391 11.79094677 -5.1796875 8.5 C-7.21018486 6.70212914 -7.21018486 6.70212914 -10.1796875 6.5 C-10.78554687 6.36078125 -11.39140625 6.2215625 -12.015625 6.078125 C-19.30324471 4.72354885 -26.11044319 6.72011914 -33.1796875 8.5 C-37.1796875 1.75 -37.1796875 1.75 -37.1796875 -0.5 C-26.30475472 -5.19662906 -10.37400251 -6.36175764 0 0 Z M-28.1796875 25.5 C-31.01317467 28.50016288 -31.1796875 29.93595155 -31.1796875 34.0625 C-29.9950539 38.13467799 -28.70660249 39.26341976 -25.1796875 41.5 C-22.50312949 42.83827901 -20.35534698 42.70578556 -17.3671875 42.75 C-16.32949219 42.77578125 -15.29179687 42.8015625 -14.22265625 42.828125 C-10.78798271 42.45776226 -8.98203433 41.46655918 -6.1796875 39.5 C-5.5815625 39.0875 -4.9834375 38.675 -4.3671875 38.25 C-2.35020108 35.27759896 -2.70057571 32.97356049 -3.1796875 29.5 C-6.50138677 24.97041008 -9.74774627 23.58638825 -15.1796875 22.5 C-20.01139023 22.5 -23.81359688 23.44488362 -28.1796875 25.5 Z " fill="#454545" transform="translate(185.1796875,73.5)"/>
<path d="M0 0 C28.36465324 0 28.36465324 0 35.0234375 5.74609375 C35.69246094 6.58333984 35.69246094 6.58333984 36.375 7.4375 C36.83648437 7.99308594 37.29796875 8.54867187 37.7734375 9.12109375 C41.83934886 15.34944841 41.68097618 21.7886369 41 29 C39.48204963 34.93729956 36.05743201 38.24987721 31.1953125 41.7734375 C23.95250768 45.82012916 17.09933629 45.15281767 9 45 C9 52.59 9 60.18 9 68 C6.03 68 3.06 68 0 68 C0 45.56 0 23.12 0 0 Z M9 8 C9 17.24 9 26.48 9 36 C21.53641141 36.94093608 21.53641141 36.94093608 26.6875 34.375 C30.49362465 30.46600711 31.83364695 27.49717744 32.4375 22.0625 C32.23496019 17.65725905 30.93263281 14.3090603 28 11 C21.50153963 6.80307767 17.47755573 8 9 8 Z " fill="#929292" transform="translate(402,53)"/>
<path d="M0 0 C0 3.3 0 6.6 0 10 C-2.31 10.33 -4.62 10.66 -7 11 C-7.66 15.29 -8.32 19.58 -9 24 C-6.03 24 -3.06 24 0 24 C0 26.97 0 29.94 0 33 C-2.97 33 -5.94 33 -9 33 C-9 47.52 -9 62.04 -9 77 C-12.3 77 -15.6 77 -19 77 C-19 62.48 -19 47.96 -19 33 C-21.31 33 -23.62 33 -26 33 C-26 30.03 -26 27.06 -26 24 C-23.69 24 -21.38 24 -19 24 C-19.061875 22.700625 -19.12375 21.40125 -19.1875 20.0625 C-19.16079337 14.40959702 -18.40054756 8.75472671 -14.5703125 4.359375 C-9.80140375 0.23106593 -6.12676378 -0.11559932 0 0 Z " fill="#444444" transform="translate(326,46)"/>
<path d="M0 0 C3.3 0 6.6 0 10 0 C10.11618335 8.59746241 10.20486052 17.19459329 10.25906086 25.79264832 C10.28508307 29.7857143 10.32034376 33.77824063 10.37719727 37.77099609 C10.43178389 41.62898004 10.46147594 45.48644708 10.47438622 49.3447876 C10.48357871 50.81195201 10.50152953 52.27909019 10.52865028 53.74603271 C10.79750002 68.89953407 10.79750002 68.89953407 5 75 C-0.16047211 78.93178827 -5.79829006 78.29794692 -12 78 C-12 75.03 -12 72.06 -12 69 C-6.555 68.01 -6.555 68.01 -1 67 C-0.67 44.89 -0.34 22.78 0 0 Z " fill="#444444" transform="translate(122,70)"/>
<path d="M0 0 C0.66 0 1.32 0 2 0 C2 53.79 2 107.58 2 163 C1.34 163 0.68 163 0 163 C0 109.21 0 55.42 0 0 Z " fill="#BFBFBF" transform="translate(364,2)"/>
<path d="M0 0 C2.38460953 2.07691798 2.8959746 3.40556916 3.4375 6.5 C2.84278924 9.89834723 1.79734842 11.01241034 -1 13 C-4 13.5625 -4 13.5625 -7 13 C-9.4375 10.875 -9.4375 10.875 -11 8 C-10.9375 4.8125 -10.9375 4.8125 -10 2 C-6.29584707 -0.46943529 -4.37855495 -0.46913089 0 0 Z " fill="#454545" transform="translate(131,48)"/>
</svg>
