<svg xmlns="http://www.w3.org/2000/svg" width="128" height="128">
    <path d="M46.305 97.614l14.243-8.223v16.446zm-.889 20.841l15.132-8.737v-1.771l-15.132-8.736zM24.21 39.983V20.806L7.6 30.4zm19.378-11.249V9.618l-16.555 9.558zm2.876-20.776l14.084 8.131V0h-.3zM6.586 76.793V96l16.633-9.6zm38.83 19.225l15.132-8.737v-1.77l-15.132-8.737zm15.132-57.492V22.08L46.305 30.3zM6.586 54.356v19.206l16.633-9.6zm38.83-3.213l15.132-8.736v-1.771L45.416 31.9zm0-22.437l15.132-8.736V18.2L45.416 9.463zm-38.83 3.212v19.206l16.633-9.6zm17.624 75.233V87.934L7.567 97.542zm1.827-41.565v19.183l16.613-9.592zm17.551 8.023v-19.3l-16.714 9.65zm-17.551-30.46v19.182L42.65 52.74zm0-22.438v19.183L42.65 30.3zm17.551 30.461v-19.3l-16.714 9.65zM24.21 84.857V65.5L7.443 75.177zm0-22.437V43.06L7.443 52.74zm1.827 25.6v19.183l16.614-9.592zm17.551 8.023v-19.3L26.874 86.4zM60.322 128h.226v-16.172l-14.119 8.151zm-16.734-9.661V99.183L27 108.761zm23.864-28.948v16.446l14.243-8.223zm0 20.327l15.132 8.737V99.211l-15.132 8.736zm36.338-88.912v19.177L120.4 30.4zM84.412 9.618v19.116l16.555-9.558zM67.753 0h-.3v16.089l14.083-8.131zm53.661 96V76.793l-16.633 9.6zm-53.962-8.719l15.132 8.737V76.774l-15.132 8.737zm0-42.764v16.446l14.243-8.223zm0 20.327l15.132 8.736V54.337l-15.132 8.736zm0-42.764v16.446L81.695 30.3zm0 44.874V83.4l14.243-8.224zm0-24.547l15.132 8.736V31.9l-15.132 8.736zm0-22.437l15.132 8.736V9.463L67.452 18.2zm37.329 21.551l16.633 9.6V31.918zm-.991 65.63l16.643-9.609-16.643-9.608zm-1.827-22.382V65.586L85.35 75.177zm-17.551-30.46v19.3l16.714-9.65zm17.551 8.022V43.149L85.35 52.74zm0-22.437V20.711L85.35 30.3zm-17.551-8.022v19.3l16.714-9.65zM103.79 65.5v19.36l16.767-9.68zm0-22.437V62.42l16.767-9.68zm-1.827 64.146V88.023l-16.614 9.591zM84.412 76.746v19.3l16.714-9.646zM67.452 128h.226l13.893-8.021-14.119-8.151zm16.96-9.661L101 108.761l-16.59-9.578z" fill="#3871b8"/>
</svg>
