<?xml version="1.0" encoding="UTF-8"?>
<!DOCTYPE svg PUBLIC "-//W3C//DTD SVG 1.1//EN" "http://www.w3.org/Graphics/SVG/1.1/DTD/svg11.dtd">
<svg xmlns="http://www.w3.org/2000/svg" version="1.1" width="2280px" height="1440px" style="shape-rendering:geometricPrecision; text-rendering:geometricPrecision; image-rendering:optimizeQuality; fill-rule:evenodd; clip-rule:evenodd" xmlns:xlink="http://www.w3.org/1999/xlink">
<g><path style="opacity:1" fill="#f2f4f7" d="M 9.5,-0.5 C 762.833,-0.5 1516.17,-0.5 2269.5,-0.5C 2273.83,1.83333 2277.17,5.16667 2279.5,9.5C 2279.5,482.833 2279.5,956.167 2279.5,1429.5C 2277.17,1433.83 2273.83,1437.17 2269.5,1439.5C 1516.17,1439.5 762.833,1439.5 9.5,1439.5C 5.16667,1437.17 1.83333,1433.83 -0.5,1429.5C -0.5,956.167 -0.5,482.833 -0.5,9.5C 1.83333,5.16667 5.16667,1.83333 9.5,-0.5 Z"/></g>
<g><path style="opacity:1" fill="#025ae1" d="M 1224.5,427.5 C 1302.3,424.643 1362.13,455.643 1404,520.5C 1437.59,582.628 1437.92,644.961 1405,707.5C 1390.21,733.629 1368.71,751.796 1340.5,762C 1313.6,770.099 1291.1,763.599 1273,742.5C 1271.09,740.252 1269.59,737.752 1268.5,735C 1268.76,733.739 1269.43,732.739 1270.5,732C 1285.01,722.246 1299.34,712.246 1313.5,702C 1351.78,666.8 1362.95,624.3 1347,574.5C 1322.25,521.03 1280.41,497.53 1221.5,504C 1207.58,506.641 1194.58,511.641 1182.5,519C 1139.83,549 1097.17,579 1054.5,609C 1030.21,621.618 1011.38,616.118 998,592.5C 991.899,574.052 996.399,558.885 1011.5,547C 1056.99,515.087 1102.66,483.42 1148.5,452C 1172.38,438.873 1197.71,430.706 1224.5,427.5 Z"/></g>
<g><path style="opacity:1" fill="#025ae1" d="M 942.5,428.5 C 970.358,425.101 991.691,435.101 1006.5,458.5C 992.047,469.233 977.381,479.733 962.5,490C 928.49,518.677 914.99,555.177 922,599.5C 934.707,649.874 966.54,680.041 1017.5,690C 1048.81,693.089 1077.15,685.423 1102.5,667C 1142.83,638.667 1183.17,610.333 1223.5,582C 1247.19,572.545 1265.03,579.045 1277,601.5C 1282.43,620.881 1276.93,636.381 1260.5,648C 1215.17,679.333 1169.83,710.667 1124.5,742C 1061.78,773.992 999.45,773.326 937.5,740C 878.126,702.613 847.459,648.613 845.5,578C 845.471,534.077 859.305,495.244 887,461.5C 902.426,445.208 920.926,434.208 942.5,428.5 Z"/></g>
<g><path style="opacity:1" fill="#051e2d" d="M 709.5,863.5 C 716.167,863.5 722.833,863.5 729.5,863.5C 729.5,902.833 729.5,942.167 729.5,981.5C 722.833,981.5 716.167,981.5 709.5,981.5C 709.5,942.167 709.5,902.833 709.5,863.5 Z"/></g>
<g><path style="opacity:1" fill="#08202f" d="M 1421.5,866.5 C 1447.07,863.123 1467.07,871.957 1481.5,893C 1477.67,895.75 1473.67,898.25 1469.5,900.5C 1455.92,882.516 1438.25,876.683 1416.5,883C 1398.83,890.179 1389.5,903.346 1388.5,922.5C 1388.59,946.211 1399.92,961.377 1422.5,968C 1442.38,971.468 1457.88,964.968 1469,948.5C 1473.08,951.126 1477.25,953.626 1481.5,956C 1468.14,976.472 1449.14,985.472 1424.5,983C 1401.64,979.48 1385.81,966.98 1377,945.5C 1368.64,917.401 1375.81,894.235 1398.5,876C 1405.83,871.655 1413.5,868.488 1421.5,866.5 Z"/></g>
<g><path style="opacity:1" fill="#08202f" d="M 1647.5,866.5 C 1669.13,862.985 1685.13,870.651 1695.5,889.5C 1694.99,891.088 1693.99,892.255 1692.5,893C 1689.67,894.247 1687,895.747 1684.5,897.5C 1675.16,881.334 1661.82,876.834 1644.5,884C 1636.42,891.083 1635.42,899.083 1641.5,908C 1645.01,910.254 1648.67,912.254 1652.5,914C 1663.48,917.214 1674.14,921.214 1684.5,926C 1700.43,936.478 1703.93,950.311 1695,967.5C 1689.75,975.067 1682.58,979.901 1673.5,982C 1653.47,986.877 1636.64,981.71 1623,966.5C 1620.79,963.196 1618.95,959.696 1617.5,956C 1621.42,953.123 1625.58,950.623 1630,948.5C 1635.39,961.775 1645.22,968.442 1659.5,968.5C 1668.36,969.374 1675.86,966.707 1682,960.5C 1686.18,952.418 1685.01,945.251 1678.5,939C 1663.87,933.024 1649.21,927.024 1634.5,921C 1622,910.493 1619.17,897.659 1626,882.5C 1631.36,874.588 1638.52,869.255 1647.5,866.5 Z"/></g>
<g><path style="opacity:1" fill="#07202f" d="M 610.5,868.5 C 631.878,865.53 648.545,872.863 660.5,890.5C 655.563,894.975 650.23,898.975 644.5,902.5C 636.962,892.568 626.962,888.401 614.5,890C 604.271,894.944 602.938,901.611 610.5,910C 623.982,914.939 637.315,920.272 650.5,926C 664.395,937.418 667.229,951.252 659,967.5C 653.431,975.392 645.931,980.559 636.5,983C 615.241,987.914 597.741,982.081 584,965.5C 582.466,962.647 580.966,959.814 579.5,957C 584.821,952.672 590.488,948.838 596.5,945.5C 604.924,960.699 617.591,965.866 634.5,961C 642.818,955.434 643.485,949.101 636.5,942C 624.896,937.515 613.229,933.182 601.5,929C 583.78,918.304 579.28,903.471 588,884.5C 593.731,876.59 601.231,871.257 610.5,868.5 Z"/></g>
<g><path style="opacity:1" fill="#061f2e" d="M 1588.5,981.5 C 1588.67,952.165 1588.5,922.831 1588,893.5C 1587.28,894.044 1586.78,894.711 1586.5,895.5C 1574.83,915.503 1562.67,935.169 1550,954.5C 1537.07,934.973 1524.9,914.973 1513.5,894.5C 1513.44,893.957 1513.11,893.624 1512.5,893.5C 1511.5,922.826 1511.17,952.159 1511.5,981.5C 1506.83,981.5 1502.17,981.5 1497.5,981.5C 1497.5,943.833 1497.5,906.167 1497.5,868.5C 1503.43,868.192 1509.26,868.525 1515,869.5C 1526.27,889.096 1537.94,908.429 1550,927.5C 1562.06,908.429 1573.73,889.096 1585,869.5C 1590.74,868.525 1596.57,868.192 1602.5,868.5C 1602.5,906.167 1602.5,943.833 1602.5,981.5C 1597.83,981.5 1593.17,981.5 1588.5,981.5 Z"/></g>
<g><path style="opacity:1" fill="#092130" d="M 680.5,868.5 C 687.533,868.267 692.699,871.267 696,877.5C 696.645,889.188 691.145,894.355 679.5,893C 668.541,884.285 668.875,876.118 680.5,868.5 Z"/></g>
<g><path style="opacity:1" fill="#0a2231" d="M 1146.5,868.5 C 1159.71,869.515 1164.21,876.182 1160,888.5C 1153.54,894.666 1146.88,894.999 1140,889.5C 1135.28,880.286 1137.45,873.286 1146.5,868.5 Z"/></g>
<g><path style="opacity:1" fill="#061f2e" d="M 1061.5,962.5 C 1065.3,963.483 1069.3,963.817 1073.5,963.5C 1073.5,969.5 1073.5,975.5 1073.5,981.5C 1066.16,981.666 1058.83,981.5 1051.5,981C 1042.68,978.512 1037.85,972.679 1037,963.5C 1036.5,949.837 1036.33,936.171 1036.5,922.5C 1031.83,922.5 1027.17,922.5 1022.5,922.5C 1022.5,916.167 1022.5,909.833 1022.5,903.5C 1027.17,903.5 1031.83,903.5 1036.5,903.5C 1036.5,898.167 1036.5,892.833 1036.5,887.5C 1042.82,882.696 1049.32,878.03 1056,873.5C 1056.5,883.494 1056.67,893.494 1056.5,903.5C 1062.17,903.5 1067.83,903.5 1073.5,903.5C 1073.5,909.833 1073.5,916.167 1073.5,922.5C 1067.83,922.5 1062.17,922.5 1056.5,922.5C 1056.33,934.838 1056.5,947.171 1057,959.5C 1058.13,961.141 1059.63,962.141 1061.5,962.5 Z"/></g>
<g><path style="opacity:1" fill="#5d6d78" d="M 1513.5,894.5 C 1512.83,923.5 1512.17,952.5 1511.5,981.5C 1511.17,952.159 1511.5,922.826 1512.5,893.5C 1513.11,893.624 1513.44,893.957 1513.5,894.5 Z"/></g>
<g><path style="opacity:1" fill="#9aa4ac" d="M 1588.5,981.5 C 1587.83,952.833 1587.17,924.167 1586.5,895.5C 1586.78,894.711 1587.28,894.044 1588,893.5C 1588.5,922.831 1588.67,952.165 1588.5,981.5 Z"/></g>
<g><path style="opacity:1" fill="#061f2e" d="M 847.5,901.5 C 882.114,899.447 898.447,915.78 896.5,950.5C 877.164,950.333 857.83,950.5 838.5,951C 844.275,963.717 853.942,968.05 867.5,964C 871.44,962.114 874.94,959.614 878,956.5C 882.833,960 887.667,963.5 892.5,967C 882.131,980.353 868.464,985.686 851.5,983C 834.23,979.731 823.397,969.564 819,952.5C 815.062,927.688 824.562,910.688 847.5,901.5 Z"/></g>
<g><path style="opacity:1" fill="#7e8b94" d="M 950.5,901.5 C 951.492,908.982 951.825,916.648 951.5,924.5C 948.833,924.5 946.167,924.5 943.5,924.5C 945.607,923.532 947.941,923.198 950.5,923.5C 950.5,916.167 950.5,908.833 950.5,901.5 Z"/></g>
<g><path style="opacity:1" fill="#07202f" d="M 978.5,901.5 C 990.632,899.533 1001.63,902.033 1011.5,909C 1013.66,910.998 1015.33,913.332 1016.5,916C 1012.28,920.052 1007.61,923.552 1002.5,926.5C 997.343,920.059 990.676,917.893 982.5,920C 978.965,922.838 978.632,926.005 981.5,929.5C 991.723,932.724 1001.72,936.557 1011.5,941C 1020.4,949.968 1021.9,960.135 1016,971.5C 1010.47,978.35 1003.3,982.183 994.5,983C 977.69,985.756 964.69,980.089 955.5,966C 960.404,962.094 965.57,958.594 971,955.5C 974.255,959.741 978.421,962.907 983.5,965C 989.031,966.358 993.865,965.191 998,961.5C 998.758,959.231 998.591,957.064 997.5,955C 988.577,951.47 979.577,948.137 970.5,945C 957.47,936.265 954.97,925.098 963,911.5C 967.5,907.008 972.667,903.675 978.5,901.5 Z"/></g>
<g><path style="opacity:1" fill="#061f2e" d="M 1195.5,973.5 C 1195.44,972.957 1195.11,972.624 1194.5,972.5C 1193.5,985.149 1193.17,997.816 1193.5,1010.5C 1187.17,1010.5 1180.83,1010.5 1174.5,1010.5C 1174.5,974.833 1174.5,939.167 1174.5,903.5C 1181.17,903.5 1187.83,903.5 1194.5,903.5C 1194.34,906.187 1194.5,908.854 1195,911.5C 1204.2,901.918 1215.37,898.752 1228.5,902C 1247.07,908.633 1256.73,921.8 1257.5,941.5C 1256.16,969.674 1241.5,983.508 1213.5,983C 1206.18,982.176 1200.18,979.009 1195.5,973.5 Z"/></g>
<g><path style="opacity:1" fill="#071f2e" d="M 1295.5,901.5 C 1320.85,898.361 1337.02,909.028 1344,933.5C 1344.69,939.204 1344.52,944.87 1343.5,950.5C 1324.5,950.5 1305.5,950.5 1286.5,950.5C 1288.32,958.483 1293.32,963.316 1301.5,965C 1310.93,966.535 1318.76,963.702 1325,956.5C 1330.32,959.571 1335.15,963.238 1339.5,967.5C 1328.68,980.886 1314.68,986.052 1297.5,983C 1274.16,975.836 1263.66,960.003 1266,935.5C 1268.95,918.063 1278.78,906.729 1295.5,901.5 Z"/></g>
<g><path style="opacity:1" fill="#99a4ac" d="M 760.5,903.5 C 753.087,902.872 746.087,903.539 739.5,905.5C 738.596,904.791 738.263,903.791 738.5,902.5C 746.019,902.175 753.352,902.508 760.5,903.5 Z"/></g>
<g><path style="opacity:1" fill="#051e2d" d="M 950.5,901.5 C 950.5,908.833 950.5,916.167 950.5,923.5C 947.941,923.198 945.607,923.532 943.5,924.5C 934.056,926.278 928.722,931.945 927.5,941.5C 926.505,954.323 926.171,967.323 926.5,980.5C 920.167,980.5 913.833,980.5 907.5,980.5C 907.5,954.833 907.5,929.167 907.5,903.5C 914.167,903.5 920.833,903.5 927.5,903.5C 927.335,907.182 927.501,910.848 928,914.5C 933.178,906.161 940.678,901.827 950.5,901.5 Z"/></g>
<g><path style="opacity:1" fill="#96a1a9" d="M 1036.5,887.5 C 1036.5,892.833 1036.5,898.167 1036.5,903.5C 1031.83,903.5 1027.17,903.5 1022.5,903.5C 1026.63,902.515 1030.97,902.182 1035.5,902.5C 1035.18,897.305 1035.51,892.305 1036.5,887.5 Z"/></g>
<g><path style="opacity:1" fill="#051e2d" d="M 1121.5,901.5 C 1123.83,901.5 1126.17,901.5 1128.5,901.5C 1128.5,908.833 1128.5,916.167 1128.5,923.5C 1118.22,922.521 1110.72,926.521 1106,935.5C 1104.55,950.762 1104.05,966.095 1104.5,981.5C 1097.83,981.5 1091.17,981.5 1084.5,981.5C 1084.5,955.5 1084.5,929.5 1084.5,903.5C 1091.17,903.5 1097.83,903.5 1104.5,903.5C 1104.33,907.514 1104.5,911.514 1105,915.5C 1108.68,908.591 1114.18,903.924 1121.5,901.5 Z"/></g>
<g><path style="opacity:1" fill="#687781" d="M 693.5,903.5 C 687.167,903.5 680.833,903.5 674.5,903.5C 674.5,929.5 674.5,955.5 674.5,981.5C 673.502,955.339 673.169,929.005 673.5,902.5C 680.354,902.176 687.021,902.509 693.5,903.5 Z"/></g>
<g><path style="opacity:1" fill="#051e2d" d="M 693.5,903.5 C 693.5,929.5 693.5,955.5 693.5,981.5C 687.167,981.5 680.833,981.5 674.5,981.5C 674.5,955.5 674.5,929.5 674.5,903.5C 680.833,903.5 687.167,903.5 693.5,903.5 Z"/></g>
<g><path style="opacity:1" fill="#07202e" d="M 760.5,903.5 C 766.935,921.301 773.101,939.301 779,957.5C 784.533,939.734 790.366,922.067 796.5,904.5C 803.833,903.167 811.167,903.167 818.5,904.5C 809.167,929.833 799.833,955.167 790.5,980.5C 782.608,981.814 774.775,981.814 767,980.5C 758.121,955.361 748.955,930.361 739.5,905.5C 746.087,903.539 753.087,902.872 760.5,903.5 Z"/></g>
<g><path style="opacity:1" fill="#051e2d" d="M 1139.5,903.5 C 1146.17,903.5 1152.83,903.5 1159.5,903.5C 1159.5,929.5 1159.5,955.5 1159.5,981.5C 1152.83,981.5 1146.17,981.5 1139.5,981.5C 1139.5,955.5 1139.5,929.5 1139.5,903.5 Z"/></g>
<g><path style="opacity:1" fill="#eff2f5" d="M 876.5,932.5 C 864.211,934.48 851.544,935.147 838.5,934.5C 841.106,924.39 847.606,919.39 858,919.5C 867.631,918.971 873.798,923.305 876.5,932.5 Z"/></g>
<g><path style="opacity:1" fill="#eef1f4" d="M 1324.5,934.5 C 1311.66,934.829 1298.99,934.495 1286.5,933.5C 1288.82,923.908 1294.99,919.241 1305,919.5C 1315.59,919.36 1322.09,924.36 1324.5,934.5 Z"/></g>
<g><path style="opacity:1" fill="#eff2f5" d="M 1209.5,920.5 C 1229.98,918.815 1239.15,928.148 1237,948.5C 1230.2,964.101 1219.04,968.268 1203.5,961C 1194.84,953.197 1192.34,943.697 1196,932.5C 1198.83,926.493 1203.33,922.493 1209.5,920.5 Z"/></g>
<g><path style="opacity:1" fill="#60707a" d="M 876.5,932.5 C 877.404,933.209 877.737,934.209 877.5,935.5C 864.323,935.829 851.323,935.495 838.5,934.5C 851.544,935.147 864.211,934.48 876.5,932.5 Z"/></g>
<g><path style="opacity:1" fill="#5e6e78" d="M 1286.5,933.5 C 1298.99,934.495 1311.66,934.829 1324.5,934.5C 1311.66,935.825 1298.66,935.825 1285.5,934.5C 1285.62,933.893 1285.96,933.56 1286.5,933.5 Z"/></g>
<g><path style="opacity:1" fill="#394d59" d="M 927.5,941.5 C 927.5,954.833 927.5,968.167 927.5,981.5C 920.646,981.824 913.979,981.491 907.5,980.5C 913.833,980.5 920.167,980.5 926.5,980.5C 926.171,967.323 926.505,954.323 927.5,941.5 Z"/></g>
<g><path style="opacity:1" fill="#8c979f" d="M 1061.5,962.5 C 1065.83,962.5 1070.17,962.5 1074.5,962.5C 1074.82,969.022 1074.49,975.355 1073.5,981.5C 1073.5,975.5 1073.5,969.5 1073.5,963.5C 1069.3,963.817 1065.3,963.483 1061.5,962.5 Z"/></g>
<g><path style="opacity:1" fill="#425460" d="M 1195.5,973.5 C 1194.83,985.833 1194.17,998.167 1193.5,1010.5C 1193.17,997.816 1193.5,985.149 1194.5,972.5C 1195.11,972.624 1195.44,972.957 1195.5,973.5 Z"/></g>
</svg>
