<?xml version="1.0" encoding="UTF-8"?>
<svg version="1.1" xmlns="http://www.w3.org/2000/svg" width="2560" height="796">
<path d="M0 0 C1.25968597 0.00182281 2.51937195 0.00364563 3.81723022 0.00552368 C22.06407655 0.05000027 39.95202574 0.41833043 58 3.3125 C59.14984375 3.48942383 60.2996875 3.66634766 61.484375 3.84863281 C99.3782222 9.78492543 136.3850171 20.70771873 171 37.3125 C172.51424561 38.03155518 172.51424561 38.03155518 174.05908203 38.76513672 C207.28006456 54.63023513 238.21593863 75.10885721 265.41796875 99.9765625 C266.84286287 101.26564976 268.27413712 102.54817055 269.73120117 103.80078125 C275.37363903 108.65351818 280.67837259 113.79889207 285.9375 119.0625 C286.8234082 119.94848877 287.70931641 120.83447754 288.62207031 121.74731445 C293.80127125 126.97202261 298.70225402 132.21781433 303.21484375 138.03125 C304.98618585 140.2948469 306.86302737 142.3890559 308.8125 144.5 C376.6612853 220.37822734 404.02674236 327.33889556 398.77294922 427.04101562 C395.49970752 480.72285758 379.75095959 533.95549462 354.92089844 581.54003906 C354.01847869 583.27693391 353.13789253 585.02511709 352.2578125 586.7734375 C343.27047624 604.24667065 332.61679525 620.91997483 320.49902344 636.38085938 C318.90252571 638.43810531 317.34340204 640.52011861 315.7890625 642.609375 C309.77889678 650.65570334 303.5429314 658.26475016 296.62109375 665.54296875 C294.5676802 667.71267099 292.60934153 669.903785 290.6875 672.1875 C282.58016878 681.55286538 273.5026399 690.37542912 264 698.3125 C262.68128906 699.46492187 262.68128906 699.46492187 261.3359375 700.640625 C207.79296481 747.22135357 141.8927215 778.1082715 72.25 791 C71.24195313 791.19045898 70.23390625 791.38091797 69.1953125 791.57714844 C46.76524125 795.5244552 24.30434042 796.83872765 1.5625 796.6875 C0.32029694 796.68317963 -0.92190613 796.67885925 -2.20175171 796.67440796 C-20.31361073 796.60068025 -38.08461496 796.16324882 -56 793.3125 C-57.66893311 793.06306641 -57.66893311 793.06306641 -59.37158203 792.80859375 C-126.82462148 782.5755157 -191.65323542 754.96119201 -245 712.3125 C-245.90621094 711.58804688 -246.81242188 710.86359375 -247.74609375 710.1171875 C-250.51769567 707.87255198 -253.26012755 705.59572704 -256 703.3125 C-257.49660156 702.09626953 -257.49660156 702.09626953 -259.0234375 700.85546875 C-266.91531689 694.35135629 -274.21219368 687.28870744 -281.4375 680.0625 C-281.90999176 679.59091461 -282.38248352 679.11932922 -282.86929321 678.63345337 C-288.46718624 673.03434307 -293.85765346 667.33116862 -299 661.3125 C-299.93701473 660.25232384 -300.87574099 659.19365723 -301.81640625 658.13671875 C-353.0759698 599.88049281 -385.6461226 524.09045587 -395 447.3125 C-395.08580322 446.64030426 -395.17160645 445.96810852 -395.26000977 445.27554321 C-397.17861475 429.9477705 -397.4008851 414.68302351 -397.375 399.25 C-397.37412384 397.97181396 -397.37324768 396.69362793 -397.37234497 395.37670898 C-397.32585275 374.76569501 -396.55021134 354.63092394 -393 334.3125 C-392.8764917 333.60385803 -392.7529834 332.89521606 -392.62573242 332.1651001 C-389.28245285 313.22840825 -384.95074754 294.61216725 -379 276.3125 C-378.69481445 275.36407227 -378.38962891 274.41564453 -378.07519531 273.43847656 C-373.56738714 259.56937556 -368.19385316 246.18247006 -362.17431641 232.90332031 C-361.11832272 230.57354797 -360.07918933 228.23704406 -359.04296875 225.8984375 C-350.54862613 207.01393289 -339.81667402 189.28334389 -328 172.3125 C-327.57654297 171.69616699 -327.15308594 171.07983398 -326.71679688 170.44482422 C-319.98625274 160.6556691 -312.63634712 151.40820048 -305 142.3125 C-304.59182037 141.82173981 -304.18364075 141.33097961 -303.76309204 140.8253479 C-296.47213067 132.07557055 -288.81742519 123.81196997 -280.73608398 115.7878418 C-278.92778392 113.99034195 -277.13054023 112.18227684 -275.33398438 110.37304688 C-268.52843286 103.55935913 -261.56913966 97.27784657 -254 91.3125 C-252.70571824 90.2403885 -251.41495501 89.16400488 -250.12890625 88.08203125 C-233.83564137 74.51556899 -216.41244514 62.80115629 -198 52.3125 C-197.07203613 51.78269531 -196.14407227 51.25289062 -195.18798828 50.70703125 C-153.58773294 27.13938449 -108.26151001 11.79774113 -61.125 4.0625 C-60.21314941 3.91143799 -59.30129883 3.76037598 -58.36181641 3.60473633 C-38.93597599 0.59249083 -19.63297652 -0.05892201 0 0 Z " fill="#FF7800" transform="translate(397,-0.3125)"/>
<path d="M0 0 C0.93511414 -0.0049649 1.87022827 -0.00992981 2.8336792 -0.01504517 C5.94739507 -0.02972289 9.06105981 -0.03648202 12.17480469 -0.04199219 C14.33941652 -0.04774397 16.50402834 -0.0535017 18.66864014 -0.05926514 C23.22180418 -0.0697944 27.77495049 -0.07562282 32.328125 -0.07910156 C38.13483537 -0.08455634 43.94130768 -0.10851112 49.74794388 -0.13707352 C54.22809503 -0.15580323 58.7081904 -0.16091122 63.18837738 -0.16243744 C65.32678259 -0.1654469 67.46518722 -0.17341709 69.60355377 -0.18662262 C88.93974568 -0.29739811 105.78079737 0.92699935 120.53417969 14.97363281 C126.96476491 21.91244171 130.79867942 29.07420847 134.18652344 37.86816406 C134.48615997 38.6429158 134.78579651 39.41766754 135.09451294 40.21589661 C138.97209402 50.33228076 142.57625291 60.54833684 146.19793701 70.75839233 C148.18309137 76.35385653 150.17581021 81.94662397 152.16862869 87.53936195 C152.62098333 88.80894243 153.07325117 90.07855384 153.52543259 91.34819603 C157.80416137 103.36170215 162.12619016 115.35913756 166.47167969 127.34863281 C167.15813793 129.24323958 167.84457982 131.13785227 168.53100586 133.0324707 C168.87674149 133.98673447 169.22247711 134.94099823 169.57868958 135.92417908 C169.928806 136.89053787 170.27892242 137.85689667 170.63964844 138.85253906 C170.99318893 139.82820328 171.34672943 140.80386749 171.71098328 141.80909729 C176.18172399 154.15047139 180.63293377 166.49889422 185.08500671 178.84701157 C186.01823992 181.43528716 186.95162258 184.02350886 187.88500786 186.61172962 C192.35704321 199.01247674 196.82772996 211.41370857 201.29562378 223.81594849 C203.60373851 230.22288223 205.91254273 236.62956742 208.22167969 243.03613281 C208.56339706 243.9842622 208.56339706 243.9842622 208.91201782 244.95154572 C215.66955421 263.70019011 222.4632565 282.43544725 229.28417969 301.16113281 C236.50949435 320.99767426 243.66658092 340.8576915 250.77929688 360.73486328 C256.92784002 377.91554843 263.10693036 395.08507164 269.29956818 412.24990082 C270.02657992 414.26506742 270.75350278 416.28026606 271.48040771 418.29547119 C272.84048817 422.06590111 274.20094064 425.83619664 275.56152344 429.60644531 C275.9617421 430.71560303 276.36196075 431.82476074 276.77430725 432.9675293 C277.34368263 434.54473755 277.34368263 434.54473755 277.92456055 436.15380859 C278.28460175 437.15559143 278.64464294 438.15737427 279.01559448 439.18951416 C279.75167861 441.21281567 280.50272842 443.23072098 281.26687622 445.24359131 C281.63424896 446.21782043 282.0016217 447.19204956 282.38012695 448.19580078 C282.71045425 449.05704559 283.04078156 449.91829041 283.38111877 450.80563354 C284.09667969 453.16113281 284.09667969 453.16113281 284.09667969 457.16113281 C275.01215377 457.20765305 265.92766943 457.24310145 256.84305 457.26475716 C252.62383922 457.27515538 248.40471047 457.28924147 244.18554688 457.31201172 C240.10714801 457.33388234 236.02882762 457.34573116 231.9503746 457.3508873 C230.40120078 457.3545577 228.85203082 457.36172444 227.30289078 457.37259293 C214.22277131 457.46063785 201.56575696 457.33903225 191.40917969 448.03613281 C183.86282585 439.781296 180.72372444 428.26652969 176.92089844 417.94238281 C176.3455185 416.39190054 175.76973113 414.84156942 175.19355774 413.29138184 C173.99586498 410.06534238 172.8019877 406.83792665 171.61108398 403.609375 C170.08276228 399.46656264 168.54645999 395.32676526 167.00755596 391.18787384 C165.82202986 387.9976171 164.63982151 384.80613946 163.45871925 381.61424255 C162.89297317 380.08606708 162.32638576 378.55820281 161.75894737 377.03065491 C160.97072192 374.906715 160.18677168 372.78124769 159.40405273 370.65527344 C158.95724655 369.44633423 158.51044037 368.23739502 158.0500946 366.99182129 C157.09667969 364.16113281 157.09667969 364.16113281 157.09667969 362.16113281 C90.10667969 362.16113281 23.11667969 362.16113281 -45.90332031 362.16113281 C-46.89332031 365.46113281 -47.88332031 368.76113281 -48.90332031 372.16113281 C-49.72657817 374.55557359 -50.57207594 376.94252747 -51.44360352 379.31982422 C-51.7955629 380.28297295 -51.7955629 380.28297295 -52.15463257 381.26557922 C-52.91750144 383.34930256 -53.68517758 385.4311993 -54.45410156 387.51269531 C-54.7196755 388.23272106 -54.98524944 388.95274681 -55.25887108 389.69459152 C-56.66251026 393.49833278 -58.07027164 397.30051984 -59.48120117 401.1015625 C-60.92794501 405.00192769 -62.35920801 408.9077894 -63.78718281 412.81505775 C-64.89794289 415.84515246 -66.02056302 418.87075539 -67.14632225 421.89530563 C-67.67900062 423.33280231 -68.20724516 424.77195086 -68.73073769 426.21281815 C-72.7998375 437.39444525 -77.69206761 448.50089429 -88.87988281 454.16113281 C-95.50127933 456.81991751 -102.21179753 457.28712846 -109.30737305 457.2746582 C-110.01065231 457.27480423 -110.71393158 457.27495026 -111.43852234 457.27510071 C-113.73801882 457.27441007 -116.03743192 457.26665791 -118.33691406 457.25878906 C-119.94116675 457.25692186 -121.54542 457.25549938 -123.14967346 457.25450134 C-127.35327758 457.25069997 -131.55684665 457.24089021 -135.76043701 457.22979736 C-140.05740892 457.21953187 -144.35438653 457.21499275 -148.65136719 457.20996094 C-157.06870091 457.19926562 -165.48600624 457.18221805 -173.90332031 457.16113281 C-169.23460879 442.95116749 -164.42342859 428.8093543 -159.29483032 414.75872803 C-157.84177953 410.77757215 -156.39622199 406.79370376 -154.94984436 402.81011963 C-154.16565152 400.65060456 -153.38109011 398.49122329 -152.59617615 396.33197021 C-148.24332151 384.35553058 -143.92170382 372.36784563 -139.60113525 360.37973022 C-138.20468094 356.50505242 -136.80771804 352.6305581 -135.41064453 348.75610352 C-133.75533869 344.16545369 -132.10009385 339.57478189 -130.44498444 334.98406124 C-127.42512293 326.60799559 -124.40461901 318.23216174 -121.38378906 309.85644531 C-121.04434989 308.91529688 -121.04434989 308.91529688 -120.69805336 307.95513535 C-119.5564722 304.78993179 -118.41488086 301.62473191 -117.27328491 298.45953369 C-115.21251035 292.74579802 -113.15182643 287.03202966 -111.09113503 281.31826401 C-109.94520044 278.14088563 -108.79926009 274.96350932 -107.65332031 271.78613281 C-107.19498695 270.51529949 -106.73665362 269.24446616 -106.27832031 267.97363281 C-103.52832098 260.34863467 -103.52832098 260.34863467 -102.8408165 258.44237232 C-102.38249581 257.17157398 -101.92417519 255.90077562 -101.46585464 254.62997723 C-100.3198285 251.45235826 -99.17380106 248.27473975 -98.027771 245.09712219 C-95.96757207 239.38476882 -93.90738198 233.67241226 -91.84724045 227.96003819 C-90.70448181 224.79139033 -89.56171556 221.62274523 -88.41894531 218.45410156 C-88.19255623 217.82637533 -87.96616714 217.1986491 -87.73291779 216.55190086 C-84.47860241 207.5284609 -81.22385235 198.50517781 -77.96885681 189.48198318 C-75.863584 183.64590029 -73.7584166 177.80977938 -71.65332031 171.97363281 C-71.42302124 171.33515411 -71.19272217 170.69667542 -70.95544434 170.03884888 C-64.96140507 153.42080301 -58.97163533 136.80122754 -52.9894104 120.17892456 C-49.6281503 110.83938348 -46.26595584 101.50017876 -42.90332031 92.16113281 C-42.24049042 90.32023071 -42.24049042 90.32023071 -41.56427002 88.44213867 C-38.9180982 81.09316746 -36.27105826 73.74450971 -33.62270546 66.39632416 C-32.44946491 63.1409953 -31.27646847 59.88557917 -30.10424805 56.62988281 C-27.04598291 48.13713843 -23.9804863 39.64704799 -20.90332031 31.16113281 C-20.65747948 30.4829953 -20.41163864 29.80485779 -20.15834808 29.10617065 C-18.62536935 24.8791299 -17.0886161 20.65348819 -15.54725456 16.42949677 C-15.05553086 15.08082715 -14.56474295 13.73181596 -14.07492256 12.38245392 C-13.39793365 10.51831343 -12.71701149 8.65560276 -12.03588867 6.79296875 C-11.45332558 5.1948233 -11.45332558 5.1948233 -10.85899353 3.56439209 C-8.86434548 -1.45160747 -4.76934721 0.0059746 0 0 Z M55.09667969 89.16113281 C54.4280188 90.98704956 54.4280188 90.98704956 53.74584961 92.84985352 C44.49671262 118.09894599 35.19557933 143.32772707 25.79345703 168.52026367 C24.99215404 170.66746798 24.19088526 172.81468506 23.38964844 174.96191406 C22.98109619 176.05678635 22.57254395 177.15165863 22.15161133 178.27970886 C18.55699805 187.91750514 14.97608529 197.56035943 11.39746094 207.20410156 C10.81371572 208.77697438 10.2299653 210.34984526 9.64620972 211.92271423 C7.33856718 218.14071631 5.03095401 224.35872887 2.7253418 230.57748413 C1.37679723 234.21476747 0.02761285 237.85181268 -1.32226944 241.48859978 C-1.83922242 242.88138649 -2.35603683 244.27422465 -2.87270737 245.66711617 C-6.41183148 255.20537312 -9.99169494 264.72710716 -13.686203 274.20651245 C-15.31082321 278.06995545 -15.31082321 278.06995545 -15.90332031 282.16113281 C31.28667969 282.16113281 78.47667969 282.16113281 127.09667969 282.16113281 C125.07119845 275.40952869 122.9622833 268.86830236 120.46386719 262.30175781 C120.1152916 261.37690582 119.766716 260.45205383 119.40757751 259.49917603 C118.6572797 257.50915739 117.90554421 255.5196803 117.15249634 253.53070068 C115.10689121 248.1264713 113.07312697 242.71778464 111.03808594 237.30957031 C110.62094833 236.20175201 110.20381073 235.09393372 109.77403259 233.95254517 C105.77682891 223.32926694 101.83545033 212.68579323 97.90917969 202.03613281 C96.51878779 198.26651555 95.12812309 194.49699899 93.73730469 190.72753906 C93.37771164 189.75286179 93.01811859 188.77818451 92.64762878 187.77397156 C87.50247472 173.83398716 82.32925863 159.90438712 77.15917969 145.97363281 C76.91784428 145.32334862 76.67650887 144.67306442 76.42786026 144.00307465 C75.95041266 142.7165827 75.47296357 141.4300913 74.99551296 140.14360046 C73.83260191 137.01012861 72.66971607 133.87664739 71.50683594 130.74316406 C71.05935501 129.53742737 70.61187408 128.33169067 70.15083313 127.0894165 C65.46018367 114.44885153 60.7776188 101.80529651 56.09667969 89.16113281 C55.76667969 89.16113281 55.43667969 89.16113281 55.09667969 89.16113281 Z " fill="#031119" transform="translate(1097.9033203125,169.8388671875)"/>
<path d="M0 0 C25.69667264 -0.88609216 50.00428857 8.85109702 69.4375 25.25 C70.02789062 25.69472656 70.61828125 26.13945313 71.2265625 26.59765625 C94.48504145 44.62022169 105.16053445 80.00892376 117.28265381 105.79388428 C118.7148321 108.83982724 120.14895356 111.8848528 121.58312988 114.92985535 C123.87475818 119.79557481 126.16515277 124.66187172 128.45263672 129.52954102 C133.38698308 140.02869091 138.34440873 150.51677852 143.3125 161 C143.68672089 161.78969177 144.06094177 162.57938354 144.44650269 163.39300537 C147.10954348 169.01229991 149.77342218 174.63119705 152.4375 180.25 C155.47974415 186.66639305 158.52158654 193.08297617 161.5625 199.5 C161.93712372 200.29049744 162.31174744 201.08099487 162.69772339 201.89544678 C168.26939477 213.65397583 173.81657224 225.42382577 179.35015869 237.20031738 C184.84803967 248.89844728 190.38617219 260.57714932 195.9375 272.25 C201.81710905 284.61313201 207.67796857 296.98464433 213.5 309.375 C219.08458898 321.25931822 224.68909581 333.13399584 230.3125 345 C230.68672089 345.78969177 231.06094177 346.57938354 231.44650269 347.39300537 C234.10954348 353.01229991 236.77342218 358.63119705 239.4375 364.25 C242.47974415 370.66639305 245.52161796 377.08296129 248.5625 383.5 C248.93679138 384.28983276 249.31108276 385.07966553 249.69671631 385.89343262 C255.29059518 397.69947866 260.86173742 409.51605336 266.41955566 421.33911133 C271.69870566 432.56819548 276.99889232 443.7871812 282.3125 455 C282.68663025 455.7895105 283.0607605 456.579021 283.44622803 457.39245605 C286.10935952 463.0119341 288.7733345 468.63101211 291.4375 474.25 C294.47974415 480.66639305 297.52161355 487.08296337 300.5625 493.5 C301.11496399 494.66580597 301.11496399 494.66580597 301.67858887 495.85516357 C309.63067105 512.63817782 317.5399668 529.4412593 325.4375 546.25 C326.4275 546.25 327.4175 546.25 328.4375 546.25 C326.86185534 551.53670249 323.41742016 555.23080007 319.9375 559.375 C318.75934737 560.79338332 317.58222194 562.21262066 316.40625 563.6328125 C315.62411133 564.56697998 315.62411133 564.56697998 314.82617188 565.52001953 C313.26642123 567.41098876 313.26642123 567.41098876 311.4375 570.25 C305.42117267 567.54986181 301.41355976 562.42533583 297.1875 557.5 C294.25470359 554.09161498 291.13676712 550.90601186 287.9375 547.75 C284.84257019 544.6966338 281.81815643 541.62676221 279 538.3125 C275.98397196 534.77320926 272.74302422 531.51505255 269.4375 528.25 C265.53854317 524.39878063 261.82925703 520.48578271 258.27734375 516.30859375 C255.47983133 513.17846838 252.47125494 510.26314342 249.48413086 507.31616211 C246.25751347 504.11614229 243.25819539 500.79927728 240.3125 497.34375 C237.95404726 494.71014444 235.4530432 492.23173782 232.9375 489.75 C229.84258498 486.69662049 226.81815723 483.62676315 224 480.3125 C220.98397196 476.77320926 217.74302422 473.51505255 214.4375 470.25 C210.53854317 466.39878063 206.82925703 462.48578271 203.27734375 458.30859375 C200.47983133 455.17846838 197.47125494 452.26314342 194.48413086 449.31616211 C191.25751347 446.11614229 188.25819539 442.79927728 185.3125 439.34375 C182.95404726 436.71014444 180.4530432 434.23173782 177.9375 431.75 C174.84258498 428.69662049 171.81815723 425.62676315 169 422.3125 C165.98397196 418.77320926 162.74302422 415.51505255 159.4375 412.25 C155.53854317 408.39878063 151.82925703 404.48578271 148.27734375 400.30859375 C145.47983133 397.17846838 142.47125494 394.26314342 139.48413086 391.31616211 C136.25751347 388.11614229 133.25819539 384.79927728 130.3125 381.34375 C127.95404726 378.71014444 125.4530432 376.23173782 122.9375 373.75 C119.84258498 370.69662049 116.81815723 367.62676315 114 364.3125 C110.98397196 360.77320926 107.74302422 357.51505255 104.4375 354.25 C100.53854317 350.39878063 96.82925703 346.48578271 93.27734375 342.30859375 C90.47983133 339.17846838 87.47125494 336.26314342 84.48413086 333.31616211 C81.25751347 330.11614229 78.25819539 326.79927728 75.3125 323.34375 C72.95404726 320.71014444 70.4530432 318.23173782 67.9375 315.75 C64.84258498 312.69662049 61.81815723 309.62676315 59 306.3125 C55.98397196 302.77320926 52.74302422 299.51505255 49.4375 296.25 C45.53854317 292.39878063 41.82925703 288.48578271 38.27734375 284.30859375 C35.47983133 281.17846838 32.47125494 278.26314342 29.48413086 275.31616211 C26.25751347 272.11614229 23.25819539 268.79927728 20.3125 265.34375 C17.95404726 262.71014444 15.4530432 260.23173782 12.9375 257.75 C9.84258498 254.69662049 6.81815723 251.62676315 4 248.3125 C0.98397196 244.77320926 -2.25697578 241.51505255 -5.5625 238.25 C-9.46145683 234.39878063 -13.17074297 230.48578271 -16.72265625 226.30859375 C-19.52016867 223.17846838 -22.52874506 220.26314342 -25.51586914 217.31616211 C-28.74248653 214.11614229 -31.74180461 210.79927728 -34.6875 207.34375 C-37.04595274 204.71014444 -39.5469568 202.23173782 -42.0625 199.75 C-45.15741502 196.69662049 -48.18184277 193.62676315 -51 190.3125 C-54.01611232 186.77311036 -57.25767082 183.51586549 -60.5625 180.25 C-81.48355641 159.49934715 -96.70705137 134.68043231 -96.84130859 104.41040039 C-96.83180176 103.40871826 -96.82229492 102.40703613 -96.8125 101.375 C-96.80428223 100.31853271 -96.79606445 99.26206543 -96.78759766 98.17358398 C-96.38366659 69.9787615 -84.69154993 45.96825299 -64.5625 26.25 C-45.95837119 10.13702234 -24.37679629 1.71065237 0 0 Z " fill="#FFFEFE" transform="translate(394.5625,80.75)"/>
<path d="M0 0 C1.19394882 -0.00151062 1.19394882 -0.00151062 2.41201782 -0.00305176 C15.7365336 0.00831343 28.69176351 0.77166834 41.8125 3.25 C42.56934082 3.38921875 43.32618164 3.5284375 44.10595703 3.671875 C66.05408659 7.86078243 86.87976896 16.49916352 103.8125 31.25 C104.47121094 31.765625 105.12992188 32.28125 105.80859375 32.8125 C128.88394373 51.38421025 138.99354546 82.26857593 142.08028316 110.71807384 C143.06975719 121.74858141 142.94540585 132.77366125 142.92602539 143.83911133 C142.92574291 146.10700987 142.92590244 148.37490851 142.9264679 150.64280701 C142.9267535 156.76581695 142.92089506 162.88880709 142.91389394 169.01181245 C142.90762097 175.42329446 142.90705349 181.83477699 142.90586853 188.2462616 C142.90311869 198.99661667 142.89688259 209.74696314 142.88793945 220.49731445 C142.87874276 231.56404586 142.871673 242.6307753 142.86743164 253.69750977 C142.86703756 254.72290013 142.86703756 254.72290013 142.86663551 255.76900546 C142.86533035 259.19882358 142.86406667 262.62864173 142.86282361 266.05845988 C142.85247809 294.45564488 142.83480857 322.85282205 142.8125 351.25 C135.59013004 351.35194982 128.3679477 351.42169539 121.14501953 351.46972656 C118.69117294 351.48976324 116.23737363 351.51700032 113.78369141 351.55175781 C110.24369597 351.60062498 106.70433532 351.6230492 103.1640625 351.640625 C101.535327 351.67159271 101.535327 351.67159271 99.87368774 351.70318604 C89.84120309 351.7060996 81.90255329 349.10846268 74.5625 342.16796875 C69.7256684 336.86688769 67.09741696 330.98449209 64.8125 324.25 C64.33683594 324.71148438 63.86117188 325.17296875 63.37109375 325.6484375 C41.4452629 346.08024304 13.18805789 356.50912479 -16.1875 360.25 C-17.20585938 360.38148438 -18.22421875 360.51296875 -19.2734375 360.6484375 C-54.93264312 364.34420951 -92.05901121 357.98469198 -120.5168457 335.12182617 C-138.99683746 319.71722666 -154.01458432 295.80434613 -156.99267578 271.58984375 C-159.48829882 241.61734851 -155.04195583 213.27796436 -135.3359375 189.68359375 C-116.42161187 168.25882127 -91.6705645 156.58460938 -64.140625 150.31958008 C-63.010233 150.06105916 -61.879841 149.80253824 -60.7151947 149.53618336 C-48.79530724 146.86137528 -36.79676141 144.77046041 -24.75 142.76171875 C-22.43769598 142.36988908 -20.12552405 141.97727914 -17.81347656 141.5839386 C-11.82500532 140.56680735 -5.83513287 139.55821339 0.1552124 138.55218506 C9.82365854 136.92719681 19.49005626 135.29010558 29.15603638 133.65052223 C32.51812366 133.08172631 35.88094914 132.51746679 39.24389648 131.95378113 C41.28241087 131.60953306 43.32090487 131.2651643 45.359375 130.9206543 C46.29316483 130.76536255 47.22695465 130.6100708 48.18904114 130.45007324 C49.03770248 130.30591476 49.88636383 130.16175629 50.76074219 130.01322937 C51.49943542 129.88920588 52.23812866 129.7651824 52.99920654 129.63740063 C54.90054322 129.31034149 54.90054322 129.31034149 56.8125 128.25 C53.38861634 106.18536227 53.38861634 106.18536227 39.8125 89.25 C22.68740173 78.33339657 -0.65701155 77.64055494 -20.1875 81.5 C-34.94436433 85.37390211 -44.78805038 93.42511836 -55.1875 104.25 C-62.28358287 111.58190435 -69.38693569 116.1036027 -79.828125 116.640625 C-88.21144255 116.57758212 -95.81377781 113.44569736 -103.625 110.6875 C-105.23109302 110.13220763 -106.8376229 109.57817724 -108.44458008 109.02539062 C-111.59556258 107.93910136 -114.74314943 106.84369068 -117.88867188 105.74169922 C-121.56214949 104.45934256 -125.25136861 103.23382567 -128.953125 102.03515625 C-129.8922876 101.72586182 -130.8314502 101.41656738 -131.79907227 101.09790039 C-133.46793419 100.54857261 -135.140164 100.00933186 -136.81616211 99.48217773 C-138.98046875 98.75 -138.98046875 98.75 -142.1875 97.25 C-143.44440529 94.62816272 -143.25705311 93.45666759 -142.32641602 90.69140625 C-141.64083618 89.26634766 -141.64083618 89.26634766 -140.94140625 87.8125 C-140.43770508 86.75812744 -139.93400391 85.70375488 -139.41503906 84.61743164 C-138.86557617 83.5061792 -138.31611328 82.39492676 -137.75 81.25 C-136.92000488 79.55121704 -136.92000488 79.55121704 -136.07324219 77.81811523 C-132.29017157 70.19090349 -128.383399 63.0177676 -123.1875 56.25 C-122.53265625 55.38890625 -121.8778125 54.5278125 -121.203125 53.640625 C-119.24392015 51.13466531 -117.23325651 48.6856158 -115.1875 46.25 C-114.56230469 45.48945313 -113.93710938 44.72890625 -113.29296875 43.9453125 C-108.18347134 37.93046627 -102.4446302 33.04006295 -96.1875 28.25 C-95.03507812 27.35667969 -95.03507812 27.35667969 -93.859375 26.4453125 C-66.57807267 6.30911316 -33.2326077 0.02920981 0 0 Z M51.6171875 198.2722168 C50.36067383 198.49632736 49.10416016 198.72043793 47.80957031 198.95133972 C46.43549737 199.20035974 45.06147528 199.44966046 43.6875 199.69921875 C42.26141368 199.95639702 40.83530654 200.21345981 39.40917969 200.47041321 C36.40937398 201.01188473 33.41010478 201.55622554 30.41113281 202.10229492 C27.37484281 202.6548086 24.33777944 203.20267655 21.29980469 203.74584961 C-26.10847441 210.61245423 -26.10847441 210.61245423 -64.53515625 236.84765625 C-71.12149193 246.42353436 -73.11153879 255.79191896 -72.1875 267.25 C-70.2946941 275.50537033 -66.01841432 281.07836215 -59.00390625 285.68359375 C-42.25463679 294.95207291 -18.96651304 294.80173394 -0.81860352 290.02075195 C20.98519952 283.69810821 41.44387525 270.83706946 53.28125 251.04296875 C60.43388388 237.99671053 62.11438439 226.80716142 61.9375 212.1875 C61.92744832 210.73503222 61.91832635 209.2825577 61.91015625 207.83007812 C61.88832017 204.30324318 61.85391149 200.7766658 61.8125 197.25 C58.19812473 197.25 55.15961458 197.63615984 51.6171875 198.2722168 Z " fill="#031119" transform="translate(1835.1875,274.75)"/>
<path d="M0 0 C2.63917518 0.00315778 5.27722211 -0.02039448 7.91625977 -0.0456543 C46.36438423 -0.18784742 81.33231386 12.97561314 109.34008789 39.31567383 C110.24307617 40.12198242 110.24307617 40.12198242 111.16430664 40.94458008 C124.3078173 53.16896412 134.94378331 71.92264369 139.34008789 89.31567383 C138.34008789 92.31567383 138.34008789 92.31567383 136.50041199 93.27713013 C135.69751236 93.55169037 134.89461273 93.82625061 134.06738281 94.10913086 C133.15941452 94.42600861 132.25144623 94.74288635 131.31596375 95.06936646 C130.3274794 95.40072601 129.33899506 95.73208557 128.32055664 96.07348633 C127.31044022 96.42200653 126.30032379 96.77052673 125.25959778 97.12960815 C122.01927899 98.24439422 118.77355356 99.34245264 115.52758789 100.44067383 C113.34949455 101.18832681 111.1717552 101.93701189 108.99438477 102.68676758 C104.99863532 104.05759588 101.00227693 105.42645604 97.00097656 106.78100586 C95.79304695 107.19045944 95.79304695 107.19045944 94.56071472 107.60818481 C86.43364206 110.1974603 76.33064887 111.05072844 68.34008789 107.62817383 C66.98348837 106.8990651 65.64760178 106.12953452 64.34008789 105.31567383 C63.42356445 104.77233398 63.42356445 104.77233398 62.48852539 104.21801758 C58.31182783 101.50408414 55.33724106 98.1207282 52.12133789 94.35473633 C46.92412966 88.40530059 41.34610763 84.55175065 34.34008789 81.00317383 C33.67565674 80.66543945 33.01122559 80.32770508 32.32666016 79.97973633 C16.67275092 72.37690367 -0.35186395 73.37384043 -16.64038086 78.19848633 C-23.98890137 80.8443984 -29.5439655 84.56846855 -33.15991211 91.62817383 C-35.0297784 96.41567631 -35.06117285 100.39257777 -33.65991211 105.31567383 C-30.20328703 113.17163991 -21.99232206 117.04170337 -14.37670898 120.10986328 C-12.73431746 120.74433256 -11.088928 121.37107716 -9.44116211 121.99145508 C-8.53390884 122.33480392 -7.62665558 122.67815277 -6.69190979 123.03190613 C4.03436324 127.03035538 14.93232218 130.49607714 25.83285522 133.98339844 C96.30851394 156.58419443 96.30851394 156.58419443 116.34008789 173.31567383 C117.17411133 174.00016602 118.00813477 174.6846582 118.86743164 175.38989258 C138.09003812 191.88756871 150.06398489 214.19888414 153.34008789 239.31567383 C155.50312159 269.09047033 148.78897319 295.71284554 129.48852539 318.78833008 C108.64838271 342.7687207 79.10550156 354.24539616 48.34008789 359.31567383 C47.64431641 359.43281738 46.94854492 359.54996094 46.23168945 359.6706543 C2.67551329 366.58091044 -46.94453047 361.09412385 -83.65991211 335.31567383 C-88.21558913 331.89891606 -92.47752983 328.17579784 -96.65991211 324.31567383 C-97.54420898 323.50227539 -98.42850586 322.68887695 -99.33959961 321.85083008 C-116.90517461 304.96927279 -134.44785967 278.31980523 -139.65991211 254.31567383 C-138.65991211 251.31567383 -138.65991211 251.31567383 -136.71307373 250.31625366 C-135.85989563 250.02392853 -135.00671753 249.73160339 -134.12768555 249.43041992 C-133.16288269 249.09352142 -132.19807983 248.75662292 -131.20404053 248.40951538 C-130.1530719 248.05628204 -129.10210327 247.70304871 -128.01928711 247.33911133 C-126.40778778 246.78303696 -126.40778778 246.78303696 -124.76373291 246.21572876 C-122.48573288 245.43201429 -120.20577727 244.65396494 -117.92407227 243.88110352 C-114.43476861 242.69909403 -110.95124951 241.50123296 -107.46850586 240.30004883 C-105.25658703 239.54130061 -103.04435719 238.78345835 -100.83178711 238.02661133 C-99.26747955 237.49068863 -99.26747955 237.49068863 -97.67156982 236.94393921 C-96.20545258 236.44804794 -96.20545258 236.44804794 -94.7097168 235.94213867 C-93.85335632 235.65140472 -92.99699585 235.36067078 -92.11468506 235.06112671 C-83.54630262 232.4591242 -74.48516907 232.62309632 -66.28491211 236.44067383 C-58.48633019 240.88624226 -53.95268777 247.16661415 -48.99121094 254.47460938 C-38.40063483 270.04053351 -23.08793513 280.7393258 -4.46069336 284.62036133 C14.07993577 287.74307767 35.76352266 286.84956827 52.17211914 276.87036133 C58.31507291 272.46514403 61.30912829 266.51138552 63.34008789 259.31567383 C64.51455702 251.65552514 62.71179757 243.56830425 58.15258789 237.31567383 C57.55446289 236.65567383 56.95633789 235.99567383 56.34008789 235.31567383 C56.34008789 234.65567383 56.34008789 233.99567383 56.34008789 233.31567383 C55.48350586 232.91928711 55.48350586 232.91928711 54.60961914 232.51489258 C52.20849072 231.24613797 50.19438628 229.76356397 48.02758789 228.12817383 C29.50876342 215.14893991 5.95021993 209.37425054 -15.40991211 202.75317383 C-51.91024791 191.4238564 -91.6872155 178.41723067 -110.87548828 142.58349609 C-121.96694666 120.94769164 -126.16991025 94.86205898 -118.65991211 71.31567383 C-118.45591797 70.67339844 -118.25192383 70.03112305 -118.04174805 69.36938477 C-110.6195421 46.56257725 -95.25128622 27.35529806 -73.89038086 16.16015625 C-50.54503732 4.36752155 -25.97642555 -0.0647074 0 0 Z " fill="#031119" transform="translate(2156.659912109375,274.684326171875)"/>
<path d="M0 0 C9.47562827 -0.09301515 18.9510974 -0.16392386 28.42708397 -0.20724869 C32.82801917 -0.22805106 37.22864013 -0.25623277 41.62939453 -0.30175781 C45.88288043 -0.34547994 50.13606564 -0.36919228 54.38975906 -0.37950897 C56.00595452 -0.38685336 57.62213503 -0.40119438 59.23820114 -0.42292023 C69.83850903 -0.55965392 80.02616802 -0.31977555 88.3125 7.25 C88.90675781 7.77078125 89.50101563 8.2915625 90.11328125 8.828125 C94.84780599 14.27821974 97.83182451 20.43793279 100.25 27.18359375 C100.54041672 27.97021896 100.83083344 28.75684418 101.13005066 29.56730652 C102.09517997 32.18767673 103.04747731 34.81252364 104 37.4375 C104.69615515 39.33479075 105.39320215 41.23175448 106.09106445 43.12841797 C107.60131429 47.23708808 109.10640277 51.34759978 110.60791016 55.45947266 C113.05190492 62.14855846 115.51446871 68.83071915 117.98046875 75.51171875 C121.51301151 85.0845062 125.04218166 94.6585218 128.56640625 104.234375 C129.01485901 105.45285629 129.46331177 106.67133759 129.925354 107.92674255 C132.17710058 114.04539178 134.42833115 120.16423067 136.67919922 126.28320312 C139.32690434 133.48079835 141.97546432 140.67807842 144.625 147.875 C145.05391541 149.04008087 145.48283081 150.20516174 145.92474365 151.4055481 C155.21339046 176.62970497 164.59339645 201.81962281 174 227 C176.38899824 223.41650263 177.71253586 219.66680734 179.17578125 215.6484375 C179.49268417 214.78801346 179.8095871 213.92758942 180.13609314 213.04109192 C181.1985613 210.15372768 182.25546465 207.26435712 183.3125 204.375 C184.07025009 202.31276432 184.82839721 200.25067448 185.58691406 198.1887207 C187.21365789 193.76502049 188.83827524 189.34054724 190.46142578 184.91552734 C192.9874221 178.03116858 195.52187717 171.14994603 198.05859375 164.26953125 C198.48241837 163.11991409 198.90624298 161.97029694 199.34291077 160.7858429 C200.20799763 158.4393273 201.07309474 156.09281548 201.9382019 153.74630737 C204.15786787 147.72452428 206.37581832 141.70210953 208.59375 135.6796875 C209.03867294 134.47160934 209.48359589 133.26353119 209.94200134 132.0188446 C211.29469246 128.34590557 212.64735169 124.6729548 214 121 C215.3526629 117.3270056 216.70533666 113.65401522 218.05807495 109.98104858 C218.95573605 107.54360518 219.85329896 105.10612561 220.75076294 102.66860962 C222.95577108 96.68050174 225.16285865 90.69317663 227.37451172 84.70751953 C231.16961261 74.43189028 234.95512209 64.15379141 238.66357422 53.84651184 C240.19831404 49.58377279 241.74350779 45.32485975 243.28967285 41.06625366 C244.00172697 39.09557121 244.70853512 37.12298371 245.4095459 35.14834595 C254.83994471 8.59116136 254.83994471 8.59116136 268 2 C272.63855846 0.16673171 276.49855211 -0.24403225 281.47412109 -0.22705078 C282.55808167 -0.22748886 282.55808167 -0.22748886 283.66394043 -0.22793579 C286.03389828 -0.22655116 288.4035351 -0.21103127 290.7734375 -0.1953125 C292.42395862 -0.19157928 294.07448197 -0.18873377 295.7250061 -0.18673706 C300.05525909 -0.17912492 304.3853765 -0.15949736 308.71557617 -0.1373291 C313.13979255 -0.11681841 317.56403097 -0.1077242 321.98828125 -0.09765625 C330.65891616 -0.07624905 339.32944119 -0.04214251 348 0 C347.28491072 4.66203618 346.09050577 8.80983289 344.359375 13.18359375 C344.08553986 13.88964249 343.81170471 14.59569122 343.52957153 15.32313538 C342.92793813 16.87263973 342.32370887 18.42113805 341.71722412 19.96875 C340.36893478 23.41013368 339.03387719 26.85660781 337.69784546 30.30276489 C336.96655339 32.18880909 336.23462189 34.07460546 335.50210571 35.96017456 C331.35732397 46.63494786 327.27624485 57.33390126 323.19665527 68.03372192 C321.85991458 71.53956422 320.52236459 75.04509673 319.18457031 78.55053711 C317.36337544 83.32266568 315.54241983 88.09488541 313.72167969 92.8671875 C309.7518776 103.27173625 305.77908652 113.67514365 301.80645752 124.07861328 C299.62084323 129.80235981 297.43543212 135.52618391 295.25 141.25 C294.37500097 143.54166704 293.50000097 145.8333337 292.625 148.125 C292.191875 149.259375 291.75875 150.39375 291.3125 151.5625 C266.37499998 216.87500005 266.37499998 216.87500005 265.06268311 220.31201172 C264.18706501 222.60530303 263.31145466 224.89859731 262.43585205 227.19189453 C260.25787232 232.89622833 258.07976092 238.60051179 255.90136719 244.3046875 C251.85043622 254.91255814 247.80072688 265.52089013 243.75561523 276.13098145 C241.87338288 281.06792961 239.99026663 286.0045406 238.10717773 290.94116211 C237.22156248 293.26345273 236.33629256 295.58587508 235.45141602 297.90844727 C234.21331818 301.15806485 232.97395574 304.40719784 231.734375 307.65625 C231.21511444 309.02064209 231.21511444 309.02064209 230.68536377 310.41259766 C226.52730068 321.30327154 222.24845299 332.14284236 218 343 C189.29 343 160.58 343 131 343 C121.82110364 320.0527591 121.82110364 320.0527591 118.80078125 312.04296875 C118.44788528 311.11207428 118.09498932 310.18117981 117.73139954 309.22207642 C116.97984852 307.23913347 116.2290781 305.25589451 115.47906494 303.27236938 C113.41058477 297.80247147 111.3356112 292.33503512 109.26171875 286.8671875 C108.83016479 285.72891006 108.39861084 284.59063263 107.95397949 283.41786194 C103.19738457 270.87520566 98.41248462 258.34339141 93.625 245.8125 C92.74323822 243.50415315 91.86148369 241.19580353 90.97973633 238.88745117 C89.20572353 234.24342954 87.43152187 229.59948011 85.65722656 224.95556641 C81.70665199 214.61516672 77.75866209 204.27378019 73.81048584 193.9324646 C71.62376392 188.20493566 69.4368734 182.4774711 67.25 176.75 C66.37499919 174.45833364 65.49999919 172.16666697 64.625 169.875 C64.191875 168.740625 63.75875 167.60625 63.3125 166.4375 C61.34375 161.28125 61.34375 161.28125 59.375 156.125 C58.94188004 154.99064011 58.50876007 153.85628021 58.06251526 152.68754578 C57.18745923 150.39572849 56.31240837 148.10390924 55.43736267 145.81208801 C53.25076224 140.08520959 51.06407225 134.35836539 48.87719727 128.6315918 C44.92896813 118.29209411 40.98138297 107.95235298 37.03715515 97.61132812 C34.83770876 91.8448847 32.63764529 86.07867679 30.4375 80.3125 C29.79586411 78.63060577 29.79586411 78.63060577 29.14126587 76.91473389 C24.19151269 63.94224845 19.22619512 50.97588386 14.234375 38.01953125 C13.7658461 36.80314468 13.2973172 35.58675812 12.81459045 34.33351135 C10.55985158 28.48087444 8.30294114 22.62908813 6.04272461 16.77856445 C5.2406821 14.69874611 4.43867794 12.61891297 3.63671875 10.5390625 C3.26597229 9.58155594 2.89522583 8.62404938 2.51324463 7.63752747 C2.01301788 6.33896065 2.01301788 6.33896065 1.50268555 5.01416016 C1.210728 4.25849762 0.91877045 3.50283508 0.6179657 2.72427368 C0 1 0 1 0 0 Z " fill="#031119" transform="translate(1333,284)"/>
<path d="M0 0 C1.82633972 0.00018127 1.82633972 0.00018127 3.6895752 0.00036621 C4.95950317 0.00548218 6.22943115 0.01059814 7.5378418 0.01586914 C8.71229858 0.01687622 9.88675537 0.0178833 11.09680176 0.0189209 C15.47689798 0.02414623 19.85698026 0.0381075 24.23706055 0.05102539 C38.93237305 0.08196289 38.93237305 0.08196289 53.92456055 0.11352539 C53.92456055 28.49352539 53.92456055 56.87352539 53.92456055 86.11352539 C86.26456055 86.11352539 118.60456055 86.11352539 151.92456055 86.11352539 C151.92456055 139.85837558 151.92456055 139.85837558 142.21362305 150.13305664 C135.25266785 156.15558955 127.86814655 158.24279739 118.86108398 158.22705078 C117.8068222 158.22726982 117.8068222 158.22726982 116.73126221 158.22749329 C114.41545491 158.22679838 112.09972873 158.21902578 109.78393555 158.21118164 C108.17539514 158.20931596 106.56685417 158.20789277 104.95831299 158.20689392 C100.73000513 158.20308055 96.50173176 158.19326034 92.2734375 158.18218994 C87.95662909 158.17195045 83.6398151 158.16739086 79.32299805 158.16235352 C70.85683641 158.15163701 62.39070277 158.13457476 53.92456055 158.11352539 C54.03263138 175.64021652 54.14552664 193.16686942 54.2638998 210.69349384 C54.31877569 218.83454975 54.37217341 226.97560994 54.421875 235.11669922 C54.46528566 242.22668481 54.51168983 249.33664406 54.5614391 256.44658822 C54.58759246 260.19830839 54.61241719 263.9500249 54.63363457 267.7017765 C54.7162712 282.10794237 54.84856175 296.51386885 55.25683594 310.91503906 C55.27811019 311.97620343 55.29938444 313.0373678 55.32130337 314.13068867 C55.75601938 327.08250729 58.62784293 338.83034528 68.0300293 348.21508789 C81.76049911 359.63689464 98.8679166 359.4358645 115.87963867 359.50415039 C126.78083581 359.70427436 136.08551988 361.39322082 144.2019043 369.10961914 C148.82533775 374.48789887 152.0572614 380.61610541 152.03808594 387.76855469 C152.03801041 388.70930344 152.03793488 389.65005219 152.03785706 390.61930847 C152.03269577 391.63189224 152.02753448 392.64447601 152.0222168 393.68774414 C152.02009438 395.24619804 152.02009438 395.24619804 152.01792908 396.83613586 C152.0123271 400.15779487 151.99977426 403.47938672 151.98706055 406.80102539 C151.9820458 409.05167546 151.97748285 411.30232658 151.97338867 413.55297852 C151.96235703 419.07318376 151.94561698 424.59334978 151.92456055 430.11352539 C147.82129595 430.76517507 143.71680308 431.40875653 139.61206055 432.05102539 C138.46415039 432.23342773 137.31624023 432.41583008 136.13354492 432.60375977 C122.69099724 434.69820771 109.61064664 435.32690516 96.0222168 435.35375977 C93.09092996 435.36338949 90.16036893 435.39445492 87.22924805 435.42602539 C53.63369807 435.61453912 18.62958186 428.95805803 -6.51293945 405.11352539 C-29.08920898 381.00341165 -33.26081716 350.74149533 -33.18896484 319.0925293 C-33.1886821 317.32693992 -33.18884241 315.56135042 -33.18940735 313.79576111 C-33.18969192 309.04673109 -33.18385064 304.2977268 -33.17683339 299.54870272 C-33.17054277 294.56928421 -33.16999157 289.58986498 -33.16880798 284.61044312 C-33.1657114 275.20088121 -33.15752074 265.79133106 -33.14745849 256.38177431 C-33.13624518 245.66097808 -33.1307738 234.94018126 -33.12576306 224.21938062 C-33.11533657 202.18408755 -33.09701209 180.14881056 -33.07543945 158.11352539 C-48.91543945 158.11352539 -64.75543945 158.11352539 -81.07543945 158.11352539 C-81.15793945 150.91540039 -81.24043945 143.71727539 -81.32543945 136.30102539 C-81.36185547 134.05185303 -81.39827148 131.80268066 -81.43579102 129.48535156 C-81.55469879 116.9473702 -81.14682143 106.05707101 -72.9074707 95.89868164 C-65.26688881 88.45359438 -56.37333663 85.86542376 -45.99536133 85.93774414 C-45.05241211 85.95450195 -44.10946289 85.97125977 -43.13793945 85.98852539 C-42.16791992 85.99754883 -41.19790039 86.00657227 -40.19848633 86.01586914 C-37.82387539 86.03926432 -35.4497917 86.07204363 -33.07543945 86.11352539 C-33.08876312 85.36343201 -33.10208679 84.61333862 -33.11581421 83.84051514 C-33.23675504 76.72176395 -33.32774671 69.60337708 -33.38631248 62.4838829 C-33.41743629 58.82482315 -33.45955138 55.16662224 -33.52807617 51.50805664 C-33.59396044 47.9677327 -33.6292874 44.42822707 -33.64470291 40.88733673 C-33.66095151 38.89993759 -33.70767732 36.91286123 -33.75521851 34.92596436 C-33.75882705 25.04929577 -31.568494 17.04642106 -24.79940796 9.61468506 C-17.49351901 2.63939566 -10.06042795 -0.02117985 0 0 Z " fill="#031119" transform="translate(2408.075439453125,196.886474609375)"/>
<path d="M0 0 C2.93670299 2.43040862 5.84801954 4.89031722 8.76074219 7.34936523 C11.72943157 9.82491218 14.76940386 12.20225525 17.82421875 14.57006836 C23.80952466 19.22626649 29.6601368 24.03407949 35.49902344 28.87207031 C39.97240153 32.56996143 44.49243717 36.19510448 49.07421875 39.75756836 C54.13702069 43.6953032 59.05414368 47.77091998 63.92626953 51.94140625 C68.43511175 55.78315876 73.06750856 59.44867109 77.73876953 63.09008789 C82.16478304 66.54210787 86.52379004 70.06732963 90.859375 73.63256836 C99.42615433 80.67561224 108.01595584 87.68751272 116.76171875 94.50756836 C123.44812803 99.72585602 129.98653502 105.11564447 136.5234375 110.51928711 C145.59933307 118.02068803 154.72426964 125.45683494 164.01171875 132.69506836 C169.09766621 136.65891569 174.04054903 140.75996189 178.93920898 144.95214844 C183.30375078 148.67053011 187.78660571 152.21512092 192.3125 155.73413086 C197.05158128 159.43165581 201.69589401 163.23512618 206.32421875 167.07006836 C211.4389169 171.30657169 216.58312052 175.49088316 221.82421875 179.57006836 C227.9021961 184.30140157 233.85144156 189.17887311 239.78686523 194.08740234 C244.22415407 197.75624193 248.68889489 201.38472198 253.1953125 204.96850586 C258.72080709 209.38561744 264.19648203 213.8647166 269.68359375 218.3293457 C271.85434612 220.09456746 274.02655301 221.85798355 276.19921875 223.62084961 C276.91126465 224.19875244 277.62331055 224.77665527 278.35693359 225.37207031 C279.71120799 226.47113431 281.06568678 227.56994651 282.42041016 228.66845703 C283.64516015 229.66279119 284.86792314 230.65957941 286.08837891 231.65917969 C287.25015101 232.60346675 288.42190347 233.53559962 289.60302734 234.45556641 C293.78378571 237.76682057 293.78378571 237.76682057 294.19921875 240.88256836 C294.07546875 241.60444336 293.95171875 242.32631836 293.82421875 243.07006836 C288.78494266 244.34733307 285.41825706 243.60339459 280.7265625 241.70288086 C280.03742767 241.43742966 279.34829285 241.17197845 278.63827515 240.89848328 C276.34081677 240.01031518 274.05164221 239.10246755 271.76171875 238.19506836 C270.11479152 237.55505558 268.46723271 236.91666599 266.8190918 236.27978516 C263.30076926 234.91921949 259.78498106 233.55236056 256.27050781 232.18188477 C248.17964765 229.0351573 240.051207 225.98811357 231.92572021 222.93222046 C227.1609911 221.13899519 222.39881084 219.33903261 217.63671875 217.53881836 C216.66942841 217.17318283 215.70213806 216.8075473 214.70553589 216.43083191 C201.58952181 211.47106369 188.48319487 206.48579215 175.3762207 201.50219727 C159.36171426 195.41319002 143.34387019 189.3330263 127.32421875 183.25756836 C124.88907874 182.33398447 122.45393877 181.41040049 120.01879883 180.48681641 C109.47660965 176.48857192 98.93422599 172.49084054 88.39159107 168.49377155 C81.53570269 165.89446122 74.67992183 163.29486741 67.82421875 160.69506836 C66.60989166 160.23458099 65.39556458 159.77409363 64.1444397 159.2996521 C47.7423782 153.07927846 31.34524274 146.84616229 14.95492554 140.59490967 C4.42066294 136.57721223 -6.11934419 132.5752863 -16.66723633 128.59350586 C-22.71404259 126.31070738 -28.75802323 124.02047504 -34.80126953 121.72827148 C-37.73621128 120.61511665 -40.67217413 119.5047144 -43.60888672 118.39624023 C-47.17491435 117.04951247 -50.73765994 115.69441444 -54.29824829 114.33337402 C-55.60381598 113.83573067 -56.91039396 113.34072737 -58.21810913 112.84875488 C-70.97319867 108.04645327 -81.47793054 102.75178288 -91.17578125 93.07006836 C-91.89894531 92.35850586 -92.62210938 91.64694336 -93.3671875 90.91381836 C-106.91219015 76.7262634 -109.7001274 59.53110547 -109.44921875 40.72631836 C-109.23450916 34.2297588 -108.03955063 28.91693084 -105.17578125 23.07006836 C-104.70140625 22.02077148 -104.22703125 20.97147461 -103.73828125 19.89038086 C-95.89598373 3.86645564 -82.53469045 -8.21811977 -65.64453125 -14.22290039 C-41.28787179 -21.19846267 -19.36715676 -15.78414488 0 0 Z " fill="#FFFEFD" transform="translate(303.17578125,337.929931640625)"/>
<path d="M0 0 C2.16796701 0.54037156 4.33593556 1.08073696 6.50390625 1.62109375 C9.35901652 2.33552665 12.21316428 3.05311457 15.06518555 3.77978516 C23.84246366 6.00467251 32.6732428 7.97860188 41.51037598 9.94802856 C51.00039992 12.06539216 60.44177286 14.32689157 69.86328125 16.73046875 C78.70714399 18.96807258 87.60191879 20.96318544 96.50524902 22.94674683 C106.09439674 25.08562776 115.63337485 27.37496014 125.15332031 29.80297852 C132.48928811 31.65913351 139.85693865 33.32515513 147.25 34.9375 C157.94049413 37.27088366 168.55925009 39.8305393 179.16455078 42.52392578 C186.48699354 44.38294834 193.81789118 46.17535136 201.20556641 47.75830078 C205.783128 48.783128 205.783128 48.783128 208 51 C207.75 53.5625 207.75 53.5625 207 56 C204.50964241 57.2451788 202.56736822 57.27365297 199.78515625 57.46484375 C198.71676514 57.54154297 197.64837402 57.61824219 196.54760742 57.69726562 C195.39752197 57.77654297 194.24743652 57.85582031 193.0625 57.9375 C185.25358754 58.50275497 177.46637454 59.11063631 169.6875 60 C162.32184858 60.82698182 154.95918829 61.34865865 147.5625 61.8125 C131.07802464 62.86366424 114.65254078 64.51646953 98.21704102 66.14770508 C85.94380341 67.36190628 73.66968991 68.45978408 61.37402344 69.41943359 C47.36278691 70.51470142 33.35775774 71.68932967 19.35184097 72.85028267 C14.53222403 73.2497776 9.71251434 73.64807519 4.89257812 74.04370117 C0.15624211 74.43248671 -4.57985281 74.82409189 -9.31578827 75.21772575 C-11.10345036 75.36583291 -12.89119495 75.5129479 -14.67902374 75.65902901 C-17.15897043 75.86185516 -19.63859022 76.06830718 -22.11816406 76.27563477 C-22.8463736 76.33435257 -23.57458313 76.39307037 -24.32485962 76.4535675 C-27.94991314 76.76059004 -31.44235341 77.25162199 -35 78 C-50.63687952 79.03454409 -62.90815008 75.79404964 -75.03515625 65.2265625 C-84.1617803 55.71882667 -87.53366104 43.70388317 -87.2734375 30.88671875 C-86.52945694 20.31156656 -81.13476194 10.22375261 -73.74609375 2.70703125 C-51.67093043 -16.17910366 -25.12930697 -6.3220167 0 0 Z " fill="#FFFEFD" transform="translate(208,494)"/>
<path d="M0 0 C0.99 0.99 0.99 0.99 2 2 C1.99462891 4.38183594 1.99462891 4.38183594 1 7 C-1.53759766 8.98535156 -1.53759766 8.98535156 -4.9140625 10.890625 C-5.52075775 11.23953796 -6.127453 11.58845093 -6.75253296 11.94793701 C-8.70151087 13.06442128 -10.66244225 14.15759648 -12.625 15.25 C-13.89151253 15.96848984 -15.1571474 16.6885291 -16.421875 17.41015625 C-18.33544605 18.50137751 -20.24969705 19.59120126 -22.16740417 20.67514038 C-28.56351653 24.2942785 -34.8526906 28.08294231 -41.14306641 31.88183594 C-44.20099673 33.72318762 -47.27009082 35.54563507 -50.33984375 37.3671875 C-50.95173553 37.73038086 -51.56362732 38.09357422 -52.19406128 38.46777344 C-53.45569223 39.21643942 -54.71740202 39.96497256 -55.97918701 40.71337891 C-58.01193982 41.9191558 -60.04433554 43.1255328 -62.07666016 44.33203125 C-68.52813855 48.16165819 -74.98082628 51.9892318 -81.43586731 55.81285095 C-96.01475583 64.44909883 -110.5853373 73.09093764 -125 82 C-132.43645507 75.76734748 -132.43645507 75.76734748 -135.1875 72.5 C-137.32144465 69.98108984 -139.46219022 67.47858953 -141.65234375 65.0078125 C-164 39.68395843 -164 39.68395843 -164 35 C-162.93193115 34.77449463 -161.8638623 34.54898926 -160.76342773 34.31665039 C-140.90945097 30.1189979 -121.07753123 25.85026869 -101.3125 21.25 C-100.49186066 21.05907776 -99.67122131 20.86815552 -98.82571411 20.67144775 C-97.6059639 20.38766266 -97.6059639 20.38766266 -96.36157227 20.09814453 C-94.77100948 19.72813254 -93.18043362 19.35817678 -91.58984375 18.98828125 C-90.83101395 18.81180054 -90.07218414 18.63531982 -89.2903595 18.45349121 C-80.64841249 16.44778573 -71.98235404 14.56056065 -63.30664062 12.70703125 C-56.72884717 11.30055681 -50.15325218 9.88388257 -43.57794189 8.46585083 C-41.21161563 7.95615655 -38.84484828 7.44855355 -36.47802734 6.94116211 C-34.96705762 6.61602352 -33.45615198 6.29058701 -31.9453125 5.96484375 C-31.20699188 5.80604233 -30.46867126 5.64724091 -29.70797729 5.48362732 C-25.89207971 4.65538849 -22.08944637 3.78931506 -18.29589844 2.86376953 C-17.53155487 2.67818985 -16.7672113 2.49261017 -15.97970581 2.30140686 C-14.53473867 1.9478364 -13.09118504 1.58841445 -11.64944458 1.22190857 C-7.69050582 0.25245776 -4.074989 -0.36199523 0 0 Z " fill="#FFFDFD" transform="translate(237,593)"/>
</svg>
