<svg width="758" height="150" viewBox="0 0 758 150" fill="none" xmlns="http://www.w3.org/2000/svg">
<path d="M46.5347 89.2687C54.4219 89.2687 60.8033 82.8873 60.8033 75.0001C60.8033 67.113 54.4219 60.7315 46.5347 60.7315C38.6475 60.7315 32.2661 67.113 32.2661 75.0001C32.2661 82.8873 38.6475 89.2687 46.5347 89.2687Z" fill="#0A74F5"/>
<path d="M46.5348 111.496C66.7116 111.496 83.0309 95.177 83.0309 75.0002C83.0309 74.8568 83.0237 74.7206 83.0237 74.5844C89.3119 82.5217 93.0691 92.5456 93.0691 103.466C93.0691 118.172 86.2646 131.257 75.6313 139.783C67.6652 146.171 57.5553 150 46.5348 150H0.000488281C0.000488281 128.719 17.2232 111.496 38.5042 111.496H46.5348Z" fill="#0A74F5"/>
<path d="M46.5343 38.5037C26.3575 38.5037 10.0382 54.823 10.0382 74.9998C10.0382 75.1432 10.0454 75.2795 10.0454 75.4157C3.75716 67.4783 0 57.4544 0 46.5343C0 31.8283 6.80448 18.7428 17.4378 10.2175C25.4039 3.82886 35.5138 0 46.5343 0H93.0686C93.0686 21.281 75.8459 38.5037 54.5649 38.5037H46.5343Z" fill="#0A74F5"/>
<path d="M166.66 110.749C184.981 110.749 196.172 102.331 196.172 88.6643C196.172 76.186 188.546 70.0459 171.116 67.0749C157.152 64.599 154.479 62.4203 154.479 57.8647C154.479 53.012 158.737 50.2391 166.264 50.2391C176.068 50.2391 181.317 54.3985 184.882 58.4589L195.182 50.14C189.14 43.1086 179.831 37.7608 166.066 37.7608C149.923 37.7608 139.029 45.5845 139.029 58.1618C139.029 70.442 146.952 76.3841 163.293 79.3551C177.95 81.93 180.624 84.5049 180.624 89.6547C180.624 95.0025 174.88 98.1716 167.056 98.1716C157.45 98.1716 151.012 94.4083 145.367 88.6643L135.563 97.6764C142.991 106.193 154.082 110.749 166.66 110.749Z" fill="#151819"/>
<path d="M204.481 43.5047V57.1715H197.351V67.471H204.481V94.4083C204.481 104.213 208.74 110.254 221.218 110.254C225.576 110.254 229.438 109.561 232.607 108.57V97.4784C230.329 98.0726 227.854 98.5677 225.081 98.5677C220.327 98.5677 218.94 96.488 218.94 92.1305V67.471H231.617V57.1715H218.94V43.5047H204.481Z" fill="#151819"/>
<path d="M267.283 54.8937C261.638 54.8937 256.587 57.7657 252.923 64.7971V56.2801H238.959V108.867H253.418V87.0798C253.418 72.7198 259.756 69.0556 267.877 69.0556C268.571 69.0556 269.264 69.0556 271.046 69.1546V55.0917C269.858 54.9927 268.571 54.8937 267.283 54.8937Z" fill="#151819"/>
<path d="M300.068 110.254C311.358 110.254 319.182 105.698 324.232 97.7755L312.645 92.1305C310.368 96.1909 306.604 99.0629 300.761 99.0629C293.235 99.0629 288.481 94.7054 287.986 85.9904H324.629V83.2174C324.629 66.2826 315.121 54.8937 299.177 54.8937C282.539 54.8937 273.131 66.3816 273.131 82.5242C273.131 98.4687 283.232 110.254 300.068 110.254ZM287.986 76.7802C288.58 69.0556 292.938 65.3913 299.078 65.3913C305.416 65.3913 309.377 68.9565 309.872 76.7802H287.986Z" fill="#151819"/>
<path d="M354.469 54.8937C340.307 54.8937 331.79 60.4396 331.394 71.9276H345.655C345.853 66.9758 348.23 64.9952 354.172 64.9952C360.411 64.9952 362.094 66.8768 362.094 72.4227V74.7995L351.102 76.186C335.949 78.0677 329.314 83.9107 329.314 94.1112C329.314 103.519 335.751 110.254 346.942 110.254C352.785 110.254 358.529 108.57 362.391 103.519C362.689 105.401 363.184 107.184 363.976 108.867H378.336C376.85 105.203 376.553 101.539 376.553 97.3793V71.4324C376.553 60.9348 370.413 54.8937 354.469 54.8937ZM362.094 89.1595C362.094 95.0025 357.143 99.0629 351.201 99.0629C346.348 99.0629 344.07 96.488 344.07 92.7247C344.07 88.3672 347.041 86.0894 354.667 85.0001L362.094 84.0097V89.1595Z" fill="#151819"/>
<path d="M401.196 108.867V79.4541C401.196 71.9276 405.157 66.9758 410.604 66.9758C416.744 66.9758 417.834 71.1353 417.834 80.2464V108.867H432.293V79.4541C432.293 71.9276 436.155 66.9758 441.701 66.9758C447.643 66.9758 448.93 71.1353 448.93 80.2464V108.867H463.389V74.9976C463.389 62.1232 457.744 54.8937 446.652 54.8937C439.918 54.8937 433.976 57.4686 430.015 63.4106C427.638 57.9637 422.686 54.8937 415.556 54.8937C409.317 54.8937 404.662 57.1715 400.701 62.3212V56.2801H386.737V108.867H401.196Z" fill="#151819"/>
<path d="M517.853 39.5434V86.7827L491.708 39.5434H474.278V108.867H487.945V62.8164L514.09 108.867H531.52V39.5434H517.853Z" fill="#151819"/>
<path d="M565.013 54.8937C550.851 54.8937 542.334 60.4396 541.938 71.9276H556.199C556.397 66.9758 558.774 64.9952 564.716 64.9952C570.955 64.9952 572.639 66.8768 572.639 72.4227V74.7995L561.646 76.186C546.494 78.0677 539.858 83.9107 539.858 94.1112C539.858 103.519 546.296 110.254 557.486 110.254C563.329 110.254 569.073 108.57 572.936 103.519C573.233 105.401 573.728 107.184 574.52 108.867H588.88C587.395 105.203 587.098 101.539 587.098 97.3793V71.4324C587.098 60.9348 580.958 54.8937 565.013 54.8937ZM572.639 89.1595C572.639 95.0025 567.687 99.0629 561.745 99.0629C556.892 99.0629 554.614 96.488 554.614 92.7247C554.614 88.3672 557.585 86.0894 565.211 85.0001L572.639 84.0097V89.1595Z" fill="#151819"/>
<path d="M599.361 43.5047V57.1715H592.23V67.471H599.361V94.4083C599.361 104.213 603.619 110.254 616.098 110.254C620.455 110.254 624.317 109.561 627.487 108.57V97.4784C625.209 98.0726 622.733 98.5677 619.96 98.5677C615.206 98.5677 613.82 96.488 613.82 92.1305V67.471H626.496V57.1715H613.82V43.5047H599.361Z" fill="#151819"/>
<path d="M641.068 48.5555C645.624 48.5555 649.585 44.8912 649.585 40.4347C649.585 35.7801 645.624 32.2148 641.068 32.2148C636.513 32.2148 632.452 35.7801 632.452 40.4347C632.452 44.8912 636.513 48.5555 641.068 48.5555ZM633.839 56.2801V108.867H648.298V56.2801H633.839Z" fill="#151819"/>
<path d="M689.487 56.2801L678.89 96.9832L668.788 56.2801H652.745L669.977 108.867H687.704L704.936 56.2801H689.487Z" fill="#151819"/>
<path d="M732.569 110.254C743.859 110.254 751.682 105.698 756.733 97.7755L745.146 92.1305C742.868 96.1909 739.105 99.0629 733.262 99.0629C725.735 99.0629 720.982 94.7054 720.487 85.9904H757.129V83.2174C757.129 66.2826 747.622 54.8937 731.677 54.8937C715.04 54.8937 705.632 66.3816 705.632 82.5242C705.632 98.4687 715.733 110.254 732.569 110.254ZM720.487 76.7802C721.081 69.0556 725.438 65.3913 731.578 65.3913C737.917 65.3913 741.878 68.9565 742.373 76.7802H720.487Z" fill="#151819"/>
</svg>
