<?xml version="1.0" encoding="utf-8"?>
<!-- Generator: Adobe Illustrator 26.0.3, SVG Export Plug-In . SVG Version: 6.00 Build 0)  -->
<svg version="1.1" id="Capa_1" xmlns="http://www.w3.org/2000/svg" xmlns:xlink="http://www.w3.org/1999/xlink" x="0px" y="0px"
	 viewBox="0 0 2687.1 1080" style="enable-background:new 0 0 2687.1 1080;" xml:space="preserve">
<style type="text/css">
	.st0{fill:#3585F9;}
</style>
<g>
	<polygon points="693.8,630.2 631,425.7 581.3,425.7 518.5,630.2 456,425.7 399,425.7 490,723.7 536.2,723.7 606,508.1 675.7,723.7 
		722,723.7 813,425.7 756.2,425.7 	"/>
	<polygon points="1217.1,477.4 1370.5,477.4 1201.6,714.5 1201.6,723.7 1453.9,723.7 1453.9,672 1293.5,672 1462.2,435.2 
		1462.2,425.7 1217.1,425.7 	"/>
	<path d="M1086.8,457.4c-25.7-26.6-60.5-40.6-101.4-40.6c-86.9,0-152.2,68.2-152.2,158.5s65.3,158.5,152.2,158.5
		c40.9,0,75.8-13.9,101.4-40.3v33.6h58.3V422.9h-58.3V457.4z M991.4,678.7c-57.4,0-98.9-43.4-98.9-103.7
		c0-59.9,41.5-103.3,98.9-103.3c57.1,0,98.6,43.4,98.6,103.3C1090,634.9,1048.5,678.7,991.4,678.7z"/>
	<path d="M1733.8,594.4c0,53.6-29.5,84-80.8,84s-81.1-30.7-81.1-84V422.9h-58.3v176.2c0,99.2,75.1,134.4,139.5,134.4
		c64,0,139.2-35.2,139.2-134.4V422.9h-58.3V594.4z"/>
	<path d="M2129.4,526.2c-1.6-12-4.8-24.4-9.5-37.1c-4.4-12.7-11.4-24.4-20-35.2c-8.9-10.8-20-19.3-33.9-26
		c-13.9-6.7-31.4-9.8-52-9.8c-26.9,0-49.8,5.7-68.8,17.4c-11.7,7-21.6,15.8-29.8,26.3V346.2h-51.4V724h58.3V568.7
		c0-17.8,1.9-32.6,6-45c4.1-12.4,9.5-22.2,16.2-29.8c7-7.6,14.9-13,24.1-16.5c9.2-3.5,19-5.1,29.2-5.1c15.8,0,28.5,3.2,38.4,9.5
		c9.8,6.3,17.4,14.9,22.8,25.4s9.2,21.9,11.1,33.9c1.9,12.4,2.9,24.1,2.9,35.8v146.4h58.3V557.9C2132,549,2131.3,538.3,2129.4,526.2
		z"/>
	<circle class="st0" cx="2243.2" cy="682.8" r="46.9"/>
</g>
</svg>
