<svg xmlns="http://www.w3.org/2000/svg" fill="none" viewBox="0 0 1000 248" class="h-8 w-auto"><g clip-path="url(#workmark__black_svg__a)"><g clip-path="url(#workmark__black_svg__b)"><path fill="#F25533" fill-rule="evenodd" d="M48.803 140.978v23.429C20.788 157.71 0 133.023 0 103.594 0 86.626 7.168 73.165 18.131 59.96 27.222 49.01 49.67 20.01 56.735 4.009c1.716-3.885 6.09-3.735 7.976-1.647 6.033 6.677 13.47 21.26 15.902 37.802.496 3.37.7 6.123.862 8.309.348 4.691.502 6.777 2.93 6.777 3.816 0 6.313-5.795 6.861-11.776.352-3.833 4.148-5.115 6.765-3.833 12.59 6.17 25.437 35.537 28.543 49.949.974 4.52 1.609 9.19 1.609 14.004 0 29.363-20.695 54.006-48.616 60.768v-23.384H48.803Zm15.289-9.338c9.845 0 17.826-7.567 17.826-16.901 0-14.888-10.959-25.526-16.42-28.76-.369-.218-.553-.328-1.055-.314-.367.01-.91.24-1.172.498-.358.351-.453.752-.643 1.552-.968 4.078-4.015 6.986-7.222 10.045-4.42 4.217-9.141 8.723-9.141 16.979 0 9.334 7.981 16.901 17.827 16.901Z" clip-rule="evenodd"></path><path fill="#000" d="M158.057 138.153c-13.535 0-23.788 4.919-29.325 12.503v-9.633h-30.76v102.48h30.76v-55.954c0-14.552 7.793-21.111 19.071-21.111 9.843 0 17.841 5.944 17.841 18.651v58.414h30.76V180.58c0-27.67-17.636-42.427-38.347-42.427ZM262.641 246.373c20.097 0 37.527-10.454 46.346-26.44l-26.864-15.372c-3.281 7.173-10.869 11.477-19.892 11.477-13.329 0-23.172-9.632-23.172-23.775 0-14.143 9.843-23.775 23.172-23.775 9.023 0 16.406 4.303 19.892 11.477l26.864-15.577c-8.819-15.782-26.454-26.235-46.346-26.235-31.169 0-54.342 23.571-54.342 54.11 0 30.539 23.173 54.11 54.342 54.11ZM332.645 132.005c10.047 0 18.456-8.404 18.456-18.448 0-10.042-8.409-18.446-18.456-18.446-10.049 0-18.456 8.404-18.456 18.446 0 10.044 8.407 18.448 18.456 18.448Zm-15.38 111.498h30.76v-102.48h-30.76v102.48ZM440.871 100.031v50.625c-6.767-7.788-16.815-12.503-30.555-12.503-26.863 0-49.01 23.571-49.01 54.11 0 30.539 22.147 54.11 49.01 54.11 13.74 0 23.788-4.714 30.555-12.503v9.634h30.76V100.031h-30.76Zm-24.402 117.238c-14.15 0-24.403-9.634-24.403-25.006s10.253-25.005 24.403-25.005c14.149 0 24.402 9.633 24.402 25.005s-10.253 25.006-24.402 25.006ZM517.576 204.561h72.799c.82-3.895 1.23-7.993 1.23-12.298 0-30.949-22.147-54.11-52.086-54.11-32.401 0-54.548 23.571-54.548 54.11 0 30.539 21.736 54.11 56.803 54.11 19.482 0 34.656-7.174 44.705-21.111l-24.609-14.143c-4.101 4.509-11.278 7.789-19.686 7.789-11.278 0-20.711-3.69-24.608-14.347Zm-.615-22.956c2.871-10.453 10.663-16.192 22.352-16.192 9.228 0 18.456 4.304 21.737 16.192h-44.089ZM665.034 138.153c-13.534 0-23.787 4.919-29.324 12.503v-9.633h-30.76v102.48h30.76v-55.954c0-14.552 7.793-21.111 19.071-21.111 9.843 0 17.841 5.944 17.841 18.651v58.414h30.76V180.58c0-27.67-17.636-42.427-38.348-42.427ZM780.49 170.537v-29.514h-21.123v-28.695l-30.759 9.224v19.471h-16.407v29.514h16.407v36.278c0 28.695 11.689 40.787 51.882 36.688v-27.875c-13.535.82-21.123 0-21.123-8.813v-36.278h21.123ZM813.237 246.373c10.663 0 19.48-8.813 19.48-19.472 0-10.657-8.817-19.471-19.48-19.471-10.664 0-19.482 8.814-19.482 19.471 0 10.659 8.818 19.472 19.482 19.472ZM862.014 132.005c10.047 0 18.455-8.404 18.455-18.448 0-10.042-8.408-18.446-18.455-18.446-10.049 0-18.456 8.404-18.456 18.446 0 10.044 8.407 18.448 18.456 18.448Zm-15.381 111.498h30.761v-102.48h-30.761v102.48ZM945.017 246.373c30.144 0 54.343-23.571 54.343-54.11 0-30.539-24.199-54.11-54.343-54.11-30.145 0-54.342 23.571-54.342 54.11 0 30.539 24.197 54.11 54.342 54.11Zm0-29.925c-13.329 0-23.582-9.633-23.582-24.185 0-14.553 10.253-24.185 23.582-24.185 13.33 0 23.583 9.632 23.583 24.185 0 14.552-10.253 24.185-23.583 24.185ZM48.804 243.508h30.76v-78.701s-30.76 5.525-30.76 34.995v43.706Z"></path></g></g><defs><clipPath id="workmark__black_svg__a"><path fill="#fff" d="M0 0h1000v248H0z"></path></clipPath><clipPath id="workmark__black_svg__b"><path fill="#fff" d="M0 .91h1000v246.18H0z"></path></clipPath></defs></svg>
