<?xml version="1.0" encoding="UTF-8"?> <svg xmlns="http://www.w3.org/2000/svg" viewBox="0 0 500 160"> <title>zerofox-logo</title> <rect width="500" height="160" style="fill: #fff"></rect> <path d="M377.71,58.8A21.2,21.2,0,1,0,398.91,80,21.2,21.2,0,0,0,377.71,58.8Zm0,35.69A14.49,14.49,0,1,1,392.19,80h0A14.49,14.49,0,0,1,377.71,94.49Z" style="fill: #131e29"></path> <path d="M164.11,65.28H140.23v-6.6h37.33L151.77,94.42h23.61V101h-37Z" style="fill: #131e29"></path> <path d="M186.53,58.68h31.71v6.65H194v11h21.24V83H194V94.39h24.27V101H186.53Z" style="fill: #131e29"></path> <path d="M227.55,58.68h18.88c5.32,0,9.5,1.58,12.22,4.24a12.82,12.82,0,0,1,3.52,9.14v.12c0,7-4.18,11.13-10.11,12.83l11.44,16h-8.78L244.31,86.28H235v14.77h-7.44V58.68Zm18.34,21c5.32,0,8.71-2.78,8.71-7.08v-.12c0-4.54-3.27-7-8.78-7H235v14.2Z" style="fill: #131e29"></path> <path d="M319.49,58.68H351v6.78H326.93V77h21.36v6.8H326.93v17.25h-7.45V58.68Z" style="fill: #131e29"></path> <path d="M416.68,79.5,401.86,58.68h8.77l10.44,14.8,10.68-14.8h8.53l-14.9,20.84,15.51,21.53h-8.77L421,85.56l-11.24,15.49h-8.53Z" style="fill: #131e29"></path> <path d="M456,67.93a4.17,4.17,0,0,1-1.6-.3,3.75,3.75,0,0,1-1.27-.84,3.93,3.93,0,0,1-.84-1.25,4.31,4.31,0,0,1,0-3.16,3.8,3.8,0,0,1,2.11-2.08,4.18,4.18,0,0,1,4.48.83,3.77,3.77,0,0,1,.84,1.25,4.31,4.31,0,0,1,0,3.16,3.77,3.77,0,0,1-.84,1.25,3.9,3.9,0,0,1-1.28.84A4.17,4.17,0,0,1,456,67.93Zm0-.31a4,4,0,0,0,1.45-.26,3.45,3.45,0,0,0,1.17-.75,3.65,3.65,0,0,0,.78-1.16,4.07,4.07,0,0,0,.28-1.5,4,4,0,0,0-.27-1.44,3.58,3.58,0,0,0-.77-1.15,3.41,3.41,0,0,0-1.17-.77,3.73,3.73,0,0,0-1.47-.28,3.65,3.65,0,0,0-1.46.28,3.41,3.41,0,0,0-1.17.77,3.6,3.6,0,0,0-.78,1.15A3.8,3.8,0,0,0,452.3,64a3.91,3.91,0,0,0,.27,1.47,3.6,3.6,0,0,0,.78,1.15,3.27,3.27,0,0,0,1.17.77A3.57,3.57,0,0,0,456,67.62Zm-1.65-6.15h2.09a1.35,1.35,0,0,1,.59.14,1.6,1.6,0,0,1,.76.86,1.36,1.36,0,0,1,.11.56,1.89,1.89,0,0,1-.08.53,2.05,2.05,0,0,1-.25.46,1.5,1.5,0,0,1-.37.34,1.23,1.23,0,0,1-.49.16l1.25,2h-.51l-1.2-1.9H454.8v1.9h-.45Zm2.11,2.72a.89.89,0,0,0,.75-.35,1.3,1.3,0,0,0,.25-.81,1.23,1.23,0,0,0-.29-.82,1,1,0,0,0-.75-.32H454.8v2.3Z" style="fill: #131e29"></path> <path d="M278.89,89.26a14.47,14.47,0,0,1,16.44-22.77l4-5.55a21.19,21.19,0,0,0-24.47,33.87Z" style="fill: #e4002b"></path> <path d="M305.07,65.06l-4,5.56a14.48,14.48,0,0,1-16.44,22.77l-4,5.55a21.19,21.19,0,0,0,24.46-33.88Z" style="fill: #e4002b"></path> <polygon points="83.47 71.85 92.65 65.82 92.65 81.1 96.07 84.55 81.28 98.97 78.38 98.97 78.38 71.85 83.47 71.85" style="fill: #ba0c2f"></polygon> <polygon points="73.29 71.85 64.12 65.82 64.12 81.1 60.69 84.55 75.49 98.97 78.38 98.97 78.38 71.85 73.29 71.85" style="fill: #e4002b"></polygon> <path d="M52.8,108.61l4.94-6.87A30,30,0,0,1,92.39,53.48l4.93-6.86a38.38,38.38,0,0,0-44.52,62Z" style="fill: #ba0c2f"></path> <path d="M104,51.39l-5,6.87a30,30,0,0,1-34.65,48.26l-4.93,6.86a38.38,38.38,0,0,0,44.52-62Z" style="fill: #e4002b"></path> </svg> 