<svg id="Group_2769" data-name="Group 2769" xmlns="http://www.w3.org/2000/svg" xmlns:xlink="http://www.w3.org/1999/xlink" width="144.704" height="30.5" viewBox="0 0 144.704 30.5">
  <defs>
    <clipPath id="clip-path">
      <rect id="Rectangle_1015" data-name="Rectangle 1015" width="144.704" height="30.5" fill="none"/>
    </clipPath>
  </defs>
  <g id="Group_2768" data-name="Group 2768" clip-path="url(#clip-path)">
    <path id="Path_1419" data-name="Path 1419" d="M30.507,15.258A15.248,15.248,0,1,1,15.258.01,15.248,15.248,0,0,1,30.507,15.258" transform="translate(-0.007 -0.007)" fill="#fff"/>
    <path id="Path_1420" data-name="Path 1420" d="M2.552,23.7A15.249,15.249,0,0,1,26.463,4.919C23.517,2.905,17.9,3.868,12.543,7.3,17.4,4.334,22.56,3.865,24.63,6.514c2.38,3.043-.122,8.975-5.592,13.25S8.021,24.843,6.993,21.96c-.378-1.076-.675-2.449,1.535-6.783l2.592.013.5-1.048H8.981l1.611-3.468s-1.288,0-1.3.009a15.01,15.01,0,0,1-6.42,3.571l-.419.985H4.237C2.242,18.373,1.629,21.462,2.552,23.7Z" fill="#d71920"/>
    <path id="Path_1421" data-name="Path 1421" d="M39.771,31.045A15.249,15.249,0,0,1,13.49,41.571c3.346,2.3,10.16.735,16.177-3.965,5.957-4.653,9.125-10.808,7.8-14.626a15.18,15.18,0,0,1,2.3,8.065" transform="translate(-9.271 -15.794)" fill="#d71920"/>
    <path id="Path_1422" data-name="Path 1422" d="M430,70.369l-.882-.094v.038l.71.272,1.657.948v.278l-1.661.994-.707.281v.031l.879-.125h2.308v.822H427.87v-.794l2.03-1.185.507-.21V71.6l-.522-.191-2.014-1.123V69.5h4.438v.869H430Z" transform="translate(-294.065 -47.766)" fill="#fff"/>
    <rect id="Rectangle_1014" data-name="Rectangle 1014" width="4.438" height="0.869" transform="translate(133.802 19.48)" fill="#fff"/>
    <path id="Path_1423" data-name="Path 1423" d="M431.92,49.07a1.343,1.343,0,0,1,.206.516,3.337,3.337,0,0,1,.062.644,2.328,2.328,0,0,1-.122.757,1.672,1.672,0,0,1-.4.632,1.968,1.968,0,0,1-.716.435,3.154,3.154,0,0,1-1.069.163,3.006,3.006,0,0,1-1.095-.178,2.067,2.067,0,0,1-.71-.469,1.735,1.735,0,0,1-.388-.644,2.27,2.27,0,0,1-.119-.71,3.427,3.427,0,0,1,.053-.644,2.33,2.33,0,0,1,.122-.435l.735.172a1.262,1.262,0,0,0-.1.347,3.045,3.045,0,0,0-.031.485,1.049,1.049,0,0,0,.375.844,1.756,1.756,0,0,0,1.166.322,2.433,2.433,0,0,0,.625-.075,1.3,1.3,0,0,0,.482-.231,1.094,1.094,0,0,0,.316-.388,1.216,1.216,0,0,0,.109-.538,1.756,1.756,0,0,0-.056-.482,1.387,1.387,0,0,0-.144-.344l.707-.175Z" transform="translate(-293.858 -33.725)" fill="#fff"/>
    <path id="Path_1424" data-name="Path 1424" d="M427.749,38.46c-.019-.1-.034-.2-.047-.316s-.025-.222-.034-.335-.016-.222-.022-.328-.006-.2-.006-.291a3.086,3.086,0,0,1,.059-.613,1.691,1.691,0,0,1,.194-.538,1.071,1.071,0,0,1,.385-.382,1.2,1.2,0,0,1,.613-.144,1.458,1.458,0,0,1,.888.253,1.306,1.306,0,0,1,.475.679l.2-.31,1.692-1.016v1L430.4,37.131l-.081.457h1.82v.869h-4.394Zm.669-1.332c0,.088,0,.175.006.263a.966.966,0,0,0,.022.2h1.288v-.369a.945.945,0,0,0-.163-.575.647.647,0,0,0-.547-.216.564.564,0,0,0-.444.178.753.753,0,0,0-.159.519Z" transform="translate(-293.907 -24.137)" fill="#fff"/>
    <path id="Path_1425" data-name="Path 1425" d="M429.878,25.085a2.638,2.638,0,0,1-1.707-.488,1.7,1.7,0,0,1-.6-1.395,1.936,1.936,0,0,1,.166-.832,1.522,1.522,0,0,1,.472-.588,1.975,1.975,0,0,1,.729-.35,3.689,3.689,0,0,1,.944-.113,2.63,2.63,0,0,1,1.711.491,1.691,1.691,0,0,1,.6,1.392,1.985,1.985,0,0,1-.163.838,1.55,1.55,0,0,1-.469.588,2.1,2.1,0,0,1-.729.347,3.674,3.674,0,0,1-.948.116Zm0-.913a3.163,3.163,0,0,0,.619-.056,1.579,1.579,0,0,0,.485-.175.929.929,0,0,0,.319-.3.9.9,0,0,0-.247-1.154,2.1,2.1,0,0,0-1.176-.253,3.3,3.3,0,0,0-.6.053,1.812,1.812,0,0,0-.491.169.914.914,0,0,0-.328.3.845.845,0,0,0-.116.45.826.826,0,0,0,.372.719,2.093,2.093,0,0,0,1.16.253Z" transform="translate(-293.858 -14.653)" fill="#fff"/>
    <path id="Path_1426" data-name="Path 1426" d="M450.832,21.58h-.71V23.46h-.278V21.58h-.7v-.25h1.692Z" transform="translate(-308.683 -14.66)" fill="#fff"/>
    <path id="Path_1427" data-name="Path 1427" d="M458.26,23.46h-.269V21.677l-.619,1.783h-.253l-.607-1.814-.006,1.814h-.275V21.33h.422l.507,1.507s.022.063.056.178a.644.644,0,0,1,.041.141l.119-.344.51-1.482h.375Z" transform="translate(-313.556 -14.66)" fill="#fff"/>
    <path id="Path_1428" data-name="Path 1428" d="M236.65,21.32h13.9v3.221h-9.741V29.1h8.963v3.218h-8.963v5.163h10.035V40.7H236.65Z" transform="translate(-162.644 -14.653)" fill="#fff"/>
    <path id="Path_1429" data-name="Path 1429" d="M306.408,40.7l-7.114-12.887-.053.056V40.7h-3.89V21.32H300.5l7.074,12.662.056-.053V21.32h3.887V40.7Z" transform="translate(-202.987 -14.653)" fill="#fff"/>
    <path id="Path_1430" data-name="Path 1430" d="M367.835,21.318h-6.6V40.7h6.6c6.045.053,9.8-2.955,9.8-9.691s-3.756-9.748-9.8-9.688m-.288,16.158H365.4V24.689h2.152c4.935-.056,5.663,3.23,5.663,6.317s-.729,6.53-5.663,6.47" transform="translate(-248.271 -14.651)" fill="#fff"/>
    <path id="Path_1431" data-name="Path 1431" d="M111.71,21.32h15.7v3.221h-5.77V40.7H117.48V24.541h-5.77Z" transform="translate(-76.776 -14.653)" fill="#fff"/>
    <path id="Path_1432" data-name="Path 1432" d="M185.16,32.494a5.673,5.673,0,0,0,3.7-5.338,5.939,5.939,0,0,0-.063-.857,5.527,5.527,0,0,0-2.843-4.109c-.188-.119-1.407-.873-5.01-.873-.072,0-.141,0-.21,0H172.51V40.7h4.156V33h4.4a72,72,0,0,1,3.068,7.693h5.113l-4.078-8.2Zm-8.5-7.89h4.91c1.648.025,2.68.619,2.865,2v.025c.006.047.009.1.013.144s.006.1.009.144V27.1c-.016,1.682-1.085,2.577-2.89,2.6h-4.91V24.607Z" transform="translate(-118.562 -14.65)" fill="#fff"/>
  </g>
</svg>
