<svg width="234" height="49" viewBox="0 0 234 49" fill="none" xmlns="http://www.w3.org/2000/svg">
<g clip-path="url(#clip0_1045_548)">
<path d="M233.75 21.8841V37.5853H227.99V22.9281C227.99 19.3537 226.451 17.363 223.466 17.363C220.482 17.363 218.497 19.451 217.948 22.9752C217.798 23.8187 217.751 25.1075 217.751 27.8443V37.5823H211.991V12.6415H217.096C217.108 12.8656 217.232 15.0951 217.241 15.2279C217.25 15.4077 217.459 15.4992 217.6 15.3871C219.724 13.7061 222.054 12.146 225.304 12.146C230.615 12.146 233.75 15.7734 233.75 21.8841Z" fill="white"/>
<path d="M202.677 12.6532L202.488 15.4991C202.476 15.682 202.258 15.7734 202.122 15.6525C201.429 14.986 198.843 12.1548 194.475 12.1548C188.214 12.1548 183.596 17.5665 183.593 24.9128H183.587C183.587 32.3623 188.158 37.7799 194.472 37.7799C198.681 37.7799 201.264 35.0519 201.736 34.4414C201.872 34.2763 202.134 34.3736 202.128 34.586C202.075 35.3468 201.96 37.249 201.332 38.8652C200.539 40.9089 198.74 42.8023 195.118 42.8023C192.139 42.8023 189.509 41.6609 187.02 39.2279L184.041 43.3538C186.772 46.4386 191.092 48.1786 195.767 48.1786C203.317 48.1786 207.841 43.0087 207.841 34.5624V12.6532H202.677ZM195.723 32.5717C191.998 32.5717 189.361 29.3453 189.361 24.9216C189.361 20.4979 191.998 17.3659 195.723 17.3659C199.447 17.3659 202.081 20.495 202.081 24.9216C202.081 29.3483 199.444 32.5717 195.723 32.5717Z" fill="white"/>
<path d="M171.563 30.1888C171.563 34.9133 167.584 38.0925 161.771 38.0925C157.2 38.0925 153.136 36.3083 150.691 33.7779L150.697 33.772H150.688L152.585 29.2569C154.416 30.9113 157.374 33.2795 161.58 33.2795C164.514 33.2795 166.201 31.9878 166.201 30.3451C166.201 28.4547 163.862 27.9563 161.081 27.4077C157.106 26.5672 151.842 25.2224 151.842 19.8049C151.842 15.2809 155.519 12.1548 160.934 12.1548C165.104 12.1548 168.687 13.7444 171.164 15.8324L168.327 19.8078C165.941 17.9204 163.411 16.9737 160.922 16.9737C158.433 16.9737 157.2 18.0206 157.2 19.5099C157.2 21.5979 159.887 22.1465 161.875 22.5417C166.844 23.5326 171.563 25.0278 171.563 30.1888Z" fill="white"/>
<path d="M87.2362 12.146C80.1848 12.146 75.1182 17.6167 75.1182 25.1163C75.1182 32.616 80.1818 38.0867 87.2362 38.0867C94.2905 38.0867 99.3601 32.6248 99.3601 25.1163C99.3601 17.6078 94.2876 12.146 87.2362 12.146ZM87.2362 32.8696C83.5144 32.8696 80.8778 29.6904 80.8778 25.1163C80.8778 20.5422 83.4613 17.363 87.2362 17.363C91.0111 17.363 93.5945 20.5452 93.5945 25.1163C93.5945 29.6875 90.961 32.8696 87.2362 32.8696Z" fill="white"/>
<path d="M101.382 25.1163C101.382 17.711 106.448 12.146 113.211 12.146C118.578 12.146 122.504 14.8327 124.338 19.8993L119.221 21.8369C117.832 18.7078 115.992 17.366 113.208 17.366C109.731 17.366 107.147 20.6454 107.147 25.1193C107.147 29.5931 109.728 32.8726 113.208 32.8726C115.992 32.8726 117.826 31.5278 119.221 28.4017L124.338 30.3393C122.504 35.4059 118.578 38.0926 113.211 38.0926C106.457 38.0926 101.382 32.5275 101.382 25.1222V25.1075V25.1134V25.1163Z" fill="white"/>
<path d="M70.5666 1.06592C70.4604 1.06592 70.3543 1.09246 70.2569 1.1426L66.4909 3.12737C66.4172 3.16571 66.3729 3.24238 66.3729 3.32496V15.2071C66.3729 15.4046 66.1429 15.4961 65.9954 15.3634C65.4439 14.8767 64.1434 13.6647 62.3355 12.833C61.4007 12.4024 60.0146 12.1488 58.77 12.1488C52.4618 12.1488 47.8877 17.6194 47.8877 25.1191C47.8877 32.6188 52.4589 38.0806 58.77 38.0806C62.0908 38.0806 64.571 36.3436 66.0869 34.7953C66.1901 34.6891 66.2461 34.6301 66.3375 34.5298C66.4702 34.3883 66.7091 34.4708 66.7209 34.6655L66.9185 37.5822H72.1355V1.21632C72.1355 1.13375 72.0677 1.06592 71.9851 1.06592H70.5666ZM60.0146 32.8695C56.2397 32.8695 53.6562 29.6903 53.6562 25.1162C53.6562 20.5421 56.2928 17.3629 60.0146 17.3629C63.7364 17.3629 66.3729 20.545 66.3729 25.1162C66.3729 29.6873 63.7924 32.8695 60.0146 32.8695Z" fill="white"/>
<path d="M178.352 12.7227L174.73 14.6337C174.657 14.6721 174.612 14.7487 174.612 14.8313V37.581H180.375V12.7964C180.375 12.7138 180.307 12.646 180.225 12.646H178.661C178.552 12.646 178.449 12.6725 178.352 12.7227Z" fill="white"/>
<path d="M177.487 8.60199C179.407 8.60199 180.961 7.04779 180.961 5.1279C180.961 3.20801 179.407 1.65381 177.487 1.65381C175.567 1.65381 174.013 3.20801 174.013 5.1279C174.013 7.04779 175.567 8.60199 177.487 8.60199Z" fill="white"/>
<path d="M28.2685 27.8305V37.7013C28.2685 38.2233 27.8438 38.648 27.3218 38.648H1.3871C0.865106 38.648 0.44043 38.2233 0.44043 37.7013V11.7606C0.44043 11.2386 0.865106 10.814 1.3871 10.814H11.252V26.8868C11.252 27.4088 11.6767 27.8335 12.1987 27.8335H28.2715L28.2685 27.8305Z" fill="#4C00FF"/>
<path d="M39.083 13.9126C39.083 22.2203 34.2435 27.8148 28.2656 27.8325V17.3749C28.2656 17.0741 28.1446 16.785 27.9323 16.5727L22.5088 11.1492C22.2965 10.9369 22.0075 10.816 21.7067 10.816H11.249V0.94814C11.249 0.426141 11.6737 0.00146484 12.1957 0.00146484H26.8293C33.7598 0.00146484 39.083 5.59009 39.083 13.9126Z" fill="#FF5252"/>
<path d="M27.9353 16.5736C28.1476 16.786 28.2685 17.075 28.2685 17.3758V27.8335H12.1957C11.6737 27.8335 11.249 27.4088 11.249 26.8868V10.814H21.7067C22.0075 10.814 22.2965 10.9349 22.5089 11.1472L27.9353 16.5736Z" fill="white"/>
<path d="M148.594 12.6431V26.1914C148.594 36.4603 142.84 38.0883 137.709 38.0883C132.577 38.0883 126.823 36.4603 126.823 26.1914V12.6431H132.577V28.1271C132.577 29.5928 132.946 32.8742 137.709 32.8742C142.471 32.8742 142.84 29.5928 142.84 28.1271V12.6431H148.594Z" fill="white"/>
</g>
<defs>
<clipPath id="clip0_1045_548">
<rect width="233.31" height="48.1772" fill="white" transform="translate(0.44043 0.00146484)"/>
</clipPath>
</defs>
</svg>
