<?xml version="1.0" encoding="UTF-8"?>
<svg version="1.1" xmlns="http://www.w3.org/2000/svg" width="1200" height="627">
<path d="M0 0 C396 0 792 0 1200 0 C1200 206.91 1200 413.82 1200 627 C804 627 408 627 0 627 C0 420.09 0 213.18 0 0 Z " fill="#241555" transform="translate(0,0)"/>
<path d="M0 0 C33 0 66 0 100 0 C100 20.46 100 40.92 100 62 C93.4 62 86.8 62 80 62 C80 48.14 80 34.28 80 20 C53.93 20 27.86 20 1 20 C1 33.86 1 47.72 1 62 C-5.93 62 -12.86 62 -20 62 C-20 48.14 -20 34.28 -20 20 C-13.4 20 -6.8 20 0 20 C0 13.4 0 6.8 0 0 Z " fill="#FDFDFD" transform="translate(145,208)"/>
<path d="M0 0 C22.98111483 -0.91014316 22.98111483 -0.91014316 31.078125 5.6953125 C39.06498949 13.98420128 40.57741838 22.90905753 40.47729492 34.01953125 C40.25527189 40.32373451 39.20012966 45.48866558 36 51 C35.4225 52.093125 34.845 53.18625 34.25 54.3125 C30.47652107 58.81971094 25.77975151 61.81677447 20 63 C18.41307361 63.07866959 16.82321751 63.10784114 15.234375 63.09765625 C14.34492188 63.09443359 13.45546875 63.09121094 12.5390625 63.08789062 C11.15847656 63.07532227 11.15847656 63.07532227 9.75 63.0625 C8.34621094 63.05573242 8.34621094 63.05573242 6.9140625 63.04882812 C4.60934753 63.03706938 2.30466554 63.01913468 0 63 C0 60.03 0 57.06 0 54 C-3.63 54 -7.26 54 -11 54 C-11 39.48 -11 24.96 -11 10 C-7.37 10 -3.74 10 0 10 C0 6.7 0 3.4 0 0 Z " fill="#0AF662" transform="translate(368,209)"/>
<path d="M0 0 C34.98 0 69.96 0 106 0 C106 6.93 106 13.86 106 21 C71.02 21 36.04 21 0 21 C0 14.07 0 7.14 0 0 Z " fill="#F8F7F9" transform="translate(108,321)"/>
<path d="M0 0 C34.65 0 69.3 0 105 0 C105 6.6 105 13.2 105 20 C70.35 20 35.7 20 0 20 C0 13.4 0 6.8 0 0 Z " fill="#FEFDFE" transform="translate(108,364)"/>
<path d="M0 0 C34.65 0 69.3 0 105 0 C105 6.6 105 13.2 105 20 C70.35 20 35.7 20 0 20 C0 13.4 0 6.8 0 0 Z " fill="#FEFDFE" transform="translate(108,280)"/>
<path d="M0 0 C8.19930394 4.87342734 11.67758253 12.27030511 13.984375 21.24609375 C14.375 23.875 14.375 23.875 14.375 30.875 C-1.135 30.875 -16.645 30.875 -32.625 30.875 C-30.62112107 42.81326482 -30.62112107 42.81326482 -23.125 50.8125 C-16.3882329 52.85759001 -8.67522643 53.20157325 -2.125 50.3125 C1.87054827 47.96765493 3.97499506 44.77500803 6.375 40.875 C8.355 41.535 10.335 42.195 12.375 42.875 C11.44403952 48.08837867 8.22069866 51.40674954 4.375 54.875 C-3.72300375 59.58095913 -12.05540284 61.30066038 -21.2890625 59.296875 C-28.16375891 56.95564712 -32.6233488 52.88709616 -36.625 46.875 C-38.0007444 43.92765869 -38.90219159 41.04040235 -39.625 37.875 C-39.851875 37.05 -40.07875 36.225 -40.3125 35.375 C-41.65431809 24.6404553 -39.75334742 14.71810715 -33.375 5.8203125 C-25.17217613 -3.29800511 -10.92114489 -5.1393623 0 0 Z " fill="#F4F1F7" transform="translate(959.625,327.125)"/>
<path d="M0 0 C8.38746576 4.99478298 12.03910992 11.50732215 14.44140625 20.78515625 C14.88853021 24.17388522 14.73828125 27.6170568 14.73828125 31.03515625 C-0.77171875 31.03515625 -16.28171875 31.03515625 -32.26171875 31.03515625 C-30.07008691 42.23986947 -30.07008691 42.23986947 -23.44921875 50.34765625 C-17.84331264 53.25795644 -11.36254362 52.85141425 -5.26171875 52.03515625 C0.04042197 50.04787156 3.54516895 46.69177835 6.73828125 42.03515625 C9.70828125 42.53015625 9.70828125 42.53015625 12.73828125 43.03515625 C12.06150747 48.2938714 9.94344096 50.60496967 6.17578125 54.1640625 C-0.6485487 59.40261065 -8.81382373 61.13228547 -17.26171875 60.03515625 C-25.37450053 58.52077032 -31.07197331 54.46363778 -35.87109375 47.80078125 C-39.1858058 41.80450439 -39.70948687 36.12456454 -39.76171875 29.41015625 C-39.76816406 28.62286133 -39.77460937 27.83556641 -39.78125 27.02441406 C-39.59768697 18.5628645 -37.28412653 10.22699238 -31.26171875 4.03515625 C-22.3777605 -2.67562239 -10.44535822 -4.80889083 0 0 Z " fill="#F5F3F8" transform="translate(616.26171875,326.96484375)"/>
<path d="M0 0 C8.41451018 8.41451018 9.3125 16.47453631 9.3125 28.3125 C-6.1975 28.3125 -21.7075 28.3125 -37.6875 28.3125 C-34.88734075 40.06212258 -34.88734075 40.06212258 -26.6875 48.3125 C-21.9078086 50.7023457 -14.566069 49.95050744 -9.44921875 48.81640625 C-5.33042395 47.19993911 -2.60532915 44.55453239 0.3125 41.3125 C1.3125 40.3125 2.3125 39.3125 3.3125 38.3125 C4.9625 38.9725 6.6125 39.6325 8.3125 40.3125 C6.53896535 45.79433437 3.81953768 49.79690024 -1.09765625 52.76953125 C-9.21902805 56.91992302 -17.04719334 59.05387584 -26.16015625 56.6640625 C-33.57895288 53.68636368 -38.7291599 48.88905298 -42.0625 41.625 C-45.92050175 32.18128266 -46.02651082 20.98138914 -42.6875 11.3125 C-38.85364335 3.95751821 -34.1548192 -1.38058315 -26.125 -4.1484375 C-16.71807325 -6.22881553 -8.12138593 -5.09947489 0 0 Z " fill="#F6F4F9" transform="translate(812.6875,329.6875)"/>
<path d="M0 0 C1.33335154 0.71227097 2.64959762 1.45850539 3.9375 2.25 C5.29875 3.0853125 5.29875 3.0853125 6.6875 3.9375 C14.55008095 12.01848598 14.9375 20.0805277 14.9375 31.25 C-0.2425 31.25 -15.4225 31.25 -31.0625 31.25 C-29.47491401 41.62266691 -29.47491401 41.62266691 -23.4453125 49.56640625 C-17.69670529 52.98933212 -11.57277727 53.09992853 -5.0625 52.25 C1.43020513 50.44231109 4.48225662 46.86477049 7.9375 41.25 C9.9175 41.91 11.8975 42.57 13.9375 43.25 C12.97678602 48.51049483 9.84432823 51.76422569 5.9375 55.25 C-1.92685997 60.32652958 -9.35339317 61.47873431 -18.47265625 59.80859375 C-25.43569738 57.90958253 -30.5304151 53.88162549 -34.63671875 47.9921875 C-40.20684586 38.06491225 -39.97616429 27.03055787 -37.0625 16.25 C-34.12698493 7.86957794 -29.68780247 2.98714382 -21.734375 -0.8828125 C-14.91071693 -3.09750854 -6.59848754 -2.81683333 0 0 Z " fill="#F5F3F8" transform="translate(457.0625,326.75)"/>
<path d="M0 0 C4.91954674 3.00758316 8.42777254 8.25848057 10.09765625 13.72265625 C10.60638668 17.97377142 10.4375 22.28105319 10.4375 26.5625 C-0.7825 26.5625 -12.0025 26.5625 -23.5625 26.5625 C-21.51772918 32.5606363 -21.51772918 32.5606363 -17.5625 36.5625 C-12.63837479 37.59497787 -9.04005648 38.24903389 -4.5625 35.5625 C-2.75901922 33.54932781 -2.75901922 33.54932781 -1.5625 31.5625 C-0.10346742 31.87171884 1.35470722 32.18498799 2.8125 32.5 C3.62460937 32.67402344 4.43671875 32.84804688 5.2734375 33.02734375 C7.4375 33.5625 7.4375 33.5625 9.4375 34.5625 C8.85411146 38.50037261 7.19478395 40.73451647 4.4375 43.5625 C-2.71060864 47.88595281 -9.21191713 49.50248708 -17.5625 48.5625 C-24.87347815 46.32742954 -29.95075536 42.31011753 -33.5625 35.5625 C-36.43819871 28.22347726 -36.94614056 20.76758553 -34.46484375 13.2265625 C-31.52546537 6.87750519 -28.71653422 2.92980175 -22.5625 -0.4375 C-16.03307966 -2.61397345 -6.42337272 -2.7493035 0 0 Z " fill="#08F65F" transform="translate(447.5625,225.4375)"/>
<path d="M0 0 C5.44255944 2.54123286 8.1778499 6.17549513 11.12890625 11.33984375 C12.37890625 15.27734375 12.37890625 15.27734375 12.37890625 27.27734375 C1.15890625 27.27734375 -10.06109375 27.27734375 -21.62109375 27.27734375 C-19.0098229 34.35599757 -19.0098229 34.35599757 -13.62109375 38.27734375 C-10.11660857 38.56024288 -6.99219931 38.28867542 -3.62109375 37.27734375 C-2.79609375 36.39046875 -1.97109375 35.50359375 -1.12109375 34.58984375 C1.37890625 32.27734375 1.37890625 32.27734375 3.86328125 32.32421875 C6.47647722 32.81142478 8.8959264 33.32553481 11.37890625 34.27734375 C11.70890625 34.93734375 12.03890625 35.59734375 12.37890625 36.27734375 C8.31823977 42.92957379 3.90590779 46.93801665 -3.62109375 49.27734375 C-11.77364921 50.45657291 -18.35143492 48.85899793 -25.30859375 44.65234375 C-30.70342508 39.11170617 -33.69239785 32.42041816 -33.93359375 24.71484375 C-33.82252255 17.86881902 -32.30324832 11.34423361 -27.71484375 6.09765625 C-19.66183124 -1.14404529 -10.58192368 -2.91751994 0 0 Z " fill="#0AF361" transform="translate(580.62109375,224.72265625)"/>
<path d="M0 0 C0.67740234 -0.01160156 1.35480469 -0.02320313 2.05273438 -0.03515625 C7.17128792 -0.00571107 10.6045169 1.05463364 15.0625 3.375 C19.86628042 8.55802625 20.20328795 12.02289467 20.16015625 18.8828125 C20.1587413 19.72343231 20.15732635 20.56405212 20.15586853 21.43014526 C20.15026237 24.12013275 20.13770886 26.81003759 20.125 29.5 C20.11998579 31.32161338 20.11542275 33.14322807 20.11132812 34.96484375 C20.10029094 39.43492777 20.0830222 43.90494986 20.0625 48.375 C17.0925 48.375 14.1225 48.375 11.0625 48.375 C10.5675 46.395 10.5675 46.395 10.0625 44.375 C9.36125 44.99375 8.66 45.6125 7.9375 46.25 C2.20201619 50.48927064 -3.95904377 51.40725238 -10.9375 50.375 C-15.63832997 48.59930706 -18.31067876 46.36271832 -21 42.125 C-22.15083558 37.52165767 -22.28357685 33.93670487 -20.9375 29.375 C-17.43319776 23.80934351 -13.12576062 21.45119956 -6.91943359 19.85644531 C-4.84753442 19.42330593 -2.77394802 19.04367536 -0.6875 18.6875 C0.01890625 18.55794922 0.7253125 18.42839844 1.453125 18.29492188 C4.3646873 17.7738184 7.09892906 17.375 10.0625 17.375 C7.99090219 13.17707855 7.99090219 13.17707855 4.2265625 10.6484375 C-0.61144847 9.85137056 -3.78147907 10.60431938 -7.9375 13.375 C-8.9275 14.86 -8.9275 14.86 -9.9375 16.375 C-17.6875 14.5 -17.6875 14.5 -19.9375 13.375 C-18.18611794 8.26680231 -15.95936931 4.61738942 -11.29296875 1.75 C-7.43053835 0.16725786 -4.10303553 -0.06987194 0 0 Z " fill="#07F85E" transform="translate(617.9375,223.625)"/>
<path d="M0 0 C4.96032222 3.57069578 9.5941727 7.76581087 11.73046875 13.640625 C11.85546875 16.890625 11.85546875 16.890625 11.73046875 19.640625 C9.75046875 19.640625 7.77046875 19.640625 5.73046875 19.640625 C5.21484375 18.444375 4.69921875 17.248125 4.16796875 16.015625 C1.39913572 10.49752667 -2.35061091 6.81383746 -8.09765625 4.50390625 C-14.12143539 2.86442942 -20.85930353 2.35914191 -26.78515625 4.5859375 C-30.69069543 6.88586613 -33.62121706 9.31380024 -35.26953125 13.640625 C-35.8773908 17.89564187 -35.86845891 19.80985437 -33.33203125 23.328125 C-25.70903832 29.08426252 -16.2167431 31.3336285 -7.17773438 33.99609375 C1.17719835 36.54818792 6.46377075 39.56820197 11.73046875 46.640625 C13.77955361 52.78787957 13.23332511 58.92811522 10.703125 64.859375 C7.24902474 71.18495621 1.03176232 74.32010757 -5.39453125 76.890625 C-15.12622626 78.77417887 -24.44114708 78.42935459 -33.26953125 73.640625 C-38.5234529 69.89919595 -43.17911543 65.91187246 -45.26953125 59.640625 C-45.45703125 56.765625 -45.45703125 56.765625 -45.26953125 54.640625 C-42.58203125 54.140625 -42.58203125 54.140625 -39.26953125 54.640625 C-37.76681514 56.49532867 -36.70395377 58.44687908 -35.55078125 60.53515625 C-32.70078735 65.21853037 -28.45320132 67.9922613 -23.26953125 69.640625 C-20.61307972 69.88135717 -18.11077388 70.02151876 -15.45703125 70.015625 C-14.74651611 70.01473877 -14.03600098 70.01385254 -13.30395508 70.01293945 C-6.79671157 69.86587889 -2.55060628 68.54582508 2.3671875 64.19140625 C5.38893824 60.75405655 5.13672451 56.41977577 5.0546875 52.078125 C4.87434433 49.42581366 4.87434433 49.42581366 2.91796875 46.765625 C-2.86088015 42.91305906 -9.32772998 41.22280432 -15.9296875 39.234375 C-16.75710449 38.98163818 -17.58452148 38.72890137 -18.43701172 38.46850586 C-20.07699051 37.97041116 -21.72045985 37.48362188 -23.36767578 37.01000977 C-31.34569521 34.60334866 -38.26762044 31.30424042 -42.421875 23.8125 C-44.483212 18.53091765 -43.95977131 13.60951976 -41.76953125 8.453125 C-38.28058652 2.32917307 -32.90685334 -1.03595082 -26.33203125 -3.234375 C-17.21217083 -5.57351477 -8.20952933 -4.9172396 0 0 Z " fill="#F4F2F8" transform="translate(398.26953125,309.359375)"/>
<path d="M0 0 C4.41848368 3.59226315 7.55716509 8.19629232 9.75 13.4375 C9.90625 16.24609375 9.90625 16.24609375 9.75 18.4375 C7.44 18.4375 5.13 18.4375 2.75 18.4375 C2.399375 17.24125 2.04875 16.045 1.6875 14.8125 C-0.41406533 9.19504574 -4.24934765 5.93527025 -9.54296875 3.29296875 C-12.85411334 2.24658972 -15.71721305 2.13630387 -19.1875 2.125 C-20.37214844 2.10824219 -21.55679688 2.09148437 -22.77734375 2.07421875 C-28.08179581 2.62912768 -31.26697779 4.51858794 -35.125 8.125 C-37.93975255 12.51270251 -37.9832094 14.30503421 -37.25 19.4375 C-34.37029752 24.0947966 -31.02490905 25.74391504 -26 27.4375 C-25.30342285 27.68677246 -24.6068457 27.93604492 -23.88916016 28.19287109 C-20.23638779 29.48088072 -16.5575793 30.6641696 -12.8515625 31.7890625 C-12.14290039 32.00433594 -11.43423828 32.21960938 -10.70410156 32.44140625 C-9.3578838 32.8435643 -8.00837304 33.2349232 -6.65527344 33.61328125 C-0.79911344 35.3272793 4.96772434 38.41554764 8.8359375 43.26953125 C11.05633172 48.53585088 10.46280946 54.87758619 9.75 60.4375 C6.7979994 67.64967639 2.11544651 71.58439137 -4.875 74.8125 C-14.09568385 78.16165417 -24.33539013 77.3682348 -33.25 73.4375 C-39.78219329 70.08256553 -44.18981446 66.18098578 -47.25 59.4375 C-48.0625 56.4375 -48.0625 56.4375 -48.25 54.4375 C-44.785 53.9425 -44.785 53.9425 -41.25 53.4375 C-40.981875 54.02917969 -40.71375 54.62085938 -40.4375 55.23046875 C-37.46120905 61.23200281 -34.41579756 64.69169751 -28.25 67.4375 C-21.46915097 69.70262302 -12.37035355 69.50269354 -5.625 67.25 C-1.03514961 64.78508035 1.10971714 62.35834858 2.75 57.4375 C3.39411678 51.55263186 3.39411678 51.55263186 0.75 46.3671875 C-2.46188737 42.76530956 -6.08507631 41.67287952 -10.625 40.375 C-11.41503418 40.12806396 -12.20506836 39.88112793 -13.01904297 39.62670898 C-16.14431937 38.6515099 -19.28160621 37.7207095 -22.42382812 36.80175781 C-37.82439849 32.26917288 -37.82439849 32.26917288 -43.25 25.4375 C-45.67556282 20.78850459 -46.08168738 15.59396174 -45.25 10.4375 C-42.78446911 4.14179554 -38.11745584 -0.34861428 -32.25 -3.5625 C-21.56477517 -7.51014967 -9.48098704 -6.3748351 0 0 Z " fill="#F5F2F8" transform="translate(750.25,310.5625)"/>
<path d="M0 0 C4.53153048 3.96508917 7.45497029 8.48680198 8.25933838 14.59405518 C8.61762418 19.97853917 8.45677413 25.36013643 8.3125 30.75 C8.28737237 32.39059081 8.26456712 34.03121892 8.24414062 35.671875 C8.18952798 39.65718482 8.1035097 43.64067262 8 47.625 C4.37 47.625 0.74 47.625 -3 47.625 C-3.01458252 46.71210205 -3.02916504 45.7992041 -3.04418945 44.85864258 C-3.10540795 41.45701389 -3.17958873 38.05617319 -3.26245117 34.6550293 C-3.29561259 33.18573578 -3.32367178 31.71631756 -3.34643555 30.24682617 C-3.38014519 28.12885632 -3.43246433 26.01202005 -3.48828125 23.89453125 C-3.51446533 22.62198486 -3.54064941 21.34943848 -3.56762695 20.03833008 C-4.02766765 16.40658025 -4.79552818 14.51542309 -7 11.625 C-10.67294875 9.1763675 -13.73268965 8.79316562 -18 9.625 C-21.21954645 12.15953657 -22.70432435 13.73797305 -24 17.625 C-24.15145099 19.9075699 -24.24886979 22.19387706 -24.31640625 24.48046875 C-24.33718735 25.14210526 -24.35796844 25.80374176 -24.37937927 26.48542786 C-24.44464727 28.59434852 -24.50365344 30.70339135 -24.5625 32.8125 C-24.60570689 34.24415315 -24.64932188 35.67579404 -24.69335938 37.10742188 C-24.80030506 40.61315154 -24.90163641 44.11901786 -25 47.625 C-28.63 47.625 -32.26 47.625 -36 47.625 C-36 31.785 -36 15.945 -36 -0.375 C-32.7 -0.375 -29.4 -0.375 -26 -0.375 C-25.67 0.945 -25.34 2.265 -25 3.625 C-24.236875 2.985625 -23.47375 2.34625 -22.6875 1.6875 C-16.83669608 -2.80265184 -6.69507055 -3.15497794 0 0 Z " fill="#0AF260" transform="translate(535,225.375)"/>
<path d="M0 0 C16 0 16 0 22 3 C23.86328125 4.90234375 23.86328125 4.90234375 25.3125 6.9375 C25.80363281 7.60652344 26.29476563 8.27554688 26.80078125 8.96484375 C30.29106948 14.88810163 29.52360299 22.37496773 29 29 C27.49955511 34.79791477 25.1547339 38.74437859 20 42 C14.02970315 44.98514842 6.6749948 43 0 43 C0 28.81 0 14.62 0 0 Z " fill="#221654" transform="translate(368,219)"/>
<path d="M0 0 C2.87129412 2.17641472 4.69503879 4.28891024 6.1875 7.625 C6.1875 8.615 6.1875 9.605 6.1875 10.625 C3.8775 10.955 1.5675 11.285 -0.8125 11.625 C-1.369375 10.696875 -1.92625 9.76875 -2.5 8.8125 C-5.63436974 4.49215253 -8.67583944 2.70940612 -13.8125 1.625 C-20.20690893 0.8918065 -25.64497191 1.5720368 -30.8125 5.625 C-37.52396236 13.75203134 -37.54440839 22.48136817 -36.8125 32.625 C-35.2632754 39.49470453 -32.63027387 43.7043263 -26.8125 47.625 C-21.60518929 50.22865535 -13.67777962 49.22455416 -8.3125 47.5 C-6.07659731 45.82307298 -4.97849636 44.57788637 -3.375 42.375 C-2.529375 41.4675 -1.68375 40.56 -0.8125 39.625 C3 39.75 3 39.75 6.1875 40.625 C4.18182233 46.82436735 0.85803668 50.99091131 -4.875 53.9375 C-11.59393025 57.09074053 -19.11490815 57.97135031 -26.3203125 55.90625 C-34.37625001 52.52002542 -39.00691507 48.03381582 -42.83203125 40.22265625 C-46.2333847 31.21110228 -46.29109465 19.459119 -42.71875 10.51171875 C-39.39192167 3.58560633 -34.7165729 -1.69089012 -27.625 -4.75 C-17.25169405 -6.45054196 -8.81826676 -5.82373034 0 0 Z " fill="#F6F3F9" transform="translate(525.8125,330.375)"/>
<path d="M0 0 C2.31 0 4.62 0 7 0 C7 5.28 7 10.56 7 16 C12.94 16 18.88 16 25 16 C25 18.31 25 20.62 25 23 C19.06 23 13.12 23 7 23 C7.02809484 28.74922691 7.07115297 34.49428249 7.15258789 40.24243164 C7.17575551 42.19677389 7.19016071 44.15124077 7.19555664 46.10571289 C7.20485532 48.91892043 7.24586475 51.73017112 7.29296875 54.54296875 C7.2890361 55.41398727 7.28510345 56.2850058 7.28105164 57.18241882 C7.38652199 61.58781362 7.57894739 63.45399661 10.34960938 67.046875 C13.51754709 69.38139063 15.41122639 69.68388658 19.3125 69.8125 C20.38113281 69.86019531 21.44976563 69.90789062 22.55078125 69.95703125 C23.76314453 69.97830078 23.76314453 69.97830078 25 70 C25.042721 71.66611905 25.04063832 73.33382885 25 75 C23.15526785 76.84473215 20.28789953 76.21643526 17.8125 76.25 C11.75721962 76.20357397 8.11312594 75.33484446 3.25 71.6875 C-0.57343327 66.52586509 -0.26813914 60.55401076 -0.1953125 54.4453125 C-0.1924826 53.54376434 -0.18965271 52.64221619 -0.18673706 51.71334839 C-0.17559439 48.85042724 -0.1505008 45.98782566 -0.125 43.125 C-0.11496255 41.17708787 -0.10583804 39.22917081 -0.09765625 37.28125 C-0.07567443 32.5207113 -0.0411855 27.76040973 0 23 C-4.29 23 -8.58 23 -13 23 C-13 20.69 -13 18.38 -13 16 C-8.71 16 -4.42 16 0 16 C0 10.72 0 5.44 0 0 Z " fill="#EBE8F0" transform="translate(649,310)"/>
<path d="M0 0 C12.87 0 25.74 0 39 0 C39 6.6 39 13.2 39 20 C26.13 20 13.26 20 0 20 C0 13.4 0 6.8 0 0 Z " fill="#07FA60" transform="translate(223,364)"/>
<path d="M0 0 C12.87 0 25.74 0 39 0 C39 6.6 39 13.2 39 20 C26.13 20 13.26 20 0 20 C0 13.4 0 6.8 0 0 Z " fill="#07FA60" transform="translate(223,322)"/>
<path d="M0 0 C12.87 0 25.74 0 39 0 C39 6.6 39 13.2 39 20 C26.13 20 13.26 20 0 20 C0 13.4 0 6.8 0 0 Z " fill="#07FA60" transform="translate(223,280)"/>
<path d="M0 0 C2.31 0 4.62 0 7 0 C12.92674106 15.5804586 18.60786949 31.22640484 24 47 C26.94385075 44.05614925 27.81040268 40.34361421 29.15234375 36.484375 C29.45314346 35.63578918 29.75394318 34.78720337 30.06385803 33.91290283 C31.02714931 31.19381094 31.98293924 28.47216799 32.9375 25.75 C33.88910536 23.04234437 34.84241787 20.33533957 35.8004303 17.62994385 C36.39647424 15.94621694 36.98881174 14.26117194 37.57688904 12.574646 C39.1192013 8.21222158 40.82124022 4.097038 43 0 C44.98 0 46.96 0 49 0 C48.36263372 5.53880277 46.47701 10.29931883 44.4375 15.4375 C40.99989625 24.25243105 37.81317697 33.12978426 34.79077148 42.09545898 C32.81847951 47.88205508 30.5878094 53.46052363 28 59 C25.69 59 23.38 59 21 59 C20.71914551 58.23260498 20.43829102 57.46520996 20.14892578 56.67456055 C19.05586163 53.68869949 17.96235621 50.70300047 16.86856079 47.71740723 C16.37376725 46.36662999 15.87911746 45.0158001 15.38461304 43.66491699 C12.62411325 36.12453453 9.85303861 28.58847335 7.04296875 21.06640625 C6.58325684 19.8338208 6.12354492 18.60123535 5.64990234 17.33129883 C4.76885797 14.97203635 3.88513424 12.61377246 2.99853516 10.2565918 C2.40564697 8.66778198 2.40564697 8.66778198 1.80078125 7.046875 C1.45184814 6.11713867 1.10291504 5.18740234 0.7434082 4.22949219 C0 2 0 2 0 0 Z " fill="#F4F2F7" transform="translate(866,326)"/>
<path d="M0 0 C5.34190355 3.18459635 9.67156881 7.78161837 11.25 13.9375 C11.25 15.9175 11.25 17.8975 11.25 19.9375 C-1.95 19.9375 -15.15 19.9375 -28.75 19.9375 C-27.73579542 11.82386336 -26.39030514 6.64378226 -19.92578125 1.48046875 C-13.52928981 -2.19135088 -6.93479814 -1.96485947 0 0 Z " fill="#291D58" transform="translate(803.75,332.0625)"/>
<path d="M0 0 C5.08806841 3.00968332 7.33448861 7.78142879 9.26953125 13.10546875 C9.75 15.03515625 9.75 15.03515625 9.75 19.03515625 C-3.45 19.03515625 -16.65 19.03515625 -30.25 19.03515625 C-29.27620161 10.27097074 -28.52007321 6.75184331 -22.1875 1.22265625 C-15.76331939 -3.56130803 -7.19210318 -3.11754473 0 0 Z " fill="#291C57" transform="translate(614.25,332.96484375)"/>
<path d="M0 0 C5.52189599 3.13990164 8.92353892 6.85470768 11.1875 12.8125 C11.1875 15.1225 11.1875 17.4325 11.1875 19.8125 C-2.0125 19.8125 -15.2125 19.8125 -28.8125 19.8125 C-26.63175839 9.99916277 -24.54959644 5.57416756 -16.8125 -0.1875 C-11.18257653 -2.06414116 -5.626553 -1.7525329 0 0 Z " fill="#291D58" transform="translate(453.8125,332.1875)"/>
<path d="M0 0 C4.22587334 2.48529846 6.26183562 5.12820025 8.625 9.4375 C9.285 12.7375 9.945 16.0375 10.625 19.4375 C-2.575 19.4375 -15.775 19.4375 -29.375 19.4375 C-28.40120161 10.67331449 -27.64507321 7.15418706 -21.3125 1.625 C-15.26415525 -2.87908652 -6.86055013 -3.0578452 0 0 Z " fill="#281B57" transform="translate(956.375,332.5625)"/>
<path d="M0 0 C3.3 0 6.6 0 10 0 C10 20.79 10 41.58 10 63 C6.7 63 3.4 63 0 63 C0 42.21 0 21.42 0 0 Z " fill="#0BF862" transform="translate(463,209)"/>
<path d="M0 0 C1.98 0 3.96 0 6 0 C6.33 2.31 6.66 4.62 7 7 C7.47050781 6.57847656 7.94101562 6.15695312 8.42578125 5.72265625 C9.04839844 5.17480469 9.67101562 4.62695312 10.3125 4.0625 C10.92738281 3.51722656 11.54226563 2.97195313 12.17578125 2.41015625 C15.55070603 -0.19872564 18.58138541 -0.11080723 22.6875 -0.0625 C23.68136719 -0.05347656 24.67523437 -0.04445313 25.69921875 -0.03515625 C26.83810547 -0.01775391 26.83810547 -0.01775391 28 0 C28 1.98 28 3.96 28 6 C26.78763672 6.12955078 26.78763672 6.12955078 25.55078125 6.26171875 C18.83268166 7.09819761 18.83268166 7.09819761 12.9375 10.1875 C8.57091767 16.52608725 7.5472065 21.68128043 7.48828125 29.21484375 C7.47033005 30.07058487 7.45237885 30.92632599 7.43388367 31.80799866 C7.38007969 34.51778361 7.34598187 37.2273955 7.3125 39.9375 C7.27930044 41.78452914 7.24480836 43.63153552 7.20898438 45.47851562 C7.12437078 49.98555158 7.05741787 54.49253888 7 59 C4.69 59 2.38 59 0 59 C0 39.53 0 20.06 0 0 Z " fill="#F1EFF6" transform="translate(985,326)"/>
<path d="M0 0 C1.98 0 3.96 0 6 0 C6.33 2.31 6.66 4.62 7 7 C7.47050781 6.57847656 7.94101562 6.15695312 8.42578125 5.72265625 C9.04839844 5.17480469 9.67101562 4.62695312 10.3125 4.0625 C10.92738281 3.51722656 11.54226563 2.97195313 12.17578125 2.41015625 C15.55070603 -0.19872564 18.58138541 -0.11080723 22.6875 -0.0625 C23.68136719 -0.05347656 24.67523437 -0.04445313 25.69921875 -0.03515625 C26.83810547 -0.01775391 26.83810547 -0.01775391 28 0 C28 1.98 28 3.96 28 6 C27.34773437 6.02578125 26.69546875 6.0515625 26.0234375 6.078125 C20.28727179 6.45038354 16.47124297 7.07403056 12 11 C8.97152772 15.17720315 7.91055853 18.93542481 7.79467773 24.03417969 C7.77473251 24.81468689 7.75478729 25.59519409 7.73423767 26.39935303 C7.71752518 27.23178528 7.70081268 28.06421753 7.68359375 28.921875 C7.66281265 29.78186096 7.64203156 30.64184692 7.62062073 31.52789307 C7.55536261 34.26851598 7.49635083 37.00923275 7.4375 39.75 C7.39429219 41.6106867 7.35067718 43.47136398 7.30664062 45.33203125 C7.19970558 49.88792523 7.09837149 54.4439134 7 59 C4.69 59 2.38 59 0 59 C0 39.53 0 20.06 0 0 Z " fill="#F2F0F8" transform="translate(543,326)"/>
<path d="M0 0 C1.98 0 3.96 0 6 0 C6.33 2.31 6.66 4.62 7 7 C7.47050781 6.57847656 7.94101562 6.15695312 8.42578125 5.72265625 C9.04839844 5.17480469 9.67101562 4.62695312 10.3125 4.0625 C10.92738281 3.51722656 11.54226563 2.97195313 12.17578125 2.41015625 C15.40849017 -0.08879005 18.25300157 -0.11359738 22.1875 -0.0625 C23.08855469 -0.05347656 23.98960937 -0.04445313 24.91796875 -0.03515625 C25.60503906 -0.02355469 26.29210937 -0.01195312 27 0 C27 1.98 27 3.96 27 6 C26.12988281 6.03867187 26.12988281 6.03867187 25.2421875 6.078125 C19.78846817 6.47410462 16.23063728 7.26129728 12 11 C8.05872891 16.63496955 7.40031481 20.86435582 7.390625 27.65234375 C7.37408875 28.55247696 7.35755249 29.45261017 7.34051514 30.38002014 C7.29223881 33.23258425 7.27070972 36.08461605 7.25 38.9375 C7.22182325 40.88088586 7.19189345 42.82424715 7.16015625 44.76757812 C7.08648542 49.51167489 7.0367866 54.25547968 7 59 C4.69 59 2.38 59 0 59 C0 39.53 0 20.06 0 0 Z " fill="#F3F1F6" transform="translate(834,326)"/>
<path d="M0 0 C3.63 0 7.26 0 11 0 C11 15.84 11 31.68 11 48 C7.37 48 3.74 48 0 48 C0 32.16 0 16.32 0 0 Z " fill="#02FE5B" transform="translate(481,225)"/>
<path d="M0 0 C2.5 2.4375 2.5 2.4375 4 5 C4 5.66 4 6.32 4 7 C3.04746338 7.19577637 3.04746338 7.19577637 2.07568359 7.39550781 C-0.8275399 8.0001916 -3.7261085 8.62489225 -6.625 9.25 C-7.62402344 9.45496094 -8.62304688 9.65992188 -9.65234375 9.87109375 C-16.49143939 11.36573055 -21.56930898 12.7852151 -25.9375 18.5625 C-27.46611319 23.50801327 -26.74750911 27.93855279 -26 33 C-26.99 32.505 -26.99 32.505 -28 32 C-28.99 25.565 -28.99 25.565 -30 19 C-40.89 19 -51.78 19 -63 19 C-63 19.99 -63 20.98 -63 22 C-62.01 22.33 -61.02 22.66 -60 23 C-60.33 24.32 -60.66 25.64 -61 27 C-65 22.5 -65 22.5 -65 18 C-53.78 18 -42.56 18 -31 18 C-31 14.04 -31 10.08 -31 6 C-30.01 5.34 -29.02 4.68 -28 4 C-27.27617533 1.94074861 -27.27617533 1.94074861 -27 0 C-26.34 0.33 -25.68 0.66 -25 1 C-25.33 1.66 -25.66 2.32 -26 3 C-22.67255706 4.01438552 -19.48443484 4.83967324 -16 5 C-12.99820559 2.83255116 -12.99820559 2.83255116 -11 0 C-7.16562124 -1.27812625 -3.83490983 -1.14970134 0 0 Z " fill="#102946" transform="translate(624,234)"/>
<path d="M0 0 C1.98 0 3.96 0 6 0 C6 0.99 6 1.98 6 3 C9.465 2.505 9.465 2.505 13 2 C12.25 8.625 12.25 8.625 10 12 C9.34 12 8.68 12 8 12 C8 22.56 8 33.12 8 44 C5.36 44 2.72 44 0 44 C0 29.48 0 14.96 0 0 Z " fill="#01FD5A" transform="translate(501,227)"/>
<path d="M0 0 C3.96 0 7.92 0 12 0 C11.98839844 1.07121094 11.97679687 2.14242187 11.96484375 3.24609375 C11.95546701 4.64322743 11.94636669 6.04036299 11.9375 7.4375 C11.92912109 8.14455078 11.92074219 8.85160156 11.91210938 9.58007812 C11.90346412 11.38693559 11.94779989 13.19387603 12 15 C12.33 15.33 12.66 15.66 13 16 C13.09311889 17.50418739 13.11746028 19.01271356 13.11352539 20.51977539 C13.11344986 21.48069595 13.11337433 22.44161652 13.11329651 23.43165588 C13.10813522 24.476436 13.10297394 25.52121613 13.09765625 26.59765625 C13.0962413 27.66165146 13.09482635 28.72564667 13.09336853 29.82188416 C13.08775064 33.23545083 13.07519511 36.648953 13.0625 40.0625 C13.05748731 42.37044176 13.052924 44.67838455 13.04882812 46.98632812 C13.0377754 52.65757426 13.02101987 58.32878253 13 64 C12.67 64 12.34 64 12 64 C12 48.49 12 32.98 12 17 C8.37 17 4.74 17 1 17 C1 32.84 1 48.68 1 65 C4.3 65 7.6 65 11 65 C11 65.33 11 65.66 11 66 C9.18757948 66.02687279 7.37504767 66.04633715 5.5625 66.0625 C4.55316406 66.07410156 3.54382813 66.08570313 2.50390625 66.09765625 C0 66 0 66 -1 65 C-1.0983867 63.47595193 -1.12798534 61.94738587 -1.12939453 60.42016602 C-1.13254669 59.44568008 -1.13569885 58.47119415 -1.13894653 57.46717834 C-1.1369223 56.40679855 -1.13489807 55.34641876 -1.1328125 54.25390625 C-1.13376923 53.17245834 -1.13472595 52.09101044 -1.13571167 50.97679138 C-1.13639371 48.68431541 -1.13453777 46.39183752 -1.13037109 44.09936523 C-1.12502836 40.58117345 -1.13031264 37.06310963 -1.13671875 33.54492188 C-1.13605787 31.32291638 -1.13477651 29.10091097 -1.1328125 26.87890625 C-1.13483673 25.82055069 -1.13686096 24.76219513 -1.13894653 23.67176819 C-1.13579437 22.6941301 -1.13264221 21.716492 -1.12939453 20.70922852 C-1.12859894 19.84620621 -1.12780334 18.9831839 -1.12698364 18.0940094 C-1 16 -1 16 0 14 C0.07116382 11.62597499 0.08409085 9.24999323 0.0625 6.875 C0.05347656 5.59367188 0.04445313 4.31234375 0.03515625 2.9921875 C0.02355469 2.00476563 0.01195312 1.01734375 0 0 Z " fill="#053B42" transform="translate(480,208)"/>
<path d="M0 0 C4.62 0 9.24 0 14 0 C14.04513676 8.31002413 14.08185017 16.61995339 14.10362434 24.93006706 C14.11407343 28.78854797 14.128253 32.64694085 14.15087891 36.50537109 C14.1725674 40.22712192 14.18456014 43.94878794 14.18975449 47.67059708 C14.19345745 49.09241191 14.20068819 50.51422197 14.21146011 51.93600082 C14.22592119 53.92327114 14.22681646 55.91062631 14.22705078 57.89794922 C14.231492 59.03046112 14.23593323 60.16297302 14.24050903 61.32980347 C14 64 14 64 12 66 C8.04 66 4.08 66 0 66 C0 58.08 0 50.16 0 42 C-0.66 42 -1.32 42 -2 42 C-2.33 42.66 -2.66 43.32 -3 44 C-3.495 36.575 -3.495 36.575 -4 29 C-3.01 29 -2.02 29 -1 29 C-0.67 19.43 -0.34 9.86 0 0 Z M2 1 C2 21.79 2 42.58 2 64 C5.3 64 8.6 64 12 64 C12 43.21 12 22.42 12 1 C8.7 1 5.4 1 2 1 Z " fill="#085849" transform="translate(461,208)"/>
<path d="M0 0 C2.64 0 5.28 0 8 0 C8 13.2 8 26.4 8 40 C5.36 40 2.72 40 0 40 C0 26.8 0 13.6 0 0 Z " fill="#01FE59" transform="translate(359,221)"/>
<path d="M0 0 C0.495 6.93 0.495 6.93 1 14 C0.505 13.01 0.505 13.01 0 12 C-3.17412286 12.68172315 -3.17412286 12.68172315 -4.3125 15.375 C-6.43468191 18.67617186 -8.36202671 19.63576002 -12 21 C-12.99 20.67 -13.98 20.34 -15 20 C-14.46890625 19.72027344 -13.9378125 19.44054687 -13.390625 19.15234375 C-8.0589253 16.12650688 -5.6102597 13.54680186 -3 8 C-6.32578606 6.98611959 -9.51716066 6.16199253 -13 6 C-15.56249975 8.31232422 -15.56249975 8.31232422 -18 11 C-21.32436202 11.8714347 -24.5693111 12.22677435 -28 12 C-31 10 -31 10 -31.5625 7.4375 C-31.706875 6.633125 -31.85125 5.82875 -32 5 C-32.66 4.67 -33.32 4.34 -34 4 C-34 3.01 -34 2.02 -34 1 C-29.31860934 0.85739262 -24.63721278 0.71498107 -19.95581055 0.57275391 C-18.36205889 0.52430568 -16.76830889 0.47580319 -15.17456055 0.42724609 C-12.88851339 0.35760586 -10.60246045 0.28815845 -8.31640625 0.21875 C-7.59973282 0.19687622 -6.88305939 0.17500244 -6.14466858 0.15246582 C-1.11387171 0 -1.11387171 0 0 0 Z " fill="#1E1953" transform="translate(595,252)"/>
<path d="M0 0 C11.22 0 22.44 0 34 0 C33.67 2.31 33.34 4.62 33 7 C33.66 7.33 34.32 7.66 35 8 C34.34 8.99 33.68 9.98 33 11 C33 10.01 33 9.02 33 8 C29.37 7.01 25.74 6.02 22 5 C21.34 6.32 20.68 7.64 20 9 C17.26617384 11.73382616 15.07587411 11.69526033 11.3203125 12.02734375 C7.85148452 11.98646531 5.79967146 10.99976533 3 9 C0.39308871 5.61101532 0 4.37265387 0 0 Z " fill="#17214D" transform="translate(424,252)"/>
<path d="M0 0 C0.86351578 0.00202423 1.72703156 0.00404846 2.61671448 0.00613403 C3.49839798 0.00517731 4.38008148 0.00422058 5.28848267 0.00323486 C7.15725272 0.00255295 9.02602512 0.00440802 10.89479065 0.00857544 C13.761137 0.01391721 16.6273262 0.00863412 19.4936676 0.00222778 C21.30551691 0.00288869 23.11736612 0.0041701 24.92921448 0.00613403 C26.2214518 0.00309769 26.2214518 0.00309769 27.53979492 0 C33.60946195 0.02399214 33.60946195 0.02399214 35.83937073 1.13894653 C35.83937073 8.72894653 35.83937073 16.31894653 35.83937073 24.13894653 C32.45544065 25.83091157 28.61459282 25.25881202 24.89405823 25.23660278 C24.00904633 25.23518784 23.12403442 25.23377289 22.21220398 25.23231506 C19.37955882 25.22670794 16.54699208 25.21415425 13.71437073 25.20144653 C11.79640312 25.19643245 9.87843427 25.19186938 7.96046448 25.18777466 C3.25340291 25.17673619 -1.45359987 25.15946678 -6.16062927 25.13894653 C-7.4056076 22.64898988 -7.28997299 20.94899742 -7.29344177 18.16629028 C-7.29473083 17.18466919 -7.2960199 16.2030481 -7.29734802 15.19168091 C-7.29348083 14.16365356 -7.28961365 13.13562622 -7.28562927 12.07644653 C-7.28949646 11.044552 -7.29336365 10.01265747 -7.29734802 8.94949341 C-7.29605896 7.96916138 -7.2947699 6.98882935 -7.29344177 5.97879028 C-7.29174988 4.62322021 -7.29174988 4.62322021 -7.2900238 3.24026489 C-7.01369488 -1.24721258 -3.74802522 0.01487396 0 0 Z M-5.16062927 3.13894653 C-5.16062927 9.73894653 -5.16062927 16.33894653 -5.16062927 23.13894653 C7.70937073 23.13894653 20.57937073 23.13894653 33.83937073 23.13894653 C33.83937073 16.53894653 33.83937073 9.93894653 33.83937073 3.13894653 C20.96937073 3.13894653 8.09937073 3.13894653 -5.16062927 3.13894653 Z " fill="#123E4D" transform="translate(228.16062927246094,276.8610534667969)"/>
<path d="M0 0 C0.49557409 4.06370756 0.02418339 6.43261322 -2.25 9.75 C-4.28023581 12.31182959 -5.74792118 14.16375116 -9 15 C-12.87013801 15.43268624 -15.94297271 15.50208796 -19.5 13.8125 C-21 12 -21 12 -21.5625 9.5625 C-20.76057977 5.90930786 -19.05915815 5.07126176 -16 3 C-12.7734375 1.953125 -12.7734375 1.953125 -9.375 1.25 C-8.24835937 1.00765625 -7.12171875 0.7653125 -5.9609375 0.515625 C-3 0 -3 0 0 0 Z " fill="#1B1E4E" transform="translate(628,250)"/>
<path d="M0 0 C3.63 0 7.26 0 11 0 C11 15.84 11 31.68 11 48 C7.37 48 3.74 48 0 48 C0 32.16 0 16.32 0 0 Z M2 2 C2 16.52 2 31.04 2 46 C4.31 46 6.62 46 9 46 C9.02470049 40.21590487 9.04286023 34.43184038 9.05493164 28.64770508 C9.0599635 26.67960068 9.06678958 24.71150003 9.07543945 22.7434082 C9.08755517 19.91616899 9.09323976 17.08897916 9.09765625 14.26171875 C9.10281754 13.38037766 9.10797882 12.49903656 9.11329651 11.59098816 C9.11340981 10.3600518 9.11340981 10.3600518 9.11352539 9.10424805 C9.115746 8.38254929 9.11796661 7.66085052 9.12025452 6.9172821 C9.06825599 4.77773199 9.06825599 4.77773199 8 2 C6.02 2 4.04 2 2 2 Z " fill="#1ADC6C" transform="translate(481,225)"/>
<path d="M0 0 C3.3 0 6.6 0 10 0 C10 1.65 10 3.3 10 5 C9.34 5 8.68 5 8 5 C8 4.01 8 3.02 8 2 C6.02 2 4.04 2 2 2 C2 16.52 2 31.04 2 46 C4.64 46 7.28 46 10 46 C10 35.44 10 24.88 10 14 C10.66 14 11.32 14 12 14 C12.66 12.02 13.32 10.04 14 8 C16.43868168 7.8920141 18.87259133 7.81273411 21.3125 7.75 C22.00279297 7.71648437 22.69308594 7.68296875 23.40429688 7.6484375 C25.42578125 7.609375 25.42578125 7.609375 29 8 C30.98046875 10.015625 30.98046875 10.015625 32 12 C31.67 12.66 31.34 13.32 31 14 C30.34 13.34 29.68 12.68 29 12 C25.64344716 9.7622981 23.87146542 9.34551871 19.93359375 9.5390625 C16.60006369 10.33372219 15.02295499 12.36402835 13 15 C11.85705686 18.42882941 11.79035528 21.24082838 11.68359375 24.85546875 C11.66281265 25.51710526 11.64203156 26.17874176 11.62062073 26.86042786 C11.55535273 28.96934852 11.49634656 31.07839135 11.4375 33.1875 C11.39429311 34.61915315 11.35067812 36.05079404 11.30664062 37.48242188 C11.19969494 40.98815154 11.09836359 44.49401786 11 48 C7.37 48 3.74 48 0 48 C0 32.16 0 16.32 0 0 Z " fill="#25CF74" transform="translate(499,225)"/>
<path d="M0 0 C3 2.125 3 2.125 5 5 C5.33 6.98 5.66 8.96 6 11 C-1.59 11 -9.18 11 -17 11 C-15.91910497 5.59552487 -14.98080159 4.49533798 -11 1 C-7.51660925 -0.74169538 -3.80051784 -0.5776262 0 0 Z " fill="#1F1855" transform="translate(576,233)"/>
<path d="M0 0 C0.66 0 1.32 0 2 0 C2 0.66 2 1.32 2 2 C2.66 2 3.32 2 4 2 C4 3.65 4 5.3 4 7 C4.66 7 5.32 7 6 7 C6.33 8.32 6.66 9.64 7 11 C7.99 8.36 8.98 5.72 10 3 C10.66 3 11.32 3 12 3 C11.7834375 3.67804688 11.566875 4.35609375 11.34375 5.0546875 C8.17649261 15.6415386 8.2789682 23.58997056 12 34 C11.34 34 10.68 34 10 34 C8.5393715 31.35261084 8 30.10551666 8 27 C7.34 27 6.68 27 6 27 C6.01160156 28.05960937 6.02320313 29.11921875 6.03515625 30.2109375 C6.04453476 31.59895658 6.05363489 32.98697755 6.0625 34.375 C6.07087891 35.07367188 6.07925781 35.77234375 6.08789062 36.4921875 C6.11328125 41.7734375 6.11328125 41.7734375 5 44 C0.71 44 -3.58 44 -8 44 C-8.01458252 43.08710205 -8.02916504 42.1742041 -8.04418945 41.23364258 C-8.10540795 37.83201389 -8.17958873 34.43117319 -8.26245117 31.0300293 C-8.29561259 29.56073578 -8.32367178 28.09131756 -8.34643555 26.62182617 C-8.38014519 24.50385632 -8.43246433 22.38702005 -8.48828125 20.26953125 C-8.51446533 18.99698486 -8.54064941 17.72443848 -8.56762695 16.41333008 C-9.02713024 12.7858228 -9.89901279 10.94524598 -12 8 C-12.66 7.01 -13.32 6.02 -14 5 C-10.11923772 6.47201328 -8.78325478 8.29263253 -7 12 C-6.65942383 15.41333008 -6.65942383 15.41333008 -6.70703125 19.26953125 C-6.71127609 19.95053391 -6.71552094 20.63153656 -6.71989441 21.33317566 C-6.7365939 23.49336459 -6.77422688 25.65259642 -6.8125 27.8125 C-6.82755826 29.28318958 -6.84124466 30.75389389 -6.85351562 32.22460938 C-6.88646786 35.81671357 -6.93818827 39.40826326 -7 43 C-3.37 43 0.26 43 4 43 C3.93071388 38.16145533 3.84255383 33.32374141 3.73754883 28.48583984 C3.70447322 26.84303063 3.67638823 25.20011253 3.65356445 23.55712891 C3.61969595 21.183451 3.56736925 18.81075559 3.51171875 16.4375 C3.50532883 15.71320801 3.4989389 14.98891602 3.49235535 14.24267578 C3.34256824 8.94468557 2.06437991 4.883376 0 0 Z " fill="#073640" transform="translate(539,230)"/>
<path d="M0 0 C2.32890877 1.81137349 3.42410312 3.65936655 4.6875 6.3125 C4.6875 7.6325 4.6875 8.9525 4.6875 10.3125 C-2.9025 10.3125 -10.4925 10.3125 -18.3125 10.3125 C-17.23160497 4.90802487 -16.29330159 3.80783798 -12.3125 0.3125 C-8.56856575 -1.55946713 -3.94426265 -1.17261863 0 0 Z " fill="#1A1D4F" transform="translate(442.3125,233.6875)"/>
<path d="M0 0 C3.63 0 7.26 0 11 0 C11 14.19 11 28.38 11 43 C22.1042603 42.68873572 22.1042603 42.68873572 33 41 C33 41.66 33 42.32 33 43 C29.52217417 44.15927528 26.81196743 44.11313066 23.14453125 44.09765625 C21.93385986 44.09515869 20.72318848 44.09266113 19.47583008 44.09008789 C17.93693115 44.08098389 16.39803223 44.07187988 14.8125 44.0625 C9.924375 44.041875 5.03625 44.02125 0 44 C0 29.48 0 14.96 0 0 Z M2 2 C2 15.2 2 28.4 2 42 C4.64 42 7.28 42 10 42 C10 28.8 10 15.6 10 2 C7.36 2 4.72 2 2 2 Z " fill="#29DA78" transform="translate(357,219)"/>
<path d="M0 0 C0.66 0.33 1.32 0.66 2 1 C3.13917218 4.41751653 3.11338481 7.03487937 3.09765625 10.63671875 C3.09443359 11.93544922 3.09121094 13.23417969 3.08789062 14.57226562 C3.07953531 15.94401108 3.07107037 17.31575587 3.0625 18.6875 C3.05748335 20.07096195 3.05292073 21.45442563 3.04882812 22.83789062 C3.03702529 26.22530395 3.02056019 29.61263033 3 33 C3.99 33.33 4.98 33.66 6 34 C4.515 34.495 4.515 34.495 3 35 C3.33 36.32 3.66 37.64 4 39 C0.83759418 41.10827055 -0.50657469 41.33817465 -4.1875 41.625 C-5.08855469 41.69976562 -5.98960937 41.77453125 -6.91796875 41.8515625 C-7.60503906 41.90054688 -8.29210937 41.94953125 -9 42 C-9.12375 41.030625 -9.2475 40.06125 -9.375 39.0625 C-9.58125 38.051875 -9.7875 37.04125 -10 36 C-10.66 35.67 -11.32 35.34 -12 35 C-11.01 34.34 -10.02 33.68 -9 33 C-9 34.65 -9 36.3 -9 38 C-6.03 38 -3.06 38 0 38 C0 25.46 0 12.92 0 0 Z " fill="#112049" transform="translate(638,234)"/>
<path d="M0 0 C0.33 0 0.66 0 1 0 C1 3.3 1 6.6 1 10 C-2.63 10 -6.26 10 -10 10 C-10 24.52 -10 39.04 -10 54 C-6.37 54 -2.74 54 1 54 C1 56.97 1 59.94 1 63 C0.34 62.67 -0.32 62.34 -1 62 C-1 60.02 -1 58.04 -1 56 C-1.93972656 56.05220703 -1.93972656 56.05220703 -2.8984375 56.10546875 C-3.71570313 56.13253906 -4.53296875 56.15960938 -5.375 56.1875 C-6.18710937 56.22230469 -6.99921875 56.25710938 -7.8359375 56.29296875 C-8.55007813 56.19628906 -9.26421875 56.09960938 -10 56 C-12.06270613 52.90594081 -12.25137335 52.24484176 -12.25878906 48.74389648 C-12.26509338 47.88968613 -12.27139771 47.03547577 -12.27789307 46.15538025 C-12.2738446 45.2365657 -12.26979614 44.31775116 -12.265625 43.37109375 C-12.26849518 41.95293114 -12.26849518 41.95293114 -12.27142334 40.50611877 C-12.27278418 38.5080641 -12.26909478 36.51000057 -12.26074219 34.51196289 C-12.25002944 31.44592547 -12.26064705 28.38047242 -12.2734375 25.31445312 C-12.27211612 23.3749987 -12.26955417 21.43554464 -12.265625 19.49609375 C-12.27169769 18.11483559 -12.27169769 18.11483559 -12.27789307 16.70567322 C-12.27158875 15.85461502 -12.26528442 15.00355682 -12.25878906 14.12670898 C-12.25719788 13.37630844 -12.25560669 12.6259079 -12.25396729 11.85276794 C-12 10 -12 10 -10 8 C-7.6171875 7.8046875 -7.6171875 7.8046875 -4.875 7.875 C-3.50988281 7.90207031 -3.50988281 7.90207031 -2.1171875 7.9296875 C-1.41851562 7.95289063 -0.71984375 7.97609375 0 8 C0 5.36 0 2.72 0 0 Z " fill="#08313B" transform="translate(367,209)"/>
<path d="M0 0 C2.5 2.4375 2.5 2.4375 4 5 C4 5.66 4 6.32 4 7 C2.39318359 7.09087891 2.39318359 7.09087891 0.75390625 7.18359375 C-0.64324391 7.26798537 -2.04037857 7.35263406 -3.4375 7.4375 C-4.49807617 7.49647461 -4.49807617 7.49647461 -5.58007812 7.55664062 C-9.08690419 7.47624438 -9.08690419 7.47624438 -12 9 C-13.99958364 9.04080783 -16.00045254 9.04254356 -18 9 C-18 8.34 -18 7.68 -18 7 C-17.01 7 -16.02 7 -15 7 C-14.95875 6.236875 -14.9175 5.47375 -14.875 4.6875 C-14 2 -14 2 -11.4375 0.125 C-7.28388982 -1.23436333 -4.14587486 -1.47310873 0 0 Z " fill="#18244F" transform="translate(624,234)"/>
<path d="M0 0 C18.66666667 0 18.66666667 0 23.875 4.6875 C24.24625 5.120625 24.6175 5.55375 25 6 C24.67 6.66 24.34 7.32 24 8 C22.02 6.35 20.04 4.7 18 3 C12.39 2.67 6.78 2.34 1 2 C1 15.2 1 28.4 1 42 C6.28 42 11.56 42 17 42 C17 41.34 17 40.68 17 40 C17.7425 39.814375 18.485 39.62875 19.25 39.4375 C23.16528579 37.39087334 24.04375275 34.9124945 26 31 C26.8125 32.625 26.8125 32.625 27 35 C24.09183413 39.15452268 22.61288629 40.69355686 18 43 C12.06 43 6.12 43 0 43 C0 28.81 0 14.62 0 0 Z " fill="#03393C" transform="translate(368,219)"/>
<path d="M0 0 C3.63 0 7.26 0 11 0 C11 3.63 11 7.26 11 11 C7.37 11 3.74 11 0 11 C0 7.37 0 3.74 0 0 Z " fill="#25DD76" transform="translate(481,209)"/>
<path d="M0 0 C0.66 0 1.32 0 2 0 C2 0.66 2 1.32 2 2 C2.66 2 3.32 2 4 2 C5.84566532 5.98393611 6.36022829 9.44376683 6.625 13.8125 C6.69976562 14.97394531 6.77453125 16.13539063 6.8515625 17.33203125 C6.90054687 18.21246094 6.94953125 19.09289062 7 20 C7.66 20 8.32 20 9 20 C9.28875 19.071875 9.5775 18.14375 9.875 17.1875 C11 14 11 14 13 11 C13.66 11.33 14.32 11.66 15 12 C14.45859375 12.78697266 14.45859375 12.78697266 13.90625 13.58984375 C8.94574963 21.87112353 9.51345792 29.68001606 10 39 C7.79086 35.68629 7.77518447 34.6553979 7.875 30.8125 C7.89304687 29.91144531 7.91109375 29.01039063 7.9296875 28.08203125 C7.95289063 27.39496094 7.97609375 26.70789063 8 26 C7.34 26 6.68 26 6 26 C6.05800781 26.56847656 6.11601562 27.13695312 6.17578125 27.72265625 C6.5546903 34.20741402 5.19279864 37.0734616 1 42 C1 39.04948874 1.43826446 37.59629646 2.47265625 34.8984375 C4.13204759 30.06205002 4.50000348 25.71122102 4.4375 20.625 C4.43427734 19.80153076 4.43105469 18.97806152 4.42773438 18.12963867 C4.27761945 11.54334629 2.98144325 5.92295646 0 0 Z " fill="#0B4347" transform="translate(403,220)"/>
<path d="M0 0 C3 2.125 3 2.125 5 5 C5.33 6.98 5.66 8.96 6 11 C-1.59 11 -9.18 11 -17 11 C-15.91910497 5.59552487 -14.98080159 4.49533798 -11 1 C-7.51660925 -0.74169538 -3.80051784 -0.5776262 0 0 Z M-13.5625 4.375 C-15.16010487 6.79356043 -15.16010487 6.79356043 -15 9 C-8.73 9 -2.46 9 4 9 C3.67 7.35 3.34 5.7 3 4 C-1.98460807 0.72885095 -9.18250865 0.31549582 -13.5625 4.375 Z " fill="#0B4B47" transform="translate(576,233)"/>
<path d="M0 0 C0.66 0.33 1.32 0.66 2 1 C1.525625 1.37125 1.05125 1.7425 0.5625 2.125 C-2.68484943 6.02181932 -2.15123203 11.80321948 -2.28125 16.67578125 C-2.31863281 17.91521484 -2.35601563 19.15464844 -2.39453125 20.43164062 C-2.46537415 23.0383971 -2.53567877 25.64516825 -2.60546875 28.25195312 C-2.64285156 29.48494141 -2.68023438 30.71792969 -2.71875 31.98828125 C-2.76418945 33.68271362 -2.76418945 33.68271362 -2.81054688 35.41137695 C-3 38 -3 38 -4 39 C-5.85287502 39.07226502 -7.70833878 39.0838122 -9.5625 39.0625 C-10.57441406 39.05347656 -11.58632813 39.04445313 -12.62890625 39.03515625 C-13.41136719 39.02355469 -14.19382812 39.01195312 -15 39 C-15 38.67 -15 38.34 -15 38 C-11.7 38 -8.4 38 -5 38 C-5.02356567 36.68394775 -5.02356567 36.68394775 -5.04760742 35.34130859 C-5.09894376 32.06488048 -5.13644997 28.78888402 -5.16479492 25.51220703 C-5.17981825 24.09807563 -5.20024305 22.68399032 -5.22631836 21.27001953 C-5.26298954 19.22937603 -5.27979036 17.18935208 -5.29296875 15.1484375 C-5.31653442 13.31031494 -5.31653442 13.31031494 -5.34057617 11.43505859 C-4.87101053 6.69900947 -3.3655777 3.3655777 0 0 Z " fill="#0E3948" transform="translate(515,235)"/>
<path d="M0 0 C0.95390625 -0.01417969 1.9078125 -0.02835938 2.890625 -0.04296875 C5.87699459 0.1977359 8.04370741 0.938062 10.75 2.1875 C9.1045622 3.87512851 7.43711423 5.5415349 5.75 7.1875 C5.42 7.1875 5.09 7.1875 4.75 7.1875 C4.75 5.5375 4.75 3.8875 4.75 2.1875 C1.45 2.1875 -1.85 2.1875 -5.25 2.1875 C-5.25 17.6975 -5.25 33.2075 -5.25 49.1875 C-5.58 49.1875 -5.91 49.1875 -6.25 49.1875 C-6.2752689 42.36988106 -6.29283244 35.55227411 -6.30493164 28.73461914 C-6.30997333 26.41332549 -6.31680651 24.09203503 -6.32543945 21.77075195 C-6.33751225 18.44221205 -6.34322979 15.11371398 -6.34765625 11.78515625 C-6.35281754 10.74037613 -6.35797882 9.69559601 -6.36329651 8.61915588 C-6.36337204 7.65823532 -6.36344757 6.69731476 -6.36352539 5.70727539 C-6.365746 4.85678116 -6.36796661 4.00628693 -6.37025452 3.13002014 C-6.12280487 -0.86713471 -3.39273869 0.02267873 0 0 Z " fill="#003139" transform="translate(504.25,222.8125)"/>
<path d="M0 0 C0.33 0 0.66 0 1 0 C1.16723026 5.25087844 1.32782815 10.50190094 1.48217773 15.75317383 C1.53567402 17.54099032 1.59100904 19.32875275 1.64819336 21.11645508 C1.72989235 23.68038266 1.80505945 26.24442953 1.87890625 28.80859375 C1.90594131 29.6127623 1.93297638 30.41693085 1.96083069 31.24546814 C2.01285627 33.16298422 2.01187441 35.08181503 2 37 C0.33657163 38.66342837 -1.7825709 38.36048097 -4.0625 38.5625 C-4.98160156 38.64628906 -5.90070312 38.73007812 -6.84765625 38.81640625 C-7.55792969 38.87699219 -8.26820313 38.93757813 -9 39 C-9.12375 38.030625 -9.2475 37.06125 -9.375 36.0625 C-9.58125 35.051875 -9.7875 34.04125 -10 33 C-10.66 32.67 -11.32 32.34 -12 32 C-11.01 31.34 -10.02 30.68 -9 30 C-9 31.65 -9 33.3 -9 35 C-6.03 35 -3.06 35 0 35 C0 23.45 0 11.9 0 0 Z " fill="#185A54" transform="translate(638,237)"/>
<path d="M0 0 C3.13766922 3.00124882 3.97533541 4.19280502 4.11352539 8.71533203 C4.11336676 10.31283427 4.10770034 11.91034183 4.09765625 13.5078125 C4.0962413 14.34843231 4.09482635 15.18905212 4.09336853 16.05514526 C4.08776237 18.74513275 4.07520886 21.43503759 4.0625 24.125 C4.05748579 25.94661338 4.05292275 27.76822807 4.04882812 29.58984375 C4.03779094 34.05992777 4.0205222 38.52994986 4 43 C1.03 43 -1.94 43 -5 43 C-5.33 41.68 -5.66 40.36 -6 39 C-6.99 39.495 -6.99 39.495 -8 40 C-7.67 39.01 -7.34 38.02 -7 37 C-5.68 37.33 -4.36 37.66 -3 38 C-3 39.32 -3 40.64 -3 42 C-1.02 42 0.96 42 3 42 C2.9059626 37.14331223 2.79976096 32.2870937 2.68261719 27.4309082 C2.64449701 25.78124135 2.6096155 24.13149618 2.578125 22.48168945 C2.5321034 20.10079079 2.47417365 17.72042348 2.4140625 15.33984375 C2.40251129 14.61039047 2.39096008 13.88093719 2.37905884 13.12937927 C2.24578395 8.4328413 1.46159505 4.4694038 0 0 Z " fill="#21E575" transform="translate(634,229)"/>
<path d="M0 0 C0.66 0.33 1.32 0.66 2 1 C1.34 1.66 0.68 2.32 0 3 C0 3.99 0 4.98 0 6 C5.61 6.33 11.22 6.66 17 7 C16.67 5.35 16.34 3.7 16 2 C17.5 3.25 17.5 3.25 19 5 C19 6.32 19 7.64 19 9 C11.41 9 3.82 9 -4 9 C-3.10429689 4.52148447 -2.74999027 3.22824944 0 0 Z " fill="#0C4F4B" transform="translate(428,235)"/>
<path d="M0 0 C-0.53625 0.2475 -1.0725 0.495 -1.625 0.75 C-4.15958472 2.03175548 -4.15958472 2.03175548 -7 4 C-10 6 -10 6 -12.3125 7.125 C-14.1891646 7.88818611 -14.1891646 7.88818611 -15 10 C-15.28125389 15.53132651 -14.74733614 19.75799157 -13 25 C-12.34 25 -11.68 25 -11 25 C-11 25.66 -11 26.32 -11 27 C-14.26726992 25.98601968 -15.03702873 24.93743422 -16.8125 21.9375 C-18.47847266 17.51945095 -18.32853886 13.50227059 -17 9 C-13.04817087 2.72356551 -7.55625819 -0.68693256 0 0 Z " fill="#21D071" transform="translate(614,244)"/>
<path d="M0 0 C0.33 0 0.66 0 1 0 C1.04241723 2.33294775 1.04092937 4.66702567 1 7 C0.67 7.33 0.34 7.66 0 8 C0.09086451 10.53541298 0.2370945 13.03554784 0.4375 15.5625 C0.48970703 16.27341797 0.54191406 16.98433594 0.59570312 17.71679688 C0.72574107 19.47821999 0.86226897 21.23916173 1 23 C1.66 23 2.32 23 3 23 C3.9765625 24.72526042 4.953125 26.45052083 5.9296875 28.17578125 C6.89428581 29.81982289 7.94267059 31.41400588 9 33 C5.42521604 31.55767936 3.88918552 29.83879097 1.8125 26.625 C1.30332031 25.85414063 0.79414063 25.08328125 0.26953125 24.2890625 C-2.07433779 20.06288633 -2.15974837 16.36353125 -2.1875 11.5625 C-2.20167969 10.45003906 -2.21585937 9.33757812 -2.23046875 8.19140625 C-2.00247902 5.03432812 -1.34441009 2.84292253 0 0 Z " fill="#1FD470" transform="translate(414,237)"/>
<path d="M0 0 C2.31 0 4.62 0 7 0 C7 2.64 7 5.28 7 8 C4.69 8 2.38 8 0 8 C0 5.36 0 2.72 0 0 Z " fill="#02FD5B" transform="translate(483,211)"/>
<path d="M0 0 C22.02017488 -1.03194763 22.02017488 -1.03194763 29 5 C28.01 5.495 28.01 5.495 27 6 C25.845 5.54625 24.69 5.0925 23.5 4.625 C16.02867867 1.92941619 7.85497814 2.24573287 0 2 C0 1.34 0 0.68 0 0 Z " fill="#09323E" transform="translate(368,207)"/>
<path d="M0 0 C0.66 0.33 1.32 0.66 2 1 C1.45859375 1.78697266 1.45859375 1.78697266 0.90625 2.58984375 C-4.05425037 10.87112353 -3.48654208 18.68001606 -3 28 C-5.20914 24.68629 -5.22481553 23.6553979 -5.125 19.8125 C-5.10695313 18.91144531 -5.08890625 18.01039063 -5.0703125 17.08203125 C-5.04710937 16.39496094 -5.02390625 15.70789063 -5 15 C-5.66 15 -6.32 15 -7 15 C-7 12.03 -7 9.06 -7 6 C-6.67 6.99 -6.34 7.98 -6 9 C-5.34 9 -4.68 9 -4 9 C-3.71125 8.071875 -3.4225 7.14375 -3.125 6.1875 C-2 3 -2 3 0 0 Z " fill="#093243" transform="translate(416,231)"/>
<path d="M0 0 C0.89138672 0.433125 0.89138672 0.433125 1.80078125 0.875 C9.00486714 4.10171343 15.96090235 5.80717639 23.625 3.05859375 C25.17931323 2.3437093 26.71544299 1.58682357 28.22265625 0.77734375 C28.80917969 0.52082031 29.39570313 0.26429688 30 0 C30.66 0.33 31.32 0.66 32 1 C29.75721097 4.36418354 28.52932543 4.81960884 24.6796875 5.64453125 C9.02773775 7.7208103 9.02773775 7.7208103 2.5625 4 C1.716875 3.34 0.87125 2.68 0 2 C0 1.34 0 0.68 0 0 Z " fill="#052F3E" transform="translate(420,269)"/>
<path d="M0 0 C4.49251745 5.46915168 4.18231247 10.56896649 4.1875 17.375 C4.19974609 18.21289062 4.21199219 19.05078125 4.22460938 19.9140625 C4.23586069 24.68461817 3.84709958 28.51731565 2 33 C1.67 33 1.34 33 1 33 C1 30.69 1 28.38 1 26 C1.66 26 2.32 26 3 26 C2.88525534 23.45749979 2.7585303 20.91652662 2.625 18.375 C2.57859375 17.30572266 2.57859375 17.30572266 2.53125 16.21484375 C2.28822937 11.79996899 1.47986844 8.1989763 0 4 C0 2.68 0 1.36 0 0 Z " fill="#1FDF70" transform="translate(404,223)"/>
<path d="M0 0 C1.32 0 2.64 0 4 0 C4 4.29 4 8.58 4 13 C3.34 13 2.68 13 2 13 C1.67 13.66 1.34 14.32 1 15 C0.67 10.05 0.34 5.1 0 0 Z " fill="#14264C" transform="translate(457,237)"/>
<path d="M0 0 C1.98 0 3.96 0 6 0 C6 0.66 6 1.32 6 2 C5.31292969 2.17015625 4.62585938 2.3403125 3.91796875 2.515625 C3.01691406 2.75796875 2.11585938 3.0003125 1.1875 3.25 C0.29417969 3.48203125 -0.59914063 3.7140625 -1.51953125 3.953125 C-4.37646099 5.15888432 -5.38369034 6.40101703 -7 9 C-9.64 8.34 -12.28 7.68 -15 7 C-11.29847322 6.07461831 -10.36541838 5.91825838 -7 7 C-6.67 5.35 -6.34 3.7 -6 2 C-4.02 2 -2.04 2 0 2 C0 1.34 0 0.68 0 0 Z " fill="#1BE16E" transform="translate(615,231)"/>
<path d="M0 0 C3.07666106 2.17176075 3.78029582 2.98254055 5.1875 6.25 C3.2075 5.26 1.2275 4.27 -0.8125 3.25 C-0.8125 2.59 -0.8125 1.93 -0.8125 1.25 C-4.61860417 0.36190903 -8.15747067 0.1153817 -12.0625 0.125 C-13.11953125 0.12242187 -14.1765625 0.11984375 -15.265625 0.1171875 C-17.74732251 -0.03828538 -17.74732251 -0.03828538 -18.8125 1.25 C-20.47867115 1.29063832 -22.14638095 1.292721 -23.8125 1.25 C-20.77225293 -4.83049414 -5.22601384 -2.45873345 0 0 Z " fill="#20D671" transform="translate(447.8125,225.75)"/>
<path d="M0 0 C1.65 0 3.3 0 5 0 C2.42154914 3.15143994 -0.07039756 4.07118488 -4 5 C-12.7798486 5.8044727 -12.7798486 5.8044727 -16.3046875 3.48046875 C-16.86414063 2.99191406 -17.42359375 2.50335938 -18 2 C-14.31733897 2.59950296 -10.65456815 3.24758891 -7 4 C-7 3.34 -7 2.68 -7 2 C-3.535 1.505 -3.535 1.505 0 1 C0 0.67 0 0.34 0 0 Z " fill="#1CDA6E" transform="translate(621,269)"/>
<path d="M0 0 C1.72880982 -0.05449838 3.45812712 -0.09301688 5.1875 -0.125 C6.15042969 -0.14820313 7.11335938 -0.17140625 8.10546875 -0.1953125 C11.12812778 0.0086456 13.26769985 0.73125368 16 2 C14.3545622 3.68762851 12.68711423 5.3540349 11 7 C10.67 7 10.34 7 10 7 C10 5.35 10 3.7 10 2 C6.37 2.33 2.74 2.66 -1 3 C-0.67 2.01 -0.34 1.02 0 0 Z " fill="#083B41" transform="translate(499,223)"/>
<path d="M0 0 C-1 3 -1 3 -3 4 C-4.8863912 4.084915 -6.77578515 4.107193 -8.6640625 4.09765625 C-9.78554688 4.09443359 -10.90703125 4.09121094 -12.0625 4.08789062 C-13.238125 4.07951172 -14.41375 4.07113281 -15.625 4.0625 C-16.80835938 4.05798828 -17.99171875 4.05347656 -19.2109375 4.04882812 C-22.14067507 4.03701467 -25.07031272 4.02054258 -28 4 C-28 3.67 -28 3.34 -28 3 C-27.42556152 2.98018066 -26.85112305 2.96036133 -26.25927734 2.93994141 C-23.63076167 2.84407976 -21.00297509 2.73465126 -18.375 2.625 C-17.47136719 2.5940625 -16.56773437 2.563125 -15.63671875 2.53125 C-10.29250652 2.29719691 -5.09099311 0 0 0 Z " fill="#135951" transform="translate(396,269)"/>
<path d="M0 0 C0.125 2.875 0.125 2.875 0 6 C-0.66 6.66 -1.32 7.32 -2 8 C-2 6.02 -2 4.04 -2 2 C-4.08343851 2.47870914 -6.16674689 2.95798469 -8.25 3.4375 C-9.41015625 3.70433594 -10.5703125 3.97117188 -11.765625 4.24609375 C-14.18349761 4.80968 -16.59443304 5.38669951 -19 6 C-16.37238206 2.64978713 -13.56442432 2.17756329 -9.5 1.3125 C-8.3553125 1.06113281 -7.210625 0.80976563 -6.03125 0.55078125 C-3 0 -3 0 0 0 Z " fill="#064841" transform="translate(628,250)"/>
<path d="M0 0 C1.65322266 0.01740234 1.65322266 0.01740234 3.33984375 0.03515625 C4.44457031 0.04417969 5.54929687 0.05320313 6.6875 0.0625 C7.54214844 0.07410156 8.39679687 0.08570313 9.27734375 0.09765625 C9.27734375 0.42765625 9.27734375 0.75765625 9.27734375 1.09765625 C8.44541504 1.27155884 8.44541504 1.27155884 7.59667969 1.44897461 C5.0733993 1.97690059 2.55036987 2.50601652 0.02734375 3.03515625 C-0.84535156 3.21755859 -1.71804688 3.39996094 -2.6171875 3.58789062 C-3.46152344 3.76513672 -4.30585937 3.94238281 -5.17578125 4.125 C-5.95083008 4.28734131 -6.72587891 4.44968262 -7.52441406 4.61694336 C-9.60202062 5.07127558 -11.66250606 5.57030705 -13.72265625 6.09765625 C-13.39265625 5.43765625 -13.06265625 4.77765625 -12.72265625 4.09765625 C-12.06265625 4.09765625 -11.40265625 4.09765625 -10.72265625 4.09765625 C-10.72265625 3.43765625 -10.72265625 2.77765625 -10.72265625 2.09765625 C-9.02109375 1.88109375 -9.02109375 1.88109375 -7.28515625 1.66015625 C-3.86902144 1.12076654 -3.22831681 0.11579329 0 0 Z " fill="#083D44" transform="translate(615.72265625,240.90234375)"/>
<path d="M0 0 C3.96 0.33 7.92 0.66 12 1 C12 3.97 12 6.94 12 10 C11.34 9.67 10.68 9.34 10 9 C10 7.02 10 5.04 10 3 C7.03 3 4.06 3 1 3 C0.67 2.01 0.34 1.02 0 0 Z " fill="#0D2F47" transform="translate(356,262)"/>
<path d="M0 0 C0.91523437 0.08378906 1.83046875 0.16757812 2.7734375 0.25390625 C3.96195313 0.35574219 5.15046875 0.45757812 6.375 0.5625 C7.55835938 0.66691406 8.74171875 0.77132813 9.9609375 0.87890625 C12.91898631 1.24153596 12.91898631 1.24153596 15 0 C17.3329866 -0.04022391 19.66706666 -0.04320247 22 0 C18.83817227 3.16182773 15.96552323 3.15791478 11.6875 3.1875 C7.41673705 3.15917929 3.96843158 2.71607852 0 1 C0 0.67 0 0.34 0 0 Z " fill="#1DD26E" transform="translate(560,271)"/>
<path d="M0 0 C1.98 0.66 3.96 1.32 6 2 C5.67 3.32 5.34 4.64 5 6 C4.01 6 3.02 6 2 6 C2 5.34 2 4.68 2 4 C0.35 4.66 -1.3 5.32 -3 6 C-1.125 1.125 -1.125 1.125 0 0 Z M-6 7 C-5.34 7.33 -4.68 7.66 -4 8 C-4.99 8 -5.98 8 -7 8 C-6.67 7.67 -6.34 7.34 -6 7 Z " fill="#E8E2F0" transform="translate(815,368)"/>
<path d="M0 0 C1.41623216 -0.05447047 2.83308191 -0.09300508 4.25 -0.125 C5.03890625 -0.14820313 5.8278125 -0.17140625 6.640625 -0.1953125 C9.20731941 0.0171622 10.7916067 0.71345895 13 2 C13 2.66 13 3.32 13 4 C12.505 3.835 12.01 3.67 11.5 3.5 C6.94036703 2.58807341 2.44131663 2.51956112 -2 4 C-1.34 2.68 -0.68 1.36 0 0 Z " fill="#1CE370" transform="translate(431,231)"/>
<path d="M0 0 C0.33 0.66 0.66 1.32 1 2 C-0.85509187 6.34700633 -3.18522134 9.46224608 -7.125 12.0625 C-10 13 -10 13 -13 12 C-12.48050781 11.72027344 -11.96101562 11.44054687 -11.42578125 11.15234375 C-6.13923589 8.11331306 -3.23886606 5.16194279 0 0 Z " fill="#0C3447" transform="translate(593,260)"/>
<path d="M0 0 C4.62 0 9.24 0 14 0 C13.67 0.66 13.34 1.32 13 2 C10.8203125 2.51953125 10.8203125 2.51953125 8.125 2.8125 C7.24070312 2.92207031 6.35640625 3.03164063 5.4453125 3.14453125 C3 3 3 3 0 0 Z " fill="#0B4148" transform="translate(564,261)"/>
<path d="M0 0 C-0.53625 0.2475 -1.0725 0.495 -1.625 0.75 C-4.17354264 2.0367419 -4.17354264 2.0367419 -7.0625 4.0625 C-10 6 -10 6 -13 7 C-12.9375 5.1875 -12.9375 5.1875 -12 3 C-7.92723652 0.80697351 -4.63975825 -0.4217962 0 0 Z " fill="#1DE26F" transform="translate(614,244)"/>
<path d="M0 0 C1.93627769 -0.10807131 3.87427756 -0.1856225 5.8125 -0.25 C7.43091797 -0.31960937 7.43091797 -0.31960937 9.08203125 -0.390625 C12 0 12 0 13.88671875 2.015625 C14.25410156 2.67046875 14.62148438 3.3253125 15 4 C14.67 4.66 14.34 5.32 14 6 C13.360625 5.34 12.72125 4.68 12.0625 4 C7.95535747 1.31778447 4.76620171 1.62618026 0 2 C0 1.34 0 0.68 0 0 Z " fill="#1BCD6B" transform="translate(516,233)"/>
<path d="M0 0 C1.65 0 3.3 0 5 0 C4.6875 1.875 4.6875 1.875 4 4 C3.01 4.66 2.02 5.32 1 6 C0 5 0 5 -0.0625 2.4375 C-0.041875 1.633125 -0.02125 0.82875 0 0 Z " fill="#244E62" transform="translate(642,270)"/>
<path d="M0 0 C2.31 0 4.62 0 7 0 C4.61542052 1.58971965 2.3695876 2.86741593 -0.1875 4.125 C-0.90292969 4.47820312 -1.61835938 4.83140625 -2.35546875 5.1953125 C-2.89816406 5.46085938 -3.44085938 5.72640625 -4 6 C-4 4.68 -4 3.36 -4 2 C-2.68 2 -1.36 2 0 2 C0 1.34 0 0.68 0 0 Z " fill="#0A3242" transform="translate(424,223)"/>
<path d="M0 0 C3.3 0 6.6 0 10 0 C10 0.66 10 1.32 10 2 C10.66 2 11.32 2 12 2 C11.67 2.66 11.34 3.32 11 4 C7.37 3.01 3.74 2.02 0 1 C0 0.67 0 0.34 0 0 Z " fill="#43386B" transform="translate(733,341)"/>
<path d="M0 0 C1.65 0.33 3.3 0.66 5 1 C3.68 1.33 2.36 1.66 1 2 C1 3.32 1 4.64 1 6 C-0.65 6 -2.3 6 -4 6 C-2.68 4.02 -1.36 2.04 0 0 Z " fill="#1FD771" transform="translate(446,257)"/>
<path d="M0 0 C0.66 0.33 1.32 0.66 2 1 C1.01 2.485 1.01 2.485 0 4 C-0.99 4 -1.98 4 -3 4 C-3.28875 4.804375 -3.5775 5.60875 -3.875 6.4375 C-5 9 -5 9 -7 10 C-5.6062718 5.56541027 -3.39417765 3.12621626 0 0 Z " fill="#20DA73" transform="translate(422,227)"/>
<path d="M0 0 C0.66 0.33 1.32 0.66 2 1 C0.08864614 4.53600465 -1.62642766 6.78972846 -5 9 C-3.7508258 5.54074837 -2.32472205 2.85306797 0 0 Z " fill="#3E3464" transform="translate(998,335)"/>
<path d="M0 0 C-2 3 -2 3 -4.3828125 3.73046875 C-5.74019531 3.95669922 -5.74019531 3.95669922 -7.125 4.1875 C-8.49011719 4.42533203 -8.49011719 4.42533203 -9.8828125 4.66796875 C-10.58148438 4.77753906 -11.28015625 4.88710938 -12 5 C-10.66272409 2.32544817 -9.26711677 2.01118615 -6.5625 0.8125 C-5.75941406 0.44769531 -4.95632813 0.08289063 -4.12890625 -0.29296875 C-2 -1 -2 -1 0 0 Z " fill="#083E42" transform="translate(452,270)"/>
<path d="M0 0 C1.32 0.33 2.64 0.66 4 1 C3.34 2.98 2.68 4.96 2 7 C0 5 0 5 -0.125 2.375 C-0.08375 1.59125 -0.0425 0.8075 0 0 Z " fill="#2D2553" transform="translate(889,368)"/>
<path d="M0 0 C1.65 0 3.3 0 5 0 C5.33 0.66 5.66 1.32 6 2 C4.68 3.65 3.36 5.3 2 7 C2 5.02 2 3.04 2 1 C1.34 0.67 0.68 0.34 0 0 Z " fill="#23CE73" transform="translate(587,259)"/>
<path d="M0 0 C0.99 0 1.98 0 3 0 C1.44499019 3.81684226 -1.03595495 6.19195732 -4 9 C-4 8.01 -4 7.02 -4 6 C-3.34 6 -2.68 6 -2 6 C-1.34 4.02 -0.68 2.04 0 0 Z " fill="#19E76D" transform="translate(513,233)"/>
<path d="M0 0 C0.125 2.875 0.125 2.875 0 6 C-0.66 6.66 -1.32 7.32 -2 8 C-2 6.02 -2 4.04 -2 2 C-2.99 1.67 -3.98 1.34 -5 1 C-3 0 -3 0 0 0 Z " fill="#085A44" transform="translate(628,250)"/>
<path d="M0 0 C3.68754757 0.49831724 5.60490662 1.10067643 8 4 C5.69 3.67 3.38 3.34 1 3 C0.67 2.01 0.34 1.02 0 0 Z " fill="#1BDE71" transform="translate(626,225)"/>
</svg>
