<svg width="120" height="24" viewBox="0 0 120 24" fill="none" xmlns="http://www.w3.org/2000/svg">
<g clip-path="url(#clip0_5158_1983)">
<path d="M40.2487 8.65723L34.1537 21.9574H30.9685L24.8735 8.65723H28.7585L32.5601 17.2723L36.3638 8.65723H40.2487Z" fill="#003646"/>
<path fill-rule="evenodd" clip-rule="evenodd" d="M53.6946 21.9574V8.65726H50.0317V9.41043C48.8876 8.6861 47.5573 8.30841 46.2023 8.32317C42.5116 8.32317 39.5483 11.4446 39.5483 15.3212C39.5483 19.1681 42.5116 22.2915 46.2023 22.2915C47.5572 22.3053 48.8872 21.9277 50.0317 21.2042V21.9574H53.6946ZM50.0321 13.2019V17.4106C49.166 18.6382 47.9668 18.9723 46.7617 18.9723C44.6646 18.9723 43.2117 17.2979 43.2117 15.3211C43.2117 13.3126 44.6646 11.6402 46.7617 11.6402C47.9648 11.6402 49.166 11.9743 50.0321 13.2019Z" fill="#003646"/>
<path d="M59.7597 2.16162V21.9576H56.0928V2.16162H59.7597Z" fill="#003646"/>
<path fill-rule="evenodd" clip-rule="evenodd" d="M65.128 16.3809H74.9236C75.6113 11.7808 72.8443 8.31738 68.2597 8.31738C64.1786 8.31738 61.3818 11.3558 61.3818 15.3154C61.3818 19.275 64.2063 22.2857 68.4837 22.2857C71.4192 22.2857 73.7938 20.8406 74.6897 18.332H70.6363C70.1606 18.9172 69.4886 19.0852 68.5115 19.0852C66.4144 19.0852 65.4075 17.9149 65.128 16.3809ZM71.2766 13.8999H65.2113C65.5483 12.5043 66.4977 11.417 68.2856 11.417C69.9902 11.417 71.0783 12.1978 71.2766 13.8999Z" fill="#003646"/>
<path d="M89.9232 14.736V21.9574H86.2622V14.9594C86.2622 12.7849 85.1721 11.6403 83.2435 11.6403C82.2366 11.6403 81.1187 12.2334 80.1673 13.3424V21.9574H76.5083V8.65728H80.1692V9.66152C81.257 8.7773 82.6212 8.30161 84.0244 8.31727C87.5764 8.31727 89.9232 10.8318 89.9232 14.736Z" fill="#003646"/>
<path d="M101.497 16.8178H105.249C104.831 20.0242 102.034 22.2837 98.597 22.2837C94.5991 22.2837 91.4951 19.273 91.4951 15.3134C91.4951 11.3538 94.5931 8.31738 98.591 8.31738C102.028 8.31738 104.825 10.6026 105.243 13.809H101.497C101.217 12.5261 100.099 11.6345 98.591 11.6345C96.494 11.6345 95.1521 13.2792 95.1521 15.3154C95.1521 17.3515 96.494 18.9666 98.591 18.9666C100.095 18.9725 101.217 18.1086 101.497 16.8178Z" fill="#003646"/>
<path fill-rule="evenodd" clip-rule="evenodd" d="M110.108 16.3809H119.893C120.591 11.7808 117.824 8.31738 113.239 8.31738C109.158 8.31738 106.361 11.3558 106.361 15.3154C106.361 19.275 109.186 22.2857 113.463 22.2857C116.399 22.2857 118.773 20.8406 119.669 18.332H115.616C115.14 18.9172 114.468 19.0852 113.491 19.0852C111.394 19.0852 110.387 17.9149 110.108 16.3809ZM116.258 13.8999H110.193C110.528 12.5043 111.478 11.417 113.267 11.417C114.972 11.417 116.06 12.1978 116.258 13.8999Z" fill="#003646"/>
<path d="M20.3698 1.3515C18.3876 -0.0322844 15.0993 2.93297 12.6217 5.75193L14.7188 6.95582C15.244 6.37266 15.7633 5.83694 16.2648 5.37436C17.6107 4.10721 18.4828 3.59521 18.9149 3.44299C18.9149 3.90359 18.7424 4.89399 18.017 6.59209C17.1726 8.56892 15.8228 10.9273 14.2173 13.2263C12.6118 15.5254 10.8616 17.609 9.29376 19.0738C7.94792 20.3429 7.07579 20.853 6.64369 21.0052C6.64369 20.5466 6.81614 19.5562 7.54159 17.8561C8.25037 16.2467 9.0813 14.6937 10.0271 13.2105L7.97369 12.0244C5.9123 15.3534 2.70526 21.359 5.19874 23.0947C5.54051 23.3354 5.94986 23.462 6.36818 23.4565C7.42861 23.4565 8.76058 22.7408 10.3958 21.2978C12.2273 19.6847 14.2807 17.2986 16.1776 14.5765C16.9447 13.4576 23.664 3.64067 20.3698 1.3515Z" fill="#6FCAD3"/>
<path d="M13.2796 12.0007L11.2281 13.1868C12.1803 14.6775 13.0172 16.2385 13.7315 17.8561C14.457 19.5561 14.6254 20.5465 14.6294 21.0052C14.1973 20.8431 13.3252 20.3409 11.9793 19.0738C10.4095 17.609 8.66129 15.5194 7.05579 13.2184C5.45029 10.9174 4.10048 8.56297 3.2561 6.58416C2.53065 4.88606 2.36019 3.89566 2.35821 3.43506C2.78833 3.59716 3.66045 4.09928 5.00828 5.36643C5.49786 5.82703 5.99933 6.35484 6.51864 6.91429L8.62165 5.72819C6.14403 2.9112 2.87752 -0.0204448 0.903349 1.35148C-2.3909 3.64065 4.32644 13.4576 5.10342 14.5745C7.00228 17.2927 9.05573 19.6787 10.8852 21.2958C12.5224 22.7388 13.8584 23.4545 14.9128 23.4545C15.3317 23.4595 15.7415 23.3329 16.0843 23.0927C18.5738 21.3649 15.341 15.3218 13.2796 12.0007Z" fill="#6FCAD3"/>
<path d="M13.0361 10.2356V8.01956C13.0361 7.83705 12.9386 7.66835 12.7804 7.57675L10.8558 6.46774C10.6975 6.37664 10.5026 6.37664 10.3444 6.46774L8.41777 7.57675C8.26056 7.66914 8.16406 7.83757 8.16406 8.01956V10.2356C8.16366 10.4177 8.26027 10.5863 8.41777 10.6784L10.3444 11.7874C10.5026 11.8785 10.6975 11.8785 10.8558 11.7874L12.7804 10.6784C12.9393 10.5874 13.0369 10.4183 13.0361 10.2356Z" fill="#F45687"/>
</g>
<defs>
<clipPath id="clip0_5158_1983">
<rect width="120" height="24" fill="white"/>
</clipPath>
</defs>
</svg>
