<svg width="1719" height="894" viewBox="0 0 1719 894" fill="none" xmlns="http://www.w3.org/2000/svg">
<rect x="192" y="141" width="300" height="300" fill="#0078D4"/>
<rect x="506" y="141" width="300" height="300" fill="#0078D4"/>
<rect x="192" y="455" width="300" height="300" fill="#0078D4"/>
<rect x="506" y="455" width="300" height="300" fill="#0078D4"/>
<path d="M939.352 323.909H956.398L986.034 396.273H987.125L1016.76 323.909H1033.81V417H1020.44V349.636H1019.58L992.125 416.864H981.034L953.58 349.591H952.716V417H939.352V323.909ZM1053.14 417V347.182H1066.73V417H1053.14ZM1060 336.409C1057.64 336.409 1055.61 335.621 1053.91 334.045C1052.24 332.439 1051.41 330.53 1051.41 328.318C1051.41 326.076 1052.24 324.167 1053.91 322.591C1055.61 320.985 1057.64 320.182 1060 320.182C1062.36 320.182 1064.38 320.985 1066.05 322.591C1067.74 324.167 1068.59 326.076 1068.59 328.318C1068.59 330.53 1067.74 332.439 1066.05 334.045C1064.38 335.621 1062.36 336.409 1060 336.409ZM1114.42 418.409C1107.66 418.409 1101.84 416.879 1096.97 413.818C1092.12 410.727 1088.39 406.47 1085.78 401.045C1083.18 395.621 1081.88 389.409 1081.88 382.409C1081.88 375.318 1083.21 369.061 1085.88 363.636C1088.54 358.182 1092.3 353.924 1097.15 350.864C1102 347.803 1107.71 346.273 1114.28 346.273C1119.59 346.273 1124.31 347.258 1128.47 349.227C1132.62 351.167 1135.97 353.894 1138.51 357.409C1141.09 360.924 1142.62 365.03 1143.1 369.727H1129.88C1129.15 366.455 1127.48 363.636 1124.88 361.273C1122.3 358.909 1118.84 357.727 1114.51 357.727C1110.72 357.727 1107.41 358.727 1104.56 360.727C1101.74 362.697 1099.54 365.515 1097.97 369.182C1096.39 372.818 1095.6 377.121 1095.6 382.091C1095.6 387.182 1096.38 391.576 1097.92 395.273C1099.47 398.97 1101.65 401.833 1104.47 403.864C1107.31 405.894 1110.66 406.909 1114.51 406.909C1117.09 406.909 1119.42 406.439 1121.51 405.5C1123.63 404.53 1125.41 403.152 1126.83 401.364C1128.28 399.576 1129.3 397.424 1129.88 394.909H1143.1C1142.62 399.424 1141.15 403.455 1138.69 407C1136.24 410.545 1132.95 413.333 1128.83 415.364C1124.74 417.394 1119.94 418.409 1114.42 418.409ZM1157.64 417V347.182H1170.77V358.273H1171.5C1172.77 354.515 1175.02 351.561 1178.23 349.409C1181.47 347.227 1185.14 346.136 1189.23 346.136C1190.08 346.136 1191.08 346.167 1192.23 346.227C1193.41 346.288 1194.33 346.364 1195 346.455V359.455C1194.45 359.303 1193.48 359.136 1192.09 358.955C1190.7 358.742 1189.3 358.636 1187.91 358.636C1184.7 358.636 1181.83 359.318 1179.32 360.682C1176.83 362.015 1174.86 363.879 1173.41 366.273C1171.95 368.636 1171.23 371.333 1171.23 374.364V417H1157.64ZM1233.67 418.409C1227.13 418.409 1221.41 416.909 1216.53 413.909C1211.66 410.909 1207.87 406.712 1205.17 401.318C1202.47 395.924 1201.12 389.621 1201.12 382.409C1201.12 375.167 1202.47 368.833 1205.17 363.409C1207.87 357.985 1211.66 353.773 1216.53 350.773C1221.41 347.773 1227.13 346.273 1233.67 346.273C1240.22 346.273 1245.93 347.773 1250.81 350.773C1255.69 353.773 1259.47 357.985 1262.17 363.409C1264.87 368.833 1266.22 375.167 1266.22 382.409C1266.22 389.621 1264.87 395.924 1262.17 401.318C1259.47 406.712 1255.69 410.909 1250.81 413.909C1245.93 416.909 1240.22 418.409 1233.67 418.409ZM1233.72 407C1237.96 407 1241.47 405.879 1244.26 403.636C1247.05 401.394 1249.11 398.409 1250.44 394.682C1251.81 390.955 1252.49 386.848 1252.49 382.364C1252.49 377.909 1251.81 373.818 1250.44 370.091C1249.11 366.333 1247.05 363.318 1244.26 361.045C1241.47 358.773 1237.96 357.636 1233.72 357.636C1229.44 357.636 1225.9 358.773 1223.08 361.045C1220.29 363.318 1218.22 366.333 1216.85 370.091C1215.52 373.818 1214.85 377.909 1214.85 382.364C1214.85 386.848 1215.52 390.955 1216.85 394.682C1218.22 398.409 1220.29 401.394 1223.08 403.636C1225.9 405.879 1229.44 407 1233.72 407ZM1333.7 364.227L1321.39 366.409C1320.87 364.833 1320.05 363.333 1318.93 361.909C1317.84 360.485 1316.36 359.318 1314.48 358.409C1312.6 357.5 1310.25 357.045 1307.43 357.045C1303.58 357.045 1300.37 357.909 1297.8 359.636C1295.22 361.333 1293.93 363.53 1293.93 366.227C1293.93 368.561 1294.8 370.439 1296.52 371.864C1298.25 373.288 1301.04 374.455 1304.89 375.364L1315.98 377.909C1322.4 379.394 1327.19 381.682 1330.34 384.773C1333.49 387.864 1335.07 391.879 1335.07 396.818C1335.07 401 1333.86 404.727 1331.43 408C1329.04 411.242 1325.69 413.788 1321.39 415.636C1317.11 417.485 1312.16 418.409 1306.52 418.409C1298.7 418.409 1292.33 416.742 1287.39 413.409C1282.45 410.045 1279.42 405.273 1278.3 399.091L1291.43 397.091C1292.25 400.515 1293.93 403.106 1296.48 404.864C1299.02 406.591 1302.34 407.455 1306.43 407.455C1310.89 407.455 1314.45 406.53 1317.11 404.682C1319.78 402.803 1321.11 400.515 1321.11 397.818C1321.11 395.636 1320.3 393.803 1318.66 392.318C1317.05 390.833 1314.58 389.712 1311.25 388.955L1299.43 386.364C1292.92 384.879 1288.1 382.515 1284.98 379.273C1281.89 376.03 1280.34 371.924 1280.34 366.955C1280.34 362.833 1281.49 359.227 1283.8 356.136C1286.1 353.045 1289.28 350.636 1293.34 348.909C1297.4 347.152 1302.05 346.273 1307.3 346.273C1314.84 346.273 1320.78 347.909 1325.11 351.182C1329.45 354.424 1332.31 358.773 1333.7 364.227ZM1379.42 418.409C1372.88 418.409 1367.16 416.909 1362.28 413.909C1357.41 410.909 1353.62 406.712 1350.92 401.318C1348.22 395.924 1346.88 389.621 1346.88 382.409C1346.88 375.167 1348.22 368.833 1350.92 363.409C1353.62 357.985 1357.41 353.773 1362.28 350.773C1367.16 347.773 1372.88 346.273 1379.42 346.273C1385.97 346.273 1391.68 347.773 1396.56 350.773C1401.44 353.773 1405.22 357.985 1407.92 363.409C1410.62 368.833 1411.97 375.167 1411.97 382.409C1411.97 389.621 1410.62 395.924 1407.92 401.318C1405.22 406.712 1401.44 410.909 1396.56 413.909C1391.68 416.909 1385.97 418.409 1379.42 418.409ZM1379.47 407C1383.71 407 1387.22 405.879 1390.01 403.636C1392.8 401.394 1394.86 398.409 1396.19 394.682C1397.56 390.955 1398.24 386.848 1398.24 382.364C1398.24 377.909 1397.56 373.818 1396.19 370.091C1394.86 366.333 1392.8 363.318 1390.01 361.045C1387.22 358.773 1383.71 357.636 1379.47 357.636C1375.19 357.636 1371.65 358.773 1368.83 361.045C1366.04 363.318 1363.97 366.333 1362.6 370.091C1361.27 373.818 1360.6 377.909 1360.6 382.364C1360.6 386.848 1361.27 390.955 1362.6 394.682C1363.97 398.409 1366.04 401.394 1368.83 403.636C1371.65 405.879 1375.19 407 1379.47 407ZM1460.36 347.182V358.091H1420.91V347.182H1460.36ZM1431.73 417V339.091C1431.73 334.727 1432.68 331.106 1434.59 328.227C1436.5 325.318 1439.03 323.152 1442.18 321.727C1445.33 320.273 1448.76 319.545 1452.45 319.545C1455.18 319.545 1457.52 319.773 1459.45 320.227C1461.39 320.652 1462.83 321.045 1463.77 321.409L1460.59 332.409C1459.95 332.227 1459.14 332.015 1458.14 331.773C1457.14 331.5 1455.92 331.364 1454.5 331.364C1451.2 331.364 1448.83 332.182 1447.41 333.818C1446.02 335.455 1445.32 337.818 1445.32 340.909V417H1431.73ZM1506.98 347.182V358.091H1468.84V347.182H1506.98ZM1479.07 330.455H1492.66V396.5C1492.66 399.136 1493.05 401.121 1493.84 402.455C1494.63 403.758 1495.64 404.652 1496.89 405.136C1498.16 405.591 1499.54 405.818 1501.02 405.818C1502.11 405.818 1503.07 405.742 1503.89 405.591C1504.7 405.439 1505.34 405.318 1505.8 405.227L1508.25 416.455C1507.46 416.758 1506.34 417.061 1504.89 417.364C1503.43 417.697 1501.61 417.879 1499.43 417.909C1495.86 417.97 1492.52 417.333 1489.43 416C1486.34 414.667 1483.84 412.606 1481.93 409.818C1480.02 407.03 1479.07 403.53 1479.07 399.318V330.455ZM1036.88 503.364C1036.39 499.061 1034.39 495.727 1030.88 493.364C1027.36 490.97 1022.94 489.773 1017.6 489.773C1013.78 489.773 1010.48 490.379 1007.69 491.591C1004.91 492.773 1002.74 494.409 1001.19 496.5C999.678 498.561 998.92 500.909 998.92 503.545C998.92 505.758 999.436 507.667 1000.47 509.273C1001.53 510.879 1002.91 512.227 1004.6 513.318C1006.33 514.379 1008.18 515.273 1010.15 516C1012.12 516.697 1014.01 517.273 1015.83 517.727L1024.92 520.091C1027.89 520.818 1030.94 521.803 1034.06 523.045C1037.18 524.288 1040.07 525.924 1042.74 527.955C1045.41 529.985 1047.56 532.5 1049.19 535.5C1050.86 538.5 1051.69 542.091 1051.69 546.273C1051.69 551.545 1050.33 556.227 1047.6 560.318C1044.91 564.409 1040.98 567.636 1035.83 570C1030.71 572.364 1024.51 573.545 1017.24 573.545C1010.27 573.545 1004.24 572.439 999.148 570.227C994.057 568.015 990.072 564.879 987.193 560.818C984.314 556.727 982.723 551.879 982.42 546.273H996.511C996.784 549.636 997.875 552.439 999.784 554.682C1001.72 556.894 1004.19 558.545 1007.19 559.636C1010.22 560.697 1013.54 561.227 1017.15 561.227C1021.12 561.227 1024.65 560.606 1027.74 559.364C1030.86 558.091 1033.31 556.333 1035.1 554.091C1036.89 551.818 1037.78 549.167 1037.78 546.136C1037.78 543.379 1037 541.121 1035.42 539.364C1033.88 537.606 1031.77 536.152 1029.1 535C1026.47 533.848 1023.48 532.833 1020.15 531.955L1009.15 528.955C1001.69 526.924 995.784 523.939 991.42 520C987.087 516.061 984.92 510.848 984.92 504.364C984.92 499 986.375 494.318 989.284 490.318C992.193 486.318 996.133 483.212 1001.1 481C1006.07 478.758 1011.68 477.636 1017.92 477.636C1024.22 477.636 1029.78 478.742 1034.6 480.955C1039.45 483.167 1043.27 486.212 1046.06 490.091C1048.84 493.939 1050.3 498.364 1050.42 503.364H1036.88ZM1075.98 598.182C1073.95 598.182 1072.1 598.015 1070.43 597.682C1068.77 597.379 1067.52 597.045 1066.7 596.682L1069.98 585.545C1072.46 586.212 1074.67 586.5 1076.61 586.409C1078.55 586.318 1080.27 585.591 1081.75 584.227C1083.27 582.864 1084.6 580.636 1085.75 577.545L1087.43 572.909L1061.89 502.182H1076.43L1094.11 556.364H1094.84L1112.52 502.182H1127.11L1098.34 581.318C1097.01 584.955 1095.31 588.03 1093.25 590.545C1091.19 593.091 1088.73 595 1085.89 596.273C1083.04 597.545 1079.73 598.182 1075.98 598.182ZM1192.2 519.227L1179.89 521.409C1179.37 519.833 1178.55 518.333 1177.43 516.909C1176.34 515.485 1174.86 514.318 1172.98 513.409C1171.1 512.5 1168.75 512.045 1165.93 512.045C1162.08 512.045 1158.87 512.909 1156.3 514.636C1153.72 516.333 1152.43 518.53 1152.43 521.227C1152.43 523.561 1153.3 525.439 1155.02 526.864C1156.75 528.288 1159.54 529.455 1163.39 530.364L1174.48 532.909C1180.9 534.394 1185.69 536.682 1188.84 539.773C1191.99 542.864 1193.57 546.879 1193.57 551.818C1193.57 556 1192.36 559.727 1189.93 563C1187.54 566.242 1184.19 568.788 1179.89 570.636C1175.61 572.485 1170.66 573.409 1165.02 573.409C1157.2 573.409 1150.83 571.742 1145.89 568.409C1140.95 565.045 1137.92 560.273 1136.8 554.091L1149.93 552.091C1150.75 555.515 1152.43 558.106 1154.98 559.864C1157.52 561.591 1160.84 562.455 1164.93 562.455C1169.39 562.455 1172.95 561.53 1175.61 559.682C1178.28 557.803 1179.61 555.515 1179.61 552.818C1179.61 550.636 1178.8 548.803 1177.16 547.318C1175.55 545.833 1173.08 544.712 1169.75 543.955L1157.93 541.364C1151.42 539.879 1146.6 537.515 1143.48 534.273C1140.39 531.03 1138.84 526.924 1138.84 521.955C1138.84 517.833 1139.99 514.227 1142.3 511.136C1144.6 508.045 1147.78 505.636 1151.84 503.909C1155.9 502.152 1160.55 501.273 1165.8 501.273C1173.34 501.273 1179.28 502.909 1183.61 506.182C1187.95 509.424 1190.81 513.773 1192.2 519.227ZM1208.51 572V502.182H1221.56V513.545H1222.42C1223.88 509.697 1226.25 506.697 1229.56 504.545C1232.86 502.364 1236.81 501.273 1241.42 501.273C1246.09 501.273 1250 502.364 1253.15 504.545C1256.33 506.727 1258.68 509.727 1260.19 513.545H1260.92C1262.59 509.818 1265.24 506.848 1268.88 504.636C1272.51 502.394 1276.84 501.273 1281.88 501.273C1288.21 501.273 1293.38 503.258 1297.38 507.227C1301.41 511.197 1303.42 517.182 1303.42 525.182V572H1289.83V526.455C1289.83 521.727 1288.54 518.303 1285.97 516.182C1283.39 514.061 1280.31 513 1276.74 513C1272.31 513 1268.88 514.364 1266.42 517.091C1263.97 519.788 1262.74 523.258 1262.74 527.5V572H1249.19V525.591C1249.19 521.803 1248.01 518.758 1245.65 516.455C1243.28 514.152 1240.21 513 1236.42 513C1233.84 513 1231.47 513.682 1229.28 515.045C1227.13 516.379 1225.39 518.242 1224.06 520.636C1222.75 523.03 1222.1 525.803 1222.1 528.955V572H1208.51ZM1351.05 573.409C1344.5 573.409 1338.79 571.909 1333.91 568.909C1329.03 565.909 1325.24 561.712 1322.55 556.318C1319.85 550.924 1318.5 544.621 1318.5 537.409C1318.5 530.167 1319.85 523.833 1322.55 518.409C1325.24 512.985 1329.03 508.773 1333.91 505.773C1338.79 502.773 1344.5 501.273 1351.05 501.273C1357.59 501.273 1363.3 502.773 1368.18 505.773C1373.06 508.773 1376.85 512.985 1379.55 518.409C1382.24 523.833 1383.59 530.167 1383.59 537.409C1383.59 544.621 1382.24 550.924 1379.55 556.318C1376.85 561.712 1373.06 565.909 1368.18 568.909C1363.3 571.909 1357.59 573.409 1351.05 573.409ZM1351.09 562C1355.33 562 1358.85 560.879 1361.64 558.636C1364.42 556.394 1366.48 553.409 1367.82 549.682C1369.18 545.955 1369.86 541.848 1369.86 537.364C1369.86 532.909 1369.18 528.818 1367.82 525.091C1366.48 521.333 1364.42 518.318 1361.64 516.045C1358.85 513.773 1355.33 512.636 1351.09 512.636C1346.82 512.636 1343.27 513.773 1340.45 516.045C1337.67 518.318 1335.59 521.333 1334.23 525.091C1332.89 528.818 1332.23 532.909 1332.23 537.364C1332.23 541.848 1332.89 545.955 1334.23 549.682C1335.59 553.409 1337.67 556.394 1340.45 558.636C1343.27 560.879 1346.82 562 1351.09 562ZM1412.35 530.545V572H1398.76V502.182H1411.81V513.545H1412.67C1414.28 509.848 1416.79 506.879 1420.22 504.636C1423.67 502.394 1428.02 501.273 1433.26 501.273C1438.02 501.273 1442.19 502.273 1445.76 504.273C1449.34 506.242 1452.11 509.182 1454.08 513.091C1456.05 517 1457.03 521.833 1457.03 527.591V572H1443.44V529.227C1443.44 524.167 1442.13 520.212 1439.49 517.364C1436.85 514.485 1433.23 513.045 1428.62 513.045C1425.47 513.045 1422.67 513.727 1420.22 515.091C1417.79 516.455 1415.87 518.455 1414.44 521.091C1413.05 523.697 1412.35 526.848 1412.35 530.545Z" fill="#0078D4"/>
</svg>
