<svg width="405" height="131" viewBox="0 0 405 131" fill="none" xmlns="http://www.w3.org/2000/svg">
  <g clip-path="url(#clip0_2_60)">
    <path d="M47.8892 52.8409C47.7074 51.0076 46.9271 49.5833 45.5483 48.5682C44.1695 47.553 42.2983 47.0455 39.9347 47.0455C38.3286 47.0455 36.9725 47.2727 35.8665 47.7273C34.7604 48.1667 33.9119 48.7803 33.321 49.5682C32.7453 50.3561 32.4574 51.25 32.4574 52.25C32.4271 53.0833 32.6013 53.8106 32.9801 54.4318C33.3741 55.053 33.9119 55.5909 34.5938 56.0455C35.2756 56.4848 36.0634 56.8712 36.9574 57.2045C37.8513 57.5227 38.8059 57.7955 39.821 58.0227L44.0028 59.0227C46.0331 59.4773 47.8968 60.0833 49.5938 60.8409C51.2907 61.5985 52.7604 62.5303 54.0028 63.6364C55.2453 64.7424 56.2074 66.0455 56.8892 67.5455C57.5862 69.0455 57.9422 70.7652 57.9574 72.7045C57.9422 75.553 57.215 78.0227 55.7756 80.1136C54.3513 82.1894 52.2907 83.803 49.5938 84.9545C46.9119 86.0909 43.6771 86.6591 39.8892 86.6591C36.1316 86.6591 32.8589 86.0833 30.071 84.9318C27.2983 83.7803 25.1316 82.0758 23.571 79.8182C22.0256 77.5455 21.215 74.7348 21.1392 71.3864H30.6619C30.768 72.947 31.215 74.25 32.0028 75.2955C32.8059 76.3258 33.8741 77.1061 35.2074 77.6364C36.5559 78.1515 38.0786 78.4091 39.7756 78.4091C41.4422 78.4091 42.8892 78.1667 44.1165 77.6818C45.3589 77.197 46.321 76.5227 47.0028 75.6591C47.6847 74.7955 48.0256 73.803 48.0256 72.6818C48.0256 71.6364 47.715 70.7576 47.0938 70.0455C46.4877 69.3333 45.5938 68.7273 44.4119 68.2273C43.2453 67.7273 41.8134 67.2727 40.1165 66.8636L35.0483 65.5909C31.1241 64.6364 28.0256 63.1439 25.7528 61.1136C23.4801 59.0833 22.3513 56.3485 22.3665 52.9091C22.3513 50.0909 23.1013 47.6288 24.6165 45.5227C26.1468 43.4167 28.2453 41.7727 30.9119 40.5909C33.5786 39.4091 36.6089 38.8182 40.0028 38.8182C43.4574 38.8182 46.4725 39.4091 49.0483 40.5909C51.6392 41.7727 53.6544 43.4167 55.0938 45.5227C56.5331 47.6288 57.2756 50.0682 57.321 52.8409H47.8892ZM70.3722 99.0909C69.1449 99.0909 67.9934 98.9924 66.9176 98.7955C65.857 98.6136 64.9782 98.3788 64.2812 98.0909L66.4631 90.8636C67.5994 91.2121 68.6222 91.4015 69.5312 91.4318C70.4555 91.4621 71.2509 91.25 71.9176 90.7955C72.5994 90.3409 73.1525 89.5682 73.5767 88.4773L74.1449 87L61.6222 51.0909H71.804L79.0312 76.7273H79.3949L86.6903 51.0909H96.9403L83.3722 89.7727C82.7206 91.6515 81.8343 93.2879 80.7131 94.6818C79.607 96.0909 78.2055 97.1742 76.5085 97.9318C74.8116 98.7045 72.7661 99.0909 70.3722 99.0909ZM130.94 61.0455L122.077 61.5909C121.925 60.8333 121.599 60.1515 121.099 59.5455C120.599 58.9242 119.94 58.4318 119.122 58.0682C118.319 57.6894 117.357 57.5 116.236 57.5C114.736 57.5 113.471 57.8182 112.44 58.4545C111.41 59.0758 110.895 59.9091 110.895 60.9545C110.895 61.7879 111.228 62.4924 111.895 63.0682C112.562 63.6439 113.705 64.1061 115.327 64.4545L121.645 65.7273C125.039 66.4242 127.569 67.5455 129.236 69.0909C130.902 70.6364 131.736 72.6667 131.736 75.1818C131.736 77.4697 131.062 79.4773 129.713 81.2045C128.38 82.9318 126.546 84.2803 124.213 85.25C121.895 86.2045 119.221 86.6818 116.19 86.6818C111.569 86.6818 107.887 85.7197 105.145 83.7955C102.418 81.8561 100.819 79.2197 100.349 75.8864L109.872 75.3864C110.16 76.7955 110.857 77.8712 111.963 78.6136C113.069 79.3409 114.486 79.7045 116.213 79.7045C117.91 79.7045 119.274 79.3788 120.304 78.7273C121.349 78.0606 121.88 77.2045 121.895 76.1591C121.88 75.2803 121.509 74.5606 120.781 74C120.054 73.4242 118.933 72.9848 117.418 72.6818L111.372 71.4773C107.963 70.7955 105.425 69.6136 103.759 67.9318C102.107 66.25 101.281 64.1061 101.281 61.5C101.281 59.2576 101.887 57.3258 103.099 55.7045C104.327 54.0833 106.046 52.8333 108.259 51.9545C110.486 51.0758 113.092 50.6364 116.077 50.6364C120.486 50.6364 123.955 51.5682 126.486 53.4318C129.031 55.2955 130.516 57.8333 130.94 61.0455ZM137.832 86V51.0909H147.06V57.25H147.469C148.196 55.2045 149.408 53.5909 151.105 52.4091C152.802 51.2273 154.832 50.6364 157.196 50.6364C159.59 50.6364 161.628 51.2348 163.31 52.4318C164.991 53.6136 166.113 55.2197 166.673 57.25H167.037C167.749 55.25 169.037 53.6515 170.901 52.4545C172.779 51.2424 174.999 50.6364 177.56 50.6364C180.817 50.6364 183.461 51.6742 185.491 53.75C187.537 55.8106 188.56 58.7348 188.56 62.5227V86H178.901V64.4318C178.901 62.4924 178.385 61.0379 177.355 60.0682C176.325 59.0985 175.037 58.6136 173.491 58.6136C171.734 58.6136 170.363 59.1742 169.378 60.2955C168.393 61.4015 167.901 62.8636 167.901 64.6818V86H158.514V64.2273C158.514 62.5152 158.022 61.1515 157.037 60.1364C156.067 59.1212 154.787 58.6136 153.196 58.6136C152.12 58.6136 151.151 58.8864 150.287 59.4318C149.438 59.9621 148.764 60.7121 148.264 61.6818C147.764 62.6364 147.514 63.7576 147.514 65.0455V86H137.832ZM211.98 86.6818C208.45 86.6818 205.397 85.9318 202.821 84.4318C200.26 82.9167 198.283 80.8106 196.889 78.1136C195.495 75.4015 194.798 72.2576 194.798 68.6818C194.798 65.0758 195.495 61.9242 196.889 59.2273C198.283 56.5152 200.26 54.4091 202.821 52.9091C205.397 51.3939 208.45 50.6364 211.98 50.6364C215.51 50.6364 218.556 51.3939 221.116 52.9091C223.692 54.4091 225.677 56.5152 227.071 59.2273C228.465 61.9242 229.162 65.0758 229.162 68.6818C229.162 72.2576 228.465 75.4015 227.071 78.1136C225.677 80.8106 223.692 82.9167 221.116 84.4318C218.556 85.9318 215.51 86.6818 211.98 86.6818ZM212.026 79.1818C213.632 79.1818 214.973 78.7273 216.048 77.8182C217.124 76.8939 217.935 75.6364 218.48 74.0455C219.041 72.4545 219.321 70.6439 219.321 68.6136C219.321 66.5833 219.041 64.7727 218.48 63.1818C217.935 61.5909 217.124 60.3333 216.048 59.4091C214.973 58.4848 213.632 58.0227 212.026 58.0227C210.404 58.0227 209.041 58.4848 207.935 59.4091C206.844 60.3333 206.018 61.5909 205.457 63.1818C204.912 64.7727 204.639 66.5833 204.639 68.6136C204.639 70.6439 204.912 72.4545 205.457 74.0455C206.018 75.6364 206.844 76.8939 207.935 77.8182C209.041 78.7273 210.404 79.1818 212.026 79.1818ZM245.139 65.8182V86H235.457V51.0909H244.685V57.25H245.094C245.866 55.2197 247.162 53.6136 248.98 52.4318C250.798 51.2348 253.003 50.6364 255.594 50.6364C258.018 50.6364 260.132 51.1667 261.935 52.2273C263.738 53.2879 265.139 54.803 266.139 56.7727C267.139 58.7273 267.639 61.0606 267.639 63.7727V86H257.957V65.5C257.973 63.3636 257.427 61.697 256.321 60.5C255.215 59.2879 253.692 58.6818 251.753 58.6818C250.45 58.6818 249.298 58.9621 248.298 59.5227C247.313 60.0833 246.541 60.9015 245.98 61.9773C245.435 63.0379 245.154 64.3182 245.139 65.8182Z" fill="#3C415A"/>
    <rect x="302" y="33" width="66" height="66" rx="2" fill="#0E62AC"/>
    <path d="M293.951 27.2961C293.937 26.4551 294.611 25.766 295.447 25.7668L355.396 25.8207C356.721 25.8219 357.389 27.4303 356.459 28.381L297.502 88.6784C296.573 89.6291 294.965 88.9815 294.943 87.6474L293.951 27.2961Z" fill="url(#paint0_linear_2_60)"/>
    <path d="M376.044 104.993C376.059 105.825 375.393 106.506 374.568 106.506L315.309 106.512C313.999 106.512 313.337 104.923 314.255 103.982L372.491 44.3213C373.409 43.3806 374.999 44.0196 375.021 45.3384L376.044 104.993Z" fill="url(#paint1_linear_2_60)"/>
  </g>
  <defs>
    <linearGradient id="paint0_linear_2_60" x1="291.47" y1="47.3963" x2="334.06" y2="46.6422" gradientUnits="userSpaceOnUse">
      <stop stop-color="#0095E6"/>
      <stop offset="1" stop-color="#34BBF2"/>
    </linearGradient>
    <linearGradient id="paint1_linear_2_60" x1="378.039" y1="84.0369" x2="330.392" y2="83.917" gradientUnits="userSpaceOnUse">
      <stop stop-color="#0095E6"/>
      <stop offset="1" stop-color="#56C3F3"/>
    </linearGradient>
    <clipPath id="clip0_2_60">
      <rect width="405" height="131" fill="white"/>
    </clipPath>
  </defs>
</svg>
