<?xml version="1.0" encoding="UTF-8"?>
<!DOCTYPE svg PUBLIC "-//W3C//DTD SVG 1.1//EN" "http://www.w3.org/Graphics/SVG/1.1/DTD/svg11.dtd">
<svg xmlns="http://www.w3.org/2000/svg" version="1.1" width="1024px" height="264px" style="shape-rendering:geometricPrecision; text-rendering:geometricPrecision; image-rendering:optimizeQuality; fill-rule:evenodd; clip-rule:evenodd" xmlns:xlink="http://www.w3.org/1999/xlink">
<g><path style="opacity:0.968" fill="#f84f22" d="M 119.5,32.5 C 121.027,32.573 122.027,31.9063 122.5,30.5C 136.668,24.1693 146.835,28.1693 153,42.5C 154.027,62.8022 144.527,70.9689 124.5,67C 113.135,59.9032 109.968,50.0699 115,37.5C 116.517,35.7605 118.017,34.0938 119.5,32.5 Z M 130.5,40.5 C 137.985,39.8294 141.152,43.1627 140,50.5C 135.829,56.729 131.163,57.0623 126,51.5C 124.393,46.4383 125.893,42.7716 130.5,40.5 Z"/></g>
<g><path style="opacity:0.333" fill="#af533b" d="M 122.5,30.5 C 122.027,31.9063 121.027,32.573 119.5,32.5C 119.973,31.0937 120.973,30.427 122.5,30.5 Z"/></g>
<g><path style="opacity:0.938" fill="#4f5053" d="M 251.5,72.5 C 280.86,73.5313 297.526,88.5313 301.5,117.5C 296.167,117.5 290.833,117.5 285.5,117.5C 282.943,101.452 273.943,91.9516 258.5,89C 236.802,88.0352 223.969,98.2019 220,119.5C 219.333,137.833 219.333,156.167 220,174.5C 223.736,197.563 237.236,207.73 260.5,205C 275.722,201.448 284.222,191.948 286,176.5C 286.499,170.509 286.666,164.509 286.5,158.5C 275.167,158.5 263.833,158.5 252.5,158.5C 252.364,153.296 252.364,148.296 252.5,143.5C 269.153,142.501 285.82,142.167 302.5,142.5C 302.667,153.838 302.5,165.172 302,176.5C 296.537,207.945 278.037,222.778 246.5,221C 227.777,218.541 215.11,208.875 208.5,192C 206.306,186.391 204.806,180.558 204,174.5C 203.333,156.167 203.333,137.833 204,119.5C 207.857,91.475 223.69,75.8084 251.5,72.5 Z"/></g>
<g><path style="opacity:0.937" fill="#4f5053" d="M 703.5,72.5 C 731.306,72.9768 746.639,86.9768 749.5,114.5C 744.456,114.827 739.456,114.494 734.5,113.5C 732.117,100.286 724.45,92.1193 711.5,89C 688.704,87.4609 678.537,97.9609 681,120.5C 683.198,127.081 687.364,131.915 693.5,135C 706.286,138.29 718.953,141.956 731.5,146C 748.261,156.58 754.761,171.746 751,191.5C 744.468,212.089 730.468,222.089 709,221.5C 679.199,219.531 663.365,203.864 661.5,174.5C 666.844,174.334 672.177,174.501 677.5,175C 680.888,197.379 693.888,207.379 716.5,205C 724.445,203.626 730.278,199.459 734,192.5C 739.587,178.039 735.42,167.206 721.5,160C 710.891,156.797 700.225,153.797 689.5,151C 669.193,141.215 661.026,125.382 665,103.5C 667.715,92.4576 673.882,83.9576 683.5,78C 690.066,75.329 696.733,73.4957 703.5,72.5 Z"/></g>
<g><path style="opacity:0.939" fill="#4f5053" d="M 914.5,72.5 C 942.341,73.0145 957.675,87.0145 960.5,114.5C 955.167,114.5 949.833,114.5 944.5,114.5C 941.998,97.9838 932.665,89.3171 916.5,88.5C 901.061,89.2753 892.394,97.2753 890.5,112.5C 891.153,122.99 896.153,130.49 905.5,135C 917.916,138.416 930.249,142.082 942.5,146C 958.917,156.346 965.417,171.179 962,190.5C 956.314,211.71 942.314,222.044 920,221.5C 890.038,219.371 874.205,203.704 872.5,174.5C 877.833,174.5 883.167,174.5 888.5,174.5C 891.637,197.126 904.637,207.293 927.5,205C 941.422,201.663 947.922,192.83 947,178.5C 945.509,169.637 940.675,163.47 932.5,160C 921.902,156.801 911.236,153.801 900.5,151C 880.675,141.858 872.509,126.358 876,104.5C 878.091,92.8159 884.258,83.9826 894.5,78C 901.066,75.329 907.733,73.4957 914.5,72.5 Z"/></g>
<g><path style="opacity:0.964" fill="#f65023" d="M 67.5,74.5 C 85.5031,74.3334 103.503,74.5001 121.5,75C 144.551,78.5596 155.051,92.0596 153,115.5C 148.672,131.495 138.339,140.828 122,143.5C 104.333,143.5 86.6667,143.5 69,143.5C 59.3461,142.172 51.0128,138.172 44,131.5C 33.5063,117.981 32.8397,103.648 42,88.5C 48.8262,80.4472 57.3262,75.7805 67.5,74.5 Z M 66.5,89.5 C 85.1696,89.3334 103.836,89.5001 122.5,90C 136.664,94.1596 141.498,103.326 137,117.5C 134.382,122.116 130.549,125.283 125.5,127C 104.833,127.667 84.1667,127.667 63.5,127C 49.8986,119.86 47.0652,109.693 55,96.5C 58.2565,93.048 62.0899,90.7147 66.5,89.5 Z"/></g>
<g><path style="opacity:0.949" fill="#515053" d="M 328.5,74.5 C 355.169,74.3334 381.835,74.5 408.5,75C 409.473,80.4066 409.807,85.9066 409.5,91.5C 387.5,91.5 365.5,91.5 343.5,91.5C 343.5,107.167 343.5,122.833 343.5,138.5C 363.169,138.333 382.836,138.5 402.5,139C 403.833,144 403.833,149 402.5,154C 382.836,154.5 363.169,154.667 343.5,154.5C 343.5,170.833 343.5,187.167 343.5,203.5C 365.5,203.5 387.5,203.5 409.5,203.5C 409.5,208.833 409.5,214.167 409.5,219.5C 382.259,219.828 355.093,219.495 328,218.5C 327.172,170.429 327.339,122.429 328.5,74.5 Z"/></g>
<g><path style="opacity:0.925" fill="#4f5053" d="M 436.5,74.5 C 441.179,74.3342 445.845,74.5008 450.5,75C 473.765,112.347 496.932,149.847 520,187.5C 520.333,150.167 520.667,112.833 521,75.5C 526,74.1667 531,74.1667 536,75.5C 536.5,123.499 536.667,171.499 536.5,219.5C 531.125,219.828 525.792,219.495 520.5,218.5C 497.693,180.898 474.86,143.232 452,105.5C 451.5,143.499 451.333,181.499 451.5,219.5C 446.238,219.805 441.072,219.471 436,218.5C 435.172,170.429 435.339,122.429 436.5,74.5 Z"/></g>
<g><path style="opacity:0.95" fill="#4f5053" d="M 645.5,90.5 C 623.5,90.5 601.5,90.5 579.5,90.5C 579.17,106.675 579.504,122.675 580.5,138.5C 599.833,138.5 619.167,138.5 638.5,138.5C 638.5,143.5 638.5,148.5 638.5,153.5C 618.833,153.5 599.167,153.5 579.5,153.5C 579.17,170.342 579.503,187.008 580.5,203.5C 602.5,203.5 624.5,203.5 646.5,203.5C 646.805,208.762 646.471,213.928 645.5,219C 618.502,219.5 591.502,219.667 564.5,219.5C 564.333,171.499 564.5,123.499 565,75.5C 591.761,74.3388 618.595,74.1721 645.5,75C 646.824,80.266 646.824,85.4327 645.5,90.5 Z"/></g>
<g><path style="opacity:0.941" fill="#4f5053" d="M 757.5,74.5 C 762.511,74.3341 767.511,74.5007 772.5,75C 773.308,75.3076 773.975,75.8076 774.5,76.5C 786.914,98.3308 799.581,119.998 812.5,141.5C 825.081,119.336 837.914,97.336 851,75.5C 856.416,74.3611 861.916,74.1944 867.5,75C 867.957,75.414 868.291,75.914 868.5,76.5C 852.565,104.276 836.398,131.943 820,159.5C 819.5,179.497 819.333,199.497 819.5,219.5C 814.5,219.5 809.5,219.5 804.5,219.5C 804.667,199.497 804.5,179.497 804,159.5C 787.685,131.992 771.852,104.325 756.5,76.5C 756.863,75.8165 757.196,75.1499 757.5,74.5 Z"/></g>
<g><path style="opacity:0.721" fill="#565052" d="M 962.5,74.5 C 967.966,74.6564 973.3,74.823 978.5,75C 980.375,77.9431 981.875,81.1098 983,84.5C 983.601,81.3634 984.601,78.3634 986,75.5C 987.049,74.4829 988.216,74.3162 989.5,75C 990.473,80.4066 990.807,85.9066 990.5,91.5C 987.234,91.5674 985.734,89.9008 986,86.5C 983.219,93.1509 980.886,92.8176 979,85.5C 978.505,87.4727 978.338,89.4727 978.5,91.5C 977.178,91.67 976.011,91.3366 975,90.5C 974.501,86.5138 974.334,82.5138 974.5,78.5C 972.833,78.5 971.167,78.5 969.5,78.5C 969.5,82.8333 969.5,87.1667 969.5,91.5C 968.178,91.67 967.011,91.3366 966,90.5C 965.501,86.5138 965.334,82.5138 965.5,78.5C 963.833,78.5 962.167,78.5 960.5,78.5C 960.527,76.8007 961.194,75.4674 962.5,74.5 Z"/></g>
<g><path style="opacity:0.039" fill="#6f504b" d="M 645.5,90.5 C 624.006,91.4973 602.34,91.8307 580.5,91.5C 580.5,107.167 580.5,122.833 580.5,138.5C 579.504,122.675 579.17,106.675 579.5,90.5C 601.5,90.5 623.5,90.5 645.5,90.5 Z"/></g>
<g><path style="opacity:0.972" fill="#f75022" d="M 95.5,151.5 C 107.948,150.917 120.281,151.751 132.5,154C 151.152,163.934 157.319,179.101 151,199.5C 145.419,209.74 136.919,216.24 125.5,219C 114.5,219.667 103.5,219.667 92.5,219C 72.5401,213.759 63.3734,200.259 65,178.5C 69.7043,163.294 79.8709,154.294 95.5,151.5 Z M 95.5,166.5 C 104.506,166.334 113.506,166.5 122.5,167C 135.246,170.328 140.413,178.162 138,190.5C 136.167,197.667 131.667,202.167 124.5,204C 114.5,204.667 104.5,204.667 94.5,204C 83.1829,200.682 78.3496,193.182 80,181.5C 82.4548,173.543 87.6215,168.543 95.5,166.5 Z"/></g>
<g><path style="opacity:0.039" fill="#6f504b" d="M 638.5,153.5 C 619.341,154.497 600.007,154.83 580.5,154.5C 580.5,170.833 580.5,187.167 580.5,203.5C 579.503,187.008 579.17,170.342 579.5,153.5C 599.167,153.5 618.833,153.5 638.5,153.5 Z"/></g>
</svg>
