<svg xmlns="http://www.w3.org/2000/svg" width="200" height="128">
    <defs>
        <linearGradient id="linear-gradient" x1="24.37" y1="71.83" x2="41.83" y2="74.3" gradientTransform="rotate(.15 271.255 41.662)" gradientUnits="userSpaceOnUse">
            <stop offset="0" stop-color="#d02685" stop-opacity="0"/>
            <stop offset=".11" stop-color="#ce2581" stop-opacity=".06"/>
            <stop offset=".31" stop-color="#ca2476" stop-opacity=".23"/>
            <stop offset=".58" stop-color="#c32165" stop-opacity=".5"/>
            <stop offset=".89" stop-color="#bb1f4e" stop-opacity=".87"/>
            <stop offset="1" stop-color="#b81e47"/>
        </linearGradient>
        <linearGradient id="linear-gradient-2" x1="27.36" y1="58.49" x2="56.84" y2="63.11" gradientTransform="rotate(.15 271.255 41.662)" gradientUnits="userSpaceOnUse">
            <stop offset="0" stop-color="#d31c5b" stop-opacity="0"/>
            <stop offset=".07" stop-color="#d52d67" stop-opacity=".08"/>
            <stop offset=".21" stop-color="#db5b87" stop-opacity=".29"/>
            <stop offset=".41" stop-color="#e5a5bb" stop-opacity=".63"/>
            <stop offset=".61" stop-color="#f1f5f3"/>
        </linearGradient>
        <linearGradient id="linear-gradient-3" x1="27.86" y1="73.5" x2="49.07" y2="62.18" gradientTransform="rotate(.15 271.255 41.662)" gradientUnits="userSpaceOnUse">
            <stop offset="0" stop-color="#d31c5b" stop-opacity="0"/>
            <stop offset=".05" stop-color="#d31c5b" stop-opacity=".03"/>
            <stop offset=".12" stop-color="#d51f5d" stop-opacity=".1"/>
            <stop offset=".2" stop-color="#d8225f" stop-opacity=".22"/>
            <stop offset=".29" stop-color="#dd2863" stop-opacity=".4"/>
            <stop offset=".38" stop-color="#e22f67" stop-opacity=".61"/>
            <stop offset=".47" stop-color="#e9376d" stop-opacity=".88"/>
            <stop offset=".52" stop-color="#ed3b70"/>
            <stop offset=".62" stop-color="#ed6891"/>
            <stop offset=".74" stop-color="#ed90af"/>
            <stop offset=".84" stop-color="#edadc5"/>
            <stop offset=".93" stop-color="#edbfd2"/>
            <stop offset="1" stop-color="#edc6d7"/>
        </linearGradient>
        <linearGradient id="linear-gradient-4" x1="26.29" y1="50.56" x2="34.45" y2="70.7" gradientTransform="rotate(.15 271.255 41.662)" gradientUnits="userSpaceOnUse">
            <stop offset="0" stop-color="#fff" stop-opacity=".8"/>
            <stop offset=".22" stop-color="#ffe9ff" stop-opacity=".64"/>
            <stop offset=".71" stop-color="#ffb3ff" stop-opacity=".24"/>
            <stop offset=".99" stop-color="#ff93ff" stop-opacity="0"/>
        </linearGradient>
        <radialGradient id="radial-gradient" cx="-34.78" cy="51.86" fx="-34.78" fy="51.86" r="31.43" gradientTransform="matrix(.67 .00175 -.00175 .67 52.07 30.25)" gradientUnits="userSpaceOnUse">
            <stop offset="0" stop-color="#c40047"/>
            <stop offset=".89" stop-color="#ff0070"/>
        </radialGradient>
    </defs>
    <path d="M58 70.18v-.03c0-3.39 2.57-6.16 6.24-6.15 2.25 0 3.59.76 4.7 1.85l-1.67 1.92c-.92-.84-1.86-1.35-3.05-1.35-2.01 0-3.46 1.66-3.47 3.71v.03c0 2.04 1.41 3.75 3.45 3.76 1.36 0 2.2-.54 3.14-1.39l1.67 1.69c-1.23 1.31-2.6 2.12-4.9 2.12-3.51 0-6.11-2.72-6.1-6.15zm13.12-5.97h2.63v4.73h4.83v-4.71h2.64l-.03 11.94h-2.62v-4.8h-4.83v4.78H71.1l.03-11.94zm13.27.04l9 .02v2.34l-6.4-.02v2.42h5.62v2.35h-5.63v2.49l6.47.02v2.34l-9.09-.02.03-11.93zm10.87 6.02v-.03c0-3.39 2.57-6.16 6.24-6.15 2.25 0 3.6.76 4.7 1.85l-1.67 1.92c-.92-.84-1.86-1.35-3.05-1.35-2.01 0-3.46 1.66-3.47 3.71v.03c0 2.04 1.4 3.75 3.45 3.76 1.36 0 2.2-.54 3.14-1.39l1.66 1.69c-1.23 1.31-2.6 2.12-4.9 2.12-3.51 0-6.11-2.72-6.1-6.15zm12.97-5.96h2.63v5.22l4.84-5.2h3.17L114 69.39l5.06 6.88h-3.15l-3.69-5.1-1.38 1.43v3.65h-2.64l.03-11.94z"/>
    <path d="M124.89 64.35h4.87c2.85.02 4.56 1.71 4.56 4.15v.03c0 2.76-2.16 4.19-4.84 4.18h-1.99v3.57h-2.63l.03-11.94zm4.69 6.03c1.31 0 2.08-.78 2.08-1.8v-.03c0-1.18-.81-1.81-2.12-1.81h-2.03v3.64h2.07zm6.44 0v-.03c0-3.39 2.69-6.16 6.37-6.15s6.32 2.76 6.31 6.15v.03c0 3.39-2.69 6.16-6.37 6.15s-6.32-2.76-6.31-6.15zm9.94.03v-.03c0-2.05-1.49-3.75-3.6-3.76s-3.58 1.66-3.59 3.71v.03c0 2.04 1.49 3.75 3.6 3.76s3.58-1.66 3.59-3.71zm5.31-5.99h2.62l-.03 11.94h-2.62l.03-11.94zm5.92.02h2.42l5.57 7.37.02-7.34h2.59l-.03 11.94h-2.23l-5.76-7.61-.02 7.58h-2.59l.03-11.94zm16.55 2.46h-3.63v-2.43l9.89.03v2.42h-3.63l-.02 9.5h-2.63l.02-9.52z" style="fill:#d91572"/>
    <path d="M48.56 63.73c-1.5.69-3.3.67-4.84-.2l-4.26 5.65c.53.62.83 1.4.86 2.19.03.71-.15 1.43-.57 2.07a3.57 3.57 0 01-4.93 1.06c-.57-.37-1-.87-1.27-1.44-.48-1-.49-2.19.06-3.22l-3.43-2.58-1.06 1.41-3.92-2.95 2.95-3.92 3.92 2.95-1.06 1.41 3.47 2.61a3.59 3.59 0 013.92-.44l4.24-5.63c-1.69-1.66-2.12-4.31-.87-6.45.25-.42.54-.79.88-1.12-2.31-1.58-5.1-2.5-8.1-2.51-7.99-.02-14.47 6.44-14.5 14.42-.02 7.98 6.44 14.47 14.42 14.5s14.47-6.44 14.5-14.42c0-1.17-.14-2.3-.39-3.39z" style="fill:url(#radial-gradient)"/>
    <path fill="#fff" d="M42.63 55.13l.01.01-.01-.01z"/>
    <path fill="#fff" d="M48.56 63.73z"/>
    <path d="M40.32 71.38c.03.71-.15 1.43-.57 2.07a3.57 3.57 0 01-4.93 1.06c-.57-.37-1-.87-1.27-1.44-7.62-.52-12.82-9.32-12.92-5.97-.19 6.58 5.65 13.48 13.63 13.51 7.98.02 13.57-6.69 13.59-13.43 0-2.48-2.92 1.69-7.54 4.21z" style="fill:url(#linear-gradient);opacity:.85"/>
    <path d="M55.87 55.27c-1.87 2.33-5.29 2.7-7.62.83a5.427 5.427 0 01-.83-7.62 5.406 5.406 0 017.61-.82c2.33 1.87 2.7 5.28.83 7.61z"/>
    <path d="M41.76 56.25c.07-.13.16-.24.24-.36-2.55-1.74-6.01-2.67-9.21-2.18-3.44.44-6.66 2.42-8.54 4.61-1.96 2.12-2.72 4.07-2.76 4.17 12.33-7.54 14.82-.14 20.08 1.62l1.06-1.4c-1.69-1.66-2.12-4.31-.87-6.45z" style="fill:url(#linear-gradient-2)"/>
    <path d="M43.04 64.44c.82.08 1.73.02 2.74-.24-.71-.07-1.41-.29-2.06-.66l-.68.91z" style="fill:url(#linear-gradient-3)"/>
    <path d="M34.82 74.51a3.556 3.556 0 01-1.21-4.66l-3.43-2.58-1.06 1.41-3.92-2.95 2.95-3.92 3.92 2.95-1.06 1.41 3.47 2.61a3.59 3.59 0 013.92-.44l4.24-5.63c-1.69-1.66-2.12-4.31-.87-6.45.25-.42.54-.79.88-1.12-2.31-1.58-5.1-2.5-8.1-2.51-7.99-.02-14.47 6.44-14.5 14.42-.02 7.98 6.44 14.47 14.42 14.5l.37-7.04z" style="fill:url(#linear-gradient-4)"/>
</svg>
