<?xml version="1.0" encoding="UTF-8"?>
<svg version="1.1" xmlns="http://www.w3.org/2000/svg" width="240" height="240">
<path d="M0 0 C79.2 0 158.4 0 240 0 C240 79.2 240 158.4 240 240 C160.8 240 81.6 240 0 240 C0 160.8 0 81.6 0 0 Z " fill="#FEDD00" transform="translate(0,0)"/>
<path d="M0 0 C7.43351327 -0.09112704 14.86681194 -0.16418528 22.30075169 -0.20724869 C25.75434531 -0.22793894 29.20753019 -0.2559058 32.66088867 -0.30175781 C73.58909078 -0.83065358 73.58909078 -0.83065358 89.375 13.75 C98.10927825 23.05819386 99.47608615 33.01019906 99.265625 45.18359375 C98.87243378 55.14251059 95.32368196 61.68395396 88.41015625 68.77734375 C78.64868458 77.77941406 66.09776221 82.16304316 52.82421875 82.09765625 C51.08881836 82.09282227 51.08881836 82.09282227 49.31835938 82.08789062 C48.12017578 82.07951172 46.92199219 82.07113281 45.6875 82.0625 C44.46998047 82.05798828 43.25246094 82.05347656 41.99804688 82.04882812 C38.99864774 82.03706578 35.99934911 82.02062826 33 82 C33.13837796 86.29194146 33.28695939 90.58346929 33.4375 94.875 C33.47681641 96.09832031 33.51613281 97.32164062 33.55664062 98.58203125 C33.59853516 99.74863281 33.64042969 100.91523438 33.68359375 102.1171875 C33.73858032 103.73536377 33.73858032 103.73536377 33.79467773 105.38623047 C33.83376643 107.98069536 33.83376643 107.98069536 35 110 C41.27 110.33 47.54 110.66 54 111 C54 117.27 54 123.54 54 130 C36.18 130 18.36 130 0 130 C0 123.73 0 117.46 0 111 C2.5390625 110.83723958 5.078125 110.67447917 7.6171875 110.51171875 C10.36221601 110.2117961 10.36221601 110.2117961 12 107 C12.18940142 104.26704615 12.26262498 101.63699623 12.24291992 98.90429688 C12.24481827 98.07962418 12.24671661 97.25495148 12.24867249 96.4052887 C12.25238044 93.67634609 12.24167556 90.947669 12.23046875 88.21875 C12.22927681 86.3245039 12.22882382 84.4302572 12.2290802 82.53601074 C12.22751528 78.56482242 12.2192251 74.59372424 12.20581055 70.62255859 C12.18882074 65.52795738 12.18499622 60.43345527 12.18575573 55.33882904 C12.18548401 51.42697195 12.18000245 47.51513661 12.17275429 43.60328674 C12.16956842 41.72457545 12.1676004 39.84586168 12.16686058 37.96714783 C12.16469617 35.34329011 12.15594966 32.71953817 12.14526367 30.09570312 C12.14571686 29.31638931 12.14617004 28.5370755 12.14663696 27.73414612 C12.12768481 24.55696397 12.01225685 22.03677056 11 19 C7.37 18.67 3.74 18.34 0 18 C0 12.06 0 6.12 0 0 Z " fill="#040300" transform="translate(76,55)"/>
<path d="M0 0 C5.8471875 -0.12375 5.8471875 -0.12375 11.8125 -0.25 C13.01753174 -0.28641602 14.22256348 -0.32283203 15.46411133 -0.36035156 C24.18962163 -0.44861025 32.07946165 0.81456259 39 6.4375 C44.36448519 13.31074665 44.76500148 18.39373332 44 27 C43.01695091 31.66948316 40.6992514 35.0081384 36.83325195 37.87866211 C28.70962692 42.84760735 21.23648522 43.53078244 11.875 43.25 C7.95625 43.1675 4.0375 43.085 0 43 C0 28.81 0 14.62 0 0 Z " fill="#FDDC00" transform="translate(109,75)"/>
</svg>
