<?xml version="1.0" encoding="utf-8"?>
<!-- Generator: Adobe Illustrator 24.3.0, SVG Export Plug-In . SVG Version: 6.00 Build 0)  -->
<svg version="1.1" id="Layer_1" xmlns="http://www.w3.org/2000/svg" xmlns:xlink="http://www.w3.org/1999/xlink" x="0px" y="0px"
	 viewBox="0 0 362 138" style="enable-background:new 0 0 362 138;" xml:space="preserve">
<style type="text/css">
	.st0{fill-rule:evenodd;clip-rule:evenodd;fill:#FFFFFF;fill-opacity:1.000000e-02;}
	.st1{filter:url(#Adobe_OpacityMaskFilter);}
	.st2{fill-rule:evenodd;clip-rule:evenodd;fill:#FFFFFF;}
	.st3{mask:url(#plivo-logo-b_1_);fill-rule:evenodd;clip-rule:evenodd;fill:#03A94A;}
	.st4{fill-rule:evenodd;clip-rule:evenodd;fill:#03A94A;}
	.st5{fill-rule:evenodd;clip-rule:evenodd;fill:#040403;}
</style>
<g>
	<rect y="0" class="st0" width="362" height="138"/>
	<g transform="translate(31 31.44)">
		<defs>
			<filter id="Adobe_OpacityMaskFilter" filterUnits="userSpaceOnUse" x="0" y="0.6" width="95.5" height="74.4">
				<feColorMatrix  type="matrix" values="1 0 0 0 0  0 1 0 0 0  0 0 1 0 0  0 0 0 1 0"/>
			</filter>
		</defs>
		<mask maskUnits="userSpaceOnUse" x="0" y="0.6" width="95.5" height="74.4" id="plivo-logo-b_1_">
			<g class="st1">
				<polygon id="plivo-logo-a_1_" class="st2" points="0,0.6 95.5,0.6 95.5,75 0,75 				"/>
			</g>
		</mask>
		<path class="st3" d="M47.6,0.6C39.5,0.6,32,3.3,26,7.7c-6,4.5-10.6,10.8-13,18.1c-0.1,0.3-0.2,0.6-0.4,0.8
			c-0.2,0.2-0.4,0.5-0.7,0.6C8.1,29.8,5,33.1,3,37.1S-0.2,45.6,0,50.4c0.3,7,3.5,13.1,8.4,17.6c4.8,4.4,11.3,7.1,18.3,7h21.1H69
			c7,0,13.5-2.8,18.3-7.2c4.8-4.5,7.9-10.7,8.2-17.7c0.2-4.8-0.9-9.4-3-13.3c-2.1-3.9-5.2-7.3-9-9.7c-0.3-0.2-0.5-0.4-0.7-0.6
			c-0.2-0.2-0.3-0.5-0.4-0.8c-2.4-7.3-7.1-13.6-13.1-18C63.2,3.2,55.7,0.5,47.6,0.6 M47.6,9.8c6,0,11.7,2,16.3,5.4
			c4.6,3.4,8.2,8.3,9.9,14l0.4,1.2l0.4,1.2c0.1,0.3,0.3,0.6,0.5,0.9c0.2,0.3,0.5,0.5,0.7,0.7l1.1,0.7l1.1,0.7
			c2.7,1.6,4.8,3.8,6.2,6.4c1.4,2.6,2.1,5.6,2,8.7c-0.2,4.5-2.2,8.5-5.3,11.4c-3.1,2.9-7.3,4.6-11.8,4.6l-21.3,0.1l-21.3,0.1
			c-4.5,0-8.7-1.7-11.9-4.6c-3.1-2.9-5.2-6.8-5.4-11.4c-0.1-3.1,0.6-6.1,2-8.7c1.4-2.6,3.5-4.8,6.2-6.4l1.1-0.7l1.1-0.7
			c0.3-0.2,0.5-0.4,0.7-0.7c0.2-0.3,0.4-0.6,0.5-0.9l0.4-1.2l0.4-1.2c1.7-5.7,5.2-10.6,9.8-14.1C36,11.9,41.6,9.9,47.6,9.8"/>
	</g>
	<path class="st4" d="M71.4,63.8c0,0.5-0.2,1-0.6,1.4c-0.4,0.4-0.9,0.6-1.4,0.6l-2,0l-2,0c-0.5,0-1-0.2-1.4-0.6
		c-0.4-0.4-0.6-0.9-0.6-1.4l0-2l0-2c0-0.5,0.2-1,0.6-1.4c0.4-0.4,0.9-0.6,1.4-0.6l2,0l2,0c0.5,0,1,0.2,1.4,0.6
		c0.4,0.4,0.6,0.9,0.6,1.4l0,2L71.4,63.8z M82.7,63.8c0,0.5-0.2,1-0.6,1.4c-0.4,0.4-0.9,0.6-1.4,0.6l-2,0l-2,0c-0.5,0-1-0.2-1.4-0.6
		c-0.4-0.4-0.6-0.9-0.6-1.4l0-2l0-2c0-0.5,0.2-1,0.6-1.4s0.9-0.6,1.4-0.6l2,0l2,0c0.5,0,1,0.2,1.4,0.6c0.4,0.4,0.6,0.9,0.6,1.4l0,2
		L82.7,63.8z M94,63.8c0,0.5-0.2,1-0.6,1.4c-0.4,0.4-0.9,0.6-1.4,0.6l-2,0l-2,0c-0.5,0-1-0.2-1.4-0.6c-0.4-0.4-0.6-0.9-0.6-1.4l0-2
		l0-2c0-0.5,0.2-1,0.6-1.4c0.4-0.4,0.9-0.6,1.4-0.6l2,0l2,0c0.5,0,1.1,0.2,1.4,0.5c0.4,0.4,0.6,0.8,0.6,1.4c0,0,0,0,0,0v0l0,2
		L94,63.8z M71.4,75.1c0,0.5-0.2,1-0.6,1.4c-0.4,0.4-0.9,0.6-1.4,0.6l-2,0l-2,0c-0.5,0-1-0.2-1.4-0.6c-0.4-0.4-0.6-0.9-0.6-1.4l0-2
		l0-2c0-0.5,0.2-1,0.6-1.4c0.4-0.4,0.9-0.6,1.4-0.6l2,0l2,0c0.5,0,1,0.2,1.4,0.6c0.4,0.4,0.6,0.9,0.6,1.4l0,2L71.4,75.1z M82.7,75.1
		c0,0.5-0.2,1-0.6,1.4c-0.4,0.4-0.9,0.6-1.4,0.6l-2,0l-2,0c-0.5,0-1-0.2-1.4-0.6c-0.4-0.4-0.6-0.9-0.6-1.4l0-2l0-2
		c0-0.5,0.2-1,0.6-1.4c0.4-0.4,0.9-0.6,1.4-0.6l2,0l2,0c0.5,0,1,0.2,1.4,0.6c0.4,0.4,0.6,0.9,0.6,1.4l0,2L82.7,75.1z M94,75.1
		c0,0.5-0.2,1-0.6,1.4c-0.4,0.4-0.9,0.6-1.4,0.6l-2,0l-2,0c-0.5,0-1-0.2-1.4-0.6c-0.4-0.4-0.6-0.9-0.6-1.4l0-2l0-2
		c0-0.5,0.2-1,0.6-1.4c0.4-0.4,0.9-0.6,1.4-0.6l2,0l2,0c0.5,0,1,0.2,1.4,0.6c0.4,0.4,0.6,0.9,0.6,1.4l0,2L94,75.1z M71.4,86.4
		c0,0.5-0.2,1-0.6,1.4c-0.4,0.4-0.9,0.6-1.4,0.6l-2,0l-2,0c-0.5,0-1-0.2-1.4-0.6c-0.4-0.4-0.6-0.9-0.6-1.4l0-2l0-2
		c0-0.5,0.2-1,0.6-1.4s0.9-0.6,1.4-0.6l2,0l2,0c0.5,0,1,0.2,1.4,0.6c0.4,0.4,0.6,0.9,0.6,1.4l0,2L71.4,86.4z M82.7,86.4
		c0,0.5-0.2,1-0.6,1.4c-0.4,0.4-0.9,0.6-1.4,0.6l-2,0l-2,0c-0.5,0-1-0.2-1.4-0.6c-0.4-0.4-0.6-0.9-0.6-1.4l0-2l0-2
		c0-0.5,0.2-1,0.6-1.4c0.4-0.4,0.9-0.6,1.4-0.6l2,0l2,0c0.5,0,1,0.2,1.4,0.6c0.4,0.4,0.6,0.9,0.6,1.4l0,2L82.7,86.4z M94,86.4
		c0,0.5-0.2,1-0.6,1.4c-0.4,0.4-0.9,0.6-1.4,0.6l-2,0l-2,0c-0.5,0-1-0.2-1.4-0.6C86.3,87.5,86,87,86,86.4l0-2l0-2
		c0-0.5,0.2-1,0.6-1.4c0.4-0.4,0.9-0.6,1.4-0.6l2,0l2,0c0.5,0,1,0.2,1.4,0.6c0.4,0.4,0.6,0.9,0.6,1.4l0,2L94,86.4z"/>
	<path class="st5" d="M173.2,77.4c0.8-0.9,1.4-1.9,1.8-3.1c0.4-1.2,0.6-2.6,0.6-4.1c0-1.5-0.2-2.9-0.6-4.1c-0.4-1.2-1-2.2-1.8-3.1
		c-0.8-0.9-1.7-1.5-2.8-2c-1-0.4-2.2-0.6-3.5-0.6c-1.3,0-2.4,0.2-3.4,0.7c-1,0.4-2,1.1-2.8,2c-0.8,0.9-1.4,1.9-1.8,3.1
		c-0.4,1.2-0.6,2.6-0.6,4.1c0,1.5,0.2,2.9,0.6,4.1c0.4,1.2,1,2.2,1.8,3.1c0.8,0.9,1.7,1.5,2.8,2c1,0.4,2.2,0.6,3.5,0.6
		c1.3,0,2.4-0.2,3.4-0.7C171.5,78.9,172.4,78.2,173.2,77.4 M178.5,51.5c1.5,0.9,2.9,1.9,4.1,3.2c1.2,1.2,2.3,2.7,3.2,4.3
		c0.9,1.6,1.6,3.3,2,5.2s0.7,3.9,0.7,6c0,2.1-0.2,4.1-0.7,6c-0.4,1.9-1.1,3.6-2,5.2c-0.9,1.6-1.9,3-3.2,4.3
		c-1.2,1.2-2.6,2.3-4.1,3.2c-1.5,0.9-3.1,1.5-4.8,2c-1.7,0.4-3.5,0.7-5.4,0.7c-2.4,0-4.5-0.3-6.4-1.1c-1.9-0.7-3.5-1.8-5-3.2l0,8.3
		l0,8.3c0,0.7-0.3,1.4-0.8,1.9c-0.5,0.5-1.2,0.8-1.9,0.8l-4.5,0l-4.5,0c-0.7,0-1.4-0.3-1.9-0.8c-0.5-0.5-0.8-1.2-0.8-1.9l-0.1-25.8
		l-0.1-25.8c0-0.7,0.3-1.4,0.8-1.9c0.5-0.5,1.2-0.8,1.9-0.8l4.2,0l4.2,0c0.7,0,1.4,0.3,1.9,0.8c0.5,0.5,0.8,1.2,0.8,1.9l0,0.9l0,0.9
		c1.3-1.6,3-2.8,5-3.6c2-0.8,4.4-1.2,7.1-1.2c1.9,0,3.7,0.2,5.4,0.6C175.3,50,176.9,50.7,178.5,51.5 M197.7,35.2l4.5,0l4.5,0
		c0.7,0,1.4,0.3,1.9,0.8c0.5,0.5,0.8,1.2,0.8,1.9l0,25.4l0,25.4c0,0.7-0.3,1.4-0.8,1.9c-0.5,0.5-1.2,0.8-1.9,0.8l-4.5,0l-4.5,0
		c-0.7,0-1.4-0.3-1.9-0.8c-0.5-0.5-0.8-1.2-0.8-1.9l0-25.4V37.9c0-0.7,0.3-1.4,0.8-1.9C196.3,35.5,197,35.2,197.7,35.2 M282.9,53.9
		l-3.7,9l-3.7,9l-3.7,9l-3.7,9c-0.1,0.3-0.2,0.5-0.4,0.7c-0.2,0.2-0.4,0.4-0.6,0.5c-0.2,0.1-0.5,0.3-0.7,0.3
		c-0.3,0.1-0.5,0.1-0.8,0.1H263l-2.8,0h-2.8l-2.8,0c-0.3,0-0.5,0-0.8-0.1c-0.3-0.1-0.5-0.2-0.7-0.3c-0.2-0.1-0.4-0.3-0.6-0.5
		c-0.2-0.2-0.3-0.4-0.4-0.7l-3.7-9l-3.7-9l-3.7-9l-3.7-9c-0.2-0.4-0.2-0.9-0.2-1.3c0-0.4,0.2-0.8,0.4-1.2c0.2-0.4,0.6-0.7,0.9-0.9
		c0.4-0.2,0.8-0.3,1.3-0.3l2.2,0l2.2,0l2.2,0l2.2,0c0.3,0,0.5,0,0.8,0.1c0.3,0.1,0.5,0.2,0.7,0.3c0.2,0.1,0.4,0.3,0.6,0.5
		c0.2,0.2,0.3,0.4,0.4,0.7l2.3,5.8l2.3,5.8l2.3,5.8l2.3,5.8l2.4-5.8l2.4-5.8l2.4-5.8l2.4-5.8c0.1-0.3,0.2-0.5,0.4-0.7
		c0.2-0.2,0.4-0.4,0.6-0.5c0.2-0.2,0.5-0.3,0.7-0.4c0.3-0.1,0.5-0.1,0.8-0.1l2,0l2,0l2,0l2,0c0.5,0,0.9,0.1,1.3,0.3
		c0.4,0.2,0.7,0.5,0.9,0.9c0.2,0.4,0.4,0.8,0.4,1.2S283.1,53.5,282.9,53.9 M314,76.9c0.8-0.9,1.4-1.9,1.8-3.1
		c0.4-1.2,0.6-2.6,0.6-4.1c0-1.5-0.2-2.9-0.6-4.1c-0.4-1.2-1-2.2-1.8-3.1c-0.8-0.9-1.7-1.5-2.8-1.9c-1-0.4-2.2-0.6-3.5-0.6
		c-1.3,0-2.4,0.2-3.4,0.7c-1,0.4-2,1.1-2.8,1.9c-0.8,0.9-1.4,1.9-1.8,3.1c-0.4,1.2-0.6,2.5-0.6,4.1c0,1.5,0.2,2.9,0.6,4.1
		c0.4,1.2,1,2.2,1.8,3.1c0.8,0.9,1.7,1.5,2.8,2c1,0.4,2.2,0.6,3.5,0.6c1.3,0,2.4-0.2,3.4-0.7C312.3,78.4,313.2,77.7,314,76.9
		 M296,88.3c-1.8-0.9-3.4-2-4.7-3.2c-1.4-1.3-2.6-2.7-3.6-4.3c-1-1.6-1.8-3.3-2.3-5.2c-0.5-1.8-0.8-3.8-0.8-5.8c0-2,0.2-3.9,0.7-5.8
		c0.5-1.8,1.2-3.5,2.2-5.2c1-1.6,2.2-3.1,3.5-4.3s2.9-2.3,4.7-3.2c1.8-0.9,3.6-1.6,5.6-2c2-0.5,4.1-0.7,6.3-0.7
		c2.2,0,4.3,0.2,6.3,0.7c2,0.4,3.9,1.1,5.7,2c1.8,0.9,3.3,2,4.7,3.2c1.4,1.2,2.6,2.7,3.6,4.3c1,1.6,1.7,3.3,2.2,5.1
		c0.5,1.8,0.8,3.8,0.8,5.8c0,2-0.2,4-0.7,5.8c-0.5,1.8-1.2,3.6-2.2,5.2c-1,1.6-2.2,3.1-3.5,4.3c-1.4,1.3-2.9,2.4-4.7,3.3
		c-1.8,0.9-3.6,1.6-5.6,2.1c-2,0.5-4.1,0.7-6.3,0.7c-2.2,0-4.3-0.2-6.3-0.7C299.6,89.8,297.7,89.2,296,88.3 M229.7,47.3h-4.4h-4.4
		c-0.8,0-1.4-0.3-1.9-0.8c-0.5-0.5-0.8-1.2-0.8-1.9v-3.3v-3.3c0-0.8,0.3-1.4,0.8-1.9c0.5-0.5,1.2-0.8,1.9-0.8h4.4h4.4
		c0.8,0,1.4,0.3,1.9,0.8c0.5,0.5,0.8,1.2,0.8,1.9v3.3v3.3c0,0.8-0.3,1.4-0.8,1.9C231.2,46.9,230.5,47.3,229.7,47.3 M229.7,91.4h-4.4
		h-4.4c-0.8,0-1.4-0.3-1.9-0.8s-0.8-1.2-0.8-1.9V70.8V53c0-0.8,0.3-1.4,0.8-1.9c0.5-0.5,1.2-0.8,1.9-0.8h4.4h4.4
		c0.8,0,1.4,0.3,1.9,0.8c0.5,0.5,0.8,1.2,0.8,1.9v17.9v17.9c0,0.8-0.3,1.4-0.8,1.9S230.5,91.4,229.7,91.4"/>
</g>
</svg>
