<svg width="537" height="177" viewBox="0 0 537 177" fill="none" xmlns="http://www.w3.org/2000/svg">
<path d="M0 71L13.728 0.279999H30.368L24.96 28.048H52.832L58.24 0.279999H74.88L61.152 71H44.512L50.232 41.568H22.36L16.64 71H0Z" fill="url(#paint0_linear_8_980)"/>
<path d="M92.0359 33.56H76.1239C79.6599 20.248 90.3719 13.28 104.932 13.28C119.804 13.28 126.772 20.976 126.772 31.168C126.772 32.832 126.564 34.392 126.252 36.16L122.196 57.064C121.156 62.472 120.844 65.696 120.844 68.192C120.844 69.336 120.948 70.168 121.052 71H104.62C104.516 70.584 104.516 70.064 104.516 69.44C104.516 68.296 104.62 66.84 104.828 65.176C99.4199 70.376 92.8679 72.664 86.8359 72.664C77.0599 72.664 69.8839 67.568 69.8839 57.792C69.8839 50.096 74.9799 43.44 84.5479 40.216C93.0759 37.408 98.8999 36.888 110.236 36.784L110.444 35.536C110.652 34.496 110.756 33.56 110.756 32.624C110.756 28.36 108.156 26.176 102.748 26.176C97.2359 26.176 93.5959 29.192 92.0359 33.56ZM86.3159 56.128C86.3159 59.872 88.7079 61.64 92.7639 61.64C99.9399 61.64 106.492 55.92 107.948 48.224L108.364 46.04C91.2039 46.352 86.3159 50.512 86.3159 56.128Z" fill="url(#paint1_linear_8_980)"/>
<path d="M139.517 71L130.677 15.048H147.421L151.581 52.072L151.789 58.52L154.389 52.072L173.005 15.048H189.853L159.173 71H139.517Z" fill="url(#paint2_linear_8_980)"/>
<path d="M236.908 52.592C231.812 65.904 219.644 72.664 207.06 72.664C192.084 72.664 182.828 64.136 182.828 49.472C182.828 30.232 196.244 13.28 215.796 13.28C230.564 13.28 238.884 22.224 238.884 36.056C238.884 38.344 238.676 40.84 238.26 43.336L237.74 46.248H199.26C199.156 47.184 199.156 48.016 199.156 48.952C199.156 56.336 202.276 59.976 208.308 59.976C213.612 59.976 217.98 57.792 220.268 52.592H236.908ZM214.34 25.968C208.412 25.968 203.836 30.648 201.34 37.096H223.076C223.076 36.888 223.076 36.576 223.076 36.368C223.076 29.608 220.06 25.968 214.34 25.968Z" fill="url(#paint3_linear_8_980)"/>
<path d="M255.877 71L269.605 0.279999H286.245L272.517 71H255.877Z" fill="url(#paint4_linear_8_980)"/>
<path d="M298.59 71L312.318 0.279999H341.022C354.75 0.279999 363.382 6.624 363.382 17.752C363.382 24.304 359.846 30.44 352.982 33.664C358.702 36.16 361.614 40.944 361.614 47.08C361.614 60.496 350.59 71 330.83 71H298.59ZM338.11 13.488H326.358L323.342 28.984H334.678C342.27 28.984 345.806 24.72 345.806 19.52C345.806 15.776 343.206 13.488 338.11 13.488ZM335.718 41.048H321.054L317.83 57.792H332.91C340.606 57.792 344.454 53.008 344.454 47.6C344.454 43.648 341.438 41.048 335.718 41.048Z" fill="url(#paint5_linear_8_980)"/>
<path d="M418.847 52.592C413.751 65.904 401.583 72.664 388.999 72.664C374.023 72.664 364.767 64.136 364.767 49.472C364.767 30.232 378.183 13.28 397.735 13.28C412.503 13.28 420.823 22.224 420.823 36.056C420.823 38.344 420.615 40.84 420.199 43.336L419.679 46.248H381.199C381.095 47.184 381.095 48.016 381.095 48.952C381.095 56.336 384.215 59.976 390.247 59.976C395.551 59.976 399.919 57.792 402.207 52.592H418.847ZM396.279 25.968C390.351 25.968 385.775 30.648 383.279 37.096H405.015C405.015 36.888 405.015 36.576 405.015 36.368C405.015 29.608 401.999 25.968 396.279 25.968Z" fill="url(#paint6_linear_8_980)"/>
<path d="M476.766 52.592C471.67 65.904 459.502 72.664 446.918 72.664C431.942 72.664 422.686 64.136 422.686 49.472C422.686 30.232 436.102 13.28 455.654 13.28C470.422 13.28 478.742 22.224 478.742 36.056C478.742 38.344 478.534 40.84 478.118 43.336L477.598 46.248H439.118C439.014 47.184 439.014 48.016 439.014 48.952C439.014 56.336 442.134 59.976 448.166 59.976C453.47 59.976 457.838 57.792 460.126 52.592H476.766ZM454.198 25.968C448.27 25.968 443.694 30.648 441.198 37.096H462.934C462.934 36.888 462.934 36.576 462.934 36.368C462.934 29.608 459.918 25.968 454.198 25.968Z" fill="url(#paint7_linear_8_980)"/>
<path d="M478.317 71L489.133 15.048H505.045L504.005 20.56C508.477 15.672 514.093 13.28 520.437 13.28C530.109 13.28 536.661 19 536.661 29.712C536.661 31.688 536.453 33.768 536.037 36.056L529.173 71H513.261L519.917 36.888C520.229 35.536 520.333 34.288 520.333 33.248C520.333 28.568 518.045 26.176 513.261 26.176C507.333 26.176 502.549 30.96 500.781 37.408L494.229 71H478.317Z" fill="url(#paint8_linear_8_980)"/>
<path d="M143.271 175.116L157.017 104.27H173.68L159.934 175.116H143.271ZM175.878 151.98H169.69L172.296 138.75H177.235C180.356 138.75 182.961 138.166 185.051 136.972C187.141 135.791 188.715 134.217 189.787 132.236C190.859 130.255 191.401 128.016 191.401 125.519C191.401 123.023 190.601 121.055 189 119.63C187.398 118.205 185.01 117.5 181.808 117.5H166.705L169.202 104.27H184.305C191.809 104.27 197.766 106.047 202.176 109.589C206.586 113.13 208.797 118.165 208.797 124.692C208.797 129.699 207.495 134.244 204.889 138.342C202.284 142.44 198.512 145.738 193.586 148.235C188.66 150.731 182.758 151.98 175.878 151.98Z" fill="url(#paint9_linear_8_980)"/>
<path d="M255.044 175.117L252.954 140.107L253.267 131.355H253.999L250.77 140.107L235.043 175.117H214.621L211.188 119.075H228.163L228.367 156.16L228.258 165.537H227.43L231.284 156.16L248.259 119.075H264.407L266.904 156.16L267.012 165.537H266.076L269.509 156.16L284.3 119.075H300.651L275.33 175.117H255.017H255.044Z" fill="url(#paint10_linear_8_980)"/>
<path d="M293.067 175.116L303.896 119.074H319.84L309.011 175.116H293.067ZM315.158 142.915H309.839C311.359 137.081 313.367 132.277 315.823 128.491C318.293 124.705 321.169 121.896 324.467 120.051C327.764 118.205 331.36 117.296 335.254 117.296C338.525 117.296 341.361 117.921 343.803 119.169C346.232 120.417 348.132 122.263 349.475 124.692C350.832 127.121 351.511 130.147 351.511 133.756C351.511 134.733 351.456 135.751 351.348 136.823C351.239 137.895 351.09 138.994 350.873 140.107L343.993 175.116H328.049L334.712 140.948C334.847 140.256 334.956 139.618 335.024 139.021C335.092 138.438 335.132 137.854 335.132 137.298C335.132 134.937 334.562 133.173 333.409 131.978C332.269 130.798 330.478 130.201 328.049 130.201C326.516 130.201 325.05 130.513 323.625 131.137C322.201 131.761 320.912 132.643 319.772 133.797C318.632 134.937 317.669 136.294 316.909 137.854C316.149 139.414 315.552 141.097 315.131 142.902L315.158 142.915Z" fill="url(#paint11_linear_8_980)"/>
<path d="M403.805 141.151L393.601 146.986C393.805 145.738 393.981 144.571 394.117 143.499C394.252 142.427 394.32 141.396 394.32 140.419C394.32 137.013 393.574 134.435 392.081 132.657C390.589 130.879 388.417 129.997 385.568 129.997C383.275 129.997 381.198 130.635 379.312 131.924C377.44 133.213 375.825 134.964 374.468 137.189C373.111 139.415 372.093 141.898 371.388 144.639C370.696 147.38 370.343 150.175 370.343 153.025C370.343 156.702 371.103 159.47 372.636 161.302C374.17 163.147 376.449 164.057 379.516 164.057C382.148 164.057 384.523 163.487 386.599 162.333C388.689 161.193 390.317 159.294 391.498 156.661H408.161C406.424 161.112 404.009 164.817 400.915 167.802C397.821 170.787 394.334 173.026 390.439 174.519C386.545 176.011 382.488 176.758 378.254 176.758C370.75 176.758 364.834 174.722 360.492 170.665C356.149 166.608 353.978 160.895 353.978 153.527C353.978 148.737 354.765 144.164 356.326 139.822C357.886 135.479 360.139 131.612 363.097 128.206C366.041 124.8 369.556 122.127 373.613 120.187C377.67 118.246 382.135 117.269 387.006 117.269C394.361 117.269 400.06 119.332 404.09 123.47C408.12 127.609 410.129 133.146 410.129 140.093C410.129 141.206 410.074 142.386 409.966 143.635C409.857 144.883 409.708 146.131 409.491 147.38L408.975 150.297H360.641L362.31 141.124H403.778L403.805 141.151Z" fill="url(#paint12_linear_8_980)"/>
<path d="M430.482 176.771C426.655 176.771 423.344 175.862 420.535 174.057C417.727 172.253 415.569 169.688 414.076 166.35C412.584 163.012 411.837 159.131 411.837 154.68C411.837 149.755 412.57 145.046 414.022 140.568C415.488 136.09 417.55 132.101 420.223 128.586C422.896 125.085 426.072 122.317 429.749 120.309C433.426 118.301 437.497 117.283 441.934 117.283C447.213 117.283 451.243 119.101 454.025 122.751C456.806 126.402 458.191 131.517 458.191 138.112C458.191 143.458 457.444 148.479 455.952 153.16C454.459 157.842 452.396 161.967 449.75 165.509C447.104 169.05 444.146 171.805 440.849 173.786C437.551 175.767 434.091 176.758 430.482 176.758V176.771ZM436.317 163.853C438.61 163.853 440.672 163.107 442.518 161.614C444.363 160.122 445.924 158.195 447.199 155.834C448.488 153.473 449.438 150.921 450.062 148.18C450.687 145.439 450.999 142.821 450.999 140.31C450.999 137.04 450.32 134.543 448.963 132.806C447.606 131.069 445.612 130.201 442.979 130.201C440.889 130.201 438.963 130.879 437.199 132.236C435.435 133.593 433.888 135.384 432.558 137.596C431.242 139.822 430.21 142.332 429.491 145.154C428.758 147.963 428.392 150.827 428.392 153.744C428.392 157.014 429.057 159.511 430.373 161.248C431.689 162.985 433.671 163.853 436.317 163.853ZM444.96 175.116L459.547 100.104H475.492L460.904 175.116H444.96Z" fill="url(#paint13_linear_8_980)"/>
<path d="M142.502 151.983L145.067 138.753H128.39L125.825 151.983H142.502Z" fill="url(#paint14_linear_8_980)"/>
<path d="M120.56 151.983L123.125 138.753H106.448L103.884 151.983H120.56Z" fill="url(#paint15_linear_8_980)"/>
<path d="M94.1239 175.119L97.5841 157.261H80.9073L77.4471 175.119H94.1239Z" fill="url(#paint16_linear_8_980)"/>
<path d="M76.6768 151.983L83.3666 117.503H66.6898L60 151.983H76.6768Z" fill="url(#paint17_linear_8_980)"/>
<path d="M98.6186 151.982L102.079 134.125H85.402L81.9418 151.982H98.6186Z" fill="url(#paint18_linear_8_980)"/>
<defs>
<linearGradient id="paint0_linear_8_980" x1="457" y1="158" x2="80" y2="55.5" gradientUnits="userSpaceOnUse">
<stop stop-color="#1D72A7"/>
<stop offset="1" stop-color="#C8E5F8"/>
</linearGradient>
<linearGradient id="paint1_linear_8_980" x1="457" y1="158" x2="80" y2="55.5" gradientUnits="userSpaceOnUse">
<stop stop-color="#1D72A7"/>
<stop offset="1" stop-color="#C8E5F8"/>
</linearGradient>
<linearGradient id="paint2_linear_8_980" x1="457" y1="158" x2="80" y2="55.5" gradientUnits="userSpaceOnUse">
<stop stop-color="#1D72A7"/>
<stop offset="1" stop-color="#C8E5F8"/>
</linearGradient>
<linearGradient id="paint3_linear_8_980" x1="457" y1="158" x2="80" y2="55.5" gradientUnits="userSpaceOnUse">
<stop stop-color="#1D72A7"/>
<stop offset="1" stop-color="#C8E5F8"/>
</linearGradient>
<linearGradient id="paint4_linear_8_980" x1="457" y1="158" x2="80" y2="55.5" gradientUnits="userSpaceOnUse">
<stop stop-color="#1D72A7"/>
<stop offset="1" stop-color="#C8E5F8"/>
</linearGradient>
<linearGradient id="paint5_linear_8_980" x1="457" y1="158" x2="80" y2="55.5" gradientUnits="userSpaceOnUse">
<stop stop-color="#1D72A7"/>
<stop offset="1" stop-color="#C8E5F8"/>
</linearGradient>
<linearGradient id="paint6_linear_8_980" x1="457" y1="158" x2="80" y2="55.5" gradientUnits="userSpaceOnUse">
<stop stop-color="#1D72A7"/>
<stop offset="1" stop-color="#C8E5F8"/>
</linearGradient>
<linearGradient id="paint7_linear_8_980" x1="457" y1="158" x2="80" y2="55.5" gradientUnits="userSpaceOnUse">
<stop stop-color="#1D72A7"/>
<stop offset="1" stop-color="#C8E5F8"/>
</linearGradient>
<linearGradient id="paint8_linear_8_980" x1="457" y1="158" x2="80" y2="55.5" gradientUnits="userSpaceOnUse">
<stop stop-color="#1D72A7"/>
<stop offset="1" stop-color="#C8E5F8"/>
</linearGradient>
<linearGradient id="paint9_linear_8_980" x1="457" y1="158" x2="80" y2="55.5" gradientUnits="userSpaceOnUse">
<stop stop-color="#1D72A7"/>
<stop offset="1" stop-color="#C8E5F8"/>
</linearGradient>
<linearGradient id="paint10_linear_8_980" x1="457" y1="158" x2="80" y2="55.5" gradientUnits="userSpaceOnUse">
<stop stop-color="#1D72A7"/>
<stop offset="1" stop-color="#C8E5F8"/>
</linearGradient>
<linearGradient id="paint11_linear_8_980" x1="457" y1="158" x2="80" y2="55.5" gradientUnits="userSpaceOnUse">
<stop stop-color="#1D72A7"/>
<stop offset="1" stop-color="#C8E5F8"/>
</linearGradient>
<linearGradient id="paint12_linear_8_980" x1="457" y1="158" x2="80" y2="55.5" gradientUnits="userSpaceOnUse">
<stop stop-color="#1D72A7"/>
<stop offset="1" stop-color="#C8E5F8"/>
</linearGradient>
<linearGradient id="paint13_linear_8_980" x1="457" y1="158" x2="80" y2="55.5" gradientUnits="userSpaceOnUse">
<stop stop-color="#1D72A7"/>
<stop offset="1" stop-color="#C8E5F8"/>
</linearGradient>
<linearGradient id="paint14_linear_8_980" x1="457" y1="158" x2="80" y2="55.5" gradientUnits="userSpaceOnUse">
<stop stop-color="#1D72A7"/>
<stop offset="1" stop-color="#C8E5F8"/>
</linearGradient>
<linearGradient id="paint15_linear_8_980" x1="457" y1="158" x2="80" y2="55.5" gradientUnits="userSpaceOnUse">
<stop stop-color="#1D72A7"/>
<stop offset="1" stop-color="#C8E5F8"/>
</linearGradient>
<linearGradient id="paint16_linear_8_980" x1="457" y1="158" x2="80" y2="55.5" gradientUnits="userSpaceOnUse">
<stop stop-color="#1D72A7"/>
<stop offset="1" stop-color="#C8E5F8"/>
</linearGradient>
<linearGradient id="paint17_linear_8_980" x1="457" y1="158" x2="80" y2="55.5" gradientUnits="userSpaceOnUse">
<stop stop-color="#1D72A7"/>
<stop offset="1" stop-color="#C8E5F8"/>
</linearGradient>
<linearGradient id="paint18_linear_8_980" x1="457" y1="158" x2="80" y2="55.5" gradientUnits="userSpaceOnUse">
<stop stop-color="#1D72A7"/>
<stop offset="1" stop-color="#C8E5F8"/>
</linearGradient>
</defs>
</svg>
