<?xml version="1.0" encoding="UTF-8"?>
<svg version="1.1" xmlns="http://www.w3.org/2000/svg" width="678" height="368">
<path d="M0 0 C2.97 0 5.94 0 9 0 C10 1 10 1 10.12025452 3.85365295 C10.11803391 5.13050461 10.11581329 6.40735626 10.11352539 7.72290039 C10.11367142 8.4253035 10.11381744 9.1277066 10.1139679 9.85139465 C10.11326872 12.18351278 10.10547617 14.515552 10.09765625 16.84765625 C10.09579208 18.46048438 10.09436818 20.07331307 10.09336853 21.68614197 C10.08954323 25.93915357 10.07971285 30.19213124 10.06866455 34.44512939 C10.05845069 38.7817743 10.05387096 43.11842467 10.04882812 47.45507812 C10.03809059 55.97006769 10.02101403 64.48502963 10 73 C6.7 73 3.4 73 0 73 C0 71.68 0 70.36 0 69 C-0.48726563 69.3609375 -0.97453125 69.721875 -1.4765625 70.09375 C-8.31048491 74.56686285 -14.9659706 75.16435209 -23 74 C-25.921875 72.59375 -25.921875 72.59375 -28 71 C-28 70.34 -28 69.68 -28 69 C-28.99 68.67 -29.98 68.34 -31 68 C-32.09765625 66.46875 -32.09765625 66.46875 -33.0625 64.5 C-33.38347656 63.8709375 -33.70445312 63.241875 -34.03515625 62.59375 C-35.42589175 58.85509263 -36.13467574 54.89395918 -37 51 C-48.22 51.33 -59.44 51.66 -71 52 C-68.09395564 60.14315062 -68.09395564 60.14315062 -62 65 C-54.11874519 66.12776691 -48.1046758 64.29492211 -41 61 C-41 64.3 -41 67.6 -41 71 C-46.27246974 73.59822886 -50.45147695 74.55169736 -56.3125 74.5 C-57.05653076 74.49500488 -57.80056152 74.49000977 -58.56713867 74.48486328 C-64.87628243 74.28592323 -69.95330351 72.97872337 -75 69 C-80.26635944 62.78839656 -82.53717762 56.11732162 -82.375 48.0625 C-82.36919922 47.36318359 -82.36339844 46.66386719 -82.35742188 45.94335938 C-82.22463942 40.66648638 -81.3453019 36.69060379 -79 32 C-78.34 32 -77.68 32 -77 32 C-76.773125 31.4225 -76.54625 30.845 -76.3125 30.25 C-73.95958243 26.21642703 -71.00754358 24.38020513 -66.6875 22.75 C-59.6354965 21.3156942 -53.29565869 21.24778742 -47 25 C-41.33569693 29.82598621 -38.88571074 34.90085367 -37 42 C-36.01 38.7 -35.02 35.4 -34 32 C-33.34 32 -32.68 32 -32 32 C-31.7525 31.4225 -31.505 30.845 -31.25 30.25 C-29.20753172 26.5735571 -27.09426071 24.49739123 -23.25 22.75 C-16.07344117 21.09387104 -10.55272504 21.83260741 -4 25 C-3.01 25.66 -2.02 26.32 -1 27 C-0.67 18.09 -0.34 9.18 0 0 Z M-68 33 C-69.8965501 36.54022685 -71 38.97549323 -71 43 C-63.41 43 -55.82 43 -48 43 C-48 37.5095733 -48.61125596 36.12144545 -52 32 C-57.72890139 28.76831204 -62.60445215 29.36386993 -68 33 Z M-22 33 C-26.93491708 38.58424828 -26.67879601 45.09158822 -26.40625 52.21875 C-25.90273947 56.90527105 -24.91080531 59.36149337 -22 63 C-21.34 63 -20.68 63 -20 63 C-20 63.66 -20 64.32 -20 65 C-16.50630349 66.74684825 -12.8120394 66.56474658 -9 66 C-4.39380353 63.09980222 -1.66675881 60.18547185 0 55 C0.76367902 46.77984391 0.6283184 40.01053493 -4.3125 33.1875 C-10.22333287 29.02802502 -16.06538539 29.16722807 -22 33 Z " fill="#1C1C1C" transform="translate(380,139)"/>
<path d="M0 0 C3 1 3 1 4.16796875 2.84765625 C4.50441406 3.57855469 4.84085938 4.30945313 5.1875 5.0625 C5.53167969 5.79597656 5.87585938 6.52945313 6.23046875 7.28515625 C6.48441406 7.85105469 6.73835938 8.41695312 7 9 C3.78130827 12.70606462 0.69204851 13.00005523 -4 14 C-3.505 15.485 -3.505 15.485 -3 17 C-2.49524222 23.1580449 -2.96693841 26.04509577 -7 31 C-11.1634123 35.74297821 -17.35062153 36.92937578 -23.4375 37.5625 C-27.04489071 37.63446135 -27.04489071 37.63446135 -29 40 C-28.43079834 40.02916504 -27.86159668 40.05833008 -27.27514648 40.08837891 C-24.66006443 40.23869235 -22.04972762 40.43150166 -19.4375 40.625 C-18.54224609 40.67011719 -17.64699219 40.71523437 -16.72460938 40.76171875 C-10.97356682 41.22517273 -7.59556618 42.38174813 -3.35961914 46.34521484 C0.64120551 51.21459705 0.48161148 55.94545565 0 62 C-0.95709231 65.46025681 -2.11275149 67.80569113 -5 70 C-5.99 70 -6.98 70 -8 70 C-8 70.66 -8 71.32 -8 72 C-17.28178004 75.97790573 -28.43824192 76.72213563 -38.1875 73.75 C-42.91378503 71.81447375 -46.01875258 69.47187113 -48.875 65.1875 C-50.23160295 61.34379163 -49.92511583 58.93174228 -49 55 C-48 54 -48 54 -45.05859375 53.90234375 C-43.86363281 53.91394531 -42.66867188 53.92554688 -41.4375 53.9375 C-39.64119141 53.95103516 -39.64119141 53.95103516 -37.80859375 53.96484375 C-36.88175781 53.97644531 -35.95492187 53.98804688 -35 54 C-34.87625 55.670625 -34.87625 55.670625 -34.75 57.375 C-34.38234757 60.92880296 -34.38234757 60.92880296 -32.4375 62.4375 C-26.90788165 63.71356577 -21.5045149 63.10090298 -16 62 C-16 59.03 -16 56.06 -16 53 C-19.54010371 52.29197926 -22.96617299 51.92136202 -26.56640625 51.82421875 C-27.38173828 51.80037109 -28.19707031 51.77652344 -29.03710938 51.75195312 C-30.72434928 51.70889132 -32.41193256 51.67769131 -34.09960938 51.65820312 C-38.15841087 51.52001748 -40.48125746 51.31406405 -44.01953125 49.171875 C-46.8091093 46.11269276 -47.14412603 44.10759185 -47 40 C-44.5625 37.25 -44.5625 37.25 -42 35 C-42 34.01 -42 33.02 -42 32 C-42.804375 31.38125 -43.60875 30.7625 -44.4375 30.125 C-47 28 -47 28 -47.8125 25.6875 C-47.874375 24.800625 -47.93625 23.91375 -48 23 C-48.0825 21.88625 -48.165 20.7725 -48.25 19.625 C-47.86072531 13.98051692 -46.10625999 9.76459373 -42.1875 5.6875 C-35.91885782 0.79586081 -27.38140097 0.53146145 -19.74609375 1.40625 C-17.00828565 1.76277276 -14.31574884 2.2084282 -11.59375 2.6875 C-7.04828278 3.08275802 -4.01622734 2.00811367 0 0 Z M-33 15 C-33.55381008 18.05434651 -33.55066609 20.94525231 -33 24 C-31.19519984 26.22713126 -31.19519984 26.22713126 -28.6875 26.23046875 C-27.800625 26.21628906 -26.91375 26.20210937 -26 26.1875 C-25.113125 26.18105469 -24.22625 26.17460937 -23.3125 26.16796875 C-20.97393655 26.14581927 -20.97393655 26.14581927 -19 25 C-17.93650471 19.4241759 -17.93650471 19.4241759 -19 14 C-24.11662016 11.3725464 -28.59995717 10.9666274 -33 15 Z " fill="#121212" transform="translate(250,157)"/>
<path d="M0 0 C35.91891892 0 35.91891892 0 43.9375 6.3125 C49.45104561 13.49681701 49.87134172 20.09667495 49 29 C48.25045988 31.64062123 47.34550313 33.5893069 46 36 C45.34 36 44.68 36 44 36 C44 36.99 44 37.98 44 39 C43.01 39 42.02 39 41 39 C40.67 39.99 40.34 40.98 40 42 C31.75787191 45.90416594 23.95527109 45.22576314 15 45 C15 53.58 15 62.16 15 71 C10.05 71 5.1 71 0 71 C0 47.57 0 24.14 0 0 Z M15 12 C15 18.93 15 25.86 15 33 C22.79492719 33.47938474 22.79492719 33.47938474 30.25 31.75 C33.10887087 27.25748863 33.0157849 22.15598403 32 17 C29.74169771 14.17354133 28.45175315 13.15058438 25 12 C21.7 12 18.4 12 15 12 Z " fill="#090909" transform="translate(81,141)"/>
<path d="M0 0 C0.66 1.32 1.32 2.64 2 4 C4.08957128 3.52680112 6.02300837 2.99055493 8.0078125 2.17578125 C13.99013267 -0.26350428 18.9628241 -0.53919615 25 2 C27.71861817 4.24581501 29.42052946 6.84105892 31 10 C31.08934406 11.41973273 31.11758978 12.84357791 31.11352539 14.26611328 C31.11344986 15.14687531 31.11337433 16.02763733 31.11329651 16.93508911 C31.10813522 17.88721283 31.10297394 18.83933655 31.09765625 19.8203125 C31.0962413 20.79410858 31.09482635 21.76790466 31.09336853 22.77120972 C31.08775973 25.88917073 31.07520573 29.0070606 31.0625 32.125 C31.05748613 34.23567605 31.05292303 36.34635322 31.04882812 38.45703125 C31.03778744 43.63804835 31.02051689 48.8190121 31 54 C26.38 54 21.76 54 17 54 C16.97494385 52.89487061 16.9498877 51.78974121 16.92407227 50.65112305 C16.82993491 46.55285956 16.72972959 42.45476306 16.62768555 38.35668945 C16.58436066 36.58264063 16.54268381 34.80855077 16.50268555 33.03442383 C16.4449238 30.48506295 16.38124638 27.9359082 16.31640625 25.38671875 C16.29969376 24.59287277 16.28298126 23.79902679 16.26576233 22.98112488 C16.17882282 19.75316923 16.02749634 17.08248901 15 14 C10.27620261 13.69778846 10.27620261 13.69778846 5.80371094 14.98754883 C3.02980505 18.08247388 3.39675125 21.42843016 3.390625 25.38671875 C3.37408875 26.20372757 3.35755249 27.02073639 3.34051514 27.86250305 C3.2919466 30.47091114 3.27064541 33.07873594 3.25 35.6875 C3.22184759 37.4564097 3.19192119 39.22529211 3.16015625 40.99414062 C3.08618572 45.32937906 3.03666561 49.66429203 3 54 C-1.95 54 -6.9 54 -12 54 C-12.33 37.17 -12.66 20.34 -13 3 C-2 0 -2 0 0 0 Z " fill="#111111" transform="translate(167,158)"/>
<path d="M0 0 C5.02597867 3.88371079 6.9817394 8.09471898 9 14 C9 17.96 9 21.92 9 26 C-2.22 26 -13.44 26 -25 26 C-22.1148214 33.87577052 -22.1148214 33.87577052 -17 38 C-17 38.66 -17 39.32 -17 40 C-8.21354482 40.4499465 -1.77747108 40.29101853 6 36 C6 39.3 6 42.6 6 46 C0.80608831 49.15494474 -3.4044363 49.5435441 -9.3125 49.5 C-10.15683594 49.49718018 -11.00117188 49.49436035 -11.87109375 49.49145508 C-18.22354761 49.32612902 -23.08905612 48.27300264 -28 44 C-28.52207031 43.57332031 -29.04414063 43.14664063 -29.58203125 42.70703125 C-34.43721226 36.86208882 -35.68784427 27.1058927 -35.39453125 19.71875 C-34.69871473 14.92381633 -33.34639257 10.253327 -31 6 C-30.01 5.67 -29.02 5.34 -28 5 C-27.67 4.01 -27.34 3.02 -27 2 C-19.56739325 -4.88204329 -8.52548113 -4.61796894 0 0 Z M-20 8 C-23.4313333 11.52407204 -23.99741327 12.98706633 -25 18 C-17.08 18 -9.16 18 -1 18 C-2.13392127 12.09257739 -2.13392127 12.09257739 -5 7 C-10.51243777 4.42247507 -14.96963588 4.37345842 -20 8 Z " fill="#1D1D1D" transform="translate(427,164)"/>
<path d="M0 0 C5.36898753 4.5338117 8.33682029 8.97029508 9 16 C9 19.3 9 22.6 9 26 C-2.22 26 -13.44 26 -25 26 C-23.35 29.3 -21.7 32.6 -20 36 C-20 36.66 -20 37.32 -20 38 C-19.38125 38.144375 -18.7625 38.28875 -18.125 38.4375 C-16 39 -16 39 -14 40 C-6.24860432 40.80826519 -0.86216524 39.59982439 6 36 C6 39.3 6 42.6 6 46 C-1.57335875 50.60029546 -10.42788191 49.95374467 -19 49 C-25.09015617 47.4460684 -28.11534026 44.30061024 -31.5 39.125 C-33.68095997 35.05226812 -34.82705137 31.66961303 -35 27 C-35.061875 25.72125 -35.12375 24.4425 -35.1875 23.125 C-35.08795279 16.7166483 -33.99958791 10.16613438 -30 5 C-29.34 5 -28.68 5 -28 5 C-27.67 4.01 -27.34 3.02 -27 2 C-18.26984466 -3.60047701 -9.4593768 -5.09507205 0 0 Z M-20 7 C-23.46135154 12.15927495 -23.46135154 12.15927495 -25 18 C-17.08 18 -9.16 18 -1 18 C-1.95187111 12.28877334 -2.22121028 10.88675514 -6 7 C-10.59067944 3.98736662 -15.27962553 4.4953115 -20 7 Z " fill="#1D1D1D" transform="translate(573,164)"/>
<path d="M0 0 C3.86742228 3.03122287 6.61219691 7.03050789 7.26156616 12.00286865 C7.34560213 14.30725249 7.33757767 16.59296159 7.29296875 18.8984375 C7.28872391 19.73339752 7.28447906 20.56835754 7.28010559 21.42861938 C7.26340333 24.07775035 7.22576775 26.7261016 7.1875 29.375 C7.1724422 31.17837438 7.15875571 32.98176076 7.14648438 34.78515625 C7.11352762 39.1904015 7.06180469 43.59506886 7 48 C4.03 48 1.06 48 -2 48 C-2 46.68 -2 45.36 -2 44 C-2.62261719 44.54140625 -2.62261719 44.54140625 -3.2578125 45.09375 C-9.63034721 49.89314853 -16.24467919 50.07962703 -24 49 C-27.4296875 47.46875 -27.4296875 47.46875 -30 46 C-30 45.34 -30 44.68 -30 44 C-30.66 44 -31.32 44 -32 44 C-34.28960916 38.27597711 -34.78233117 33.36402402 -33.375 27.3125 C-29.94490191 21.54369866 -25.15000039 19.19639324 -18.87890625 17.4921875 C-13.60466141 16.59048485 -8.32936575 16.77446258 -3 17 C-4.35305225 10.95858512 -4.35305225 10.95858512 -8.125 6.375 C-14.03761208 5.60378973 -19.59775583 6.45776745 -25 9 C-25.99 9.33 -26.98 9.66 -28 10 C-28.33 7.36 -28.66 4.72 -29 2 C-20.02601254 -3.98265831 -9.59407768 -5.08050023 0 0 Z M-22.875 28.6875 C-24.49243822 32.01223413 -23.74754569 34.46614763 -23 38 C-22.34 38 -21.68 38 -21 38 C-21 38.66 -21 39.32 -21 40 C-17.53749757 41.73125121 -13.78591771 41.47815224 -10 41 C-6.53131237 38.93354779 -4.19108028 36.89808091 -3 33 C-2.84992694 30.30903473 -2.91000045 27.69998637 -3 25 C-5.0622048 24.945652 -7.12482816 24.90705039 -9.1875 24.875 C-10.33605469 24.85179687 -11.48460937 24.82859375 -12.66796875 24.8046875 C-16.8655164 25.05073367 -19.73689175 25.86320258 -22.875 28.6875 Z " fill="#181818" transform="translate(499,164)"/>
<path d="M0 0 C11.88 0 23.76 0 36 0 C36 3.3 36 6.6 36 10 C27.75 10 19.5 10 11 10 C11 15.94 11 21.88 11 28 C18.92 28 26.84 28 35 28 C35 31.3 35 34.6 35 38 C27.08 38 19.16 38 11 38 C11 47.9 11 57.8 11 68 C7.37 68 3.74 68 0 68 C0 45.56 0 23.12 0 0 Z " fill="#1F1F1F" transform="translate(262,144)"/>
<path d="M0 0 C0 4.95 0 9.9 0 15 C4.29 15 8.58 15 13 15 C13 17.64 13 20.28 13 23 C8.71 23 4.42 23 0 23 C0.12007423 27.05697616 0.24280518 31.11373694 0.37231445 35.17041016 C0.4155455 36.54959378 0.45722866 37.92882685 0.49731445 39.30810547 C0.55530403 41.29406938 0.61937723 43.27985269 0.68359375 45.265625 C0.72025146 46.45961914 0.75690918 47.65361328 0.79467773 48.88378906 C0.91894104 52.18074351 0.91894104 52.18074351 2 56 C5.63 56 9.26 56 13 56 C13.09765625 62.15234375 13.09765625 62.15234375 13 64 C11.14709648 65.85290352 8.23375369 65.21658627 5.75 65.25 C4.61046875 65.27578125 3.4709375 65.3015625 2.296875 65.328125 C-1.28727119 64.97140903 -3.16859353 64.19274335 -6 62 C-6 61.34 -6 60.68 -6 60 C-6.66 60 -7.32 60 -8 60 C-9.55977064 56.88045872 -9.12104126 53.57040616 -9.09765625 50.1484375 C-9.0962413 49.37440582 -9.09482635 48.60037415 -9.09336853 47.80288696 C-9.08776403 45.32688558 -9.07521083 42.85097412 -9.0625 40.375 C-9.05748558 38.69791797 -9.05292257 37.02083453 -9.04882812 35.34375 C-9.03779315 31.22913194 -9.02052554 27.11458122 -9 23 C-12.63 23 -16.26 23 -20 23 C-20 20.36 -20 17.72 -20 15 C-16.37 15 -12.74 15 -9 15 C-9 11.04 -9 7.08 -9 3 C-1.125 0 -1.125 0 0 0 Z " fill="#151515" transform="translate(526,148)"/>
<path d="M0 0 C0 17.82 0 35.64 0 54 C-4.62 54 -9.24 54 -14 54 C-14 36.84 -14 19.68 -14 2 C-2 0 -2 0 0 0 Z " fill="#0B0B0B" transform="translate(148,158)"/>
<path d="M0 0 C0 2.97 0 5.94 0 9 C-3.63 9 -7.26 9 -11 9 C-11.33 9.99 -11.66 10.98 -12 12 C-12.66 12 -13.32 12 -14 12 C-15.83104884 20.40539636 -16.4028293 28.60152809 -16.625 37.1875 C-16.68300781 39.0447168 -16.68300781 39.0447168 -16.7421875 40.93945312 C-16.83547069 43.95949626 -16.92126406 46.9795486 -17 50 C-20.3 50 -23.6 50 -27 50 C-27 33.83 -27 17.66 -27 1 C-24.03 1 -21.06 1 -18 1 C-17.67 2.65 -17.34 4.3 -17 6 C-16.443125 5.21625 -15.88625 4.4325 -15.3125 3.625 C-11.38353493 -0.8349063 -5.62460001 -2.8123 0 0 Z " fill="#181818" transform="translate(466,162)"/>
<path d="M0 0 C2 1.0625 2 1.0625 3 3 C3.51624389 7.57244587 3.59772805 9.87627126 1.4375 13.9375 C-1.77244958 16.65361118 -3.82044153 17 -8 17 C-10.94755732 15.65437601 -12.54277272 14.91445456 -14 12 C-14.203125 9.94140625 -14.203125 9.94140625 -14.25 7.5625 C-14.28867188 6.38880859 -14.28867188 6.38880859 -14.328125 5.19140625 C-13.91962728 2.46322502 -13.16727539 1.6558389 -11 0 C-7.0635234 -1.31215887 -4.00532247 -0.90954198 0 0 Z " fill="#161616" transform="translate(147,138)"/>
<path d="M0 0 C2.92986323 -0.29795219 5.14352761 -0.50687865 8 0 C11.29420787 2.88243189 12.76884408 4.74148444 13.5625 9.0625 C12.82633819 12.90690056 12.03301431 14.4848174 9 17 C4.67877742 17.91181761 1.23206674 17.80084338 -2.5 15.375 C-4.35921047 12.43125008 -4.9288308 10.48729073 -5 7 C-3.6875 4.125 -3.6875 4.125 -2 2 C-1.34 2 -0.68 2 0 2 C0 1.34 0 0.68 0 0 Z M-1 6 C-1.6814823 7.89179203 -1.6814823 7.89179203 -2 10 C-1.34 10.66 -0.68 11.32 0 12 C0 10.02 0 8.04 0 6 C-0.33 6 -0.66 6 -1 6 Z M3 6 C3 6.66 3 7.32 3 8 C3.99 8 4.98 8 6 8 C6 7.34 6 6.68 6 6 C5.01 6 4.02 6 3 6 Z M9 6 C9 6.99 9 7.98 9 9 C8.34 9 7.68 9 7 9 C7 9.99 7 10.98 7 12 C7.99 12 8.98 12 10 12 C10 10.02 10 8.04 10 6 C9.67 6 9.34 6 9 6 Z M3 10 C2.67 11.65 2.34 13.3 2 15 C3.32 15 4.64 15 6 15 C5.34 13.35 4.68 11.7 4 10 C3.67 10 3.34 10 3 10 Z " fill="#545454" transform="translate(584,146)"/>
<path d="M0 0 C0 0.66 0 1.32 0 2 C-1.65 2 -3.3 2 -5 2 C-5 4.97 -5 7.94 -5 11 C-2.525 11.99 -2.525 11.99 0 13 C-0.66 11.68 -1.32 10.36 -2 9 C-1.34 9 -0.68 9 0 9 C0.33 8.34 0.66 7.68 1 7 C1 7.99 1 8.98 1 10 C1.66 10 2.32 10 3 10 C3 10.66 3 11.32 3 12 C3.66 12.33 4.32 12.66 5 13 C2.60713116 15.39286884 1.90552906 15.32050616 -1.375 15.375 C-4.57393117 15.29271238 -5.75772415 15.1574793 -8.5 13.375 C-10.31093231 10.50769051 -10.85301244 8.38071398 -11 5 C-10.34 4.34 -9.68 3.68 -9 3 C-8.34 3 -7.68 3 -7 3 C-6.67 2.34 -6.34 1.68 -6 1 C-3 0 -3 0 0 0 Z M-7 4 C-7.6814823 5.89179203 -7.6814823 5.89179203 -8 8 C-7.34 8.66 -6.68 9.32 -6 10 C-6 8.02 -6 6.04 -6 4 C-6.33 4 -6.66 4 -7 4 Z " fill="#707070" transform="translate(590,148)"/>
<path d="M0 0 C1.98 0 3.96 0 6 0 C6 0.66 6 1.32 6 2 C4.576875 2.12375 4.576875 2.12375 3.125 2.25 C-0.10461791 2.65074923 -0.10461791 2.65074923 -1.375 5.0625 C-1.58125 5.701875 -1.7875 6.34125 -2 7 C-2.33 5.68 -2.66 4.36 -3 3 C-2.01 2.67 -1.02 2.34 0 2 C0 1.34 0 0.68 0 0 Z " fill="#2D2D2D" transform="translate(584,146)"/>
<path d="M0 0 C1.32 0 2.64 0 4 0 C4 0.66 4 1.32 4 2 C3.34 2 2.68 2 2 2 C2 4.31 2 6.62 2 9 C1.34 9 0.68 9 0 9 C0 6.03 0 3.06 0 0 Z " fill="#050505" transform="translate(585,150)"/>
<path d="M0 0 C0.99 0.33 1.98 0.66 3 1 C3 2.98 3 4.96 3 7 C2.01 7.33 1.02 7.66 0 8 C-1.125 2.25 -1.125 2.25 0 0 Z " fill="#7D7D7D" transform="translate(580,151)"/>
<path d="M0 0 C0.99 0 1.98 0 3 0 C3 1.65 3 3.3 3 5 C2.34 5 1.68 5 1 5 C1 5.66 1 6.32 1 7 C0.01 6.67 -0.98 6.34 -2 6 C-2 5.34 -2 4.68 -2 4 C-1.01 4 -0.02 4 1 4 C0.67 2.68 0.34 1.36 0 0 Z " fill="#2E2E2E" transform="translate(589,150)"/>
</svg>
