<svg xmlns="http://www.w3.org/2000/svg" width="100%" viewBox="0 0 160 16" fill="none">
  <g clip-path="url(#clip0_1297_2)">
    <path d="M46.7264 0.836734V14.7969C46.7264 15.1512 46.4409 15.4367 46.0866 15.4367H44.7835C41.1254 15.4367 39.9976 14.1372 35.8045 8.6211L35.4394 8.14034C31.6963 3.24777 31.389 2.84834 29.578 2.84834H29.5582V14.8005C29.5582 15.153 29.2726 15.4385 28.9202 15.4385H27.5682C27.2158 15.4385 26.9302 15.1548 26.9284 14.8041V0.838542C26.9284 0.484296 27.2158 0.19873 27.5682 0.19873H28.8732C32.7084 0.19873 33.8182 1.50546 37.8974 7.03603C41.7399 12.2612 42.1411 12.8088 44.084 12.8088H44.1021V0.838542C44.1021 0.484296 44.3895 0.19873 44.7419 0.19873H46.092C46.4445 0.19873 46.73 0.484296 46.73 0.836734" fill="currentColor"/>
    <path d="M103.173 0.19873H101.387C100.431 0.19873 99.9862 0.71564 99.6409 1.13314L92.547 9.55913L85.4747 1.13314C85.1024 0.693951 84.6759 0.19873 83.7306 0.19873H81.9431C81.5889 0.19873 81.3033 0.486104 81.3033 0.840349V14.7951C81.3033 15.1475 81.5907 15.4349 81.9431 15.4367H83.2246C83.5788 15.4367 83.8662 15.1493 83.8662 14.7951V3.1809L91.3415 11.9684C91.4644 12.1166 91.6451 12.2015 91.8367 12.2015H93.288C93.476 12.2015 93.6567 12.1202 93.7778 11.9756L101.253 3.18994V14.7969C101.253 15.1512 101.541 15.4385 101.895 15.4385H103.174C103.529 15.4385 103.816 15.1512 103.816 14.7969V0.840349C103.816 0.486104 103.529 0.19873 103.174 0.19873H103.169H103.173Z" fill="currentColor"/>
    <path d="M150.828 12.8758H143.264C139.79 12.8758 138.617 11.9649 138.617 9.26829V0.83688C138.617 0.484442 138.331 0.200684 137.979 0.200684H136.641C136.289 0.200684 136.003 0.484441 136.002 0.835072V9.27009C136.002 13.5933 138.172 15.4369 143.258 15.4369H150.822C151.175 15.4369 151.462 15.1513 151.462 14.8007V13.5156C151.462 13.165 151.18 12.8812 150.831 12.8776" fill="currentColor"/>
    <path d="M159.427 0.19873H157.961C157.645 0.19873 157.39 0.457185 157.392 0.771669V14.871C157.392 15.1837 157.647 15.4385 157.961 15.4403H159.427C159.741 15.4403 159.998 15.1855 160 14.871V0.773476C160 0.458993 159.745 0.202345 159.431 0.200538H159.429L159.427 0.19873Z" fill="currentColor"/>
    <path d="M74.5707 7.81871C74.5707 14.3235 70.3487 15.6573 64.0084 15.6573C57.6681 15.6573 53.4389 14.3253 53.4389 7.81871C53.4389 1.31215 57.6699 0 64.0084 0C70.3469 0 74.5707 1.33023 74.5707 7.81871ZM71.8976 7.81871C71.8976 3.27316 69.3528 2.4743 64.0084 2.4743C58.664 2.4743 56.121 3.27316 56.121 7.81871C56.121 12.3643 58.6658 13.1541 64.0084 13.1541C69.351 13.1541 71.8976 12.3552 71.8976 7.81871Z" fill="currentColor"/>
    <path d="M125.025 3.19886C124.053 1.27762 122.904 0.00341797 120.447 0.00341797C117.836 0.00341797 116.712 1.53788 115.887 3.19886L110.218 14.5058C110.059 14.8221 110.189 15.2071 110.507 15.3643C110.595 15.4077 110.691 15.4312 110.791 15.433H112.166C112.408 15.433 112.63 15.2956 112.737 15.0787L118.439 3.78626C118.953 2.75967 119.536 2.34035 120.451 2.34035C121.365 2.34035 121.971 2.76147 122.484 3.78806L128.168 15.086C128.275 15.3029 128.497 15.4402 128.741 15.442H130.115C130.467 15.442 130.755 15.1565 130.757 14.804C130.757 14.7046 130.733 14.607 130.688 14.5166L125.024 3.19705L125.025 3.19886Z" fill="currentColor"/>
    <path d="M14.8695 3.19935C13.8972 1.27811 12.7459 0.00390625 10.2897 0.00390625C7.67799 0.00390625 6.55561 1.54198 5.73145 3.19935L0.0671326 14.5117C-0.0901091 14.828 0.0382146 15.2112 0.354505 15.3684C0.443067 15.4118 0.540665 15.4353 0.640071 15.4353H2.01729C2.25948 15.4353 2.48179 15.2997 2.59023 15.081L8.27985 3.78674C8.79314 2.75835 9.37873 2.33904 10.2933 2.33904C11.2078 2.33904 11.8133 2.75835 12.3266 3.78674L18.0162 15.081C18.1246 15.2979 18.3451 15.4353 18.5891 15.4353H19.9645C20.317 15.4353 20.6043 15.1479 20.6043 14.7955C20.6043 14.6961 20.5827 14.5985 20.5375 14.5099L14.8732 3.19754L14.8695 3.19935Z" fill="currentColor"/>
    <path d="M10.3094 11.4445C9.13827 11.4445 8.5834 11.2692 8.5834 10.2679C8.5834 9.26662 9.14008 9.09131 10.3094 9.09131C11.4788 9.09131 12.0391 9.26662 12.0391 10.2679C12.0391 11.2692 11.477 11.4445 10.3094 11.4445Z" fill="#0077D8"/>
    <path d="M120.458 11.4445C119.291 11.4445 118.734 11.2692 118.734 10.2679C118.734 9.26662 119.292 9.09131 120.46 9.09131C121.628 9.09131 122.186 9.26843 122.186 10.2697C122.186 11.271 121.638 11.4463 120.458 11.4445Z" fill="#0077D8"/>
  </g>
  <defs>
    <clipPath id="clip0_1297_2">
      <rect width="160" height="16" fill="currentColor"/>
    </clipPath>
  </defs>
</svg>
