<svg id="Layer_1" xmlns="http://www.w3.org/2000/svg" x="0" y="0" viewBox="0 0 1600 500" xml:space="preserve" color="var(--mux-colors-white)"><style>.st0{fill:currentColor}</style><path class="st0" d="M994.29 0c-34.51 0-62.48 27.98-62.48 62.49V250c0 68.94-56.09 125.03-125.03 125.03S681.74 318.94 681.74 250V62.49C681.74 27.98 653.77 0 619.26 0s-62.48 27.98-62.48 62.49V250c0 137.85 112.15 250 250 250s250-112.15 250-250V62.49C1056.77 27.98 1028.8 0 994.29 0zm0 93.49c-17.12 0-31-13.88-31-31s13.88-31 31-31c17.12 0 31 13.88 31 31s-13.88 31-31 31zM1261.63 250 1118.3 393.33c-24.4 24.4-24.4 63.97 0 88.37 24.4 24.4 63.97 24.4 88.37 0L1350 338.37l143.33 143.33c24.4 24.4 63.97 24.4 88.37 0 24.4-24.4 24.4-63.97 0-88.37L1438.37 250l143.33-143.33c24.4-24.4 24.4-63.97 0-88.37s-63.97-24.4-88.37 0L1350 161.63 1206.67 18.3c-24.4-24.4-63.97-24.4-88.37 0s-24.4 63.97 0 88.37L1261.63 250zm275.88 218.51c-17.12 0-31-13.88-31-31s13.88-31 31-31 31 13.88 31 31-13.87 31-31 31zM461.43 4.76C438.08-4.91 411.2.43 393.33 18.3L250 161.63 106.67 18.3C88.8.43 61.92-4.91 38.57 4.76 15.22 14.43 0 37.21 0 62.49v375.03C0 472.02 27.98 500 62.49 500s62.49-27.98 62.49-62.49V213.34l80.84 80.84c24.4 24.4 63.97 24.4 88.37 0l80.84-80.84v224.17c0 34.51 27.98 62.49 62.49 62.49S500 472.02 500 437.51V62.49c0-25.28-15.22-48.06-38.57-57.73zm-23.92 463.76c-17.12 0-31-13.88-31-31 0-17.12 13.88-31 31-31 17.12 0 31 13.88 31 31 0 17.12-13.88 31-31 31z"></path></svg>