<?xml version="1.0" encoding="UTF-8"?>
<svg id="Layer_1" data-name="Layer 1" xmlns="http://www.w3.org/2000/svg" viewBox="0 0 460.17 243.7">
  <defs>
    <style>
      .cls-1 {
        fill: #0061d5;
      }
    </style>
  </defs>
  <path class="cls-1" d="M237.53,71.99c-32.85,0-61.44,18.48-75.84,45.61-14.4-27.13-42.98-45.61-75.85-45.61-19.3,0-37.14,6.38-51.53,17.17V16.83C34.14,7.48,26.52,0,17.14,0S.21,7.48,0,16.83v142.43h.02c.76,46.77,38.87,84.44,85.82,84.44,32.88,0,61.45-18.5,75.85-45.6,14.4,27.11,42.99,45.6,75.84,45.6,47.4,0,85.85-38.44,85.85-85.87s-38.45-85.84-85.85-85.84M85.84,209.32c-28.44,0-51.53-23.04-51.53-51.49s23.08-51.48,51.53-51.48,51.48,23.04,51.48,51.47-23.04,51.5-51.48,51.5M237.53,209.32c-28.45,0-51.52-23.05-51.52-51.5s23.07-51.47,51.52-51.47,51.49,23.04,51.49,51.47-23.06,51.5-51.49,51.5"/>
  <path class="cls-1" d="M456.6,214.95l-46.67-57.24,46.72-57.35c5.91-7.57,4.21-18.13-3.94-23.74-8.16-5.66-19.62-4.21-25.94,3.13h0s-40.2,49.25-40.2,49.25l-40.16-49.26h0c-6.25-7.33-17.78-8.78-25.92-3.12-8.14,5.62-9.84,16.18-3.9,23.74h-.02l46.64,57.35-46.64,57.24h.02c-5.94,7.59-4.24,18.12,3.9,23.76,8.14,5.64,19.67,4.2,25.92-3.15l40.16-49.2,40.14,49.2c6.32,7.35,17.78,8.79,25.94,3.15,8.16-5.64,9.86-16.17,3.94-23.76"/>
</svg>