<?xml version="1.0" encoding="utf-8"?>
<svg xmlns="http://www.w3.org/2000/svg" xmlns:xlink="http://www.w3.org/1999/xlink" version="1.1" id="Layer_1" x="0px" y="0px" viewBox="0 0 50 50" style="enable-background:new 0 0 50 50;">
<style type="text/css">
	.st0{fill:#10395E;}
	.st1{fill:#FF5500;}
	.st2{fill:#FFFFFF;}
</style>
<g>
	<g>
		<g>
			<g>
				<path class="st0" d="M112.4,46.3H69.6c-1.8,0-3.2-1.4-3.2-3.2V6.9c0-1.8,1.4-3.2,3.2-3.2h42.8c1.8,0,3.2,1.4,3.2,3.2v36.3      C115.6,44.9,114.2,46.3,112.4,46.3z M69.6,5.9c-0.5,0-0.9,0.4-0.9,0.9v36.3c0,0.5,0.4,0.9,0.9,0.9h42.8c0.5,0,0.9-0.4,0.9-0.9      V6.9c0-0.5-0.4-0.9-0.9-0.9L69.6,5.9L69.6,5.9z"/>
			</g>
		</g>
		<g>
			<path class="st1" d="M91,9.2v1.5c0,0.1-0.1,0.2-0.2,0.2h-6.3c-0.2,0-0.2,0.2-0.1,0.3l6.3,3.1c0.1,0.1,0.2,0,0.2-0.1v-1.5     c0-0.1,0.1-0.2,0.2-0.2h6.3c0.2,0,0.2-0.2,0.1-0.3L91.2,9C91.1,9,91,9,91,9.2z"/>
		</g>
		<path class="st0" d="M66.4,17.1v21.9c0,0.7,0.6,1.2,1.2,1.2c0.4,0,0.7-0.2,0.9-0.5C73,33.1,81.3,28.5,91,28.5    c9.7,0,18.1,4.6,22.6,11.3c0.2,0.4,0.6,0.5,0.9,0.5c0.6,0,1.2-0.5,1.2-1.2v-22L66.4,17.1z M104.4,20.2v8.2c-2.2-1-4.5-1.8-6.9-2.3    v-6L104.4,20.2z M84.5,20.2v5.9c-2.4,0.5-4.7,1.3-6.9,2.2v-8.2L84.5,20.2z M69.4,33.9V20.2h5.1V30C72.7,31.1,71,32.4,69.4,33.9z     M87.6,25.7v-5.5h6.9v5.5c-1.2-0.1-2.3-0.2-3.5-0.2C89.8,25.5,88.7,25.6,87.6,25.7z M112.6,34c-1.5-1.5-3.3-2.8-5.2-3.9v-9.8h5.2    V34z"/>
	</g>
</g>
<g>
	<g>
		<polygon class="st0" points="153.4,36.2 148.9,30.8 148.9,17.8 153.5,13.2 154.5,14.2 150.3,18.4 150.3,30.3 154.5,35.2"/>
	</g>
	<g>
		<polygon class="st0" points="157.3,43 156.3,42 160.3,38.6 160.3,33.7 156.3,30 157.3,29 161.7,33.1 161.7,39.2"/>
	</g>
	<g>
		<polygon class="st1" points="154.9,22.8 154,21.7 159.2,17.1 159.2,8.8 160.6,8.8 160.6,17.7"/>
	</g>
	<g>
		<g>
			<g>
				<g>
					<path class="st0" d="M161.9,49l-9.6-0.2l-8.8-11.1V14.4L156.2,1h5.8l4.1,3.6v40.8L161.9,49z M153.4,46.7l7.8,0.1l2.8-2.4V5.6       l-2.8-2.4h-4.1l-11.3,12.1V37L153.4,46.7z"/>
				</g>
			</g>
		</g>
		<g>
			<g>
				<g>
					<path class="st0" d="M168.1,49l-4.1-3.6V4.6L168,1h5.8l12.5,13.4v23.3l-8.8,11.1L168.1,49z M166,44.4l2.8,2.4l7.8-0.1l7.7-9.7       V15.2L173,3.1h-4.1l-2.8,2.4L166,44.4L166,44.4z"/>
				</g>
			</g>
		</g>
	</g>
	<g>
		<polygon class="st0" points="176.6,36.2 175.5,35.2 179.7,30.3 179.7,18.4 175.5,14.2 176.5,13.2 181.1,17.8 181.1,30.8"/>
	</g>
	<g>
		<polygon class="st1" points="172.7,43 168.3,39.2 168.3,33.1 172.7,29 173.7,30 169.7,33.7 169.7,38.6 173.7,42"/>
	</g>
	<g>
		<polygon class="st0" points="175.1,22.8 169.4,17.7 169.4,8.8 170.8,8.8 170.8,17.1 176,21.7"/>
	</g>
	<g>
		<circle class="st0" cx="154.1" cy="35.8" r="2"/>
	</g>
	<g>
		<circle class="st1" cx="154.5" cy="22.3" r="2"/>
	</g>
	<g>
		<circle class="st0" cx="154.1" cy="13.7" r="2"/>
	</g>
	<g>
		<circle class="st1" cx="159.8" cy="8.7" r="2"/>
	</g>
	<g>
		<circle class="st0" cx="156.8" cy="29.5" r="2"/>
	</g>
	<g>
		<circle class="st0" cx="156.8" cy="42.5" r="2"/>
	</g>
	<g>
		<circle class="st0" cx="175.9" cy="35.8" r="2"/>
	</g>
	<g>
		<circle class="st0" cx="175.5" cy="22.3" r="2"/>
	</g>
	<g>
		<circle class="st0" cx="175.9" cy="13.7" r="2"/>
	</g>
	<g>
		<circle class="st0" cx="170.2" cy="8.7" r="2"/>
	</g>
	<g>
		<circle class="st1" cx="173.2" cy="29.5" r="2"/>
	</g>
	<g>
		<circle class="st1" cx="173.2" cy="42.5" r="2"/>
	</g>
</g>
<g>
	<g>
		<path class="st0" d="M9.3,22.4v2.8h-3v-2.8c0-0.4,0.3-0.7,0.7-0.7h1.6C9,21.7,9.3,22,9.3,22.4z"/>
	</g>
	<g>
		<path class="st2" d="M26.7,31.5c0,1.3-1,2.3-2.3,2.3s-2.3-1-2.3-2.3s1-2.3,2.3-2.3S26.7,30.2,26.7,31.5z"/>
	</g>
	<g>
		<path class="st2" d="M26.7,25.2c0,1.3-1,2.3-2.3,2.3s-2.3-1-2.3-2.3c0-1.3,1-2.3,2.3-2.3S26.7,23.9,26.7,25.2z"/>
	</g>
	<g>
		<path class="st2" d="M26.7,18.9c0,1.3-1,2.3-2.3,2.3s-2.3-1-2.3-2.3c0-1.3,1-2.3,2.3-2.3S26.7,17.6,26.7,18.9z"/>
	</g>
	<g>
		<path class="st2" d="M32.9,29.9c0.4,0.4,0.6,1,0.6,1.6s-0.2,1.2-0.6,1.6c-0.4,0.5-1,0.7-1.7,0.7c-0.1,0-0.2,0-0.3,0    c-1.1-0.1-2-1.1-2-2.3c0-1.2,0.9-2.2,2-2.3c0.1,0,0.2,0,0.3,0C31.9,29.1,32.5,29.4,32.9,29.9z"/>
	</g>
	<g>
		<path class="st2" d="M32.9,23.6c0.4,0.4,0.6,1,0.6,1.6c0,0.6-0.2,1.2-0.6,1.6c-0.4,0.5-1,0.7-1.7,0.7c-0.1,0-0.2,0-0.3,0    c-1.1-0.2-2-1.1-2-2.3c0-1.2,0.9-2.1,2-2.3c0.1,0,0.2,0,0.3,0C31.9,22.8,32.5,23.1,32.9,23.6z"/>
	</g>
	<g>
		<path class="st2" d="M32.9,17.3c0.4,0.4,0.6,1,0.6,1.6c0,0.6-0.2,1.2-0.6,1.6c-0.4,0.5-1,0.7-1.7,0.7c-0.1,0-0.2,0-0.3,0    c-1.1-0.1-2-1.1-2-2.3s0.9-2.2,2-2.3c0.1,0,0.2,0,0.3,0C31.9,16.6,32.5,16.8,32.9,17.3z"/>
	</g>
	<g>
		<circle class="st2" cx="38.1" cy="31.5" r="2.3"/>
	</g>
	<g>
		<circle class="st2" cx="38.1" cy="25.2" r="2.3"/>
	</g>
	<g>
		<circle class="st2" cx="38.1" cy="18.9" r="2.3"/>
	</g>
	<path class="st0" d="M31.2,7.1c-5.1,0-9.7,2.1-12.9,5.5v0h-5C6.4,12.6,0.9,18.1,0.9,25s5.6,12.4,12.4,12.4h5v0   c3.3,3.4,7.9,5.5,12.9,5.5c9.9,0,17.9-8,17.9-17.9S41.1,7.1,31.2,7.1z M10.6,27.9c0,1.1-0.9,2-2,2H7.1c-1.1,0-2-0.9-2-2v-5.5   c0-1.1,0.9-2,2-2h1.6c1.1,0,2,0.9,2,2V27.9z M31.2,41.5c-5.2,0-9.9-2.5-12.9-6.3c-2.2-2.8-3.6-6.4-3.6-10.2c0-3.9,1.3-7.4,3.6-10.2   c3-3.8,7.7-6.3,12.9-6.3c9.1,0,16.5,7.4,16.5,16.5S40.3,41.5,31.2,41.5z"/>
	<g>
		<g>
			<path class="st1" d="M26.7,31.5c0,1.3-1,2.3-2.3,2.3s-2.3-1-2.3-2.3s1-2.3,2.3-2.3S26.7,30.2,26.7,31.5z"/>
		</g>
		<g>
			<path class="st1" d="M26.7,25.2c0,1.3-1,2.3-2.3,2.3s-2.3-1-2.3-2.3c0-1.3,1-2.3,2.3-2.3S26.7,23.9,26.7,25.2z"/>
		</g>
		<g>
			<path class="st1" d="M26.7,18.9c0,1.3-1,2.3-2.3,2.3s-2.3-1-2.3-2.3c0-1.3,1-2.3,2.3-2.3S26.7,17.6,26.7,18.9z"/>
		</g>
		<g>
			<path class="st1" d="M33.5,31.5c0,0.6-0.2,1.2-0.6,1.6c-0.4,0.5-1,0.7-1.7,0.7c-0.1,0-0.2,0-0.3,0c-1.1-0.1-2-1.1-2-2.3     c0-1.2,0.9-2.2,2-2.3c0.1,0,0.2,0,0.3,0c0.7,0,1.3,0.3,1.7,0.7C33.3,30.3,33.5,30.8,33.5,31.5z"/>
		</g>
		<g>
			<path class="st1" d="M33.5,25.2c0,0.6-0.2,1.2-0.6,1.6c-0.4,0.5-1,0.7-1.7,0.7c-0.1,0-0.2,0-0.3,0c-1.1-0.2-2-1.1-2-2.3     c0-1.2,0.9-2.1,2-2.3c0.1,0,0.2,0,0.3,0c0.7,0,1.3,0.3,1.7,0.7C33.3,24,33.5,24.5,33.5,25.2z"/>
		</g>
		<g>
			<path class="st1" d="M33.5,18.9c0,0.6-0.2,1.2-0.6,1.6c-0.4,0.5-1,0.7-1.7,0.7c-0.1,0-0.2,0-0.3,0c-1.1-0.1-2-1.1-2-2.3     s0.9-2.2,2-2.3c0.1,0,0.2,0,0.3,0c0.7,0,1.3,0.3,1.7,0.7C33.3,17.7,33.5,18.3,33.5,18.9z"/>
		</g>
		<g>
			<circle class="st1" cx="38.1" cy="31.5" r="2.3"/>
		</g>
		<g>
			<circle class="st1" cx="38.1" cy="25.2" r="2.3"/>
		</g>
		<g>
			<circle class="st1" cx="38.1" cy="18.9" r="2.3"/>
		</g>
	</g>
</g>
</svg>