<?xml version="1.0" encoding="UTF-8"?><svg id="Layer_2" xmlns="http://www.w3.org/2000/svg" viewBox="0 0 301.24 74.64"><defs><style>.cls-1{fill:#fff;}.cls-2{fill:#9253a1;}.cls-3{fill:#101820;}.cls-4{fill:#582c5f;}</style></defs><g id="Layer_2-2"><path class="cls-2" d="m.93,0h72.77c.51,0,.93.42.93.93v61.11c0,6.95-5.64,12.59-12.59,12.59H.93c-.51,0-.93-.42-.93-.93V.93C0,.42.42,0,.93,0Z"/><path class="cls-4" d="m3.82,3.85h66.79v57.63c0,5.06-4.11,9.16-9.16,9.16H3.82V3.85h0Z"/><path class="cls-1" d="m25.16,52.65h-9.39c.02-14.9,3.96-24.36,3.96-24.36-1.26,16.03,5.44,24.36,5.44,24.36ZM63.09,17.35s-29.82,11.78-35.35,35.3h25.1s-18.03-4.72,10.25-35.3Z"/><path class="cls-3" d="m121.73,13.44v2.74h0c.32-.89.91-1.65,1.69-2.19.81-.52,1.77-.77,2.73-.71v1.17c-1.18.05-2.3.53-3.14,1.36-.39.39-.69.85-.9,1.35-.21.54-.32,1.12-.31,1.7v6.24h-1.42v-11.65h1.35Zm-8.43,0v11.65h1.42v-6.2c0-.58.1-1.16.33-1.7.2-.51.5-.97.89-1.35.84-.83,1.96-1.32,3.14-1.36v-1.17c-.96-.06-1.92.19-2.73.71-.78.54-1.37,1.3-1.69,2.19h0v-2.77h-1.35Zm30.45,1.64c.56.56.94,1.28,1.08,2.06h1.43c-.08-1.18-.64-2.27-1.55-3.02-.92-.69-2.04-1.05-3.18-1.03-.81-.01-1.6.16-2.33.5-.67.31-1.26.76-1.74,1.33-.48.58-.84,1.24-1.06,1.96-.25.77-.38,1.58-.37,2.39,0,.79.13,1.58.37,2.33.22.72.58,1.38,1.06,1.96.47.59,1.06,1.06,1.74,1.39.73.33,1.53.5,2.33.49,1.2.05,2.37-.37,3.26-1.17.9-.91,1.45-2.1,1.56-3.37h-1.43c-.04.46-.16.92-.36,1.34-.18.39-.44.75-.75,1.05-.3.29-.65.53-1.04.7-.4.16-.82.25-1.25.24-.63.02-1.24-.13-1.79-.43-.51-.29-.94-.69-1.28-1.17-.35-.48-.61-1.02-.77-1.6-.17-.59-.26-1.21-.26-1.83,0-.61.09-1.22.26-1.81.16-.57.42-1.11.77-1.6.34-.48.78-.87,1.28-1.17.55-.3,1.17-.45,1.79-.43.81-.05,1.6.22,2.21.75m13.09,10.08v-11.65h-1.43v6.14c0,.58-.06,1.16-.2,1.72-.12.54-.34,1.05-.64,1.52-.28.43-.65.79-1.08,1.05-1.29.65-2.85.49-3.97-.42-.51-.69-.77-1.54-.73-2.4v-7.56h-1.41v7.59c0,.63.07,1.25.23,1.85.13.51.37.98.71,1.39.35.39.78.69,1.27.87.61.21,1.25.32,1.89.3.84,0,1.66-.2,2.39-.62.73-.42,1.31-1.05,1.67-1.81h0v2.11l1.32-.08Zm11.91,0V8.95h-1.43v6.7h0c-.14-.41-.36-.78-.64-1.11-.28-.32-.6-.59-.97-.8-.36-.22-.76-.38-1.17-.49-.42-.1-.85-.15-1.28-.15-.81-.02-1.61.15-2.33.5-.64.32-1.2.78-1.64,1.34-.44.59-.77,1.26-.97,1.97-.42,1.55-.42,3.18,0,4.73.19.72.52,1.39.97,1.98.44.56,1,1.01,1.64,1.33.73.34,1.53.51,2.33.49.43,0,.87-.06,1.28-.19.41-.12.8-.28,1.17-.5.38-.22.72-.49,1.01-.8.28-.31.51-.66.66-1.05h0v2.23l1.36-.08Zm-9.14-4.04c-.3-1.18-.3-2.42,0-3.6.13-.57.36-1.11.68-1.6.29-.47.69-.87,1.17-1.17.53-.31,1.13-.46,1.74-.44.67-.02,1.33.13,1.92.44.51.29.94.69,1.27,1.17.33.49.57,1.03.7,1.6.28,1.18.28,2.42,0,3.6-.13.57-.37,1.11-.7,1.6-.33.48-.76.88-1.27,1.17-.59.31-1.25.46-1.92.44-.61.02-1.21-.14-1.74-.44-.47-.29-.87-.69-1.17-1.17-.32-.49-.55-1.03-.68-1.6m-25.17-5.92c.29.6.43,1.26.4,1.92v8.09h-1.35v-2h0c-.24.35-.5.69-.78,1-.26.29-.55.54-.89.75-.37.2-.76.35-1.17.44-.48.12-.98.18-1.48.16-.52,0-1.04-.06-1.54-.2-.45-.11-.87-.32-1.24-.61-.36-.28-.65-.64-.84-1.06-.22-.48-.33-1.01-.31-1.54-.04-.68.16-1.35.55-1.91.38-.47.87-.83,1.43-1.05.65-.25,1.33-.43,2.02-.51l2.33-.28c.3,0,.56-.07.79-.12.2-.03.39-.11.56-.23.16-.12.28-.28.35-.47.09-.25.14-.51.13-.77.01-.35-.07-.7-.23-1.01-.15-.3-.38-.55-.66-.73-.29-.19-.62-.32-.97-.37-.38-.07-.77-.11-1.17-.1h-2.58v-1.17h2.84c.49.01.97.06,1.45.15.49.09.97.27,1.39.55.42.3.76.7.99,1.17m-1.08,3.57h0c-.12.18-.3.31-.51.36-.23.07-.46.12-.69.15-.61.12-1.17.21-1.86.29-.6.07-1.18.2-1.76.37-.48.14-.92.39-1.31.71-.35.35-.53.83-.5,1.33,0,.33.07.66.21.96.14.28.34.52.58.72.25.21.53.37.84.47.31.11.64.16.97.16.53,0,1.06-.08,1.56-.24.48-.17.93-.44,1.31-.78.77-.68,1.2-1.67,1.17-2.69v-1.81Zm-22.63-3.66c.28.6.41,1.26.38,1.92v8.09h-1.36v-2h0c-.24.35-.5.69-.78,1-.26.29-.55.54-.89.75-.36.2-.76.35-1.17.44-.48.12-.98.18-1.48.16-.52,0-1.03-.06-1.53-.2-.46-.11-.88-.32-1.25-.61-.36-.28-.65-.64-.84-1.06-.2-.48-.28-.99-.26-1.5-.04-.68.16-1.35.55-1.91.38-.47.88-.83,1.45-1.05.64-.25,1.32-.43,2-.51l2.33-.28c.3,0,.56-.07.79-.12.2-.03.39-.11.56-.23.16-.12.28-.28.36-.47.09-.25.13-.51.12-.77.02-.35-.06-.7-.23-1.01-.15-.3-.38-.56-.66-.73-.29-.19-.62-.32-.97-.37-.38-.07-.77-.11-1.17-.1h-2.58v-1.17h2.84c.49.01.98.06,1.46.15.49.09.96.27,1.38.55.43.3.77.7,1,1.17m-1.05,3.62h0c-.11.18-.3.32-.51.36-.23.07-.46.12-.69.15-.59.12-1.17.21-1.86.29-.59.07-1.18.2-1.75.37-.48.14-.93.38-1.31.71-.35.32-.56.76-.57,1.24,0,.33.07.66.21.96.14.28.34.52.58.72.25.21.53.37.84.47.31.11.64.16.97.16.53,0,1.07-.08,1.57-.24.48-.16.91-.41,1.29-.73.77-.68,1.2-1.67,1.17-2.69l.06-1.76Zm69.15-3.75c.28.6.41,1.25.38,1.91v8.16h-1.35v-2.06h0c-.24.35-.5.68-.78,1-.25.29-.55.54-.89.73-.34.2-.72.36-1.11.45-.49.12-.99.17-1.49.16-.52,0-1.03-.06-1.53-.2-.45-.12-.88-.32-1.25-.61-.36-.28-.64-.65-.83-1.06-.22-.48-.33-1.01-.31-1.54-.04-.68.16-1.35.55-1.91.38-.47.87-.83,1.43-1.05.65-.25,1.33-.43,2.02-.51l2.33-.28c.29,0,.56-.07.79-.12.2-.04.39-.12.56-.23.16-.12.28-.28.35-.47.09-.25.14-.51.13-.77.02-.35-.06-.7-.23-1.01-.15-.3-.38-.55-.66-.73-.29-.19-.62-.32-.97-.37-.38-.07-.77-.11-1.17-.1h-2.58v-1.17h2.83c.49,0,.98.06,1.46.15.49.09.97.27,1.39.55.43.3.77.7.99,1.17m-1.04,3.62h0c-.12.18-.31.31-.52.36-.22.07-.45.12-.68.15-.61.12-1.22.21-1.86.29-.6.07-1.19.19-1.76.37-.48.14-.92.39-1.31.71-.35.35-.53.83-.5,1.33,0,.33.07.66.21.96.14.28.34.53.58.72.24.21.53.37.84.47.31.11.64.16.97.16.53,0,1.06-.08,1.56-.24.48-.16.92-.41,1.31-.73.77-.68,1.2-1.67,1.17-2.69v-1.85Zm-90.09-10.27v16.6h7.05c.78.01,1.57-.07,2.33-.24.57-.13,1.12-.35,1.63-.63.41-.23.77-.53,1.06-.9.24-.32.45-.67.61-1.04.13-.33.23-.67.28-1.03.04-.3.07-.6.07-.9.03-1-.31-1.98-.96-2.75-.69-.77-1.65-1.25-2.68-1.32h0c.42-.09.81-.25,1.17-.49.71-.47,1.23-1.16,1.5-1.97.14-.41.21-.84.21-1.27.02-.68-.13-1.35-.44-1.95-.28-.51-.68-.94-1.17-1.26-.52-.33-1.1-.56-1.7-.68-.66-.13-1.34-.2-2.02-.2h-6.95Zm1.59,7.3v-5.94h5.47c2.49,0,3.75,1.05,3.75,3.12,0,.38-.08.75-.23,1.1-.16.35-.4.65-.7.9-.34.28-.74.48-1.17.61-.54.16-1.1.23-1.65.22h-5.47Zm0,8.01v-6.64h5.47c1.14-.08,2.28.2,3.25.8.78.55,1.21,1.46,1.17,2.41.02.58-.1,1.15-.35,1.67-.22.43-.55.79-.96,1.06-.43.27-.9.45-1.4.55-.55.1-1.12.15-1.68.15h-5.5Z"/><path class="cls-3" d="m90.18,58.02c1.83,2.03,4.76,3.82,8.54,3.82,4.39,0,5.94-2.24,5.94-4.19,0-2.85-3.09-3.66-6.55-4.56-4.35-1.14-9.4-2.4-9.4-7.93,0-4.47,3.95-7.73,9.6-7.73,4.19,0,7.49,1.34,9.88,3.78l-2.36,3.01c-2.07-2.2-4.92-3.17-7.85-3.17s-5.08,1.55-5.08,3.82c0,2.44,2.93,3.21,6.3,4.07,4.43,1.18,9.6,2.56,9.6,8.34,0,4.23-2.93,8.18-10.25,8.18-4.84,0-8.38-1.75-10.7-4.31l2.32-3.13Z"/><path class="cls-3" d="m121.17,44.84c5.9,0,9.56,4.6,9.56,10.62v.89h-15.54c.28,3.33,2.73,6.1,6.67,6.1,2.07,0,4.35-.81,5.82-2.32l1.71,2.4c-1.95,1.91-4.72,2.93-7.89,2.93-5.86,0-10.17-4.15-10.17-10.33,0-5.69,4.11-10.29,9.84-10.29Zm-6.02,8.87h12c-.08-2.6-1.83-5.86-5.98-5.86s-5.82,3.17-6.02,5.86Z"/><path class="cls-3" d="m143.33,44.84c3.7,0,5.94,1.55,7.36,3.46l-2.44,2.24c-1.18-1.67-2.77-2.44-4.76-2.44-3.86,0-6.35,2.97-6.35,7.04s2.48,7.08,6.35,7.08c1.99,0,3.58-.81,4.76-2.44l2.44,2.24c-1.42,1.91-3.66,3.46-7.36,3.46-5.94,0-10.01-4.43-10.01-10.33s4.07-10.29,10.01-10.29Z"/><path class="cls-3" d="m166.69,62.29c-1.51,1.63-3.99,3.17-7,3.17-4.19,0-6.26-2.11-6.26-6.26v-13.87h3.66v12.65c0,3.25,1.63,4.23,4.15,4.23,2.28,0,4.35-1.3,5.45-2.77v-14.11h3.66v19.65h-3.66v-2.68Z"/><path class="cls-3" d="m174.42,45.33h3.66v3.01c1.5-1.95,3.82-3.46,6.43-3.46v3.7c-.37-.08-.77-.12-1.26-.12-1.83,0-4.31,1.38-5.17,2.85v13.67h-3.66v-19.65Z"/><path class="cls-3" d="m195.42,44.84c5.9,0,9.56,4.6,9.56,10.62v.89h-15.54c.28,3.33,2.73,6.1,6.67,6.1,2.08,0,4.35-.81,5.82-2.32l1.71,2.4c-1.95,1.91-4.72,2.93-7.89,2.93-5.86,0-10.17-4.15-10.17-10.33,0-5.69,4.11-10.29,9.84-10.29Zm-6.02,8.87h12c-.08-2.6-1.83-5.86-5.98-5.86s-5.82,3.17-6.02,5.86Z"/><path class="cls-3" d="m208.38,37.85h18.22v3.58h-14.16v7.93h13.87v3.58h-13.87v8.46h14.16v3.58h-18.22v-27.13Z"/><path class="cls-3" d="m244.46,62.17c-1.46,1.95-3.82,3.29-6.43,3.29-5.13,0-8.79-3.86-8.79-10.29s3.66-10.33,8.79-10.33c2.52,0,4.84,1.22,6.43,3.33v-10.33h3.66v27.13h-3.66v-2.81Zm0-11.19c-1.02-1.59-3.21-2.89-5.45-2.89-3.66,0-5.94,2.97-5.94,7.08s2.28,7.04,5.94,7.04c2.24,0,4.43-1.26,5.45-2.85v-8.38Z"/><path class="cls-3" d="m254.05,67.34c1.63,1.87,3.62,2.6,6.3,2.6,3.05,0,6.1-1.47,6.1-5.61v-2.56c-1.51,1.95-3.82,3.38-6.47,3.38-5.08,0-8.75-3.74-8.75-10.17s3.66-10.13,8.75-10.13c2.56,0,4.88,1.22,6.47,3.33v-2.85h3.66v18.87c0,6.75-4.92,8.75-9.76,8.75-3.29,0-5.69-.69-8.05-2.93l1.75-2.68Zm12.41-16.35c-1.02-1.59-3.25-2.89-5.45-2.89-3.66,0-5.94,2.85-5.94,6.87s2.28,6.91,5.94,6.91c2.2,0,4.43-1.34,5.45-2.93v-7.97Z"/><path class="cls-3" d="m283.07,44.84c5.9,0,9.56,4.6,9.56,10.62v.89h-15.54c.28,3.33,2.73,6.1,6.67,6.1,2.07,0,4.35-.81,5.82-2.32l1.71,2.4c-1.95,1.91-4.72,2.93-7.89,2.93-5.86,0-10.17-4.15-10.17-10.33,0-5.69,4.11-10.29,9.84-10.29Zm-6.02,8.87h12c-.08-2.6-1.83-5.86-5.98-5.86s-5.82,3.17-6.02,5.86Z"/><path class="cls-3" d="m292.03,44.46h-.83v-5.73h-1.83v-.77h4.49v.77h-1.83v5.73Zm8.39-5.37l-2.21,5.37h-.24l-2.21-5.37v5.37h-.83v-6.5h1.27l1.89,4.72,1.89-4.72h1.27v6.5h-.83v-5.37Z"/></g></svg>