<svg xmlns="http://www.w3.org/2000/svg" width="120" height="60">
    <path d="M17.822 24.419c.917 0 1.877.178 2.71.484a7 7 0 0 1 2.225 1.308 5.35 5.35 0 0 1 1.487 1.92c.348.739.569 1.529.569 2.361s-.179 1.614-.57 2.362a6.4 6.4 0 0 1-1.486 1.92 7.7 7.7 0 0 1-4.978 1.792h-4.408c-.484 0-.918-.043-1.35-.179a1.63 1.63 0 0 1-.876-.526 2.05 2.05 0 0 1-.484-.833 4.8 4.8 0 0 1-.178-1.095V27.12a2.97 2.97 0 0 1 .662-1.928c.264-.221.57-.39.875-.527a5 5 0 0 1 1.35-.178l4.452-.085zm-4.324 1.792c-.085 0-.178 0-.263.043-.128.042-.221.085-.306.127-.085.085-.178.178-.22.263-.086.128-.086.264-.086.391v6.813c0 .127.043.263.085.39a.7.7 0 0 0 .263.264.4.4 0 0 0 .306.127c.085.043.179.043.264.043h4.238a5.39 5.39 0 0 0 3.576-1.224c.434-.39.833-.832 1.096-1.308a3.7 3.7 0 0 0 0-3.313 4.5 4.5 0 0 0-1.096-1.35 5.42 5.42 0 0 0-3.584-1.266H13.49zm25.067-1.792h2.098v9.259c0 .39-.085.739-.22 1.095a2.2 2.2 0 0 1-.655.918 2.7 2.7 0 0 1-.96.611c-.39.128-.79.221-1.18.221-.179 0-.391 0-.57-.042l-.526-.128a3.2 3.2 0 0 1-.875-.39c-.22-.179-.433-.349-.612-.57a12 12 0 0 1-.832-1.265c-.043-.085-4.103-7.552-4.239-7.687-.042-.085-.127-.128-.22-.179-.086-.042-.179-.042-.264-.042-.306 0-.57.085-.79.263-.178.22-.306.433-.263.697v9.258h-2.098V27.18c-.043-.74.263-1.445.832-2.005a2.55 2.55 0 0 1 1.002-.612 3.87 3.87 0 0 1 2.404-.042c.391.127.74.306 1.003.611.22.221.39.434.569.654.127.179 4.145 7.467 4.188 7.51.084.178.68 1.197.96 1.35.084.051.22.085.305.085.179 0 .306-.042.484-.085a.73.73 0 0 0 .306-.22c.179-.222.306-.434.263-.697l-.127-9.302zm14.28 10.261H43.11v1.792h8.163c.526-.526 1.044-1.138 1.571-1.792m-9.566-4.273c.349.306.74.57 1.224.74.484.178.96.263 1.486.263h6.77a1.75 1.75 0 0 1 1.699 1.138c.39-.612.79-1.18 1.138-1.75l-.178-.178a4 4 0 0 0-1.18-.74 4.2 4.2 0 0 0-1.487-.263h-6.728a1.7 1.7 0 0 1-1.266-.518 1.8 1.8 0 0 1-.39-.526 1.6 1.6 0 0 1-.128-.612c0-.22.043-.433.128-.654.085-.178.22-.39.39-.527.306-.306.79-.526 1.224-.526h9.522V24.46h-9.565c-.526 0-1.002.085-1.486.264a4.5 4.5 0 0 0-1.224.739 3.1 3.1 0 0 0-.832 1.138 3 3 0 0 0-.306 1.35c0 .485.085.918.306 1.351.22.39.484.79.875 1.096zm19.605 6.108v-8.562c0-.485.085-.918.306-1.351a3.68 3.68 0 0 1 2.056-1.877 3.4 3.4 0 0 1 1.486-.264h8.733v1.835H66.86c-.264 0-.484.043-.74.128-.347.127-.61.348-.832.654-.22.263-.305.611-.305.96v1.308h10.482v1.792H64.983V36.6h-2.099zM76.9 26.296h2.098V24.42H76.9zm0 10.219h2.098v-8.647H76.9zm7.772 0a4.2 4.2 0 0 1-1.486-.263 3.82 3.82 0 0 1-2.056-1.835 3 3 0 0 1-.305-1.35v-8.563h2.098v8.562c0 .221.042.433.127.654s.22.39.39.527c.35.306.79.526 1.266.526h.391v1.793h-.433m6.26-.051a4.2 4.2 0 0 1-1.486-.263 4.5 4.5 0 0 1-1.223-.74 3.33 3.33 0 0 1-1.139-2.446v-3.321h-.917v-1.792h.917v-2.574h2.099v2.531h2.88v1.792h-2.88v3.28c0 .22.042.432.127.653s.22.391.39.527c.179.178.349.306.57.39.22.086.433.128.696.179h1.487v1.792h-1.53zm4.885-3.313c.042.178.085.348.178.527.085.178.22.305.348.433.179.178.391.306.612.39.22.086.484.128.739.128h7.645v1.792h-7.773a4.2 4.2 0 0 1-1.486-.263 4.5 4.5 0 0 1-1.223-.739 3.1 3.1 0 0 1-.833-1.138 3 3 0 0 1-.306-1.35v-1.615c0-.484.085-.917.306-1.35a3.68 3.68 0 0 1 2.056-1.835 4.4 4.4 0 0 1 1.486-.263h5.063c.74 0 1.487.22 2.14.569a3.84 3.84 0 0 1 1.445 1.571c.22.433.306.918.306 1.35v1.836H95.817v-.043zm.526-3.015a1.9 1.9 0 0 0-.39.526c-.085.221-.179.433-.179.654h8.605c0-.22-.042-.433-.178-.654-.085-.22-.221-.39-.391-.526a1.75 1.75 0 0 0-.612-.391 2.1 2.1 0 0 0-.739-.128h-4.8c-.262 0-.483.043-.738.128-.179.085-.39.22-.57.39zm18.994-2.32v1.793h-3.364a1.87 1.87 0 0 0-1.741 1.045c-.085.22-.179.433-.179.654v5.105h-2.098v-5.105c0-.484.085-.918.306-1.35a3.57 3.57 0 0 1 2.098-1.878 4.2 4.2 0 0 1 1.486-.263z" style="fill-rule:evenodd;stroke-width:.849437"/>
    <path d="M54.067 22.33c1.793-1.224 3.364-1.657 4.281-1.097 2.005 1.224.434 6.686-3.49 12.181-3.976 5.547-8.818 9.038-10.831 7.815-.96-.569-1.096-2.055-.612-4.018-1.095 3.228-1.044 5.768.434 6.634 2.573 1.53 8.468-2.53 13.183-9.122s6.464-13.141 3.89-14.67c-1.529-.918-4.06.042-6.855 2.268z" style="fill:#3427fd;fill-rule:evenodd;stroke-width:.849437"/>
    <path d="M0 0h150v150H0Z" style="fill:none"/>
</svg>
