<svg id="Layer_1" data-name="Layer 1" xmlns="http://www.w3.org/2000/svg" viewBox="0 0 283.97 106.86"><defs><style>
            .cls-1 {
              fill: #39ffbd;
            }

            .cls-2 {
              fill: #fff;
            }</style></defs><path d="M920.23,724h15.39l-15.39,15.83Zm284,66.54a8,8,0,1,0-8,8,8,8,0,0,0,8-8" transform="translate(-920.23 -724.03)"></path><path d="M1010.38,739.44v12.33h31.12v15.42h-31.12v12.2h31.12V794.8H989.71V724h51.79v15.41ZM1099,770.76a23.91,23.91,0,0,0,5.76-4.49,25.49,25.49,0,0,0,0-34.38,25.9,25.9,0,0,0-18.8-7.86h-37.08v70.63h20.67V774h8.32l10.81,20.65h22.83Zm-6.36-21.68c0,1.88-.7,6.26-7.13,6.26h-16V742.8l16,0c6.43,0,7.13,4.38,7.13,6.26M1187,759.42a35.39,35.39,0,1,0-35.39,35.38A35.38,35.38,0,0,0,1187,759.42m-20.58,0a14.81,14.81,0,1,1-14.81-14.81,14.81,14.81,0,0,1,14.81,14.81M982.43,724H942.77l-17.65,18.15h28.49l-33.35,34.33v18.15h62.17V776.51H949.08l33.35-34.33ZM920.26,830.47h4.55v-8.68c0-.9,0-1.94-.14-3.1s-.2-2.29-.31-3.35c-.09-.77-.15-1.29-.18-1.57h.14l2.3,4.93,6.28,11.77h4.86V807.8h-4.51v8.61c0,1.48.13,3.57.41,6.25.09.83.15,1.45.17,1.84h-.13l-2.26-4.93-6.28-11.77h-4.9Zm37.49-7.22H947.13a4.4,4.4,0,0,0,1.69,3,5.11,5.11,0,0,0,3.1,1,7.65,7.65,0,0,0,3.82-1.14L957.3,829a10.6,10.6,0,0,1-2.86,1.41,10.45,10.45,0,0,1-3.14.5,8.92,8.92,0,0,1-4.39-1.08,7.61,7.61,0,0,1-3.09-3.12,10.65,10.65,0,0,1,0-9.55,8.29,8.29,0,0,1,3-3.16,7.5,7.5,0,0,1,3.93-1.11,6.56,6.56,0,0,1,5.38,2.28,10.57,10.57,0,0,1,1.66,8.1m-3.85-3.16a4.09,4.09,0,0,0-.76-2.62,2.83,2.83,0,0,0-2.33-1,3.31,3.31,0,0,0-2.27.88,4.67,4.67,0,0,0-1.34,2.69Zm10.21,9.08a7.43,7.43,0,0,1-1.39-4.81V817h-2.4V813.5l2.64-.21.56-4.58h3.92v4.58h4.2V817h-4.2v7.29c0,1.87.77,2.81,2.29,2.81a5.2,5.2,0,0,0,1.7-.35l.77,3.47a11.63,11.63,0,0,1-3.72.63,5.26,5.26,0,0,1-4.37-1.72m10.34-15.88h4.72l1.81,8.26c0,.12.2,1.18.52,3.19,0,.42.14,1,.28,1.88h.14c.39-2.25.74-3.93,1-5.07l2-8.26h4.17l2.05,8.26q.55,2.36.93,4.38l.14.69h.14l.42-2.46q.07-.42.15-1.08t.27-1.53l1.77-8.26h4.4l-4.19,17.18h-5.56l-1.74-7.25c-.44-2.29-.75-4-.93-5h-.14c-.37,2.2-.68,3.88-.94,5l-1.63,7.22h-5.45Zm31.89,16.52a7.94,7.94,0,0,1-3-3.12,9.7,9.7,0,0,1-1.14-4.79,9.8,9.8,0,0,1,1.14-4.83,8,8,0,0,1,7.15-4.2,8.19,8.19,0,0,1,4.1,1.08,8,8,0,0,1,3.06,3.14,9.8,9.8,0,0,1,1.14,4.81,9.7,9.7,0,0,1-1.14,4.79,7.92,7.92,0,0,1-3.06,3.12,8.34,8.34,0,0,1-8.21,0m6.65-4.14a6.83,6.83,0,0,0,.9-3.77,6.92,6.92,0,0,0-.9-3.79,3,3,0,0,0-5.09,0,7,7,0,0,0-.88,3.79,6.92,6.92,0,0,0,.88,3.77,3,3,0,0,0,5.09,0m10.27-12.38h3.86l.34,3h.14a7.15,7.15,0,0,1,2.21-2.55,4.68,4.68,0,0,1,2.65-.89,5.12,5.12,0,0,1,2,.35l-.8,4.1a6.15,6.15,0,0,0-.63-.16,5.23,5.23,0,0,0-1.18-.12,3.44,3.44,0,0,0-2.15.8,5.8,5.8,0,0,0-1.73,2.5v10.13h-4.73Zm14.41-7.22h4.62v14.41h.14l5.73-7.19h5.17l-6,7.05,6.45,10.13h-5.13l-4-6.94-2.36,2.67v4.27h-4.62Zm21.09,24.16a10.76,10.76,0,0,1-3.11-1.74l2.16-3a10.35,10.35,0,0,0,2.3,1.39,5.86,5.86,0,0,0,2.24.45,3,3,0,0,0,1.77-.44,1.41,1.41,0,0,0,.59-1.23,1.26,1.26,0,0,0-.46-1,4.83,4.83,0,0,0-1.34-.78l-1.74-.71a10.91,10.91,0,0,1-3.35-2,3.92,3.92,0,0,1-1.3-3.07,4.75,4.75,0,0,1,1.77-3.83,7,7,0,0,1,4.69-1.48,9.46,9.46,0,0,1,5.94,2.15l-2.12,2.85a6.63,6.63,0,0,0-3.68-1.46,2.61,2.61,0,0,0-1.62.42,1.33,1.33,0,0,0-.53,1.11,1.3,1.3,0,0,0,.69,1.13,7.18,7.18,0,0,0,1.6.74l1.18.42a10.66,10.66,0,0,1,3.45,1.93,4.09,4.09,0,0,1,1.27,3.24,5,5,0,0,1-.82,2.8,5.5,5.5,0,0,1-2.38,2,8.74,8.74,0,0,1-3.75.73,9.93,9.93,0,0,1-3.45-.66" transform="translate(-920.23 -724.03)"></path></svg>