<?xml version="1.0" encoding="UTF-8"?>
<svg version="1.1" xmlns="http://www.w3.org/2000/svg" width="884" height="377">
<path d="M0 0 C291.72 0 583.44 0 884 0 C884 124.41 884 248.82 884 377 C592.28 377 300.56 377 0 377 C0 252.59 0 128.18 0 0 Z " fill="#FDFEFE" transform="translate(0,0)"/>
<path d="M0 0 C0.79075928 0.00894287 1.58151855 0.01788574 2.39624023 0.02709961 C16.04928167 0.29551532 29.40642368 3.51735549 41.00390625 11.03515625 C43.09973012 12.42164507 43.09973012 12.42164507 45.12109375 12.1484375 C48.23915401 10.83255886 51.27550349 9.36515091 54.3125 7.875 C70.84129556 -0.03199671 89.55302733 -2.82749663 107.14453125 3.25 C121.83778598 8.86855275 132.24698279 19.14397909 138.70703125 33.4765625 C148.52619373 56.77974367 145.55206602 82.44494791 136.5625 105.5 C124.63843209 134.49989101 103.11050952 159.04434666 74.140625 171.66015625 C56.58449028 178.978034 36.14871718 179.97626951 18.25 173.25 C-12.58869933 160.52655446 -33.6835175 135.87187393 -47.24609375 105.94921875 C-50.56494367 97.8835271 -52.33661517 89.82580795 -53.75 81.25 C-53.93820313 80.14140625 -54.12640625 79.0328125 -54.3203125 77.890625 C-54.83516398 73.52842884 -54.89602645 69.26251839 -54.875 64.875 C-54.87886719 64.07578125 -54.88273437 63.2765625 -54.88671875 62.453125 C-54.85754379 44.42300039 -49.61366261 28.74022917 -37.03515625 15.46875 C-26.6770585 5.4116568 -14.49171403 -0.18649443 0 0 Z " fill="#1EDBDB" transform="translate(65.75,108.75)"/>
<path d="M0 0 C0.6909375 0.43570313 1.381875 0.87140625 2.09375 1.3203125 C11.9600876 8.05740123 17.15202514 18.00918693 19.58105469 29.49047852 C23.95661269 55.70047891 14.5211897 80.22622635 -0.16796875 101.4921875 C-2.32992423 104.45162336 -4.56555417 107.26124844 -7 110 C-7.93423645 106.98968256 -8.04449911 106.13349732 -7 103 C-6.12329572 89.86936091 -6.23345277 76.66339155 -10 64 C-10.2784375 62.93265625 -10.556875 61.8653125 -10.84375 60.765625 C-13.19977668 52.2758047 -16.87173631 44.73469629 -21 37 C-24.71320067 37.66334611 -27.39937126 39.30334513 -30.5859375 41.28125 C-31.67600098 41.95478516 -32.76606445 42.62832031 -33.88916016 43.32226562 C-35.05123008 44.04797967 -36.21317466 44.77389446 -37.375 45.5 C-38.55366383 46.23145808 -39.73253791 46.96257747 -40.91162109 47.69335938 C-48.99480811 52.71169757 -57.03920322 57.78929665 -65 63 C-64.43192077 66.52579612 -63.5774603 69.24167272 -61.75 72.3125 C-61.35296875 73.00988281 -60.9559375 73.70726562 -60.546875 74.42578125 C-59.09326876 76.23679501 -59.09326876 76.23679501 -56.68261719 76.25585938 C-53.60295285 75.96213092 -52.10438369 75.16677023 -49.53125 73.48046875 C-48.71269531 72.95259766 -47.89414063 72.42472656 -47.05078125 71.88085938 C-46.20902344 71.32205078 -45.36726563 70.76324219 -44.5 70.1875 C-42.82309433 69.09738291 -41.14601602 68.00753132 -39.46875 66.91796875 C-38.68886719 66.4079834 -37.90898437 65.89799805 -37.10546875 65.37255859 C-30.39807898 61 -30.39807898 61 -28 61 C-24.48699621 70.50392989 -23.61363918 79.3334667 -23.625 89.4375 C-23.62371094 90.55044434 -23.62242187 91.66338867 -23.62109375 92.81005859 C-23.80661946 106.8362237 -27.91561932 118.3991724 -37.58984375 128.69140625 C-45.22362627 135.8581809 -53.56131436 137.62006064 -63.74389648 137.46606445 C-73.87530137 137.02821127 -80.4509973 133.51604179 -87.7421875 126.46484375 C-98.05134546 115.21038237 -101.00213924 100.12671312 -100.38671875 85.23046875 C-99.87800491 78.25129995 -98.0929963 71.65115301 -96 65 C-95.62617187 63.7934375 -95.25234375 62.586875 -94.8671875 61.34375 C-90.42912607 48.05895684 -83.75054815 36.88329824 -75 26 C-74.42507812 25.27039063 -73.85015625 24.54078125 -73.2578125 23.7890625 C-58.38394937 5.78385976 -23.14602416 -15.79029614 0 0 Z " fill="#FDFEFE" transform="translate(172,131)"/>
<path d="M0 0 C1.32794838 -0.00945648 1.32794838 -0.00945648 2.682724 -0.019104 C3.64408768 -0.01505554 4.60545135 -0.01100708 5.59594727 -0.00683594 C6.58804703 -0.00874939 7.58014679 -0.01066284 8.60231018 -0.01263428 C10.70981092 -0.01399796 12.81732 -0.01028881 14.92480469 -0.00195312 C18.11811811 0.00864229 21.31085575 -0.0017892 24.50415039 -0.01464844 C26.55558391 -0.01332489 28.60701707 -0.01075846 30.65844727 -0.00683594 C31.60159286 -0.0108844 32.54473846 -0.01493286 33.51646423 -0.019104 C46.89997573 0.07324237 59.89705718 3.00903948 70.72485352 11.25878906 C71.69422852 11.93941406 72.66360352 12.62003906 73.66235352 13.32128906 C81.63757468 20.14523159 87.96735039 32.73400561 88.90185547 43.25073242 C89.40708949 60.54744924 86.73115725 74.73712744 74.72485352 87.94628906 C59.74056493 102.1273997 40.54997517 102.75176908 21.12524414 102.5949707 C17.9394469 102.57102291 14.75447003 102.57447433 11.56860352 102.58105469 C9.54255684 102.57548797 7.51651367 102.56838447 5.49047852 102.55957031 C4.06254974 102.56093742 4.06254974 102.56093742 2.60577393 102.56233215 C1.29235016 102.54803413 1.29235016 102.54803413 -0.04760742 102.53344727 C-1.20338287 102.52653618 -1.20338287 102.52653618 -2.38250732 102.51948547 C-4.27514648 102.25878906 -4.27514648 102.25878906 -6.27514648 100.25878906 C-6.47415354 97.16554704 -6.54776231 94.16179133 -6.53393555 91.06738281 C-6.5391925 89.63798874 -6.5391925 89.63798874 -6.54455566 88.17971802 C-6.55338401 85.01850171 -6.54751991 81.85750779 -6.54077148 78.69628906 C-6.54211782 76.50675412 -6.54405808 74.31721946 -6.54656982 72.12768555 C-6.54952259 67.53431355 -6.54521854 62.94101923 -6.53588867 58.34765625 C-6.52449409 52.44913043 -6.53105275 46.55078659 -6.5430336 40.65226746 C-6.55024808 36.12966532 -6.54796616 31.60710659 -6.54277802 27.08450317 C-6.54144038 24.90910826 -6.5430932 22.73370946 -6.54773712 20.55831909 C-6.55279557 17.52217108 -6.54510167 14.48632103 -6.53393555 11.45019531 C-6.53798401 10.54415558 -6.54203247 9.63811584 -6.54620361 8.70462036 C-6.50549746 2.75388961 -6.3528739 0.01296697 0 0 Z " fill="#1DDBDB" transform="translate(447.275146484375,146.7412109375)"/>
<path d="M0 0 C6.13042146 5.03229301 11.43488994 10.67397672 14.5078125 18.05859375 C14.6953125 20.93359375 14.6953125 20.93359375 14.5078125 23.05859375 C12.11791149 24.0957206 9.72254376 25.11327394 7.3203125 26.12109375 C6.64677734 26.41564453 5.97324219 26.71019531 5.27929688 27.01367188 C2.3442377 28.23064763 -0.07777141 29.06616034 -3.2734375 29.0078125 C-6.13008725 27.78568946 -7.08897315 26.3800366 -8.8046875 23.80859375 C-13.49663456 17.39286614 -18.86638107 14.18305807 -26.4921875 12.05859375 C-35.15416296 11.23908892 -43.0453727 11.23560575 -50.4921875 16.05859375 C-51.11480469 16.44789063 -51.73742187 16.8371875 -52.37890625 17.23828125 C-58.12017705 21.44771624 -61.4362632 27.3314351 -63.4921875 34.05859375 C-65.16184991 45.33843288 -63.66287789 55.00050232 -57.8671875 64.80859375 C-49.59087451 72.64931132 -41.00664947 74.67863161 -29.9609375 74.484375 C-22.98057909 74.07490432 -16.43655899 71.00296524 -11.4921875 66.05859375 C-12.86503906 65.98511719 -12.86503906 65.98511719 -14.265625 65.91015625 C-15.45414062 65.83539063 -16.64265625 65.760625 -17.8671875 65.68359375 C-19.05054688 65.61398438 -20.23390625 65.544375 -21.453125 65.47265625 C-24.4921875 65.05859375 -24.4921875 65.05859375 -26.4921875 63.05859375 C-26.7578125 59.87109375 -26.7578125 59.87109375 -26.7421875 56.05859375 C-26.74992187 54.17140625 -26.74992187 54.17140625 -26.7578125 52.24609375 C-26.4921875 49.05859375 -26.4921875 49.05859375 -24.4921875 47.05859375 C-21.41866815 46.87075813 -18.43676272 46.80312453 -15.36328125 46.828125 C-14.45844498 46.82858322 -13.5536087 46.82904144 -12.62135315 46.82951355 C-10.70727223 46.83253705 -8.79319381 46.84042625 -6.87915039 46.8527832 C-3.93822585 46.87104074 -0.99761592 46.87329292 1.94335938 46.87304688 C3.79948191 46.87796189 5.65560229 46.88379013 7.51171875 46.890625 C8.83980309 46.89229424 8.83980309 46.89229424 10.19471741 46.89399719 C16.39176721 46.94254846 16.39176721 46.94254846 17.5078125 48.05859375 C17.61093287 49.42918968 17.64630203 50.80499034 17.65307617 52.17944336 C17.65945602 53.05382553 17.66583588 53.9282077 17.67240906 54.8290863 C17.67352188 55.7800972 17.6746347 56.73110809 17.67578125 57.7109375 C17.68077385 59.16663902 17.68077385 59.16663902 17.68586731 60.65174866 C17.6909408 62.70882695 17.69327551 64.7659135 17.69311523 66.82299805 C17.69530076 69.97914119 17.71344941 73.13493446 17.73242188 76.29101562 C17.73535583 78.28515505 17.73734061 80.27929614 17.73828125 82.2734375 C17.74546677 83.22242416 17.75265228 84.17141083 17.76005554 85.14915466 C17.75697891 86.026689 17.75390228 86.90422333 17.75073242 87.80834961 C17.75215744 88.58254745 17.75358246 89.3567453 17.75505066 90.15440369 C17.5078125 92.05859375 17.5078125 92.05859375 15.5078125 94.05859375 C12.94488933 94.23023106 10.50435393 94.29123933 7.9453125 94.24609375 C7.24728516 94.24544922 6.54925781 94.24480469 5.83007812 94.24414062 C0.64812408 94.19890533 0.64812408 94.19890533 -0.4921875 93.05859375 C-0.72646528 91.04264793 -0.90554874 89.02011975 -1.0546875 86.99609375 C-1.18037109 85.33900391 -1.18037109 85.33900391 -1.30859375 83.6484375 C-1.36917969 82.79378906 -1.42976563 81.93914062 -1.4921875 81.05859375 C-2.00265625 81.57808594 -2.513125 82.09757812 -3.0390625 82.6328125 C-14.95202162 94.05995945 -27.6931681 95.61285542 -43.4921875 95.40234375 C-50.46452248 95.14410912 -55.49854948 93.75075312 -61.4921875 90.05859375 C-62.28109375 89.62417969 -63.07 89.18976563 -63.8828125 88.7421875 C-75.47610639 81.82170084 -82.62874317 71.08122979 -86.3046875 58.30859375 C-89.44467152 44.3927555 -88.09687994 29.53878845 -81.32421875 16.94921875 C-73.42071058 4.47886471 -61.21232996 -5.14280092 -46.72314453 -8.54882812 C-30.92615268 -11.32860082 -13.30432559 -9.23359911 0 0 Z " fill="#1DDBDB" transform="translate(335.4921875,154.94140625)"/>
<path d="M0 0 C0.83724609 -0.01224609 1.67449219 -0.02449219 2.53710938 -0.03710938 C3.73883789 -0.04000977 3.73883789 -0.04000977 4.96484375 -0.04296875 C5.70210693 -0.04707764 6.43937012 -0.05118652 7.19897461 -0.05541992 C9.0625 0.1875 9.0625 0.1875 11.0625 2.1875 C11.26150705 5.28074202 11.33511582 8.28449774 11.32128906 11.37890625 C11.3247937 12.33183563 11.32829834 13.28476501 11.33190918 14.26657104 C11.34073753 17.42778735 11.33487342 20.58878127 11.328125 23.75 C11.32947133 25.93953494 11.3314116 28.1290696 11.33392334 30.31860352 C11.3368761 34.91197551 11.33257205 39.50526983 11.32324219 44.09863281 C11.31184761 49.99715863 11.31840626 55.89550247 11.33038712 61.79402161 C11.3376016 66.31662374 11.33531968 70.83918247 11.33013153 75.36178589 C11.32879389 77.5371808 11.33044671 79.71257961 11.33509064 81.88796997 C11.34014909 84.92411798 11.33245518 87.95996803 11.32128906 90.99609375 C11.32533752 91.90213348 11.32938599 92.80817322 11.33355713 93.7416687 C11.29102747 99.95897253 11.29102747 99.95897253 9.0625 102.1875 C6.18907939 102.38606972 3.43388012 102.46578946 0.5625 102.4375 C-0.61505859 102.44910156 -0.61505859 102.44910156 -1.81640625 102.4609375 C-7.68419213 102.44080787 -7.68419213 102.44080787 -9.9375 100.1875 C-10.5625 98.0625 -10.5625 98.0625 -10.9375 96.1875 C-11.44539062 96.59742188 -11.95328125 97.00734375 -12.4765625 97.4296875 C-20.05216591 103.35965422 -26.30358944 105.20092069 -35.9375 104.1875 C-46.76365283 101.70061207 -54.70867625 95.9028495 -60.6484375 86.59375 C-64.35354437 79.67755052 -65.46517162 74.7129413 -65.375 66.875 C-65.36525146 65.93873779 -65.35550293 65.00247559 -65.34545898 64.0378418 C-65.05848173 52.8982602 -62.03901484 46.4725615 -54.30859375 38.38671875 C-46.57335952 31.21219343 -38.77748018 28.69906032 -28.26953125 28.8671875 C-21.00409906 29.56562295 -15.97131496 32.00956091 -10.9375 37.1875 C-10.89991577 35.55953491 -10.89991577 35.55953491 -10.86157227 33.89868164 C-10.76766245 29.886184 -10.66740233 25.87386618 -10.56518555 21.86157227 C-10.52177427 20.12235712 -10.48010388 18.38309765 -10.44018555 16.64379883 C-10.38263232 14.14911512 -10.3188958 11.6546559 -10.25390625 9.16015625 C-10.23719376 8.37786148 -10.22048126 7.59556671 -10.20326233 6.78956604 C-9.97912377 -1.30913007 -7.28776184 0.00558449 0 0 Z " fill="#1EDBDB" transform="translate(687.9375,146.8125)"/>
<path d="M0 0 C0.78503906 0.00773438 1.57007813 0.01546875 2.37890625 0.0234375 C3.55646484 0.01183594 3.55646484 0.01183594 4.7578125 0 C10.62559838 0.02012963 10.62559838 0.02012963 12.87890625 2.2734375 C13.0779133 5.36667952 13.15152207 8.37043524 13.13769531 11.46484375 C13.14119995 12.41777313 13.14470459 13.37070251 13.14831543 14.35250854 C13.15714378 17.51372485 13.15127967 20.67471877 13.14453125 23.8359375 C13.14587758 26.02547244 13.14781785 28.2150071 13.15032959 30.40454102 C13.15328235 34.99791301 13.1489783 39.59120733 13.13964844 44.18457031 C13.12825386 50.08309613 13.13481251 55.98143997 13.14679337 61.87995911 C13.15400785 66.40256124 13.15172593 70.92511997 13.14653778 75.44772339 C13.14520014 77.6231183 13.14685296 79.79851711 13.15149689 81.97390747 C13.15655534 85.01005548 13.14886143 88.04590553 13.13769531 91.08203125 C13.14174377 91.98807098 13.14579224 92.89411072 13.14996338 93.8276062 C13.10743372 100.04491003 13.10743372 100.04491003 10.87890625 102.2734375 C8.00548564 102.47200722 5.25028637 102.55172696 2.37890625 102.5234375 C1.20134766 102.53503906 1.20134766 102.53503906 0 102.546875 C-5.86778588 102.52674537 -5.86778588 102.52674537 -8.12109375 100.2734375 C-8.74609375 98.1484375 -8.74609375 98.1484375 -9.12109375 96.2734375 C-9.94609375 97.0365625 -10.77109375 97.7996875 -11.62109375 98.5859375 C-17.56499601 103.46298551 -23.62521539 104.87055172 -31.2578125 104.6171875 C-41.09900576 103.43570727 -49.61575625 98.75476716 -55.90625 91.1015625 C-61.48133503 83.15672389 -63.63958806 76.00371299 -63.55859375 66.3359375 C-63.57857422 65.49353516 -63.59855469 64.65113281 -63.61914062 63.78320312 C-63.61204234 54.56253502 -59.86398028 46.10101843 -53.37109375 39.4921875 C-45.11151143 31.87788505 -37.25508502 28.89346595 -26.04296875 28.984375 C-19.53776364 29.62793807 -14.23942369 32.35302884 -9.12109375 36.2734375 C-9.10127441 35.2539502 -9.08145508 34.23446289 -9.06103516 33.18408203 C-8.98506567 29.40811102 -8.89633566 25.63252977 -8.80371094 21.85693359 C-8.76538523 20.2215951 -8.73053868 18.58617126 -8.69921875 16.95068359 C-8.65364533 14.6022284 -8.59564008 12.25436255 -8.53515625 9.90625 C-8.52360504 9.17286407 -8.51205383 8.43947815 -8.50015259 7.68386841 C-8.30050837 0.84587698 -6.74503408 0.02313905 0 0 Z " fill="#1DDBDB" transform="translate(768.12109375,146.7265625)"/>
<path d="M0 0 C2.625 2.25 2.625 2.25 4 4 C4.66 2.02 5.32 0.04 6 -2 C8.95857409 -2.05379226 11.91617721 -2.09357093 14.875 -2.125 C15.71675781 -2.14175781 16.55851563 -2.15851563 17.42578125 -2.17578125 C18.23144531 -2.18222656 19.03710938 -2.18867188 19.8671875 -2.1953125 C20.61081543 -2.20578613 21.35444336 -2.21625977 22.12060547 -2.22705078 C24 -2 24 -2 26 0 C26.25396729 2.77062988 26.25396729 2.77062988 26.25878906 6.34570312 C26.2622937 6.99627182 26.26579834 7.64684052 26.26940918 8.31712341 C26.27822629 10.47194017 26.27237763 12.62642978 26.265625 14.78125 C26.26697166 16.27575748 26.2689122 17.77026453 26.27142334 19.26477051 C26.27437457 22.39872402 26.27007707 25.53256362 26.26074219 28.66650391 C26.24934757 32.68850013 26.25590706 36.71022945 26.26788712 40.73221588 C26.2751058 43.81880717 26.27281777 46.90533493 26.26763153 49.9919281 C26.26629505 51.47513358 26.26794269 52.95834478 26.27259064 54.44154358 C26.27765612 56.51261731 26.26994584 58.58325566 26.25878906 60.65429688 C26.25719788 61.83407104 26.25560669 63.01384521 26.25396729 64.22937012 C26 67 26 67 24 69 C21.12657939 69.19856972 18.37138012 69.27828946 15.5 69.25 C14.32244141 69.26160156 14.32244141 69.26160156 13.12109375 69.2734375 C7.25330787 69.25330787 7.25330787 69.25330787 5 67 C4.375 64.875 4.375 64.875 4 63 C3.175 63.763125 2.35 64.52625 1.5 65.3125 C-4.21225428 70.01042876 -10.07754706 71.55132293 -17.42578125 71.28125 C-27.27598132 70.20505212 -35.62875079 65.962048 -42.3125 58.625 C-50.01231467 48.94157657 -52.06714582 38.19214101 -51 26 C-48.65875451 15.5442105 -42.71545362 7.15745884 -34 1 C-23.13187967 -5.382217 -11.26287388 -6.29020881 0 0 Z " fill="#1FDBDB" transform="translate(591,180)"/>
<path d="M0 0 C8.24766101 5.33287748 14.15730432 12.75623671 16.75 22.3125 C18.39026902 34.30067554 16.67217193 45.15492518 9.5625 55.125 C2.04652976 64.02340028 -7.88411477 68.28382151 -19.36328125 69.6953125 C-30.78291468 70.13965621 -40.7706833 65.88177079 -49.25 58.3125 C-57.57034035 48.84830871 -60.04882103 39.58672688 -59.59375 27.1875 C-58.78127423 18.02868218 -54.60878463 10.85978615 -48.25 4.3125 C-33.90609714 -7.65852674 -16.33379546 -9.04148255 0 0 Z " fill="#1DDBDB" transform="translate(418.25,181.6875)"/>
<path d="M0 0 C0.92425781 -0.03738281 1.84851563 -0.07476562 2.80078125 -0.11328125 C3.68894531 -0.12488281 4.57710937 -0.13648438 5.4921875 -0.1484375 C6.71591064 -0.1781665 6.71591064 -0.1781665 7.96435547 -0.20849609 C10.125 0.375 10.125 0.375 11.8137207 2.56787109 C13.0982097 5.3176485 13.98205468 7.87617225 14.73828125 10.8125 C15.15194946 12.38862061 15.15194946 12.38862061 15.57397461 13.99658203 C15.85893799 15.11145996 16.14390137 16.22633789 16.4375 17.375 C17.04808719 19.70609421 17.66008898 22.03681831 18.2734375 24.3671875 C18.57991211 25.53604492 18.88638672 26.70490234 19.20214844 27.90917969 C20.59093045 33.1248277 22.06811127 38.31377848 23.5625 43.5 C23.82135986 44.39976562 24.08021973 45.29953125 24.34692383 46.2265625 C24.93787489 48.27654435 25.5311406 50.32585878 26.125 52.375 C26.81409946 49.91710607 27.50144804 47.45874535 28.1875 45 C28.51596924 43.82473755 28.51596924 43.82473755 28.85107422 42.62573242 C30.2383553 37.63812662 31.58909334 32.64229208 32.91015625 27.63671875 C33.21493896 26.48671387 33.51972168 25.33670898 33.83374023 24.15185547 C34.43531894 21.87730131 35.03262716 19.60161254 35.62524414 17.32470703 C39.39466379 3.10533621 39.39466379 3.10533621 42.125 0.375 C43.45543625 0.2766279 44.79093344 0.24421408 46.125 0.2421875 C46.929375 0.24089844 47.73375 0.23960937 48.5625 0.23828125 C49.408125 0.24214844 50.25375 0.24601563 51.125 0.25 C52.3934375 0.24419922 52.3934375 0.24419922 53.6875 0.23828125 C54.491875 0.23957031 55.29625 0.24085938 56.125 0.2421875 C56.8675 0.24331543 57.61 0.24444336 58.375 0.24560547 C60.125 0.375 60.125 0.375 61.125 1.375 C60.83329767 9.54266527 58.2766793 17.07072726 55.90039062 24.8203125 C54.47579334 29.5139479 53.1180748 34.22714722 51.75 38.9375 C51.15241521 40.98439586 50.55475801 43.03127059 49.95703125 45.078125 C48.71574862 49.33585074 47.48526822 53.59652096 46.26171875 57.859375 C45.9560498 58.91954834 45.65038086 59.97972168 45.33544922 61.07202148 C44.75715135 63.07845408 44.18172838 65.08571864 43.60986328 67.09399414 C36.60906422 91.32639185 36.60906422 91.32639185 26.125 98.375 C21.09992443 100.93906148 16.83636108 101.86575161 11.25 101.75 C10.54963623 101.74129883 9.84927246 101.73259766 9.12768555 101.72363281 C2.1057057 101.52521207 -2.95168772 100.01205488 -9 96.625 C-10.875 94.375 -10.875 94.375 -11 91.0625 C-9.64009034 86.60501833 -7.76473999 84.00569896 -4.875 80.375 C1.66257225 81.12933526 1.66257225 81.12933526 4.125 82.4375 C7.25369862 83.90407748 9.72337046 83.73306627 13.125 83.375 C17.01261964 81.21521131 17.95639538 79.85672749 19.4375 75.625 C19.664375 74.5525 19.89125 73.48 20.125 72.375 C19.51011719 72.33761719 18.89523437 72.30023438 18.26171875 72.26171875 C17.45347656 72.19597656 16.64523437 72.13023437 15.8125 72.0625 C15.01199219 72.00449219 14.21148438 71.94648438 13.38671875 71.88671875 C10.62104151 71.2609783 9.90787295 70.55616807 8.125 68.375 C7.14526367 65.93334961 7.14526367 65.93334961 6.29296875 63.02734375 C5.97231445 61.95581055 5.65166016 60.88427734 5.32128906 59.78027344 C4.82193848 58.06372559 4.82193848 58.06372559 4.3125 56.3125 C3.60460429 53.94088627 2.89496106 51.56979348 2.18359375 49.19921875 C1.83538574 48.03438965 1.48717773 46.86956055 1.12841797 45.66943359 C-0.2050159 41.29148793 -1.6469045 36.95583905 -3.125 32.625 C-5.33156228 26.13437346 -7.29983128 19.61105813 -9.11328125 13 C-9.77513194 10.42454019 -9.77513194 10.42454019 -10.875 8.375 C-11 4.8125 -11 4.8125 -10.875 1.375 C-8.5540744 -0.9459256 -3.11365744 0.04737238 0 0 Z " fill="#1DDBDB" transform="translate(796.875,177.625)"/>
<path d="M0 0 C-1.48301271 3.41401884 -3.43756554 5.69359537 -6 8.375 C-19.62995681 23.31763322 -29.38536997 40.56536206 -35 60 C-35.27287842 60.92095459 -35.54575684 61.84190918 -35.8269043 62.79077148 C-38.32904427 72.20197034 -38.34997155 81.16332494 -38.1875 90.8125 C-38.17240852 92.39126311 -38.1587281 93.97004036 -38.14648438 95.54882812 C-38.11387176 99.36624338 -38.06234383 103.18295933 -38 107 C-55.96238856 89.18134003 -65.13132252 65.02315908 -65.375 39.9375 C-65.4285133 25.16033812 -62.59195124 14.0002081 -52.19140625 3.10546875 C-38.05565969 -10.4045506 -16.41565901 -8.6153104 0 0 Z " fill="#FCFEFE" transform="translate(94,133)"/>
<path d="M0 0 C33.94278607 0 33.94278607 0 42.39453125 8.0703125 C49.03098373 16.04697314 51.06302449 24.11094652 50.44921875 34.2265625 C49.37502796 43.24976513 45.72628725 49.89547039 39 56 C27.00925214 64.75845931 15.33841105 62 0 62 C0 41.54 0 21.08 0 0 Z " fill="#FCFEFE" transform="translate(463,167)"/>
<path d="M0 0 C4.87575525 3.62846902 8.12613311 6.99855834 9.2734375 13.1328125 C9.59476474 19.72767167 8.95516353 24.49066002 4.453125 29.4765625 C-0.14118309 33.44067789 -5.10802483 34.64294442 -11.0390625 34.41015625 C-15.84772961 33.54261321 -19.4234626 31.04867436 -22.69921875 27.49609375 C-26.12681263 22.50503599 -26.27706268 16.8377011 -25.3125 11 C-20.85773636 -0.37386461 -11.24685261 -3.39527626 0 0 Z " fill="#FBFEFE" transform="translate(405.3125,197)"/>
<path d="M0 0 C5.23758515 2.74403918 8.02625414 6.81704368 9.859375 12.31640625 C10.64310988 18.83039942 9.64789852 23.91470498 5.859375 29.31640625 C0.74571868 34.18061592 -3.58725391 34.67480709 -10.4140625 34.59375 C-14.29015989 34.19947648 -16.30202909 32.94730002 -19.140625 30.31640625 C-23.84208469 24.09014882 -24.97907829 18.97893772 -24.140625 11.31640625 C-20.43502559 0.64266882 -10.41827728 -3.32700461 0 0 Z " fill="#FBFEFE" transform="translate(751.140625,196.68359375)"/>
<path d="M0 0 C3.6381222 1.79553876 6.34519038 4.4441762 8.1484375 8.08203125 C9.8465545 13.8356512 9.96148596 20.18821008 7.89453125 25.84375 C5.38331299 30.24041368 2.76566317 32.86442735 -2.1875 34.33203125 C-7.52468617 34.96134126 -11.74730519 35.03903598 -16.625 32.64453125 C-21.1871579 28.52746192 -23.79977338 25.36587937 -24.390625 19.21875 C-24.53838039 12.28655978 -23.16729673 7.0277093 -18.25 1.89453125 C-12.993246 -2.26846077 -6.1891875 -1.88991261 0 0 Z " fill="#FCFEFE" transform="translate(669.1875,196.66796875)"/>
<path d="M0 0 C5.67458978 1.92721917 9.32050871 5.64101742 12 11 C12.50178565 17.44601568 12.96229274 23.58486659 9 29 C4.78239923 33.21760077 1.16931443 35.13791555 -4.8125 35.3125 C-9.6661481 35.25598008 -12.28169946 34.27564572 -16 31 C-20.96347471 25.49993343 -21.35080412 21.15676459 -21.28125 13.94921875 C-20.77540299 8.64485075 -18.22984831 6.08343779 -14.375 2.6875 C-9.68678983 -0.6435967 -5.63115856 -0.46854016 0 0 Z " fill="#FDFEFE" transform="translate(584,196)"/>
<path d="M0 0 C0.99 0.33 1.98 0.66 3 1 C3 1.66 3 2.32 3 3 C3.66 3 4.32 3 5 3 C5.33 2.01 5.66 1.02 6 0 C6.66 0 7.32 0 8 0 C8 2.64 8 5.28 8 8 C7.34 6.68 6.68 5.36 6 4 C5.67 4.66 5.34 5.32 5 6 C4.34 6 3.68 6 3 6 C2.67 5.34 2.34 4.68 2 4 C1.34 5.32 0.68 6.64 0 8 C0 5.36 0 2.72 0 0 Z " fill="#28DDDD" transform="translate(867,162)"/>
<path d="M0 0 C2.31 0 4.62 0 7 0 C7 0.66 7 1.32 7 2 C6.34 2 5.68 2 5 2 C5 3.98 5 5.96 5 8 C4.34 8 3.68 8 3 8 C3 6.02 3 4.04 3 2 C2.01 2 1.02 2 0 2 C0 1.34 0 0.68 0 0 Z " fill="#50E3E3" transform="translate(858,162)"/>
</svg>
