<svg id="GD_MASTERBRAND_RGB_BW" xmlns="http://www.w3.org/2000/svg" viewBox="0 0 1184.2663 297.4975"><defs><style>.cls-1{fill:#111;}</style></defs><path class="cls-1" d="M293.4924,52.6664C268.97,37.3426,236.6882,40.984,207.9417,59.0856c-28.743-18.0953-61.0159-21.74-85.5352-6.4191-38.74,24.2076-43.4453,86.5612-10.5088,139.2706,24.2852,38.8646,62.2529,61.63,96.0532,61.206,33.7993.4222,71.7657-22.3426,96.05-61.206C336.9377,139.2277,332.2329,76.874,293.4924,52.6664ZM129.7041,180.8105a126.4278,126.4278,0,0,1-15.2-34.8062,99.65,99.65,0,0,1-3.293-32.8108c1.4692-19.472,9.397-34.6438,22.3225-42.7206s30.0369-8.5512,48.1824-1.3358a87.8258,87.8258,0,0,1,8.1111,3.7443A148.6442,148.6442,0,0,0,163.71,104.2735c-20.0166,32.0332-26.105,67.6143-19.1262,96.0445A130.0855,130.0855,0,0,1,129.7041,180.8105Zm171.6912-34.8063A126.4281,126.4281,0,0,1,286.1948,180.81a130.0871,130.0871,0,0,1-14.8772,19.5045c6.2437-25.4493,2.0179-56.6269-13.2993-85.8636a3.8589,3.8589,0,0,0-5.5344-1.507L204.7844,142.75a3.9,3.9,0,0,0-1.2407,5.374l6.9932,11.1917a3.9,3.9,0,0,0,5.374,1.2407l30.9153-19.318c1.0359,2.9682,1.9651,5.9572,2.7566,8.9677a99.6534,99.6534,0,0,1,3.2929,32.8109c-1.4692,19.4719-9.3967,34.6437-22.3222,42.72a43.5619,43.5619,0,0,1-22.106,6.4009c-.1775-.0017-.3574.0042-.5344.0008-.1516.0027-.3057-.0022-.4578-.0008a43.5612,43.5612,0,0,1-22.11-6.401c-12.9253-8.0768-20.8531-23.2486-22.3223-42.7206a99.65,99.65,0,0,1,3.293-32.8108,129.87,129.87,0,0,1,39.82-63.7263,99.6562,99.6562,0,0,1,28.0467-17.3429c18.1455-7.2154,35.2568-6.7411,48.1826,1.3357s20.853,23.2486,22.3222,42.72A99.6534,99.6534,0,0,1,301.3953,146.0042Z"/><path class="cls-1" d="M547.5389,122.6271c25.2511,0,45.52,19.5811,45.52,44.4878,0,24.7355-20.2687,43.9732-45.52,43.9732-25.0789,0-45.3477-19.2377-45.3477-43.9732,0-24.9067,20.2688-44.4878,45.3477-44.4878m0,65.2256c11.7318,0,20.5309-9.35,20.5309-20.91s-8.7991-21.0793-20.5309-21.0793c-11.56,0-20.3578,9.52-20.3578,21.0793s8.7982,20.91,20.3578,20.91M712.2,148.3919c0,35.7284-25.6611,60.2927-62.5917,60.2927H603.466a3.7479,3.7479,0,0,1-3.7781-3.9513V92.2236a3.7034,3.7034,0,0,1,3.7781-3.78h46.1419c36.9306,0,62.5917,24.0487,62.5917,59.9483m-26.97,0c0-20.9555-14.0841-36.2439-34.5251-36.2439H625.4535v72.8312h25.2511c20.441,0,34.5251-15.9742,34.5251-36.5873m73.8313-25.7646c11.1669,0,20.0975,4.8091,24.0478,11.3362v-5.1526a3.9093,3.9093,0,0,1,3.6088-3.78h17.3486a3.6686,3.6686,0,0,1,3.6069,3.78v76.2669a3.5219,3.5219,0,0,1-3.6069,3.6069H786.7176a3.6291,3.6291,0,0,1-3.6088-3.6069v-5.3257c-3.95,6.5279-13.054,11.3362-24.219,11.3362-21.6423,0-41.7408-17.3486-41.7408-44.3166,0-27.14,20.27-44.1444,41.912-44.1444m4.6428,65.3959c11.4987,0,20.1207-8.8262,20.1207-21.0793s-8.622-21.0794-20.1207-21.0794c-11.4958,0-20.1189,8.8262-20.1189,21.0794s8.6231,21.0793,20.1189,21.0793m92.2344-65.3963c11.3362,0,20.439,4.81,24.39,10.9938v-41.57a3.6675,3.6675,0,0,1,3.7781-3.6069h17.3506a3.5213,3.5213,0,0,1,3.6069,3.6069V205.0784a3.5211,3.5211,0,0,1-3.6069,3.6059H884.1065a3.627,3.627,0,0,1-3.6059-3.6059v-5.3257c-4.639,6.5279-13.056,11.3361-24.22,11.3361-21.6442,0-41.7408-17.3486-41.7408-44.3165,0-27.1411,19.9254-44.1454,41.3984-44.1454m5.1584,65.6164c11.4454,0,20.0308-8.918,20.0308-21.3s-8.5854-21.3-20.0308-21.3c-11.4485,0-20.0328,8.919-20.0328,21.3s8.5843,21.3,20.0328,21.3M953.33,122.6269c11.3362,0,20.44,4.81,24.3912,10.9938v-41.57A3.6675,3.6675,0,0,1,981.5,88.4442H998.85a3.5219,3.5219,0,0,1,3.6069,3.6069V205.0784a3.5216,3.5216,0,0,1-3.6069,3.6059H981.5a3.6272,3.6272,0,0,1-3.6069-3.6059v-5.3257c-4.638,6.5279-13.055,11.3361-24.22,11.3361-21.6442,0-41.7408-17.3486-41.7408-44.3165,0-27.1411,19.9254-44.1454,41.3984-44.1454m5.1584,65.6164c11.4454,0,20.0308-8.918,20.0308-21.3s-8.5854-21.3-20.0308-21.3c-11.4485,0-20.0318,8.919-20.0318,21.3s8.5833,21.3,20.0318,21.3m132.06-63.2119H1073.24c-2.748,0-4.1224,1.89-4.6361,3.9512L1052.6248,188.73l-17.11-59.7477c-.9857-3.1836-2.5414-3.9512-4.7738-3.9512h-18.2466c-4.2936,0-5.0843,2.9211-4.2254,5.8412l23.1541,74.2057c.6867,2.0612,2.0612,3.6059,4.6379,3.6059h10.4843l-2.2257,7.3667c-2.1928,6.3645-6.2783,8.0774-11.6133,8.0774-4.5713,0-7.5717-1.8039-10.8062-3.8961a5.9406,5.9406,0,0,0-3.4172-1.1839c-1.5553,0-2.63.7-4.0809,2.8428l-5.1388,7.7c-1.0038,1.5953-1.5454,2.4733-1.5454,4.1766,0,2.7336,2.73,4.4451,6.0033,6.3157,5.6323,3.219,12.815,4.8266,20.702,4.8266,17.3487,0,28.5146-9.4462,33.4959-25.2462l25.8944-88.7909C1095.0147,127.437,1093.9855,125.0314,1090.5488,125.0314ZM473.4925,192.2727c-9.0928,11.4859-24.9006,18.7107-42.78,18.7107-33.5761,0-59.8237-25.2545-59.8237-61.2166,0-37.3753,28.33-63.136,64.1216-63.136,26.4181,0,47.5467,11.3629,56.9192,34.2129a5.186,5.186,0,0,1,.4343,1.9056c0,1.0869-.7117,1.903-2.9908,2.6964l-16.729,6.4421a4.3314,4.3314,0,0,1-3.1658.0464,4.8314,4.8314,0,0,1-1.9981-2.29c-5.952-11.4073-16.6765-19.1645-33.1142-19.1645-21.3269,0-36.5932,16.659-36.5932,38.2466,0,20.9261,13.0167,38.1334,37.1982,38.1334,12.73,0,22.8806-6.02,27.6136-12.5875H447.4823a3.8565,3.8565,0,0,1-3.92-3.92V157.4662a3.8565,3.8565,0,0,1,3.92-3.92h44.2468a3.7184,3.7184,0,0,1,3.9205,3.7491v47.431a3.8569,3.8569,0,0,1-3.9205,3.92H477.4126a3.8565,3.8565,0,0,1-3.92-3.92Z"/></svg>