<?xml version="1.0" encoding="UTF-8"?>
<svg version="1.1" xmlns="http://www.w3.org/2000/svg" width="1590" height="897">
<path d="M0 0 C524.7 0 1049.4 0 1590 0 C1590 296.01 1590 592.02 1590 897 C1065.3 897 540.6 897 0 897 C0 600.99 0 304.98 0 0 Z " fill="#28CBB0" transform="translate(0,0)"/>
<path d="M0 0 C6.61473506 3.03803793 11.58574236 8.67468298 14.625 15.25 C17.77655112 25.07542407 18.40860925 37.39844159 14.91796875 47.21484375 C11.42961688 53.87039764 5.77179706 60.28213273 -1.36328125 63.0234375 C-8.56299547 64.33941175 -16.02986904 63.82920876 -23.3125 63.5625 C-23.3125 59.2725 -23.3125 54.9825 -23.3125 50.5625 C-21.79269531 50.50642578 -21.79269531 50.50642578 -20.2421875 50.44921875 C-18.89059061 50.38351612 -17.53902971 50.31707029 -16.1875 50.25 C-15.18976562 50.21616211 -15.18976562 50.21616211 -14.171875 50.18164062 C-8.9596524 49.90058941 -4.56948264 48.90396862 -0.8515625 45.046875 C2.66922411 38.3664081 2.57910684 30.93632953 1.6875 23.5625 C-0.49919815 18.25819505 -3.13848219 15.1495089 -8.3125 12.5625 C-10.08020327 12.44009865 -11.85310462 12.38698847 -13.625 12.375 C-15.04232422 12.35373047 -15.04232422 12.35373047 -16.48828125 12.33203125 C-19.48221557 12.57634954 -21.58808188 13.33491462 -24.3125 14.5625 C-25.3025 14.8925 -26.2925 15.2225 -27.3125 15.5625 C-32.30733141 22.90784031 -31.64846286 32.80352774 -31.7265625 41.25 C-31.74592865 42.54824707 -31.7652948 43.84649414 -31.7852478 45.18408203 C-31.83624737 48.60997594 -31.87604352 52.0359088 -31.91339111 55.4619751 C-31.9536344 58.96823509 -32.00463323 62.47433753 -32.0546875 65.98046875 C-32.1510649 72.84103656 -32.23459392 79.70169781 -32.3125 86.5625 C-36.9325 86.5625 -41.5525 86.5625 -46.3125 86.5625 C-46.3125 57.8525 -46.3125 29.1425 -46.3125 -0.4375 C-41.3625 -0.4375 -36.4125 -0.4375 -31.3125 -0.4375 C-31.3125 2.2025 -31.3125 4.8425 -31.3125 7.5625 C-30.70921875 7.08039063 -30.1059375 6.59828125 -29.484375 6.1015625 C-28.68515625 5.46992188 -27.8859375 4.83828125 -27.0625 4.1875 C-26.27359375 3.56101562 -25.4846875 2.93453125 -24.671875 2.2890625 C-17.38310959 -3.04476914 -8.45102087 -2.86941639 0 0 Z " fill="#1D211F" transform="translate(750.3125,416.4375)"/>
<path d="M0 0 C4.59163218 3.10025559 7.82061993 7.26390499 9.984375 12.33984375 C10.22488403 14.75701904 10.22488403 14.75701904 10.21142578 17.47558594 C10.21127472 18.49634216 10.21112366 19.51709839 10.21096802 20.56878662 C10.20064545 21.66370422 10.19032288 22.75862183 10.1796875 23.88671875 C10.1768576 25.01305725 10.17402771 26.13939575 10.17111206 27.29986572 C10.15991874 30.89663321 10.13481537 34.49315154 10.109375 38.08984375 C10.09934412 40.52864224 10.09021846 42.96744463 10.08203125 45.40625 C10.05998212 51.38421056 10.02545777 57.36198491 9.984375 63.33984375 C5.364375 63.33984375 0.744375 63.33984375 -4.015625 63.33984375 C-4.015625 61.35984375 -4.015625 59.37984375 -4.015625 57.33984375 C-4.67949219 57.67757812 -5.34335937 58.0153125 -6.02734375 58.36328125 C-6.91035156 58.80929687 -7.79335938 59.2553125 -8.703125 59.71484375 C-9.57324219 60.15570313 -10.44335938 60.5965625 -11.33984375 61.05078125 C-19.11724425 64.79755813 -26.95979353 65.93247974 -35.49609375 63.6875 C-40.44291198 61.45808289 -44.0121459 57.81908075 -47.015625 53.33984375 C-49.08716037 47.12523764 -49.14902155 39.78100555 -46.390625 33.83984375 C-41.07143741 28.24069892 -36.48803957 24.70425383 -28.66918945 24.18359375 C-26.13570262 24.14390337 -23.61137947 24.16475659 -21.078125 24.21484375 C-20.20349609 24.22386719 -19.32886719 24.23289062 -18.42773438 24.2421875 C-16.29024436 24.26554805 -14.15289714 24.30141128 -12.015625 24.33984375 C-12.015625 27.63984375 -12.015625 30.93984375 -12.015625 34.33984375 C-13.19640625 34.365625 -14.3771875 34.39140625 -15.59375 34.41796875 C-17.15107823 34.47425772 -18.70836847 34.53160489 -20.265625 34.58984375 C-21.04292969 34.60402344 -21.82023438 34.61820312 -22.62109375 34.6328125 C-26.35214754 34.79225924 -28.43424193 34.92611533 -31.53515625 37.1328125 C-33.98113543 40.77919308 -33.4965105 43.01187429 -33.015625 47.33984375 C-31.47224409 49.51460776 -30.37897227 50.15817012 -28.015625 51.33984375 C-19.02772158 52.46333168 -13.2022603 50.77878577 -6.015625 45.33984375 C-3.24274219 42.56696094 -4.68116111 34.31916629 -4.640625 30.58984375 C-4.60324219 29.30078125 -4.56585937 28.01171875 -4.52734375 26.68359375 C-4.51574219 25.4409375 -4.50414062 24.19828125 -4.4921875 22.91796875 C-4.47236816 21.7774707 -4.45254883 20.63697266 -4.43212891 19.46191406 C-5.19622201 15.37353638 -6.82941731 13.9218616 -10.015625 11.33984375 C-15.29170285 9.58115113 -20.23405438 9.69199989 -25.453125 11.58984375 C-28.39985318 13.29762087 -28.39985318 13.29762087 -30.015625 17.33984375 C-34.965625 17.33984375 -39.915625 17.33984375 -45.015625 17.33984375 C-43.76244889 9.82078709 -41.64586463 6.09020187 -35.58203125 1.49609375 C-25.2946507 -4.55362796 -10.86702474 -5.26488612 0 0 Z " fill="#1D201E" transform="translate(619.015625,417.66015625)"/>
<path d="M0 0 C7.35685476 4.2881485 10.98544882 9.33923988 14.14453125 17.25 C15.14453125 21.25 15.14453125 21.25 15.14453125 34.25 C2.27453125 34.25 -10.59546875 34.25 -23.85546875 34.25 C-23.85546875 30.95 -23.85546875 27.65 -23.85546875 24.25 C-15.60546875 24.25 -7.35546875 24.25 1.14453125 24.25 C-1.14530819 15.76771725 -1.14530819 15.76771725 -6.85546875 11.25 C-11.90291613 9.56751754 -17.11948186 9.26761544 -22.18359375 11.0859375 C-26.37419781 13.39853011 -29.06091266 15.91628605 -30.45703125 20.67578125 C-31.72344172 28.85778616 -32.48282397 38.06962122 -27.85546875 45.25 C-22.49957221 50.21400167 -18.97200332 50.53704464 -11.84375 50.46875 C-8.18391372 50.20084042 -5.83884186 49.3919089 -2.85546875 47.25 C-2.448125 46.5590625 -2.04078125 45.868125 -1.62109375 45.15625 C0.14453125 43.25 0.14453125 43.25 3.28125 42.859375 C4.45300781 42.90578125 5.62476563 42.9521875 6.83203125 43 C8.01152344 43.03609375 9.19101562 43.0721875 10.40625 43.109375 C11.30988281 43.15578125 12.21351563 43.2021875 13.14453125 43.25 C12.25267236 49.86462006 10.23356128 53.67875024 5.09375 57.95703125 C-3.33532852 63.94036678 -11.5948137 65.30916439 -21.85546875 64.25 C-30.0578284 62.19649317 -35.88184251 57.9670328 -41.10546875 51.4375 C-46.62031968 41.39259296 -47.25654795 30.66815085 -45.38671875 19.43359375 C-42.89124264 10.89252969 -37.46528323 5.17569267 -30.1015625 0.4765625 C-20.95227708 -4.51974293 -9.41829346 -4.49828942 0 0 Z " fill="#1D201D" transform="translate(820.85546875,417.75)"/>
<path d="M0 0 C4.88783231 3.17802025 8.52102621 7.66139074 10.0546875 13.3359375 C10.0546875 14.6559375 10.0546875 15.9759375 10.0546875 17.3359375 C5.4346875 17.3359375 0.8146875 17.3359375 -3.9453125 17.3359375 C-4.6053125 15.6859375 -5.2653125 14.0359375 -5.9453125 12.3359375 C-10.46417991 9.01472092 -16.63010559 9.74858176 -21.9453125 10.3359375 C-25.25597295 11.75948484 -25.25597295 11.75948484 -26.9453125 14.3359375 C-27.69552494 16.87961418 -27.69552494 16.87961418 -26.9453125 19.3359375 C-24.06076172 22.01368993 -21.82519743 22.77172022 -17.953125 23.1796875 C-16.52419922 23.34791016 -16.52419922 23.34791016 -15.06640625 23.51953125 C-14.07769531 23.62394531 -13.08898437 23.72835938 -12.0703125 23.8359375 C1.84788512 25.31737509 1.84788512 25.31737509 6.91796875 30.08984375 C7.39621094 30.68667969 7.87445312 31.28351563 8.3671875 31.8984375 C8.85832031 32.49785156 9.34945312 33.09726562 9.85546875 33.71484375 C12.95261967 37.90154614 12.44779925 42.3162029 12.0546875 47.3359375 C10.28220664 53.87196068 6.51958128 57.60593064 1.0546875 61.3359375 C-6.85084571 65.71414865 -17.32809499 65.70706933 -25.921875 63.609375 C-33.67351951 60.72885453 -38.63104754 56.79408306 -42.28125 49.30078125 C-42.9453125 47.3359375 -42.9453125 47.3359375 -42.9453125 43.3359375 C-40.67609714 43.20104359 -38.4046058 43.10399755 -36.1328125 43.0234375 C-34.23595703 42.93642578 -34.23595703 42.93642578 -32.30078125 42.84765625 C-31.19347656 43.00878906 -30.08617187 43.16992188 -28.9453125 43.3359375 C-27.15234375 45.7421875 -27.15234375 45.7421875 -25.9453125 48.3359375 C-20.76244222 52.09351845 -15.10542372 52.13903348 -8.9453125 51.3359375 C-5.99973477 50.38974809 -5.16699421 49.67771012 -2.9453125 47.3359375 C-2.0285103 43.79272197 -2.0285103 43.79272197 -2.9453125 40.3359375 C-7.15456753 36.84332667 -11.47061108 36.76666277 -16.6953125 36.3984375 C-25.08458826 35.6285862 -31.39966293 34.36451317 -37.9453125 28.7734375 C-42.09213216 23.71950104 -41.51175063 17.57484893 -40.9453125 11.3359375 C-39.44908362 6.33348551 -36.09520591 3.2765033 -31.921875 0.37890625 C-22.65195638 -4.51253302 -9.46989839 -4.49581035 0 0 Z " fill="#1D201D" transform="translate(932.9453125,417.6640625)"/>
<path d="M0 0 C4.46120911 2.91946773 8.29185302 6.43947786 9.7734375 11.6875 C10.0625 13.890625 10.0625 13.890625 10.125 17.390625 C8.02258397 17.52558751 5.9177039 17.62259807 3.8125 17.703125 C2.64074219 17.76113281 1.46898437 17.81914062 0.26171875 17.87890625 C-1.29095703 17.63720703 -1.29095703 17.63720703 -2.875 17.390625 C-4.54296875 14.99609375 -4.54296875 14.99609375 -5.875 12.390625 C-9.06585809 10.11438787 -12.02288834 10.09257042 -15.875 10.078125 C-16.90625 10.06136719 -17.9375 10.04460937 -19 10.02734375 C-22.24022846 10.43677479 -23.61200473 11.05808141 -25.875 13.390625 C-26.45842353 16.93293309 -26.45842353 16.93293309 -25.875 20.390625 C-22.86593443 22.39666871 -21.69074008 22.73134679 -18.234375 23.13671875 C-17.32816406 23.25208984 -16.42195312 23.36746094 -15.48828125 23.48632812 C-13.59529124 23.71229897 -11.70206392 23.93629157 -9.80859375 24.15820312 C-1.60463083 25.20835679 4.5988417 26.75923504 10.125 33.390625 C12.87802111 37.97899352 12.73462754 43.20483226 12.125 48.390625 C10.48493327 54.63168431 6.91008321 57.95245841 1.46875 61.203125 C-6.97843894 65.48303406 -17.71348292 65.92180364 -26.75 63.203125 C-33.46869697 60.56495775 -38.49182127 56.89673793 -41.875 50.390625 C-42.625 46.515625 -42.625 46.515625 -42.875 43.390625 C-40.60578464 43.25573109 -38.3342933 43.15868505 -36.0625 43.078125 C-34.16564453 42.99111328 -34.16564453 42.99111328 -32.23046875 42.90234375 C-31.12316406 43.06347656 -30.01585937 43.22460938 -28.875 43.390625 C-27.0859375 45.796875 -27.0859375 45.796875 -25.875 48.390625 C-20.81395857 51.97038601 -15.84295967 51.96392506 -9.875 51.390625 C-7.43573944 50.8837094 -5.23505423 50.21151343 -2.875 49.390625 C-2.875 45.760625 -2.875 42.130625 -2.875 38.390625 C-3.65101563 38.30087402 -4.42703125 38.21112305 -5.2265625 38.11865234 C-8.77961686 37.69307021 -12.32677753 37.22970765 -15.875 36.765625 C-17.09574219 36.62511719 -18.31648437 36.48460937 -19.57421875 36.33984375 C-28.53044277 35.12954321 -34.19881194 33.05683598 -39.84765625 25.88671875 C-41.79133453 21.16424566 -41.47388524 16.39267784 -40.875 11.390625 C-38.17838937 5.56594603 -33.07224348 0.7296415 -27.1328125 -1.7578125 C-18.58009257 -3.99341555 -8.02480872 -3.84973932 0 0 Z " fill="#1D201D" transform="translate(682.875,417.609375)"/>
<path d="M0 0 C4.95 0 9.9 0 15 0 C19.42838802 8.56796812 23.50765187 17.22613215 27.375 26.0625 C27.81569824 27.061604 28.25639648 28.06070801 28.71044922 29.09008789 C29.12311035 30.04133545 29.53577148 30.99258301 29.9609375 31.97265625 C30.51467041 33.24508179 30.51467041 33.24508179 31.07958984 34.54321289 C32.00751472 37.02005853 32.55625246 39.39654539 33 42 C33.66 42 34.32 42 35 42 C35.12745605 41.26821533 35.25491211 40.53643066 35.38623047 39.7824707 C35.96650651 37.15183983 36.74779825 34.94418871 37.8203125 32.48046875 C38.37150757 31.20465942 38.37150757 31.20465942 38.93383789 29.90307617 C39.52346313 28.55886597 39.52346313 28.55886597 40.125 27.1875 C40.52517334 26.26493408 40.92534668 25.34236816 41.33764648 24.3918457 C42.55343937 21.59235757 43.77603558 18.79592361 45 16 C45.71764455 14.3542524 46.43510469 12.70842436 47.15234375 11.0625 C48.76133839 7.37191462 50.38083065 3.68619405 52 0 C57.28 0 62.56 0 68 0 C65.5883761 6.02905976 62.95097363 11.94249102 60.3125 17.875 C59.80783203 19.01453125 59.30316406 20.1540625 58.78320312 21.328125 C55.8613258 27.90327245 52.87818516 34.44549766 49.82365417 40.96008301 C47.32928323 46.28251518 44.86814266 51.61982078 42.4140625 56.9609375 C41.62111945 58.68490765 40.82815057 60.40886593 40.03515625 62.1328125 C38.81614189 64.78336186 37.59783027 67.43422511 36.38134766 70.0859375 C35.1859294 72.69103373 33.98775319 75.29484575 32.7890625 77.8984375 C32.42245514 78.69929779 32.05584778 79.50015808 31.6781311 80.32528687 C29.11370723 85.88629277 29.11370723 85.88629277 28 87 C25.64686445 87.07271741 23.29166332 87.08370868 20.9375 87.0625 C19.00197266 87.04896484 19.00197266 87.04896484 17.02734375 87.03515625 C16.02832031 87.02355469 15.02929688 87.01195312 14 87 C14.60276265 83.29139296 15.65977134 80.30907079 17.3203125 76.9453125 C17.77277344 76.00042969 18.22523437 75.05554688 18.69140625 74.08203125 C19.64556631 72.11391362 20.60909934 70.15031205 21.58203125 68.19140625 C22.25685547 66.77021484 22.25685547 66.77021484 22.9453125 65.3203125 C23.36312988 64.46711426 23.78094727 63.61391602 24.21142578 62.73486328 C26.08014448 56.25393856 23.23204583 50.69380982 20.4296875 44.96875 C20.0703714 44.21517212 19.7110553 43.46159424 19.34085083 42.68518066 C18.19442564 40.28575376 17.03512891 37.89282635 15.875 35.5 C15.11890279 33.92490555 14.36368709 32.34938763 13.609375 30.7734375 C12.12702578 27.67855173 10.64216929 24.58489129 9.15527344 21.4921875 C7.07352309 17.15655605 4.99840441 12.81803433 2.9453125 8.46875 C2.64567596 7.84141968 2.34603943 7.21408936 2.037323 6.56774902 C0 2.23060019 0 2.23060019 0 0 Z " fill="#1D201E" transform="translate(1016,416)"/>
<path d="M0 0 C0 4.62 0 9.24 0 14 C-2.18625 14.0825 -4.3725 14.165 -6.625 14.25 C-14.15903498 14.75079142 -14.15903498 14.75079142 -20 19 C-22.94163068 24.57996832 -23.46411802 29.18491918 -23.51171875 35.43359375 C-23.52966995 36.31153091 -23.54762115 37.18946808 -23.56611633 38.0940094 C-23.61993679 40.87512529 -23.65402364 43.65607237 -23.6875 46.4375 C-23.72069808 48.33270564 -23.75519003 50.22788908 -23.79101562 52.12304688 C-23.87564675 56.74857555 -23.942592 61.37405662 -24 66 C-28.62 66 -33.24 66 -38 66 C-38 44.55 -38 23.1 -38 1 C-33.38 1 -28.76 1 -24 1 C-24 3.64 -24 6.28 -24 9 C-23.2575 8.236875 -22.515 7.47375 -21.75 6.6875 C-14.60147907 -0.29855454 -9.79499417 -0.11660707 0 0 Z " fill="#1D211E" transform="translate(885,415)"/>
<path d="M0 0 C4.62 0 9.24 0 14 0 C14 29.04 14 58.08 14 88 C9.38 88 4.76 88 0 88 C0 58.96 0 29.92 0 0 Z " fill="#1D221F" transform="translate(954,393)"/>
<path d="M0 0 C4.29 0 8.58 0 13 0 C13 28.71 13 57.42 13 87 C8.71 87 4.42 87 0 87 C0 58.29 0 29.58 0 0 Z " fill="#1D1D1B" transform="translate(508,393)"/>
<path d="M0 0 C1.4539304 0.03304387 2.90746075 0.09241162 4.359375 0.17578125 C5.10445312 0.19833984 5.84953125 0.22089844 6.6171875 0.24414062 C8.448784 0.30284564 10.27934153 0.39252368 12.109375 0.48828125 C10.72685505 4.52063111 8.86897737 7.25560419 6.109375 10.48828125 C5.31789063 11.43960937 4.52640625 12.3909375 3.7109375 13.37109375 C3.29102539 13.87415039 2.87111328 14.37720703 2.43847656 14.89550781 C1.99987305 15.42112305 1.56126953 15.94673828 1.109375 16.48828125 C0.64241211 17.04741211 0.17544922 17.60654297 -0.30566406 18.18261719 C-1.72495474 19.8971512 -3.12183204 21.62798916 -4.515625 23.36328125 C-5.19044922 24.16572266 -5.19044922 24.16572266 -5.87890625 24.984375 C-7.75669032 27.34789502 -8.87966308 28.90729942 -8.9375 31.97265625 C-7.56216374 35.27756875 -5.64933997 38.01886697 -3.515625 40.86328125 C-3.07879395 41.46108398 -2.64196289 42.05888672 -2.19189453 42.67480469 C-0.76764556 44.61984983 0.66914589 46.55504336 2.109375 48.48828125 C3.6564903 50.56703453 5.20275268 52.64636085 6.74462891 54.72900391 C7.72614665 56.0528143 8.71269247 57.37291369 9.70458984 58.68896484 C13.109375 63.26603046 13.109375 63.26603046 13.109375 65.48828125 C7.42684692 66.51840779 1.68517749 67.405002 -3.890625 65.48828125 C-8.71131009 61.61091168 -11.59818589 55.93446406 -14.60791016 50.62939453 C-16.85055366 46.88596409 -19.72681176 43.6793967 -22.5625 40.37109375 C-24.71583677 35.69708628 -24.90812637 31.52166569 -23.890625 26.48828125 C-21.78291183 22.44837923 -19.06407804 19.09310078 -16.140625 15.61328125 C-15.41101563 14.70320313 -14.68140625 13.793125 -13.9296875 12.85546875 C-12.56941538 11.16378487 -11.19858468 9.48049165 -9.81347656 7.80908203 C-8.44788157 6.16086643 -7.14570299 4.45919404 -5.890625 2.7253418 C-3.890625 0.48828125 -3.890625 0.48828125 0 0 Z " fill="#1D211F" transform="translate(999.890625,415.51171875)"/>
<path d="M0 0 C1.14082031 0.10054688 1.14082031 0.10054688 2.3046875 0.203125 C3.0884375 0.23921875 3.8721875 0.2753125 4.6796875 0.3125 C6.59849034 0.40610014 8.51474836 0.54958868 10.4296875 0.703125 C6.31276814 7.0837798 1.88779298 13.12316955 -2.8203125 19.078125 C-4.05558199 20.64773396 -5.28999459 22.21801776 -6.5234375 23.7890625 C-7.06129883 24.4701709 -7.59916016 25.1512793 -8.15332031 25.85302734 C-10.7812223 28.88554403 -10.7812223 28.88554403 -11.37744141 32.62841797 C-10.43515379 35.05054749 -9.22209348 36.82302502 -7.65625 38.8984375 C-7.06279785 39.69266113 -6.4693457 40.48688477 -5.85791016 41.30517578 C-5.22675293 42.13774902 -4.5955957 42.97032227 -3.9453125 43.828125 C-2.66847654 45.53586475 -1.39242704 47.24419281 -0.1171875 48.953125 C0.49576172 49.77167969 1.10871094 50.59023438 1.74023438 51.43359375 C10.4296875 63.10659321 10.4296875 63.10659321 10.4296875 64.703125 C4.74500453 65.67302352 -0.97749493 66.49421583 -6.5703125 64.703125 C-11.34484926 61.15711666 -14.29328949 55.83589387 -17.28759766 50.79785156 C-18.46330801 48.87786776 -19.71348937 47.10564991 -21.08203125 45.3203125 C-25.14112785 39.89401582 -27.33657968 36.17461065 -27.09570312 29.30322266 C-26.11866128 24.46795515 -23.11109147 21.22800699 -19.9453125 17.578125 C-18.70259088 16.07596254 -17.46039919 14.57336152 -16.21875 13.0703125 C-15.59983887 12.35004883 -14.98092773 11.62978516 -14.34326172 10.88769531 C-12.53441579 8.74133662 -12.53441579 8.74133662 -11.08251953 6.38574219 C-7.91694882 1.46248969 -5.95957485 -0.20550258 0 0 Z " fill="#1D201E" transform="translate(555.5703125,415.296875)"/>
</svg>
