<svg xmlns="http://www.w3.org/2000/svg" width="180" height="35" viewBox="0 0 180 35" fill="none">
  <path d="M107.44 6.58824C112.737 6.58824 117.035 11.2206 117.035 17.3971C117.035 23.5735 112.737 28.2059 107.44 28.2059C105.142 28.2059 103.043 27.2794 101.544 25.7353V35H96.3465V7.20588H101.344V9.26471C102.943 7.61765 105.042 6.58824 107.44 6.58824ZM62.0655 6.58824C66.8629 6.58824 70.5608 9.36765 71.7601 14.1029H66.2632C65.5636 12.6618 63.9645 11.5294 62.0655 11.5294C59.1671 11.5294 56.8684 14.3088 56.8684 17.6029C56.8684 20.8971 59.1671 23.5735 62.0655 23.5735C63.9645 23.5735 65.6635 22.3382 66.2632 20.8971H71.7331L71.6803 21.0937C70.4071 25.6464 66.8586 28.3088 62.0655 28.3088C55.9689 28.3088 51.6713 23.4706 51.6713 17.5C51.6713 11.5294 55.9689 6.58824 62.0655 6.58824ZM83.8534 6.58824C89.6621 6.58824 94.501 11.1832 93.9754 19.1924L93.9478 19.5588H78.7562C79.3559 22.1324 81.3548 23.6765 83.7535 23.6765C85.1693 23.6765 86.5852 23.1255 87.4959 22.0237L87.6513 21.8235H93.3481C92.0489 25.7353 88.6507 28.3088 83.8534 28.3088C78.1566 28.3088 73.5591 23.4706 73.5591 17.5C73.5591 11.5294 78.1566 6.58824 83.8534 6.58824ZM26.6852 6.58824C32.482 6.58824 37.1793 11.4265 37.1793 17.3971C37.1793 23.3676 32.482 28.2059 26.6852 28.2059C20.8884 28.2059 16.191 23.3676 16.191 17.3971C16.191 11.4265 20.8884 6.58824 26.6852 6.58824ZM129.528 6.58824C135.425 6.58824 140.122 11.4265 140.022 17.3971C140.022 23.3676 135.325 28.2059 129.528 28.2059C123.731 28.2059 119.034 23.3676 119.034 17.3971C119.034 11.4265 123.731 6.58824 129.528 6.58824ZM176.102 2.05882V7.10294H180V11.8382H176.102V19.1471C176.102 22.0294 177.401 23.1618 180 22.9559V27.7941H179.9C174.003 28.4118 170.905 24.8088 170.905 19.1471V2.05882H176.102ZM50.9717 6.69118V11.829L50.7879 11.8128C48.8194 11.6532 47.2192 11.8944 46.0744 13.0735C44.975 14.2059 44.7751 15.9559 44.7751 17.6029V27.7941H39.578V7.20588H44.4753V9.16177C46.0744 7.10294 48.573 6.27941 50.9717 6.69118ZM147.418 7.20588V27.7941H142.221V7.20588H147.418ZM160.411 6.58824C165.108 6.58824 168.306 10.2941 168.306 15.75V27.7941H163.109V15.6471C163.109 14.4118 162.71 11.5294 159.411 11.5294C157.113 11.5294 155.514 13.2794 155.514 15.6471V27.7941H150.316V7.20588H155.214V9.16177C156.513 7.61765 158.212 6.58824 160.411 6.58824ZM5.59689 17.5V27.7941H0V17.5H5.59689ZM26.6852 11.4265C23.5869 11.4265 21.0883 14.1029 21.0883 17.3971C21.0883 20.6912 23.5869 23.3676 26.6852 23.3676C29.7835 23.3676 32.2821 20.6912 32.2821 17.3971C32.2821 14.1029 29.7835 11.4265 26.6852 11.4265ZM129.528 11.4265C126.43 11.4265 123.931 14.1029 123.931 17.3971C123.931 20.6912 126.43 23.3676 129.528 23.3676C132.726 23.3676 135.125 20.6912 135.125 17.3971C135.125 14.1029 132.626 11.4265 129.528 11.4265ZM106.741 11.5294C103.842 11.5294 101.544 14.1029 101.544 17.3971C101.544 20.6912 103.842 23.2647 106.741 23.2647C109.639 23.2647 111.938 20.6912 111.938 17.3971C111.838 14 109.539 11.5294 106.741 11.5294ZM83.8534 11.2206C81.5347 11.2206 79.683 12.6635 78.9301 14.8984L78.8562 15.1324H88.8506C88.251 12.7647 86.352 11.2206 83.8534 11.2206ZM17.99 0V5.45588H5.59689V11.3235H0V0H17.99ZM147.418 0.205882V5.14706H142.221V0.205882H147.418Z" fill="#1d252c"/>
  <path d="M13.9923 11.3237H7.99561V17.5002H13.9923V11.3237Z" fill="#00af9a"/>
</svg>
