<svg xmlns="http://www.w3.org/2000/svg" viewBox="0 0 304.18 86.73"><path fill="#95bf46" d="M65.34 16.36a.8.8 0 00-.74-.69l-6.32-.12s-5-4.89-5.53-5.39a2.09 2.09 0 00-1.85-.23l-2.53.78a17 17 0 00-1.21-3c-1.79-3.42-4.41-5.23-7.58-5.23h-.66a3.11 3.11 0 00-.29-.33A6.65 6.65 0 0033.36 0c-4.1.12-8.18 3.08-11.48 8.33a32.92 32.92 0 00-4.6 11.93l-8.07 2.5c-2.37.75-2.44.82-2.75 3.06C6.21 27.59 0 75.59 0 75.59l52.05 9L74.61 79s-9.21-62.22-9.27-62.64zm-19.57-4.84l-4 1.25a22.2 22.2 0 00-1.25-7.45c3.07.59 4.59 4.1 5.25 6.2zM39 13.59l-8.69 2.69a20.86 20.86 0 014.39-8.51 8.89 8.89 0 013-2.15 19.37 19.37 0 011.3 7.97zm-5.57-10.8a4.25 4.25 0 012.46.64 12 12 0 00-3.18 2.48 23.87 23.87 0 00-5.39 11.3l-7.14 2.21C21.59 12.86 27.11 3 33.43 2.81z"/><path fill="#5f8e3e" d="M64.6 15.67l-6.32-.12s-5-4.89-5.53-5.39a1.33 1.33 0 00-.7-.32v74.75L74.61 79s-9.21-62.24-9.27-62.66a.8.8 0 00-.74-.67z"/><path fill="#fff" d="M39.55 27.27l-2.62 9.8A15 15 0 0030.54 36c-5.08.33-5.13 3.53-5.08 4.33.27 4.39 11.8 5.34 12.45 15.61.51 8.08-4.28 13.6-11.19 14a16.75 16.75 0 01-12.85-4.3l1.75-7.47s4.6 3.46 8.27 3.23a3.26 3.26 0 003.19-3.4v-.17c-.36-5.72-9.76-5.39-10.35-14.78-.5-7.91 4.69-15.92 16.15-16.64 4.41-.27 6.67.86 6.67.86zm65.62 20.91c-2.62-1.42-4-2.61-4-4.26 0-2.09 1.87-3.43 4.78-3.43a17.18 17.18 0 016.43 1.42l2.43-7.32s-2.2-1.71-8.67-1.71c-9 0-15.24 5.15-15.24 12.4 0 4.11 2.91 7.24 6.8 9.48 3.14 1.8 4.26 3.07 4.26 4.94s-1.57 3.51-4.49 3.51A20.09 20.09 0 0189 61l-2.54 7.32a19.42 19.42 0 0010.16 2.54c9.27 0 15.92-4.56 15.92-12.78.03-4.49-3.34-7.58-7.37-9.9zm36.94-15.39a14 14 0 00-10.9 5.45l-.15-.07 4-20.69h-10.39l-10 52.66H125l3.43-18c1.35-6.8 4.86-11 8.15-11 2.31 0 3.21 1.57 3.21 3.81a23.27 23.27 0 01-.45 4.56l-3.88 20.61h10.31l4-21.29a37.89 37.89 0 00.75-6.72c0-5.81-3.07-9.32-8.41-9.32zm31.72 0c-12.41 0-20.62 11.21-20.62 23.68 0 8 4.93 14.42 14.19 14.42 12.18 0 20.4-10.91 20.4-23.68 0-7.4-4.34-14.42-13.97-14.42zM168.75 63c-3.52 0-5-3-5-6.72 0-5.9 3.06-15.54 8.67-15.54 3.66 0 4.85 3.14 4.85 6.2-.01 6.32-3.07 16.06-8.52 16.06zm45.42-30.21c-7 0-10.91 6.13-10.91 6.13h-.15l.6-5.53h-9.11c-.45 3.73-1.27 9.41-2.1 13.67l-7.17 37.73h10.31l2.84-15.2h.22a12 12 0 006.06 1.34c12.1 0 20-12.4 20-25 .02-6.93-3.05-13.14-10.59-13.14zm-9.86 30.33a6.55 6.55 0 01-4.26-1.49l1.72-9.63c1.19-6.42 4.55-10.68 8.14-10.68 3.14 0 4.11 2.91 4.11 5.68-.02 6.59-3.91 16.12-9.71 16.12zM239.49 18a5.88 5.88 0 00-5.9 5.86V24c0 3.06 1.95 5.15 4.86 5.15h.15a5.82 5.82 0 006.05-5.58v-.42A4.9 4.9 0 00240 18a4.51 4.51 0 00-.51 0zm-14.41 52.15h10.31l7.02-36.54h-10.38l-6.95 36.54zm43.55-36.56h-7.17l.37-1.72c.6-3.51 2.69-6.65 6.13-6.65a10.76 10.76 0 013.28.52l2-8.06a13.54 13.54 0 00-5.6-.9 15.29 15.29 0 00-10.09 3.44c-3.51 3-5.15 7.32-6 11.65l-.3 1.72h-4.78L245 41.36h4.78l-5.48 28.83h10.31l5.5-28.88h7.1zm24.8 0s-6.44 16.24-9.34 25.1H284c-.2-2.85-2.54-25.1-2.54-25.1h-10.89l6.2 33.55a2.13 2.13 0 01-.22 1.71 17.58 17.58 0 01-5.6 6.21 22.85 22.85 0 01-5.84 2.94l2.89 8.73a23.6 23.6 0 0010-5.6c4.71-4.41 9-11.21 13.53-20.47l12.62-27z"/></svg>