<svg xmlns="http://www.w3.org/2000/svg" viewBox="0 0 304.17 86.71"><path fill="#95bf46" d="M65.32 16.36a.82.82 0 00-.74-.69l-6.32-.12s-5-4.89-5.53-5.39a2.09 2.09 0 00-1.85-.23l-2.53.78a17 17 0 00-1.21-3c-1.79-3.42-4.41-5.23-7.59-5.23h-.65c-.22 0-.19-.23-.29-.33A6.67 6.67 0 0033.33 0c-4.09.12-8.17 3.08-11.48 8.33a33.08 33.08 0 00-4.59 11.93l-8.07 2.5c-2.37.75-2.45.82-2.76 3.06C6.19 27.59 0 75.59 0 75.59l52 9L74.55 79s-9.17-62.22-9.23-62.64zm-19.58-4.84l-4 1.25a22.27 22.27 0 00-1.24-7.45c3.07.59 4.6 4.1 5.24 6.2zM39 13.59l-8.69 2.69a20.56 20.56 0 014.39-8.51 9 9 0 012.95-2.15A19.55 19.55 0 0139 13.59zm-5.58-10.8a4.3 4.3 0 012.47.64 12 12 0 00-3.18 2.48 23.69 23.69 0 00-5.39 11.3l-7.14 2.21C21.57 12.86 27.08 3 33.4 2.81z"/><path fill="#5f8e3e" d="M64.58 15.67l-6.32-.12s-5-4.89-5.53-5.39a1.33 1.33 0 00-.7-.32v74.75L74.58 79s-9.2-62.23-9.26-62.65a.81.81 0 00-.74-.68z"/><path fill="#fff" d="M39.52 27.27l-2.62 9.8A15 15 0 0030.52 36c-5.08.33-5.14 3.53-5.09 4.33.28 4.39 11.81 5.34 12.46 15.61.51 8.08-4.28 13.6-11.19 14a16.77 16.77 0 01-12.86-4.3l1.76-7.47s4.59 3.46 8.27 3.23a3.24 3.24 0 003.18-3.3v-.18c-.36-5.72-9.75-5.39-10.34-14.78-.5-7.91 4.69-15.92 16.15-16.64 4.4-.36 6.66.77 6.66.77z"/><path d="M105.15 48.18c-2.62-1.42-4-2.61-4-4.26 0-2.09 1.86-3.43 4.78-3.43a17.13 17.13 0 016.42 1.42l2.39-7.33s-2.19-1.71-8.66-1.71c-9 0-15.24 5.15-15.24 12.4 0 4.11 2.91 7.24 6.8 9.48 3.13 1.8 4.25 3.07 4.25 4.94s-1.56 3.51-4.48 3.51A20.09 20.09 0 0189 61l-2.54 7.32a19.42 19.42 0 0010.16 2.54c9.26 0 15.91-4.56 15.91-12.78.01-4.49-3.35-7.58-7.38-9.9zm36.9-15.39a14 14 0 00-10.9 5.45l-.15-.07 4-20.69h-10.35l-10 52.66H125l3.44-18c1.35-6.8 4.86-11 8.14-11 2.32 0 3.22 1.57 3.22 3.81a23.27 23.27 0 01-.45 4.56l-3.89 20.61h10.31l4-21.29a38.83 38.83 0 00.74-6.72c-.02-5.81-3.08-9.32-8.46-9.32zm31.75 0c-12.4 0-20.62 11.21-20.62 23.68 0 8 4.93 14.42 14.2 14.42 12.18 0 20.39-10.91 20.39-23.68 0-7.4-4.33-14.42-13.97-14.42zM168.72 63c-3.51 0-5-3-5-6.72 0-5.9 3.06-15.54 8.66-15.54 3.66 0 4.86 3.14 4.86 6.2 0 6.32-3.06 16.06-8.52 16.06zm45.43-30.21c-7 0-10.91 6.13-10.91 6.13h-.15l.6-5.53h-9.12c-.45 3.73-1.27 9.41-2.09 13.67l-7.17 37.73h10.31l2.84-15.2h.22a12 12 0 006 1.34c12.11 0 20-12.4 20-25 .07-6.93-2.99-13.14-10.53-13.14zm-9.87 30.33a6.52 6.52 0 01-4.28-1.53l1.71-9.59c1.2-6.42 4.56-10.68 8.15-10.68C213 41.27 214 44.18 214 47c0 6.59-4 16.12-9.72 16.12zM239.47 18a5.88 5.88 0 00-5.9 5.86V24c0 3.06 1.94 5.15 4.86 5.15h.15a5.83 5.83 0 006-5.6v-.4A4.9 4.9 0 00240 18a4.51 4.51 0 00-.53 0zm-14.42 52.15h10.31l7.03-36.54H232l-6.95 36.54zm43.56-36.56h-7.17l.37-1.72c.6-3.51 2.69-6.65 6.13-6.65a10.76 10.76 0 013.28.52l2-8.06a13.54 13.54 0 00-5.6-.9 15.34 15.34 0 00-10.09 3.44c-3.51 3-5.15 7.32-6 11.65l-.29 1.72h-4.79L245 41.31h4.78l-5.45 28.83h10.31l5.45-28.83h7.1zm24.8 0s-6.44 16.24-9.34 25.1h-.15c-.19-2.85-2.54-25.1-2.54-25.1h-10.83l6.2 33.55a2.13 2.13 0 01-.22 1.71 17.7 17.7 0 01-5.61 6.21A22.34 22.34 0 01265.1 78l2.84 8.74A23.6 23.6 0 00278 81.11c4.71-4.41 9-11.21 13.52-20.47l12.63-27z"/></svg>