<svg xmlns="http://www.w3.org/2000/svg" xmlns:xlink="http://www.w3.org/1999/xlink" width="200" height="128">
    <defs>
        <linearGradient id="g" x1="20" y1="79.921" x2="126.94" y2="79.921" gradientUnits="userSpaceOnUse">
            <stop offset="0" stop-color="#f9d304"/>
            <stop offset="1" stop-color="#e6332a"/>
        </linearGradient>
        <radialGradient id="a" cx="236.259" cy="-222.961" r="1.065" gradientTransform="matrix(2.573 -.108 -.093 -3.939 -483.29 -809.176)" gradientUnits="userSpaceOnUse">
            <stop offset="0" stop-color="#fefefc"/>
            <stop offset=".757" stop-color="#fefefc"/>
            <stop offset="1" stop-color="#d4d4d4"/>
        </radialGradient>
        <radialGradient id="h" cx="252.451" cy="-223.406" r="1.065" gradientTransform="matrix(3.427 -.108 -.124 -3.939 -739.041 -809.176)" xlink:href="#a"/>
        <radialGradient id="i" cx="158.481" cy="-166.46" r="1.125" gradientTransform="matrix(2.203 -1.601 -1.453 -1.999 -442.471 -33.27)" gradientUnits="userSpaceOnUse">
            <stop offset="0" stop-color="#020204"/>
            <stop offset=".734" stop-color="#020204"/>
            <stop offset="1" stop-color="#5c5c5c"/>
        </radialGradient>
        <linearGradient id="j" x1="213.889" y1="7.261" x2="215.439" y2="5.425" gradientTransform="matrix(1 0 0 -1 -60 49.638)" gradientUnits="userSpaceOnUse">
            <stop offset="0" stop-color="#949494" stop-opacity=".392"/>
            <stop offset=".5" stop-color="#949494"/>
            <stop offset="1" stop-color="#949494" stop-opacity=".392"/>
        </linearGradient>
        <clipPath id="k">
            <path d="M152.211 39.977a3.769 3.769 0 0 0-1.443 1.788 4.392 4.392 0 0 0 .116 2.884 4.778 4.778 0 0 0 1.7 2.426 3.115 3.115 0 0 0 1.391.54 2.539 2.539 0 0 0 1.463-.254 2.818 2.818 0 0 0 1.214-1.334 4.861 4.861 0 0 0 .4-1.781 6.01 6.01 0 0 0-.288-2.308 3.876 3.876 0 0 0-1.494-2 2.915 2.915 0 0 0-1.179-.446 2.51 2.51 0 0 0-1.25.139 3.1 3.1 0 0 0-.634.346" fill="none"/>
        </clipPath>
        <linearGradient id="l" x1="342.84" y1="10.692" x2="347.772" y2="7.808" gradientTransform="matrix(1 0 0 -1 -190 49.638)" gradientUnits="userSpaceOnUse">
            <stop offset="0" stop-color="#747474"/>
            <stop offset=".125" stop-color="#8c8c8c"/>
            <stop offset=".25" stop-color="#a4a4a4"/>
            <stop offset=".5" stop-color="#d4d4d4"/>
            <stop offset=".619" stop-color="#d4d4d4"/>
            <stop offset="1" stop-color="#7c7c7c"/>
        </linearGradient>
        <linearGradient id="b" x1="294.39" y1="11.629" x2="297.674" y2="8.528" gradientTransform="matrix(1 0 0 -1 -140 49.638)" gradientUnits="userSpaceOnUse">
            <stop offset="0" stop-color="#646464" stop-opacity="0"/>
            <stop offset=".306" stop-color="#646464" stop-opacity=".583"/>
            <stop offset=".47" stop-color="#646464"/>
            <stop offset=".728" stop-color="#646464" stop-opacity=".257"/>
            <stop offset="1" stop-color="#646464" stop-opacity="0"/>
        </linearGradient>
        <linearGradient id="m" x1="284.96" y1="11.47" x2="288.052" y2="8.492" xlink:href="#b"/>
        <linearGradient id="n" x1="194.932" y1="7.443" x2="196.278" y2="5.036" gradientTransform="matrix(1 0 0 -1 -50 49.638)" gradientUnits="userSpaceOnUse">
            <stop offset="0" stop-color="#757574" stop-opacity="0"/>
            <stop offset=".263" stop-color="#757574"/>
            <stop offset=".5" stop-color="#757574"/>
            <stop offset="1" stop-color="#757574" stop-opacity="0"/>
        </linearGradient>
        <radialGradient id="o" cx="250.494" cy="-290.088" r="2.274" gradientTransform="matrix(2.955 -1.22 -.856 -2.075 -836.906 -247.773)" gradientUnits="userSpaceOnUse">
            <stop offset="0" stop-color="#d2940a"/>
            <stop offset=".751" stop-color="#d89c08"/>
            <stop offset=".866" stop-color="#b67e07"/>
            <stop offset="1" stop-color="#946106"/>
        </radialGradient>
        <linearGradient id="p" x1="293.236" y1="1.438" x2="306.268" y2="1.54" gradientTransform="matrix(1 0 0 -1 -150 49.638)" gradientUnits="userSpaceOnUse">
            <stop offset="0" stop-color="#ad780a"/>
            <stop offset=".12" stop-color="#d89e08"/>
            <stop offset=".255" stop-color="#edb80b"/>
            <stop offset=".392" stop-color="#ebc80d"/>
            <stop offset=".527" stop-color="#f5d838"/>
            <stop offset=".769" stop-color="#f6d811"/>
            <stop offset="1" stop-color="#f5cd31"/>
        </linearGradient>
        <radialGradient id="c" cx="113.792" cy="-460.395" r=".236" gradientTransform="matrix(3.156 0 0 -1.841 -208.817 -801.952)" gradientUnits="userSpaceOnUse">
            <stop offset="0" stop-color="#3a2903"/>
            <stop offset=".555" stop-color="#735208"/>
            <stop offset="1" stop-color="#ac8c04"/>
        </radialGradient>
        <radialGradient id="q" cx="112.728" cy="-263.277" r=".112" gradientTransform="matrix(3.156 0 0 -3.393 -208.817 -847.652)" xlink:href="#c"/>
        <linearGradient id="r" x1="250.93" y1="-12.604" x2="251.031" y2="-13.239" gradientTransform="matrix(1.096 0 .17 -1.518 -116.502 28.66)" gradientUnits="userSpaceOnUse">
            <stop offset="0" stop-color="#f5ce2d"/>
            <stop offset="1" stop-color="#d79b08"/>
        </linearGradient>
        <clipPath id="s">
            <path d="M144.938 39.977a1.787 1.787 0 0 0-1.1.493 2.5 2.5 0 0 0-.643 1.039 6.308 6.308 0 0 0-.143 2.448 7.242 7.242 0 0 0 .387 2.193 2.872 2.872 0 0 0 .6.937 2.036 2.036 0 0 0 .95.562 1.917 1.917 0 0 0 1.035-.037 2.239 2.239 0 0 0 .887-.54 2.981 2.981 0 0 0 .751-1.313 5.171 5.171 0 0 0 .173-1.513 6.293 6.293 0 0 0-.292-1.884 4.227 4.227 0 0 0-.963-1.635 2.718 2.718 0 0 0-.738-.554 1.822 1.822 0 0 0-.9-.2" fill="none"/>
        </clipPath>
        <radialGradient id="t" cx="-477.452" cy="-1281.803" r="2.596" gradientTransform="matrix(.636 -.105 -.097 -.588 324.578 -761.705)" gradientUnits="userSpaceOnUse">
            <stop offset="0" stop-color="#c8c8c8"/>
            <stop offset="1" stop-color="#797978"/>
        </radialGradient>
        <clipPath id="u">
            <path d="M165.906 63.764a7.373 7.373 0 0 1 2.571 4.616c.429 2.776-.551 5.555-1.514 8.2a7.839 7.839 0 0 0-.462 1.614 2.658 2.658 0 0 0 .242 1.635 2.5 2.5 0 0 0 1.5 1.136 3.591 3.591 0 0 0 1.883.022 4.637 4.637 0 0 0 1.689-.84 6.712 6.712 0 0 0 2.351-4.118 13.475 13.475 0 0 0-.129-4.8 32.846 32.846 0 0 0-1.818-6.324 17.979 17.979 0 0 0-2.26-4.274c-.95-1.262-2.152-2.328-3.078-3.608a21.18 21.18 0 0 0-1.924-2.655 3.961 3.961 0 0 0-1.356-.924 2.62 2.62 0 0 0-1.628-.111 2.353 2.353 0 0 0-.949.531 2.734 2.734 0 0 0-.633.878 3.657 3.657 0 0 0-.226 2.122 7.709 7.709 0 0 0 1.049 2.582 9.193 9.193 0 0 0 1.969 2.458c.846.7 1.871 1.171 2.728 1.86" fill="none"/>
        </clipPath>
        <radialGradient id="d" cx="706.148" cy="-345.485" r="2.002" gradientTransform="matrix(-2.545 0 0 -2.409 1935.626 -770.239)" gradientUnits="userSpaceOnUse">
            <stop offset="0"/>
            <stop offset="1" stop-opacity=".249"/>
        </radialGradient>
        <radialGradient id="v" cx="325.581" cy="-346.643" r="2.003" gradientTransform="matrix(3.156 0 0 -2.409 -871.646 -770.239)" xlink:href="#d"/>
        <radialGradient id="w" cx="322.906" cy="-274.261" r=".793" gradientTransform="matrix(3.156 0 0 -3.375 -871.646 -861.73)" xlink:href="#d"/>
        <linearGradient id="x" x1="324.018" y1="-36.225" x2="324.871" y2="-42.591" gradientTransform="matrix(1.027 0 0 -1 -166.32 49.638)" gradientUnits="userSpaceOnUse">
            <stop offset="0"/>
            <stop offset="1" stop-opacity="0"/>
        </linearGradient>
        <clipPath id="y">
            <path d="M179.96 88.322a3.921 3.921 0 0 1-.65 1.094 7.085 7.085 0 0 1-2.284 1.619 45.041 45.041 0 0 0-4.25 2.243 17.347 17.347 0 0 0-2.506 2.022 20.25 20.25 0 0 1-2.038 1.85 5.862 5.862 0 0 1-2.536 1.073 6.083 6.083 0 0 1-3.3-.5 3.958 3.958 0 0 1-1.837-1.438 4.311 4.311 0 0 1-.515-2.29 23.866 23.866 0 0 1 .5-4.17c.2-1.147.4-2.3.522-3.456a35.607 35.607 0 0 0 .074-6.348 4.783 4.783 0 0 1 0-1.063 1.349 1.349 0 0 1 1.375-1.258 4.8 4.8 0 0 1 .978.081 20.38 20.38 0 0 1 2.282.4c.472.124.931.29 1.4.418a6.425 6.425 0 0 0 2.415.219 18.888 18.888 0 0 1 2.59-.407 3.854 3.854 0 0 1 1.058.185 2.261 2.261 0 0 1 .951.529 2.083 2.083 0 0 1 .434.708 4.3 4.3 0 0 1 .269 1.212 10.315 10.315 0 0 0 .1 1.1 3.6 3.6 0 0 0 .814 1.6 10.283 10.283 0 0 0 1.315 1.248 17.975 17.975 0 0 0 1.423 1.114c.233.16.474.309.7.485a2.192 2.192 0 0 1 .564.627 1.563 1.563 0 0 1 .158 1.113" fill="none"/>
        </clipPath>
        <linearGradient id="z" x1="412.221" y1="-47.424" x2="423.316" y2="-29.435" gradientTransform="matrix(1 0 0 -1 -250 49.638)" gradientUnits="userSpaceOnUse">
            <stop offset="0" stop-color="#3e2a06"/>
            <stop offset="1" stop-color="#ad780a"/>
        </linearGradient>
        <clipPath id="A">
            <path d="M179.96 88.322a4.113 4.113 0 0 1-.65 1.094 6.854 6.854 0 0 1-2.284 1.619 42.447 42.447 0 0 0-4.25 2.243 17.71 17.71 0 0 0-2.506 2.022 20.524 20.524 0 0 1-2.038 1.85 5.826 5.826 0 0 1-2.536 1.073 6.148 6.148 0 0 1-3.3-.5 3.839 3.839 0 0 1-1.837-1.438 4.451 4.451 0 0 1-.515-2.29 22.73 22.73 0 0 1 .5-4.17c.207-1.146.4-2.3.522-3.456a42.56 42.56 0 0 0 .074-6.348 5.189 5.189 0 0 1 .02-1.065 1.624 1.624 0 0 1 .444-.93 1.416 1.416 0 0 1 .91-.345 4.807 4.807 0 0 1 .977.1c.763.124 1.533.2 2.282.4.472.122.932.29 1.4.418a6.368 6.368 0 0 0 2.415.219 18.61 18.61 0 0 1 2.59-.407 3.867 3.867 0 0 1 1.058.185 2.213 2.213 0 0 1 .951.529 2.139 2.139 0 0 1 .434.708 4.271 4.271 0 0 1 .269 1.212c.032.366.028.737.1 1.1a3.587 3.587 0 0 0 .821 1.622 10.435 10.435 0 0 0 1.307 1.226 17.391 17.391 0 0 0 1.424 1.114c.232.157.473.3.694.476a2.1 2.1 0 0 1 .566.636 1.648 1.648 0 0 1 .158 1.113" fill="none"/>
        </clipPath>
        <linearGradient id="B" x1="318.025" y1="-29.161" x2="317.699" y2="-32.098" gradientTransform="matrix(1 0 0 -1 -150 49.638)" gradientUnits="userSpaceOnUse">
            <stop offset="0" stop-color="#f3cd0c"/>
            <stop offset="1" stop-color="#f3cd0c" stop-opacity="0"/>
        </linearGradient>
        <radialGradient id="e" cx="420.072" cy="-302.404" r="1.232" gradientTransform="matrix(4.129 1.106 1.161 -4.334 -1215.558 -1693.677)" gradientUnits="userSpaceOnUse">
            <stop offset="0" stop-color="#110800"/>
            <stop offset=".591" stop-color="#a65a00" stop-opacity=".8"/>
            <stop offset="1" stop-color="#ff921e" stop-opacity="0"/>
        </radialGradient>
        <radialGradient id="C" cx="428.707" cy="-333.103" r="1.232" gradientTransform="matrix(4.129 .8 1.161 -3.133 -1215.558 -1305.61)" xlink:href="#e"/>
        <clipPath id="D">
            <path d="M173.079 77.581a1.691 1.691 0 0 0-.459-.662 2.448 2.448 0 0 0-.688-.427 7.565 7.565 0 0 0-1.577-.391c-.5-.095-1-.21-1.506-.3a4.1 4.1 0 0 0-1.584-.029 2.706 2.706 0 0 0-1.217.65 3.488 3.488 0 0 0-.8 1.129 4.877 4.877 0 0 0-.382 2.4 2.9 2.9 0 0 0 .6 1.694 2.634 2.634 0 0 0 1.254.743 4.24 4.24 0 0 0 2.506-.036 6.591 6.591 0 0 0 3.307-2.487 3.646 3.646 0 0 0 .589-1.247 1.847 1.847 0 0 0-.041-1.042" fill="none"/>
        </clipPath>
        <radialGradient id="f" cx="112.219" cy="-1337.234" r="1.501" gradientTransform="matrix(1.137 .495 .229 -.526 350.018 -681.223)" gradientUnits="userSpaceOnUse">
            <stop offset="0" stop-color="#7c7c7c"/>
            <stop offset="1" stop-color="#7c7c7c" stop-opacity=".329"/>
        </radialGradient>
        <linearGradient id="E" x1="316.745" y1="-27.874" x2="317.437" y2="-27.845" gradientTransform="matrix(1 0 0 -1 -150 49.638)" xlink:href="#f"/>
        <clipPath id="F">
            <path d="M141.206 54.341q-.9 1.191-1.822 2.364-.981 1.249-1.981 2.481a14.986 14.986 0 0 0-2.181 3.215 24.616 24.616 0 0 0-.984 3.2 24.175 24.175 0 0 1-1.378 3.538c-.5 1.058-1.05 2.092-1.6 3.124a7.844 7.844 0 0 0-.948 2.358 4.845 4.845 0 0 0 .123 2 9.253 9.253 0 0 0 .747 1.87 18.389 18.389 0 0 0 5.594 6.444 19.645 19.645 0 0 0 3.37 1.967 5.171 5.171 0 0 0 2.024.568 2.478 2.478 0 0 0 1.032-.194 1.837 1.837 0 0 0 .8-.667 1.92 1.92 0 0 0 .269-1.247 2.993 2.993 0 0 0-.442-1.214 8.748 8.748 0 0 0-2.26-2.209q-2.715-2.1-5.234-4.44a6.793 6.793 0 0 1-1.276-1.45 5.428 5.428 0 0 1-.614-1.775 9.844 9.844 0 0 1 .337-5.107c.226-.637.524-1.244.812-1.855a22.889 22.889 0 0 1 1.627-3.108 38.044 38.044 0 0 0 2.573-3.525 11.755 11.755 0 0 0 1.006-3.539q.231-1.395.4-2.8" fill="none"/>
        </clipPath>
        <clipPath id="G">
            <path d="M131.865 76.587a2.092 2.092 0 0 1 1.177-.108 2.9 2.9 0 0 1 1.094.466 6.969 6.969 0 0 1 1.621 1.749c1.078 1.485 2.115 3 3.056 4.576.763 1.278 1.464 2.6 2.345 3.8.576.783 1.225 1.509 1.8 2.29a7.913 7.913 0 0 1 1.348 2.565 5.143 5.143 0 0 1-.376 3.681 4.864 4.864 0 0 1-1.793 1.925 4.632 4.632 0 0 1-2.542.662 12.462 12.462 0 0 1-4.012-1.281c-2.672-1.064-5.575-1.4-8.329-2.227-.847-.254-1.679-.556-2.531-.79a7.464 7.464 0 0 1-1.121-.358 1.94 1.94 0 0 1-.892-.743 1.688 1.688 0 0 1-.214-.873 2.742 2.742 0 0 1 .178-.889c.207-.571.541-1.088.766-1.651a6.92 6.92 0 0 0 .385-2.926c-.05-.99-.21-1.972-.278-2.961a5.1 5.1 0 0 1 .043-1.324 1.988 1.988 0 0 1 1.674-1.7 5.4 5.4 0 0 1 1.219-.078 11.621 11.621 0 0 0 1.224 0 2.812 2.812 0 0 0 1.169-.327 2.766 2.766 0 0 0 .841-.793 9.636 9.636 0 0 0 .6-1 6.286 6.286 0 0 1 .633-.975 2.4 2.4 0 0 1 .91-.708" fill="none"/>
        </clipPath>
        <linearGradient id="H" x1="207.447" y1="-32.331" x2="218.461" y2="-50.81" gradientTransform="matrix(1 0 0 -1 -80 49.638)" gradientUnits="userSpaceOnUse">
            <stop offset="0" stop-color="#b98309"/>
            <stop offset="1" stop-color="#382605"/>
        </linearGradient>
        <linearGradient id="I" x1="220.185" y1="-38.189" x2="223.652" y2="-44.715" gradientTransform="matrix(1 0 0 -1 -80.53 47.87)" gradientUnits="userSpaceOnUse">
            <stop offset="0" stop-color="#ebc40c"/>
            <stop offset="1" stop-color="#ebc40c" stop-opacity="0"/>
        </linearGradient>
    </defs>
    <path d="M126.865 68.426a19.776 19.776 0 0 0-4.414-1.017c-5.932 0-11.864.195-17.8.319-3.269.124-22.371 1.078-28.589 1.428-3.378.245-14.1 1.111-16.007 1.292l-5.448.472-5.787.631-5.448.676-5.807.87c-1.313.212-4.234.688-4.234.688l-7.32 1.48c-3.621.8-5.94 2.683-6 5.27A23.885 23.885 0 0 0 21.69 90.8c1.368 3.14 4.771.8 4.771.8s3.936-2.4 6.987-3.8 13.8-4.286 15.716-4.779l5.475-1.262 5.76-1.142 5.355-1L76.4 77.889l18.764-2.531.05-.008 9.458-1.438c5.984-.872 11.982-1.659 17.941-2.675 1.506-.256 2.886-1.245 4.325-1.9z" fill="url(#g)"/>
    <path d="M64.792 42.323v2.747c1.761-.659 3.407-1.409 5.127-1.893 4.533-1.276 7.368.875 7.405 5.542.027 3.345.006 6.69.006 10.035 0 2.664 0 2.664 2.8 2.849v1.716h-9.916v-1.868c1.921.3 2.305-.685 2.231-2.361-.122-2.772-.02-5.554-.037-8.332-.02-3.367-1.669-4.761-4.943-4.21-2.652.445-2.652.445-2.652 3.094V59c0 2.335 0 2.335 2.3 2.574v1.676H57.11v-1.566c2.588-.309 2.589-.309 2.589-2.964V46.583l-2.6-.135c-.542-1.263-.095-1.886 1.145-2.215 2.083-.555 4.147-1.205 6.548-1.91z" fill="#060606"/>
    <path d="M84.264 46.42h-2.57c-.534-1.238-.07-1.813 1.075-2.131 2.095-.581 4.17-1.235 6.479-1.926.077.877.146 1.3.147 1.728.008 3.91-.014 7.82.01 11.73.025 4 3.562 5.979 7.019 3.913a1.3 1.3 0 0 0 .433-.974c.029-4.016.019-8.032.019-12.186l-2.548-.121c-.51-1.208-.061-1.8 1.079-2.134 2.082-.61 4.144-1.29 6.582-2.056v16.614c0 2.5 0 2.5 2.6 2.681l.1 1.831h-7.745l-.117-1.941c-1.626.659-3.183 1.445-4.829 1.93-4.512 1.328-7.686-1.052-7.728-5.722-.033-3.676-.006-7.356-.006-11.236zM21.788 63.158v-1.525c.132-.108.217-.237.3-.238 3.354-.018 2.905-.27 2.909-3.078q.014-9.1 0-18.2c0-2.289 0-2.288-2.329-2.387-.271-.011-.541-.043-.889-.072v-1.997h11.789v1.913c-2.97.309-2.97.309-2.97 3.4v20.173c2.5 0 4.812.06 7.12-.054.422-.02 1.048-.681 1.17-1.152.366-1.419.531-2.89.793-4.454h2.863v7.671z" fill="#050505"/>
    <path d="M106.04 44.7v-1.52h9.767v1.6l-1.777.631 3.52 5.2 3.517-5.124-1.978-.6V43.24h7.468l.087 1.7c-2.723.024-3.584 2.231-4.86 3.9-2.738 3.58-2.712 3.6-.165 7.249.844 1.209 1.718 2.4 2.512 3.638.737 1.15 1.508 2.169 3.173 1.821v1.712h-9.486c-.19-1.131-.19-1.131 1.569-2.168-1.2-1.816-2.4-3.625-3.716-5.613l-3.937 5.711 2.072.491v1.528h-7.789l-.1-1.341a3.5 3.5 0 0 1 .323-.261 11.774 11.774 0 0 0 2.886-1.776c1.689-1.9 3.153-4 4.828-6.179-1.8-2.622-3.555-5.313-5.485-7.87-.43-.573-1.482-.682-2.429-1.082z" fill="#060606"/>
    <path d="M47.116 46.6h-2.675v-1.807l7.818-2.51V58.93c0 2.608 0 2.608 2.7 2.743l.156 1.542h-10.66v-1.544c2.661-.268 2.661-.268 2.661-3.064z" fill="#050505"/>
    <path d="M52.976 36.551a3.081 3.081 0 0 1-3.057 3.154 3.2 3.2 0 0 1-3.071-3.018 3.082 3.082 0 0 1 3.1-3.107 2.978 2.978 0 0 1 3.028 2.971z" fill="#060606"/>
    <g>
        <path d="M164.85 53.677c.751 1.636 1.59 3.231 2.335 4.87a35.2 35.2 0 0 1 2.977 9.92 23.387 23.387 0 0 1-.82 10.276A24.046 24.046 0 0 1 163 88.477c-3.339 3.2-7.624 5.672-12.247 5.854a17.372 17.372 0 0 1-8.679-2.147 19.754 19.754 0 0 1-5.921-4.689 16 16 0 0 1-3.406-6.713 16.653 16.653 0 0 1 .667-9.21c.749-2.1 1.858-4.059 2.647-6.145.863-2.28 1.345-4.714 2.489-6.868 1.036-1.951 2.59-3.619 3.416-5.669a28.459 28.459 0 0 0 1.025-3.821 8.408 8.408 0 0 1 1.632-3.566 6.526 6.526 0 0 1 4.2-2.032 14.136 14.136 0 0 1 4.73.417 32.478 32.478 0 0 1 3.647 1.056 11.7 11.7 0 0 1 2.908 1.411 10.192 10.192 0 0 1 2.842 3.336c.728 1.28 1.285 2.648 1.9 3.986" fill="#020204"/>
        <path d="M151.584 94.359c1.27.074 2.536.2 3.794.387 1.105.167 2.2.386 3.29.649a25.137 25.137 0 0 0 5.149.989 5.615 5.615 0 0 0 1.376-.108 3.065 3.065 0 0 0 1.247-.57 2.924 2.924 0 0 0 1-1.751 4.348 4.348 0 0 0-.149-2.037 16.922 16.922 0 0 0-1.947-3.622c-.4-.676-.762-1.38-1.2-2.035a5.759 5.759 0 0 0-1.619-1.7 4.911 4.911 0 0 0-3.135-.675 8.656 8.656 0 0 0-3.09 1 7.857 7.857 0 0 0-3.372 3c-.257.465-.444.965-.663 1.45a4.6 4.6 0 0 1-.844 1.342c-.413.425-.949.712-1.376 1.122a2.09 2.09 0 0 0-.51.72 1.238 1.238 0 0 0-.037.868 1.176 1.176 0 0 0 .349.492 1.639 1.639 0 0 0 .529.3 4.331 4.331 0 0 0 1.2.178" fill="#020204"/>
        <path d="M147.812 94.278a17.462 17.462 0 0 0-3.141.428q-1.485.306-2.954.689a21.746 21.746 0 0 1-5.01.989 5.464 5.464 0 0 1-1.339-.116 3.045 3.045 0 0 1-1.213-.562 2.926 2.926 0 0 1-1-1.747 4.359 4.359 0 0 1 .147-2.034 17.51 17.51 0 0 1 1.919-3.629c.39-.675.735-1.377 1.158-2.032a5.614 5.614 0 0 1 1.583-1.7 4.733 4.733 0 0 1 3.052-.678 7.971 7.971 0 0 1 3 1 8.414 8.414 0 0 1 3.281 3 30.967 30.967 0 0 0 1.466 2.792 14.384 14.384 0 0 1 1.039 1.344 1.974 1.974 0 0 1 .266.8 1.259 1.259 0 0 1-.194.811 1.238 1.238 0 0 1-.414.374 1.813 1.813 0 0 1-.526.191 6.154 6.154 0 0 1-1.12.074M141.9 50.231c-.148-1.789-.113-3.587-.179-5.38-.065-1.725-.223-3.448-.165-5.173a12.4 12.4 0 0 1 1.134-5.107 8.626 8.626 0 0 1 3.6-3.743 9.87 9.87 0 0 1 4.784-1.1 11.008 11.008 0 0 1 6.308 2.018 11.228 11.228 0 0 1 2.851 3.073 11.922 11.922 0 0 1 1.46 3.274c.644 2.375.491 4.88.617 7.337a66.623 66.623 0 0 1 .365 6.981 3.763 3.763 0 0 1-.308 1.476 2.533 2.533 0 0 1-1.021 1.043 4.066 4.066 0 0 1-1.4.459c-.976.151-1.973.051-2.956.142-1.426.133-2.786.662-4.2.88a26.526 26.526 0 0 1-5.111.008c-.683-.027-1.368-.036-2.046-.121a5.64 5.64 0 0 1-1.958-.57 3.5 3.5 0 0 1-.991-.773 2.73 2.73 0 0 1-.595-1.1 7.407 7.407 0 0 1-.073-1.89c0-.578-.065-1.154-.113-1.73" fill="#020204"/>
        <path d="M144.585 49.542a2.74 2.74 0 0 0-.493 1.041 5.571 5.571 0 0 0-.145 1.151 10.153 10.153 0 0 1-.187 2.308 7.09 7.09 0 0 1-1.19 2.164 13.124 13.124 0 0 0-2.083 3.739 6.638 6.638 0 0 0-.242 2.576 27.28 27.28 0 0 0-2.405 4.334 23.709 23.709 0 0 0-1.951 7.232 18.473 18.473 0 0 0 1.3 9.022 14.8 14.8 0 0 0 3.851 5.364 13.162 13.162 0 0 0 2.812 1.868 12.606 12.606 0 0 0 11.3-.111 21.947 21.947 0 0 0 4.795-3.789 16.736 16.736 0 0 0 2.438-2.763 15.5 15.5 0 0 0 2.032-6.746c.492-4.115.508-8.462-1.3-12.193a13.446 13.446 0 0 0-2.441-3.493 19.142 19.142 0 0 0-1.545-5.2c-.547-1.19-1.215-2.322-1.723-3.528-.209-.5-.39-1-.622-1.488a4.47 4.47 0 0 0-.905-1.324 3.736 3.736 0 0 0-1.416-.822 6.157 6.157 0 0 0-1.623-.279c-1.1-.055-2.2.089-3.3.045-.876-.035-1.748-.188-2.623-.137a4.031 4.031 0 0 0-1.281.269 2.586 2.586 0 0 0-1.054.762" fill="#fdfdfb"/>
        <path d="M144.046 53.646a6.535 6.535 0 0 0 2.12 2.872 4.7 4.7 0 0 0 1.007.65 2.387 2.387 0 0 0 1.168.224 2.742 2.742 0 0 0 1.1-.38c.342-.193.659-.426.991-.636.568-.36 1.177-.651 1.767-.974a10.169 10.169 0 0 0 2-1.375 9.1 9.1 0 0 1 .833-.738 1.633 1.633 0 0 1 1.035-.345 5.763 5.763 0 0 1 .811.2 1.16 1.16 0 0 0 .415.023.6.6 0 0 0 .532-.65 1.152 1.152 0 0 0-.145-.487 6.244 6.244 0 0 1-.508-.885 2.652 2.652 0 0 1-.068-.9 1.8 1.8 0 0 0-.138-.89 1.154 1.154 0 0 0-.489-.477 1.785 1.785 0 0 0-.664-.185 9.3 9.3 0 0 0-1.383.072c-.613.035-1.228-.042-1.841 0-.764.046-1.513.268-2.278.269a17 17 0 0 0-2.61-.147 6.741 6.741 0 0 0-1.079.312 3.349 3.349 0 0 1-1.1.217c-.426-.006-.838-.153-1.262-.183a1.486 1.486 0 0 0-.629.074.879.879 0 0 0-.478.4.86.86 0 0 0-.089.352 1.3 1.3 0 0 0 .041.362 5.646 5.646 0 0 0 .256.685c.322.82.391 1.719.678 2.551" opacity=".259"/>
        <path d="M142.95 50.4a8.844 8.844 0 0 1 2.024 1.712 8.735 8.735 0 0 0 1.684 1.761 3.7 3.7 0 0 0 1.683.556 5.963 5.963 0 0 0 2.1-.223 7.756 7.756 0 0 0 1.8-.727 18.972 18.972 0 0 1 3.117-1.883c.256-.086.522-.148.768-.255a1.171 1.171 0 0 0 .595-.493 2.217 2.217 0 0 0 .146-.706c.039-.256.128-.5.176-.756a1.175 1.175 0 0 0-.065-.759 1.025 1.025 0 0 0-.484-.443 1.781 1.781 0 0 0-.67-.152 10.9 10.9 0 0 0-1.382.127c-.612.052-1.227-.021-1.841 0-.763.021-1.516.181-2.278.214-.871.038-1.739-.089-2.61-.117a5.894 5.894 0 0 0-1.127.053 2.9 2.9 0 0 0-1.049.367 9.618 9.618 0 0 0-.833.657 2.335 2.335 0 0 1-.45.286 1.417 1.417 0 0 1-.524.137 2.648 2.648 0 0 0-.282.01.608.608 0 0 0-.392.223.518.518 0 0 0-.1.415" opacity=".3" style="isolation:isolate"/>
        <path d="M144.938 39.977a1.787 1.787 0 0 0-1.1.493 2.5 2.5 0 0 0-.643 1.039 6.308 6.308 0 0 0-.143 2.448 7.242 7.242 0 0 0 .387 2.193 2.872 2.872 0 0 0 .6.937 2.036 2.036 0 0 0 .95.562 1.917 1.917 0 0 0 1.035-.037 2.239 2.239 0 0 0 .887-.54 2.981 2.981 0 0 0 .751-1.313 5.171 5.171 0 0 0 .173-1.513 6.293 6.293 0 0 0-.292-1.884 4.227 4.227 0 0 0-.963-1.635 2.718 2.718 0 0 0-.738-.554 1.822 1.822 0 0 0-.9-.2" fill="url(#a)"/>
        <path d="M152.211 39.977a3.769 3.769 0 0 0-1.443 1.788 4.392 4.392 0 0 0 .116 2.884 4.778 4.778 0 0 0 1.7 2.426 3.115 3.115 0 0 0 1.391.54 2.539 2.539 0 0 0 1.463-.254 2.818 2.818 0 0 0 1.214-1.334 4.861 4.861 0 0 0 .4-1.781 6.01 6.01 0 0 0-.288-2.308 3.876 3.876 0 0 0-1.494-2 2.915 2.915 0 0 0-1.179-.446 2.51 2.51 0 0 0-1.25.139 3.1 3.1 0 0 0-.634.346" fill="url(#h)"/>
        <path d="M144.8 46.621q-.618.51-1.185 1.081a1.926 1.926 0 0 0-.511.715 4.8 4.8 0 0 0-.108.78 1.712 1.712 0 0 0-.035.267.4.4 0 0 0 .018.133.3.3 0 0 0 .065.117.372.372 0 0 0 .2.1c.073.015.149.016.223.024a2.072 2.072 0 0 1 .924.391c.278.192.534.416.82.6a4.262 4.262 0 0 0 2.128.606 9.52 9.52 0 0 0 2.223-.231 10.035 10.035 0 0 0 1.713-.472 10.252 10.252 0 0 0 2.335-1.39 9.592 9.592 0 0 0 .954-.788c.1-.1.2-.2.306-.287a1.1 1.1 0 0 1 .361-.209 1.344 1.344 0 0 1 .634-.012 2.355 2.355 0 0 0 .479.056.7.7 0 0 0 .235-.047.49.49 0 0 0 .195-.138.466.466 0 0 0 .1-.294.592.592 0 0 0-.085-.3 1.026 1.026 0 0 0-.486-.391 4.759 4.759 0 0 0-.832-.244 11.957 11.957 0 0 1-2.5-.912c-.4-.2-.781-.415-1.171-.623a6.867 6.867 0 0 0-1.243-.553 4.889 4.889 0 0 0-2.995.135 6.4 6.4 0 0 0-2.761 1.89" opacity=".3" style="isolation:isolate"/>
        <path d="M146.869 45.4c.408-.458.687-1.017 1.078-1.49a2.562 2.562 0 0 1 .689-.6 1.519 1.519 0 0 1 .88-.214 1.551 1.551 0 0 1 .908.432 2.77 2.77 0 0 1 .581.837 4.329 4.329 0 0 0 .457.865 4.416 4.416 0 0 0 .8.675 2.149 2.149 0 0 1 .378.36 1.109 1.109 0 0 1 .229.465.971.971 0 0 1-.043.523 1.17 1.17 0 0 1-.29.44 1.725 1.725 0 0 1-.954.428 18.864 18.864 0 0 1-2.12-.091c-.717.02-1.417.273-2.134.247a1.9 1.9 0 0 1-1.016-.3 1.282 1.282 0 0 1-.368-.387 1.053 1.053 0 0 1-.155-.509 1.158 1.158 0 0 1 .1-.5 1.86 1.86 0 0 1 .273-.433c.217-.265.482-.486.709-.742" fill="url(#i)"/>
        <path d="M154.863 32.705c-.592.417-.333.939-.079 1.462s-.56 2.031-.568 2.1a7 7 0 0 0 2.041-1.3c.518-.637 1.828.861 1.757.633 0-.415-2.56-3.312-3.151-2.895z" fill="#7c7c7c"/>
        <path d="M153.69 41.914a1.483 1.483 0 0 0-.681.228 1.792 1.792 0 0 0-.516.5 2.607 2.607 0 0 0-.414 1.371 2.908 2.908 0 0 0 .146 1.073 2.012 2.012 0 0 0 .6.891 1.74 1.74 0 0 0 1.021.4 1.716 1.716 0 0 0 1.053-.3 1.9 1.9 0 0 0 .578-.663 2.492 2.492 0 0 0 .262-.844 2.6 2.6 0 0 0-.249-1.524 2.132 2.132 0 0 0-1.136-1.028 1.6 1.6 0 0 0-.667-.1" fill="#020204"/>
        <path d="M154.266 43.5c-.2.079-.516.029-.6.225a.3.3 0 0 0 .139.356.613.613 0 0 0 .7-.318.268.268 0 0 0-.125-.311c-.038-.016-.076.033-.114.048z" fill="#141413"/>
        <path d="M155.182 44.015c.268-.268-.191-.978-.548-1.269-.259-.211-1.014-.431-.981-.2s.371.523.6.747c.278.274.801.849.929.722z" fill="url(#j)"/>
        <g clip-path="url(#k)">
            <path d="M149.788 42.313a5.466 5.466 0 0 1 1.874-1.015 5.169 5.169 0 0 1 4.241.525 14.917 14.917 0 0 1 1.209.924 4.64 4.64 0 0 0 1.3.778 1.876 1.876 0 0 0 .808.115 1.5 1.5 0 0 0 .688-.258 1.757 1.757 0 0 0 .5-.54 2.367 2.367 0 0 0 .295-1.431 7.458 7.458 0 0 0-1.112-2.732 8.262 8.262 0 0 0-.462-.808 4.48 4.48 0 0 0-2.3-1.6 14.4 14.4 0 0 0-2.8-.531 5.2 5.2 0 0 0-1.269-.058 11.163 11.163 0 0 0-1.414.375c-.224.057-.453.1-.675.162a1.8 1.8 0 0 0-.623.3 1.506 1.506 0 0 0-.5.86 2.76 2.76 0 0 0 0 1.009 10.555 10.555 0 0 1 .332 2c-.016.464-.162.92-.144 1.384a1.968 1.968 0 0 0 .058.4" fill="url(#l)"/>
        </g>
        <path d="M154.439 38.076a2.382 2.382 0 0 0-.289.454 4.077 4.077 0 0 1 1.392.592 5.6 5.6 0 0 1 1.875 2.221 2.33 2.33 0 0 0 .274-.368 5.654 5.654 0 0 0-1.918-2.315 4.108 4.108 0 0 0-1.334-.584z" fill="url(#b)"/>
        <path d="M144.892 38.527c-.056 0-.11 0-.166.007-.036 0-.073 0-.108.006a3 3 0 0 1 .944.25 3.913 3.913 0 0 1 1.067.729 5.441 5.441 0 0 1 1.3 1.917 4.758 4.758 0 0 0-.476-1.536 4.788 4.788 0 0 0-.36-.381 3.928 3.928 0 0 0-1.067-.729 2.917 2.917 0 0 0-1.132-.263z" fill="url(#m)"/>
        <path d="M143.947 43.38a3.106 3.106 0 0 0 .089 1.556 2.6 2.6 0 0 0 .548.877 1.8 1.8 0 0 0 .534.416 1 1 0 0 0 .662.085.974.974 0 0 0 .513-.346 1.7 1.7 0 0 0 .281-.558 3.108 3.108 0 0 0-.029-1.829 2.384 2.384 0 0 0-.7-1.137 1.4 1.4 0 0 0-.566-.3.992.992 0 0 0-.632.051 1.09 1.09 0 0 0-.5.5 2.287 2.287 0 0 0-.206.683" fill="#020204"/>
        <path d="M145.043 43.005c.056.147.243.2.346.318a1.321 1.321 0 0 1 .26.375c.1.271-.1.673.115.865a.23.23 0 0 0 .274 0c.264-.241.206-.726.1-1.067a1.292 1.292 0 0 0-.618-.751c-.134-.069-.335-.125-.449-.028a.274.274 0 0 0-.028.288z" fill="url(#n)"/>
        <path d="M142.981 49.823a.63.63 0 0 0 .075.193.893.893 0 0 0 .248.257c.1.07.2.129.3.193a5.464 5.464 0 0 1 1.367 1.317 8.6 8.6 0 0 0 1.684 1.912 3.555 3.555 0 0 0 1.683.6 5.506 5.506 0 0 0 2.1-.243 7.4 7.4 0 0 0 1.8-.789 18.726 18.726 0 0 1 3.117-2.044c.256-.094.522-.161.768-.277a1.2 1.2 0 0 0 .595-.535 2.588 2.588 0 0 0 .146-.767c.039-.277.128-.545.176-.821a1.374 1.374 0 0 0-.07-.819 1.066 1.066 0 0 0-.484-.482 1.653 1.653 0 0 0-.67-.164 9.923 9.923 0 0 0-1.382.138c-.612.056-1.227-.023-1.841 0-.763.023-1.516.2-2.278.232-.871.042-1.739-.092-2.61-.127a5.4 5.4 0 0 0-1.129.052 2.623 2.623 0 0 0-1.047.4 10.01 10.01 0 0 0-.822.735 2.066 2.066 0 0 1-.454.311 1.169 1.169 0 0 1-.531.126.885.885 0 0 0-.282.011.4.4 0 0 0-.149.094.866.866 0 0 0-.11.138 2.39 2.39 0 0 0-.2.36" fill="url(#o)"/>
        <path d="M146.4 50.761a1.531 1.531 0 0 0 1 1.811 1.823 1.823 0 0 0 1.4-.145 1.524 1.524 0 0 0 .616-.55 1.036 1.036 0 0 0 .14-.392.874.874 0 0 0-.043-.412.9.9 0 0 0-.264-.368 1.2 1.2 0 0 0-.4-.218 2.5 2.5 0 0 0-.908-.083 8.876 8.876 0 0 0-1.378.174" fill="#d9b30d"/>
        <path d="M144.9 47.9c-.309.182-.607.383-.9.591a1.109 1.109 0 0 0-.388.391.936.936 0 0 0-.071.386 3.235 3.235 0 0 1-.011.394c-.011.089-.035.177-.039.267a.424.424 0 0 0 .013.133.276.276 0 0 0 .063.118.34.34 0 0 0 .15.085c.056.017.113.026.17.039a1.68 1.68 0 0 1 .714.416c.207.186.393.4.609.572a3.426 3.426 0 0 0 2.114.685 9.5 9.5 0 0 0 2.237-.311 13.477 13.477 0 0 0 1.713-.471 7.56 7.56 0 0 0 2.335-1.39 7.872 7.872 0 0 1 .954-.788c.309-.194.655-.323.97-.508a.641.641 0 0 0 .081-.055.223.223 0 0 0 .062-.075.219.219 0 0 0 .009-.165.425.425 0 0 0-.083-.146.975.975 0 0 0-.131-.134 2.084 2.084 0 0 0-1.206-.417c-.431-.035-.868-.01-1.294-.082a8.37 8.37 0 0 1-1.171-.341 8.694 8.694 0 0 0-1.243-.3 8.219 8.219 0 0 0-2.995.074A8.741 8.741 0 0 0 144.9 47.9" fill="#604405"/>
        <path d="M144.8 46.851a5.487 5.487 0 0 0-1.185 1.081 2.575 2.575 0 0 0-.468.788 5.847 5.847 0 0 0-.151.707 1.294 1.294 0 0 0-.039.268.435.435 0 0 0 .02.134.307.307 0 0 0 .067.116.376.376 0 0 0 .2.1c.074.015.149.018.223.026a2.071 2.071 0 0 1 .923.393c.279.191.535.414.821.595a4.285 4.285 0 0 0 2.129.6 9.511 9.511 0 0 0 2.222-.231 10.032 10.032 0 0 0 1.713-.471 10.252 10.252 0 0 0 2.335-1.39 9.732 9.732 0 0 0 .954-.788c.1-.1.2-.2.306-.287a1.121 1.121 0 0 1 .361-.21 1.358 1.358 0 0 1 .634-.011 2.427 2.427 0 0 0 .479.056.756.756 0 0 0 .235-.047.492.492 0 0 0 .195-.139.463.463 0 0 0 .1-.293.592.592 0 0 0-.085-.3 1.028 1.028 0 0 0-.486-.392 4.844 4.844 0 0 0-.832-.243 11.9 11.9 0 0 1-2.5-.913c-.4-.2-.781-.414-1.171-.623a6.863 6.863 0 0 0-1.243-.552 4.889 4.889 0 0 0-2.995.135 6.4 6.4 0 0 0-2.761 1.889" fill="url(#p)"/>
        <path d="M151.631 47.065a.407.407 0 0 0-.208-.136.556.556 0 0 0-.25-.012 1.178 1.178 0 0 0-.454.214 5.156 5.156 0 0 0-1.047.976 3.737 3.737 0 0 0-.846 1.678 1.069 1.069 0 0 0-.018.319.492.492 0 0 0 .129.287.439.439 0 0 0 .249.12.6.6 0 0 0 .277-.029 1.409 1.409 0 0 0 .465-.31 5.5 5.5 0 0 0 1.744-2.51 1.1 1.1 0 0 0 .051-.306.476.476 0 0 0-.092-.291" fill="#f6da4a"/>
        <path d="M149.788 45.637c.053.171.33.142.489.225.14.072.253.23.41.234s.384-.052.4-.2c.026-.2-.261-.322-.446-.394a.944.944 0 0 0-.766-.016c-.048.028-.104.095-.087.151z" opacity=".8" fill="url(#c)" style="isolation:isolate"/>
        <path d="M147.152 45.54c-.2-.067-.544.294-.433.479.03.051.123.116.186.081.094-.052.171-.237.274-.31.068-.049.053-.224-.027-.25z" opacity=".8" fill="url(#q)" style="isolation:isolate"/>
        <path d="M156.938 48.241a.86.86 0 0 1-.75.816c-.365 0-.619-.365-.568-.816a.86.86 0 0 1 .75-.815c.365 0 .619.365.568.815z" fill="url(#r)"/>
        <g clip-path="url(#s)">
            <path d="M144.052 41.63a3.454 3.454 0 0 1 2.092-.387 12.585 12.585 0 0 1 2.109.469 9.115 9.115 0 0 1 1.506.493 2.622 2.622 0 0 1 1.187 1.016c.042.074.079.15.124.222a.724.724 0 0 0 .165.192.367.367 0 0 0 .237.079.262.262 0 0 0 .121-.036.228.228 0 0 0 .087-.09.287.287 0 0 0 .027-.142.694.694 0 0 0-.027-.143 8.674 8.674 0 0 0-.9-1.754c-.187-.348-.34-.714-.53-1.061a6.755 6.755 0 0 0-2.931-2.734 10.065 10.065 0 0 0-3.922-.978 20.259 20.259 0 0 0-4.691.367 6.062 6.062 0 0 0-1.946.591 2.635 2.635 0 0 0-.782.649 1.937 1.937 0 0 0-.413.922 1.988 1.988 0 0 0 .116.968 2.976 2.976 0 0 0 .5.845 12.539 12.539 0 0 0 1.436 1.346 13.65 13.65 0 0 0 1.492 1.283 3.14 3.14 0 0 0 .887.42 2.1 2.1 0 0 0 .974.047 2.274 2.274 0 0 0 .912-.439 4.914 4.914 0 0 0 .727-.715 6.339 6.339 0 0 1 1.444-1.43" fill="url(#t)"/>
        </g>
        <path d="M165.906 63.764a7.39 7.39 0 0 1 2.571 4.616 11.182 11.182 0 0 1-.238 4.184 34.221 34.221 0 0 1-1.276 4.015 7.9 7.9 0 0 0-.46 1.614 2.67 2.67 0 0 0 .24 1.635 2.483 2.483 0 0 0 1.5 1.136 3.59 3.59 0 0 0 1.88.024 4.588 4.588 0 0 0 1.691-.842 6.749 6.749 0 0 0 2.338-4.11 13.564 13.564 0 0 0-.116-4.807 32.374 32.374 0 0 0-1.818-6.324 18.1 18.1 0 0 0-2.26-4.274c-.95-1.264-2.147-2.329-3.078-3.608a21.572 21.572 0 0 0-1.94-2.659 3.954 3.954 0 0 0-1.352-.922 2.576 2.576 0 0 0-1.616-.109 2.547 2.547 0 0 0-1.57 1.4 3.675 3.675 0 0 0-.238 2.127 7.578 7.578 0 0 0 1.049 2.582 9.284 9.284 0 0 0 1.969 2.458c.847.7 1.87 1.17 2.728 1.86" fill="#020204"/>
        <g clip-path="url(#u)">
            <path d="M162.6 61.588c.114.108.23.218.352.317.862.7 1.32 1.5 2.194 2.187a8.744 8.744 0 0 1 3.16 4.86 8.977 8.977 0 0 1-.424 3.781 58.1 58.1 0 0 1-1.9 5.537c-.216.629.437.37.351 1.033a4.042 4.042 0 0 0-.008.983c.005-.062.009-.127.016-.19a12.069 12.069 0 0 1 .684-2.629c.581-1.643 1.248-3.254 1.708-4.94a9.254 9.254 0 0 0 .169-4.348 7.313 7.313 0 0 0-2.863-4.615c-1.062-.785-2.314-1.289-3.443-1.976z" fill="#838384"/>
        </g>
        <path d="M140.712 60.567c.234.351-.146 1.564 5.317.788a18.667 18.667 0 0 0-1.905.324 13.591 13.591 0 0 0-3.74 1.771c-.979.72-1.7 1.661-2.594 2.468 0 0 1.455-2.658 1.817-3.458s-.06-.764.226-1.941a9.224 9.224 0 0 1 .99-2.31s-.574 1.664-.111 2.358z" opacity=".25" fill="url(#d)" style="isolation:isolate"/>
        <path d="M158.279 60.25c-1.113.775-1.765.683-3.116.835s-5.007.1-5.007.1a9.624 9.624 0 0 1 1.7.209 32.458 32.458 0 0 1 4.913.94 12.719 12.719 0 0 1 2.658 1.177c1.165.737 2.021 1.891 3.135 2.7a3.984 3.984 0 0 0-.4-1.872c-.45-.8-1.659-2.062-2.015-3.24a21.939 21.939 0 0 1-.525-3.491 4.318 4.318 0 0 1-1.349 2.646z" opacity=".42" fill="url(#v)" style="isolation:isolate"/>
        <path d="M147.808 58.593a13.79 13.79 0 0 1-.161 1 2.8 2.8 0 0 1-.129.483 1.089 1.089 0 0 1-.273.414 1.447 1.447 0 0 1-.373.226 5.624 5.624 0 0 1-1.641.466c.226.017.452.037.678.062a3.144 3.144 0 0 1 .422.068 1.122 1.122 0 0 1 .389.175 1.054 1.054 0 0 1 .3.356 2.329 2.329 0 0 1 .224.9 7.347 7.347 0 0 1 .008 1.2 3.686 3.686 0 0 1 .166-.784 3.411 3.411 0 0 1 .72-1.243 2.629 2.629 0 0 1 .429-.38 2.373 2.373 0 0 1 1.67-.407 2.594 2.594 0 0 1-1.661-.515 2.169 2.169 0 0 1-.595-.67 1.874 1.874 0 0 1-.173-1.353" opacity=".2" fill="url(#w)" style="isolation:isolate"/>
        <path d="M146.384 66.448a20.449 20.449 0 0 0-.583 3.3c-.147 1.571-.111 3.155-.2 4.731a17.737 17.737 0 0 0 0 4.009 6.913 6.913 0 0 0 .599 1.812 6.2 6.2 0 0 0 .1-.663 21.8 21.8 0 0 0-.143-3.216 50.2 50.2 0 0 1 .26-5.639 34.437 34.437 0 0 0-.029-4.334" opacity=".11" style="isolation:isolate"/>
        <path d="M159.35 50.245c-.5.455.233 1.137.581 1.94.216.5.814 1.2 1.392 1.088.435-.085.7-.71.664-1.152-.08-.851-.8-1.05-1.32-1.343-.413-.231-.967-.852-1.317-.533z" fill="#838384"/>
        <path d="M175.356 87.458a3.792 3.792 0 0 1-.485 1.018 7.037 7.037 0 0 1-1.831 1.7c-1.161.823-2.37 1.578-3.451 2.513a17.341 17.341 0 0 0-2 2.068 20 20 0 0 1-1.611 1.86 5.644 5.644 0 0 1-2.074 1.276 5.026 5.026 0 0 1-2.8.059 2.9 2.9 0 0 1-1.626-.945 3.4 3.4 0 0 1-.561-1.858 20.92 20.92 0 0 1 .19-3.594c.107-1 .206-2 .246-2.993a30.086 30.086 0 0 0-.291-5.371 4 4 0 0 1-.061-.9 1.447 1.447 0 0 1 .34-.855 1.432 1.432 0 0 1 .747-.408 4.2 4.2 0 0 1 .827-.075 17 17 0 0 1 1.942 0c.4.036.8.109 1.2.148a5.406 5.406 0 0 0 2.045-.167 16.836 16.836 0 0 1 2.156-.721 3.119 3.119 0 0 1 .9 0 1.694 1.694 0 0 1 .83.308 1.519 1.519 0 0 1 .4.535 3.382 3.382 0 0 1 .295.983 8.548 8.548 0 0 0 .141.913 2.677 2.677 0 0 0 .774 1.232 7.5 7.5 0 0 0 1.176.862 13.492 13.492 0 0 0 1.259.733c.206.1.417.192.613.308a1.584 1.584 0 0 1 .51.446 1.264 1.264 0 0 1 .194.917" opacity=".2" fill="url(#x)" style="isolation:isolate"/>
        <g clip-path="url(#y)">
            <path d="M179.96 88.322a3.921 3.921 0 0 1-.65 1.094 7.085 7.085 0 0 1-2.284 1.619 45.041 45.041 0 0 0-4.25 2.243 17.347 17.347 0 0 0-2.506 2.022 20.25 20.25 0 0 1-2.038 1.85 5.874 5.874 0 0 1-2.536 1.073 6.083 6.083 0 0 1-3.3-.5 3.958 3.958 0 0 1-1.837-1.438 4.311 4.311 0 0 1-.515-2.29 23.866 23.866 0 0 1 .5-4.17c.2-1.147.4-2.3.522-3.456a35.607 35.607 0 0 0 .074-6.348 4.783 4.783 0 0 1 0-1.063 1.349 1.349 0 0 1 1.375-1.258 4.8 4.8 0 0 1 .978.081 20.38 20.38 0 0 1 2.282.4c.472.124.931.29 1.4.418a6.425 6.425 0 0 0 2.415.219 18.888 18.888 0 0 1 2.59-.407 3.854 3.854 0 0 1 1.058.185 2.261 2.261 0 0 1 .951.529 2.083 2.083 0 0 1 .434.708 4.3 4.3 0 0 1 .269 1.212 10.315 10.315 0 0 0 .1 1.1 3.6 3.6 0 0 0 .814 1.6 10.283 10.283 0 0 0 1.315 1.248 17.975 17.975 0 0 0 1.423 1.114c.233.16.474.309.7.485a2.192 2.192 0 0 1 .564.627 1.563 1.563 0 0 1 .158 1.113" fill="url(#z)"/>
        </g>
        <g clip-path="url(#y)">
            <path d="M179.241 87.6a3.532 3.532 0 0 1-.593.983 6.435 6.435 0 0 1-2.086 1.456 40.85 40.85 0 0 0-3.881 2.016 15.934 15.934 0 0 0-2.289 1.814 18.42 18.42 0 0 1-1.861 1.663 5.407 5.407 0 0 1-2.316.965 5.641 5.641 0 0 1-3.013-.449 3.577 3.577 0 0 1-1.678-1.293 3.854 3.854 0 0 1-.471-2.058 20.933 20.933 0 0 1 .459-3.75c.186-1.031.364-2.064.476-3.106a32.578 32.578 0 0 0 .068-5.708 4.3 4.3 0 0 1 0-.955 1.224 1.224 0 0 1 1.251-1.135 4.562 4.562 0 0 1 .894.076 19.8 19.8 0 0 1 2.084.357c.43.111.85.261 1.279.375a5.941 5.941 0 0 0 2.206.2 17.15 17.15 0 0 1 2.365-.366 3.579 3.579 0 0 1 .967.166 2.033 2.033 0 0 1 .868.476 1.968 1.968 0 0 1 .4.636 3 3 0 0 1 .246 1.089 10.191 10.191 0 0 0-.024 1.171 2.228 2.228 0 0 0 .346.879 6.923 6.923 0 0 0 .582.752 7.558 7.558 0 0 0 1.291 1.305c.565.409 1.237.649 1.821 1.031a1.732 1.732 0 0 1 .466.411 1.1 1.1 0 0 1 .144 1" fill="#cd8907"/>
        </g>
        <g clip-path="url(#A)">
            <path d="M179.16 87.192a4.3 4.3 0 0 1-.61.993 5.054 5.054 0 0 1-2.143 1.471c-1.329.5-2.781.57-4.086 1.142a14.023 14.023 0 0 0-2.236 1.37 11.278 11.278 0 0 1-1.829 1.068 9.391 9.391 0 0 1-2.275.62 7.034 7.034 0 0 1-1.49.11 3.222 3.222 0 0 1-1.438-.4 2.009 2.009 0 0 1-.811-.83 2.92 2.92 0 0 1-.228-1.322c.012-1.207.271-2.4.263-3.609-.007-1.051-.215-2.088-.275-3.137-.115-2.018.318-4.07-.063-6.049a4.794 4.794 0 0 1-.139-.957 1.379 1.379 0 0 1 .083-.474.864.864 0 0 1 .27-.38.793.793 0 0 1 .349-.15 1.142 1.142 0 0 1 .378 0 5.793 5.793 0 0 1 .732.209c.7.208 1.433.2 2.141.36.444.1.875.259 1.314.379a5.973 5.973 0 0 0 2.266.2 17.491 17.491 0 0 1 2.43-.37 3.818 3.818 0 0 1 .993.168 2.034 2.034 0 0 1 .893.481 2.106 2.106 0 0 1 .407.643 2.726 2.726 0 0 1 .252 1.1c0 .2-.031.395-.049.592a1.8 1.8 0 0 0 .024.591 1.553 1.553 0 0 0 .259.523c.113.158.241.3.358.456a9.924 9.924 0 0 1 .817 1.419 4.43 4.43 0 0 0 .945 1.314 13.067 13.067 0 0 0 1.871 1.041 1.6 1.6 0 0 1 .479.415 1.128 1.128 0 0 1 .194.485 1.17 1.17 0 0 1-.046.526" fill="#f5c021"/>
        </g>
        <path d="M161.8 78.809c.756-.2 1.4.369 1.949.8a2.012 2.012 0 0 0 1.3.24c.72-.026 1.437.121 2.157.031 1.418-.119 2.808-.468 4.233-.528a3.224 3.224 0 0 1 2.032.315c.238.165.588.863.823.6a1.99 1.99 0 0 0-1.37-1.639c-.572-.09-1.152.067-1.729.017-1.713-.041-3.413-.359-5.13-.268-1.195.01-2.388-.045-3.58-.092-.469-.095-.634.321-.889.481" fill="url(#B)"/>
        <path d="M165.19 64.866c.274-.043 1.965 1.395 1.734 1.93s-.666.212-.977.215-1.16.39-1.3.146.376-.812.647-1.287c.219-.383-.375-.962-.1-1z" fill="#7c7c7c" opacity=".75" style="isolation:isolate"/>
        <path d="M141.325 55.816c-.028-.331-.5-.381-.712-.216-.178.14-.345.616-.191.8.25.305.94-.13.903-.584z" fill="#7c7c7c" opacity=".25" style="isolation:isolate"/>
        <path d="M171.994 79.961a1.226 1.226 0 0 0-.63-.554 2.117 2.117 0 0 0-.839-.143c-.571 0-1.138.153-1.707.1a9.412 9.412 0 0 1-1.405-.336 2.974 2.974 0 0 0-1.478-.028 2.173 2.173 0 0 0-1.251.934 2.929 2.929 0 0 0-.406 1.333 7.872 7.872 0 0 0 .05 1.406 7.39 7.39 0 0 0 .154 1 2.67 2.67 0 0 0 .408.927 2.5 2.5 0 0 0 1.17.848 3.251 3.251 0 0 0 2.338-.041 6.447 6.447 0 0 0 3.084-2.838 6 6 0 0 0 .55-1.423 2.643 2.643 0 0 0 .088-.6 1.28 1.28 0 0 0-.126-.588" opacity=".35" fill="url(#e)" style="isolation:isolate"/>
        <path d="M171.994 79.694a1.19 1.19 0 0 0-.63-.4 2.878 2.878 0 0 0-.839-.1c-.571 0-1.138.111-1.707.075a12.459 12.459 0 0 1-1.405-.243 4.1 4.1 0 0 0-1.478-.026 2.245 2.245 0 0 0-1.251.675 1.727 1.727 0 0 0-.406.964 4.124 4.124 0 0 0 .05 1.016 3.989 3.989 0 0 0 .154.727 1.728 1.728 0 0 0 .408.67 2.626 2.626 0 0 0 1.17.613 4.427 4.427 0 0 0 2.338-.03 6.115 6.115 0 0 0 3.084-2.051 3.733 3.733 0 0 0 .55-1.029 1.427 1.427 0 0 0 .088-.433.719.719 0 0 0-.126-.426" opacity=".35" fill="url(#C)" style="isolation:isolate"/>
        <path d="M173.079 77.581a1.691 1.691 0 0 0-.459-.662 2.448 2.448 0 0 0-.688-.427 7.565 7.565 0 0 0-1.577-.391c-.5-.095-1-.21-1.506-.3a4.1 4.1 0 0 0-1.584-.029 2.706 2.706 0 0 0-1.217.65 3.488 3.488 0 0 0-.8 1.129 4.877 4.877 0 0 0-.382 2.4 2.9 2.9 0 0 0 .6 1.694 2.634 2.634 0 0 0 1.254.743 4.24 4.24 0 0 0 2.506-.036 6.591 6.591 0 0 0 3.307-2.487 3.646 3.646 0 0 0 .589-1.247 1.847 1.847 0 0 0-.041-1.042" fill="#020204"/>
        <g clip-path="url(#D)">
            <path d="M167.548 75.534a3.19 3.19 0 0 0-.375.043 2.824 2.824 0 0 0-2.329 3 2.568 2.568 0 0 1 .318-1.146 2.356 2.356 0 0 1 1.6-1.169 4.162 4.162 0 0 1 1.255.022c.4.05.8.1 1.2.188a4.706 4.706 0 0 1 1.723.692 1.653 1.653 0 0 1 .325.288.855.855 0 0 1 .195.382.915.915 0 0 1-.123.613 2.3 2.3 0 0 1-.4.5 8.533 8.533 0 0 1-.382.353 4.316 4.316 0 0 0 1.68-.62 1.669 1.669 0 0 0 .52-.541 1.028 1.028 0 0 0 .115-.735 1.079 1.079 0 0 0-.245-.447 2.141 2.141 0 0 0-.39-.332 4.615 4.615 0 0 0-2.091-.8c-.48-.089-.965-.163-1.449-.224a6.482 6.482 0 0 0-1.147-.065z" fill="url(#f)"/>
        </g>
        <g clip-path="url(#D)">
            <path d="M167.548 75.534a3.19 3.19 0 0 0-.375.043 2.824 2.824 0 0 0-2.329 3 2.568 2.568 0 0 1 .318-1.146 2.356 2.356 0 0 1 1.6-1.169 4.162 4.162 0 0 1 1.255.022c.4.05.8.1 1.2.188a4.706 4.706 0 0 1 1.723.692 1.653 1.653 0 0 1 .325.288.855.855 0 0 1 .195.382.915.915 0 0 1-.123.613 2.3 2.3 0 0 1-.4.5 8.533 8.533 0 0 1-.382.353 4.316 4.316 0 0 0 1.68-.62 1.669 1.669 0 0 0 .52-.541 1.028 1.028 0 0 0 .115-.735 1.079 1.079 0 0 0-.245-.447 2.141 2.141 0 0 0-.39-.332 4.615 4.615 0 0 0-2.091-.8c-.48-.089-.965-.163-1.449-.224a6.482 6.482 0 0 0-1.147-.065z" fill="url(#E)"/>
        </g>
        <path d="M141.307 54.3q-.963 1.2-1.923 2.407c-.659.828-1.317 1.658-1.981 2.481a15.146 15.146 0 0 0-2.181 3.215 24.31 24.31 0 0 0-.984 3.2 24.175 24.175 0 0 1-1.378 3.538c-.5 1.058-1.05 2.092-1.6 3.124a7.844 7.844 0 0 0-.948 2.358 4.845 4.845 0 0 0 .123 2 9.253 9.253 0 0 0 .747 1.87 18.389 18.389 0 0 0 5.594 6.444 19.645 19.645 0 0 0 3.37 1.967 5.171 5.171 0 0 0 2.024.568 2.478 2.478 0 0 0 1.032-.194 1.837 1.837 0 0 0 .8-.667 1.92 1.92 0 0 0 .269-1.247 2.993 2.993 0 0 0-.442-1.214 8.748 8.748 0 0 0-2.26-2.209q-2.715-2.1-5.234-4.44a6.793 6.793 0 0 1-1.276-1.45 5.428 5.428 0 0 1-.614-1.775 9.844 9.844 0 0 1 .337-5.107c.226-.637.524-1.244.812-1.855a22.777 22.777 0 0 1 1.627-3.108 36.6 36.6 0 0 0 2.573-3.525 12.443 12.443 0 0 0 1.006-3.541q.255-1.421.5-2.842" fill="#020204"/>
        <g clip-path="url(#F)">
            <path d="M137.577 63.492a7.6 7.6 0 0 0-1.374 1.689 22.922 22.922 0 0 0-1.426 3.3 8.128 8.128 0 0 0-.767 2.551c-.024.458.043.915.059 1.373a2.539 2.539 0 0 1-.252 1.335 1.615 1.615 0 0 1-.861.726 2.552 2.552 0 0 1 1.231.891c.257.346.422.751.645 1.12a3 3 0 0 0 .679.8 1.961 1.961 0 0 0 .95.418 1.677 1.677 0 0 0 1.331-.425 31.2 31.2 0 0 1 1.188-12.415 3.483 3.483 0 0 0 .178-.77 1.109 1.109 0 0 0-.19-.752.828.828 0 0 0-.33-.256.815.815 0 0 0-.414-.058.829.829 0 0 0-.387.154.815.815 0 0 0-.26.327" fill="#7c7c7c" opacity=".95" style="isolation:isolate"/>
        </g>
        <g clip-path="url(#G)">
            <path d="M131.865 76.587a2.092 2.092 0 0 1 1.177-.108 2.9 2.9 0 0 1 1.094.466 6.969 6.969 0 0 1 1.621 1.749c1.078 1.485 2.115 3 3.056 4.576.763 1.278 1.464 2.6 2.345 3.8.576.783 1.225 1.509 1.8 2.29a7.913 7.913 0 0 1 1.348 2.565 5.143 5.143 0 0 1-.376 3.681 4.864 4.864 0 0 1-1.793 1.925 4.632 4.632 0 0 1-2.542.662 12.462 12.462 0 0 1-4.012-1.281c-2.672-1.064-5.575-1.4-8.329-2.227-.847-.254-1.679-.556-2.531-.79a7.464 7.464 0 0 1-1.121-.358 1.94 1.94 0 0 1-.892-.743 1.688 1.688 0 0 1-.214-.873 2.742 2.742 0 0 1 .178-.889c.207-.571.541-1.088.766-1.651a6.92 6.92 0 0 0 .385-2.926c-.05-.99-.21-1.972-.278-2.961a5.1 5.1 0 0 1 .043-1.324 1.988 1.988 0 0 1 1.674-1.7 5.4 5.4 0 0 1 1.219-.078 11.621 11.621 0 0 0 1.224 0 2.812 2.812 0 0 0 1.169-.327 2.766 2.766 0 0 0 .841-.793 9.636 9.636 0 0 0 .6-1 6.286 6.286 0 0 1 .633-.975 2.4 2.4 0 0 1 .91-.708" fill="url(#H)"/>
            <path d="M132.449 77.224a1.808 1.808 0 0 1 1.067-.07 2.5 2.5 0 0 1 .966.472 6.119 6.119 0 0 1 1.351 1.677 108.906 108.906 0 0 1 2.657 4.515 29.922 29.922 0 0 0 2.04 3.388c.522.7 1.118 1.345 1.651 2.039a6.881 6.881 0 0 1 1.245 2.292 4.521 4.521 0 0 1-.345 3.284 4.378 4.378 0 0 1-1.659 1.734 4.274 4.274 0 0 1-2.327.574 13.027 13.027 0 0 1-3.688-1.143c-2.331-.846-4.858-.959-7.249-1.62-.857-.232-1.693-.543-2.554-.76a7.707 7.707 0 0 1-1.131-.327 1.834 1.834 0 0 1-.9-.73 1.6 1.6 0 0 1-.195-.844 2.636 2.636 0 0 1 .187-.852c.208-.546.535-1.041.745-1.586a6.111 6.111 0 0 0 .3-2.614c-.059-.882-.212-1.756-.266-2.638a4.488 4.488 0 0 1 .053-1.181 2.024 2.024 0 0 1 .529-1.041 2.066 2.066 0 0 1 1.149-.532 5.382 5.382 0 0 1 1.281 0 8.614 8.614 0 0 0 1.284.06 2.406 2.406 0 0 0 1.215-.37 2.432 2.432 0 0 0 .749-.877 9.268 9.268 0 0 0 .456-1.065 5.061 5.061 0 0 1 .513-1.041 2.006 2.006 0 0 1 .878-.746" fill="#d99a03"/>
            <path d="M132.136 76.385a1.667 1.667 0 0 1 1.065-.121 2.277 2.277 0 0 1 .968.475 5.284 5.284 0 0 1 1.251 1.741 47.608 47.608 0 0 0 2.385 4.335c.662 1 1.426 1.93 2.1 2.924a12.106 12.106 0 0 1 1.951 4.421 4.84 4.84 0 0 1-.316 3.185 3.55 3.55 0 0 1-1.54 1.479 3.982 3.982 0 0 1-2.12.393 13.183 13.183 0 0 1-3.258-1.055c-1.909-.7-3.973-.862-5.938-1.386-.829-.222-1.641-.507-2.481-.682a7.348 7.348 0 0 1-1.1-.268 1.619 1.619 0 0 1-.87-.682 1.369 1.369 0 0 1-.151-.76 2.414 2.414 0 0 1 .2-.758c.2-.483.508-.926.667-1.426a4.325 4.325 0 0 0-.037-2.282 17.953 17.953 0 0 1-.507-2.253 3.137 3.137 0 0 1 .044-1.023 1.8 1.8 0 0 1 .487-.895 2.035 2.035 0 0 1 1.219-.5 5.659 5.659 0 0 1 1.343.08 7.21 7.21 0 0 0 1.342.113 2.2 2.2 0 0 0 1.258-.413 2.147 2.147 0 0 0 .692-1.1 7.586 7.586 0 0 0 .21-1.292 4.7 4.7 0 0 1 .284-1.276 1.861 1.861 0 0 1 .849-.974" fill="#f5bd0c"/>
            <path d="M136.21 80.037c.6 1.087.968 2.335 1.564 3.432.549 1.009 1.174 2.048 1.731 2.978.248.415.827 1.051 1.412 2.04.53.9 1.066 2.145 1.365 2.565-.172-.492-.526-1.811-.948-2.752a13.2 13.2 0 0 0-1.137-1.853c-.557-.93-1.157-1.766-1.73-2.653-.791-1.224-1.393-2.593-2.257-3.757z" fill="url(#I)"/>
        </g>
    </g>
</svg>
