<svg xmlns="http://www.w3.org/2000/svg" width="200" height="128">
    <defs>
        <linearGradient id="a" x1="20" y1="79.921" x2="126.94" y2="79.921" gradientUnits="userSpaceOnUse">
            <stop offset="0" stop-color="#fff" stop-opacity=".5"/>
            <stop offset="1" stop-color="#fff"/>
        </linearGradient>
    </defs>
    <g fill="#fff">
        <path d="M155.274 39.938a2.915 2.915 0 0 0-1.179-.446 2.521 2.521 0 0 0-1.25.138 3.232 3.232 0 0 0-.635.346 3.827 3.827 0 0 0-1.392 1.668 5.481 5.481 0 0 1 .844-.346 5.166 5.166 0 0 1 4.24.524 11.819 11.819 0 0 1 1.048.794 5.1 5.1 0 0 0-.182-.678 3.883 3.883 0 0 0-1.494-2zM144.052 41.63a3.454 3.454 0 0 1 2.092-.387 7.219 7.219 0 0 1 .946.162 3.881 3.881 0 0 0-.519-.678 2.718 2.718 0 0 0-.738-.554 1.968 1.968 0 0 0-.436-.155 1.61 1.61 0 0 0-.459-.041 1.787 1.787 0 0 0-1.1.493 2.5 2.5 0 0 0-.643 1.039 3.965 3.965 0 0 0-.185 1.081 4.357 4.357 0 0 1 1.042-.96z" opacity=".5"/>
        <path d="M146.658 53.7a3.548 3.548 0 0 0 1.683.6 5.525 5.525 0 0 0 2.1-.243 7.392 7.392 0 0 0 1.795-.789 18.734 18.734 0 0 1 3.118-2.044c.255-.094.521-.161.767-.277a1.2 1.2 0 0 0 .6-.535 2.587 2.587 0 0 0 .145-.767c.04-.277.128-.545.176-.821a1.374 1.374 0 0 0-.072-.824.86.86 0 0 0-.1-.135v-.015a.6.6 0 0 0-.086-.3 1.029 1.029 0 0 0-.485-.391 4.855 4.855 0 0 0-.833-.243 11.9 11.9 0 0 1-2.5-.913c-.4-.2-.781-.414-1.17-.623a6.907 6.907 0 0 0-1.244-.553 4.886 4.886 0 0 0-2.994.136 6.4 6.4 0 0 0-2.762 1.89 5.487 5.487 0 0 0-1.185 1.081 2.582 2.582 0 0 0-.468.787 6.062 6.062 0 0 0-.151.708 1.213 1.213 0 0 0-.039.268.472.472 0 0 0 .019.134c0 .011.014.019.018.03a.612.612 0 0 0 .062.157.9.9 0 0 0 .247.257c.1.07.2.129.3.193a5.464 5.464 0 0 1 1.367 1.317 8.6 8.6 0 0 0 1.692 1.915zm3.219-8.21a.944.944 0 0 1 .766.016c.185.072.472.2.447.394-.02.149-.254.2-.4.2s-.27-.162-.409-.235c-.16-.082-.436-.053-.489-.225-.021-.059.034-.126.085-.155zm-2.725.054c.08.027.1.2.027.251-.1.072-.18.258-.275.31-.062.034-.155-.03-.185-.081-.111-.19.228-.551.433-.485zm-2.552 5.172a1.68 1.68 0 0 0-.714-.416c-.057-.013-.115-.022-.17-.039a.327.327 0 0 1-.149-.085.256.256 0 0 1-.053-.1 2.145 2.145 0 0 1 .875.383c.278.191.534.414.82.595a4.3 4.3 0 0 0 2.129.6 9.511 9.511 0 0 0 2.222-.231 9.9 9.9 0 0 0 1.713-.472 10.252 10.252 0 0 0 2.335-1.39 9.732 9.732 0 0 0 .954-.788c.1-.1.2-.2.306-.288a1.152 1.152 0 0 1 .362-.209 1.13 1.13 0 0 1 .46-.034.2.2 0 0 1-.015.125.225.225 0 0 1-.062.075.641.641 0 0 1-.081.055c-.314.186-.661.314-.97.508a7.872 7.872 0 0 0-.954.788 7.552 7.552 0 0 1-2.335 1.39 13.481 13.481 0 0 1-1.713.472 9.605 9.605 0 0 1-2.238.311 3.431 3.431 0 0 1-2.114-.686c-.214-.168-.4-.38-.608-.564zm11.141-6.146a2.6 2.6 0 0 0-.249-1.525 2.134 2.134 0 0 0-1.137-1.028 1.611 1.611 0 0 0-.666-.1 1.485 1.485 0 0 0-.681.229 1.788 1.788 0 0 0-.516.5 2.607 2.607 0 0 0-.414 1.371 2.94 2.94 0 0 0 .122.969l-.147-.079a7.685 7.685 0 0 0-1.268-.568 4.2 4.2 0 0 1-.018-2.573c.015-.041.034-.081.05-.121a5.481 5.481 0 0 1 .844-.346 5.17 5.17 0 0 1 4.24.525 11.3 11.3 0 0 1 1.047.794 6.487 6.487 0 0 1 .107 1.629 4.881 4.881 0 0 1-.4 1.781 3.235 3.235 0 0 1-.345.565 5.742 5.742 0 0 0-.593-.17l-.12-.029c-.279-.067-.555-.15-.83-.239.045-.026.092-.048.135-.078a1.883 1.883 0 0 0 .578-.663 2.494 2.494 0 0 0 .262-.844zm-11.795-1.19a3.116 3.116 0 0 0 .089 1.556 2.608 2.608 0 0 0 .547.877 2.359 2.359 0 0 0 .253.237c-.134.13-.272.257-.4.4a6.08 6.08 0 0 0-.56.449 2.95 2.95 0 0 1-.447-.747 7.235 7.235 0 0 1-.387-2.192l-.021-.309a12.896 12.896 0 0 1-.028-.621v-.31c0-.043 0-.085.006-.128a4.357 4.357 0 0 1 1.047-.96 3.454 3.454 0 0 1 2.092-.387 7.39 7.39 0 0 1 .946.162 4.6 4.6 0 0 1 .444.957 5.94 5.94 0 0 1 .271 1.405c.012.159.019.319.021.479v.076a7.18 7.18 0 0 0-.438.133 6.917 6.917 0 0 0-.7.3 3.31 3.31 0 0 0-.138-1.17 2.389 2.389 0 0 0-.7-1.137 1.373 1.373 0 0 0-.566-.3.986.986 0 0 0-.632.051 1.083 1.083 0 0 0-.5.5 2.287 2.287 0 0 0-.198.679zm16 43.06l.04-.039q-.047.42-.107.846A20.856 20.856 0 0 1 155.4 90.7a12.727 12.727 0 0 1-5.969 1.455 13.4 13.4 0 0 1-4.138-.66 6.898 6.898 0 0 0-.225-.641 12.832 12.832 0 0 0 4.363.766 12.182 12.182 0 0 0 5.717-1.393 21.922 21.922 0 0 0 4.797-3.787zm-22.595-19.8a27.821 27.821 0 0 1 2.344-4.26 7.225 7.225 0 0 1 .28-2.587 13.611 13.611 0 0 1 2.16-3.9 6.7 6.7 0 0 0 1.109-1.995 6.6 6.6 0 0 0 .156-1.632c0-.185.006-.371.013-.555a7.66 7.66 0 0 1 .054-.692 3.9 3.9 0 0 1 .5.422c-.007.1-.017.193-.021.29a10.219 10.219 0 0 1-.187 2.309 7.114 7.114 0 0 1-1.19 2.164 13.1 13.1 0 0 0-2.083 3.738 6.622 6.622 0 0 0-.242 2.577 27.114 27.114 0 0 0-2.405 4.333 23.672 23.672 0 0 0-1.951 7.232 19.877 19.877 0 0 0-.064 2.916c.168.171.34.337.514.5q2.513 2.338 5.234 4.44a8.768 8.768 0 0 1 2.261 2.209 2.987 2.987 0 0 1 .441 1.213 1.923 1.923 0 0 1-.269 1.248 1.835 1.835 0 0 1-.8.666 2.172 2.172 0 0 1-.42.129 35.976 35.976 0 0 1-.389-.486 1.838 1.838 0 0 0 .594-.133 1.309 1.309 0 0 0 .57-.468 1.386 1.386 0 0 0 .186-.9 2.448 2.448 0 0 0-.367-.993 8.043 8.043 0 0 0-2.036-1.991l-.095-.073a77.907 77.907 0 0 1-3.8-3.143 80.463 80.463 0 0 0-.821-1.151 9.87 9.87 0 0 0-1.341-1.57 20.311 20.311 0 0 1 .074-2.459 24.158 24.158 0 0 1 1.99-7.399zm21.674 28.293a5.736 5.736 0 0 0 .1.576c-.151-.038-.3-.077-.455-.113a38.246 38.246 0 0 0-3.29-.649 41.572 41.572 0 0 0-3.793-.387c-.2-.012-.394-.023-.59-.046-.079 0-.158.014-.237.017-.177.007-.353.01-.53.01a14.958 14.958 0 0 1-1.625-.091c-.262.024-.527.022-.79.028a14.99 14.99 0 0 0-2.387.279q.057-.278.09-.56a14.893 14.893 0 0 1 2.284-.255h.2c.195 0 .379-.006.556-.022h.054l.053.006a14.6 14.6 0 0 0 1.567.088c.17 0 .339 0 .508-.01l.112-.008.117-.008h.046l.047.005c.178.021.358.032.537.042a42.05 42.05 0 0 1 3.863.393c1.093.166 2.216.387 3.336.658zm20.935-6.61a3.889 3.889 0 0 1-.649 1.093 7.1 7.1 0 0 1-2.284 1.62 45.041 45.041 0 0 0-4.25 2.243 17.347 17.347 0 0 0-2.507 2.021 20.024 20.024 0 0 1-2.038 1.85 5.85 5.85 0 0 1-2.536 1.073 6.083 6.083 0 0 1-3.3-.5 3.956 3.956 0 0 1-1.837-1.437 4.311 4.311 0 0 1-.515-2.29 23.772 23.772 0 0 1 .5-4.17c.2-1.147.4-2.3.521-3.455a35.523 35.523 0 0 0 .074-6.349 4.844 4.844 0 0 1 0-1.063 1.35 1.35 0 0 1 1.376-1.258 4.949 4.949 0 0 1 .978.081c.265.039.53.075.794.114.047-.32.089-.641.127-.96.492-4.115.507-8.462-1.3-12.193a13.444 13.444 0 0 0-2.441-3.494 19.214 19.214 0 0 0-1.544-5.2c-.547-1.19-1.216-2.322-1.724-3.529-.2-.465-.371-.94-.583-1.4a1.513 1.513 0 0 0 .367-.469l.077.149c.158.33.292.667.422.993.069.173.138.346.21.517.281.667.622 1.33.952 1.971.258.5.524 1.017.765 1.542A19.674 19.674 0 0 1 161.181 61a13.925 13.925 0 0 1 2.419 3.508c2.041 4.219 1.746 9.149 1.347 12.489-.039.326-.082.655-.13.984.1.018.209.032.313.052v-.006s.559.013.516.146a4.555 4.555 0 0 0-.186 1.75 2.375 2.375 0 0 0 .472 1.384 2.073 2.073 0 0 0 1 .581 3.7 3.7 0 0 0 2.187-.031 6.048 6.048 0 0 0 3.033-2.282 3.116 3.116 0 0 0 .508-1.061l.009-.059.018-.094.05-.082a7.092 7.092 0 0 0 .882-2.341 12.894 12.894 0 0 0-.117-4.615 32.044 32.044 0 0 0-1.789-6.22 17.308 17.308 0 0 0-2.189-4.148c-.443-.589-.958-1.151-1.455-1.7a22.557 22.557 0 0 1-1.629-1.919c-.221-.3-.428-.621-.629-.926-.259-.395-.5-.769-.777-1.12l-.034-.042-.025-.051c-.209-.43-.415-.862-.614-1.3q-.234-.51-.461-1.023c-.436-.977-.887-1.988-1.418-2.922a14.339 14.339 0 0 0-.343-.57l-.071-.113-.01-.132c-.033-.433-.071-.866-.109-1.3-.068-.78-.139-1.586-.18-2.385-.032-.643-.047-1.3-.06-1.928a22.144 22.144 0 0 0-.539-5.3 11.34 11.34 0 0 0-1.394-3.127 10.617 10.617 0 0 0-2.714-2.927 10.478 10.478 0 0 0-6-1.916h-.121a9.312 9.312 0 0 0-4.4 1.038 8.1 8.1 0 0 0-3.37 3.51 11.748 11.748 0 0 0-1.078 4.887c-.04 1.178.025 2.387.088 3.556.029.526.057 1.053.077 1.579.024.646.035 1.3.046 1.935.019 1.125.038 2.289.132 3.42l.033.373c.041.456.083.927.082 1.4 0 .166-.007.332-.012.5 0 .124-.008.247-.01.37v.1l-.035.091a.652.652 0 0 1-.025.07 11.873 11.873 0 0 1-.837 1.655l-.019.031-.023.029q-.894 1.116-1.784 2.234l-.361.454q-.809 1.015-1.623 2.029l-.073.092a14.381 14.381 0 0 0-2.035 3.005 14.072 14.072 0 0 0-.7 2.183c-.083.316-.166.631-.258.944a24.6 24.6 0 0 1-1.408 3.618c-.521 1.1-1.1 2.189-1.613 3.147a7.44 7.44 0 0 0-.892 2.193 3.971 3.971 0 0 0 .006 1.24 3.552 3.552 0 0 0-.469.4 4.671 4.671 0 0 1-.065-1.727 7.85 7.85 0 0 1 .948-2.359 70.612 70.612 0 0 0 1.6-3.123 24.118 24.118 0 0 0 1.378-3.539 24.5 24.5 0 0 1 .984-3.195 15.121 15.121 0 0 1 2.181-3.215q1-1.236 1.981-2.481.891-1.119 1.785-2.234a11.606 11.606 0 0 0 .8-1.581l.022-.066c.005-.287.021-.576.022-.863 0-.578-.065-1.154-.112-1.73-.149-1.789-.113-3.587-.18-5.38-.065-1.725-.223-3.448-.165-5.173a12.415 12.415 0 0 1 1.133-5.107 8.632 8.632 0 0 1 3.6-3.743 9.838 9.838 0 0 1 4.658-1.1h.127a11 11 0 0 1 6.307 2.018 11.247 11.247 0 0 1 2.852 3.073 11.912 11.912 0 0 1 1.459 3.275c.645 2.374.492 4.88.617 7.337.063 1.224.194 2.447.288 3.67q.185.292.356.591c.728 1.281 1.285 2.649 1.9 3.987q.3.646.61 1.287c.51.654.927 1.386 1.417 2.059.931 1.279 2.129 2.344 3.079 3.608a18.117 18.117 0 0 1 2.259 4.274 32.374 32.374 0 0 1 1.818 6.324 13.535 13.535 0 0 1 .116 4.806 7.6 7.6 0 0 1-.95 2.52c0 .025-.007.05-.013.075 0-.017.006-.034.009-.052.015 0 .031.007.046.012a2.255 2.255 0 0 1 .951.529 2.083 2.083 0 0 1 .434.708 4.294 4.294 0 0 1 .269 1.212 10.582 10.582 0 0 0 .1 1.1 3.61 3.61 0 0 0 .814 1.6 10.412 10.412 0 0 0 1.314 1.248c.462.388.926.774 1.423 1.114.234.159.475.309.7.484a2.208 2.208 0 0 1 .565.627 1.564 1.564 0 0 1 .142 1.115zm-35.65 3.6a5.144 5.144 0 0 1-.376 3.681 4.855 4.855 0 0 1-1.793 1.924 4.624 4.624 0 0 1-2.542.662 12.471 12.471 0 0 1-4.011-1.28c-2.673-1.064-5.575-1.4-8.329-2.227-.847-.255-1.679-.557-2.532-.791a7.351 7.351 0 0 1-1.121-.358 1.929 1.929 0 0 1-.891-.742 1.681 1.681 0 0 1-.215-.873 2.737 2.737 0 0 1 .178-.889c.207-.571.541-1.088.766-1.652a6.929 6.929 0 0 0 .385-2.925c-.05-.991-.21-1.972-.278-2.961a5.1 5.1 0 0 1 .043-1.324 1.988 1.988 0 0 1 1.674-1.7 5.4 5.4 0 0 1 1.219-.078 11.621 11.621 0 0 0 1.224 0 2.816 2.816 0 0 0 1.17-.327 2.774 2.774 0 0 0 .84-.793 9.581 9.581 0 0 0 .6-1 6.334 6.334 0 0 1 .633-.975 2.4 2.4 0 0 1 .91-.707 2.092 2.092 0 0 1 1.177-.108 2.9 2.9 0 0 1 1.094.466 6.969 6.969 0 0 1 1.621 1.749c1.078 1.485 2.116 3 3.056 4.576.763 1.277 1.464 2.6 2.346 3.8.575.782 1.224 1.509 1.8 2.289a7.888 7.888 0 0 1 1.351 2.561z"/>
    </g>
    <path d="M126.865 68.426a19.776 19.776 0 0 0-4.414-1.017c-5.932 0-11.864.195-17.8.319-3.269.124-22.371 1.078-28.589 1.428-3.378.245-14.1 1.111-16.007 1.292l-5.448.472-5.787.631-5.448.676-5.807.87c-1.313.212-4.234.688-4.234.688l-7.32 1.48c-3.621.8-5.94 2.683-6 5.27A23.885 23.885 0 0 0 21.69 90.8c1.368 3.14 4.771.8 4.771.8s3.936-2.4 6.987-3.8 13.8-4.286 15.716-4.779l5.475-1.262 5.76-1.142 5.355-1L76.4 77.889l18.764-2.531.05-.008 9.458-1.438c5.984-.872 11.982-1.659 17.941-2.675 1.506-.256 2.886-1.245 4.325-1.9z" fill="url(#a)"/>
    <g fill="#fff">
        <path d="M64.792 42.323v2.747c1.761-.659 3.407-1.409 5.127-1.893 4.533-1.276 7.368.875 7.405 5.542.027 3.345.006 6.69.006 10.035 0 2.664 0 2.664 2.8 2.849v1.716h-9.916v-1.868c1.921.3 2.305-.685 2.231-2.361-.122-2.772-.02-5.554-.037-8.332-.02-3.367-1.669-4.761-4.943-4.21-2.652.445-2.652.445-2.652 3.094V59c0 2.335 0 2.335 2.3 2.574v1.676H57.11v-1.566c2.588-.309 2.589-.309 2.589-2.964V46.583l-2.6-.135c-.542-1.263-.095-1.886 1.145-2.215 2.083-.555 4.147-1.205 6.548-1.91zM84.264 46.42h-2.57c-.534-1.238-.07-1.813 1.075-2.131 2.095-.581 4.17-1.235 6.479-1.926.077.877.146 1.3.147 1.728.008 3.91-.014 7.82.01 11.73.025 4 3.562 5.979 7.019 3.913a1.3 1.3 0 0 0 .433-.974c.029-4.016.019-8.032.019-12.186l-2.548-.121c-.51-1.208-.061-1.8 1.079-2.134 2.082-.61 4.144-1.29 6.582-2.056v16.614c0 2.5 0 2.5 2.6 2.681l.1 1.831h-7.745l-.117-1.941c-1.626.659-3.183 1.445-4.829 1.93-4.512 1.328-7.686-1.052-7.728-5.722-.033-3.676-.006-7.356-.006-11.236zM21.788 63.158v-1.525c.132-.108.217-.237.3-.238 3.354-.018 2.905-.27 2.909-3.078q.014-9.1 0-18.2c0-2.289 0-2.288-2.329-2.387-.271-.011-.541-.043-.889-.072v-1.997h11.789v1.913c-2.97.309-2.97.309-2.97 3.4v20.173c2.5 0 4.812.06 7.12-.054.422-.02 1.048-.681 1.17-1.152.366-1.419.531-2.89.793-4.454h2.863v7.671zM106.04 44.7v-1.52h9.767v1.6l-1.777.631 3.52 5.2 3.517-5.124-1.978-.6V43.24h7.468l.087 1.7c-2.723.024-3.584 2.231-4.86 3.9-2.738 3.58-2.712 3.6-.165 7.249.844 1.209 1.718 2.4 2.512 3.638.737 1.15 1.508 2.169 3.173 1.821v1.712h-9.486c-.19-1.131-.19-1.131 1.569-2.168-1.2-1.816-2.4-3.625-3.716-5.613l-3.937 5.711 2.072.491v1.528h-7.789l-.1-1.341a3.5 3.5 0 0 1 .323-.261 11.774 11.774 0 0 0 2.886-1.776c1.689-1.9 3.153-4 4.828-6.179-1.8-2.622-3.555-5.313-5.485-7.87-.43-.573-1.482-.682-2.429-1.082zM47.116 46.6h-2.675v-1.807l7.818-2.51V58.93c0 2.608 0 2.608 2.7 2.743l.156 1.542h-10.66v-1.544c2.661-.268 2.661-.268 2.661-3.064zM52.976 36.551a3.081 3.081 0 0 1-3.057 3.154 3.2 3.2 0 0 1-3.071-3.018 3.082 3.082 0 0 1 3.1-3.107 2.978 2.978 0 0 1 3.028 2.971z"/>
    </g>
</svg>
