<?xml version="1.0" encoding="UTF-8"?>
<svg version="1.1" xmlns="http://www.w3.org/2000/svg" width="288" height="175">
<path d="M0 0 C95.04 0 190.08 0 288 0 C288 57.75 288 115.5 288 175 C192.96 175 97.92 175 0 175 C0 117.25 0 59.5 0 0 Z " fill="#FEFEFE" transform="translate(0,0)"/>
<path d="M0 0 C2.31 0 4.62 0 7 0 C9.57616518 6.2638737 11.94235079 12.54646385 14 19 C18.0183841 9.68061541 18.0183841 9.68061541 21 0 C23.31 0 25.62 0 28 0 C29.00777029 2.74737377 30.00641446 5.49749952 31 8.25 C31.28617188 9.02730469 31.57234375 9.80460937 31.8671875 10.60546875 C32.13789063 11.35957031 32.40859375 12.11367187 32.6875 12.890625 C32.93886719 13.58188477 33.19023437 14.27314453 33.44921875 14.98535156 C34 17 34 17 34 21 C34.66 21 35.32 21 36 21 C36.11214844 19.99839844 36.22429687 18.99679688 36.33984375 17.96484375 C36.91172035 13.96170753 38.15365825 10.35553549 39.5625 6.5625 C40.01753906 5.32628906 40.47257812 4.09007813 40.94140625 2.81640625 C41.46541016 1.42228516 41.46541016 1.42228516 42 0 C44.31 0 46.62 0 49 0 C48.31955075 3.86003541 47.24922522 7.43808688 45.96875 11.140625 C45.57042969 12.29304688 45.17210937 13.44546875 44.76171875 14.6328125 C44.13716797 16.42332031 44.13716797 16.42332031 43.5 18.25 C42.87544922 20.06371094 42.87544922 20.06371094 42.23828125 21.9140625 C39.12825409 30.87174591 39.12825409 30.87174591 38 32 C36.00041636 32.04080783 33.99954746 32.04254356 32 32 C29.42383482 25.7361263 27.05764921 19.45353615 25 13 C24.51080078 14.17755859 24.51080078 14.17755859 24.01171875 15.37890625 C21.70210947 20.93150673 19.38409106 26.47894701 17 32 C15.02 32 13.04 32 11 32 C9.53426727 28.16945571 8.07876997 24.33509869 6.625 20.5 C6.2125 19.42234375 5.8 18.3446875 5.375 17.234375 C3.21923888 11.53203913 1.31525134 5.9547643 0 0 Z " fill="#6B6C6E" transform="translate(148,67)"/>
<path d="M0 0 C2.31 0 4.62 0 7 0 C8.1721449 2.95619219 9.33677476 5.91528789 10.5 8.875 C10.83386719 9.71675781 11.16773438 10.55851562 11.51171875 11.42578125 C11.82753906 12.23144531 12.14335937 13.03710938 12.46875 13.8671875 C12.90864258 14.98262939 12.90864258 14.98262939 13.35742188 16.12060547 C14 18 14 18 14 20 C15.65 20 17.3 20 19 20 C18.67 20.66 18.34 21.32 18 22 C17.01 22 16.02 22 15 22 C15.495 23.093125 15.99 24.18625 16.5 25.3125 C18 29 18 29 18 32 C16.02 32 14.04 32 12 32 C10.74335022 29.09399739 10 27.20395416 10 24 C8.1035351 24.62308097 6.20785465 25.24854985 4.3125 25.875 C3.25675781 26.22304687 2.20101562 26.57109375 1.11328125 26.9296875 C-1.63149994 27.87331366 -4.31692815 28.89491289 -7 30 C-7.31795637 34.05394366 -7.46278608 36.2978418 -5.1875 39.75 C-4.465625 40.4925 -3.74375 41.235 -3 42 C-2.4225 42.598125 -1.845 43.19625 -1.25 43.8125 C-0.8375 44.204375 -0.425 44.59625 0 45 C-7.13568184 43.35330419 -13.04572931 38.87392749 -17.125 32.875 C-18.11988418 29.60609483 -18.32675521 28.15104363 -17 25 C-13.06664533 21.17295221 -13.06664533 21.17295221 -9.96582031 20.67016602 C-7.8200106 20.17277162 -7.8200106 20.17277162 -6.81152344 18.05053711 C-6.49731445 17.2178833 -6.18310547 16.38522949 -5.859375 15.52734375 C-5.51132813 14.62822266 -5.16328125 13.72910156 -4.8046875 12.80273438 C-4.28261719 11.38444336 -4.28261719 11.38444336 -3.75 9.9375 C-3.38648438 8.98810547 -3.02296875 8.03871094 -2.6484375 7.06054688 C-1.75149587 4.71197602 -0.86949606 2.35884031 0 0 Z " fill="#FB6D11" transform="translate(208,67)"/>
<path d="M0 0 C0.66 0 1.32 0 2 0 C3.39325954 1.55240341 4.71380128 3.17029985 6 4.8125 C10.16006201 10.03456158 14.55054302 14.92804945 19.12890625 19.78515625 C21 22 21 22 21 24 C21.66 24 22.32 24 23 24 C23 16.08 23 8.16 23 0 C23.99 0 24.98 0 26 0 C26 10.56 26 21.12 26 32 C22.23521141 30.74507047 21.30619333 29.16902481 18.875 26.0625 C14.44734408 20.50793658 9.78920904 15.24532418 5 10 C4.67 17.26 4.34 24.52 4 32 C2.68 32 1.36 32 0 32 C0 21.44 0 10.88 0 0 Z " fill="#78797B" transform="translate(71,67)"/>
<path d="M0 0 C7.40627272 6.39632644 7.40627272 6.39632644 8.19921875 10.9609375 C8.44978699 17.26834497 7.69571022 21.41756921 3.75 26.375 C-1.03945424 30.11077431 -4.83078551 31.0438104 -10.890625 30.75 C-15.35650291 30.04019159 -17.87713604 28.02098014 -20.72265625 24.609375 C-23.42101378 20.79108635 -25.13515473 17.29502261 -24.80078125 12.4609375 C-23.34763364 6.95752742 -19.96650439 2.63376989 -15.4375 -0.6875 C-9.83379157 -2.33564954 -5.29716299 -2.6485815 0 0 Z M-18.90234375 7.20703125 C-21.27027732 11.01631569 -20.76380192 15.03935637 -20.25 19.375 C-18.94078973 22.61357278 -17.72966387 23.97756422 -15.0625 26.1875 C-11.34296606 27.75796988 -8.23195117 27.98077351 -4.25 27.375 C-1.04175753 25.87782018 1.47932114 24.09981464 3.75 21.375 C5.51074588 16.09276236 5.54625804 11.99814139 3.125 7.0625 C-0.25340446 3.23956863 -3.2112224 1.67232173 -8.25 0.9375 C-12.83343737 1.60591795 -15.82977247 3.80032693 -18.90234375 7.20703125 Z " fill="#6D6E70" transform="translate(55.25,68.625)"/>
<path d="M0 0 C1.98 0 3.96 0 6 0 C6 8.58 6 17.16 6 26 C10.29 26 14.58 26 19 26 C19 27.98 19 29.96 19 32 C12.73 32 6.46 32 0 32 C0 21.44 0 10.88 0 0 Z " fill="#6F7072" transform="translate(233,67)"/>
<path d="M0 0 C1.98 0 3.96 0 6 0 C6 8.58 6 17.16 6 26 C9.96 26 13.92 26 18 26 C18 27.98 18 29.96 18 32 C12.06 32 6.12 32 0 32 C0 21.44 0 10.88 0 0 Z " fill="#68696B" transform="translate(258,67)"/>
<path d="M0 0 C2.31 0 4.62 0 7 0 C8.1721449 2.95619219 9.33677476 5.91528789 10.5 8.875 C10.83386719 9.71675781 11.16773438 10.55851562 11.51171875 11.42578125 C11.82753906 12.23144531 12.14335937 13.03710938 12.46875 13.8671875 C12.90864258 14.98262939 12.90864258 14.98262939 13.35742188 16.12060547 C14 18 14 18 14 20 C11.69 20 9.38 20 7 20 C6.01 17.03 5.02 14.06 4 11 C1.3534665 13.6465335 0.40058003 16.56221264 -1 20 C-2.98 20 -4.96 20 -7 20 C-5.07443364 13.14381674 -2.7527517 6.56747868 0 0 Z " fill="#6E6D6D" transform="translate(208,67)"/>
<path d="M0 0 C1.9375 1.08984375 1.9375 1.08984375 4.875 3.08984375 C4.875 4.40984375 4.875 5.72984375 4.875 7.08984375 C4.215 7.08984375 3.555 7.08984375 2.875 7.08984375 C2.875 6.42984375 2.875 5.76984375 2.875 5.08984375 C-1.3639102 2.97038865 -5.45540766 2.35735868 -10.125 3.08984375 C-13.81805808 4.90153262 -15.69865601 6.48471034 -18.0625 9.83984375 C-19.39774914 13.92413524 -19.5271579 17.00931236 -18.125 21.08984375 C-15.93242191 23.73218144 -14.19160382 25.55654184 -11.125 27.08984375 C-5.83589889 27.49237711 -0.91209845 27.64296292 3.875 25.08984375 C3.625 26.96484375 3.625 26.96484375 2.875 29.08984375 C-1.71008519 32.0801167 -6.86173447 31.58401026 -12.125 31.08984375 C-17.07116497 29.15438789 -20.76032278 24.8191982 -23.125 20.08984375 C-23.78615283 14.76810539 -23.52378926 10.19802127 -20.51171875 5.6640625 C-15.14258734 -0.43103597 -7.75033598 -3.31953729 0 0 Z " fill="#717274" transform="translate(140.125,67.91015625)"/>
<path d="M0 0 C3.4375 1.5 3.4375 1.5 6 3 C6 3.99 6 4.98 6 6 C5.154375 5.67 4.30875 5.34 3.4375 5 C-0.28493572 3.91710961 -3.14417595 3.63624301 -7 4 C-9.04451019 5.04374022 -9.04451019 5.04374022 -10 7 C-10.0423381 8.66612883 -10.04635413 10.33397807 -10 12 C-9.27554687 12.18175781 -8.55109375 12.36351563 -7.8046875 12.55078125 C2.36585366 15.19512195 2.36585366 15.19512195 7 18 C8.54586876 21.09173752 8.29359521 23.59429552 8 27 C6.13291495 29.36497439 4.67938569 30.66030715 2 32 C-3.67983816 32.52274617 -8.35705072 32.71435943 -13 29 C-12.67 27.68 -12.34 26.36 -12 25 C-11.46890625 25.49113281 -10.9378125 25.98226562 -10.390625 26.48828125 C-7.31984538 28.43009777 -5.35078604 28.30491694 -1.75 28.1875 C-0.67234375 28.16042969 0.4053125 28.13335937 1.515625 28.10546875 C2.74539062 28.05326172 2.74539062 28.05326172 4 28 C4.25015873 24.58357241 4.25015873 24.58357241 4 21 C1.14034355 19.09356237 -0.6141801 18.4952715 -3.875 17.6875 C-8.41478955 16.3514858 -11.30444684 15.0898048 -14 11 C-14.1875 7.4375 -14.1875 7.4375 -13 4 C-8.83130505 0.12906898 -5.59822936 -0.69977867 0 0 Z " fill="#717273" transform="translate(17,67)"/>
<path d="M0 0 C2.5625 1.5 2.5625 1.5 4 3 C1 5 1 5 -1.05078125 4.8359375 C-1.79714844 4.68382813 -2.54351562 4.53171875 -3.3125 4.375 C-7.07188746 3.84844084 -7.85756398 3.92748712 -11.4375 5.75 C-14.26642892 8.23393759 -15.84800712 9.83759987 -16.34375 13.62890625 C-16.44805498 15.58723222 -16.55222128 17.54556558 -16.65625 19.50390625 C-17 22 -17 22 -19 24 C-21.04750012 20.92874983 -21.54157042 17.89811463 -21.4453125 14.2265625 C-20.32677722 8.63388611 -16.68987327 4.2392404 -12.1875 0.9375 C-8.04059187 -0.28217886 -4.28733721 -0.63455845 0 0 Z " fill="#767778" transform="translate(52,67)"/>
<path d="M0 0 C0.99 0 1.98 0 3 0 C3 10.56 3 21.12 3 32 C-1.06623972 30.64458676 -2.53046818 28.42990531 -5 25 C-4.505 23.515 -4.505 23.515 -4 22 C-3.34 22 -2.68 22 -2 22 C-2 22.66 -2 23.32 -2 24 C-1.34 24 -0.68 24 0 24 C0 16.08 0 8.16 0 0 Z " fill="#6F7071" transform="translate(94,67)"/>
<path d="M0 0 C0.99 0 1.98 0 3 0 C3 10.56 3 21.12 3 32 C2.01 32 1.02 32 0 32 C0 21.44 0 10.88 0 0 Z " fill="#797A7C" transform="translate(106,67)"/>
<path d="M0 0 C0.721875 0.763125 1.44375 1.52625 2.1875 2.3125 C6.45040609 6.3859436 9.06595393 8.17184113 15 8.3125 C18.71998748 8.20700782 21.66377017 7.77932258 25 6 C24.75 7.875 24.75 7.875 24 10 C19.41491481 12.99027295 14.26326553 12.49416651 9 12 C4.41774087 10.20694208 1.79465284 6.94539224 -1 3 C-0.67 2.01 -0.34 1.02 0 0 Z " fill="#6B6C6E" transform="translate(119,87)"/>
<path d="M0 0 C3.88402619 1.52586743 5.92599165 3.37048539 8 7 C8.95823389 16.08353222 8.95823389 16.08353222 7 20 C6.34 20 5.68 20 5 20 C4.94392578 18.89591797 4.94392578 18.89591797 4.88671875 17.76953125 C4.51033449 10.36561412 4.51033449 10.36561412 1 4 C0.34 3.67 -0.32 3.34 -1 3 C-0.67 2.01 -0.34 1.02 0 0 Z " fill="#6F7072" transform="translate(55,70)"/>
<path d="M0 0 C1.65 0 3.3 0 5 0 C8 5.625 8 5.625 8 9 C6.02 9 4.04 9 2 9 C0.50178941 5.62902617 0 3.79557881 0 0 Z " fill="#6A6B6C" transform="translate(218,90)"/>
<path d="M0 0 C0.33 0.99 0.66 1.98 1 3 C1.66 3.33 2.32 3.66 3 4 C0.1190409 8.09982641 -2.24365283 10.32647044 -7 12 C-10.35053665 12.23072558 -13.6480436 12.17885933 -17 12 C-17 11.67 -17 11.34 -17 11 C-13.92382812 10.70703125 -13.92382812 10.70703125 -10.84765625 10.4140625 C-10.23792969 10.27742188 -9.62820312 10.14078125 -9 10 C-8.67 9.34 -8.34 8.68 -8 8 C-7.21625 7.566875 -6.4325 7.13375 -5.625 6.6875 C-2.6795497 4.79399624 -1.58095325 3.07869843 0 0 Z " fill="#747577" transform="translate(59,87)"/>
<path d="M0 0 C2.3129482 2.3129482 2.49580975 3.47904875 3.125 6.625 C3.29257813 7.44226563 3.46015625 8.25953125 3.6328125 9.1015625 C3.81457031 10.04128906 3.81457031 10.04128906 4 11 C1.36 11 -1.28 11 -4 11 C-3.52269162 9.5410574 -3.04308958 8.08286504 -2.5625 6.625 C-2.29566406 5.81289062 -2.02882812 5.00078125 -1.75390625 4.1640625 C-1 2 -1 2 0 0 Z " fill="#F2E7E2" transform="translate(211,76)"/>
<path d="M0 0 C0.99 0.33 1.98 0.66 3 1 C2.88617347 2.95901454 2.75858875 4.9172338 2.625 6.875 C2.55539063 7.96554688 2.48578125 9.05609375 2.4140625 10.1796875 C2 13 2 13 0 15 C-2.61881031 11.07178453 -2.28987737 7.56556861 -2 3 C-1.34 2.01 -0.68 1.02 0 0 Z " fill="#767778" transform="translate(33,76)"/>
<path d="M0 0 C1.67542976 0.28604898 3.34385343 0.61781233 5 1 C5.33 2.65 5.66 4.3 6 6 C4.35 6.66 2.7 7.32 1 8 C-0.5625 6.75 -0.5625 6.75 -2 5 C-1.74853421 2.86254078 -1.54074221 1.54074221 0 0 Z " fill="#A8A8A9" transform="translate(279,66)"/>
<path d="M0 0 C0.99 0.99 1.98 1.98 3 3 C-1.5 6 -1.5 6 -6 9 C-6.66 8.34 -7.32 7.68 -8 7 C-5.61042731 3.75700849 -3.7952131 1.49097658 0 0 Z " fill="#6F7072" transform="translate(41,68)"/>
<path d="M0 0 C1.33454536 2.1980747 2.02787435 3.52613603 1.875 6.125 C1 8 1 8 -0.875 9.3125 C-4.47245199 10.47638153 -6.69171179 8.6541441 -10 7 C-5.545 6.505 -5.545 6.505 -1 6 C-0.67 4.02 -0.34 2.04 0 0 Z " fill="#78797B" transform="translate(22,89)"/>
<path d="M0 0 C0.99 0 1.98 0 3 0 C3.125 7.75 3.125 7.75 2 10 C1.34 10 0.68 10 0 10 C0 6.7 0 3.4 0 0 Z " fill="#646567" transform="translate(60,80)"/>
<path d="M0 0 C2.97 0.33 5.94 0.66 9 1 C7.68 1.33 6.36 1.66 5 2 C5 2.66 5 3.32 5 4 C2.03 3.505 2.03 3.505 -1 3 C-0.67 2.01 -0.34 1.02 0 0 Z " fill="#747577" transform="translate(126,95)"/>
<path d="M0 0 C2.4375 0.6875 2.4375 0.6875 5 2 C5.8125 4.625 5.8125 4.625 6 7 C5.34 7 4.68 7 4 7 C4 6.34 4 5.68 4 5 C3.01 4.67 2.02 4.34 1 4 C0.3125 1.9375 0.3125 1.9375 0 0 Z " fill="#7D7E80" transform="translate(139,68)"/>
<path d="M0 0 C2.64 0.66 5.28 1.32 8 2 C7.67 2.66 7.34 3.32 7 4 C4.69 3.67 2.38 3.34 0 3 C0 2.01 0 1.02 0 0 Z " fill="#67686A" transform="translate(8,80)"/>
<path d="M0 0 C3 3 6 6 9 9 C5.30712847 8.09729807 3.44631711 7.59508949 1.125 4.5 C0 2 0 2 0 0 Z " fill="#FC7924" transform="translate(199,103)"/>
<path d="M0 0 C0.99 0 1.98 0 3 0 C3 0.99 3 1.98 3 3 C3.66 3 4.32 3 5 3 C5 3.99 5 4.98 5 6 C3.68 5.67 2.36 5.34 1 5 C0.67 3.35 0.34 1.7 0 0 Z " fill="#C6C7C7" transform="translate(277,68)"/>
<path d="M0 0 C0.99 0.33 1.98 0.66 3 1 C2.67 3.97 2.34 6.94 2 10 C1.67 10 1.34 10 1 10 C0.63883954 8.5225254 0.28624952 7.04295325 -0.0625 5.5625 C-0.25972656 4.73878906 -0.45695312 3.91507812 -0.66015625 3.06640625 C-0.82837891 2.04353516 -0.82837891 2.04353516 -1 1 C-0.67 0.67 -0.34 0.34 0 0 Z " fill="#7F8082" transform="translate(33,76)"/>
</svg>
