<svg xmlns="http://www.w3.org/2000/svg" width="196" height="30" viewBox="0 0 196 30" fill="none">
<title>Vectra AI Logo</title>
  <path d="M192.248 2.42003C192.595 2.42003 192.991 2.43951 192.991 1.9817C192.991 1.61156 192.694 1.56286 192.417 1.56286H191.843V2.42003H192.258H192.248ZM191.833 3.87137H191.466V1.2609H192.486C193.08 1.2609 193.347 1.51415 193.347 1.9817C193.347 2.44925 193.04 2.64406 192.733 2.71224L193.476 3.87137H193.07L192.347 2.71224H191.833V3.87137ZM194.169 2.56613C194.169 1.50441 193.367 0.666728 192.298 0.666728C191.229 0.666728 190.427 1.50441 190.427 2.56613C190.427 3.62785 191.229 4.46554 192.298 4.46554C193.367 4.46554 194.169 3.62785 194.169 2.56613ZM194.535 2.56613C194.535 3.77396 193.535 4.75776 192.308 4.75776C191.08 4.75776 190.081 3.76422 190.081 2.56613C190.081 1.36805 191.08 0.374512 192.308 0.374512C193.535 0.374512 194.535 1.36805 194.535 2.56613Z" fill="#1D895E"></path>
  <path d="M127.163 1.17334H98.2773V4.70916H110.948V28.7975H114.541V4.70916H127.163V1.17334Z" fill="#1D895E"></path>
  <path d="M32.9537 1.17334H28.8357L16.4521 24.9403L4.05852 1.17334H-6.10352e-05L14.4426 28.8462H16.4521H18.511L32.9537 1.17334Z" fill="#1D895E"></path>
  <path d="M196 28.8459L181.557 1.12427L177.538 1.17297L163.096 28.8459H167.105L179.548 5.03022L191.931 28.8459H196Z" fill="#1D895E"></path>
  <path d="M63.5613 4.70916V1.17334H41.1798H37.5864V28.8073V28.8462H63.5613V25.3201H41.1798V16.7582H62.71V13.2224H41.1798V4.70916H63.5613Z" fill="#1D895E"></path>
  <path d="M82.9239 29.8981C87.517 29.8981 91.6548 28.1254 94.6245 25.2909C94.7136 25.1935 94.8126 25.0863 94.9016 25.0376L92.0705 22.6512C89.7443 24.7259 86.5469 26.0409 82.9239 26.0409C75.955 26.0409 70.2928 21.0732 70.2928 14.9951C70.2928 8.917 75.955 3.94932 82.9239 3.94932C86.4974 3.94932 89.7047 5.2643 92.021 7.34877L94.8522 4.96234C91.8825 1.97199 87.6556 0.101807 82.9239 0.101807C74.0049 0.101807 66.7687 6.79356 66.7687 14.9951C66.7687 23.1966 74.0148 29.8884 82.9239 29.8884" fill="#1D895E"></path>
  <path d="M135.438 4.70894H152.574C154.959 4.70894 156.88 6.58886 156.88 8.94607C156.88 11.3033 155.058 13.0858 152.811 13.2319H135.438V4.70894ZM160.513 8.94607C160.513 4.62127 156.969 1.18286 152.574 1.18286H131.855V28.8557H135.488V16.758H150.178L156.494 28.8557H160.562L154.108 16.6216C157.741 15.9203 160.513 12.7644 160.513 8.94607Z" fill="#1D895E"></path>
</svg>