<svg width="172" height="33" viewBox="0 0 172 33" fill="none" xmlns="http://www.w3.org/2000/svg">
<g id="Logo">
<path id="Vector" d="M164.909 25.5307V21.8494H163.652C162.28 21.8494 161.966 21.6481 161.966 20.6702V10.5465H164.938V7.124H161.966V2.14844H156.88V7.124H154.337V10.5465H156.88V20.4114C156.88 24.2365 157.794 25.617 162.023 25.617C162.538 25.6458 163.509 25.5595 164.909 25.5307Z" fill="black"/>
<path id="Vector_2" d="M135.727 25.4179H140.87V14.5752C140.87 12.1593 142.413 10.7213 144.813 10.7213C147.013 10.7213 147.785 11.9004 147.785 14.3738V25.4179H152.928V12.9646C152.928 8.76553 150.842 6.66602 146.613 6.66602C144.184 6.66602 142.241 7.5576 140.784 9.31199V7.15495H135.755V25.4179H135.727Z" fill="black"/>
<path id="Vector_3" d="M132.574 0.680664H127.431V5.10978H132.574V0.680664Z" fill="black"/>
<path id="Vector_4" d="M132.574 7.12695H127.431V25.3899H132.574V7.12695Z" fill="black"/>
<path id="Vector_5" d="M111.197 16.242C111.197 12.5894 112.854 10.6049 115.712 10.6049C118.569 10.6049 120.198 12.5894 120.198 16.242C120.198 19.8945 118.569 21.9078 115.712 21.9078C112.854 21.9078 111.197 19.8945 111.197 16.242ZM105.997 16.242C105.997 22.3392 109.683 26.0205 115.712 26.0205C121.741 26.0205 125.427 22.3392 125.427 16.242C125.427 10.1447 121.741 6.46338 115.712 6.46338C109.683 6.46338 105.997 10.1447 105.997 16.242Z" fill="black"/>
<path id="Vector_6" d="M99.2263 16.3829C99.2263 19.7766 97.5976 21.7899 95.0831 21.7899C92.3686 21.7899 90.7971 19.8629 90.7971 16.3829C90.7971 12.644 92.2829 10.7171 94.9974 10.7171C97.6548 10.7171 99.2263 12.6728 99.2263 16.3829ZM85.7681 32.7189H90.7685V23.1128C92.0257 25.011 93.9973 25.9889 96.4547 25.9889C100.941 25.9889 104.341 22.1637 104.341 16.1528C104.341 10.3144 101.026 6.48926 96.3975 6.48926C93.9116 6.48926 92.1686 7.46712 90.6828 9.5954V7.12199H85.7966V32.7189H85.7681Z" fill="black"/>
<path id="Vector_7" d="M75.3622 25.4164H80.3912V10.5759H83.5629V7.15345H80.3341V5.88799C80.3341 4.7088 80.7912 4.50748 82.2199 4.50748H83.5629V0.624806C82.6485 0.567285 81.877 0.509766 81.1056 0.509766C77.1624 0.509766 75.3622 2.03408 75.3622 5.45658V7.15345H72.6191V10.5759H75.3622V25.4164Z" fill="black"/>
<path id="Vector_8" d="M58.0443 16.242C58.0443 12.5894 59.7016 10.6049 62.559 10.6049C65.4164 10.6049 67.0451 12.5894 67.0451 16.242C67.0451 19.8945 65.4164 21.9078 62.559 21.9078C59.7016 21.9365 58.0443 19.8945 58.0443 16.242ZM52.8439 16.242C52.8439 22.3392 56.5299 26.0205 62.559 26.0205C68.5881 26.0205 72.2741 22.3392 72.2741 16.242C72.2741 10.1447 68.5881 6.46338 62.559 6.46338C56.5014 6.49214 52.8153 10.1735 52.8439 16.242Z" fill="black"/>
<path id="Vector_9" d="M37.4548 16.242C37.4548 12.5894 39.1121 10.6049 41.9695 10.6049C44.8269 10.6049 46.4556 12.5894 46.4556 16.242C46.4556 19.8945 44.8269 21.9078 41.9695 21.9078C39.1121 21.9078 37.4548 19.8945 37.4548 16.242ZM32.2544 16.242C32.2544 22.3392 35.9404 26.0205 41.9695 26.0205C47.9986 26.0205 51.6846 22.3392 51.6846 16.242C51.6846 10.1447 47.9986 6.46338 41.9695 6.46338C35.9404 6.46338 32.2544 10.1735 32.2544 16.242Z" fill="black"/>
<path id="Vector_10" d="M20.5996 25.4149H25.7429V15.7514C25.7429 12.9904 27.2002 11.6099 29.9718 11.6099H31.6577V6.66304C31.4005 6.63428 31.1433 6.63428 30.8862 6.63428C28.4288 6.63428 26.6858 7.75594 25.3429 10.2869V7.15197H20.5996V25.4149Z" fill="black"/>
<path id="Vector_11" d="M13.4297 16.3829C13.4297 19.7766 11.801 21.7899 9.28648 21.7899C6.57197 21.7899 5.00041 19.8629 5.00041 16.3829C5.00041 12.644 6.48625 10.7171 9.20076 10.7171C11.9153 10.7171 13.4583 12.6728 13.4297 16.3829ZM0 32.7189H4.97184V23.1128C6.22909 25.011 8.20068 25.9889 10.658 25.9889C15.1441 25.9889 18.5444 22.1637 18.5444 16.1528C18.5444 10.3144 15.2298 6.48926 10.6009 6.48926C8.11496 6.48926 6.37196 7.46712 4.88612 9.5954V7.12199H0V32.7189Z" fill="black"/>
<path id="Vector_12" d="M171.477 23.8954C171.505 25.017 170.648 25.9374 169.534 25.9661C168.419 25.9949 167.505 25.1321 167.476 24.0104C167.448 22.8887 168.305 21.9684 169.419 21.9396C169.448 21.9396 169.476 21.9396 169.505 21.9396C170.562 21.9109 171.448 22.8025 171.477 23.8954ZM167.962 23.8954C167.933 24.7294 168.591 25.4484 169.419 25.4772C169.448 25.4772 169.448 25.4772 169.476 25.4772C170.305 25.4772 170.962 24.7869 170.962 23.9816C170.962 23.9529 170.962 23.9529 170.962 23.9241C170.991 23.0901 170.362 22.371 169.534 22.3423C168.705 22.3135 167.991 22.9463 167.962 23.7803C167.962 23.8091 167.962 23.8666 167.962 23.8954ZM169.162 24.9307H168.705V22.975C168.962 22.9175 169.191 22.9175 169.448 22.9175C169.676 22.8887 169.905 22.9463 170.134 23.0613C170.248 23.1763 170.334 23.3201 170.334 23.4927C170.305 23.7228 170.162 23.8954 169.934 23.9529V23.9816C170.134 24.0679 170.277 24.2405 170.277 24.4418C170.305 24.6144 170.334 24.7869 170.419 24.9307H169.934C169.848 24.7869 169.819 24.6144 169.791 24.4418C169.762 24.2117 169.648 24.1254 169.391 24.1254H169.162V24.9307ZM169.162 23.8091H169.391C169.648 23.8091 169.848 23.7228 169.848 23.5215C169.848 23.3201 169.705 23.2339 169.419 23.2339C169.334 23.2339 169.248 23.2339 169.162 23.2626V23.8091Z" fill="black"/>
</g>
</svg>
