<svg xmlns="http://www.w3.org/2000/svg" viewBox="0 0 279.66 137.63"><path d="m0,146.05h7.36c4.34,0,7.31,2.48,7.31,6.85,0,3.83-2.97,7.02-8.79,7.02h-1.97v6.31H0v-20.18Zm6.05,10.81c3.08,0,4.6-1.48,4.6-3.85s-1.08-3.88-3.91-3.88h-2.83v7.74h2.14Zm11.4-6.22h3.8v2.08c.94-1.42,2.5-2.31,4.2-2.4.69-.02,1.37.06,2.03.26l-.54,3.14c-.66-.13-1.33-.19-2-.17-1.42.04-2.76.68-3.68,1.77v10.9h-3.8v-15.58Zm10.54,7.94c0-5.25,3.14-8.34,7.76-8.34,5.2,0,7.59,3.05,7.59,8.19s-3.31,8.14-7.82,8.14c-4.82,0-7.54-3.02-7.54-7.99h0Zm11.5-.14c0-2.65-.74-5.17-3.83-5.17s-3.85,2.51-3.85,5.2c0,2.88.94,5.05,3.91,5.05s3.76-2.25,3.76-5.08h0Zm7.57,13.39l.63-3.08c1.56.35,3.14.56,4.74.63,2.4,0,4.03-.34,4.03-3.08v-.82c-.84.66-1.87,1.02-2.94,1.03-3.57,0-7.59-.91-7.59-7.96,0-5.45,3.71-8.28,8.19-8.28,2.06.03,4.1.27,6.11.71v15.73c0,4.28-3.71,5.94-7.22,5.94-2.01-.03-4-.3-5.94-.8h0Zm9.36-8.99v-9.14c-.76-.2-1.55-.31-2.34-.31-3.11,0-4.37,2.14-4.37,5.17,0,3.71,1.51,4.97,4.03,4.97.93-.02,1.85-.25,2.68-.68h0Zm8.22-12.19h3.8v2.08c.94-1.42,2.5-2.31,4.2-2.4.69-.02,1.37.06,2.03.26l-.54,3.14c-.66-.13-1.33-.19-2-.17-1.42.04-2.76.68-3.68,1.77v10.9h-3.8v-15.58Zm10.68,8.05c0-6.37,3.23-8.42,7.62-8.42s6.34,2.97,6.34,7.85v1.37h-10.16c0,3.43,2.14,4,4.91,4,1.42-.1,2.84-.31,4.23-.63l.6,2.94c-1.79.51-3.65.77-5.51.77-4.91,0-8.02-1.77-8.02-7.88h0Zm10.05-1.74c.03-2.34-.91-3.97-2.8-3.97s-3.2,1.4-3.37,3.97h6.17Zm6.31,8.96l.46-2.94c1.46.27,2.94.45,4.42.51,2.43,0,3.14-.74,3.14-1.6,0-2.4-7.85-1.46-7.85-6.97,0-3.14,2.85-4.68,6.11-4.68,1.59,0,3.18.27,4.68.8l-.63,2.83c-1.32-.36-2.68-.55-4.05-.57-1.74,0-2.31.77-2.31,1.43,0,2.49,7.79,1.8,7.79,6.97,0,3.91-3.91,4.88-6.51,4.88-1.77.02-3.54-.2-5.26-.65h0Zm14.1,0l.46-2.94c1.46.27,2.94.45,4.43.51,2.43,0,3.14-.74,3.14-1.6,0-2.4-7.85-1.46-7.85-6.97,0-3.14,2.85-4.68,6.11-4.68,1.59,0,3.18.27,4.68.8l-.63,2.83c-1.32-.36-2.68-.55-4.05-.57-1.74,0-2.31.77-2.31,1.43,0,2.49,7.79,1.8,7.79,6.97,0,3.91-3.91,4.88-6.51,4.88-1.77.02-3.54-.2-5.25-.65h0Zm15.73-3.54h4.28v3.85h-4.28v-3.85Zm15.25-16.33h7.37c4.34,0,7.31,2.48,7.31,6.85,0,3.83-2.97,7.02-8.79,7.02h-1.97v6.31h-3.91v-20.18Zm6.05,10.82c3.08,0,4.6-1.48,4.6-3.85s-1.09-3.88-3.91-3.88h-2.83v7.74h2.14Zm11.4-6.22h3.8v2.08c.94-1.42,2.5-2.31,4.2-2.4.69-.02,1.37.06,2.03.26l-.54,3.14c-.66-.13-1.33-.19-2-.17-1.42.04-2.76.68-3.68,1.77v10.9h-3.8v-15.58Zm10.54,7.94c0-5.25,3.14-8.34,7.76-8.34,5.2,0,7.59,3.05,7.59,8.19s-3.31,8.14-7.82,8.14c-4.82,0-7.54-3.02-7.54-7.99h0Zm11.5-.14c0-2.65-.74-5.17-3.83-5.17s-3.85,2.51-3.85,5.2c0,2.88.94,5.05,3.91,5.05s3.77-2.25,3.77-5.08h0Zm7.94,3.14v-8.02h-2.28v-2.91h2.29v-3.2h3.77v3.2h4.85v2.91h-4.85v7.99c0,1.57.51,1.77,2.2,1.77,1.01-.05,2.03-.17,3.03-.34l.43,3.03c-1.1.34-2.25.52-3.4.54-2.97,0-6.02.06-6.02-4.96h0Zm11.25-2.88c0-6.37,3.23-8.42,7.62-8.42s6.34,2.97,6.34,7.85v1.37h-10.16c0,3.43,2.14,4,4.91,4,1.42-.1,2.84-.31,4.23-.63l.6,2.94c-1.79.51-3.65.77-5.51.77-4.91,0-8.02-1.77-8.02-7.88h0Zm10.05-1.74c.03-2.34-.91-3.97-2.8-3.97s-3.2,1.4-3.37,3.97h6.17Zm6.4,1.4c0-4.94,3.08-8.11,8.05-8.11,1.63-.07,3.25.27,4.71,1l-1.03,2.82c-1.13-.48-2.34-.72-3.57-.68-2.34,0-4.28,1.4-4.28,4.97s.97,5.08,5,5.08c1.08-.03,2.15-.17,3.2-.4l.54,2.94c-1.3.35-2.65.53-4,.54-6.2,0-8.62-2.4-8.62-8.17h0Zm16.42,3.23v-8.02h-2.28v-2.91h2.28v-3.2h3.77v3.2h4.85v2.91h-4.85v7.99c0,1.57.51,1.77,2.2,1.77,1.01-.05,2.03-.17,3.03-.34l.43,3.03c-1.1.34-2.25.52-3.4.54-2.97,0-6.02.06-6.02-4.97h0Zm11.25-2.88c0-6.37,3.23-8.42,7.62-8.42s6.34,2.97,6.34,7.85v1.37h-10.17c0,3.43,2.14,4,4.91,4,1.42-.1,2.84-.31,4.23-.63l.6,2.94c-1.79.51-3.65.77-5.51.77-4.91,0-8.02-1.77-8.02-7.88h0Zm10.05-1.74c.03-2.34-.91-3.97-2.8-3.97s-3.2,1.4-3.37,3.97h6.17Zm6.4,1.34c0-5.37,3.6-8.05,8.05-8.05.83,0,1.65.08,2.45.26v-5.8h3.8v21.52h-3.8v-1.26c-.99.97-2.32,1.52-3.71,1.51-3,0-6.8-1.37-6.8-8.19h0Zm10.51,4.03v-8.74c-.78-.21-1.59-.32-2.4-.31-3.08,0-4.31,2.2-4.31,5.11,0,3.71,1.63,4.94,3.65,4.94,1.08-.1,2.12-.44,3.05-1h0Zm8.85.06h4.28v3.85h-4.28v-3.85Z" fill="#fff"></path><path d="m207.41,12.2c9.25-.12,17.89,4.58,22.82,12.4,3.9,6.77,4.76,17.8,4.76,25.1s-.86,18.33-4.76,25.1c-4.93,7.82-13.58,12.52-22.82,12.4H62.59c-9.25.12-17.89-4.58-22.82-12.4-3.9-6.77-4.76-17.79-4.76-25.1s.86-18.33,4.76-25.1c4.93-7.82,13.58-12.52,22.82-12.4h144.83Zm-48.45,33.37c.14-4.79,1.05-6.37,5.94-6.37,4.02,0,6.26.42,6.26,6v.38h-12.2m-85.58-6.01c-4.73,0-5.68,1.46-5.81,6.15h11.96v-.27c0-5.49-2.15-5.88-6.14-5.88m-16.9,10.35c0-13.55,3.02-17.93,17.1-17.93,13.16,0,17.03,3.59,17.03,17.93v1.7h-23.04v.27c0,6.27.98,8.32,6.02,8.32,3.49,0,6.02-.38,6.14-4.13h10.89c-.06,5.11-1.77,7.98-4.66,9.66-2.98,1.65-7.23,2.06-12.37,2.06-13.82,0-17.1-4.72-17.1-17.87m41.47-6.56c0-11.15,7.18-11.37,17.1-11.37,6.61,0,15.41.11,15.41,8.53v1.43h-10.45c-.51-2.78-2.73-2.98-4.96-2.98-6.09,0-6.35.76-6.35,3.11,0,1.99.35,3.24,6.35,3.38,12.07.27,17.11.96,17.11,10.63,0,10.15-7.76,11.71-17.1,11.71-2.29,0-4.52.01-6.57-.15-6.78-.54-10.44-3.07-10.53-10.82h11.09c.13,3.93,3.1,3.99,6.01,3.99,5.23,0,6.35-.33,6.35-3.38,0-1.82-.53-2.83-1.68-3.33-1.52-.42-3.1-.58-4.67-.47-14.68,0-17.1-3.28-17.1-10.29m90.99-3.38h8.11v27.41h11.09v-27.42h8.1v-7.99h-27.3v8Zm-40.84,9.69c0,13.09,3.24,17.75,16.99,17.75,5.14,0,9.37-.41,12.32-2.05,2.82-1.64,4.52-4.43,4.6-9.44h-10.67c-.16,3.75-2.8,4.13-6.25,4.13-5.13,0-6.12-2.15-6.12-8.43v-.38h23.04v-1.59c0-14.28-3.83-17.82-16.92-17.82-14.01,0-16.99,4.32-16.99,17.82m-99.75,24.31c3.52,3.79,10.28,6.62,16.07,6.63h74.69V18.79h-74.69c-5.79.01-12.55,2.84-16.07,6.63-5.56,5.98-6.77,15.36-6.77,24.28s1.22,18.3,6.77,24.28M222.76,8.08c-.04,2.17.83,4.25,2.39,5.75,3.16,3.13,8.26,3.13,11.42,0,1.55-1.5,2.42-3.56,2.4-5.72v-.02c.01-2.14-.85-4.2-2.4-5.68-1.48-1.55-3.53-2.42-5.68-2.4h0c-2.17-.05-4.26.82-5.75,2.4-1.56,1.48-2.42,3.54-2.39,5.68h0Zm8.11-6.34c1.67-.03,3.27.63,4.42,1.83,1.21,1.18,1.88,2.81,1.86,4.5.03,1.69-.65,3.32-1.86,4.5-1.15,1.22-2.75,1.9-4.42,1.87-1.68.03-3.3-.65-4.46-1.87-1.21-1.18-1.87-2.81-1.84-4.5-.02-1.69.64-3.31,1.84-4.5,1.17-1.21,2.79-1.87,4.46-1.83Zm-1.27,7.21h.81l2.39,2.98h2.56l-3.04-3.48c.5-.19.94-.5,1.29-.9.34-.4.51-.91.48-1.44.02-.39-.07-.77-.25-1.11-.2-.31-.49-.57-.82-.74-.31-.18-.66-.29-1.02-.33-.45-.06-.91-.08-1.36-.07h-3.05v8.07h1.96l.04-2.97Zm0-3.7h.64c.24,0,.47,0,.71.04.18,0,.36.05.52.13.16.08.29.21.36.38.08.13.12.28.11.43,0,.2-.03.41-.1.6-.07.15-.18.28-.31.39-.18.12-.38.2-.59.25-.28.03-.57.05-.85.05h-.48v-2.27Z" fill="#fff"></path><g id="logo-colored"><path d="m204.59,13.95c8.91-.11,17.23,4.41,21.99,11.95,3.76,6.52,4.59,17.15,4.59,24.18s-.83,17.66-4.59,24.18c-4.75,7.53-13.08,12.06-21.99,11.95H65.07c-8.91.11-17.23-4.41-21.99-11.95-3.76-6.52-4.59-17.14-4.59-24.18s.83-17.66,4.59-24.18c4.75-7.54,13.08-12.06,21.99-11.95h139.52Z" fill="#fff"></path><path d="m207.41,12.2c9.25-.12,17.89,4.58,22.82,12.4,3.9,6.77,4.76,17.8,4.76,25.1s-.86,18.33-4.76,25.1c-4.93,7.82-13.58,12.52-22.82,12.4H62.59c-9.25.12-17.89-4.58-22.82-12.4-3.9-6.77-4.76-17.79-4.76-25.1s.86-18.33,4.76-25.1c4.93-7.82,13.58-12.52,22.82-12.4h144.83Zm-48.45,33.37c.14-4.79,1.05-6.37,5.94-6.37,4.02,0,6.26.42,6.26,6v.38h-12.2m-85.58-6.01c-4.73,0-5.68,1.46-5.81,6.15h11.96v-.27c0-5.49-2.15-5.88-6.14-5.88m-16.9,10.35c0-13.55,3.02-17.93,17.1-17.93,13.16,0,17.03,3.59,17.03,17.93v1.7h-23.04v.27c0,6.27.98,8.32,6.02,8.32,3.49,0,6.02-.38,6.14-4.13h10.89c-.06,5.11-1.77,7.98-4.66,9.66-2.98,1.65-7.23,2.06-12.37,2.06-13.82,0-17.1-4.72-17.1-17.87m41.47-6.56c0-11.15,7.18-11.37,17.1-11.37,6.61,0,15.41.11,15.41,8.53v1.43h-10.45c-.51-2.78-2.73-2.98-4.96-2.98-6.09,0-6.35.76-6.35,3.11,0,1.99.35,3.24,6.35,3.38,12.07.27,17.11.96,17.11,10.63,0,10.15-7.76,11.71-17.1,11.71-2.29,0-4.52.01-6.57-.15-6.78-.54-10.44-3.07-10.53-10.82h11.09c.13,3.93,3.1,3.99,6.01,3.99,5.23,0,6.35-.33,6.35-3.38,0-1.82-.53-2.83-1.68-3.33-1.52-.42-3.1-.58-4.67-.47-14.68,0-17.1-3.28-17.1-10.29m90.99-3.38h8.11v27.41h11.09v-27.42h8.1v-7.99h-27.3v8Zm-40.84,9.69c0,13.09,3.24,17.75,16.99,17.75,5.14,0,9.37-.41,12.32-2.05,2.82-1.64,4.52-4.43,4.6-9.44h-10.67c-.16,3.75-2.8,4.13-6.25,4.13-5.13,0-6.12-2.15-6.12-8.43v-.38h23.04v-1.59c0-14.28-3.83-17.82-16.92-17.82-14.01,0-16.99,4.32-16.99,17.82m-99.75,24.31c3.52,3.79,10.28,6.62,16.07,6.63h74.69V18.79h-74.69c-5.79.01-12.55,2.84-16.07,6.63-5.56,5.98-6.77,15.36-6.77,24.28s1.22,18.3,6.77,24.28M222.76,8.08c-.04,2.17.83,4.25,2.39,5.75,3.16,3.13,8.26,3.13,11.42,0,1.55-1.5,2.42-3.56,2.4-5.72v-.02c.01-2.14-.85-4.2-2.4-5.68-1.48-1.55-3.53-2.42-5.68-2.4h0c-2.17-.05-4.26.82-5.75,2.4-1.56,1.48-2.42,3.54-2.39,5.68h0Zm8.11-6.34c1.67-.03,3.27.63,4.42,1.83,1.21,1.18,1.88,2.81,1.86,4.5.03,1.69-.65,3.32-1.86,4.5-1.15,1.22-2.75,1.9-4.42,1.87-1.68.03-3.3-.65-4.46-1.87-1.21-1.18-1.87-2.81-1.84-4.5-.02-1.69.64-3.31,1.84-4.5,1.17-1.21,2.79-1.87,4.46-1.83Zm-1.27,7.21h.81l2.39,2.98h2.56l-3.04-3.48c.5-.19.94-.5,1.29-.9.34-.4.51-.91.48-1.44.02-.39-.07-.77-.25-1.11-.2-.31-.49-.57-.82-.74-.31-.18-.66-.29-1.02-.33-.45-.06-.91-.08-1.36-.07h-3.05v8.07h1.96l.04-2.97Zm0-3.7h.64c.24,0,.47,0,.71.04.18,0,.36.05.52.13.16.08.29.21.36.38.08.13.12.28.11.43,0,.2-.03.41-.1.6-.07.15-.18.28-.31.39-.18.12-.38.2-.59.25-.28.03-.57.05-.85.05h-.48v-2.27Z" fill="#0096a1"></path></g></svg>