<?xml version="1.0" encoding="UTF-8"?>
<svg version="1.1" xmlns="http://www.w3.org/2000/svg" width="1452" height="1452">
<path d="M0 0 C1.51046274 -0.00702261 3.02092517 -0.01410943 4.53138733 -0.02125549 C9.33082509 -0.04065088 14.1302145 -0.04568957 18.9296875 -0.046875 C19.74755863 -0.04731686 20.56542976 -0.04775871 21.40808487 -0.04821396 C45.25962235 -0.05497196 68.96268436 0.10657551 92.6763916 2.94989014 C94.9222599 3.21711433 97.16938225 3.47100993 99.41699219 3.72314453 C149.03355119 9.3458519 197.4766056 20.31239504 244.8046875 36.203125 C246.65126953 36.8213916 246.65126953 36.8213916 248.53515625 37.45214844 C276.39778271 46.87895308 303.1919433 58.51863594 329.52148438 71.57910156 C332.56115246 73.08266135 335.61025668 74.56448663 338.6640625 76.0390625 C352.45506026 82.74437435 365.6749186 90.2887187 378.8046875 98.203125 C380.18817383 99.03529541 380.18817383 99.03529541 381.59960938 99.88427734 C394.30742596 107.5586856 406.64884393 115.68412869 418.8046875 124.203125 C419.41296387 124.62625977 420.02124023 125.04939453 420.64794922 125.48535156 C440.83501926 139.54102287 460.53396102 154.64240919 478.68359375 171.26171875 C480.69902288 173.10641171 482.74277559 174.91069069 484.8046875 176.703125 C486.13851548 177.86922611 487.47182789 179.03591716 488.8046875 180.203125 C489.92423828 181.18152344 489.92423828 181.18152344 491.06640625 182.1796875 C497.76725021 188.11441243 504.08318747 194.38885202 510.37109375 200.75317383 C513.95823119 204.3812408 517.58099452 207.97335553 521.203125 211.56640625 C522.86204448 213.21608016 524.52089682 214.86582158 526.1796875 216.515625 C527.0046875 217.33224609 527.8296875 218.14886719 528.6796875 218.99023438 C533.60425263 223.89525758 538.30106709 228.91024652 542.8046875 234.203125 C543.74290092 235.28566671 544.68167579 236.36772216 545.62109375 237.44921875 C558.96554144 252.92502111 571.69307622 268.74089977 583.8046875 285.203125 C584.37074707 285.9677002 584.93680664 286.73227539 585.52001953 287.52001953 C605.94474269 315.13865751 624.00200895 344.71357926 639.8046875 375.203125 C640.40522949 376.36038086 641.00577148 377.51763672 641.62451172 378.70996094 C650.84207314 396.54025181 659.24193464 414.59967824 666.8046875 433.203125 C667.44349854 434.77030273 667.44349854 434.77030273 668.09521484 436.36914062 C698.78328243 512.31762133 717.7738129 595.49686735 718.0078125 677.6171875 C718.01483437 679.15016203 718.02192119 680.68313627 718.02906799 682.21611023 C718.04846437 687.08678611 718.05350187 691.95741439 718.0546875 696.828125 C718.05512936 697.6577261 718.05557121 698.48732719 718.05602646 699.34206772 C718.06273345 723.34805598 717.96847747 747.2333431 715.06115723 771.09765625 C714.7900316 773.32344154 714.52904047 775.55028972 714.26855469 777.77734375 C710.32916431 811.04428766 704.34389979 843.80873771 695.8046875 876.203125 C695.62013 876.90352905 695.43557251 877.60393311 695.24542236 878.32556152 C679.15597074 939.08013696 655.07668978 998.47564464 622.54296875 1052.32519531 C620.7740685 1055.25381836 619.02305827 1058.19263853 617.2734375 1061.1328125 C609.89011696 1073.47437951 602.11816267 1085.4686623 593.8046875 1097.203125 C593.25393555 1097.98059082 592.70318359 1098.75805664 592.13574219 1099.55908203 C575.74847017 1122.60873597 558.20569269 1144.90765685 539.0546875 1165.734375 C537.17588549 1167.79583832 535.35749996 1169.8883063 533.5546875 1172.015625 C528.48752017 1177.85862656 522.87588224 1183.20804415 517.38061523 1188.64355469 C513.71196114 1192.2741298 510.07631164 1195.93726949 506.44140625 1199.6015625 C504.79173234 1201.26048198 503.14199092 1202.91933432 501.4921875 1204.578125 C500.67556641 1205.403125 499.85894531 1206.228125 499.01757812 1207.078125 C494.11255492 1212.00269013 489.09756598 1216.69950459 483.8046875 1221.203125 C482.72214579 1222.14133842 481.64009034 1223.08011329 480.55859375 1224.01953125 C446.54950811 1253.34409693 410.54006258 1279.46745889 371.8046875 1302.203125 C370.97388672 1302.69474121 370.14308594 1303.18635742 369.28710938 1303.69287109 C296.56658563 1346.55305623 215.11547897 1374.96158876 41.234375 1396.40625 C40.46687046 1396.40907738 39.69936592 1396.41190475 38.90860367 1396.41481781 C34.82643564 1396.42969537 30.74430174 1396.43899015 26.66210938 1396.44335938 C23.37976639 1396.44769038 20.09769426 1396.46138683 16.81542969 1396.484375 C-13.35288188 1396.69107413 -43.28715849 1395.08937767 -73.1953125 1390.953125 C-73.95628235 1390.85019135 -74.7172522 1390.74725769 -75.50128174 1390.64120483 C-119.36454746 1384.6720414 -162.24592573 1374.28792097 -204.1953125 1360.203125 C-205.42636719 1359.79094727 -206.65742188 1359.37876953 -207.92578125 1358.95410156 C-235.78840771 1349.52729692 -262.5825683 1337.88761406 -288.91210938 1324.82714844 C-291.95177746 1323.32358865 -295.00088168 1321.84176337 -298.0546875 1320.3671875 C-311.84568526 1313.66187565 -325.0655436 1306.1175313 -338.1953125 1298.203125 C-339.11763672 1297.64834473 -340.03996094 1297.09356445 -340.99023438 1296.52197266 C-353.69805096 1288.8475644 -366.03946893 1280.72212131 -378.1953125 1272.203125 C-379.10772705 1271.56842285 -379.10772705 1271.56842285 -380.03857422 1270.92089844 C-400.22564426 1256.86522713 -419.92458602 1241.76384081 -438.07421875 1225.14453125 C-440.08964788 1223.29983829 -442.13340059 1221.49555931 -444.1953125 1219.703125 C-445.52914048 1218.53702389 -446.86245289 1217.37033284 -448.1953125 1216.203125 C-448.94167969 1215.55085938 -449.68804687 1214.89859375 -450.45703125 1214.2265625 C-457.15787521 1208.29183757 -463.47381247 1202.01739798 -469.76171875 1195.65307617 C-473.34885619 1192.0250092 -476.97161952 1188.43289447 -480.59375 1184.83984375 C-482.25266948 1183.19016984 -483.91152182 1181.54042842 -485.5703125 1179.890625 C-486.8078125 1178.66569336 -486.8078125 1178.66569336 -488.0703125 1177.41601562 C-492.99487763 1172.51099242 -497.69169209 1167.49600348 -502.1953125 1162.203125 C-503.13352592 1161.12058329 -504.07230079 1160.03852784 -505.01171875 1158.95703125 C-518.35616644 1143.48122889 -531.08370122 1127.66535023 -543.1953125 1111.203125 C-543.76137207 1110.4385498 -544.32743164 1109.67397461 -544.91064453 1108.88623047 C-565.33536769 1081.26759249 -583.39263395 1051.69267074 -599.1953125 1021.203125 C-600.09612549 1019.46724121 -600.09612549 1019.46724121 -601.01513672 1017.69628906 C-610.23269814 999.86599819 -618.63255964 981.80657176 -626.1953125 963.203125 C-626.62118652 962.15833984 -627.04706055 961.11355469 -627.48583984 960.03710938 C-658.17390743 884.08862867 -677.1644379 800.90938265 -677.3984375 718.7890625 C-677.40545937 717.25608797 -677.41254619 715.72311373 -677.41969299 714.19013977 C-677.43908937 709.31946389 -677.44412687 704.44883561 -677.4453125 699.578125 C-677.44575436 698.7485239 -677.44619621 697.91892281 -677.44665146 697.06418228 C-677.45335845 673.05819402 -677.35910247 649.1729069 -674.45178223 625.30859375 C-674.1806566 623.08280846 -673.91966547 620.85596028 -673.65917969 618.62890625 C-664.85680525 544.29555288 -644.93424496 472.06744669 -581.93359375 344.08105469 C-580.1646935 341.15243164 -578.41368327 338.21361147 -576.6640625 335.2734375 C-569.28074196 322.93187049 -561.50878767 310.9375877 -553.1953125 299.203125 C-552.36918457 298.03692627 -552.36918457 298.03692627 -551.52636719 296.84716797 C-535.13909517 273.79751403 -517.59631769 251.49859315 -498.4453125 230.671875 C-496.56651049 228.61041168 -494.74812496 226.5179437 -492.9453125 224.390625 C-487.87814517 218.54762344 -482.26650724 213.19820585 -476.77124023 207.76269531 C-473.10258614 204.1321202 -469.46693664 200.46898051 -465.83203125 196.8046875 C-464.18235734 195.14576802 -462.53261592 193.48691568 -460.8828125 191.828125 C-460.06619141 191.003125 -459.24957031 190.178125 -458.40820312 189.328125 C-453.50317992 184.40355987 -448.48819098 179.70674541 -443.1953125 175.203125 C-442.11277079 174.26491158 -441.03071534 173.32613671 -439.94921875 172.38671875 C-405.94013311 143.06215307 -369.93068758 116.93879111 -331.1953125 94.203125 C-330.36451172 93.71150879 -329.53371094 93.21989258 -328.67773438 92.71337891 C-255.95724394 49.8532134 -174.5060775 21.4445701 0 0 Z " fill="#12238C" transform="translate(705.1953125,27.796875)"/>
<path d="M0 0 C6.28842647 3.20564546 10.74320072 7.77563784 15.2734375 13.07421875 C20.70439493 19.42511387 26.3383812 25.52608919 32.29296875 31.38671875 C34.15560699 33.28008092 35.89584555 35.23464068 37.625 37.25 C40.19415271 40.24051716 42.88067256 43.04366684 45.6875 45.8125 C49.1163279 49.19491399 52.30798518 52.69320442 55.44140625 56.34765625 C57.28365675 58.42070324 59.21151662 60.36685802 61.1875 62.3125 C63.78732183 64.87240134 66.25018398 67.4802954 68.625 70.25 C71.19415271 73.24051716 73.88067256 76.04366684 76.6875 78.8125 C80.0946879 82.17364482 83.26208174 85.64951203 86.375 89.28125 C89.11527083 92.35224317 92.06696902 95.20036876 94.99609375 98.08984375 C97.60851068 100.7395144 100.02052621 103.52422803 102.44140625 106.34765625 C104.28365675 108.42070324 106.21151662 110.36685802 108.1875 112.3125 C110.78732183 114.87240134 113.25018398 117.4802954 115.625 120.25 C118.19415271 123.24051716 120.88067256 126.04366684 123.6875 128.8125 C127.1163279 132.19491399 130.30798518 135.69320442 133.44140625 139.34765625 C135.90987329 142.12537196 138.56389693 144.69852786 141.2109375 147.3046875 C143.77030625 149.90452058 146.134344 152.64865647 148.51171875 155.4140625 C150.95018691 158.17652294 153.55059585 160.73991059 156.1875 163.3125 C159.86439348 161.80530493 161.8638138 159.67779009 164.4375 156.6875 C167.30763139 153.41272714 170.20322983 150.23627853 173.3125 147.1875 C176.52081229 144.02991202 179.47365748 140.7249713 182.40625 137.3125 C184.2617521 135.22912922 186.19973101 133.26968793 188.1875 131.3125 C190.78732183 128.75259866 193.25018398 126.1447046 195.625 123.375 C198.89880653 119.56425937 202.42113971 116.06171835 205.99609375 112.53515625 C208.60851068 109.8854856 211.02052621 107.10077197 213.44140625 104.27734375 C215.91353418 101.49550852 218.57180547 98.91874049 221.22265625 96.30859375 C223.10980744 94.39142823 224.87435375 92.41674678 226.625 90.375 C229.19415271 87.38448284 231.88067256 84.58133316 234.6875 81.8125 C237.47371141 79.0639401 240.14058392 76.28390209 242.6875 73.3125 C245.93794651 69.52031241 249.44199569 66.04114469 252.99609375 62.53515625 C255.60851068 59.8854856 258.02052621 57.10077197 260.44140625 54.27734375 C262.91353418 51.49550852 265.57180547 48.91874049 268.22265625 46.30859375 C270.10980744 44.39142823 271.87435375 42.41674678 273.625 40.375 C276.89880653 36.56425937 280.42113971 33.06171835 283.99609375 29.53515625 C286.60851068 26.8854856 289.02052621 24.10077197 291.44140625 21.27734375 C293.90949057 18.5000587 296.56056851 15.92614392 299.21484375 13.328125 C301.17974423 11.32042471 302.95934581 9.22570641 304.75 7.0625 C308.79216684 2.35434686 313.72274779 -1.08681754 320.04229736 -1.93704224 C328.14649569 -2.23989986 335.68144053 -0.08453561 343.44260406 1.96282578 C346.97468853 2.89384976 350.51373586 3.79700435 354.05260849 4.70182228 C355.92628849 5.18093657 357.7996493 5.66130073 359.67270279 6.14285851 C369.71962732 8.72130367 379.80211912 11.14508118 389.890625 13.5546875 C391.77830491 14.00666929 393.66595921 14.45875806 395.55358887 14.91094971 C399.46973668 15.84867819 403.38613869 16.78533536 407.30273438 17.72119141 C417.06246923 20.05339594 426.82060331 22.39228594 436.57878113 24.73099518 C438.87646529 25.28167041 441.17416434 25.83228347 443.47187805 26.38283539 C469.83265991 32.69952272 496.18220988 39.06254681 522.53100204 45.42902756 C563.64660217 55.36325974 604.7692171 65.26768709 645.90209961 75.13012695 C647.4190294 75.49384746 647.4190294 75.49384746 648.96660423 75.86491585 C650.96127075 76.3430925 652.95597158 76.82112599 654.95070839 77.29900932 C659.65070127 78.42517093 664.3501334 79.55354892 669.04818726 80.68777466 C676.33831606 82.44594834 683.62710817 84.2012924 690.94493389 85.84110355 C693.00848675 86.30389595 695.07034864 86.77357524 697.1318512 87.2454071 C699.53684406 87.79285949 701.94509149 88.32634039 704.35728455 88.84114075 C713.30071702 90.89766805 721.16674019 94.49077602 726.2578125 102.4609375 C729.19940958 108.31941236 730.49327611 115.27015055 728.453125 121.5859375 C725.56510088 128.22002189 721.05688634 132.8226826 715.89453125 137.71484375 C713.61972847 139.89773531 711.54079957 142.10264694 709.5 144.5 C706.55024828 147.95663029 703.38890926 151.12953848 700.15234375 154.31640625 C698.26519256 156.23357177 696.50064625 158.20825322 694.75 160.25 C692.18084729 163.24051716 689.49432744 166.04366684 686.6875 168.8125 C683.90128859 171.5610599 681.23441608 174.34109791 678.6875 177.3125 C675.43705349 181.10468759 671.93300431 184.58385531 668.37890625 188.08984375 C665.76648932 190.7395144 663.35447379 193.52422803 660.93359375 196.34765625 C658.46146582 199.12949148 655.80319453 201.70625951 653.15234375 204.31640625 C651.26519256 206.23357177 649.50064625 208.20825322 647.75 210.25 C645.18084729 213.24051716 642.49432744 216.04366684 639.6875 218.8125 C636.90128859 221.5610599 634.23441608 224.34109791 631.6875 227.3125 C628.43705349 231.10468759 624.93300431 234.58385531 621.37890625 238.08984375 C618.76648932 240.7395144 616.35447379 243.52422803 613.93359375 246.34765625 C611.46146582 249.12949148 608.80319453 251.70625951 606.15234375 254.31640625 C604.26519256 256.23357177 602.50064625 258.20825322 600.75 260.25 C597.47619347 264.06074063 593.95386029 267.56328165 590.37890625 271.08984375 C587.77351488 273.73238866 585.36441686 276.50335801 582.96484375 279.33203125 C580.36020659 282.23434123 577.48663387 284.84089404 574.59375 287.453125 C573.00583918 289.17383013 573.00583918 289.17383013 573.15234375 291.19140625 C574.65803387 294.27665053 576.89197916 296.55425292 579.25 299 C579.77948242 299.56106445 580.30896484 300.12212891 580.85449219 300.70019531 C582.01278661 301.92650702 583.17422757 303.1498524 584.33837891 304.37060547 C586.2278431 306.35486718 588.10562754 308.34957707 589.98046875 310.34765625 C593.35600248 313.94449508 596.73848169 317.53470731 600.12304688 321.12304688 C603.48046414 324.68375147 606.83382592 328.24827029 610.1875 331.8125 C614.19865458 336.07475021 618.21012245 340.33670439 622.22265625 344.59765625 C629.3390376 352.15536358 636.44769923 359.72016598 643.54541016 367.29541016 C650.74686773 374.97960487 657.96745125 382.64577834 665.1875 390.3125 C673.64739678 399.29577367 682.1027532 408.28315471 690.53881836 417.28881836 C694.44362117 421.45609446 698.35547725 425.6166181 702.27270508 429.7722168 C704.28414248 431.90739792 706.29263625 434.0453164 708.30078125 436.18359375 C710.84876396 438.89571617 713.40945284 441.59486986 715.98046875 444.28515625 C717.15377723 445.52331299 718.3269608 446.76158813 719.5 448 C720.03318848 448.55187988 720.56637695 449.10375977 721.11572266 449.67236328 C726.58434421 455.47619868 728.65128083 460.75463707 729.5625 468.5 C728.83951631 475.85033415 724.97004579 482.83828766 719.425354 487.74777222 C709.66705492 494.57086329 693.57461366 495.99453592 682.140625 498.7421875 C679.9994077 499.25983672 677.85827571 499.77783892 675.71722412 500.2961731 C670.09882048 501.65533099 664.47925832 503.00963674 658.85943604 504.36291504 C653.21936487 505.72200469 647.58044512 507.08585365 641.94140625 508.44921875 C621.98765729 513.27159083 621.98765729 513.27159083 614.03996658 515.18029594 C608.78879847 516.44164879 603.54076223 517.71468488 598.29577637 519.00152588 C596.58387934 519.41895648 596.58387934 519.41895648 594.83739853 519.84482002 C592.63233287 520.38255718 590.42811754 520.92379677 588.22488785 521.46900749 C587.23187542 521.71030954 586.23886299 521.9516116 585.21575928 522.20022583 C584.33980984 522.4153438 583.4638604 522.63046177 582.56136703 522.85209846 C580.1875 523.3125 580.1875 523.3125 576.1875 523.3125 C576.19395255 524.58563962 576.2004051 525.85877924 576.20705318 527.17049885 C576.3587838 557.41832599 576.47414614 587.66605011 576.54495731 617.91416668 C576.55371185 621.64028822 576.56277215 625.36640895 576.57202148 629.0925293 C576.57385766 629.83430696 576.57569383 630.57608462 576.57758565 631.3403404 C576.60801311 643.33814066 576.66318737 655.33570522 576.72756957 667.33336584 C576.79311922 679.65166942 576.83193018 691.96984989 576.84611946 704.28832072 C576.85570611 711.88456552 576.88594077 719.48014403 576.94291527 727.07618364 C576.98442561 732.90897009 576.98866398 738.74141789 576.97925377 744.57435608 C576.98117534 746.96119975 576.99504381 749.34806927 577.02193832 751.73476219 C577.2707427 774.95868367 577.2707427 774.95868367 569.1875 783.3125 C568.57557517 783.95044904 567.96365034 784.58839808 567.33318233 785.2456789 C560.85523446 791.65668108 551.34822883 793.14240985 542.76953125 795.1640625 C540.29840634 795.75701804 537.82729736 796.35003998 535.35620117 796.94311523 C533.9960861 797.26774907 532.63592666 797.59219705 531.27572632 797.91647339 C523.52624942 799.76525574 515.78256389 801.63809371 508.0390625 803.51171875 C507.16144697 803.72396906 506.28383144 803.93621937 505.37962151 804.1549015 C477.65191572 810.86557008 449.97240743 817.77340682 422.28643417 824.65374756 C417.8596059 825.75386501 413.43269862 826.85366432 409.00576782 827.95336914 C407.90846632 828.22595257 407.90846632 828.22595257 406.78899711 828.50404274 C404.57979185 829.05283123 402.37058469 829.60161208 400.16137695 830.15039062 C398.70063432 830.51324906 397.23989168 830.87610752 395.77914906 831.23896599 C393.60751712 831.77841353 391.43588442 832.31785797 389.26424938 832.85729301 C385.69565844 833.74373409 382.12707756 834.6302156 378.55851936 835.51678848 C356.44012212 841.01181224 334.31765521 846.49001041 312.1875 851.9375 C311.51102795 852.10402321 310.83455589 852.27054642 310.13758469 852.44211578 C308.78063032 852.7761443 307.4236748 853.11016811 306.0667181 853.44418716 C302.66425143 854.2817248 299.26180742 855.11935446 295.859375 855.95703125 C295.18632891 856.12271606 294.51328281 856.28840088 293.81984138 856.45910645 C280.50742258 859.73665062 267.19886812 863.02976642 253.890625 866.32421875 C251.76119142 866.85128431 249.6317562 867.37834323 247.50231934 867.90539551 C238.11140802 870.22982137 228.72060671 872.55468749 219.33031082 874.88159847 C215.47070178 875.83780721 211.61090251 876.79324639 207.75106049 877.74851418 C205.97078874 878.18929205 204.19059746 878.63039513 202.41049957 879.07187462 C197.51498725 880.28594007 192.61798297 881.49361446 187.71861267 882.69202042 C185.94795597 883.12608104 184.17782546 883.56229122 182.40809631 884.00011826 C179.5751891 884.70004533 176.74046027 885.39213564 173.90527344 886.08276367 C173.04142658 886.29769376 172.17757973 886.51262384 171.28755569 886.73406696 C161.30478778 889.14646837 152.65095632 889.13892194 142.6484375 886.48046875 C141.22284026 886.11282029 139.79697234 885.74621998 138.37084961 885.38061523 C137.66386932 885.19860565 136.95688904 885.01659607 136.22848511 884.82907104 C133.2962656 884.08692957 130.35099497 883.40792477 127.40234375 882.734375 C113.13721656 879.46172864 98.92247411 876.01810922 84.73828125 872.41015625 C84.0539395 872.23609882 83.36959774 872.0620414 82.66451836 871.8827095 C75.71075525 870.11306892 68.75874499 868.33666839 61.80889034 866.55174065 C44.06930472 861.99195251 44.06930472 861.99195251 26.234375 857.82421875 C17.45823737 855.87752442 8.74067632 853.7236473 0.03125 851.5 C-0.6320507 851.33069662 -1.29535141 851.16139324 -1.97875214 850.98695946 C-7.4470301 849.58998195 -12.91344624 848.18577111 -18.37982178 846.78137207 C-23.13779184 845.55928831 -27.89644248 844.33990871 -32.65625 843.125 C-33.6524511 842.87065689 -33.6524511 842.87065689 -34.66877747 842.61117554 C-42.69278149 840.56634732 -50.72806378 838.60497336 -58.8125 836.8125 C-67.57311262 834.87010547 -76.27490948 832.71965067 -84.96875 830.5 C-85.63211868 830.33067963 -86.29548737 830.16135925 -86.97895813 829.98690796 C-92.44716743 828.58994765 -97.91351479 827.1857535 -103.37982178 825.78137207 C-108.13779183 824.55928831 -112.89643836 823.33989257 -117.65625 822.125 C-118.32106951 821.95527176 -118.98588902 821.78554352 -119.67085457 821.610672 C-127.65137714 819.57704619 -135.64267227 817.62505976 -143.68359375 815.84375 C-157.92227998 812.68775123 -172.03072407 808.99672825 -186.15771484 805.38006592 C-192.0183568 803.87989774 -197.8798001 802.38287257 -203.74194145 800.8885746 C-205.16068918 800.52686126 -206.57936684 800.16487295 -207.99797249 799.80260277 C-217.48270372 797.38171201 -226.97918081 795.02286992 -236.52687073 792.8605957 C-245.49026598 790.79431364 -252.21441119 788.17665479 -257.65625 780.47265625 C-260.9182847 774.37838197 -261.09432675 768.88540229 -261.05300903 762.13796997 C-261.05471788 761.11603888 -261.05642673 760.0941078 -261.05818737 759.0412091 C-261.06148023 755.61870988 -261.05048175 752.19640693 -261.03955078 748.77392578 C-261.03898662 746.31987004 -261.03930331 743.86581397 -261.04043579 741.41175842 C-261.04089115 736.12925826 -261.03522023 730.84681913 -261.02396011 725.56433487 C-261.00769061 717.92680467 -261.00249562 710.28929835 -260.99998413 702.6517527 C-260.9956093 690.25968355 -260.98230596 677.86764077 -260.96337891 665.47558594 C-260.94501461 653.43945446 -260.9308608 641.40333016 -260.92236328 629.3671875 C-260.92183783 628.62500194 -260.92131239 627.88281638 -260.92077102 627.11814035 C-260.9181609 623.39473046 -260.91563349 619.67132052 -260.91314721 615.94791055 C-260.89242132 585.0694212 -260.85705266 554.19096461 -260.8125 523.3125 C-261.48339157 523.25209534 -262.15428314 523.19169067 -262.84550476 523.12945557 C-264.17821159 523.00398346 -264.17821159 523.00398346 -265.5378418 522.87597656 C-266.41498337 522.7949469 -267.29212494 522.71391724 -268.19584656 522.63043213 C-272.12048075 522.15357597 -275.82971111 521.14139105 -279.625 520.0625 C-281.29499311 519.60594677 -282.96558972 519.15159648 -284.63671875 518.69921875 C-285.91748291 518.35189697 -285.91748291 518.35189697 -287.22412109 517.99755859 C-291.44397818 516.88070149 -295.6885811 515.87457946 -299.9375 514.875 C-300.80318604 514.67092529 -301.66887207 514.46685059 -302.56079102 514.2565918 C-304.36824134 513.83085438 -306.17577908 513.40548791 -307.98339844 512.98046875 C-313.01318061 511.79290541 -318.0375995 510.58302137 -323.0625 509.375 C-325.18228698 508.86586589 -327.30207867 508.35675142 -329.421875 507.84765625 C-330.47826172 507.59387207 -331.53464844 507.34008789 -332.62304688 507.07861328 C-336.81479726 506.07174611 -341.00673718 505.06566983 -345.19873047 504.05981445 C-347.2707356 503.56252672 -349.34267598 503.06496913 -351.41455078 502.56713867 C-356.7463482 501.28631817 -362.07922526 500.01029167 -367.4140625 498.7421875 C-372.63827657 497.49930664 -377.85950301 496.24473187 -383.07763672 494.9765625 C-384.80514998 494.55709847 -386.53326603 494.1401023 -388.26220703 493.7265625 C-390.34474512 493.22577355 -392.42278389 492.7098533 -394.5 492.1875 C-396.14548828 491.78144531 -396.14548828 491.78144531 -397.82421875 491.3671875 C-405.24363989 488.74856827 -409.79840763 483.85452452 -413.625 477.125 C-415.73988339 470.33511122 -415.91039635 463.98466989 -413.0625 457.375 C-409.59518546 451.14374044 -404.31776603 446.53095232 -399.20166016 441.66845703 C-397.39949042 439.909362 -395.75426621 438.04425271 -394.125 436.125 C-390.94516539 432.38811407 -387.49539996 428.97938777 -384.00390625 425.53515625 C-381.39148932 422.8854856 -378.97947379 420.10077197 -376.55859375 417.27734375 C-374.08646582 414.49550852 -371.42819453 411.91874049 -368.77734375 409.30859375 C-366.89019256 407.39142823 -365.12564625 405.41674678 -363.375 403.375 C-360.80584729 400.38448284 -358.11932744 397.58133316 -355.3125 394.8125 C-352.52628859 392.0639401 -349.85941608 389.28390209 -347.3125 386.3125 C-344.06205349 382.52031241 -340.55800431 379.04114469 -337.00390625 375.53515625 C-334.39148932 372.8854856 -331.97947379 370.10077197 -329.55859375 367.27734375 C-327.08646582 364.49550852 -324.42819453 361.91874049 -321.77734375 359.30859375 C-319.89019256 357.39142823 -318.12564625 355.41674678 -316.375 353.375 C-313.80584729 350.38448284 -311.11932744 347.58133316 -308.3125 344.8125 C-305.52628859 342.0639401 -302.85941608 339.28390209 -300.3125 336.3125 C-297.06205349 332.52031241 -293.55800431 329.04114469 -290.00390625 325.53515625 C-287.39148932 322.8854856 -284.97947379 320.10077197 -282.55859375 317.27734375 C-280.0889064 314.49825486 -277.43346678 311.92389504 -274.78515625 309.31640625 C-272.24882422 306.7398947 -269.91022743 304.01823699 -267.5546875 301.27734375 C-264.78073079 298.14886791 -261.80866071 295.22669887 -258.8125 292.3125 C-260.16258357 289.32338056 -261.68157999 287.16616274 -263.9453125 284.80078125 C-264.57832275 284.13425537 -265.21133301 283.46772949 -265.86352539 282.78100586 C-266.89014282 281.71378296 -266.89014282 281.71378296 -267.9375 280.625 C-269.39725423 279.09125891 -270.85688627 277.55740151 -272.31640625 276.0234375 C-273.06422363 275.2406543 -273.81204102 274.45787109 -274.58251953 273.65136719 C-278.03117188 270.03432214 -281.45274432 266.39199874 -284.875 262.75 C-286.20960494 261.33200257 -287.54424028 259.91403375 -288.87890625 258.49609375 C-293.31545793 253.77959205 -297.74310235 249.05476645 -302.17041016 244.32958984 C-309.37186773 236.64539513 -316.59245125 228.97922166 -323.8125 221.3125 C-332.27452763 212.32696365 -340.73121269 203.33657563 -349.17041016 194.32958984 C-356.37186773 186.64539513 -363.59245125 178.97922166 -370.8125 171.3125 C-375.48742778 166.34835484 -380.16166711 161.38356573 -384.83349609 156.41650391 C-386.15913724 155.00713117 -387.48498556 153.59795328 -388.81103516 152.18896484 C-392.59524114 148.16702714 -396.3709003 144.1373685 -400.13769531 140.09912109 C-401.70453987 138.42766796 -403.2838825 136.76912395 -404.8671875 135.11328125 C-411.05413684 128.5407684 -414.80174454 124.18436985 -415.25 114.9375 C-415.00800385 107.57678391 -412.6135784 102.00659958 -407.75 96.5 C-398.98292329 88.69451376 -384.92423553 87.24378389 -373.80078125 84.62109375 C-371.88402821 84.1639824 -369.96742151 83.70625705 -368.0509491 83.24797058 C-363.9210578 82.26161006 -359.79025522 81.27919673 -355.65869141 80.29986572 C-348.99742797 78.72073898 -342.3383658 77.13246797 -335.6796875 75.54248047 C-333.37137199 74.99137906 -331.06305286 74.44029277 -328.75473022 73.88922119 C-327.59717602 73.61287086 -326.43962181 73.33652054 -325.2469902 73.05179596 C-321.67292404 72.19889201 -318.09865226 71.34685477 -314.52432251 70.49505615 C-291.09773223 64.91129952 -267.68536771 59.26905704 -244.27493286 53.61801147 C-233.75819359 51.07940228 -223.24084446 48.54332172 -212.72353172 46.00708961 C-209.19680393 45.15660966 -205.67009467 44.30605284 -202.14338684 43.45549011 C-175.82653511 37.10877958 -149.50712224 30.77270975 -123.1875 24.4375 C-121.00252274 23.91156026 -118.81754552 23.38562032 -116.63256836 22.85968018 C-112.41275013 21.84394217 -108.19291973 20.82825477 -103.9730835 19.81259155 C-99.87948928 18.82729545 -95.78594626 17.84178707 -91.69244385 16.85610962 C-81.66617088 14.44208649 -71.6393786 12.03025822 -61.61141777 9.62325478 C-56.5791951 8.41522566 -51.54720936 7.20621138 -46.51524734 5.99709702 C-44.08736074 5.41398995 -41.65936062 4.83135526 -39.23124313 4.24921036 C-35.86953467 3.4432005 -32.5082136 2.63559363 -29.14697266 1.82763672 C-28.14134907 1.5869685 -27.13572548 1.34630028 -26.09962845 1.09833908 C-25.17928188 0.87678776 -24.25893532 0.65523643 -23.31069946 0.42697144 C-22.50999842 0.23481993 -21.70929737 0.04266842 -20.88433266 -0.15530586 C-13.64104544 -2.01589773 -7.15300439 -3.01179132 0 0 Z " fill="#231F20" transform="translate(564.8125,326.6875)"/>
<path d="M0 0 C3.36937448 0.57991413 4.96552427 1.60349679 7.3125 4.0625 C7.91964844 4.69542969 8.52679687 5.32835937 9.15234375 5.98046875 C11.5265938 8.57557927 13.82235897 11.23314338 16.1171875 13.8984375 C18.16722274 16.18665111 20.31295092 18.34260582 22.5 20.5 C25.9071879 23.86114482 29.07458174 27.33701203 32.1875 30.96875 C34.92777083 34.03974317 37.87946902 36.88786876 40.80859375 39.77734375 C43.42101068 42.4270144 45.83302621 45.21172803 48.25390625 48.03515625 C50.09615675 50.10820324 52.02401662 52.05435802 54 54 C56.59982183 56.55990134 59.06268398 59.1677954 61.4375 61.9375 C64.00665271 64.92801716 66.69317256 67.73116684 69.5 70.5 C72.9288279 73.88241399 76.12048518 77.38070442 79.25390625 81.03515625 C81.09615675 83.10820324 83.02401662 85.05435802 85 87 C87.59982183 89.55990134 90.06268398 92.1677954 92.4375 94.9375 C95.00665271 97.92801716 97.69317256 100.73116684 100.5 103.5 C103.9071879 106.86114482 107.07458174 110.33701203 110.1875 113.96875 C112.92777083 117.03974317 115.87946902 119.88786876 118.80859375 122.77734375 C121.42101068 125.4270144 123.83302621 128.21172803 126.25390625 131.03515625 C128.09615675 133.10820324 130.02401662 135.05435802 132 137 C135.18106623 140.13840826 138.14877436 143.3908712 141.06640625 146.7734375 C143.4526539 149.52123782 145.87552798 152.23476405 148.3125 154.9375 C149.15425781 155.87464844 149.99601563 156.81179688 150.86328125 157.77734375 C152.79867031 160.03886196 152.79867031 160.03886196 155 161 C155 161.66 155 162.32 155 163 C164.68700989 165.87022515 173.07216108 165.37499258 182.76928711 162.78588867 C184.14677344 162.43431544 184.14677344 162.43431544 185.55208778 162.07563972 C187.53169261 161.56916951 189.50994835 161.05740192 191.48694038 160.5408268 C195.75691536 159.4256749 200.03366751 158.33766381 204.31026745 157.24824429 C206.54315714 156.67937691 208.77572928 156.1092617 211.00799274 155.53794193 C222.33525072 152.64318779 233.69619221 149.89604362 245.06640625 147.17578125 C247.07625697 146.69389539 249.08609373 146.2119513 251.09591675 145.72994995 C256.20285848 144.50598347 261.31042912 143.28466182 266.41818237 142.06408691 C271.81036108 140.77519329 277.20202882 139.48416534 282.59375 138.19335938 C289.13391071 136.62771029 295.67412437 135.06228451 302.21463013 133.49807739 C314.98435994 130.4436366 327.75103425 127.37683397 340.51460075 124.29674339 C345.51567242 123.09031504 350.51730966 121.88623347 355.51895618 120.6821909 C359.36997625 119.75490539 363.22059705 118.82602523 367.07034302 117.89346313 C370.59875963 117.03875813 374.12813619 116.18814506 377.6583271 115.34079933 C379.53126609 114.89003804 381.40309781 114.43468364 383.27488708 113.97917175 C384.37720169 113.71534195 385.4795163 113.45151215 386.61523438 113.1796875 C388.04144104 112.83526611 388.04144104 112.83526611 389.49645996 112.48388672 C392 112 392 112 396 112 C396 190.54 396 269.08 396 350 C391.76145313 351.21101339 387.56765547 352.38830214 383.29653931 353.44812012 C381.66100979 353.85490557 381.66100979 353.85490557 379.99243927 354.26990891 C378.81366966 354.56175694 377.63490005 354.85360497 376.42041016 355.15429688 C375.15987572 355.46742451 373.89934128 355.78055214 372.60060883 356.10316849 C369.13917497 356.96297277 365.6773603 357.82123451 362.21547174 358.67920589 C358.53795606 359.59088274 354.860783 360.50393957 351.18356323 361.41680908 C344.10889921 363.17284029 337.03389323 364.92748984 329.95875442 366.68160701 C324.24720412 368.09768018 318.53579049 369.51430334 312.82446289 370.93127441 C273.98370539 380.56746611 235.14033072 390.19278217 196.2819519 399.75770569 C195.60854641 399.92346666 194.93514091 400.08922764 194.24132919 400.26001167 C192.88827724 400.59306748 191.53522195 400.92610974 190.18216324 401.25913811 C177.59321849 404.35794964 165.00724085 407.46871963 152.421875 410.58203125 C151.43630741 410.82583464 150.45073982 411.06963802 149.43530655 411.32082939 C140.38554416 413.55958664 131.33590396 415.79883765 122.28631592 418.03829956 C101.85758823 423.09361088 81.42794278 428.14503716 60.9921875 433.171875 C59.35115433 433.57563266 57.71012241 433.9793954 56.0690918 434.38316345 C49.22443525 436.06708796 42.37961086 437.75031624 35.53397179 439.43024254 C33.47176388 439.9364964 31.40969613 440.44331654 29.34768677 440.95037842 C26.87844466 441.55751859 24.40896125 442.16367872 21.93917847 442.76861572 C15.38028084 444.38084637 15.38028084 444.38084637 8.86914062 446.1730957 C2.2508428 448.08053059 -3.51919467 447.31638817 -9.99609375 445.171875 C-16.74345765 443.02938762 -23.53133552 441.41312021 -30.4375 439.875 C-42.09135579 437.22210758 -53.64411156 434.28374116 -65.1875 431.1875 C-81.01151282 426.94896519 -96.91225072 423.12919513 -112.88354492 419.48706055 C-127.60272536 416.12916831 -142.27908398 412.65213873 -156.8046875 408.52734375 C-166.48705562 405.78662515 -176.2702723 403.51893843 -186.0753479 401.26422119 C-191.26723872 400.06957351 -196.45578831 398.86057767 -201.64453125 397.65234375 C-203.14946388 397.30224243 -203.14946388 397.30224243 -204.68479919 396.94506836 C-212.07386637 395.22335889 -219.45195353 393.46545274 -226.8125 391.625 C-227.62412598 391.42334229 -228.43575195 391.22168457 -229.27197266 391.01391602 C-233.16021906 390.03085145 -237.03019245 388.99640774 -240.88769531 387.89916992 C-251.64815911 384.84448134 -262.45968098 382.17636116 -273.36526489 379.69174194 C-278.09084056 378.61427244 -282.81292038 377.52168558 -287.53515625 376.4296875 C-288.45322556 376.2175914 -289.37129486 376.0054953 -290.31718445 375.78697205 C-297.41352845 374.144199 -304.49588505 372.45445393 -311.5625 370.6875 C-312.38959473 370.4819751 -313.21668945 370.2764502 -314.06884766 370.06469727 C-318.01964857 369.06610401 -321.95288361 368.01872201 -325.87231445 366.90356445 C-337.8561615 363.50030031 -349.92065137 360.59398039 -362.0625 357.8125 C-363.97599386 357.37079953 -365.8894057 356.92874359 -367.80273438 356.48632812 C-371.30689074 355.67733253 -374.81128689 354.86942411 -378.31665039 354.06567383 C-379.08792267 353.88847809 -379.85919495 353.71128235 -380.65383911 353.52871704 C-382.28887619 353.16025469 -383.92638405 352.80265951 -385.56564331 352.45346069 C-386.79083176 352.19165512 -386.79083176 352.19165512 -388.04077148 351.92456055 C-388.7773851 351.77045212 -389.51399872 351.61634369 -390.27293396 351.45756531 C-392 351 -392 351 -393 350 C-393.09803662 346.92810576 -393.12990812 343.87868011 -393.12025452 340.80638123 C-393.12110894 339.82955779 -393.12196337 338.85273435 -393.12284368 337.8463102 C-393.12450145 334.54652911 -393.11897228 331.24679795 -393.11352539 327.94702148 C-393.11324356 325.59222413 -393.11340118 323.23742669 -393.1139679 320.88262939 C-393.11425602 314.46759631 -393.10835691 308.05258174 -393.10139394 301.63755298 C-393.09531949 295.61936854 -393.09477212 289.60118191 -393.09374207 283.58299495 C-393.09155123 271.6595745 -393.0848903 259.73616088 -393.07543945 247.81274414 C-393.06626615 236.22745803 -393.05918492 224.64217377 -393.05493164 213.05688477 C-393.05466892 212.34325555 -393.05440619 211.62962633 -393.05413551 210.89437198 C-393.05283051 207.3144496 -393.05156679 203.7345272 -393.05032361 200.15460479 C-393.03995002 170.43639867 -393.02225673 140.71819966 -393 111 C-391.91701126 111.27275253 -390.83402252 111.54550507 -389.71821594 111.82652283 C-388.27480151 112.18899872 -386.83137539 112.5514281 -385.38793945 112.91381836 C-384.67682259 113.09304588 -383.96570572 113.27227341 -383.23303986 113.45693207 C-376.31057348 115.19304268 -369.34608565 116.69169734 -362.36132812 118.15429688 C-355.83573226 119.54262531 -349.42474211 121.20591869 -343 123 C-331.98585808 125.90782842 -320.88818552 128.3942738 -309.75585938 130.8059082 C-302.77059333 132.33201921 -295.88410979 134.07178124 -289 136 C-277.98585808 138.90782842 -266.88818552 141.3942738 -255.75585938 143.8059082 C-248.77059333 145.33201921 -241.88410979 147.07178124 -235 149 C-223.98585808 151.90782842 -212.88818552 154.3942738 -201.75585938 156.8059082 C-195.59607119 158.15167234 -189.50392452 159.61841213 -183.43701172 161.3371582 C-180.24140236 162.20633065 -177.01996291 162.90185213 -173.77734375 163.5703125 C-172 164 -172 164 -170 165 C-162.25278927 166.04289375 -156.44813541 164.31327977 -150 160 C-147.42041082 157.85727673 -145.20091975 155.52581742 -143 153 C-142.15695312 152.03707031 -142.15695312 152.03707031 -141.296875 151.0546875 C-140.1331331 149.71795694 -138.97301458 148.37806391 -137.81640625 147.03515625 C-135.94771168 144.94141459 -133.99955265 142.96873103 -132 141 C-129.40017817 138.44009866 -126.93731602 135.8322046 -124.5625 133.0625 C-121.99334729 130.07198284 -119.30682744 127.26883316 -116.5 124.5 C-113.71378859 121.7514401 -111.04691608 118.97140209 -108.5 116 C-105.24955349 112.20781241 -101.74550431 108.72864469 -98.19140625 105.22265625 C-95.57898932 102.5729856 -93.16697379 99.78827197 -90.74609375 96.96484375 C-88.27396582 94.18300852 -85.61569453 91.60624049 -82.96484375 88.99609375 C-81.07769256 87.07892823 -79.31314625 85.10424678 -77.5625 83.0625 C-74.99334729 80.07198284 -72.30682744 77.26883316 -69.5 74.5 C-66.71378859 71.7514401 -64.04691608 68.97140209 -61.5 66 C-58.24955349 62.20781241 -54.74550431 58.72864469 -51.19140625 55.22265625 C-48.57898932 52.5729856 -46.16697379 49.78827197 -43.74609375 46.96484375 C-41.27396582 44.18300852 -38.61569453 41.60624049 -35.96484375 38.99609375 C-34.07769256 37.07892823 -32.31314625 35.10424678 -30.5625 33.0625 C-27.99334729 30.07198284 -25.30682744 27.26883316 -22.5 24.5 C-19.09934397 21.14529878 -15.93605211 17.67819672 -12.83203125 14.05078125 C-10.00295774 10.88390792 -6.96132438 7.94001424 -3.91796875 4.98046875 C-1.83682933 2.95064723 -1.83682933 2.95064723 0 0 Z " fill="#B74333" transform="translate(720,745)"/>
<path d="M0 0 C7.83383376 1.46079005 15.53063469 3.34215385 23.25 5.3125 C31.72924996 7.456621 40.21124351 9.54388985 48.75 11.4375 C57.87456264 13.46489484 66.93810254 15.71238616 76 18 C84.97870896 20.26658289 93.95827928 22.49533715 103 24.5 C112.7475623 26.66115678 122.42300911 29.0872761 132.10253906 31.53076172 C140.38078803 33.61867286 148.66422854 35.65185495 157 37.5 C166.7475623 39.66115678 176.42300911 42.0872761 186.10253906 44.53076172 C194.38078803 46.61867286 202.66422854 48.65185495 211 50.5 C220.7475623 52.66115678 230.42300911 55.0872761 240.10253906 57.53076172 C248.38078803 59.61867286 256.66422854 61.65185495 265 63.5 C274.7475623 65.66115678 284.42300911 68.0872761 294.10253906 70.53076172 C302.38079273 72.61867404 310.66426334 74.65168603 319 76.5 C329.4478355 78.81841017 339.81859546 81.42713685 350.1953125 84.04101562 C361.10825381 86.78855787 372.04305853 89.43350921 383 92 C379.57784743 99.48905852 372.9686308 105.0783219 367.19140625 110.77734375 C364.57898932 113.4270144 362.16697379 116.21172803 359.74609375 119.03515625 C357.27396582 121.81699148 354.61569453 124.39375951 351.96484375 127.00390625 C350.07769256 128.92107177 348.31314625 130.89575322 346.5625 132.9375 C343.28869347 136.74824063 339.76636029 140.25078165 336.19140625 143.77734375 C333.57898932 146.4270144 331.16697379 149.21172803 328.74609375 152.03515625 C326.27396582 154.81699148 323.61569453 157.39375951 320.96484375 160.00390625 C319.07769256 161.92107177 317.31314625 163.89575322 315.5625 165.9375 C312.99334729 168.92801716 310.30682744 171.73116684 307.5 174.5 C304.71378859 177.2485599 302.04691608 180.02859791 299.5 183 C296.24955349 186.79218759 292.74550431 190.27135531 289.19140625 193.77734375 C286.57898932 196.4270144 284.16697379 199.21172803 281.74609375 202.03515625 C279.27396582 204.81699148 276.61569453 207.39375951 273.96484375 210.00390625 C272.07769256 211.92107177 270.31314625 213.89575322 268.5625 215.9375 C265.99334729 218.92801716 263.30682744 221.73116684 260.5 224.5 C257.71378859 227.2485599 255.04691608 230.02859791 252.5 233 C249.95308392 235.97140209 247.28621141 238.7514401 244.5 241.5 C239.25656491 246.6808002 234.37630805 252.06446843 230 258 C223.77972181 257.34814181 217.85979381 256.12689527 211.79003906 254.63696289 C210.78950878 254.39514628 209.7889785 254.15332968 208.75812912 253.9041853 C205.42627213 253.09782991 202.09597302 252.28521941 198.765625 251.47265625 C196.38445713 250.89516294 194.00318838 250.31808546 191.62182617 249.74139404 C186.51180232 248.5030734 181.40241288 247.26217145 176.2935791 246.01895142 C168.15876465 244.03945729 160.02239326 242.06641157 151.88574219 240.09448242 C149.11382547 239.42264372 146.34191576 238.75077609 143.57000732 238.0789032 C142.88079264 237.9118535 142.19157795 237.74480379 141.48147798 237.57269198 C136.55839585 236.37938115 131.635513 235.18525047 126.71270752 233.99079895 C101.32728899 227.83178999 75.93277955 221.71082118 50.53508759 215.60262299 C45.04625898 214.28246042 39.55755654 212.96177351 34.06884766 211.64111328 C27.46516394 210.05219225 20.86147256 208.46330313 14.25772095 206.87466431 C-1.06318742 203.18882571 -16.38321717 199.49934914 -31.70285034 195.80821419 C-39.04429998 194.03942024 -46.38584291 192.27101351 -53.72737885 190.50257778 C-59.539653 189.10247177 -65.3518695 187.70212741 -71.16394043 186.30117798 C-98.09576942 179.80968138 -125.03608141 173.35700606 -152 167 C-152 162.18998463 -151.1958717 161.64021525 -148 158.25 C-147.17757812 157.37085938 -146.35515625 156.49171875 -145.5078125 155.5859375 C-142.67216876 152.66195595 -139.79740546 149.78285074 -136.89453125 146.92578125 C-135.03189301 145.03241908 -133.29165445 143.07785932 -131.5625 141.0625 C-128.28869347 137.25175937 -124.76636029 133.74921835 -121.19140625 130.22265625 C-118.57898932 127.5729856 -116.16697379 124.78827197 -113.74609375 121.96484375 C-111.27396582 119.18300852 -108.61569453 116.60624049 -105.96484375 113.99609375 C-104.07769256 112.07892823 -102.31314625 110.10424678 -100.5625 108.0625 C-97.99334729 105.07198284 -95.30682744 102.26883316 -92.5 99.5 C-89.71378859 96.7514401 -87.04691608 93.97140209 -84.5 91 C-81.24955349 87.20781241 -77.74550431 83.72864469 -74.19140625 80.22265625 C-71.57898932 77.5729856 -69.16697379 74.78827197 -66.74609375 71.96484375 C-64.27396582 69.18300852 -61.61569453 66.60624049 -58.96484375 63.99609375 C-57.07769256 62.07892823 -55.31314625 60.10424678 -53.5625 58.0625 C-50.28869347 54.25175937 -46.76636029 50.74921835 -43.19140625 47.22265625 C-40.57898932 44.5729856 -38.16697379 41.78827197 -35.74609375 38.96484375 C-33.27396582 36.18300852 -30.61569453 33.60624049 -27.96484375 30.99609375 C-26.07769256 29.07892823 -24.31314625 27.10424678 -22.5625 25.0625 C-19.99334729 22.07198284 -17.30682744 19.26883316 -14.5 16.5 C-9.25043634 11.31314444 -4.41017603 5.91674363 0 0 Z " fill="#FEFEFE" transform="translate(887,348)"/>
<path d="M0 0 C7.31153632 0.48789947 14.0714072 1.8681026 21.125 3.8125 C23.16913732 4.35987383 25.2134086 4.90674765 27.2578125 5.453125 C28.24426758 5.71931641 29.23072266 5.98550781 30.24707031 6.25976562 C41.28614955 9.22806008 52.39091098 11.75212334 63.56665039 14.14257812 C70.27147502 15.58962254 76.88086502 17.22368689 83.49609375 19.0390625 C93.78445941 21.86062098 104.13249143 24.2707499 114.5625 26.5 C122.27420052 28.14932686 129.89038095 29.95187458 137.49609375 32.0390625 C147.78445941 34.86062098 158.13249143 37.2707499 168.5625 39.5 C176.27420052 41.14932686 183.89038095 42.95187458 191.49609375 45.0390625 C201.78445941 47.86062098 212.13249143 50.2707499 222.5625 52.5 C230.27420052 54.14932686 237.89038095 55.95187458 245.49609375 58.0390625 C255.78445941 60.86062098 266.13249143 63.2707499 276.5625 65.5 C284.27420052 67.14932686 291.89038095 68.95187458 299.49609375 71.0390625 C309.78445941 73.86062098 320.13249143 76.2707499 330.5625 78.5 C338.25868563 80.14600864 345.86139291 81.93805666 353.44921875 84.03125 C357.36943583 85.10079217 361.30517669 86.08869272 365.25 87.0625 C371.52633919 88.61582369 377.77315513 90.25859423 384 92 C381.16490125 96.56051684 378.05242382 100.16591498 374.1875 103.875 C370.17070688 107.80453739 366.35083572 111.79208357 362.70703125 116.07421875 C360.009003 119.11798975 357.08202267 121.9258425 354.1875 124.78125 C352.20279658 126.79430632 350.33903084 128.85446403 348.5 131 C345.24955349 134.79218759 341.74550431 138.27135531 338.19140625 141.77734375 C335.57898932 144.4270144 333.16697379 147.21172803 330.74609375 150.03515625 C328.27396582 152.81699148 325.61569453 155.39375951 322.96484375 158.00390625 C321.07769256 159.92107177 319.31314625 161.89575322 317.5625 163.9375 C314.99334729 166.92801716 312.30682744 169.73116684 309.5 172.5 C306.71378859 175.2485599 304.04691608 178.02859791 301.5 181 C298.24955349 184.79218759 294.74550431 188.27135531 291.19140625 191.77734375 C288.57898932 194.4270144 286.16697379 197.21172803 283.74609375 200.03515625 C281.27396582 202.81699148 278.61569453 205.39375951 275.96484375 208.00390625 C274.07769256 209.92107177 272.31314625 211.89575322 270.5625 213.9375 C267.99334729 216.92801716 265.30682744 219.73116684 262.5 222.5 C259.71378859 225.2485599 257.04691608 228.02859791 254.5 231 C251.95308392 233.97140209 249.28621141 236.7514401 246.5 239.5 C243.62720999 242.33853186 240.85196252 245.21468081 238.1875 248.25 C237.6203125 248.89324219 237.053125 249.53648437 236.46875 250.19921875 C234.82238641 252.12631763 234.82238641 252.12631763 233.1875 255.0625 C230.64397389 257.31533741 230.20142286 257.31070596 226.9375 257.125 C219.28430139 255.94151568 211.80190262 253.67997158 204.34277344 251.63769531 C192.56750771 248.43250627 180.67796413 245.77697982 168.75390625 243.19360352 C161.76926952 241.66775891 154.88346024 239.92803683 148 238 C136.98585808 235.09217158 125.88818552 232.6057262 114.75585938 230.1940918 C107.77059333 228.66798079 100.88410979 226.92821876 94 225 C82.98585808 222.09217158 71.88818552 219.6057262 60.75585938 217.1940918 C53.77059333 215.66798079 46.88410979 213.92821876 40 212 C28.98585808 209.09217158 17.88818552 206.6057262 6.75585938 204.1940918 C-0.22940667 202.66798079 -7.11589021 200.92821876 -14 199 C-25.01414192 196.09217158 -36.11181448 193.6057262 -47.24414062 191.1940918 C-54.22940667 189.66798079 -61.11589021 187.92821876 -68 186 C-79.01414192 183.09217158 -90.11181448 180.6057262 -101.24414062 178.1940918 C-107.38883738 176.85162477 -113.46535177 175.38180415 -119.52319336 173.68969727 C-129.92458124 170.79330291 -140.47067371 168.37991622 -151 166 C-151 161.05693275 -149.25437948 159.63258304 -146 156.3125 C-145.46600586 155.75143555 -144.93201172 155.19037109 -144.38183594 154.61230469 C-143.21344605 153.38519503 -142.041054 152.16188684 -140.86523438 150.94189453 C-138.30324026 148.2746038 -135.77578189 145.57557775 -133.24609375 142.87768555 C-131.21439623 140.71204907 -129.17819896 138.55073265 -127.140625 136.390625 C-123.09057511 132.09673391 -119.04484444 127.79879421 -115 123.5 C-110.98884542 119.23774979 -106.97737755 114.97579561 -102.96484375 110.71484375 C-95.84917241 103.15789047 -88.74100812 95.59404011 -81.64428711 88.01928711 C-76.4314643 82.45671129 -71.20683176 76.90532038 -65.98046875 71.35546875 C-61.48073787 66.57614294 -56.98801601 61.79032678 -52.5 57 C-47.36059304 51.51476884 -42.21475068 46.03566946 -37.0625 40.5625 C-36.0710498 39.5091748 -36.0710498 39.5091748 -35.05957031 38.43457031 C-31.65985844 34.82330612 -28.25858525 31.21352475 -24.85546875 27.60546875 C-18.57244211 20.94201287 -12.29516049 14.27313688 -6.0625 7.5625 C-5.30888184 6.75570801 -5.30888184 6.75570801 -4.54003906 5.93261719 C-1.97157848 3.18180558 -1.97157848 3.18180558 0 0 Z " fill="#E08C86" transform="translate(326,630)"/>
<path d="M0 0 C1.54296875 1.56640625 1.54296875 1.56640625 3.1875 3.5625 C5.68326212 6.51012642 8.24219097 9.29574066 11 12 C13.59982183 14.55990134 16.06268398 17.1677954 18.4375 19.9375 C21.00665271 22.92801716 23.69317256 25.73116684 26.5 28.5 C29.9288279 31.88241399 33.12048518 35.38070442 36.25390625 39.03515625 C38.09615675 41.10820324 40.02401662 43.05435802 42 45 C44.59982183 47.55990134 47.06268398 50.1677954 49.4375 52.9375 C52.00665271 55.92801716 54.69317256 58.73116684 57.5 61.5 C60.9288279 64.88241399 64.12048518 68.38070442 67.25390625 72.03515625 C69.09615675 74.10820324 71.02401662 76.05435802 73 78 C75.59982183 80.55990134 78.06268398 83.1677954 80.4375 85.9375 C83.00665271 88.92801716 85.69317256 91.73116684 88.5 94.5 C91.9071879 97.86114482 95.07458174 101.33701203 98.1875 104.96875 C100.92777083 108.03974317 103.87946902 110.88786876 106.80859375 113.77734375 C109.42101068 116.4270144 111.83302621 119.21172803 114.25390625 122.03515625 C116.09615675 124.10820324 118.02401662 126.05435802 120 128 C122.59982183 130.55990134 125.06268398 133.1677954 127.4375 135.9375 C130.70890333 139.74544329 134.22836891 143.24564064 137.80078125 146.76953125 C140.45097714 149.45738534 142.90857916 152.27572584 145.359375 155.14453125 C146.98009509 156.97748849 148.67738411 158.67657041 150.4375 160.375 C153 163 153 163 153 165 C124.15427354 172.27188005 95.26748263 179.35047681 66.33364868 186.26293182 C57.60491162 188.34931551 48.87765084 190.44187526 40.15008545 192.53315353 C36.72037584 193.35491672 33.29060895 194.17644052 29.86083984 194.99795532 C4.40089371 201.09736064 -21.04970537 207.23547162 -46.5 213.375 C-55.82287898 215.62385417 -65.1458019 217.87252614 -74.46875 220.12109375 C-75.62716652 220.40050119 -76.78558304 220.67990864 -77.97910309 220.96778297 C-96.49506912 225.43363185 -115.01273977 229.89237001 -133.53125 234.34765625 C-136.04358033 234.95214332 -138.55590944 235.55663547 -141.0682373 236.16113281 C-151.87732149 238.76185752 -162.68648604 241.36224604 -173.49602509 243.9610796 C-177.88522481 245.01648072 -182.27428633 246.07245571 -186.66331482 247.12856865 C-188.68055566 247.61383095 -190.69785659 248.09884353 -192.71522522 248.5835743 C-194.59631357 249.03557365 -196.47731567 249.48793211 -198.35822296 249.94068432 C-200.11983424 250.36457549 -201.88168222 250.78748446 -203.6437912 251.20930195 C-207.68334541 252.1803484 -211.71220211 253.17784824 -215.72851562 254.24124146 C-216.83444061 254.53068807 -216.83444061 254.53068807 -217.96270752 254.82598209 C-219.92934849 255.3438778 -221.89303183 255.8729692 -223.85644531 256.40296936 C-226.80387642 256.96275179 -228.28102807 257.1635172 -231 256 C-233.078125 253.99609375 -233.078125 253.99609375 -235.25 251.4375 C-238.1164009 248.13409044 -240.99891166 244.93418762 -244.125 241.875 C-246.68328749 239.35707997 -249.10019658 236.78666743 -251.4375 234.0625 C-254.00665271 231.07198284 -256.69317256 228.26883316 -259.5 225.5 C-262.9288279 222.11758601 -266.12048518 218.61929558 -269.25390625 214.96484375 C-271.09615675 212.89179676 -273.02401662 210.94564198 -275 209 C-277.59982183 206.44009866 -280.06268398 203.8322046 -282.4375 201.0625 C-285.00665271 198.07198284 -287.69317256 195.26883316 -290.5 192.5 C-293.9288279 189.11758601 -297.12048518 185.61929558 -300.25390625 181.96484375 C-302.09615675 179.89179676 -304.02401662 177.94564198 -306 176 C-308.59982183 173.44009866 -311.06268398 170.8322046 -313.4375 168.0625 C-316.00665271 165.07198284 -318.69317256 162.26883316 -321.5 159.5 C-324.9071879 156.13885518 -328.07458174 152.66298797 -331.1875 149.03125 C-333.92777083 145.96025683 -336.87946902 143.11213124 -339.80859375 140.22265625 C-342.42101068 137.5729856 -344.83302621 134.78827197 -347.25390625 131.96484375 C-349.09615675 129.89179676 -351.02401662 127.94564198 -353 126 C-355.59982183 123.44009866 -358.06268398 120.8322046 -360.4375 118.0625 C-363.70650012 114.25735407 -367.22309762 110.75949996 -370.79296875 107.23828125 C-373.48913529 104.5039389 -375.99785783 101.64044189 -378.4921875 98.72265625 C-379.74099787 97.29590658 -381.07946714 95.94821151 -382.4375 94.625 C-384 93 -384 93 -384 91 C-366.08372237 86.66505784 -348.16704219 82.33178097 -330.25 78 C-329.57192102 77.83606074 -328.89384205 77.67212148 -328.19521523 77.50321436 C-289.05988995 68.04161353 -249.91845059 58.60618246 -210.76448822 49.22194672 C-184.99718864 43.04611534 -159.2335152 36.85557492 -133.4765625 30.63671875 C-132.82833275 30.48021339 -132.180103 30.32370803 -131.51222992 30.16246009 C-118.14430746 26.93493507 -104.77677245 23.70580837 -91.40979767 20.47436047 C-85.59361884 19.06839785 -79.77729602 17.66303154 -73.9609375 16.2578125 C-72.29431564 15.85506324 -72.29431564 15.85506324 -70.59402466 15.44417763 C-58.8615867 12.60961987 -47.12670572 9.78597977 -35.38378906 6.99511719 C-33.89361613 6.64093247 -33.89361613 6.64093247 -32.3733387 6.27959251 C-27.72527358 5.17546433 -23.07669117 4.07357412 -18.42733765 2.97488403 C-16.80784085 2.59116674 -15.18834418 2.20744892 -13.56884766 1.82373047 C-12.83849934 1.65188107 -12.10815102 1.48003166 -11.35567093 1.3029747 C-2.43753368 -0.81251123 -2.43753368 -0.81251123 0 0 Z " fill="#FEFEFE" transform="translate(557,349)"/>
<path d="M0 0 C1.67578125 1.50390625 1.67578125 1.50390625 3.3125 3.5625 C5.60746354 6.34679479 7.91357567 8.98332194 10.5 11.5 C12.93389732 13.89053167 15.21355559 16.35046262 17.4375 18.9375 C19.85617779 21.74576347 22.35899683 24.39970593 25 27 C27.59982183 29.55990134 30.06268398 32.1677954 32.4375 34.9375 C35.00665271 37.92801716 37.69317256 40.73116684 40.5 43.5 C43.9071879 46.86114482 47.07458174 50.33701203 50.1875 53.96875 C52.92777083 57.03974317 55.87946902 59.88786876 58.80859375 62.77734375 C61.42101068 65.4270144 63.83302621 68.21172803 66.25390625 71.03515625 C68.09615675 73.10820324 70.02401662 75.05435802 72 77 C74.59982183 79.55990134 77.06268398 82.1677954 79.4375 84.9375 C82.00665271 87.92801716 84.69317256 90.73116684 87.5 93.5 C90.9071879 96.86114482 94.07458174 100.33701203 97.1875 103.96875 C99.92777083 107.03974317 102.87946902 109.88786876 105.80859375 112.77734375 C108.42101068 115.4270144 110.83302621 118.21172803 113.25390625 121.03515625 C115.09615675 123.10820324 117.02401662 125.05435802 119 127 C121.59982183 129.55990134 124.06268398 132.1677954 126.4375 134.9375 C129.71010493 138.74684196 133.23100437 142.24821109 136.8046875 145.7734375 C139.43034345 148.43646934 141.85979205 151.23255606 144.29296875 154.0703125 C147.05221581 157.18946136 150.01587975 160.09751222 153 163 C152.67 163.99 152.34 164.98 152 166 C150.34466839 166.73939037 150.34466839 166.73939037 148.14884949 167.26225281 C147.31620071 167.46722885 146.48355194 167.6722049 145.62567139 167.88339233 C144.70143372 168.09678253 143.77719604 168.31017273 142.82495117 168.5300293 C141.8517543 168.76556015 140.87855743 169.001091 139.87586975 169.24375916 C136.60107748 170.03298681 133.32215612 170.80347343 130.04296875 171.57421875 C127.71955991 172.13027236 125.39642994 172.68749237 123.07356262 173.24580383 C117.42402812 174.60069203 111.77176071 175.94368378 106.1182006 177.28166562 C99.48641242 178.85191339 92.85827001 180.43729081 86.23037696 182.02388549 C74.68738944 184.78683423 63.14207506 187.53990618 51.59521484 190.28662109 C37.76395279 193.57700575 23.937215 196.8859963 10.11328125 200.20703125 C9.10323343 200.44965698 8.09318562 200.69228271 7.05253029 200.94226074 C3.0214374 201.91061912 -1.0096348 202.87906347 -5.04064846 203.84775162 C-12.04148641 205.53000541 -19.04293185 207.20971308 -26.04467773 208.88818359 C-48.83353635 214.35179839 -71.6181412 219.83282125 -94.3984375 225.33203125 C-95.04385907 225.48783456 -95.68928064 225.64363788 -96.35426044 225.8041625 C-108.4638956 228.72746695 -120.57325448 231.65191504 -132.68212891 234.57836914 C-133.86317577 234.86380144 -135.04422264 235.14923374 -136.26105881 235.44331551 C-138.61206591 236.01152849 -140.96306138 236.57978959 -143.31404495 237.1480999 C-148.99371973 238.52081482 -154.6737631 239.89196636 -160.35467529 241.259552 C-162.55644544 241.78969956 -164.75820738 242.31988119 -166.95996094 242.85009766 C-168.5738225 243.23869807 -168.5738225 243.23869807 -170.22028732 243.635149 C-176.85777844 245.23563964 -183.49080637 246.85344244 -190.12104607 248.48370457 C-194.4273151 249.54125072 -198.73547506 250.59095078 -203.04396439 251.63941002 C-205.06169095 252.13256334 -207.0785198 252.62940618 -209.0943718 253.13016701 C-211.85058327 253.81455316 -214.60960571 254.48620973 -217.36962891 255.1550293 C-218.17637684 255.35888182 -218.98312477 255.56273434 -219.81431961 255.77276421 C-223.83083104 256.73198666 -227.04944738 257.41956369 -231 256 C-232.94577016 254.21215606 -234.60292039 252.49157213 -236.3125 250.5 C-237.3750725 249.30619611 -238.43894177 248.11354555 -239.50390625 246.921875 C-240.06867676 246.28443359 -240.63344727 245.64699219 -241.21533203 244.99023438 C-244.32977071 241.51706008 -247.54384765 238.13830237 -250.75 234.75 C-252.11867911 233.29835576 -253.4871667 231.84653091 -254.85546875 230.39453125 C-255.54044434 229.66830566 -256.22541992 228.94208008 -256.93115234 228.19384766 C-260.31041013 224.61041475 -263.68659457 221.02409089 -267.0625 217.4375 C-267.72475586 216.73399414 -268.38701172 216.03048828 -269.06933594 215.30566406 C-274.17271176 209.88285934 -279.26646146 204.45109067 -284.35791016 199.01708984 C-291.55936773 191.33289513 -298.77995125 183.66672166 -306 176 C-314.46202763 167.01446365 -322.91871269 158.02407563 -331.35791016 149.01708984 C-335.8785888 144.1933754 -340.40606791 139.37611321 -344.9375 134.5625 C-345.59991699 133.85883301 -346.26233398 133.15516602 -346.94482422 132.43017578 C-350.32058298 128.84471204 -353.69715552 125.26001634 -357.07421875 121.67578125 C-365.7418155 112.47432964 -374.38347716 103.24929874 -383 94 C-382.67 93.01 -382.34 92.02 -382 91 C-380.34466839 90.26060963 -380.34466839 90.26060963 -378.14884949 89.73774719 C-377.31620071 89.53277115 -376.48355194 89.3277951 -375.62567139 89.11660767 C-374.70143372 88.90321747 -373.77719604 88.68982727 -372.82495117 88.4699707 C-371.36515587 88.11667442 -371.36515587 88.11667442 -369.87586975 87.75624084 C-366.60107748 86.96701319 -363.32215612 86.19652657 -360.04296875 85.42578125 C-357.71955991 84.86972764 -355.39642994 84.31250763 -353.07356262 83.75419617 C-347.42402812 82.39930797 -341.77176071 81.05631622 -336.1182006 79.71833438 C-329.48641242 78.14808661 -322.85827001 76.56270919 -316.23037696 74.97611451 C-304.68738944 72.21316577 -293.14207506 69.46009382 -281.59521484 66.71337891 C-267.76395279 63.42299425 -253.937215 60.1140037 -240.11328125 56.79296875 C-239.10323343 56.55034302 -238.09318562 56.30771729 -237.05253029 56.05773926 C-233.0214374 55.08938088 -228.9903652 54.12093653 -224.95935154 53.15224838 C-217.95851359 51.46999459 -210.95706815 49.79028692 -203.95532227 48.11181641 C-181.16646365 42.64820161 -158.3818588 37.16717875 -135.6015625 31.66796875 C-134.95614093 31.51216544 -134.31071936 31.35636212 -133.64573956 31.1958375 C-117.99185947 27.41694105 -102.3386929 23.63509418 -86.68581772 19.85203743 C-77.7193151 17.68527407 -68.75202231 15.52179862 -59.78424454 13.36031914 C-53.13953113 11.75843538 -46.49599914 10.15174749 -39.85316658 8.54208279 C-35.53649625 7.49705347 -31.21892123 6.45580082 -26.90110397 5.41552162 C-24.87707661 4.92704742 -22.85342935 4.43699521 -20.83018875 3.94527245 C-18.06535416 3.27353936 -15.29922987 2.60739961 -12.53271484 1.94262695 C-11.72080563 1.74393572 -10.90889641 1.54524448 -10.07238388 1.3405323 C-6.58792251 0.50881062 -3.60438137 0 0 0 Z " fill="#E08C86" transform="translate(1117,630)"/>
<path d="M0 0 C9.12853129 2.67257117 18.35950309 4.73621299 27.65698242 6.73095703 C34.61229615 8.233005 41.46215563 9.95350294 48.3125 11.875 C59.32664192 14.78282842 70.42431448 17.2692738 81.55664062 19.6809082 C88.54190667 21.20701921 95.42839021 22.94678124 102.3125 24.875 C113.32664192 27.78282842 124.42431448 30.2692738 135.55664062 32.6809082 C142.54190667 34.20701921 149.42839021 35.94678124 156.3125 37.875 C166.11312359 40.46244912 175.97496813 42.70264937 185.875 44.875 C195.43489028 46.97450124 204.87577847 49.27743554 214.3125 51.875 C223.45602199 54.27603203 232.6310182 56.39924444 241.875 58.375 C249.58670052 60.02432686 257.20288095 61.82687458 264.80859375 63.9140625 C276.08097488 67.00548475 287.43245624 69.57116161 298.85961914 72.01269531 C306.75764059 73.71617723 314.52694806 75.72007045 322.3125 77.875 C324.97514141 78.56001094 327.64204913 79.22101203 330.3125 79.875 C329.9825 80.535 329.6525 81.195 329.3125 81.875 C326.65174724 82.68972517 324.03562896 83.37945691 321.33081055 84.01611328 C320.48437327 84.22224589 319.637936 84.42837851 318.76584911 84.64075756 C315.91216274 85.33354718 313.05575232 86.01436559 310.19921875 86.6953125 C308.16797094 87.18583219 306.13689758 87.67707474 304.10598755 88.16899109 C298.56917328 89.50784711 293.02991256 90.83631909 287.49017715 92.16302872 C281.6185649 93.57108642 275.74924563 94.98864034 269.87963867 96.4050293 C256.51729132 99.6274743 243.15153573 102.83563851 229.78526306 106.04175568 C224.35427887 107.34484969 218.92370834 108.64966395 213.49316406 109.95458984 C197.32699157 113.8388976 181.16034568 117.7212165 164.99169922 121.59521484 C141.60442517 127.19931109 118.22149095 132.8211219 94.84375 138.46484375 C94.18039131 138.62498467 93.51703262 138.78512558 92.83357215 138.95011926 C79.11467777 142.26206382 65.39625088 145.57594196 51.67817116 148.89125919 C46.86388453 150.05468382 42.04951494 151.21776493 37.23513794 152.38081551 C33.94718743 153.17529924 30.65937979 153.97037207 27.37158203 154.76548767 C22.55628429 155.92953471 17.74017545 157.09015518 12.92322159 158.24732971 C11.20577897 158.66023766 9.48856564 159.07410068 7.77160263 159.48899841 C5.44182695 160.05150681 3.11109547 160.60985955 0.7800293 161.16699219 C0.11782537 161.32770832 -0.54437857 161.48842445 -1.22664928 161.65401077 C-8.69322416 163.42716599 -14.12479735 164.18034841 -21.4375 161.6875 C-27.68037627 159.70062837 -33.88781152 158.09509506 -40.3125 156.8125 C-47.30804511 155.40464037 -54.15819003 153.75542616 -61.04296875 151.87109375 C-71.38090318 149.04561328 -81.77204856 146.61449714 -92.25 144.375 C-99.96170052 142.72567314 -107.57788095 140.92312542 -115.18359375 138.8359375 C-125.47195941 136.01437902 -135.81999143 133.6042501 -146.25 131.375 C-153.96170052 129.72567314 -161.57788095 127.92312542 -169.18359375 125.8359375 C-179.47195941 123.01437902 -189.81999143 120.6042501 -200.25 118.375 C-207.96170052 116.72567314 -215.57788095 114.92312542 -223.18359375 112.8359375 C-233.47195941 110.01437902 -243.81999143 107.6042501 -254.25 105.375 C-261.96170052 103.72567314 -269.57788095 101.92312542 -277.18359375 99.8359375 C-287.47195941 97.01437902 -297.81999143 94.6042501 -308.25 92.375 C-315.93469943 90.73144796 -323.52806223 88.94951531 -331.1015625 86.84765625 C-333.75869844 86.12692984 -336.40949528 85.44896593 -339.0859375 84.80859375 C-339.82207275 84.63142822 -340.55820801 84.4542627 -341.31665039 84.27172852 C-342.73895992 83.9318565 -344.16258511 83.59742953 -345.58764648 83.26928711 C-350.46653949 82.09596051 -350.46653949 82.09596051 -352.6875 79.875 C-301.89091624 67.51702943 -251.08848041 55.1846188 -200.25 43 C-198.22623584 42.51491768 -196.20247282 42.02983059 -194.17871094 41.54473877 C-193.17283747 41.30363436 -192.166964 41.06252995 -191.13060951 40.81411934 C-185.97898321 39.57927495 -180.82737305 38.34436329 -175.67578125 37.109375 C-174.64647114 36.86262905 -173.61716103 36.6158831 -172.5566597 36.36166 C-147.16919146 30.27527326 -121.78731004 24.1657046 -96.4069519 18.04974365 C-91.48448511 16.86357464 -86.56189718 15.6779106 -81.63919067 14.49273682 C-75.84766047 13.09835461 -70.05638496 11.7029194 -64.26529884 10.30669403 C-62.15162069 9.79724222 -60.03786422 9.28811518 -57.92401695 8.77936554 C-54.98458851 8.07182935 -52.04547313 7.36300691 -49.10644531 6.65380859 C-48.17565061 6.42984657 -47.2448559 6.20588455 -46.28585529 5.9751358 C-41.21883153 4.7504212 -36.16292518 3.4901161 -31.11462402 2.19024658 C-30.02659863 1.91185251 -28.93857323 1.63345844 -27.81757736 1.34662819 C-25.73027865 0.81091179 -23.64448112 0.26929938 -21.56050491 -0.2791996 C-13.59674344 -2.3191375 -7.90439509 -2.41777236 0 0 Z " fill="#B74232" transform="translate(732.6875,537.125)"/>
<path d="M0 0 C3.38090225 1.51759737 6.40583168 3.4704625 9.5 5.5 C11.2772632 6.61367095 13.05724513 7.72301432 14.83984375 8.828125 C15.71495605 9.37275391 16.59006836 9.91738281 17.49169922 10.47851562 C45.69778044 27.58775236 79.01441465 38.52633885 112.05737305 38.49731445 C117.99505349 38.5672761 121.52806544 38.93659453 126 43 C128.90854891 50.34062344 129.15712502 58.17826203 129.16796875 65.984375 C129.17129715 66.83944641 129.17462555 67.69451782 129.17805481 68.57550049 C129.18309927 70.38414985 129.1854639 72.19280845 129.18530273 74.00146484 C129.18746032 76.70036294 129.20556176 79.39883188 129.22460938 82.09765625 C129.31455294 110.05634118 129.31455294 110.05634118 126 120 C112.14 119.505 112.14 119.505 98 119 C98.309375 116.73125 98.61875 114.4625 98.9375 112.125 C100.76519025 97.1902441 100.68173646 82.02566141 101 67 C99.68636475 66.92869873 99.68636475 66.92869873 98.34619141 66.85595703 C90.53898393 66.37465475 83.02223026 65.51137491 75.375 63.875 C74.34938965 63.65763184 73.3237793 63.44026367 72.26708984 63.21630859 C63.01031648 61.16226966 54.18993485 58.28527338 45.34521484 54.89404297 C43.04771862 54.01819129 40.73950101 53.17956108 38.42578125 52.34765625 C28.66816208 48.7763782 19.53102152 44.38559835 10.40234375 39.4296875 C9.31735596 38.8433252 9.31735596 38.8433252 8.21044922 38.24511719 C6.66713384 37.37578778 5.14905206 36.46078897 3.65283203 35.51269531 C2.88181152 35.03670898 2.11079102 34.56072266 1.31640625 34.0703125 C0.28882202 33.40539795 0.28882202 33.40539795 -0.75952148 32.72705078 C-4.06581454 31.65413581 -5.85826027 32.6411677 -9 34 C-10.90389796 35.03679425 -12.78014697 36.12562042 -14.62890625 37.2578125 C-41.70995747 53.37222593 -77.03081758 67.42285592 -109 67 C-107.95163094 97.18748883 -106.51726367 126.07748544 -97 155 C-96.77086914 155.69851074 -96.54173828 156.39702148 -96.30566406 157.11669922 C-90.95839695 173.04596737 -83.81406114 189.33111726 -74 203 C-73.59088379 203.57991699 -73.18176758 204.15983398 -72.76025391 204.75732422 C-62.57075692 219.12899586 -51.19649826 232.44062113 -37 243 C-36.46407227 243.40025391 -35.92814453 243.80050781 -35.37597656 244.21289062 C-27.20704331 250.2801759 -18.80002447 255.88545586 -10 261 C-9.32195312 261.4228125 -8.64390625 261.845625 -7.9453125 262.28125 C-5.18069731 263.30271425 -3.81017389 262.90168169 -1 262 C1.5465594 260.7509055 3.9824042 259.47015947 6.4375 258.0625 C7.13762207 257.66353516 7.83774414 257.26457031 8.55908203 256.85351562 C18.84493364 250.88303259 28.26943603 244.10765308 36.81640625 235.8125 C39.1217543 233.8989374 41.17603375 232.9529025 44 232 C44.61488281 232.83144531 45.22976563 233.66289063 45.86328125 234.51953125 C46.67955851 235.61728343 47.49597193 236.71493437 48.3125 237.8125 C48.71662109 238.35970703 49.12074219 238.90691406 49.53710938 239.47070312 C51.19260781 241.69149371 52.81452147 243.81775421 54.79296875 245.76171875 C56 247 56 247 56 249 C57.32 249.66 58.64 250.32 60 251 C59.68276791 254.75391312 57.74352236 256.50055777 55.00097656 258.90771484 C54.4231543 259.39191895 53.84533203 259.87612305 53.25 260.375 C52.64381836 260.88885254 52.03763672 261.40270508 51.41308594 261.93212891 C37.49064077 273.42175926 21.52753364 283.56530328 5.3125 291.5 C4.60544922 291.87125 3.89839844 292.2425 3.16992188 292.625 C-0.51368565 294.41757583 -2.37832215 295.09373413 -6.5234375 294.46875 C-10.44116658 292.81361951 -14.19966882 291.02596732 -17.9375 289 C-19.04448242 288.40396973 -19.04448242 288.40396973 -20.17382812 287.79589844 C-43.90293034 274.85918841 -65.44452661 258.668644 -83 238 C-83.4832373 237.43901611 -83.96647461 236.87803223 -84.46435547 236.30004883 C-111.95962042 204.10610343 -126.82453414 164.75352816 -133.8125 123.4375 C-134.01955566 122.21377686 -134.22661133 120.99005371 -134.43994141 119.72924805 C-136.57745161 106.42248168 -137.18676064 93.20995342 -137.18530273 79.75927734 C-137.18749797 77.50208897 -137.20577164 75.24538452 -137.22460938 72.98828125 C-137.32422676 48.37708623 -137.32422676 48.37708623 -132 41 C-128.79198869 38.86132579 -127.83752648 38.73629225 -124.1328125 38.65625 C-123.17165527 38.62821289 -122.21049805 38.60017578 -121.22021484 38.57128906 C-119.6880835 38.53600098 -119.6880835 38.53600098 -118.125 38.5 C-97.40431788 37.78033285 -77.31817232 33.59561166 -58 26 C-57.17113281 25.69578125 -56.34226562 25.3915625 -55.48828125 25.078125 C-43.98077557 20.74141212 -33.11556114 14.69172785 -22.375 8.75 C-21.62927734 8.3379834 -20.88355469 7.9259668 -20.11523438 7.50146484 C-16.89202057 5.69918278 -13.92667595 3.94429646 -10.9765625 1.703125 C-7.18711837 -0.46511338 -4.20325797 -0.93490186 0 0 Z " fill="#FEFCFC" transform="translate(725,861)"/>
<path d="M0 0 C6.98478308 1.03772647 13.83706368 2.35759843 20.6875 4.0625 C21.39455078 4.2368457 22.10160156 4.41119141 22.83007812 4.59082031 C27.87238643 5.87238643 27.87238643 5.87238643 29 7 C29.15520907 9.7982903 29.24662727 12.57435924 29.29711914 15.37524414 C29.32659889 16.69219521 29.32659889 16.69219521 29.35667419 18.03575134 C29.42079895 20.95214035 29.4779891 23.86862323 29.53515625 26.78515625 C29.57814254 28.80155838 29.62155896 30.81795138 29.66539001 32.83433533 C29.77983168 38.15255507 29.88840413 43.47087931 29.99578857 48.78924561 C30.10630408 54.21178523 30.22232319 59.63420673 30.33789062 65.05664062 C30.56400552 75.70431824 30.78392528 86.35211424 31 97 C31.22139648 96.46665543 31.44279297 95.93331085 31.67089844 95.38380432 C32.69444085 92.92265279 33.72219498 90.46328055 34.75 88.00390625 C35.27207031 86.74592224 35.27207031 86.74592224 35.8046875 85.46252441 C38.01546792 80.18249503 40.3858884 75.02954268 43 69.9375 C45.85215438 64.3631275 48.49479848 58.73920006 51 53 C54.43480173 45.1474604 58.16536813 37.48222179 62.05957031 29.84863281 C63.55594945 26.90715233 65.02686454 23.95318706 66.5 21 C67.33333333 19.33333333 68.16666667 17.66666667 69 16 C78.0823394 17.13529242 87.0433141 19.11438192 96 21 C96 50.37 96 79.74 96 110 C98.64 104.72 101.28 99.44 104 94 C106.61569149 88.8908213 109.23784629 83.78555366 111.875 78.6875 C112.57602127 77.33032855 113.27703023 75.97315073 113.97802734 74.6159668 C118.21837598 66.41232626 122.49516734 58.22883528 126.81347656 50.06591797 C129.96956883 44.08963379 133.02105682 38.06687209 136 32 C145.56700056 32.61722584 154.69247957 34.8201341 164 37 C163.46693921 41.23485043 162.54123645 44.32866636 160.41015625 48.01953125 C159.877854 48.95120117 159.34555176 49.88287109 158.79711914 50.84277344 C157.93848267 52.31278809 157.93848267 52.31278809 157.0625 53.8125 C156.47782959 54.82989258 155.89315918 55.84728516 155.29077148 56.89550781 C151.38410412 63.6766515 147.43789324 70.43712325 143.42407227 77.15551758 C140.71580121 81.70352666 138.16367204 86.32553635 135.64038086 90.97851562 C132.62002343 96.5418351 129.55754119 102.08205552 126.5 107.625 C126.15705902 108.24685181 125.81411804 108.86870361 125.46078491 109.50939941 C118.84840856 121.49596513 112.16929861 133.44417539 105.46728516 145.38085938 C103.30085567 149.24799008 101.14852886 153.12290116 99 157 C93.63492244 156.31781795 88.44520061 155.25856493 83.1875 154 C82.0437793 153.73316406 82.0437793 153.73316406 80.87695312 153.4609375 C75.25982143 152.12991071 75.25982143 152.12991071 73 151 C72.67 121.96 72.34 92.92 72 63 C65.07 77.85 65.07 77.85 58 93 C54 101.0625 54 101.0625 52.2109375 104.58203125 C48.27385104 112.38101006 44.53553718 120.28110443 40.74609375 128.15258789 C40.29923721 129.08062981 40.29923721 129.08062981 39.84335327 130.02742004 C39.02350169 131.7306117 38.20435632 133.43414324 37.38525391 135.13769531 C36.27378454 137.434288 35.14870601 139.72188237 34 142 C28.65338472 141.32106473 23.48761115 140.2614142 18.25 139 C17.11884766 138.73316406 17.11884766 138.73316406 15.96484375 138.4609375 C12.93171924 137.73902154 9.95934576 136.98644859 7 136 C6.96685699 135.43577332 6.93371399 134.87154663 6.89956665 134.29022217 C6.47737466 127.10998954 6.05199539 119.92994851 5.625 112.75 C5.55652863 111.59766876 5.48805725 110.44533752 5.41751099 109.25808716 C4.66607591 96.64487775 3.89837954 84.036687 2.9375 71.4375 C2.07187886 59.90463759 1.45428314 48.36261204 0.875 36.8125 C0.80815506 35.51806473 0.80815506 35.51806473 0.73995972 34.19747925 C0.15532166 22.78796832 -0.11628294 11.42433782 0 0 Z " fill="#FCFCFD" transform="translate(833,114)"/>
<path d="M0 0 C11.66732963 8.9766902 20.67005347 21.77221371 23.3203125 36.4609375 C25.4459299 55.78043784 22.59658532 72.83587399 10.359375 88.46875 C0.69206679 99.68282752 -13.20643683 108.46036084 -28.21850586 109.94140625 C-31.26092586 110.05688133 -34.28385493 110.06601958 -37.328125 110.03125 C-38.34390625 110.04285156 -39.3596875 110.05445313 -40.40625 110.06640625 C-56.18476282 110.00571966 -69.48243528 103.2521445 -80.6796875 92.37109375 C-86.09027612 86.6619275 -90.05472394 80.80002495 -93.328125 73.65625 C-93.74191406 72.81320312 -94.15570312 71.97015625 -94.58203125 71.1015625 C-99.99023316 58.09926521 -99.36208778 38.69797565 -94.328125 25.65625 C-86.60392332 9.07747566 -73.67308401 -2.38065352 -56.98828125 -9.31640625 C-38.23508037 -15.68597685 -15.77078615 -11.42969867 0 0 Z " fill="#FEFDFD" transform="translate(872.328125,1006.34375)"/>
<path d="M0 0 C5.01797066 4.51249742 9.7817387 10.56473154 12 17 C11.625 19.76953125 11.625 19.76953125 11 22 C7.77132467 22.81446084 4.5419759 23.62621989 1.3125 24.4375 C0.40048828 24.66759766 -0.51152344 24.89769531 -1.45117188 25.13476562 C-2.33740234 25.35712891 -3.22363281 25.57949219 -4.13671875 25.80859375 C-4.94842529 26.01282959 -5.76013184 26.21706543 -6.59643555 26.42749023 C-9.05437138 27.01295083 -11.51962771 27.51936755 -14 28 C-14.3403125 27.39671875 -14.680625 26.7934375 -15.03125 26.171875 C-17.82698089 21.56189322 -20.31928779 17.71512919 -25.40234375 15.58984375 C-33.8418596 13.67350256 -43.51925284 13.67789658 -51.234375 17.859375 C-55.28732748 20.47765404 -58.1333229 22.48886368 -60 27 C-60.57303325 31.16007258 -60.38010243 34.90720551 -59 38.875 C-54.99910358 43.12595245 -49.58485056 44.15289764 -43.9519043 44.38476562 C-42.07611255 44.40572594 -40.20011816 44.41220161 -38.32421875 44.40625 C-36.81550957 44.42250427 -36.81550957 44.42250427 -35.27632141 44.43908691 C-32.07998176 44.47315692 -28.88399675 44.48889519 -25.6875 44.5 C-21.48273782 44.51468076 -17.27875214 44.54858081 -13.07421875 44.59375 C-12.1280217 44.59072876 -11.18182465 44.58770752 -10.20695496 44.58459473 C1.34564524 44.7123497 12.772802 47.66725627 21.07421875 56.109375 C24.91889565 60.78424419 27.23885521 65.22735875 29 71 C29.27070312 71.87205078 29.27070312 71.87205078 29.546875 72.76171875 C31.66594562 83.22919691 30.56762155 93.83363477 25 103 C19.57246513 110.55939225 13.06081125 115.49222999 5 120 C4.35675781 120.38800781 3.71351563 120.77601563 3.05078125 121.17578125 C-7.73040265 127.23288891 -19.12259242 128.38673993 -31.25 128.5 C-32.33845215 128.51836914 -33.4269043 128.53673828 -34.54833984 128.55566406 C-46.66376536 128.46372731 -56.98876198 124.43168004 -65.9375 116.22265625 C-70.61256402 111.29570301 -74.05286607 105.53101172 -76 99 C-75.546875 96.84277344 -75.546875 96.84277344 -75 95 C-71.77132467 94.18553916 -68.5419759 93.37378011 -65.3125 92.5625 C-64.40048828 92.33240234 -63.48847656 92.10230469 -62.54882812 91.86523438 C-61.21948242 91.53168945 -61.21948242 91.53168945 -59.86328125 91.19140625 C-58.64572144 90.88505249 -58.64572144 90.88505249 -57.40356445 90.57250977 C-54.94562862 89.98704917 -52.48037229 89.48063245 -50 89 C-49.70867187 89.60328125 -49.41734375 90.2065625 -49.1171875 90.828125 C-45.49722652 97.88591056 -41.57978205 101.39273099 -34 104 C-23.65853842 105.19377946 -13.73187294 103.32198373 -4.9375 97.625 C-1.35331425 94.4221106 0.65913965 91.84233553 1.2421875 86.98046875 C1.36719127 83.23730035 1.4110183 79.958977 -1 77 C-5.85908912 74.14792595 -9.99229881 72.88276036 -15.578125 72.8581543 C-16.93103638 72.84760262 -16.93103638 72.84760262 -18.3112793 72.83683777 C-19.28105713 72.83267349 -20.25083496 72.82850922 -21.25 72.82421875 C-23.3242287 72.80100271 -25.39844746 72.77688467 -27.47265625 72.75195312 C-30.7264657 72.71700534 -33.97991339 72.6875834 -37.23388672 72.67407227 C-67.08137853 72.52604182 -67.08137853 72.52604182 -78 62 C-85.15195189 54.57623996 -89.20835509 44.64520231 -89.5625 34.375 C-89.04307184 22.72296293 -83.87189545 12.3654799 -75.4375 4.375 C-54.4848515 -12.81896728 -22.31637572 -16.13894418 0 0 Z " fill="#FCFCFD" transform="translate(554,145)"/>
<path d="M0 0 C0.87092285 -0.01796631 1.7418457 -0.03593262 2.63916016 -0.05444336 C15.65314076 -0.03602387 27.82566343 5.1098132 37.2734375 14.0234375 C43.69429242 21.0171568 50.375 31.46636272 50.375 41.3125 C41.37700434 42.70199558 32.46423201 43.7387611 23.375 44.3125 C23.14425781 43.72082031 22.91351562 43.12914062 22.67578125 42.51953125 C19.65560561 35.20187248 15.47738243 29.80349977 8.22265625 26.26171875 C-0.06318697 23.49977101 -9.52477665 24.24140895 -17.3125 28 C-21.34635956 30.33854832 -24.71857826 32.61341779 -27.625 36.3125 C-28.05167969 36.83972656 -28.47835937 37.36695313 -28.91796875 37.91015625 C-35.20534284 46.59447647 -35.87278045 57.43403122 -35.9375 67.8125 C-35.94305908 68.5657959 -35.94861816 69.3190918 -35.9543457 70.09521484 C-35.89601263 74.55943967 -35.24522401 78.10224048 -33.625 82.3125 C-33.34140625 83.26769531 -33.0578125 84.22289062 -32.765625 85.20703125 C-30.91239682 91.27879201 -28.74481562 96.24187138 -24.9921875 101.375 C-23.625 103.3125 -23.625 103.3125 -22.5859375 105.49609375 C-21.18013871 108.15339633 -19.42209581 108.35894461 -16.625 109.3125 C-15.614375 109.828125 -14.60375 110.34375 -13.5625 110.875 C-6.56580684 114.29891367 1.72505745 114.47974342 9.23828125 112.59375 C16.1759064 109.982929 21.37745778 106.89806412 24.625 100 C26.35918161 95.88512171 27.33427591 91.6442858 28.375 87.3125 C31.20775953 86.97353732 34.04104661 86.64120306 36.875 86.3125 C37.66648437 86.21710938 38.45796875 86.12171875 39.2734375 86.0234375 C44.34529404 85.44142118 49.26993859 85.21882915 54.375 85.3125 C55.2172053 98.2964984 52.31571321 108.97212071 44.375 119.3125 C43.7975 120.17875 43.22 121.045 42.625 121.9375 C35.59941894 129.35339112 26.94542268 133.16944606 17.375 136.3125 C16.34117187 136.67988281 15.30734375 137.04726562 14.2421875 137.42578125 C1.61881402 140.32023153 -14.9365218 140.37389177 -26.625 134.3125 C-27.89923828 133.67634766 -27.89923828 133.67634766 -29.19921875 133.02734375 C-46.17706081 123.69343058 -55.9629665 108.37042577 -61.625 90.3125 C-67.40953563 70.25123814 -65.92707651 48.43464892 -56.4375 29.75 C-53.25583292 24.28732236 -49.02937279 19.80927222 -44.625 15.3125 C-44.09390625 14.7453125 -43.5628125 14.178125 -43.015625 13.59375 C-31.41322396 2.3501861 -15.34505821 0.2241232 0 0 Z " fill="#FBFCFD" transform="translate(651.625,111.6875)"/>
<path d="M0 0 C11.04368393 -0.09962086 21.97640202 0.10832517 33 0.875 C35.83174368 1.06188084 38.66384963 1.24275072 41.49609375 1.421875 C42.60868813 1.4925267 42.60868813 1.4925267 43.74375916 1.56460571 C53.84428083 2.19365702 63.95360855 2.65403417 74.0625 3.125 C75.48405396 3.19143707 75.48405396 3.19143707 76.93432617 3.25921631 C82.28942262 3.50907887 87.64467335 3.75503615 93 4 C93 12.25 93 20.5 93 29 C90.091875 29.020625 87.18375 29.04125 84.1875 29.0625 C83.29571045 29.071604 82.4039209 29.08070801 81.48510742 29.09008789 C76.25479396 29.10764498 71.14609832 28.76916266 65.94360352 28.25170898 C59.26408046 27.68053968 52.55044131 27.59505201 45.8515625 27.39453125 C39.51385679 27.18662009 33.29075867 26.80478789 27 26 C27.01160156 26.93199219 27.02320313 27.86398438 27.03515625 28.82421875 C27.09497032 37.27509175 26.76571663 45.57631359 26 54 C26.82830322 53.98839844 27.65660645 53.97679687 28.51000977 53.96484375 C40.00976172 53.87795363 51.45490417 54.41612259 62.9375 55 C64.89256152 55.09669045 66.8476396 55.19304682 68.80273438 55.2890625 C73.53535547 55.52219932 78.26773106 55.75982545 83 56 C83.02727345 58.66673742 83.04696948 61.33318869 83.0625 64 C83.07087891 64.74378906 83.07925781 65.48757812 83.08789062 66.25390625 C83.10966272 71.26148844 82.71541549 76.04279032 82 81 C68.89612779 81.13366562 55.89365136 80.75424532 42.8125 80 C36.934375 79.67 31.05625 79.34 25 79 C24.34 96.49 23.68 113.98 23 132 C13.76 132 4.52 132 -5 132 C-5.21664676 114.9242966 -4.44709234 97.89773236 -3.72851944 80.84172821 C-3.6243827 78.36029056 -3.52170302 75.87879687 -3.41952515 73.39727783 C-2.41173663 48.92491723 -1.33163765 24.45718696 0 0 Z " fill="#FBFCFD" transform="translate(722,110)"/>
<path d="M0 0 C0.05607422 1.01707031 0.05607422 1.01707031 0.11328125 2.0546875 C1.22686986 17.81960856 7.82316367 29.77342696 16.9375 42.375 C22.39484934 49.92198216 27.00432981 57.58806277 31 66 C31.38027344 66.7940625 31.76054688 67.588125 32.15234375 68.40625 C35.92251553 77.71874805 35.0674611 88.20234233 31.625 97.4375 C26.60985586 109.21191638 19.20073479 120.22428966 11 130 C10.34 129.67 9.68 129.34 9 129 C9.40992188 128.35933594 9.81984375 127.71867187 10.2421875 127.05859375 C15.73479286 118.24151672 18.7971228 110.0411407 16.46484375 99.60546875 C14.92576562 94.66864435 12.70965897 90.39151626 10 86 C9.60167969 86.84884766 9.60167969 86.84884766 9.1953125 87.71484375 C8.84210937 88.44832031 8.48890625 89.18179687 8.125 89.9375 C7.60292969 91.03384766 7.60292969 91.03384766 7.0703125 92.15234375 C6 94 6 94 4 95 C3.97421875 93.75605469 3.9484375 92.51210937 3.921875 91.23046875 C3.5401487 78.57242467 2.37761584 68.05313901 -6 58 C-7.31250834 56.97281956 -8.64222435 55.96655216 -10 55 C-10.06316406 55.72703125 -10.12632812 56.4540625 -10.19140625 57.203125 C-11.33631794 66.60345259 -14.98677053 72.95222738 -20.15771484 80.74462891 C-29.70457193 94.6434984 -29.70457193 94.6434984 -31 111 C-28.82348431 117.19270537 -25.7477208 122.64611315 -22 128 C-21.67 128.99 -21.34 129.98 -21 131 C-29.14404405 128.28531865 -35.51744667 116.56924005 -39.4453125 109.33984375 C-46.29016281 95.09681691 -48.18859154 81.05998243 -42.96484375 66.01953125 C-40.37338379 59.44505567 -37.18192562 53.69086785 -33 48 C-32.73445312 48.53367187 -32.46890625 49.06734375 -32.1953125 49.6171875 C-31.30233846 51.39729914 -30.39971549 53.17257647 -29.4921875 54.9453125 C-28.95851563 55.99460937 -28.42484375 57.04390625 -27.875 58.125 C-27.33617187 59.17945313 -26.79734375 60.23390625 -26.2421875 61.3203125 C-25 64 -25 64 -25 66 C-24.34 66 -23.68 66 -23 66 C-23.23783203 64.82244141 -23.23783203 64.82244141 -23.48046875 63.62109375 C-26.095259 45.39620232 -23.98596777 26.5840077 -13.078125 11.30859375 C-4.3209607 0 -4.3209607 0 0 0 Z " fill="#FDFBFA" transform="translate(727,940)"/>
<path d="M0 0 C5.55800265 3.22449008 9.44549773 8.00836819 11.484375 14.125 C12.09405401 22.46061139 12.6874759 31.09089585 7.484375 38.125 C2.67308183 42.84309621 -2.70516036 44.89834963 -9.390625 45.4375 C-15.87551497 45.25150889 -22.03163681 42.85809865 -26.515625 38.125 C-31.26277781 31.08987519 -31.34635779 23.36471016 -30.515625 15.125 C-29.43436091 10.93962849 -28.06848307 8.10249867 -25.203125 4.875 C-24.62949219 4.20984375 -24.05585937 3.5446875 -23.46484375 2.859375 C-17.45663309 -2.48660803 -7.32097203 -2.54642505 0 0 Z " fill="#F8F8FB" transform="translate(861.515625,1303.875)"/>
<path d="M0 0 C1.11677492 0.94947559 2.23244654 1.90024897 3.34765625 2.8515625 C3.96906494 3.38088379 4.59047363 3.91020508 5.23071289 4.45556641 C7.2481965 6.21665393 9.14412108 8.06988592 11 10 C9.46043866 13.65881177 7.25910943 15.9829179 4.45849609 18.76855469 C3.77043129 19.45705757 3.77043129 19.45705757 3.06846619 20.1594696 C1.5581509 21.66839675 0.04088612 23.17012454 -1.4765625 24.671875 C-2.5278917 25.71947224 -3.57877885 26.76751328 -4.62924194 27.815979 C-7.39001016 30.5691252 -10.15673249 33.31621127 -12.92474365 36.06207275 C-15.75032928 38.86716916 -18.57023445 41.67796321 -21.390625 44.48828125 C-26.92154374 49.99777532 -32.45876589 55.50087877 -38 61 C-42.66874537 57.10023279 -47.09127809 53.04785356 -51.37109375 48.7265625 C-51.93828629 48.15795502 -52.50547882 47.58934753 -53.08985901 47.00350952 C-54.87479913 45.21303764 -56.65620256 43.41909516 -58.4375 41.625 C-59.65796939 40.39950677 -60.87867053 39.17424428 -62.09960938 37.94921875 C-65.06908756 34.96880226 -68.03540257 31.98527106 -71 29 C-70.05052441 27.88322508 -69.09975103 26.76755346 -68.1484375 25.65234375 C-67.61911621 25.03093506 -67.08979492 24.40952637 -66.54443359 23.76928711 C-64.78334607 21.7518035 -62.93011408 19.85587892 -61 18 C-57.53370165 19.48653506 -55.30977964 21.45722351 -52.671875 24.1328125 C-51.87265625 24.93847656 -51.0734375 25.74414062 -50.25 26.57421875 C-49.425 27.41597656 -48.6 28.25773437 -47.75 29.125 C-46.90953125 29.97449219 -46.0690625 30.82398438 -45.203125 31.69921875 C-43.13084317 33.79504923 -41.06337607 35.89540713 -39 38 C-33.85170256 33.69372744 -29.04247928 29.17688069 -24.31640625 24.4140625 C-23.26585304 23.36138687 -23.26585304 23.36138687 -22.19407654 22.28744507 C-19.98116973 20.06898864 -17.77178584 17.84706185 -15.5625 15.625 C-14.05296686 14.11044534 -12.54320343 12.59612015 -11.03320312 11.08203125 C-7.35280298 7.39066901 -3.67528043 3.69645931 0 0 Z " fill="#BC3632" transform="translate(865,1025)"/>
<path d="M0 0 C26.86046512 0 26.86046512 0 32.8125 5.6875 C37.80603076 13.2491323 38.88976605 19.94388798 38 29 C36.82182281 34.54382598 34.45843882 38.45351457 30 42 C23.72579538 45.48473848 18.12434826 45.35712847 11.0625 45.1875 C7.411875 45.125625 3.76125 45.06375 0 45 C0 30.15 0 15.3 0 0 Z " fill="#F2F3F8" transform="translate(787,1303)"/>
<path d="M0 0 C5.754375 -0.0928125 5.754375 -0.0928125 11.625 -0.1875 C13.42251709 -0.22846802 13.42251709 -0.22846802 15.25634766 -0.27026367 C20.89019131 -0.3142559 25.20702271 -0.33322687 30 3 C36.59484354 9.89460915 37.39976467 15.25083179 37.25390625 24.546875 C36.77711756 31.03120123 34.74703581 36.3848263 30 41 C23.7491804 44.50923205 18.10801803 44.35673621 11.0625 44.1875 C7.411875 44.125625 3.76125 44.06375 0 44 C0 29.48 0 14.96 0 0 Z " fill="#FBFBFD" transform="translate(615,1304)"/>
<path d="M0 0 C4.38675632 2.5741155 7.06507766 5.62690342 9.4453125 10.08984375 C9.4453125 10.74984375 9.4453125 11.40984375 9.4453125 12.08984375 C6.42004515 12.75553439 3.54862459 13.23787227 0.4453125 13.08984375 C-0.3384375 12.28546875 -1.1221875 11.48109375 -1.9296875 10.65234375 C-5.01272987 7.64270715 -5.94419569 7.6486196 -10.1171875 7.52734375 C-13.75952445 7.68911645 -15.16766638 7.8134001 -18.1796875 9.96484375 C-20.67965707 13.82843309 -20.77033186 16.89745982 -20.8046875 21.40234375 C-20.83046875 22.71847656 -20.85625 24.03460937 -20.8828125 25.390625 C-20.54223532 29.23022728 -19.85678981 31.05422845 -17.5546875 34.08984375 C-14.12065613 36.66536728 -10.72286939 36.37243235 -6.5546875 36.08984375 C-4.15690691 35.54871039 -1.89630121 34.85445231 0.4453125 34.08984375 C0.4453125 32.10984375 0.4453125 30.12984375 0.4453125 28.08984375 C-2.8546875 28.08984375 -6.1546875 28.08984375 -9.5546875 28.08984375 C-9.5546875 25.44984375 -9.5546875 22.80984375 -9.5546875 20.08984375 C-2.9546875 20.08984375 3.6453125 20.08984375 10.4453125 20.08984375 C11.40476424 36.76031776 11.40476424 36.76031776 8.8046875 40.36328125 C6.67182073 41.66669983 4.85998949 42.45973643 2.4453125 43.08984375 C1.85621094 43.27546875 1.26710938 43.46109375 0.66015625 43.65234375 C-6.77981703 45.1219681 -16.06090076 45.7213586 -22.7421875 41.71484375 C-28.22311589 37.2104026 -31.05066166 31.83853597 -31.9921875 24.8359375 C-32.2401582 18.14847755 -31.75968469 12.47174978 -27.5546875 7.08984375 C-19.99338677 -0.75215492 -10.77755773 -3.83971093 0 0 Z " fill="#F4F5F9" transform="translate(910.5546875,1303.91015625)"/>
<path d="M0 0 C1.37478516 0.01740234 1.37478516 0.01740234 2.77734375 0.03515625 C3.69644531 0.04417969 4.61554687 0.05320312 5.5625 0.0625 C6.27277344 0.07410156 6.98304688 0.08570313 7.71484375 0.09765625 C10.39089958 5.31712798 12.80488237 10.53500454 14.94921875 15.9921875 C15.37355194 17.06323982 15.37355194 17.06323982 15.80645752 18.15592957 C16.39641661 19.64839119 16.98451574 21.14158932 17.57080078 22.63549805 C18.47041399 24.92432826 19.37941989 27.20928067 20.2890625 29.49414062 C20.86384945 30.95159896 21.43808819 32.40927364 22.01171875 33.8671875 C22.41943512 34.88906914 22.41943512 34.88906914 22.83538818 35.93159485 C23.95886767 38.81405021 24.71484375 40.97358551 24.71484375 44.09765625 C21.74484375 44.09765625 18.77484375 44.09765625 15.71484375 44.09765625 C14.39484375 41.12765625 13.07484375 38.15765625 11.71484375 35.09765625 C5.77484375 34.76765625 -0.16515625 34.43765625 -6.28515625 34.09765625 C-7.27515625 37.39765625 -8.26515625 40.69765625 -9.28515625 44.09765625 C-12.58515625 44.09765625 -15.88515625 44.09765625 -19.28515625 44.09765625 C-16.68166624 35.93131347 -13.62482464 27.94855517 -10.55957031 19.94726562 C-9.65217718 17.5768119 -8.74977836 15.20449524 -7.84765625 12.83203125 C-7.27243401 11.32670878 -6.69692386 9.8214963 -6.12109375 8.31640625 C-5.85130707 7.60609253 -5.58152039 6.89577881 -5.30355835 6.16394043 C-2.98273503 0.12746731 -2.98273503 0.12746731 0 0 Z " fill="#F7F7FB" transform="translate(757.28515625,1303.90234375)"/>
<path d="M0 0 C3.63 0 7.26 0 11 0 C13.42322573 6.10469398 15.84424439 12.21025664 18.26318359 18.31665039 C19.08711468 20.39566955 19.91165811 22.47444613 20.73681641 24.55297852 C21.91989023 27.53338717 23.10078936 30.51464928 24.28125 33.49609375 C24.65310425 34.43150497 25.0249585 35.3669162 25.40808105 36.33067322 C25.74843384 37.19149002 26.08878662 38.05230682 26.43945312 38.93920898 C26.7414563 39.70087875 27.04345947 40.46254852 27.35461426 41.24729919 C28 43 28 43 28 44 C24.7 44 21.4 44 18 44 C15 37.375 15 37.375 15 34 C8.73 34 2.46 34 -4 34 C-4.99 37.3 -5.98 40.6 -7 44 C-10.3 44 -13.6 44 -17 44 C-11.60024467 29.21888458 -6.1679268 14.48033146 0 0 Z " fill="#F7F8FB" transform="translate(672,1304)"/>
<path d="M0 0 C1.65 0 3.3 0 5 0 C5.33 4.62 5.66 9.24 6 14 C7.32 13.01 8.64 12.02 10 11 C14.79992915 10.45807251 16.99719176 10.48913542 21.3125 12.6875 C25.0531676 15.90621398 26.8064277 18.37740863 27.3984375 23.33984375 C27.39070312 24.52707031 27.38296875 25.71429687 27.375 26.9375 C27.38273438 28.12214844 27.39046875 29.30679687 27.3984375 30.52734375 C26.83900514 35.40318072 25.13344097 38.69482555 21.9375 42.375 C17.73650993 44.69895195 13.71185778 44.68681317 9 44 C8.01 43.34 7.02 42.68 6 42 C5.67 42.66 5.34 43.32 5 44 C3.35 44 1.7 44 0 44 C0 29.48 0 14.96 0 0 Z " fill="#F6F7FB" transform="translate(532,1304)"/>
<path d="M0 0 C11.88 0 23.76 0 36 0 C36 2.64 36 5.28 36 8 C31.38 8 26.76 8 22 8 C22 20.21 22 32.42 22 45 C19.03 45 16.06 45 13 45 C13 32.79 13 20.58 13 8 C8.71 8 4.42 8 0 8 C0 5.36 0 2.72 0 0 Z " fill="#EFF0F7" transform="translate(701,1303)"/>
<path d="M0 0 C3.77232226 0.06912632 5.41759518 0.22076868 8.75 2.125 C13.14390011 7.22759368 13.11120883 11.64655142 13.0078125 18.234375 C12.56729358 22.55360928 11.65049557 24.24739357 8.6875 27.375 C8.11 27.99375 7.5325 28.6125 6.9375 29.25 C3.49891091 30.96929455 0.37666356 31.23214767 -3.3125 30.375 C-6.60528298 28.42582387 -9.63747218 26.21955276 -10.984375 22.5390625 C-11.86135534 16.75516837 -12.82182621 9.83277989 -9.4375 4.75 C-6.08658086 1.00485508 -5.0471049 0.06829641 0 0 Z " fill="#15268E" transform="translate(851.3125,1310.625)"/>
<path d="M0 0 C12.96551724 0 12.96551724 0 17 3 C19.07383654 6.99034754 19.29797846 10.4793871 19.3125 14.9375 C19.32925781 16.12214844 19.34601562 17.30679687 19.36328125 18.52734375 C18.95964248 22.38578315 18.097567 24.74711394 16 28 C12 30 12 30 0 30 C0 20.1 0 10.2 0 0 Z " fill="#1C2C91" transform="translate(796,1311)"/>
<path d="M0 0 C12.68965517 0 12.68965517 0 16 3 C20.09915513 8.65883367 19.63469407 14.26378031 19 21 C17.48205663 25.26469804 16.75096319 26.49935788 13 29 C8.71 29 4.42 29 0 29 C0 19.43 0 9.86 0 0 Z " fill="#14258E" transform="translate(624,1311)"/>
<path d="M0 0 C1.98 0 3.96 0 6 0 C6.75344851 1.76936883 7.50251617 3.5406031 8.25 5.3125 C8.66765625 6.29863281 9.0853125 7.28476563 9.515625 8.30078125 C11.46455699 13.15772493 13.23412803 18.07405915 15 23 C15.23710693 22.3387915 15.47421387 21.67758301 15.71850586 20.99633789 C16.78859637 18.01733807 17.86298824 15.03990779 18.9375 12.0625 C19.31068359 11.02158203 19.68386719 9.98066406 20.06835938 8.90820312 C20.42607422 7.91884766 20.78378906 6.92949219 21.15234375 5.91015625 C21.48226318 4.99371338 21.81218262 4.07727051 22.15209961 3.13305664 C23 1 23 1 24 0 C25.66617115 -0.04063832 27.33388095 -0.042721 29 0 C26.83161149 7.77091253 24.1432738 15.32677422 21.29370117 22.86987305 C20.55840509 24.8233792 19.83680245 26.78162269 19.11523438 28.74023438 C18.64145581 30.00031269 18.16687477 31.26008964 17.69140625 32.51953125 C17.27060791 33.64464111 16.84980957 34.76975098 16.41625977 35.92895508 C14.67878073 39.69653805 12.80246256 43.09876872 9 45 C7.00039988 45.039992 4.99952758 45.04346799 3 45 C3 43.35 3 41.7 3 40 C3.94875 39.7525 4.8975 39.505 5.875 39.25 C8.97927603 38.28980842 8.97927603 38.28980842 10.4375 36.3125 C11.75617813 30.89126771 9.62578326 25.46567978 7.71484375 20.41015625 C7.26689453 19.21455078 6.81894531 18.01894531 6.35742188 16.78710938 C5.65456055 14.94342773 5.65456055 14.94342773 4.9375 13.0625 C4.45963505 11.79386497 3.98241559 10.5249866 3.50585938 9.25585938 C2.34355589 6.16812385 1.17476771 3.08301014 0 0 Z " fill="#F3F4F9" transform="translate(563,1316)"/>
<path d="M0 0 C3.62754776 0.77733166 5.43034769 1.65848967 7.6171875 4.70703125 C9.44519429 8.93733014 9.2375398 13.27160516 8.5 17.75 C7.18323073 20.89799723 5.63028749 23.18485625 2.5 24.75 C-0.375 25.0625 -0.375 25.0625 -3.5 24.75 C-6.66782697 22.18149165 -8.34429829 20.2358392 -8.7734375 16.140625 C-9.08175218 6.60658657 -9.08175218 6.60658657 -6.4375 3 C-3.5 0.75 -3.5 0.75 0 0 Z " fill="#17288F" transform="translate(545.5,1319.25)"/>
<path d="M0 0 C0.66 0 1.32 0 2 0 C2.67467562 1.74692795 3.33944156 3.49768525 4 5.25 C4.556875 6.71179687 4.556875 6.71179687 5.125 8.203125 C6 11 6 11 6 15 C2.37 15 -1.26 15 -5 15 C-3.35 10.05 -1.7 5.1 0 0 Z " fill="#1F2F93" transform="translate(759,1315)"/>
<path d="M0 0 C2.38125464 2.38125464 3.00186241 4.33857567 4.125 7.5 C4.65480469 8.96953125 4.65480469 8.96953125 5.1953125 10.46875 C6 13 6 13 6 15 C2.37 15 -1.26 15 -5 15 C-3.91463082 9.48966417 -2.78609311 4.93898323 0 0 Z " fill="#1E2E92" transform="translate(677,1315)"/>
</svg>
