<svg width="2400" height="1200" viewBox="0 0 2400 1200" fill="none" xmlns="http://www.w3.org/2000/svg">
<path d="M915 518.956V538.003H970.006V684.658H990.72V538.003H1045.73V518.956H915Z" fill="#141414"/>
<path d="M1050.01 624.906C1050.01 661.087 1073.82 686.087 1110.25 686.087C1137.38 686.087 1159.3 669.19 1164.06 644.905H1144.3C1140.25 660.619 1125 668.706 1108.82 668.706C1086.2 668.706 1071.2 652.992 1070.48 630.382V628.715H1164.77C1165.01 625.858 1165.24 623.001 1165.24 620.382C1164.29 584.43 1140.95 562.764 1107.63 562.764C1073.34 562.764 1050.01 587.525 1050.01 624.906ZM1071.67 612.525C1073.58 592.763 1090.01 579.907 1107.86 579.907C1127.14 579.907 1142.39 591.573 1144.29 612.525H1071.67Z" fill="#141414"/>
<path d="M1335.55 562.764C1313.88 562.764 1300.79 572.764 1293.41 585.859C1286.5 570.383 1271.98 562.764 1255.07 562.764C1236.26 562.764 1226.03 572.05 1219.6 580.859L1217.94 564.193H1200.07V684.658H1219.6V621.572C1219.6 597.287 1231.74 580.621 1251.74 580.621C1270.31 580.621 1281.03 593.001 1281.03 616.81V684.658H1300.55V620.62C1300.55 595.859 1312.93 580.621 1333.17 580.621C1351.5 580.621 1361.98 593.001 1361.98 616.81V684.658H1381.5V615.62C1381.5 577.288 1360.79 562.764 1335.55 562.764Z" fill="#141414"/>
<path d="M1478.41 562.764C1457.93 562.764 1444.84 572.526 1436.74 583.716L1435.08 564.193H1417.22V732.276H1436.74V666.087C1444.12 677.754 1457.93 686.087 1478.41 686.087C1511.02 686.087 1536.74 661.087 1536.74 624.906C1536.74 585.383 1511.02 562.764 1478.41 562.764ZM1476.5 668.706C1452.69 668.706 1436.5 650.135 1436.5 624.429C1436.5 598.478 1452.69 580.145 1476.5 580.145C1499.59 580.145 1516.74 598.478 1516.74 624.906C1516.74 650.373 1499.59 668.706 1476.5 668.706Z" fill="#141414"/>
<path d="M1624.65 686.087C1660.13 686.087 1684.89 660.849 1684.89 624.906C1684.89 588.002 1660.13 562.764 1624.65 562.764C1589.18 562.764 1564.41 588.002 1564.41 624.906C1564.41 660.849 1589.18 686.087 1624.65 686.087ZM1624.65 668.706C1600.6 668.706 1584.41 649.897 1584.41 624.906C1584.41 598.954 1600.6 580.145 1624.65 580.145C1648.7 580.145 1664.89 598.954 1664.89 624.906C1664.89 649.897 1648.7 668.706 1624.65 668.706Z" fill="#141414"/>
<path d="M1773.12 564.193C1751.45 564.193 1740.24 573.24 1734.53 582.526L1732.87 564.193H1715.01V684.658H1734.53V623.715C1734.53 604.43 1743.35 583.24 1768.83 583.24H1778.59V564.193H1773.12Z" fill="#141414"/>
<path d="M1908.98 665.842C1903.98 665.842 1900.88 663.945 1900.88 657.992V606.573C1900.88 578.24 1883.99 562.764 1853.03 562.764C1823.75 562.764 1804.46 576.811 1801.61 600.62H1821.13C1823.51 588.24 1834.94 580.145 1852.08 580.145C1871.13 580.145 1881.36 589.668 1881.36 605.382V613.715H1846.61C1814.7 613.715 1797.8 626.326 1797.8 650.612C1797.8 672.754 1815.89 686.087 1842.56 686.087C1863.51 686.087 1874.69 676.801 1882.31 665.849C1882.55 677.754 1888.03 684.658 1904.22 684.658H1914.93V665.842H1908.98ZM1881.36 635.136C1881.36 655.373 1868.27 669.421 1843.99 669.421C1827.8 669.421 1817.56 661.326 1817.56 649.421C1817.56 635.612 1827.32 630.144 1844.7 630.144H1881.36V635.136Z" fill="#141414"/>
<path d="M1942.63 518.956V684.658H1962.15V518.956H1942.63Z" fill="#141414"/>
<path d="M677.375 531.625C668.152 462.648 644.892 405 609 405C573.208 405 549.848 462.648 540.625 531.625C471.648 540.848 414 564.108 414 600C414 635.792 471.648 659.152 540.625 668.375C549.848 737.352 573.108 795 609 795C644.792 795 668.152 737.352 677.375 668.375C746.352 659.152 804 635.892 804 600C804 564.108 746.352 540.748 677.375 531.625ZM538.419 648.123C472.35 638.599 433.751 616.743 433.751 599.9C433.751 583.057 472.249 561.201 538.419 551.676C536.915 567.617 536.213 583.859 536.213 599.9C536.213 615.941 536.915 632.283 538.419 648.123ZM609 424.65C625.843 424.65 647.699 463.149 657.224 529.319C641.283 527.815 625.041 527.113 609 527.113C592.959 527.113 576.717 527.915 560.776 529.319C570.301 463.249 592.157 424.65 609 424.65ZM679.581 648.123C676.373 648.625 662.938 650.129 659.63 650.53C659.329 653.938 657.725 667.272 657.224 670.481C647.699 736.55 625.843 775.149 609 775.149C592.157 775.149 570.301 736.65 560.776 670.481C560.275 667.272 558.771 653.838 558.37 650.53C556.866 634.889 555.864 618.046 555.864 599.9C555.864 581.753 556.766 565.01 558.37 549.27C574.01 547.766 590.853 546.763 609 546.763C627.147 546.763 643.889 547.666 659.63 549.27C663.039 549.571 676.373 551.175 679.581 551.676C745.65 561.201 784.249 583.057 784.249 599.9C784.249 616.743 745.65 638.599 679.581 648.123Z" fill="#141414"/>
</svg>
