<svg width="150" height="28" viewBox="0 0 150 28" fill="none" xmlns="http://www.w3.org/2000/svg">
<path fill-rule="evenodd" clip-rule="evenodd" d="M14.2475 0.000848498C21.6677 0.236307 27.6119 6.38201 27.6119 13.9286C27.6119 21.4751 21.6677 27.6208 14.2475 27.8563V22.8357C18.922 22.6037 22.6416 18.7044 22.6416 13.9286C22.6416 9.15277 18.922 5.25349 14.2475 5.02143V0.000848498ZM13.3916 27.8571C5.9584 27.6361 0 21.4849 0 13.9286C0 6.37269 5.9584 0.221034 13.3916 0V5.02016C8.70408 5.23822 4.96988 9.14344 4.96988 13.9286C4.96988 18.7137 8.70408 22.6189 13.3916 22.8374V27.8571Z" fill="#0C173B"/>
<path fill-rule="evenodd" clip-rule="evenodd" d="M7.20418 9.78051L10.3916 12.0409C10.068 12.6249 9.8836 13.2983 9.8836 14.0151C9.8836 14.7236 10.0639 15.3898 10.3804 15.9692L7.19218 18.23C6.4366 17.0074 6 15.5629 6 14.0151C6 12.4589 6.44116 11.0073 7.20418 9.78051ZM20.5856 18.23L17.3978 15.9692C17.7143 15.3898 17.8946 14.7236 17.8946 14.0151C17.8946 13.2983 17.7102 12.6249 17.3867 12.0409L20.574 9.78051C21.3371 11.0073 21.7782 12.4589 21.7782 14.0151C21.7782 15.5629 21.3416 17.0074 20.5856 18.23ZM14.3098 6.0559C16.6525 6.18004 18.7245 7.33702 20.0879 9.08414L16.8997 11.3454C16.2527 10.601 15.3394 10.0986 14.3098 9.98992V6.0559ZM13.468 6.0559V9.98992C12.4388 10.0986 11.5256 10.601 10.8785 11.3454L7.69024 9.08414C9.05374 7.33702 11.1257 6.18004 13.468 6.0559ZM13.468 21.9742C11.1179 21.8493 9.0397 20.6848 7.67668 18.9276L10.8636 16.6672C11.5115 17.4212 12.431 17.9303 13.468 18.0398V21.9742ZM14.3098 21.9742V18.0398C15.3473 17.9303 16.2667 17.4212 16.9146 16.6672L20.1015 18.9276C18.7385 20.6848 16.6604 21.8493 14.3098 21.9742Z" fill="#0C173B"/>
<path fill-rule="evenodd" clip-rule="evenodd" d="M43.987 4.84472C46.3629 4.84472 48.411 5.72318 50.0903 7.52704C51.7334 9.2933 52.5878 11.4253 52.5878 13.9248C52.5878 16.4272 51.7413 18.5678 50.0903 20.3354C48.4088 22.1347 46.36 23.0124 43.987 23.0124C41.6191 23.0124 39.574 22.1317 37.8975 20.3354C36.2457 18.5678 35.4 16.4272 35.4 13.9248C35.4 11.4253 36.2515 9.2933 37.8975 7.52704C39.5725 5.72629 41.6177 4.84472 43.987 4.84472ZM65.637 11.7143C65.9403 11.9441 66.2328 12.2577 66.4316 12.4705C67.5259 13.6473 68.0769 15.0737 68.0769 16.7355C68.0769 18.4179 67.4812 19.8466 66.3761 21.0356C65.4194 22.0602 64.2401 22.6297 62.9081 22.821L62.8822 22.8249H57.0218V5.07756H62.4205C63.5227 5.07756 64.4944 5.47496 65.2768 6.31351C66.0261 7.11737 66.4345 8.08962 66.4345 9.23027C66.4345 10.171 66.1637 11.0049 65.637 11.7143ZM77.0322 13.8932C75.9653 13.5189 74.9625 12.9494 74.165 12.0924C73.4043 11.2785 73.0182 10.2848 73.0182 9.13265C73.0182 7.97129 73.4404 6.98215 74.2004 6.15818C75.0014 5.29199 75.9941 4.87619 77.1309 4.87619C78.2792 4.87619 79.2711 5.31813 80.0888 6.18362C80.578 6.70156 80.8906 7.37483 81.0938 8.07203L81.2018 8.43475L78.7323 9.46773L78.5968 9.07887C78.4996 8.79597 78.2856 8.20343 78.0868 7.98587C77.8217 7.69533 77.5127 7.51859 77.1309 7.51859C76.7563 7.51859 76.4529 7.69232 76.1915 7.9728C75.8926 8.2926 75.7679 8.68377 75.7679 9.13265C75.7679 9.59842 75.9048 9.9911 76.2052 10.3247C76.61 10.7405 77.128 11.0625 77.6344 11.3184C78.8771 11.7527 79.9959 12.4406 80.9245 13.4328C81.9481 14.5257 82.4944 15.8408 82.4944 17.3925C82.4944 18.9389 81.959 20.2593 80.9404 21.3492C79.8928 22.4682 78.6091 23.0124 77.1309 23.0124C75.6324 23.0124 74.3516 22.4414 73.294 21.3024C72.4332 20.3754 71.9592 19.221 71.7834 17.9336L71.7373 17.604L74.4006 16.574L74.4503 17.0952C74.5302 17.9306 74.7428 18.9228 75.3183 19.5369C75.8248 20.0765 76.4134 20.3601 77.1309 20.3601C77.8635 20.3601 78.4686 20.0619 78.9844 19.5085C79.5313 18.9244 79.779 18.218 79.779 17.3925C79.779 16.5801 79.5478 15.8693 79.0046 15.2943C78.4348 14.6902 77.7698 14.2268 77.0322 13.8932ZM86.959 22.8249H89.7122V5.07756H86.959V22.8249ZM98.5203 5.07756C100.908 5.07756 103.217 5.72931 104.934 7.58776C106.56 9.34548 107.394 11.4698 107.394 13.9478C107.394 16.4534 106.542 18.6023 104.893 20.377C103.189 22.2093 100.875 22.8249 98.5203 22.8249H94.8022V5.07756H98.5203ZM111.938 22.8249H114.689V5.07756H111.938V22.8249ZM125.569 10.2517C123.968 14.9662 123.342 16.7869 121.261 22.8249H118.373L124.449 5.07756H126.707L132.699 22.8249H129.822C127.924 17.2089 127.127 14.8686 125.569 10.2517ZM147.252 17.7362V5.07756H150V22.8249H147.228L139.041 10.5076V22.8249H136.29V5.07756H138.832L147.252 17.7362ZM43.987 7.51859C42.3784 7.51859 41.0248 8.1604 39.8916 9.38237C38.7209 10.6382 38.1591 12.15 38.1591 13.9248C38.1591 15.701 38.7166 17.2242 39.8902 18.4801C41.0262 19.6984 42.3784 20.3354 43.987 20.3354C45.6007 20.3354 46.9587 19.7014 48.0962 18.4801C49.2712 17.2242 49.8272 15.701 49.8272 13.9248C49.8272 12.15 49.2653 10.6382 48.0962 9.38237C46.9587 8.15728 45.6021 7.51859 43.987 7.51859ZM59.7709 7.73152V10.6314H62.5531C62.8239 10.5983 63.1041 10.5091 63.3008 10.2947L63.3058 10.2901C63.5796 10.0042 63.6739 9.63139 63.6739 9.23027C63.6739 8.80903 63.5579 8.45094 63.2799 8.15426C63.0379 7.89368 62.7562 7.73152 62.4082 7.73152H59.7709ZM59.7709 13.2975V20.1602H62.2648C63.1055 20.1602 63.8029 19.8136 64.3929 19.1803C65.0225 18.5031 65.307 17.6877 65.307 16.7355C65.307 15.7786 65.0225 14.9607 64.3929 14.2798C63.8029 13.6473 63.1055 13.2975 62.2648 13.2975H59.7709ZM97.5502 7.77918V20.1357H98.509C100.114 20.1357 101.682 19.736 102.856 18.5185C104.034 17.2519 104.601 15.7316 104.601 13.9478C104.601 12.1631 104.026 10.6452 102.864 9.38549C101.682 8.17035 100.108 7.77918 98.509 7.77918H97.5502Z" fill="#0C173B"/>
</svg>
