<svg xmlns="http://www.w3.org/2000/svg" width="75" height="32" viewBox="0 0 75 32" fill="none">
  <path d="M30.1914 1.52734H29.3779L20.8828 22.7982H23.8891L25.3311 18.8981H33.9973L35.4393 22.7982H38.4456L30.1914 1.52734ZM33.051 16.2898H26.2913L29.7899 7.56432L33.0476 16.2898H33.051Z" fill="#158864" />
  <path d="M36.8281 1.53772V2.07543V2.34777V4.14595H42.9454V22.7946H44.9112H45.1626H45.7701V4.14595H51.8874V2.34777V1.94973V1.53772H36.8281Z" fill="#158864" />
  <path d="M8.12124 30.2842L6.82934 27.7354H5.98438V31.213H6.64778V28.6955L7.93967 31.213H8.78464V27.7354H8.12124V30.2842Z" fill="#158864" />
  <path d="M14.7019 27.7354H14.4609V31.2235H14.7019H15.1453H16.9086V30.5845H15.1453V29.8059H16.6222V29.1634H15.1453V28.3638H16.9086V27.7354H15.1453H14.7019Z" fill="#158864" />
  <path d="M22.5703 28.3638H23.5654V31.2235H24.2498V28.3638H25.2449V27.7354H22.5703V28.3638Z" fill="#158864" />
  <path d="M34.046 30.0573L33.3477 27.7354H32.7891L32.0907 30.0573L31.6229 27.7354H30.9141L31.759 31.2235H32.398L33.0858 28.7759L33.7248 31.2235H34.3777L35.2227 27.7354H34.5139L34.046 30.0573Z" fill="#158864" />
  <path d="M42.9223 27.8504C42.7163 27.7492 42.4894 27.6898 42.224 27.6898C41.9586 27.6898 41.7212 27.7457 41.5257 27.8504C41.3197 27.9517 41.1695 28.1018 41.0578 28.2974C40.9426 28.4929 40.8867 28.7198 40.8867 28.9712V29.9559C40.8867 30.2073 40.9426 30.4377 41.0578 30.6297C41.173 30.8253 41.3197 30.9719 41.5257 31.0767C41.7317 31.1779 41.9586 31.2373 42.224 31.2373C42.4894 31.2373 42.7268 31.1814 42.9223 31.0767C43.1283 30.9754 43.2785 30.8253 43.3902 30.6297C43.5054 30.4342 43.5613 30.2073 43.5613 29.9559V28.9712C43.5613 28.7198 43.5054 28.4894 43.3902 28.2974C43.2889 28.1158 43.1283 27.9657 42.9223 27.8504ZM42.842 29.9873C42.842 30.113 42.8176 30.2177 42.7617 30.3085C42.7163 30.3993 42.636 30.4691 42.5452 30.525C42.4544 30.5704 42.3392 30.6053 42.2135 30.6053C42.0878 30.6053 41.9831 30.5809 41.8818 30.525C41.791 30.4796 41.7107 30.3993 41.6653 30.3085C41.62 30.2177 41.585 30.113 41.585 29.9873V28.9712C41.585 28.8455 41.6095 28.7408 41.6653 28.65C41.7107 28.5592 41.791 28.4894 41.8818 28.4335C41.9726 28.3881 42.0878 28.3532 42.2135 28.3532C42.3392 28.3532 42.444 28.3777 42.5452 28.4335C42.636 28.4789 42.7163 28.5592 42.7617 28.65C42.8071 28.7408 42.842 28.8455 42.842 28.9712V29.9873Z" fill="#158864" />
  <path d="M51.3591 29.6906C51.5092 29.5999 51.6349 29.4846 51.7152 29.324C51.7956 29.1634 51.8409 28.9819 51.8409 28.7759C51.8409 28.5698 51.7956 28.3883 51.7152 28.2277C51.6349 28.0671 51.5092 27.9518 51.3591 27.861C51.209 27.7703 51.0274 27.7354 50.8319 27.7354H49.2188V31.2235H49.9066V29.8163H50.3291L51.1531 31.2235H51.9876L51.1182 29.7814C51.1985 29.757 51.2788 29.7256 51.3591 29.6906ZM49.9206 28.3638H50.7795C50.8493 28.3638 50.9157 28.3743 50.9611 28.4092C51.0064 28.4441 51.0518 28.4895 51.0868 28.5594C51.1217 28.6152 51.1321 28.6955 51.1321 28.7759C51.1321 28.8562 51.1217 28.926 51.0868 28.9923C51.0518 29.0482 51.0169 29.1076 50.9611 29.1425C50.9052 29.1774 50.8458 29.1879 50.7795 29.1879H49.9206V28.3638Z" fill="#158864" />
  <path d="M60.4046 27.7354H59.5351L58.3445 29.4637V27.7354H57.6602V31.2235H58.3445V30.4693L58.8717 29.771L59.7412 31.2235H60.5512L59.3187 29.1774L60.4046 27.7354Z" fill="#158864" />
  <path d="M68.8329 29.6347C68.7316 29.4985 68.6024 29.3938 68.4453 29.3379C68.2847 29.282 68.1031 29.2227 67.8622 29.1773C67.8518 29.1773 67.8378 29.1773 67.8273 29.1668C67.8168 29.1668 67.8029 29.1668 67.7924 29.1563H67.747C67.5864 29.1214 67.4607 29.1005 67.3699 29.0656C67.2791 29.0411 67.2093 28.9957 67.1395 28.9399C67.0836 28.884 67.0487 28.8037 67.0487 28.6989C67.0487 28.5837 67.1045 28.4825 67.2198 28.4231C67.335 28.3533 67.4956 28.3218 67.7121 28.3218C67.8483 28.3218 67.9984 28.3463 68.159 28.4022C68.3092 28.4475 68.4558 28.5279 68.6059 28.6186L68.8922 28.06C68.777 27.9797 68.6513 27.9238 68.5152 27.8644C68.3895 27.8086 68.2533 27.7737 68.1136 27.7388C67.9774 27.7038 67.8378 27.6934 67.7121 27.6934C67.4258 27.6934 67.1849 27.7388 66.9789 27.8191C66.7728 27.8994 66.6227 28.0251 66.5215 28.1857C66.4202 28.3463 66.3608 28.5418 66.3608 28.7688C66.3608 29.0202 66.4167 29.2157 66.5319 29.3623C66.6471 29.4985 66.7833 29.6033 66.9439 29.6487C67.1045 29.7045 67.3106 29.7499 67.5515 29.7848L67.6073 29.7953H67.6318C67.768 29.8197 67.8832 29.8407 67.974 29.8651C68.0647 29.8896 68.1346 29.935 68.1904 29.9804C68.2463 30.0362 68.2707 30.1061 68.2707 30.1968C68.2707 30.333 68.2149 30.4378 68.0892 30.5041C67.9635 30.5704 67.7924 30.6193 67.5619 30.6193C67.3664 30.6193 67.1744 30.5844 66.9893 30.5285C66.8043 30.4727 66.6471 30.3784 66.497 30.2771L66.1758 30.8149C66.291 30.9056 66.4272 30.9859 66.5633 31.0453C66.7135 31.1151 66.8706 31.1605 67.0312 31.1954C67.2023 31.2304 67.2826 31.2408 67.2826 31.2408H67.5445C67.8413 31.2408 68.0927 31.1954 68.2987 31.1151C68.5047 31.0348 68.6653 30.9091 68.7805 30.7485C68.8957 30.5879 68.9411 30.4063 68.9411 30.1759C68.9865 29.9594 68.9307 29.7744 68.8259 29.6382L68.8329 29.6347Z" fill="#158864" />
  <path d="M63.1682 1C57.1557 1 52.25 5.80445 52.25 11.9532C52.25 18.1019 57.0544 22.7946 63.0565 22.7946C69.0586 22.7946 73.9782 17.9901 73.9782 11.8414C73.9782 5.69271 69.1738 1 63.1682 1ZM63.1682 20.0502C58.6641 20.0502 55.1864 16.5865 55.1864 11.8414C55.1864 7.09634 58.5942 3.7444 63.053 3.7444C67.5118 3.7444 71.0348 7.20807 71.0348 11.9532C71.0243 16.4922 67.6165 20.0502 63.1682 20.0502Z" fill="#158864" />
  <path d="M17.648 17.5816C16.2304 19.1144 14.2157 20.0502 11.9287 20.0502C7.42455 20.0502 3.94691 16.5865 3.94691 11.8414C3.94691 7.09634 7.35821 3.7444 11.817 3.7444C14.1494 3.7444 16.2094 4.66967 17.648 6.22693L19.6486 4.21577C17.6968 2.22206 14.9629 1 11.9217 1C5.9057 1 1 5.80445 1 11.9532C1 18.1019 5.80445 22.7946 11.8065 22.7946C14.8582 22.7946 17.627 21.5586 19.6068 19.5369L17.6515 17.5816H17.648Z" fill="#158864" />
</svg>