<svg xmlns="http://www.w3.org/2000/svg" viewBox="0 0 485.64 123.27" xmlns:xlink="http://www.w3.org/1999/xlink">
 <defs>
  <style>
   .cls-1{fill:#111;}
  </style>
 </defs>
 <g id="Layer_2" data-name="Layer 2">
  <g id="Layer_1-2" data-name="Layer 1">
   <path class="cls-1" d="M314.16,2.75c6.34,0,10.65,4.55,10.65,10.78s-4.31,10.54-10.65,10.54a10.12,10.12,0,0,1-10.54-10.54C303.62,7.3,308.05,2.75,314.16,2.75Z">
   </path>
   <path class="cls-1" d="M287.93,2.75c6.35,0,10.66,4.55,10.66,10.78s-4.31,10.54-10.66,10.54a10.12,10.12,0,0,1-10.54-10.54C277.39,7.3,281.82,2.75,287.93,2.75Z">
   </path>
   <path class="cls-1" d="M253.33,3.75V42a29,29,0,0,0-22-10.36c-16.79,0-30.4,15-30.4,33.56s13.61,33.55,30.4,33.55a29,29,0,0,0,22-10.36v9h16.89V3.75Zm-18,79.78a18.36,18.36,0,1,1,18-18.36A18.16,18.16,0,0,1,235.36,83.53Z">
   </path>
   <path class="cls-1" d="M279.55,32.73V95.49c0,10.66-1.32,12.34-12.58,12.34v15.44h2.28c20.15,0,26.82-6.35,27.17-25.86h0V32.73Z">
   </path>
   <path class="cls-1" d="M170.47,31.41a22.72,22.72,0,0,0-18.68,9.14V32.73H134.9V97.41h16.85V59.85h0a13.44,13.44,0,0,1,26.86,0h0V97.41H195.5v-39C195.5,41.48,185.8,31.41,170.47,31.41Z">
   </path>
   <path class="cls-1" d="M305.77,32.73h16.89V97.41H305.77Z">
   </path>
   <path class="cls-1" d="M108.68,32.73V42a29,29,0,0,0-22-10.36c-16.79,0-30.39,15-30.39,33.56s13.6,33.55,30.39,33.55a29,29,0,0,0,22-10.36v9h16.88V32.73Zm-18,50.8a18.36,18.36,0,1,1,18-18.36A18.16,18.16,0,0,1,90.71,83.53Z">
   </path>
   <path class="cls-1" d="M26.35,71.42,16.41,82.55V98.12H0V3.75H16.41V63.51L42.64,33.45H62.4L38.09,61,63.6,98.12H44.67Z">
   </path>
   <path class="cls-1" d="M485.13,7.72A10,10,0,0,0,474,.44a9.77,9.77,0,0,0-1.17.25c-17.66,4.83-38.3,31.28-44.64,39.9h0l-.05.07c-.33.44-.61.82-.85,1.16a14,14,0,0,0-11.11-11.56l6.64-2.34a6.15,6.15,0,0,0-2.05-12H406.11a6.15,6.15,0,0,0-2.05,12l6.64,2.34a14,14,0,0,0-11,11l-.47-.64-.05-.06h0c-6.34-8.62-27-35.07-44.64-39.9a9.77,9.77,0,0,0-1.17-.25,10,10,0,0,0-11.15,7.28,19,19,0,0,0,.12,9.16C344.47,26.17,352.08,37,363.45,43l-.08,0,5.16,2.59h0a27.68,27.68,0,0,0-3.08.89,19.35,19.35,0,0,0-3.31,1.52,6.23,6.23,0,0,0-2.2,8.5c1.95,3.31,6.8,6,12.61,6.83,9.48,1.41,21.49-1.93,27.55-15A14,14,0,0,0,408.31,57c-6-.1-12.76.5-15,5.66a14.45,14.45,0,0,0-1,5.81H434.5c0-3.71-.75-7.53-4.32-9.46s-8-1.9-12.15-1.82a14,14,0,0,0,8.89-9.44c5.95,13.58,18.2,17.06,27.83,15.62,5.81-.87,10.66-3.52,12.61-6.83a6.23,6.23,0,0,0-2.2-8.5,19.35,19.35,0,0,0-3.31-1.52,27.68,27.68,0,0,0-3.08-.89h0L464,43.06l-.08,0c11.37-6,19-16.85,21.12-26.14A19,19,0,0,0,485.13,7.72Z">
   </path>
   <path class="cls-1" d="M392.69,74.48a45.46,45.46,0,0,0,2,9.37H432a53.41,53.41,0,0,0,2.16-10.23H392.6Z">
   </path>
   <path class="cls-1" d="M407,100.17c1.54.92,4.77,3,6.72,2.57,7.89-1.86,13-7.19,16.18-13.78H396.77A27.82,27.82,0,0,0,407,100.17Z">
   </path>
   <polygon class="cls-1" points="421.11 2.99 416.35 6.55 413.43 0 410.51 6.55 405.75 2.99 405.75 12.34 421.11 12.34 421.11 2.99">
   </polygon>
  </g>
 </g>
</svg>