<svg width="1719" height="894" viewBox="0 0 1719 894" fill="none" xmlns="http://www.w3.org/2000/svg">
<rect x="192" y="141" width="300" height="300" fill="#0078D4"/>
<rect x="506" y="141" width="300" height="300" fill="#0078D4"/>
<rect x="192" y="455" width="300" height="300" fill="#0078D4"/>
<rect x="506" y="455" width="300" height="300" fill="#0078D4"/>
<path d="M939.352 323.909H956.398L986.034 396.273H987.125L1016.76 323.909H1033.81V417H1020.44V349.636H1019.58L992.125 416.864H981.034L953.58 349.591H952.716V417H939.352V323.909ZM1053.14 417V347.182H1066.73V417H1053.14ZM1060 336.409C1057.64 336.409 1055.61 335.621 1053.91 334.045C1052.24 332.439 1051.41 330.53 1051.41 328.318C1051.41 326.076 1052.24 324.167 1053.91 322.591C1055.61 320.985 1057.64 320.182 1060 320.182C1062.36 320.182 1064.38 320.985 1066.05 322.591C1067.74 324.167 1068.59 326.076 1068.59 328.318C1068.59 330.53 1067.74 332.439 1066.05 334.045C1064.38 335.621 1062.36 336.409 1060 336.409ZM1114.42 418.409C1107.66 418.409 1101.84 416.879 1096.97 413.818C1092.12 410.727 1088.39 406.47 1085.78 401.045C1083.18 395.621 1081.88 389.409 1081.88 382.409C1081.88 375.318 1083.21 369.061 1085.88 363.636C1088.54 358.182 1092.3 353.924 1097.15 350.864C1102 347.803 1107.71 346.273 1114.28 346.273C1119.59 346.273 1124.31 347.258 1128.47 349.227C1132.62 351.167 1135.97 353.894 1138.51 357.409C1141.09 360.924 1142.62 365.03 1143.1 369.727H1129.88C1129.15 366.455 1127.48 363.636 1124.88 361.273C1122.3 358.909 1118.84 357.727 1114.51 357.727C1110.72 357.727 1107.41 358.727 1104.56 360.727C1101.74 362.697 1099.54 365.515 1097.97 369.182C1096.39 372.818 1095.6 377.121 1095.6 382.091C1095.6 387.182 1096.38 391.576 1097.92 395.273C1099.47 398.97 1101.65 401.833 1104.47 403.864C1107.31 405.894 1110.66 406.909 1114.51 406.909C1117.09 406.909 1119.42 406.439 1121.51 405.5C1123.63 404.53 1125.41 403.152 1126.83 401.364C1128.28 399.576 1129.3 397.424 1129.88 394.909H1143.1C1142.62 399.424 1141.15 403.455 1138.69 407C1136.24 410.545 1132.95 413.333 1128.83 415.364C1124.74 417.394 1119.94 418.409 1114.42 418.409ZM1157.64 417V347.182H1170.77V358.273H1171.5C1172.77 354.515 1175.02 351.561 1178.23 349.409C1181.47 347.227 1185.14 346.136 1189.23 346.136C1190.08 346.136 1191.08 346.167 1192.23 346.227C1193.41 346.288 1194.33 346.364 1195 346.455V359.455C1194.45 359.303 1193.48 359.136 1192.09 358.955C1190.7 358.742 1189.3 358.636 1187.91 358.636C1184.7 358.636 1181.83 359.318 1179.32 360.682C1176.83 362.015 1174.86 363.879 1173.41 366.273C1171.95 368.636 1171.23 371.333 1171.23 374.364V417H1157.64ZM1233.67 418.409C1227.13 418.409 1221.41 416.909 1216.53 413.909C1211.66 410.909 1207.87 406.712 1205.17 401.318C1202.47 395.924 1201.12 389.621 1201.12 382.409C1201.12 375.167 1202.47 368.833 1205.17 363.409C1207.87 357.985 1211.66 353.773 1216.53 350.773C1221.41 347.773 1227.13 346.273 1233.67 346.273C1240.22 346.273 1245.93 347.773 1250.81 350.773C1255.69 353.773 1259.47 357.985 1262.17 363.409C1264.87 368.833 1266.22 375.167 1266.22 382.409C1266.22 389.621 1264.87 395.924 1262.17 401.318C1259.47 406.712 1255.69 410.909 1250.81 413.909C1245.93 416.909 1240.22 418.409 1233.67 418.409ZM1233.72 407C1237.96 407 1241.47 405.879 1244.26 403.636C1247.05 401.394 1249.11 398.409 1250.44 394.682C1251.81 390.955 1252.49 386.848 1252.49 382.364C1252.49 377.909 1251.81 373.818 1250.44 370.091C1249.11 366.333 1247.05 363.318 1244.26 361.045C1241.47 358.773 1237.96 357.636 1233.72 357.636C1229.44 357.636 1225.9 358.773 1223.08 361.045C1220.29 363.318 1218.22 366.333 1216.85 370.091C1215.52 373.818 1214.85 377.909 1214.85 382.364C1214.85 386.848 1215.52 390.955 1216.85 394.682C1218.22 398.409 1220.29 401.394 1223.08 403.636C1225.9 405.879 1229.44 407 1233.72 407ZM1333.7 364.227L1321.39 366.409C1320.87 364.833 1320.05 363.333 1318.93 361.909C1317.84 360.485 1316.36 359.318 1314.48 358.409C1312.6 357.5 1310.25 357.045 1307.43 357.045C1303.58 357.045 1300.37 357.909 1297.8 359.636C1295.22 361.333 1293.93 363.53 1293.93 366.227C1293.93 368.561 1294.8 370.439 1296.52 371.864C1298.25 373.288 1301.04 374.455 1304.89 375.364L1315.98 377.909C1322.4 379.394 1327.19 381.682 1330.34 384.773C1333.49 387.864 1335.07 391.879 1335.07 396.818C1335.07 401 1333.86 404.727 1331.43 408C1329.04 411.242 1325.69 413.788 1321.39 415.636C1317.11 417.485 1312.16 418.409 1306.52 418.409C1298.7 418.409 1292.33 416.742 1287.39 413.409C1282.45 410.045 1279.42 405.273 1278.3 399.091L1291.43 397.091C1292.25 400.515 1293.93 403.106 1296.48 404.864C1299.02 406.591 1302.34 407.455 1306.43 407.455C1310.89 407.455 1314.45 406.53 1317.11 404.682C1319.78 402.803 1321.11 400.515 1321.11 397.818C1321.11 395.636 1320.3 393.803 1318.66 392.318C1317.05 390.833 1314.58 389.712 1311.25 388.955L1299.43 386.364C1292.92 384.879 1288.1 382.515 1284.98 379.273C1281.89 376.03 1280.34 371.924 1280.34 366.955C1280.34 362.833 1281.49 359.227 1283.8 356.136C1286.1 353.045 1289.28 350.636 1293.34 348.909C1297.4 347.152 1302.05 346.273 1307.3 346.273C1314.84 346.273 1320.78 347.909 1325.11 351.182C1329.45 354.424 1332.31 358.773 1333.7 364.227ZM1379.42 418.409C1372.88 418.409 1367.16 416.909 1362.28 413.909C1357.41 410.909 1353.62 406.712 1350.92 401.318C1348.22 395.924 1346.88 389.621 1346.88 382.409C1346.88 375.167 1348.22 368.833 1350.92 363.409C1353.62 357.985 1357.41 353.773 1362.28 350.773C1367.16 347.773 1372.88 346.273 1379.42 346.273C1385.97 346.273 1391.68 347.773 1396.56 350.773C1401.44 353.773 1405.22 357.985 1407.92 363.409C1410.62 368.833 1411.97 375.167 1411.97 382.409C1411.97 389.621 1410.62 395.924 1407.92 401.318C1405.22 406.712 1401.44 410.909 1396.56 413.909C1391.68 416.909 1385.97 418.409 1379.42 418.409ZM1379.47 407C1383.71 407 1387.22 405.879 1390.01 403.636C1392.8 401.394 1394.86 398.409 1396.19 394.682C1397.56 390.955 1398.24 386.848 1398.24 382.364C1398.24 377.909 1397.56 373.818 1396.19 370.091C1394.86 366.333 1392.8 363.318 1390.01 361.045C1387.22 358.773 1383.71 357.636 1379.47 357.636C1375.19 357.636 1371.65 358.773 1368.83 361.045C1366.04 363.318 1363.97 366.333 1362.6 370.091C1361.27 373.818 1360.6 377.909 1360.6 382.364C1360.6 386.848 1361.27 390.955 1362.6 394.682C1363.97 398.409 1366.04 401.394 1368.83 403.636C1371.65 405.879 1375.19 407 1379.47 407ZM1460.36 347.182V358.091H1420.91V347.182H1460.36ZM1431.73 417V339.091C1431.73 334.727 1432.68 331.106 1434.59 328.227C1436.5 325.318 1439.03 323.152 1442.18 321.727C1445.33 320.273 1448.76 319.545 1452.45 319.545C1455.18 319.545 1457.52 319.773 1459.45 320.227C1461.39 320.652 1462.83 321.045 1463.77 321.409L1460.59 332.409C1459.95 332.227 1459.14 332.015 1458.14 331.773C1457.14 331.5 1455.92 331.364 1454.5 331.364C1451.2 331.364 1448.83 332.182 1447.41 333.818C1446.02 335.455 1445.32 337.818 1445.32 340.909V417H1431.73ZM1506.98 347.182V358.091H1468.84V347.182H1506.98ZM1479.07 330.455H1492.66V396.5C1492.66 399.136 1493.05 401.121 1493.84 402.455C1494.63 403.758 1495.64 404.652 1496.89 405.136C1498.16 405.591 1499.54 405.818 1501.02 405.818C1502.11 405.818 1503.07 405.742 1503.89 405.591C1504.7 405.439 1505.34 405.318 1505.8 405.227L1508.25 416.455C1507.46 416.758 1506.34 417.061 1504.89 417.364C1503.43 417.697 1501.61 417.879 1499.43 417.909C1495.86 417.97 1492.52 417.333 1489.43 416C1486.34 414.667 1483.84 412.606 1481.93 409.818C1480.02 407.03 1479.07 403.53 1479.07 399.318V330.455ZM1126.18 572H1096.04V478.909H1127.13C1136.25 478.909 1144.09 480.773 1150.63 484.5C1157.18 488.197 1162.19 493.515 1165.68 500.455C1169.19 507.364 1170.95 515.652 1170.95 525.318C1170.95 535.015 1169.18 543.348 1165.63 550.318C1162.12 557.288 1157.02 562.652 1150.36 566.409C1143.69 570.136 1135.63 572 1126.18 572ZM1110.09 559.727H1125.4C1132.49 559.727 1138.39 558.394 1143.09 555.727C1147.78 553.03 1151.3 549.136 1153.63 544.045C1155.96 538.924 1157.13 532.682 1157.13 525.318C1157.13 518.015 1155.96 511.818 1153.63 506.727C1151.33 501.636 1147.89 497.773 1143.31 495.136C1138.74 492.5 1133.05 491.182 1126.27 491.182H1110.09V559.727ZM1263.55 478.909V572H1250.64L1203.32 503.727H1202.46V572H1188.41V478.909H1201.41L1248.78 547.273H1249.64V478.909H1263.55ZM1334.81 503.364C1334.33 499.061 1332.33 495.727 1328.81 493.364C1325.3 490.97 1320.87 489.773 1315.54 489.773C1311.72 489.773 1308.42 490.379 1305.63 491.591C1302.84 492.773 1300.68 494.409 1299.13 496.5C1297.62 498.561 1296.86 500.909 1296.86 503.545C1296.86 505.758 1297.37 507.667 1298.4 509.273C1299.46 510.879 1300.84 512.227 1302.54 513.318C1304.27 514.379 1306.12 515.273 1308.09 516C1310.05 516.697 1311.95 517.273 1313.77 517.727L1322.86 520.091C1325.83 520.818 1328.87 521.803 1331.99 523.045C1335.12 524.288 1338.01 525.924 1340.68 527.955C1343.34 529.985 1345.49 532.5 1347.13 535.5C1348.8 538.5 1349.63 542.091 1349.63 546.273C1349.63 551.545 1348.27 556.227 1345.54 560.318C1342.84 564.409 1338.92 567.636 1333.77 570C1328.65 572.364 1322.45 573.545 1315.18 573.545C1308.21 573.545 1302.18 572.439 1297.09 570.227C1291.99 568.015 1288.01 564.879 1285.13 560.818C1282.25 556.727 1280.66 551.879 1280.36 546.273H1294.45C1294.72 549.636 1295.81 552.439 1297.72 554.682C1299.66 556.894 1302.13 558.545 1305.13 559.636C1308.16 560.697 1311.48 561.227 1315.09 561.227C1319.05 561.227 1322.59 560.606 1325.68 559.364C1328.8 558.091 1331.25 556.333 1333.04 554.091C1334.83 551.818 1335.72 549.167 1335.72 546.136C1335.72 543.379 1334.93 541.121 1333.36 539.364C1331.81 537.606 1329.71 536.152 1327.04 535C1324.4 533.848 1321.42 532.833 1318.09 531.955L1307.09 528.955C1299.63 526.924 1293.72 523.939 1289.36 520C1285.02 516.061 1282.86 510.848 1282.86 504.364C1282.86 499 1284.31 494.318 1287.22 490.318C1290.13 486.318 1294.07 483.212 1299.04 481C1304.01 478.758 1309.62 477.636 1315.86 477.636C1322.16 477.636 1327.72 478.742 1332.54 480.955C1337.39 483.167 1341.21 486.212 1343.99 490.091C1346.78 493.939 1348.24 498.364 1348.36 503.364H1334.81Z" fill="#0078D4"/>
</svg>
