<?xml version="1.0" standalone="no"?>
<!DOCTYPE svg PUBLIC "-//W3C//DTD SVG 20010904//EN"
 "http://www.w3.org/TR/2001/REC-SVG-20010904/DTD/svg10.dtd">
<svg version="1.0" xmlns="http://www.w3.org/2000/svg"
 width="358.000000pt" height="141.000000pt" viewBox="0 0 358.000000 141.000000"
 preserveAspectRatio="xMidYMid meet">

<g transform="translate(0.000000,141.000000) scale(0.100000,-0.100000)"
fill="#000000" stroke="none">
<path d="M216 1248 c-13 -44 -56 -522 -50 -554 29 -166 228 -347 526 -478 l57
-25 112 55 c271 133 445 301 466 449 3 25 -7 157 -23 305 l-28 260 -528 0
c-414 0 -529 -3 -532 -12z m1012 -273 c18 -174 20 -231 12 -271 -25 -118 -180
-260 -412 -375 l-87 -43 -83 42 c-186 92 -338 215 -387 313 -34 69 -37 100
-21 239 5 47 14 138 21 203 l11 117 462 -2 461 -3 23 -220z"/>
<path d="M573 1050 c-91 -55 -89 -178 2 -216 23 -9 72 -14 145 -14 141 0 173
-13 168 -68 -5 -56 -25 -62 -225 -62 l-173 0 0 -40 0 -40 201 0 c221 0 251 6
289 60 27 37 27 114 0 157 -31 51 -65 63 -187 64 -59 0 -124 5 -143 12 -31 11
-35 16 -35 47 0 53 23 60 203 60 l152 0 0 30 0 30 -182 0 c-164 0 -186 -2
-215 -20z"/>
<path d="M1730 862 c-30 -9 -50 -36 -50 -66 0 -54 25 -70 115 -75 59 -3 65 -6
65 -31 0 -25 -19 -30 -106 -30 -67 0 -74 -2 -74 -20 0 -19 7 -20 95 -20 110 0
135 14 135 73 0 47 -25 67 -86 67 -73 0 -94 8 -94 36 0 13 5 24 10 25 6 0 43
1 84 1 64 1 75 3 79 19 3 11 1 21 -4 25 -10 6 -147 3 -169 -4z"/>
<path d="M3015 861 c-38 -8 -62 -52 -49 -90 12 -34 48 -51 110 -51 59 0 86
-19 64 -45 -9 -11 -33 -15 -91 -15 -72 0 -79 -2 -79 -20 0 -19 7 -20 93 -20
109 0 129 12 129 76 0 49 -21 64 -92 64 -66 0 -101 19 -85 46 9 13 26 16 93
16 80 -1 82 0 82 24 0 23 -2 24 -72 23 -40 -1 -86 -4 -103 -8z"/>
<path d="M1984 850 c-22 -9 -54 -75 -54 -111 0 -39 28 -88 61 -104 23 -12 47
-16 83 -12 69 6 96 38 96 112 0 65 -14 99 -47 114 -28 13 -109 14 -139 1z
m119 -52 c21 -25 22 -86 1 -116 -10 -15 -25 -22 -49 -22 -43 0 -65 29 -65 85
0 79 64 109 113 53z"/>
<path d="M2210 740 l0 -120 25 0 c23 0 25 4 25 45 l0 45 70 0 c67 0 70 1 85
30 21 41 19 67 -10 95 -22 23 -32 25 -110 25 l-85 0 0 -120z m158 46 c4 -35
-10 -46 -65 -46 l-43 0 0 41 0 40 53 -3 c49 -3 52 -5 55 -32z"/>
<path d="M2463 740 c-1 -120 -1 -120 23 -120 22 0 24 4 24 50 l0 50 50 0 50 0
0 -50 c0 -47 2 -50 25 -50 l25 0 0 120 0 120 -25 0 c-23 0 -25 -3 -25 -50 l0
-50 -50 0 -50 0 0 50 c0 46 -2 50 -24 50 -23 0 -23 -1 -23 -120z"/>
<path d="M2734 837 c-32 -28 -44 -108 -24 -158 23 -54 117 -77 180 -44 56 29
65 151 15 201 -34 34 -132 35 -171 1z m134 -31 c14 -14 19 -80 7 -114 -14 -45
-98 -40 -116 6 -25 64 17 140 70 127 14 -3 32 -12 39 -19z"/>
</g>
</svg>
