<svg viewBox="0 0 125 45" xmlns="http://www.w3.org/2000/svg" fill="none" class="Logo-base-Q3oZg Logo-white-xPeHy">
    <g fill="currentColor">
        <path d="M70.984 13.853a2.49 2.49 0 0 0 1.782-.746c.477-.482.754-1.14.77-1.831a2.737 2.737 0 0 0-.756-1.868 2.533 2.533 0 0 0-1.796-.785 2.496 2.496 0 0 0-1.761.8 2.697 2.697 0 0 0-.718 1.853c.005.682.268 1.334.732 1.816a2.454 2.454 0 0 0 1.747.761zm17.34 2.479h6.154v.508a3.18 3.18 0 0 0-.976.35c-.563.274-1.688 1.6-2.552 3.824-1.463 3.862-3 8.425-4.614 13.654l-.6 1.982c-.264.897-.489 1.482-.601 1.835-.113.352-.263.896-.525 1.558a8.92 8.92 0 0 1-.572 1.444c-.301.585-.864 1.784-1.314 2.145-.713.625-1.764 1.327-3.076 1.21-2.552 0-4.465-1.983-4.503-4.329 0-1.6.977-2.653 2.44-2.653 1.05 0 1.987.595 1.987 1.832 0 .898-.862 1.834-.862 2.302 0 1.21.675 1.785 1.989 1.785 1.049 0 1.907-.702 2.55-2.106.864-1.6.938-3.355.225-5.306l-5.401-14.862c-1.24-3.432-2.178-4.56-3.34-4.681v-.508h8.516v.508c-1.013.117-1.537.741-1.537 1.872 0 .819.3 2.068.862 3.668l1.012 2.885c1.164 3.121 2.098 5.851 2.59 7.569 1.087-3.55 2.098-6.67 3.076-9.401.714-2.029 1.051-3.472 1.051-4.33 0-1.522-.787-2.224-1.989-2.224l.01-.53zM29.08 35.496c-1.087-.198-2.025-1.21-2.025-3.355V6.28l-6.19 1.404v.547c1.05-.117 2.097.857 2.097 2.925V32.14c0 2.029-1.05 3.199-2.098 3.355a3.181 3.181 0 0 1-1.861-.25c-.832-.376-1.526-1.048-2.113-2.052l-2.861-4.759a5.321 5.321 0 0 0-2.557-2.204 5.078 5.078 0 0 0-3.317-.175l3.227-3.706c2.437-2.808 4.69-4.602 6.827-5.344V16.5h-7.098v.507c1.839.742 1.726 2.38-.381 4.957l-4.54 5.499V6.279L0 7.683v.547c1.05 0 2.098 1.09 2.098 3.002v20.91c0 2.302-1.013 3.198-2.098 3.354v.508h8.224v-.508c-1.35-.198-2.026-1.286-2.026-3.355v-3.86l1.762-2.029 4.269 7.293c1.012 1.757 1.95 2.459 3.452 2.459h14.284v-.397s-.408-.03-.885-.11zm17.043-2.633v-8.725c-.082-5.704-2.382-8.302-7.65-8.302a7.308 7.308 0 0 0-4.652 1.638c-1.388 1.093-2.063 2.342-2.063 3.785 0 1.404.75 2.457 1.987 2.457 1.314 0 2.252-.78 2.252-1.872 0-.819-.526-1.95-.526-2.73 0-1.406 1.015-2.616 2.777-2.616 2.252 0 3.864 1.757 3.864 5.658v2.34l-1.875.467c-.976.199-1.8.397-2.44.595-.638.198-1.462.468-2.438.857-1.951.781-3 1.523-3.902 2.926a4.209 4.209 0 0 0-.676 2.302c0 3.237 2.177 4.72 5.216 4.72 2.402 0 4.96-1.327 6.115-3.823a5.59 5.59 0 0 0 .532 2.268c1.272 2.677 5.485 1.095 5.485 1.095v-.508c-1.844.3-1.997-1.98-2.006-2.532zm-4.005-2.7c0 1.286-.45 2.34-1.35 3.08-.863.742-1.763 1.133-2.701 1.133-1.839 0-3.04-1.25-3.04-3.551 0-1.09.572-2.106 1.05-2.691a4.586 4.586 0 0 1 1.315-.976c.637-.35.953-.531 1.388-.741l1.717-.663c.862-.35 1.386-.545 1.611-.662l.01 5.07zm82.888-13.831h-14.592V6.112h14.592l-3.063 5.11 3.063 5.11zm-29.66 17.023c-1.815-1.945-2.816-4.558-2.783-7.267-.02-1.337.216-2.664.694-3.905a10.139 10.139 0 0 1 2.089-3.325c1.84-2.03 4.095-3.047 6.726-3.047 2.592 0 4.848 1.017 6.689 3.047a10.002 10.002 0 0 1 2.118 3.316 10.32 10.32 0 0 1 .701 3.914 10.483 10.483 0 0 1-.705 3.929 10.158 10.158 0 0 1-2.114 3.338c-1.841 1.983-4.097 3.008-6.689 3.008-2.631 0-4.886-1.015-6.726-3.008zm10.108-14.172c-.742-1.509-1.717-2.393-2.861-2.63-2.321-.487-4.373 1.994-5.138 5.938a19.456 19.456 0 0 0-.234 5.371c.167 1.794.647 3.54 1.415 5.156.744 1.51 1.716 2.393 2.86 2.631 2.321.486 4.433-2.1 5.203-6.083.639-3.33.315-7.385-1.255-10.385l.01.002z"/>
        <path d="M73.16 31.975V16.332H59.953v.47c1.764.274 2.603 1.658 1.802 3.902-4.127 11.663-3.864 11.14-4.127 12.076-.263-.898-.864-3.105-1.838-5.873-.975-2.768-1.614-4.605-1.877-5.423-1.013-3.238-.675-4.448.977-4.642v-.508h-8.556v.508c1.276.273 2.401 1.794 3.34 4.525l1.314 3.549c1.443 3.835 3.139 9.121 3.705 10.923h2.844c.915-2.776 4.588-13.854 5.08-14.98.53-1.283 1.131-2.255 1.803-2.927a3.347 3.347 0 0 1 1.157-.838 3.233 3.233 0 0 1 1.387-.268s2.061 0 2.061 2.068v13.081c0 2.181-1.012 3.198-2.063 3.355v.507h8.18v-.507c-1.082-.157-1.982-1.17-1.982-3.355z"/>
    </g>
</svg>