<?xml version="1.0" encoding="UTF-8"?>
<svg version="1.1" xmlns="http://www.w3.org/2000/svg" width="2170" height="258">
<path d="M0 0 C0.75410156 0.59039063 1.50820313 1.18078125 2.28515625 1.7890625 C21.77715735 17.94645318 32.77916881 42.19512007 35.625 67 C37.91833743 93.93629054 30.11886003 119.99345992 13 141 C12.32453125 141.83917969 11.6490625 142.67835938 10.953125 143.54296875 C-4.88381351 162.18316097 -28.2056207 173.86792466 -52.3828125 176.71875 C-79.37056583 178.81714983 -105.4235949 172.63298434 -126.875 155.5625 C-128.60188686 154.06276717 -130.31081368 152.54207211 -132 151 C-132.83917969 150.25363281 -133.67835938 149.50726563 -134.54296875 148.73828125 C-152.2217726 132.15583733 -163.37341862 107.5126246 -164.3359375 83.30859375 C-164.80012973 52.8950266 -155.34091221 26.93528597 -134.1875 4.75 C-97.43474838 -30.62667356 -39.23055213 -31.76105501 0 0 Z M-109.9921875 39.22265625 C-119.78700822 51.14038876 -124.77567349 65.91359666 -123.78515625 81.34765625 C-121.7972439 98.44370247 -114.28105845 112.91214387 -101 124 C-85.74998495 134.65276578 -69.50788737 138.45472866 -51.14453125 135.34765625 C-34.08095246 130.93498826 -20.84578663 120.59289767 -11.9140625 105.57421875 C-4.16336171 91.69287151 -2.97316586 75.39866357 -6.96875 60.15625 C-12.2202387 44.08351186 -23.02161803 31.13929602 -38.1171875 23.40234375 C-41.04714824 22.12374765 -43.96891782 21.01319882 -47 20 C-48.06734375 19.63261719 -48.06734375 19.63261719 -49.15625 19.2578125 C-71.73818988 12.91749861 -94.87831401 22.36031505 -109.9921875 39.22265625 Z " fill="#EE4323" transform="translate(373,25)"/>
<path d="M0 0 C115.36358173 0 115.36358173 0 136.25 19.6875 C150.08754085 34.22790006 153.54082131 51.91115041 153.2734375 71.265625 C152.73284548 87.46197613 146.63295959 102.03600073 135.37890625 113.78515625 C118.80005715 129.22063645 97.42822431 133.22616782 75.51953125 133.09765625 C74.6853064 133.09664917 73.85108154 133.09564209 72.99157715 133.09460449 C69.9318704 133.0894476 66.87218353 133.07548765 63.8125 133.0625 C56.944375 133.041875 50.07625 133.02125 43 133 C43 154.78 43 176.56 43 199 C28.81 199 14.62 199 0 199 C0 133.33 0 67.66 0 0 Z M43 36 C43 55.8 43 75.6 43 96 C49.703125 96.0825 56.40625 96.165 63.3125 96.25 C66.4513269 96.30462402 66.4513269 96.30462402 69.65356445 96.36035156 C81.39557117 96.4799492 92.45323981 96.32392249 101.5 87.77734375 C108.63457859 79.32361131 109.85299662 70.78431436 109 60 C107.37447562 52.35220156 104.29537043 46.70225628 98 42 C89.99275382 36.80346064 81.17119629 35.68098914 71.80859375 35.8046875 C70.70167175 35.80770874 70.70167175 35.80770874 69.5723877 35.81079102 C66.86069367 35.82112022 64.14908944 35.84904078 61.4375 35.875 C55.353125 35.91625 49.26875 35.9575 43 36 Z " fill="#231F20" transform="translate(484,2)"/>
<path d="M0 0 C13.53 0 27.06 0 41 0 C41.33 22.11 41.66 44.22 42 67 C44.64 64.69 47.28 62.38 50 60 C53.52734375 57.85546875 53.52734375 57.85546875 56.9375 56.1875 C58.06027344 55.62417969 59.18304687 55.06085937 60.33984375 54.48046875 C75.46735116 48.36165839 93.91440448 49.25566292 109 55 C123.0927701 61.01364638 132.54025671 70.92753391 138.24609375 85.09375 C143.36795854 100.25296886 143.28567373 116.01190014 143.1953125 131.8125 C143.19157184 133.76261244 143.18872986 135.71272679 143.18673706 137.6628418 C143.17918337 142.73931272 143.15960821 147.81566505 143.1373291 152.89208984 C143.1130471 159.01307729 143.10405026 165.1341049 143.09242249 171.25512695 C143.07317716 180.50349988 143.03479744 189.75161376 143 199 C129.47 199 115.94 199 102 199 C101.95101563 193.06386719 101.90203125 187.12773437 101.8515625 181.01171875 C101.81614484 177.23370771 101.78016695 173.45571841 101.7421875 169.67773438 C101.68206029 163.69135783 101.62392099 157.70501143 101.578125 151.71850586 C101.5410409 146.8878784 101.49462057 142.05741986 101.44193649 137.22693825 C101.42351466 135.39115193 101.40836251 133.55532957 101.39665604 131.71948814 C101.80761962 110.33774624 101.80761962 110.33774624 92.10546875 92.11328125 C83.82649898 85.57558619 75.28630476 85.13104078 65 86 C61.60897693 86.85381983 58.9240416 88.09818433 56 90 C55.36578125 90.4125 54.7315625 90.825 54.078125 91.25 C46.75301853 96.75948179 43.69345703 105.2414439 42 114 C41.72626867 116.90634498 41.68938076 119.79295722 41.68115234 122.7109375 C41.66608391 123.95627007 41.66608391 123.95627007 41.65071106 125.22676086 C41.62007411 127.94283419 41.60289863 130.65880985 41.5859375 133.375 C41.56721014 135.26929554 41.54763557 137.16358288 41.5272522 139.05786133 C41.47609063 144.02255398 41.43637971 148.98727363 41.39910889 153.9520874 C41.35190051 159.92030215 41.29037154 165.88838462 41.23126221 171.85649109 C41.14324487 180.90427352 41.07334103 189.95203311 41 199 C27.47 199 13.94 199 0 199 C0 133.33 0 67.66 0 0 Z " fill="#231F20" transform="translate(975,2)"/>
<path d="M0 0 C13.53 0 27.06 0 41 0 C41.04898438 5.70796875 41.09796875 11.4159375 41.1484375 17.296875 C41.18386273 20.93361045 41.21984489 24.57032361 41.2578125 28.20703125 C41.3178974 33.96725104 41.37602621 39.72743998 41.421875 45.48779297 C41.45900864 50.13688026 41.50544094 54.78579368 41.55806351 59.43473053 C41.57645947 61.19991222 41.59162072 62.96513096 41.60334396 64.73036957 C41.425853 86.54883676 41.425853 86.54883676 50.3125 105.875 C57.39421051 111.47449203 63.89420683 113.82779938 73 113 C81.05247579 111.70121358 86.76967464 108.2639865 92 102 C99.54354299 89.67274683 99.32194869 76.26026261 99.4140625 62.3046875 C99.43280069 60.50293111 99.45237602 58.70118324 99.4727478 56.89944458 C99.52379519 52.18795836 99.56356646 47.47644378 99.60089111 42.76483154 C99.64819049 37.09525343 99.70966955 31.42581303 99.76873779 25.75634766 C99.85661557 17.17095487 99.92661894 8.585584 100 0 C113.53 0 127.06 0 141 0 C141 48.18 141 96.36 141 146 C128.79 146 116.58 146 104 146 C103.01 141.38 102.02 136.76 101 132 C98.02367477 132 97.11094485 133.64817649 95 135.6875 C83.57730133 145.98248001 69.39651633 148.85182158 54.3515625 148.3515625 C38.59114563 147.36962707 24.88465004 141.52492358 14 130 C-0.5538181 111.88580579 -0.16062203 88.96811914 -0.09765625 66.89453125 C-0.09578797 64.95969174 -0.09436601 63.02485175 -0.09336853 61.0900116 C-0.08957561 56.03159243 -0.07977335 50.97320261 -0.06866455 45.91479492 C-0.0565681 39.8272843 -0.05203282 33.7397638 -0.04621124 27.65224457 C-0.03655948 18.43480939 -0.01738046 9.21743842 0 0 Z " fill="#231F20" transform="translate(654,55)"/>
<path d="M0 0 C19.68203135 -0.37679565 38.41901887 2.86830563 54.90625 14.12109375 C55.58171875 14.58128906 56.2571875 15.04148437 56.953125 15.515625 C64.77481814 21.5203319 69.4941665 30.74076904 71.90625 40.12109375 C72.23625 43.09109375 72.56625 46.06109375 72.90625 49.12109375 C60.03625 49.12109375 47.16625 49.12109375 33.90625 49.12109375 C32.25625 45.82109375 30.60625 42.52109375 28.90625 39.12109375 C26.84866659 36.8713983 26.84866659 36.8713983 24.53125 35.62109375 C23.46777344 34.9559375 23.46777344 34.9559375 22.3828125 34.27734375 C12.8852242 29.84313849 1.71552142 29.51543638 -8.21875 32.74609375 C-12.97877175 34.77495548 -15.55847993 36.57509224 -18.09375 41.12109375 C-18.8033376 44.20988683 -18.62047892 45.85537446 -18.09375 49.12109375 C-13.15231652 55.42568129 -2.57870888 56.15880248 4.875 57.11328125 C7.38504745 57.41068495 9.89548025 57.70485086 12.40625 57.99609375 C53.97060115 63.16792387 53.97060115 63.16792387 67.15625 76.99609375 C74.2837188 86.47450775 75.67786231 97.5897765 74.90625 109.12109375 C72.85399022 121.90423732 66.30691843 131.54929454 55.90625 139.12109375 C33.96740593 152.54437682 6.62419458 154.19549248 -18.09814453 148.62158203 C-33.84405999 144.67258195 -47.55627791 136.03434661 -56.2578125 122.28125 C-59.89135064 115.72146549 -62.09375 107.61625453 -62.09375 100.12109375 C-49.22375 100.12109375 -36.35375 100.12109375 -23.09375 100.12109375 C-21.11375 104.08109375 -19.13375 108.04109375 -17.09375 112.12109375 C-14.49592713 114.56904222 -13.15523128 115.71663151 -10.09375 117.12109375 C-9.08634766 117.59289062 -9.08634766 117.59289062 -8.05859375 118.07421875 C2.64597598 122.11367902 16.22632835 121.59306241 26.7421875 117.38671875 C30.00820245 115.47663058 32.41951834 113.60788608 33.62109375 109.9375 C33.98276874 106.27633386 34.13550474 103.74143012 32.84375 100.24609375 C28.16353165 95.11295105 21.9732065 94.38472295 15.44140625 93.4375 C14.53104111 93.29585922 13.62067596 93.15421844 12.682724 93.00828552 C9.77943477 92.55719142 6.87442342 92.11904626 3.96875 91.68359375 C-41.51007418 84.83851762 -41.51007418 84.83851762 -53.09375 70.12109375 C-58.9221301 61.77987911 -59.80681153 51.01096594 -58.6953125 41.13671875 C-56.22411176 28.74862152 -49.28793854 18.45194 -39.09375 11.12109375 C-27.24092981 3.84182126 -13.7964684 0.54001328 0 0 Z " fill="#231F20" transform="translate(878.09375,51.87890625)"/>
<path d="M0 0 C1.95790807 0.00157235 3.91629108 0.05747974 5.87158203 0.15869141 C6.90630646 0.17284088 7.94103088 0.18699036 9.0071106 0.2015686 C12.3008599 0.25740013 15.5877155 0.38279994 18.87939453 0.51025391 C21.11627518 0.56042996 23.35326288 0.60605465 25.59033203 0.64697266 C31.06402437 0.75701926 36.53371721 0.92416206 42.00439453 1.13525391 C40.47294901 5.96516495 38.4442867 10.07321805 35.81689453 14.38525391 C34.90941048 15.90144306 34.00324648 17.41842279 33.09814453 18.93603516 C32.35564453 20.17861084 32.35564453 20.17861084 31.59814453 21.44628906 C28.62537124 26.46193322 25.72504281 31.51946025 22.81689453 36.57275391 C22.18058105 37.67699707 21.54426758 38.78124023 20.88867188 39.91894531 C18.92660435 43.32401229 16.96542427 46.72958916 15.00439453 50.13525391 C7.1282012 63.8110434 -0.76680831 77.47486677 -8.72851562 91.10107422 C-14.894796 101.66145673 -21.00056496 112.25652156 -27.10449219 122.85302734 C-30.85506946 129.36254979 -34.61062536 135.8692017 -38.3659668 142.37597656 C-41.51945709 147.84060053 -44.67027587 153.30673293 -47.81591797 158.77587891 C-53.95470722 169.44381067 -60.11846071 180.09576087 -66.37060547 190.69775391 C-66.92441895 191.63844727 -67.47823242 192.57914063 -68.04882812 193.54833984 C-68.55462402 194.40331055 -69.06041992 195.25828125 -69.58154297 196.13916016 C-70.02546387 196.89011963 -70.46938477 197.6410791 -70.92675781 198.41479492 C-71.99560547 200.13525391 -71.99560547 200.13525391 -72.99560547 201.13525391 C-74.46914895 201.22829409 -75.94711138 201.25271656 -77.42358398 201.2487793 C-78.3644838 201.24870377 -79.30538361 201.24862823 -80.27479553 201.24855042 C-81.29770187 201.24338913 -82.32060822 201.23822784 -83.37451172 201.23291016 C-84.93721046 201.23078773 -84.93721046 201.23078773 -86.53147888 201.22862244 C-89.87371641 201.2230047 -93.21588804 201.21044921 -96.55810547 201.19775391 C-98.81787013 201.19274119 -101.07763584 201.18817789 -103.33740234 201.18408203 C-108.89015937 201.17302952 -114.44287772 201.15627415 -119.99560547 201.13525391 C-116.15178841 193.22989852 -112.04023279 185.5701732 -107.55810547 178.01025391 C-106.3179231 175.90123104 -105.07836109 173.79184329 -103.83935547 171.68212891 C-102.88802734 170.06467773 -102.88802734 170.06467773 -101.91748047 168.41455078 C-98.77076414 163.04530615 -95.66406586 157.65314555 -92.55810547 152.26025391 C-91.93693848 151.18259766 -91.31577148 150.10494141 -90.67578125 148.99462891 C-88.78184631 145.70848308 -86.8886154 142.42193266 -84.99560547 139.13525391 C-77.11897958 125.45971076 -69.22440455 111.79564433 -61.26269531 98.16943359 C-55.09641493 87.60905109 -48.99064597 77.01398625 -42.88671875 66.41748047 C-39.14122112 59.91677427 -35.39063282 53.41900359 -31.640625 46.92089844 C-28.74265658 41.89871688 -25.8456626 36.87598325 -22.95285034 31.85083008 C-21.93613349 30.08479869 -20.91904889 28.31897959 -19.90185547 26.55322266 C-18.63159674 24.34791236 -17.36201529 22.14221174 -16.09326172 19.93603516 C-15.51318359 18.92927734 -14.93310547 17.92251953 -14.33544922 16.88525391 C-13.5831604 15.57814453 -13.5831604 15.57814453 -12.81567383 14.24462891 C-12.21505127 13.21853516 -11.61442871 12.19244141 -10.99560547 11.13525391 C-10.42060303 9.87317612 -10.42060303 9.87317612 -9.83398438 8.58560181 C-7.3637923 3.6220169 -5.79292779 0.5772531 0 0 Z " fill="#EE4323" transform="translate(119.99560546875,0.86474609375)"/>
<path d="M0 0 C0.83272934 0.00222061 1.66545868 0.00444122 2.52342224 0.00672913 C3.46432205 0.00680466 4.40522186 0.00688019 5.37463379 0.00695801 C6.39754013 0.01211929 7.42044647 0.01728058 8.47434998 0.02259827 C9.51614914 0.02401321 10.5579483 0.02542816 11.63131714 0.02688599 C14.97355467 0.03250372 18.31572629 0.04505922 21.65794373 0.05775452 C23.91770839 0.06276723 26.17747409 0.06733053 28.4372406 0.07142639 C33.98999763 0.08247891 39.54271597 0.09923428 45.09544373 0.12025452 C41.25162666 8.02560991 37.14007105 15.68533523 32.65794373 23.24525452 C31.41776136 25.35427738 30.17819935 27.46366513 28.93919373 29.57337952 C27.9878656 31.19083069 27.9878656 31.19083069 27.01731873 32.84095764 C23.87060265 38.21020184 20.76385753 43.60233643 17.65794373 48.99525452 C17.03605164 50.07436096 16.41415955 51.15346741 15.77342224 52.26527405 C14.51094641 54.45608403 13.24865817 56.64700211 11.98655701 58.83802795 C8.85864224 64.26685394 5.72685925 69.69344733 2.59544373 75.12025452 C1.34542494 77.28691034 0.09542494 79.45357701 -1.15455627 81.62025452 C-3.65455627 85.95358785 -6.15455627 90.28692118 -8.65455627 94.62025452 C-9.27338684 95.69291565 -9.89221741 96.76557678 -10.52980042 97.8707428 C-11.77891146 100.03582522 -13.02809757 102.20086434 -14.27735901 104.36585999 C-17.41657937 109.80641157 -20.5544619 115.24772667 -23.68971252 120.69056702 C-30.30006909 132.16308668 -36.93567566 143.61997763 -43.61769104 155.05091858 C-46.72785841 160.37558853 -49.82556983 165.70717976 -52.90455627 171.04994202 C-53.23947083 171.63108765 -53.57438538 172.21223328 -53.91944885 172.81098938 C-55.53329514 175.61236635 -57.14552516 178.4146624 -58.75611877 181.21791077 C-59.34135315 182.23498108 -59.92658752 183.25205139 -60.52955627 184.29994202 C-61.0374469 185.18407776 -61.54533752 186.0682135 -62.06861877 186.97914124 C-62.67447815 188.01570862 -63.28033752 189.052276 -63.90455627 190.12025452 C-64.2886264 190.96311005 -64.67269653 191.80596558 -65.06840515 192.67436218 C-68.51787282 199.60569664 -68.51787282 199.60569664 -72.25215149 200.99137878 C-75.14210382 201.27964129 -77.87136175 201.24694941 -80.77174377 201.09681702 C-82.32383041 201.0755928 -82.32383041 201.0755928 -83.90727234 201.05393982 C-87.20102165 200.99810829 -90.48787725 200.87270848 -93.77955627 200.74525452 C-96.01643693 200.69507847 -98.25342462 200.64945377 -100.49049377 200.60853577 C-105.96418611 200.49848916 -111.43387895 200.33134636 -116.90455627 200.12025452 C-115.75594443 197.15555124 -114.55738241 194.3179149 -113.01393127 191.53822327 C-112.64179504 190.8666217 -112.26965881 190.19502014 -111.88624573 189.50306702 C-111.27655945 188.41638733 -111.27655945 188.41638733 -110.65455627 187.30775452 C-110.00136414 186.1379303 -110.00136414 186.1379303 -109.3349762 184.94447327 C-104.53210213 176.38671609 -99.56661639 167.92407734 -94.60768127 159.45619202 C-90.86821038 153.0674346 -87.16330593 146.65909376 -83.46705627 140.24525452 C-82.84484192 139.16566467 -82.22262756 138.08607483 -81.58155823 136.97377014 C-80.31944111 134.78342932 -79.05747843 132.59299949 -77.79566956 130.40248108 C-74.66775479 124.97365509 -71.5359718 119.54706171 -68.40455627 114.12025452 C-67.15453748 111.95359869 -65.90453749 109.78693202 -64.65455627 107.62025452 C-60.90455627 101.12025452 -60.90455627 101.12025452 -57.15455627 94.62025452 C-56.53572571 93.54759338 -55.91689514 92.47493225 -55.27931213 91.36976624 C-54.03020109 89.20468381 -52.78101498 87.03964469 -51.53175354 84.87464905 C-48.39253318 79.43409746 -45.25465065 73.99278236 -42.11940002 68.54994202 C-34.92224228 56.05876133 -27.69476357 43.58604415 -20.42018127 31.13978577 C-17.92450893 26.86986844 -15.43601708 22.59585104 -12.95143127 18.31947327 C-11.98282166 16.65392395 -11.98282166 16.65392395 -10.99464417 14.95472717 C-9.74785277 12.81055955 -8.50220509 10.66572639 -7.25782776 8.52015686 C-6.70167786 7.56447815 -6.14552795 6.60879944 -5.57252502 5.62416077 C-5.08034485 4.77668274 -4.58816467 3.92920471 -4.08106995 3.05604553 C-2.31243977 0.14600846 -2.31243977 0.14600846 0 0 Z " fill="#EE4323" transform="translate(188.90455627441406,1.8797454833984375)"/>
<path d="M0 0 C10.58562732 8.77787054 17.92267068 21.35479762 20 35 C20 37.31 20 39.62 20 42 C12.08 42.495 12.08 42.495 4 43 C3.608125 41.22625 3.21625 39.4525 2.8125 37.625 C-0.60475586 24.1149187 -7.11687742 14.75248651 -19.08984375 7.5390625 C-35.38781865 -1.08026919 -55.02684636 -1.26613227 -72.52734375 3.71875 C-77.48463864 5.54776319 -81.65006127 8.04946017 -86 11 C-86.72703125 11.35320313 -87.4540625 11.70640625 -88.203125 12.0703125 C-90.60393139 13.31246885 -90.90973474 14.54690317 -92 17 C-92.639375 17.845625 -93.27875 18.69125 -93.9375 19.5625 C-98.65182508 26.57218935 -99.96303791 35.73609362 -99 44 C-97.19362968 52.835507 -93.84313163 59.33202264 -86.3515625 64.5625 C-73.30274289 72.53918707 -57.4235425 74.52112057 -42.65625 77.47265625 C1.26654177 86.2764455 1.26654177 86.2764455 16 104 C23.8078171 115.96728626 24.30690629 129.61603545 22.5703125 143.4140625 C19.63354487 157.1552345 11.18750411 168.3929178 -0.296875 176.2578125 C-20.63901382 188.88022392 -45.96518719 190.85977943 -69.0625 185.97265625 C-85.73082701 182.05284297 -100.84881336 173.0526694 -110.40234375 158.66796875 C-116.93713841 147.75534098 -120.55390381 136.73978773 -120 124 C-114.72 124 -109.44 124 -104 124 C-103.76925781 125.12277344 -103.53851562 126.24554688 -103.30078125 127.40234375 C-100.2245585 141.78107472 -95.51056733 152.94116533 -83.2421875 162.046875 C-65.36292936 173.20353208 -44.90444474 173.85295754 -24.86181641 169.45751953 C-20.92646981 168.49045429 -17.48964772 167.03734857 -14 165 C-13.23300781 164.5565625 -12.46601562 164.113125 -11.67578125 163.65625 C-2.43681783 157.91434877 2.56206859 150.92327709 5.75 140.5625 C6.76569017 130.15167577 5.85712577 120.38093149 -1 112 C-14.41407657 97.31023315 -38.44452263 95.61563286 -56.83056641 92.1081543 C-76.11113242 88.40857874 -96.12787236 84.23643373 -109 68 C-116.65720879 55.75237268 -118.0396011 41.09498929 -115.34765625 27.0390625 C-111.99556079 14.00473423 -104.8084237 2.95548705 -93.1640625 -4.11474609 C-64.38511616 -20.3597788 -26.95318939 -19.92373104 0 0 Z " fill="#231F20" transform="translate(1332,15)"/>
<path d="M0 0 C14.71246347 11.93279291 22.78301829 27.09734149 26.12451172 45.62744141 C26.57574911 51.6740224 26.43701172 57.75154657 26.43701172 63.81494141 C-12.50298828 63.81494141 -51.44298828 63.81494141 -91.56298828 63.81494141 C-88.50121276 83.20618636 -85.49350201 99.49759129 -69.88720703 112.25244141 C-57.74144241 120.41766132 -43.9292069 123.66123072 -29.48486328 121.31494141 C-17.6348788 118.64109875 -7.07800699 113.43033473 0.19091797 103.39306641 C3.4710623 98.09879837 6.03140812 92.55138076 8.43701172 86.81494141 C13.71701172 86.81494141 18.99701172 86.81494141 24.43701172 86.81494141 C19.21938666 105.47798488 10.01236344 120.36035672 -7.14892578 130.31494141 C-24.92502918 139.07266977 -45.23499945 138.94934748 -63.74658203 132.74853516 C-70.74566716 130.04697746 -76.6465548 126.39838294 -82.56298828 121.81494141 C-83.80435547 120.88875 -83.80435547 120.88875 -85.07080078 119.94384766 C-98.71528173 108.28829575 -104.99244862 90.42023008 -107.31298828 73.12744141 C-107.42446416 71.6918496 -107.50553752 70.25370828 -107.56298828 68.81494141 C-107.60294922 67.84556641 -107.64291016 66.87619141 -107.68408203 65.87744141 C-108.14373327 43.38156906 -102.31308292 22.44150412 -86.68408203 5.80712891 C-64.64403731 -14.89346558 -24.69006196 -18.72001886 0 0 Z M-76.81298828 17.87744141 C-84.25123997 26.80028242 -89.56298828 38.17085023 -89.56298828 49.81494141 C-56.56298828 49.81494141 -23.56298828 49.81494141 10.43701172 49.81494141 C7.55733768 32.53689718 2.58155987 20.45182383 -11.56298828 9.81494141 C-32.26667579 -2.86406102 -59.88927928 0.36791171 -76.81298828 17.87744141 Z " fill="#231F20" transform="translate(1476.56298828125,66.18505859375)"/>
<path d="M0 0 C5.61 0 11.22 0 17 0 C17.73597412 1.87751953 17.73597412 1.87751953 18.48681641 3.79296875 C28.13144282 28.3960313 37.78008745 52.99751855 47.43963623 77.59472656 C48.38808351 80.01002659 49.33636935 82.42539003 50.28448486 84.84082031 C53.18471823 92.22916449 56.08976622 99.61558956 59 107 C59.49506042 108.25864868 59.49506042 108.25864868 60.00012207 109.54272461 C60.85408337 111.71188305 61.71142455 113.87966357 62.5703125 116.046875 C63.02422363 117.19510742 63.47813477 118.34333984 63.94580078 119.52636719 C64.77551823 121.89994213 64.77551823 121.89994213 66 123 C66.40089844 121.94240479 66.80179688 120.88480957 67.21484375 119.79516602 C75.38562689 98.25021919 83.62812349 76.73608632 92.03344727 55.28149414 C95.48664614 46.46311808 98.91675764 37.63665362 102.3046875 28.79296875 C102.65407883 27.88138504 103.00347015 26.96980133 103.3634491 26.03059387 C105.04376355 21.64465959 106.72058492 17.2574282 108.39282227 12.8684082 C108.98967064 11.3080766 109.58659038 9.7477723 110.18359375 8.1875 C110.5917482 7.11105476 110.5917482 7.11105476 111.00814819 6.01286316 C112.88669268 1.11330732 112.88669268 1.11330732 114 0 C116.86469325 -0.07330331 119.69893674 -0.09217831 122.5625 -0.0625 C124.0676244 -0.05101114 125.57275159 -0.03988496 127.07788086 -0.02905273 C128.37218018 -0.01946533 129.66647949 -0.00987793 131 0 C126.6233652 11.88723251 121.96357523 23.64326218 117.1875 35.375 C116.43841398 37.21971645 115.68955853 39.06452655 114.94091797 40.90942383 C113.39265768 44.7243219 111.84342656 48.53882342 110.29345703 52.35302734 C107.07640253 60.27155277 103.87053238 68.19460004 100.66485596 76.11773682 C99.61854003 78.70346431 98.57177972 81.2890115 97.52490234 83.87451172 C93.74432269 93.212363 89.96881855 102.55224184 86.19921875 111.89453125 C81.84146533 122.69392551 77.47461693 133.48960997 73.10070801 144.2824707 C72.03177165 146.92155922 70.96444072 149.56129181 69.89746094 152.20117188 C68.29510742 156.16379815 66.68583916 160.12354468 65.07089233 164.08105469 C64.49427061 165.49680275 63.91980929 166.9134332 63.34780884 168.33105469 C53.37650232 193.02756565 53.37650232 193.02756565 43.1640625 199.08984375 C38.32179822 201.12639173 33.25362177 201.12059125 28.0703125 201.09765625 C26.78125 201.09443359 25.4921875 201.09121094 24.1640625 201.08789062 C22.81770764 201.07953733 21.47135348 201.07107241 20.125 201.0625 C18.75520996 201.0574783 17.38541815 201.05291657 16.015625 201.04882812 C12.67706436 201.03707263 9.33852649 201.01913805 6 201 C6 196.38 6 191.76 6 187 C7.32773438 186.95101562 8.65546875 186.90203125 10.0234375 186.8515625 C25.10330406 187.20036833 25.10330406 187.20036833 38.4765625 181.9765625 C41.60466654 178.28675557 43.45969047 174.51189385 45.4375 170.125 C45.8200293 169.28654541 46.20255859 168.44809082 46.59667969 167.58422852 C47.37041621 165.87574952 48.13821256 164.1645673 48.89990234 162.45068359 C49.90733335 160.20643315 50.9567589 157.98792925 52.01953125 155.76953125 C52.59884012 154.49331302 53.17581763 153.21603288 53.75 151.9375 C54.26046875 150.83277344 54.7709375 149.72804687 55.296875 148.58984375 C56.86134862 140.60233676 51.8503659 131.77960681 48.87084961 124.43920898 C48.46707092 123.43427399 48.06329224 122.42933899 47.64727783 121.39395142 C46.31977675 118.09298006 44.98608986 114.79454618 43.65234375 111.49609375 C42.71612478 109.1714684 41.78030528 106.84668213 40.84486389 104.52174377 C38.63243698 99.02566469 36.41615121 93.53115243 34.19790989 88.03741843 C31.46742822 81.27448487 28.74244512 74.50933809 26.01757812 67.74414062 C22.78484473 59.71850862 19.55061735 51.69348589 16.31267643 43.66995335 C15.05434156 40.54988473 13.79824802 37.42892118 12.54244995 34.30783081 C10.7500506 29.85428832 8.94571237 25.40575419 7.13650513 20.95901489 C6.21011303 18.67072014 5.28382994 16.38238125 4.35766602 14.09399414 C3.92032355 13.02502868 3.48298109 11.95606321 3.03238583 10.85470486 C2.63434026 9.86822492 2.23629469 8.88174498 1.82618713 7.8653717 C1.4726545 6.99599504 1.11912188 6.12661837 0.75487614 5.23089695 C0 3 0 3 0 0 Z " fill="#231F20" transform="translate(2039,57)"/>
<path d="M0 0 C5.28 0 10.56 0 16 0 C16.00364563 1.10452515 16.00729126 2.20905029 16.01104736 3.3470459 C16.04819024 13.82012875 16.10617086 24.29292281 16.18390274 34.76578522 C16.22320153 40.1483929 16.2554756 45.53084129 16.27099609 50.91357422 C16.2862795 56.12039504 16.32092878 61.32677738 16.36830902 66.53340149 C16.3830034 68.50739198 16.39103405 70.48144511 16.39188385 72.45549011 C16.4049739 87.6335451 16.99825886 103.08083447 26 116 C26.721875 117.051875 27.44375 118.10375 28.1875 119.1875 C37.36124812 128.36124812 48.37037594 130.8403151 61 131 C72.58223631 130.34025236 83.29341579 125.96971388 91.19140625 117.31640625 C101.07799467 104.65388588 105.08339749 90.4943242 105.20532227 74.58618164 C105.21522186 73.7756131 105.22512146 72.96504456 105.23532104 72.12991333 C105.26669417 69.47335648 105.29159693 66.8167818 105.31640625 64.16015625 C105.33699671 62.3092759 105.35799371 60.45840002 105.37937927 58.60752869 C105.43438395 53.7529566 105.48388787 48.8983436 105.53222656 44.04370117 C105.58260002 39.08313385 105.63820312 34.12262541 105.69335938 29.16210938 C105.80067645 19.44145484 105.90169567 9.72074986 106 0 C111.28 0 116.56 0 122 0 C122 47.52 122 95.04 122 144 C117.38 144 112.76 144 108 144 C107.86722656 142.36289063 107.73445313 140.72578125 107.59765625 139.0390625 C107.41948635 136.9010237 107.24108918 134.76300382 107.0625 132.625 C106.97548828 131.54476562 106.88847656 130.46453125 106.79882812 129.3515625 C106.71181641 128.3203125 106.62480469 127.2890625 106.53515625 126.2265625 C106.41732788 124.79691162 106.41732788 124.79691162 106.29711914 123.33837891 C106.12871826 120.98168205 106.12871826 120.98168205 105 119 C104.5153125 119.71285156 104.030625 120.42570312 103.53125 121.16015625 C94.27930572 134.37976125 83.58267179 142.3207018 67.47265625 145.52734375 C51.51354461 147.6995063 35.23189448 145.78865056 22 136 C21.05253906 135.32324219 21.05253906 135.32324219 20.0859375 134.6328125 C8.23158713 125.38955252 2.67831586 110.36909295 0.71144104 95.87333679 C-0.3057018 86.23401763 -0.12526719 76.57395603 -0.09765625 66.89453125 C-0.09578797 64.95969174 -0.09436601 63.02485175 -0.09336853 61.0900116 C-0.08957561 56.03159243 -0.07977335 50.97320261 -0.06866455 45.91479492 C-0.0583806 40.73942461 -0.05385603 35.56404949 -0.04882812 30.38867188 C-0.03814777 20.25909971 -0.02057759 10.1295569 0 0 Z " fill="#231F20" transform="translate(1666,57)"/>
<path d="M0 0 C11.71913183 9.19448626 19.70285164 20.31270278 23 35 C23 36.32 23 37.64 23 39 C18.05 39 13.1 39 8 39 C7.29875 37.185 6.5975 35.37 5.875 33.5 C1.03772817 21.98783352 -6.64558045 13.00779598 -18.3125 8.0625 C-30.7182471 3.27858445 -45.64477641 3.11072628 -58.171875 7.671875 C-62.91891659 9.90114867 -66.97534068 12.65205331 -71 16 C-71.63550781 16.52335937 -72.27101563 17.04671875 -72.92578125 17.5859375 C-83.42776944 27.13319949 -89.15497863 42.01419335 -90.140625 55.99462891 C-90.95966234 74.32058936 -87.81310906 92.11731848 -76.1875 106.9375 C-66.01741431 117.6485477 -52.67095613 122.87631096 -38.125 123.3125 C-25.38584092 123.05118392 -13.20190508 118.75255705 -3.81640625 110.01171875 C1.71735193 103.88293281 4.7234545 96.84143451 7 89 C12.28 89 17.56 89 23 89 C20.37182367 104.33102861 14.1415717 116.94855587 1.5625 126.5 C-15.14680012 137.600584 -34.75795024 140.58127336 -54.3125 136.8125 C-72.29538325 132.36821764 -86.70896498 122.77773476 -96.3671875 106.8828125 C-108.23344311 85.93234208 -109.8587113 61.11769054 -104 38 C-98.95670274 20.71142417 -88.10978545 6.37126899 -72.33154297 -2.3684082 C-50.72290453 -13.70249519 -20.48706396 -14.28078183 0 0 Z " fill="#231F20" transform="translate(1626,65)"/>
<path d="M0 0 C5.28 0 10.56 0 16 0 C16 13.53 16 27.06 16 41 C28.54 41 41.08 41 54 41 C54 45.62 54 50.24 54 55 C41.46 55 28.92 55 16 55 C16.06293966 68.30878309 16.1383685 81.61733512 16.23571491 94.9259119 C16.28042015 101.1057867 16.31967619 107.28559554 16.34643555 113.46557617 C16.37246661 119.43089195 16.41286825 125.39595397 16.46318626 131.36111259 C16.47985619 133.63561278 16.49136967 135.91015685 16.49761391 138.18470955 C16.50725332 141.37349096 16.5353119 144.56162294 16.56762695 147.75024414 C16.56619186 148.68820328 16.56475677 149.62616241 16.5632782 150.59254456 C16.65327552 156.88238174 17.61061501 161.53539176 21.25 166.8125 C27.75765062 171.22840578 36.43098825 170.43605791 43.9375 170.625 C45.82178711 170.68300781 45.82178711 170.68300781 47.74414062 170.7421875 C50.82919678 170.83602951 53.91457774 170.91908485 57 171 C57 175.62 57 180.24 57 185 C52.48280401 185.06937673 47.96750227 185.12895087 43.45019531 185.16479492 C41.91790457 185.17975744 40.38565571 185.20013497 38.85351562 185.22631836 C28.1475123 185.40451881 17.35168205 185.55227634 8.53125 178.5625 C0.12603662 169.98575165 -0.31627027 157.73156022 -0.22705078 146.38793945 C-0.22734283 145.39146896 -0.22763489 144.39499847 -0.22793579 143.36833191 C-0.22655668 140.11655576 -0.21106308 136.86501673 -0.1953125 133.61328125 C-0.19157732 131.34213893 -0.18873273 129.07099498 -0.18673706 126.79985046 C-0.17914042 120.85364244 -0.15952637 114.9075338 -0.1373291 108.96136475 C-0.11678477 102.88115788 -0.10771705 96.80093478 -0.09765625 90.72070312 C-0.07627643 78.81375164 -0.041127 66.90689967 0 55 C-8.91 55 -17.82 55 -27 55 C-27 50.38 -27 45.76 -27 41 C-18.09 41 -9.18 41 0 41 C0 27.47 0 13.94 0 0 Z " fill="#231F20" transform="translate(1973,16)"/>
<path d="M0 0 C4.62 0 9.24 0 14 0 C14.8574904 8.03897252 15.11564317 15.9178273 15 24 C15.66 24 16.32 24 17 24 C17.26554687 23.26652344 17.53109375 22.53304687 17.8046875 21.77734375 C21.4841169 13.22808132 28.35080511 6.59426547 36.73046875 2.74609375 C46.37426179 -0.76185125 55.90095043 -0.38391318 66 0 C66 4.62 66 9.24 66 14 C64.68386719 14.09796875 63.36773438 14.1959375 62.01171875 14.296875 C43.94579083 15.62172121 43.94579083 15.62172121 28.78125 24.828125 C19.6998815 35.90102168 16.89482556 50.81638716 16.79467773 64.75927734 C16.77982834 66.0480629 16.77982834 66.0480629 16.76467896 67.36288452 C16.73323068 70.18720801 16.7083728 73.01154829 16.68359375 75.8359375 C16.66300981 77.80034814 16.64201296 79.76475449 16.62062073 81.72915649 C16.56554878 86.8878837 16.51607414 92.04664988 16.46777344 97.20544434 C16.41744951 102.47423758 16.3618204 107.74297452 16.30664062 113.01171875 C16.1992411 123.34109943 16.09824655 133.6705282 16 144 C10.72 144 5.44 144 0 144 C0 96.48 0 48.96 0 0 Z " fill="#231F20" transform="translate(1814,57)"/>
<path d="M0 0 C5.28 0 10.56 0 16 0 C16 47.52 16 95.04 16 144 C10.72 144 5.44 144 0 144 C0 96.48 0 48.96 0 0 Z " fill="#231F20" transform="translate(1906,57)"/>
<path d="M0 0 C2.87472735 1.24988145 4.44101438 2.25468584 6.3125 4.75 C7.31516165 8.03143813 7.35356638 10.58219169 7 14 C3.92307692 19.53846154 3.92307692 19.53846154 1 21 C-3.26255164 21.43546696 -6.94179539 21.42778484 -10.9375 19.8125 C-13.48491235 17.57386491 -14.26197964 16.32109161 -15 13 C-15 7.80422865 -14.83816688 5.98126854 -11.4375 2 C-6.97827601 -0.59445759 -5.08808639 -0.64610621 0 0 Z " fill="#231F20" transform="translate(1918,4)"/>
</svg>
