<svg width="125" height="124" viewBox="0 0 125 124" fill="none" xmlns="http://www.w3.org/2000/svg"><path d="M90.5324 0H75.5661L67.6372 6.89671L64.9161 9.61786V114.992L67.6372 117.103L75.613 124L100.385 123.531L122.999 94.818V34.5305L90.5324 0Z" fill="#103A5E"/><path d="M81.0084 13.0897C83.8703 13.0897 86.2161 15.4355 86.2161 18.2974C86.2161 20.6432 84.7148 22.5668 82.6035 23.2236V39.9728L92.456 48.793C93.2066 48.4177 94.0042 48.1831 94.8487 48.1831C97.7106 48.1831 100.056 50.529 100.056 53.3909C100.056 56.2528 97.7106 58.5986 94.8487 58.5986C91.9868 58.5986 89.641 56.2528 89.641 53.3909C89.641 52.6871 89.7818 52.0772 90.0163 51.5142L78.9441 41.6618V23.0359C77.0674 22.2853 75.8007 20.4086 75.8007 18.2505C75.8007 15.4355 78.1465 13.0897 81.0084 13.0897Z" fill="white"/><path d="M88.8904 110.863C86.0285 110.863 83.6826 108.518 83.6826 105.656C83.6826 104.999 83.7765 104.389 84.011 103.826L76.2229 97.1169V81.3999L84.058 73.9402C83.8234 73.3303 83.6357 72.6266 83.6357 71.9228C83.6357 69.0609 85.9815 66.7151 88.8434 66.7151C91.7053 66.7151 94.0511 69.0609 94.0511 71.9228C94.0511 74.7847 91.7053 77.1305 88.8434 77.1305C87.9989 77.1305 87.2483 76.896 86.5445 76.5675L79.8355 82.9482V95.4279L86.4038 101.058C87.1075 100.636 87.952 100.401 88.8904 100.401L88.9373 100.448C91.7992 100.448 94.145 102.794 94.145 105.656C94.0981 108.565 91.7523 110.863 88.8904 110.863Z" fill="#F15822"/><path d="M109.299 75.4416L100.432 85.9039C100.854 86.6077 101.089 87.4521 101.089 88.3905C101.089 91.2524 98.7428 93.5982 95.8809 93.5982C93.019 93.5982 90.6732 91.2524 90.6732 88.3905C90.6732 85.5286 93.019 83.1828 95.8809 83.1828C96.5377 83.1828 97.1007 83.2766 97.7106 83.5112L105.686 74.1279V43.3038L98.2736 35.891C97.523 36.2664 96.7254 36.454 95.9278 36.454L95.9747 36.501C93.1128 36.501 90.767 34.1551 90.767 31.2932C90.767 28.4313 93.1128 26.0855 95.9747 26.0855C98.8366 26.0855 101.182 28.4313 101.182 31.2932C101.182 31.997 101.042 32.6069 100.76 33.2168L109.346 41.8025V75.4416H109.299Z" fill="white"/><path d="M57.3625 6.89671L49.4337 0H34.4673L2.00122 34.5305V94.818L24.6618 123.531L49.4337 124L57.3625 117.103L60.1306 114.992V9.61786L57.3625 6.89671Z" fill="#103A5E"/><path d="M23.9112 88.2966C23.9112 87.4052 24.1458 86.5607 24.568 85.8101L15.7008 75.3477V41.7087L24.2865 33.123C24.0519 32.56 23.8643 31.9031 23.8643 31.1994C23.8643 28.3375 26.2101 25.9917 29.072 25.9917C31.9339 25.9917 34.2797 28.3375 34.2797 31.1994C34.2797 34.0613 31.9339 36.4071 29.072 36.4071C28.1805 36.4071 27.4299 36.1725 26.7261 35.8441L19.3134 43.2569V74.081L27.2891 83.4642C27.8521 83.2766 28.4621 83.1358 29.1189 83.1358C31.9808 83.1358 34.3266 85.4817 34.3266 88.3436L34.3735 88.2966C34.3735 91.1585 32.0277 93.5044 29.1658 93.5044C26.2101 93.5044 23.9112 91.1585 23.9112 88.2966Z" fill="white"/><path d="M48.8238 97.1169L41.0356 103.826C41.2233 104.389 41.3641 105.046 41.3641 105.656C41.3641 108.518 39.0182 110.863 36.1563 110.863C33.2944 110.863 30.9486 108.518 30.9486 105.656C30.9486 102.794 33.2944 100.448 36.1563 100.448C37.0478 100.448 37.8923 100.683 38.6429 101.105L45.2112 95.4748V82.9951L38.4552 76.6145C37.7515 76.9429 37.0008 77.1775 36.1563 77.1775C33.2944 77.1775 30.9486 74.8316 30.9486 71.9697C30.9486 69.1078 33.2944 66.762 36.1563 66.762C39.0182 66.762 41.3641 69.1078 41.3641 71.9697L41.411 71.9228C41.411 72.6735 41.2702 73.3303 40.9887 73.9402L48.8707 81.3999V97.1169H48.8238Z" fill="white"/><path d="M45.9619 23.2236V41.7087L34.8896 51.5611C35.1242 52.1241 35.2649 52.7809 35.2649 53.4378C35.2649 56.2997 32.9191 58.6455 30.0572 58.6455C27.1953 58.6455 24.8495 56.2997 24.8495 53.4378C24.8495 50.5759 27.1953 48.23 30.0572 48.23C30.9486 48.23 31.7462 48.4646 32.4499 48.84L42.3024 40.0197V23.2705C40.2381 22.5668 38.6898 20.6432 38.6898 18.3443C38.6898 15.4824 41.0356 13.1366 43.8975 13.1366V13.2304C46.7594 13.2304 49.1053 15.5762 49.1053 18.4381C49.1522 20.5963 47.8385 22.426 45.9619 23.2236Z" fill="#F15822"/></svg>